%TF.GenerationSoftware,KiCad,Pcbnew,10.0.3*%
%TF.CreationDate,2026-06-24T20:29:48-04:00*%
%TF.ProjectId,Primis_Versipellis,5072696d-6973-45f5-9665-72736970656c,rev?*%
%TF.SameCoordinates,Original*%
%TF.FileFunction,Copper,L2,Bot*%
%TF.FilePolarity,Positive*%
%FSLAX46Y46*%
G04 Gerber Fmt 4.6, Leading zero omitted, Abs format (unit mm)*
G04 Created by KiCad (PCBNEW 10.0.3) date 2026-06-24 20:29:48*
%MOMM*%
%LPD*%
G01*
G04 APERTURE LIST*
%TA.AperFunction,ComponentPad*%
%ADD10C,1.431000*%
%TD*%
%TA.AperFunction,ComponentPad*%
%ADD11C,3.450000*%
%TD*%
%TA.AperFunction,ComponentPad*%
%ADD12R,0.500000X0.900000*%
%TD*%
%TA.AperFunction,ViaPad*%
%ADD13C,0.700000*%
%TD*%
%TA.AperFunction,ViaPad*%
%ADD14C,0.600000*%
%TD*%
%TA.AperFunction,Conductor*%
%ADD15C,0.200000*%
%TD*%
%TA.AperFunction,Conductor*%
%ADD16C,0.300000*%
%TD*%
G04 APERTURE END LIST*
D10*
%TO.P,J1,1,1_1*%
%TO.N,GND*%
X129600000Y-66000000D03*
%TO.P,J1,2,2_2*%
%TO.N,D+*%
X129600000Y-68500000D03*
%TO.P,J1,3,3_3*%
%TO.N,D-*%
X129600000Y-70500000D03*
%TO.P,J1,4,4_4*%
%TO.N,VBUS*%
X129600000Y-73000000D03*
D11*
%TO.P,J1,5,5_5*%
%TO.N,GND*%
X127600000Y-63500000D03*
%TO.P,J1,6,6_6*%
X127600000Y-75500000D03*
%TD*%
D12*
%TO.P,REF\u002A\u002A,2*%
%TO.N,N/C*%
X168750000Y-76050000D03*
%TD*%
D13*
%TO.N,GND*%
X163000000Y-66500000D03*
X153000000Y-78000000D03*
D14*
X165500000Y-75000000D03*
D13*
X148500000Y-62000000D03*
D14*
X163500000Y-72000000D03*
X132500000Y-67500000D03*
D13*
X144000000Y-69500000D03*
D14*
X167750000Y-73000000D03*
D13*
X156000000Y-62500000D03*
D14*
X167000000Y-75000000D03*
D13*
X148500000Y-78500000D03*
X156128763Y-71070000D03*
D14*
X158000000Y-72000000D03*
X158000000Y-63000000D03*
D13*
X151070000Y-65500000D03*
D14*
X167750000Y-75000000D03*
D13*
X144000000Y-62500000D03*
X144000000Y-71500000D03*
X163000000Y-68500000D03*
D14*
X142000000Y-60800000D03*
D13*
X152000000Y-58500000D03*
D14*
X163500000Y-64500000D03*
X157600000Y-58800000D03*
X167000000Y-73000000D03*
X165500000Y-73000000D03*
D13*
X163000000Y-70500000D03*
D14*
X166250000Y-75000000D03*
X132000000Y-66000000D03*
X166250000Y-73000000D03*
%TO.N,VBUS*%
X141000000Y-63500000D03*
X139533695Y-69944957D03*
%TO.N,D+*%
X134000000Y-71575000D03*
X150951669Y-79199479D03*
%TO.N,D-*%
X134000000Y-72425000D03*
X150350627Y-79800521D03*
%TO.N,VDD_nRF*%
X155250000Y-65250000D03*
X151500000Y-77000000D03*
X153250000Y-65000000D03*
X149980000Y-65500000D03*
%TO.N,Net-(J2-SWDIO)*%
X138000000Y-70000000D03*
D13*
X137500000Y-71500000D03*
D14*
X138000000Y-65000000D03*
D13*
X153070000Y-74000000D03*
D14*
%TO.N,Net-(J2-~{RESET})*%
X138000000Y-64000000D03*
X132509119Y-66509119D03*
D13*
%TO.N,Net-(J2-SWCLK)*%
X153604674Y-73378286D03*
X139000000Y-70500000D03*
%TO.N,Net-(U1-P0.18{slash}~{RESET})*%
X142000000Y-72000000D03*
X151096979Y-75500000D03*
D14*
%TO.N,DEC4_6*%
X149750000Y-64750000D03*
X157000000Y-69750000D03*
%TD*%
%TO.N,D+*%
D15*
X141436096Y-75820000D02*
X147289347Y-75820000D01*
X141013898Y-75820000D02*
X141436096Y-75820000D01*
%TO.N,D-*%
X139741524Y-73699097D02*
G75*
G02*
X139989050Y-73699070I123776J-123703D01*
G01*
%TO.N,D+*%
X140996643Y-75802745D02*
X141013898Y-75820000D01*
%TO.N,D-*%
X140130445Y-73840517D02*
G75*
G02*
X140130478Y-74088050I-123745J-123783D01*
G01*
%TO.N,D+*%
X138875323Y-73681426D02*
G75*
G03*
X139122851Y-73681452I123777J123726D01*
G01*
%TO.N,D-*%
X139105154Y-76280021D02*
G75*
G03*
X139989023Y-76280022I441935J441935D01*
G01*
%TO.N,D+*%
X140855220Y-75661323D02*
X140996643Y-75802745D01*
%TO.N,D-*%
X138963733Y-75254731D02*
G75*
G03*
X138963698Y-76138634I441967J-441969D01*
G01*
%TO.N,D+*%
X139582430Y-75272401D02*
X139281916Y-75572914D01*
X140448629Y-74406203D02*
X140148116Y-74706717D01*
X139865272Y-74989558D02*
X139582430Y-75272401D01*
X140148116Y-74706717D02*
X139865273Y-74989560D01*
X139281916Y-75820416D02*
X139423337Y-75961837D01*
X150668826Y-79199479D02*
X150951669Y-79199479D01*
X134000000Y-71575000D02*
X134199999Y-71774999D01*
X147289347Y-75820000D02*
X150668826Y-79199479D01*
X139122827Y-73681428D02*
X139423339Y-73380913D01*
%TO.N,D-*%
X140289536Y-75979507D02*
G75*
G02*
X140537037Y-75979506I123751J-123751D01*
G01*
%TO.N,D+*%
X139865273Y-74989560D02*
X139865272Y-74989558D01*
%TO.N,D-*%
X139829931Y-74388531D02*
X139547088Y-74671374D01*
%TO.N,D+*%
X139423339Y-73380913D02*
G75*
G02*
X140307235Y-73380887I441961J-441987D01*
G01*
%TO.N,D-*%
X139264246Y-74954217D02*
X138963733Y-75254731D01*
%TO.N,D+*%
X140307209Y-73380914D02*
X140448630Y-73522335D01*
X139281916Y-75572914D02*
G75*
G03*
X139281881Y-75820451I123784J-123786D01*
G01*
%TO.N,D-*%
X138557140Y-73999609D02*
G75*
G03*
X139441035Y-73999635I441960J441909D01*
G01*
%TO.N,D+*%
X140448630Y-73522335D02*
G75*
G02*
X140448661Y-74406234I-441930J-441965D01*
G01*
X139423337Y-75961837D02*
G75*
G03*
X139670838Y-75961838I123751J123751D01*
G01*
X138875325Y-73681427D02*
X138875323Y-73681426D01*
%TO.N,D-*%
X139441010Y-73999610D02*
X139741524Y-73699097D01*
%TO.N,D+*%
X139971351Y-75661323D02*
G75*
G02*
X140855220Y-75661322I441935J-441935D01*
G01*
%TO.N,D-*%
X139989023Y-76280021D02*
X140289536Y-75979507D01*
%TO.N,D+*%
X139670838Y-75961837D02*
X139971351Y-75661323D01*
X134199999Y-71774999D02*
X136968897Y-71774999D01*
%TO.N,D-*%
X141436096Y-76269980D02*
X147102929Y-76269980D01*
%TO.N,D+*%
X136968897Y-71774999D02*
X138875325Y-73681427D01*
%TO.N,D-*%
X134000000Y-72425000D02*
X134199999Y-72225001D01*
X138963733Y-76138600D02*
X139105154Y-76280021D01*
X134199999Y-72225001D02*
X136782531Y-72225001D01*
X136782531Y-72225001D02*
X138557141Y-73999611D01*
X138557141Y-73999611D02*
X138557140Y-73999609D01*
X139989024Y-73699096D02*
X140130445Y-73840517D01*
X140130446Y-74088019D02*
X139829931Y-74388531D01*
X139547088Y-74671374D02*
X139547089Y-74671375D01*
X139547089Y-74671375D02*
X139264246Y-74954217D01*
X140537037Y-75979507D02*
X140678459Y-76120929D01*
X140678459Y-76120929D02*
X140827510Y-76269980D01*
X140827510Y-76269980D02*
X141436096Y-76269980D01*
X147102929Y-76269980D02*
X150350627Y-79517678D01*
X150350627Y-79517678D02*
X150350627Y-79800521D01*
%TO.N,VBUS*%
D16*
X141000000Y-68478652D02*
X141000000Y-63500000D01*
X139533695Y-69944957D02*
X141000000Y-68478652D01*
%TO.N,VDD_nRF*%
D15*
X152479000Y-64229000D02*
X153250000Y-65000000D01*
X157521000Y-70979000D02*
X151500000Y-77000000D01*
X149980000Y-65500000D02*
X149763194Y-65500000D01*
X149229000Y-64965806D02*
X149229000Y-64534194D01*
X155250000Y-65250000D02*
X157521000Y-67521000D01*
X149229000Y-64534194D02*
X149534194Y-64229000D01*
X157521000Y-67521000D02*
X157521000Y-70979000D01*
X149763194Y-65500000D02*
X149229000Y-64965806D01*
X149534194Y-64229000D02*
X152479000Y-64229000D01*
%TO.N,Net-(J2-SWDIO)*%
X145692484Y-74000000D02*
X153070000Y-74000000D01*
X138000000Y-65000000D02*
X138000000Y-70000000D01*
X137571000Y-71429000D02*
X143121484Y-71429000D01*
X137500000Y-71500000D02*
X137571000Y-71429000D01*
X143121484Y-71429000D02*
X145692484Y-74000000D01*
%TO.N,Net-(J2-~{RESET})*%
X133500000Y-65518238D02*
X133500000Y-63250000D01*
X132509119Y-66509119D02*
X133500000Y-65518238D01*
X133750000Y-63000000D02*
X137000000Y-63000000D01*
X137000000Y-63000000D02*
X138000000Y-64000000D01*
X133500000Y-63250000D02*
X133750000Y-63000000D01*
%TO.N,Net-(J2-SWCLK)*%
X150726388Y-70500000D02*
X153604674Y-73378286D01*
X139000000Y-70500000D02*
X150726388Y-70500000D01*
%TO.N,Net-(U1-P0.18{slash}~{RESET})*%
X142000000Y-72000000D02*
X145500000Y-75500000D01*
X145500000Y-75500000D02*
X151096979Y-75500000D01*
%TO.N,DEC4_6*%
X152000000Y-64750000D02*
X149750000Y-64750000D01*
X157000000Y-69750000D02*
X152000000Y-64750000D01*
%TD*%
%TA.AperFunction,Conductor*%
%TO.N,GND*%
G36*
X150493330Y-71120185D02*
G01*
X150513972Y-71136819D01*
X152534733Y-73157580D01*
X152568218Y-73218903D01*
X152563234Y-73288595D01*
X152530916Y-73333837D01*
X152532145Y-73335066D01*
X152504030Y-73363181D01*
X152442707Y-73396666D01*
X152416349Y-73399500D01*
X145992581Y-73399500D01*
X145925542Y-73379815D01*
X145904900Y-73363181D01*
X143853900Y-71312181D01*
X143820415Y-71250858D01*
X143825399Y-71181166D01*
X143867271Y-71125233D01*
X143932735Y-71100816D01*
X143941581Y-71100500D01*
X150426291Y-71100500D01*
X150493330Y-71120185D01*
G37*
%TD.AperFunction*%
%TA.AperFunction,Conductor*%
G36*
X129171349Y-66177553D02*
G01*
X129231909Y-66282446D01*
X129317554Y-66368091D01*
X129422447Y-66428651D01*
X129503250Y-66450302D01*
X128934572Y-67018979D01*
X128934573Y-67018980D01*
X128962934Y-67039586D01*
X129133408Y-67126447D01*
X129149901Y-67131806D01*
X129207577Y-67171242D01*
X129234776Y-67235601D01*
X129222862Y-67304447D01*
X129175618Y-67355924D01*
X129149904Y-67367667D01*
X129133217Y-67373088D01*
X128962673Y-67459986D01*
X128807835Y-67572480D01*
X128782457Y-67597859D01*
X128721133Y-67631343D01*
X128651441Y-67626357D01*
X128595509Y-67584485D01*
X128571093Y-67519020D01*
X128573159Y-67485988D01*
X128595617Y-67373088D01*
X128600500Y-67348543D01*
X128600500Y-67151456D01*
X128562052Y-66958170D01*
X128562051Y-66958169D01*
X128562051Y-66958165D01*
X128513504Y-66840963D01*
X128506036Y-66771495D01*
X128537311Y-66709016D01*
X128541361Y-66706612D01*
X128540597Y-66705848D01*
X129149696Y-66096748D01*
X129171349Y-66177553D01*
G37*
%TD.AperFunction*%
%TA.AperFunction,Conductor*%
G36*
X168442539Y-57020185D02*
G01*
X168488294Y-57072989D01*
X168499500Y-57124500D01*
X168499500Y-61565891D01*
X168533608Y-61693187D01*
X168566554Y-61750250D01*
X168599500Y-61807314D01*
X168692686Y-61900500D01*
X168806814Y-61966392D01*
X168908095Y-61993529D01*
X168967753Y-62029892D01*
X168998283Y-62092739D01*
X169000000Y-62113303D01*
X169000000Y-74975500D01*
X168980315Y-75042539D01*
X168927511Y-75088294D01*
X168876000Y-75099500D01*
X168452129Y-75099500D01*
X168452123Y-75099501D01*
X168392516Y-75105908D01*
X168257671Y-75156202D01*
X168257664Y-75156206D01*
X168142455Y-75242452D01*
X168142452Y-75242455D01*
X168056206Y-75357664D01*
X168056202Y-75357671D01*
X168005908Y-75492517D01*
X167999501Y-75552116D01*
X167999500Y-75552135D01*
X167999500Y-76547870D01*
X167999501Y-76547876D01*
X168005908Y-76607483D01*
X168056202Y-76742328D01*
X168056206Y-76742335D01*
X168142452Y-76857544D01*
X168142455Y-76857547D01*
X168257664Y-76943793D01*
X168257671Y-76943797D01*
X168302618Y-76960561D01*
X168392517Y-76994091D01*
X168452127Y-77000500D01*
X168495684Y-77000499D01*
X168562721Y-77020182D01*
X168608477Y-77072985D01*
X168618422Y-77142143D01*
X168603071Y-77186499D01*
X168533609Y-77306810D01*
X168533609Y-77306811D01*
X168533608Y-77306813D01*
X168533608Y-77306814D01*
X168499500Y-77434108D01*
X168499500Y-81875500D01*
X168479815Y-81942539D01*
X168427011Y-81988294D01*
X168375500Y-81999500D01*
X125086424Y-81999500D01*
X125019385Y-81979815D01*
X124973630Y-81927011D01*
X124962425Y-81875118D01*
X124967717Y-80155048D01*
X124971598Y-78893713D01*
X132649500Y-78893713D01*
X132649500Y-79106286D01*
X132676747Y-79278321D01*
X132682754Y-79316243D01*
X132720684Y-79432980D01*
X132748444Y-79518414D01*
X132844951Y-79707820D01*
X132969890Y-79879786D01*
X133120213Y-80030109D01*
X133292179Y-80155048D01*
X133292181Y-80155049D01*
X133292184Y-80155051D01*
X133481588Y-80251557D01*
X133683757Y-80317246D01*
X133893713Y-80350500D01*
X133893714Y-80350500D01*
X134106286Y-80350500D01*
X134106287Y-80350500D01*
X134316243Y-80317246D01*
X134518412Y-80251557D01*
X134707816Y-80155051D01*
X134729789Y-80139086D01*
X134879786Y-80030109D01*
X134879788Y-80030106D01*
X134879792Y-80030104D01*
X135030104Y-79879792D01*
X135030106Y-79879788D01*
X135030109Y-79879786D01*
X135153633Y-79709768D01*
X135155051Y-79707816D01*
X135251557Y-79518412D01*
X135317246Y-79316243D01*
X135350500Y-79106287D01*
X135350500Y-78893713D01*
X135317246Y-78683757D01*
X135251557Y-78481588D01*
X135155051Y-78292184D01*
X135155049Y-78292181D01*
X135155048Y-78292179D01*
X135030109Y-78120213D01*
X134879786Y-77969890D01*
X134707820Y-77844951D01*
X134518414Y-77748444D01*
X134518413Y-77748443D01*
X134518412Y-77748443D01*
X134316243Y-77682754D01*
X134316241Y-77682753D01*
X134316240Y-77682753D01*
X134154957Y-77657208D01*
X134106287Y-77649500D01*
X133893713Y-77649500D01*
X133845042Y-77657208D01*
X133683760Y-77682753D01*
X133481585Y-77748444D01*
X133292179Y-77844951D01*
X133120213Y-77969890D01*
X132969890Y-78120213D01*
X132844951Y-78292179D01*
X132748444Y-78481585D01*
X132682753Y-78683760D01*
X132649500Y-78893713D01*
X124971598Y-78893713D01*
X124981977Y-75520662D01*
X124982503Y-75349725D01*
X124996717Y-70730265D01*
X125019413Y-63354172D01*
X125375000Y-63354172D01*
X125375000Y-63645827D01*
X125375001Y-63645844D01*
X125413069Y-63935003D01*
X125488562Y-64216744D01*
X125600171Y-64486195D01*
X125600179Y-64486211D01*
X125746006Y-64738788D01*
X125746012Y-64738796D01*
X125859608Y-64886837D01*
X126627912Y-64118532D01*
X126722829Y-64249175D01*
X126850825Y-64377171D01*
X126981465Y-64472086D01*
X126213161Y-65240389D01*
X126213161Y-65240390D01*
X126361203Y-65353987D01*
X126361211Y-65353993D01*
X126613788Y-65499820D01*
X126613804Y-65499828D01*
X126883255Y-65611437D01*
X127164996Y-65686930D01*
X127454155Y-65724998D01*
X127454173Y-65725000D01*
X127745827Y-65725000D01*
X127745844Y-65724998D01*
X128035002Y-65686930D01*
X128251511Y-65628916D01*
X128321361Y-65630579D01*
X128379223Y-65669741D01*
X128406728Y-65733969D01*
X128406078Y-65768088D01*
X128384500Y-65904331D01*
X128384500Y-66095667D01*
X128414428Y-66284626D01*
X128414429Y-66284631D01*
X128431127Y-66336023D01*
X128433122Y-66405864D01*
X128397041Y-66465697D01*
X128334340Y-66496524D01*
X128264925Y-66488559D01*
X128243337Y-66475511D01*
X128242847Y-66476245D01*
X128073920Y-66363371D01*
X128073907Y-66363364D01*
X127891839Y-66287950D01*
X127891829Y-66287947D01*
X127698543Y-66249500D01*
X127698541Y-66249500D01*
X127501459Y-66249500D01*
X127501457Y-66249500D01*
X127308170Y-66287947D01*
X127308160Y-66287950D01*
X127126092Y-66363364D01*
X127126079Y-66363371D01*
X126962218Y-66472860D01*
X126962214Y-66472863D01*
X126822863Y-66612214D01*
X126822860Y-66612218D01*
X126713371Y-66776079D01*
X126713364Y-66776092D01*
X126637950Y-66958160D01*
X126637947Y-66958170D01*
X126599500Y-67151456D01*
X126599500Y-67151459D01*
X126599500Y-67348541D01*
X126599500Y-67348543D01*
X126599499Y-67348543D01*
X126637947Y-67541829D01*
X126637950Y-67541839D01*
X126713364Y-67723907D01*
X126713371Y-67723920D01*
X126822860Y-67887781D01*
X126822863Y-67887785D01*
X126962214Y-68027136D01*
X126962218Y-68027139D01*
X127126079Y-68136628D01*
X127126092Y-68136635D01*
X127308160Y-68212049D01*
X127308165Y-68212051D01*
X127308169Y-68212051D01*
X127308170Y-68212052D01*
X127501456Y-68250500D01*
X127501459Y-68250500D01*
X127698543Y-68250500D01*
X127828582Y-68224632D01*
X127891835Y-68212051D01*
X128073914Y-68136632D01*
X128185708Y-68061934D01*
X128242847Y-68023755D01*
X128244317Y-68025955D01*
X128298020Y-68003093D01*
X128366898Y-68014826D01*
X128418498Y-68061934D01*
X128436438Y-68129461D01*
X128430412Y-68164563D01*
X128414983Y-68212051D01*
X128413941Y-68215257D01*
X128384000Y-68404299D01*
X128384000Y-68595700D01*
X128413941Y-68784744D01*
X128413942Y-68784747D01*
X128445585Y-68882135D01*
X128473090Y-68966784D01*
X128559986Y-69137326D01*
X128672481Y-69292164D01*
X128672485Y-69292169D01*
X128792635Y-69412319D01*
X128826120Y-69473642D01*
X128821136Y-69543334D01*
X128792635Y-69587681D01*
X128672485Y-69707830D01*
X128672481Y-69707835D01*
X128559986Y-69862673D01*
X128473090Y-70033215D01*
X128413941Y-70215255D01*
X128384000Y-70404299D01*
X128384000Y-70595700D01*
X128413941Y-70784744D01*
X128413942Y-70784748D01*
X128430411Y-70835435D01*
X128432406Y-70905276D01*
X128396325Y-70965109D01*
X128333624Y-70995936D01*
X128264209Y-70987971D01*
X128243409Y-70975402D01*
X128242847Y-70976245D01*
X128073920Y-70863371D01*
X128073907Y-70863364D01*
X127891839Y-70787950D01*
X127891829Y-70787947D01*
X127698543Y-70749500D01*
X127698541Y-70749500D01*
X127501459Y-70749500D01*
X127501457Y-70749500D01*
X127308170Y-70787947D01*
X127308160Y-70787950D01*
X127126092Y-70863364D01*
X127126079Y-70863371D01*
X126962218Y-70972860D01*
X126962214Y-70972863D01*
X126822863Y-71112214D01*
X126822860Y-71112218D01*
X126713371Y-71276079D01*
X126713364Y-71276092D01*
X126637950Y-71458160D01*
X126637947Y-71458170D01*
X126599500Y-71651456D01*
X126599500Y-71651459D01*
X126599500Y-71848541D01*
X126599500Y-71848543D01*
X126599499Y-71848543D01*
X126637947Y-72041829D01*
X126637950Y-72041839D01*
X126713364Y-72223907D01*
X126713371Y-72223920D01*
X126822860Y-72387781D01*
X126822863Y-72387785D01*
X126962214Y-72527136D01*
X126962218Y-72527139D01*
X127126079Y-72636628D01*
X127126092Y-72636635D01*
X127308160Y-72712049D01*
X127308165Y-72712051D01*
X127308169Y-72712051D01*
X127308170Y-72712052D01*
X127501456Y-72750500D01*
X127501459Y-72750500D01*
X127698543Y-72750500D01*
X127828582Y-72724632D01*
X127891835Y-72712051D01*
X128073914Y-72636632D01*
X128187902Y-72560468D01*
X128242847Y-72523755D01*
X128244317Y-72525955D01*
X128298020Y-72503093D01*
X128366898Y-72514826D01*
X128418498Y-72561934D01*
X128436438Y-72629461D01*
X128430412Y-72664563D01*
X128414983Y-72712051D01*
X128413941Y-72715257D01*
X128392521Y-72850499D01*
X128384000Y-72904299D01*
X128384000Y-73095701D01*
X128399686Y-73194737D01*
X128405551Y-73231768D01*
X128396596Y-73301062D01*
X128351600Y-73354514D01*
X128284849Y-73375153D01*
X128250985Y-73370941D01*
X128035005Y-73313069D01*
X127745844Y-73275001D01*
X127745827Y-73275000D01*
X127454173Y-73275000D01*
X127454155Y-73275001D01*
X127164996Y-73313069D01*
X126883255Y-73388562D01*
X126613804Y-73500171D01*
X126613788Y-73500179D01*
X126361211Y-73646006D01*
X126361195Y-73646017D01*
X126213161Y-73759606D01*
X126213161Y-73759608D01*
X126981466Y-74527913D01*
X126850825Y-74622829D01*
X126722829Y-74750825D01*
X126627913Y-74881466D01*
X125859608Y-74113161D01*
X125859606Y-74113161D01*
X125746017Y-74261195D01*
X125746006Y-74261211D01*
X125600179Y-74513788D01*
X125600171Y-74513804D01*
X125488562Y-74783255D01*
X125413069Y-75064996D01*
X125375001Y-75354155D01*
X125375000Y-75354172D01*
X125375000Y-75645827D01*
X125375001Y-75645844D01*
X125413069Y-75935003D01*
X125488562Y-76216744D01*
X125600171Y-76486195D01*
X125600179Y-76486211D01*
X125746006Y-76738788D01*
X125746012Y-76738796D01*
X125859608Y-76886837D01*
X126627912Y-76118532D01*
X126722829Y-76249175D01*
X126850825Y-76377171D01*
X126981465Y-76472086D01*
X126213161Y-77240390D01*
X126361203Y-77353987D01*
X126361211Y-77353993D01*
X126613788Y-77499820D01*
X126613804Y-77499828D01*
X126883255Y-77611437D01*
X127164996Y-77686930D01*
X127454155Y-77724998D01*
X127454173Y-77725000D01*
X127745827Y-77725000D01*
X127745844Y-77724998D01*
X128035003Y-77686930D01*
X128316744Y-77611437D01*
X128586195Y-77499828D01*
X128586211Y-77499820D01*
X128838788Y-77353993D01*
X128838806Y-77353981D01*
X128986837Y-77240391D01*
X128986837Y-77240389D01*
X128218533Y-76472086D01*
X128349175Y-76377171D01*
X128477171Y-76249175D01*
X128572086Y-76118533D01*
X129340389Y-76886837D01*
X129340391Y-76886837D01*
X129453981Y-76738806D01*
X129453993Y-76738788D01*
X129599820Y-76486211D01*
X129599828Y-76486195D01*
X129711437Y-76216744D01*
X129786930Y-75935003D01*
X129824998Y-75645844D01*
X129825000Y-75645827D01*
X129825000Y-75354172D01*
X129824998Y-75354155D01*
X129786930Y-75064996D01*
X129711437Y-74783255D01*
X129599828Y-74513804D01*
X129599823Y-74513795D01*
X129535278Y-74402001D01*
X129518805Y-74334101D01*
X129541657Y-74268074D01*
X129596578Y-74224883D01*
X129642665Y-74216000D01*
X129695700Y-74216000D01*
X129695701Y-74216000D01*
X129884747Y-74186058D01*
X130066782Y-74126911D01*
X130237323Y-74040016D01*
X130392171Y-73927513D01*
X130527513Y-73792171D01*
X130640016Y-73637323D01*
X130726911Y-73466782D01*
X130786058Y-73284747D01*
X130816000Y-73095701D01*
X130816000Y-72904299D01*
X130786058Y-72715253D01*
X130726911Y-72533218D01*
X130640016Y-72362677D01*
X130625641Y-72342892D01*
X130527518Y-72207835D01*
X130527514Y-72207830D01*
X130392169Y-72072485D01*
X130392164Y-72072481D01*
X130237326Y-71959986D01*
X130237325Y-71959985D01*
X130237323Y-71959984D01*
X130066782Y-71873089D01*
X130050904Y-71867930D01*
X129993231Y-71828494D01*
X129966032Y-71764135D01*
X129977946Y-71695289D01*
X130025190Y-71643813D01*
X130050902Y-71632070D01*
X130066782Y-71626911D01*
X130237323Y-71540016D01*
X130392171Y-71427513D01*
X130527513Y-71292171D01*
X130640016Y-71137323D01*
X130726911Y-70966782D01*
X130786058Y-70784747D01*
X130816000Y-70595701D01*
X130816000Y-70404299D01*
X130786058Y-70215253D01*
X130726911Y-70033218D01*
X130640016Y-69862677D01*
X130570142Y-69766503D01*
X130527518Y-69707835D01*
X130527514Y-69707830D01*
X130407365Y-69587681D01*
X130373880Y-69526358D01*
X130378864Y-69456666D01*
X130407365Y-69412319D01*
X130466418Y-69353266D01*
X130527513Y-69292171D01*
X130640016Y-69137323D01*
X130726911Y-68966782D01*
X130739986Y-68926540D01*
X133238200Y-68926540D01*
X133238200Y-69073459D01*
X133266858Y-69217534D01*
X133266861Y-69217544D01*
X133323078Y-69353266D01*
X133323083Y-69353275D01*
X133404698Y-69475419D01*
X133404701Y-69475423D01*
X133508576Y-69579298D01*
X133508580Y-69579301D01*
X133630724Y-69660916D01*
X133630730Y-69660919D01*
X133630731Y-69660920D01*
X133766458Y-69717140D01*
X133910540Y-69745799D01*
X133910544Y-69745800D01*
X133910545Y-69745800D01*
X134057456Y-69745800D01*
X134057457Y-69745799D01*
X134201542Y-69717140D01*
X134337269Y-69660920D01*
X134459420Y-69579301D01*
X134563301Y-69475420D01*
X134644920Y-69353269D01*
X134701140Y-69217542D01*
X134729800Y-69073455D01*
X134729800Y-68926545D01*
X134729799Y-68926540D01*
X135270200Y-68926540D01*
X135270200Y-69073459D01*
X135298858Y-69217534D01*
X135298861Y-69217544D01*
X135355078Y-69353266D01*
X135355083Y-69353275D01*
X135436698Y-69475419D01*
X135436701Y-69475423D01*
X135540576Y-69579298D01*
X135540580Y-69579301D01*
X135662724Y-69660916D01*
X135662730Y-69660919D01*
X135662731Y-69660920D01*
X135798458Y-69717140D01*
X135942540Y-69745799D01*
X135942544Y-69745800D01*
X135942545Y-69745800D01*
X136089456Y-69745800D01*
X136089457Y-69745799D01*
X136233542Y-69717140D01*
X136369269Y-69660920D01*
X136491420Y-69579301D01*
X136595301Y-69475420D01*
X136676920Y-69353269D01*
X136733140Y-69217542D01*
X136761800Y-69073455D01*
X136761800Y-68926545D01*
X136733140Y-68782458D01*
X136676920Y-68646731D01*
X136676919Y-68646730D01*
X136676916Y-68646724D01*
X136595301Y-68524580D01*
X136595298Y-68524576D01*
X136491423Y-68420701D01*
X136491419Y-68420698D01*
X136369275Y-68339083D01*
X136369266Y-68339078D01*
X136233544Y-68282861D01*
X136233545Y-68282861D01*
X136233542Y-68282860D01*
X136233538Y-68282859D01*
X136233534Y-68282858D01*
X136089459Y-68254200D01*
X136089455Y-68254200D01*
X135942545Y-68254200D01*
X135942540Y-68254200D01*
X135798465Y-68282858D01*
X135798455Y-68282861D01*
X135662733Y-68339078D01*
X135662724Y-68339083D01*
X135540580Y-68420698D01*
X135540576Y-68420701D01*
X135436701Y-68524576D01*
X135436698Y-68524580D01*
X135355083Y-68646724D01*
X135355078Y-68646733D01*
X135298861Y-68782455D01*
X135298858Y-68782465D01*
X135270200Y-68926540D01*
X134729799Y-68926540D01*
X134701140Y-68782458D01*
X134644920Y-68646731D01*
X134644919Y-68646730D01*
X134644916Y-68646724D01*
X134563301Y-68524580D01*
X134563298Y-68524576D01*
X134459423Y-68420701D01*
X134459419Y-68420698D01*
X134337275Y-68339083D01*
X134337266Y-68339078D01*
X134201544Y-68282861D01*
X134201545Y-68282861D01*
X134201542Y-68282860D01*
X134201538Y-68282859D01*
X134201534Y-68282858D01*
X134057459Y-68254200D01*
X134057455Y-68254200D01*
X133910545Y-68254200D01*
X133910540Y-68254200D01*
X133766465Y-68282858D01*
X133766455Y-68282861D01*
X133630733Y-68339078D01*
X133630724Y-68339083D01*
X133508580Y-68420698D01*
X133508576Y-68420701D01*
X133404701Y-68524576D01*
X133404698Y-68524580D01*
X133323083Y-68646724D01*
X133323078Y-68646733D01*
X133266861Y-68782455D01*
X133266858Y-68782465D01*
X133238200Y-68926540D01*
X130739986Y-68926540D01*
X130786058Y-68784747D01*
X130816000Y-68595701D01*
X130816000Y-68404299D01*
X130786058Y-68215253D01*
X130726911Y-68033218D01*
X130640016Y-67862677D01*
X130609807Y-67821097D01*
X130527518Y-67707835D01*
X130527514Y-67707830D01*
X130392169Y-67572485D01*
X130392164Y-67572481D01*
X130237326Y-67459986D01*
X130237325Y-67459985D01*
X130237323Y-67459984D01*
X130066782Y-67373089D01*
X130050096Y-67367667D01*
X129992421Y-67328230D01*
X129965223Y-67263872D01*
X129977138Y-67195025D01*
X130024382Y-67143550D01*
X130050100Y-67131805D01*
X130066593Y-67126446D01*
X130237061Y-67039588D01*
X130265425Y-67018980D01*
X130265425Y-67018979D01*
X129696749Y-66450302D01*
X129777553Y-66428651D01*
X129882446Y-66368091D01*
X129968091Y-66282446D01*
X130028651Y-66177553D01*
X130050302Y-66096748D01*
X130618979Y-66665425D01*
X130618980Y-66665425D01*
X130639588Y-66637061D01*
X130726446Y-66466592D01*
X130738247Y-66430272D01*
X131708619Y-66430272D01*
X131708619Y-66587965D01*
X131739380Y-66742608D01*
X131739383Y-66742620D01*
X131799721Y-66888291D01*
X131799728Y-66888304D01*
X131887329Y-67019407D01*
X131887332Y-67019411D01*
X131998826Y-67130905D01*
X131998830Y-67130908D01*
X132129933Y-67218509D01*
X132129946Y-67218516D01*
X132239447Y-67263872D01*
X132275622Y-67278856D01*
X132404276Y-67304447D01*
X132430272Y-67309618D01*
X132430275Y-67309619D01*
X132430277Y-67309619D01*
X132587963Y-67309619D01*
X132587964Y-67309618D01*
X132742616Y-67278856D01*
X132888298Y-67218513D01*
X133019408Y-67130908D01*
X133130908Y-67019408D01*
X133218513Y-66888298D01*
X133278856Y-66742616D01*
X133304795Y-66612214D01*
X133309757Y-66587269D01*
X133342142Y-66525358D01*
X133343640Y-66523831D01*
X133858506Y-66008965D01*
X133858511Y-66008962D01*
X133868714Y-65998758D01*
X133868716Y-65998758D01*
X133980520Y-65886954D01*
X134059577Y-65750022D01*
X134100500Y-65597295D01*
X134100500Y-64320676D01*
X134120185Y-64253637D01*
X134172989Y-64207882D01*
X134242147Y-64197938D01*
X134305703Y-64226963D01*
X134335495Y-64268280D01*
X134336210Y-64267899D01*
X134339044Y-64273202D01*
X134339063Y-64273228D01*
X134339079Y-64273267D01*
X134339083Y-64273275D01*
X134420698Y-64395419D01*
X134420701Y-64395423D01*
X134524576Y-64499298D01*
X134524580Y-64499301D01*
X134646724Y-64580916D01*
X134646730Y-64580919D01*
X134646731Y-64580920D01*
X134782458Y-64637140D01*
X134926540Y-64665799D01*
X134926544Y-64665800D01*
X134926545Y-64665800D01*
X135073456Y-64665800D01*
X135073457Y-64665799D01*
X135217542Y-64637140D01*
X135353269Y-64580920D01*
X135475420Y-64499301D01*
X135579301Y-64395420D01*
X135660920Y-64273269D01*
X135717140Y-64137542D01*
X135745800Y-63993455D01*
X135745800Y-63846545D01*
X135726336Y-63748690D01*
X135732563Y-63679100D01*
X135775426Y-63623922D01*
X135841316Y-63600678D01*
X135847953Y-63600500D01*
X136699903Y-63600500D01*
X136766942Y-63620185D01*
X136787584Y-63636819D01*
X137165425Y-64014660D01*
X137198910Y-64075983D01*
X137199361Y-64078149D01*
X137230261Y-64233491D01*
X137230264Y-64233501D01*
X137290602Y-64379172D01*
X137290609Y-64379185D01*
X137325304Y-64431109D01*
X137346182Y-64497786D01*
X137327698Y-64565167D01*
X137325304Y-64568891D01*
X137290609Y-64620814D01*
X137290602Y-64620827D01*
X137230264Y-64766498D01*
X137230261Y-64766510D01*
X137199500Y-64921153D01*
X137199500Y-65078846D01*
X137230261Y-65233489D01*
X137230264Y-65233501D01*
X137290602Y-65379172D01*
X137290609Y-65379185D01*
X137378602Y-65510874D01*
X137399480Y-65577551D01*
X137399500Y-65579765D01*
X137399500Y-69420234D01*
X137379815Y-69487273D01*
X137378602Y-69489125D01*
X137290609Y-69620814D01*
X137290602Y-69620827D01*
X137230264Y-69766498D01*
X137230261Y-69766510D01*
X137199500Y-69921153D01*
X137199500Y-70078846D01*
X137230261Y-70233489D01*
X137230264Y-70233501D01*
X137290602Y-70379172D01*
X137290612Y-70379190D01*
X137361673Y-70485541D01*
X137382551Y-70552218D01*
X137364066Y-70619598D01*
X137312087Y-70666288D01*
X137282763Y-70676048D01*
X137251923Y-70682182D01*
X137251917Y-70682184D01*
X137097139Y-70746295D01*
X136957837Y-70839373D01*
X136839373Y-70957837D01*
X136746296Y-71097138D01*
X136745958Y-71097955D01*
X136745665Y-71098317D01*
X136743422Y-71102515D01*
X136742625Y-71102089D01*
X136702115Y-71152357D01*
X136635820Y-71174420D01*
X136631398Y-71174499D01*
X134761426Y-71174499D01*
X134694387Y-71154814D01*
X134658324Y-71119390D01*
X134621789Y-71064711D01*
X134621787Y-71064708D01*
X134510292Y-70953213D01*
X134510288Y-70953210D01*
X134379185Y-70865609D01*
X134379172Y-70865602D01*
X134233501Y-70805264D01*
X134233489Y-70805261D01*
X134078845Y-70774500D01*
X134078842Y-70774500D01*
X133921158Y-70774500D01*
X133921155Y-70774500D01*
X133766510Y-70805261D01*
X133766498Y-70805264D01*
X133620827Y-70865602D01*
X133620814Y-70865609D01*
X133489711Y-70953210D01*
X133489707Y-70953213D01*
X133378213Y-71064707D01*
X133378210Y-71064711D01*
X133290609Y-71195814D01*
X133290602Y-71195827D01*
X133230264Y-71341498D01*
X133230261Y-71341510D01*
X133199500Y-71496153D01*
X133199500Y-71653846D01*
X133230261Y-71808489D01*
X133230264Y-71808501D01*
X133289930Y-71952548D01*
X133297399Y-72022017D01*
X133289930Y-72047452D01*
X133230264Y-72191498D01*
X133230261Y-72191510D01*
X133199500Y-72346153D01*
X133199500Y-72503846D01*
X133230261Y-72658489D01*
X133230264Y-72658501D01*
X133290602Y-72804172D01*
X133290609Y-72804185D01*
X133378210Y-72935288D01*
X133378213Y-72935292D01*
X133489707Y-73046786D01*
X133489711Y-73046789D01*
X133620814Y-73134390D01*
X133620827Y-73134397D01*
X133766498Y-73194735D01*
X133766503Y-73194737D01*
X133887993Y-73218903D01*
X133921153Y-73225499D01*
X133921156Y-73225500D01*
X133921158Y-73225500D01*
X134078844Y-73225500D01*
X134078845Y-73225499D01*
X134233497Y-73194737D01*
X134379179Y-73134394D01*
X134510289Y-73046789D01*
X134621789Y-72935289D01*
X134658324Y-72880609D01*
X134711935Y-72835806D01*
X134761426Y-72825501D01*
X136482434Y-72825501D01*
X136549473Y-72845186D01*
X136570114Y-72861819D01*
X138119800Y-74411506D01*
X138160297Y-74457175D01*
X138175520Y-74467226D01*
X138195486Y-74487192D01*
X138195500Y-74487204D01*
X138200720Y-74492424D01*
X138356776Y-74605806D01*
X138474096Y-74665584D01*
X138524890Y-74713556D01*
X138541685Y-74781377D01*
X138519148Y-74847512D01*
X138505481Y-74863747D01*
X138470916Y-74898312D01*
X138357534Y-75054370D01*
X138269963Y-75226236D01*
X138210353Y-75409695D01*
X138180178Y-75600217D01*
X138180178Y-75793113D01*
X138210353Y-75983635D01*
X138269963Y-76167094D01*
X138357534Y-76338960D01*
X138414161Y-76416901D01*
X138470916Y-76495018D01*
X138483214Y-76507316D01*
X138628979Y-76653081D01*
X138680537Y-76704639D01*
X138748736Y-76772838D01*
X138826801Y-76829555D01*
X138904793Y-76886219D01*
X139076659Y-76973790D01*
X139076661Y-76973790D01*
X139076664Y-76973792D01*
X139158860Y-77000499D01*
X139260118Y-77033400D01*
X139355379Y-77048488D01*
X139450640Y-77063576D01*
X139450641Y-77063576D01*
X139643536Y-77063576D01*
X139643537Y-77063576D01*
X139834058Y-77033400D01*
X140017513Y-76973792D01*
X140189384Y-76886219D01*
X140345441Y-76772838D01*
X140345441Y-76772837D01*
X140347617Y-76771257D01*
X140364950Y-76765072D01*
X140379944Y-76754395D01*
X140397176Y-76753574D01*
X140413423Y-76747777D01*
X140431349Y-76751945D01*
X140449735Y-76751070D01*
X140480439Y-76763361D01*
X140481477Y-76763603D01*
X140482501Y-76764187D01*
X140545605Y-76800619D01*
X140545607Y-76800621D01*
X140583661Y-76822591D01*
X140595725Y-76829557D01*
X140748453Y-76870481D01*
X140748456Y-76870481D01*
X140914163Y-76870481D01*
X140914179Y-76870480D01*
X141357039Y-76870480D01*
X146802832Y-76870480D01*
X146869871Y-76890165D01*
X146890513Y-76906799D01*
X149529020Y-79545307D01*
X149562505Y-79606630D01*
X149562956Y-79657179D01*
X149550127Y-79721674D01*
X149550127Y-79879367D01*
X149580888Y-80034010D01*
X149580891Y-80034022D01*
X149641229Y-80179693D01*
X149641236Y-80179706D01*
X149728837Y-80310809D01*
X149728840Y-80310813D01*
X149840334Y-80422307D01*
X149840338Y-80422310D01*
X149971441Y-80509911D01*
X149971454Y-80509918D01*
X150117125Y-80570256D01*
X150117130Y-80570258D01*
X150271780Y-80601020D01*
X150271783Y-80601021D01*
X150271785Y-80601021D01*
X150429471Y-80601021D01*
X150429472Y-80601020D01*
X150584124Y-80570258D01*
X150729806Y-80509915D01*
X150860916Y-80422310D01*
X150972416Y-80310810D01*
X151060021Y-80179700D01*
X151060022Y-80179697D01*
X151060024Y-80179694D01*
X151119688Y-80035649D01*
X151163528Y-79981245D01*
X151186793Y-79968541D01*
X151251759Y-79941632D01*
X151330842Y-79908876D01*
X151330845Y-79908874D01*
X151330848Y-79908873D01*
X151461958Y-79821268D01*
X151573458Y-79709768D01*
X151661063Y-79578658D01*
X151721406Y-79432976D01*
X151752169Y-79278321D01*
X151752169Y-79120637D01*
X151752169Y-79120634D01*
X151752168Y-79120632D01*
X151721407Y-78965989D01*
X151721406Y-78965982D01*
X151721404Y-78965977D01*
X151661066Y-78820306D01*
X151661059Y-78820293D01*
X151573458Y-78689190D01*
X151573455Y-78689186D01*
X151461961Y-78577692D01*
X151461957Y-78577689D01*
X151330854Y-78490088D01*
X151330841Y-78490081D01*
X151185170Y-78429743D01*
X151185158Y-78429740D01*
X151030514Y-78398979D01*
X151030511Y-78398979D01*
X150872827Y-78398979D01*
X150808325Y-78411809D01*
X150738734Y-78405580D01*
X150696454Y-78377872D01*
X148630763Y-76312181D01*
X148597278Y-76250858D01*
X148602262Y-76181166D01*
X148644134Y-76125233D01*
X148709598Y-76100816D01*
X148718444Y-76100500D01*
X150443328Y-76100500D01*
X150510367Y-76120185D01*
X150531009Y-76136819D01*
X150554816Y-76160626D01*
X150638803Y-76216744D01*
X150694116Y-76253703D01*
X150694117Y-76253703D01*
X150694118Y-76253704D01*
X150694120Y-76253705D01*
X150759055Y-76280602D01*
X150822221Y-76306766D01*
X150876625Y-76350607D01*
X150898690Y-76416901D01*
X150881411Y-76484600D01*
X150877871Y-76490217D01*
X150790612Y-76620809D01*
X150790602Y-76620827D01*
X150730264Y-76766498D01*
X150730261Y-76766510D01*
X150699500Y-76921153D01*
X150699500Y-77078846D01*
X150730261Y-77233489D01*
X150730264Y-77233501D01*
X150790602Y-77379172D01*
X150790609Y-77379185D01*
X150878210Y-77510288D01*
X150878213Y-77510292D01*
X150989707Y-77621786D01*
X150989711Y-77621789D01*
X151120814Y-77709390D01*
X151120827Y-77709397D01*
X151266498Y-77769735D01*
X151266503Y-77769737D01*
X151421153Y-77800499D01*
X151421156Y-77800500D01*
X151421158Y-77800500D01*
X151578844Y-77800500D01*
X151578845Y-77800499D01*
X151733497Y-77769737D01*
X151879179Y-77709394D01*
X152010289Y-77621789D01*
X152121789Y-77510289D01*
X152209394Y-77379179D01*
X152269737Y-77233497D01*
X152296391Y-77099500D01*
X152300638Y-77078150D01*
X152333023Y-77016239D01*
X152334518Y-77014716D01*
X157879506Y-71469727D01*
X157879511Y-71469724D01*
X157889714Y-71459520D01*
X157889716Y-71459520D01*
X158001520Y-71347716D01*
X158055798Y-71253703D01*
X158080577Y-71210785D01*
X158121501Y-71058057D01*
X158121501Y-70899943D01*
X158121501Y-70892348D01*
X158121500Y-70892330D01*
X158121500Y-67610059D01*
X158121501Y-67610046D01*
X158121501Y-67441945D01*
X158121501Y-67441943D01*
X158080577Y-67289215D01*
X158039757Y-67218513D01*
X158001520Y-67152284D01*
X157889716Y-67040480D01*
X157889715Y-67040479D01*
X157885385Y-67036149D01*
X157885374Y-67036139D01*
X156084574Y-65235339D01*
X156051089Y-65174016D01*
X156050638Y-65171849D01*
X156025378Y-65044863D01*
X156019737Y-65016503D01*
X155962846Y-64879154D01*
X155959397Y-64870827D01*
X155959390Y-64870814D01*
X155871789Y-64739711D01*
X155871786Y-64739707D01*
X155760292Y-64628213D01*
X155760288Y-64628210D01*
X155629185Y-64540609D01*
X155629172Y-64540602D01*
X155483501Y-64480264D01*
X155483489Y-64480261D01*
X155328845Y-64449500D01*
X155328842Y-64449500D01*
X155171158Y-64449500D01*
X155171155Y-64449500D01*
X155016510Y-64480261D01*
X155016498Y-64480264D01*
X154870827Y-64540602D01*
X154870814Y-64540609D01*
X154739711Y-64628210D01*
X154739707Y-64628213D01*
X154628213Y-64739707D01*
X154628210Y-64739711D01*
X154540609Y-64870814D01*
X154540602Y-64870827D01*
X154480264Y-65016498D01*
X154480261Y-65016510D01*
X154449500Y-65171153D01*
X154449500Y-65328846D01*
X154480261Y-65483489D01*
X154480264Y-65483501D01*
X154540602Y-65629172D01*
X154540609Y-65629185D01*
X154628210Y-65760288D01*
X154628213Y-65760292D01*
X154739707Y-65871786D01*
X154739711Y-65871789D01*
X154870814Y-65959390D01*
X154870827Y-65959397D01*
X155016498Y-66019735D01*
X155016503Y-66019737D01*
X155081147Y-66032595D01*
X155171849Y-66050638D01*
X155233760Y-66083023D01*
X155235339Y-66084574D01*
X156884181Y-67733416D01*
X156917666Y-67794739D01*
X156920500Y-67821097D01*
X156920500Y-68521903D01*
X156900815Y-68588942D01*
X156848011Y-68634697D01*
X156778853Y-68644641D01*
X156715297Y-68615616D01*
X156708819Y-68609584D01*
X153828337Y-65729102D01*
X153794852Y-65667779D01*
X153799836Y-65598087D01*
X153828337Y-65553740D01*
X153871789Y-65510289D01*
X153959394Y-65379179D01*
X153966632Y-65361706D01*
X154019735Y-65233501D01*
X154019737Y-65233497D01*
X154050500Y-65078842D01*
X154050500Y-64921158D01*
X154050500Y-64921155D01*
X154050499Y-64921153D01*
X154043673Y-64886837D01*
X154019737Y-64766503D01*
X154019038Y-64764815D01*
X153959397Y-64620827D01*
X153959390Y-64620814D01*
X153871789Y-64489711D01*
X153871786Y-64489707D01*
X153760292Y-64378213D01*
X153760288Y-64378210D01*
X153629185Y-64290609D01*
X153629172Y-64290602D01*
X153483501Y-64230264D01*
X153483489Y-64230261D01*
X153328151Y-64199362D01*
X153266240Y-64166977D01*
X153264711Y-64165475D01*
X152966589Y-63867354D01*
X152966588Y-63867352D01*
X152847717Y-63748481D01*
X152847716Y-63748480D01*
X152749669Y-63691873D01*
X152710785Y-63669423D01*
X152558057Y-63628499D01*
X152399943Y-63628499D01*
X152392347Y-63628499D01*
X152392331Y-63628500D01*
X149455134Y-63628500D01*
X149414213Y-63639464D01*
X149414213Y-63639465D01*
X149390470Y-63645827D01*
X149302408Y-63669423D01*
X149302403Y-63669426D01*
X149165484Y-63748475D01*
X149165476Y-63748481D01*
X148748481Y-64165476D01*
X148748475Y-64165484D01*
X148711077Y-64230261D01*
X148711077Y-64230263D01*
X148669423Y-64302408D01*
X148669423Y-64302409D01*
X148628499Y-64455137D01*
X148628499Y-64455139D01*
X148628499Y-64623240D01*
X148628500Y-64623253D01*
X148628500Y-64879136D01*
X148628499Y-64879154D01*
X148628499Y-65044860D01*
X148628498Y-65044860D01*
X148667939Y-65192055D01*
X148669423Y-65197591D01*
X148688435Y-65230520D01*
X148710942Y-65269503D01*
X148748479Y-65334520D01*
X148748481Y-65334523D01*
X148867349Y-65453391D01*
X148867355Y-65453396D01*
X149237231Y-65823272D01*
X149264110Y-65863499D01*
X149270602Y-65879172D01*
X149270607Y-65879181D01*
X149358207Y-66010284D01*
X149358213Y-66010292D01*
X149469707Y-66121786D01*
X149469711Y-66121789D01*
X149600814Y-66209390D01*
X149600827Y-66209397D01*
X149697646Y-66249500D01*
X149746503Y-66269737D01*
X149901153Y-66300499D01*
X149901156Y-66300500D01*
X149901158Y-66300500D01*
X150058844Y-66300500D01*
X150058845Y-66300499D01*
X150213497Y-66269737D01*
X150359179Y-66209394D01*
X150490289Y-66121789D01*
X150601789Y-66010289D01*
X150689394Y-65879179D01*
X150749737Y-65733497D01*
X150780500Y-65578842D01*
X150780500Y-65474500D01*
X150800185Y-65407461D01*
X150852989Y-65361706D01*
X150904500Y-65350500D01*
X151699903Y-65350500D01*
X151766942Y-65370185D01*
X151787584Y-65386819D01*
X156165425Y-69764660D01*
X156198910Y-69825983D01*
X156199361Y-69828149D01*
X156230261Y-69983491D01*
X156230264Y-69983501D01*
X156290602Y-70129172D01*
X156290609Y-70129185D01*
X156378210Y-70260288D01*
X156378213Y-70260292D01*
X156489707Y-70371786D01*
X156489711Y-70371789D01*
X156620814Y-70459390D01*
X156620827Y-70459397D01*
X156743693Y-70510289D01*
X156766503Y-70519737D01*
X156797029Y-70525809D01*
X156820691Y-70530516D01*
X156848821Y-70545230D01*
X156877703Y-70558420D01*
X156879559Y-70561308D01*
X156882602Y-70562900D01*
X156898311Y-70590487D01*
X156915477Y-70617198D01*
X156916137Y-70621792D01*
X156917176Y-70623616D01*
X156920500Y-70652133D01*
X156920500Y-70678902D01*
X156900815Y-70745941D01*
X156884181Y-70766583D01*
X154582437Y-73068326D01*
X154521114Y-73101811D01*
X154451422Y-73096827D01*
X154395489Y-73054955D01*
X154380197Y-73028102D01*
X154358377Y-72975423D01*
X154345596Y-72956295D01*
X154265300Y-72836123D01*
X154146836Y-72717659D01*
X154007534Y-72624581D01*
X153852756Y-72560470D01*
X153852748Y-72560468D01*
X153688445Y-72527786D01*
X153688441Y-72527786D01*
X153654771Y-72527786D01*
X153587732Y-72508101D01*
X153567090Y-72491467D01*
X151213978Y-70138355D01*
X151213976Y-70138352D01*
X151095105Y-70019481D01*
X151095104Y-70019480D01*
X150988336Y-69957838D01*
X150988335Y-69957837D01*
X150958171Y-69940422D01*
X150886276Y-69921158D01*
X150805445Y-69899499D01*
X150647331Y-69899499D01*
X150639735Y-69899499D01*
X150639719Y-69899500D01*
X140798460Y-69899500D01*
X140731421Y-69879815D01*
X140685666Y-69827011D01*
X140675722Y-69757853D01*
X140704747Y-69694297D01*
X140710779Y-69687819D01*
X141505271Y-68893327D01*
X141505276Y-68893322D01*
X141540870Y-68840050D01*
X141576464Y-68786781D01*
X141576465Y-68786779D01*
X141625501Y-68668396D01*
X141650500Y-68542721D01*
X141650500Y-64004935D01*
X141670185Y-63937896D01*
X141671366Y-63936090D01*
X141709394Y-63879179D01*
X141769737Y-63733497D01*
X141800500Y-63578842D01*
X141800500Y-63421158D01*
X141800500Y-63421155D01*
X141800499Y-63421153D01*
X141791957Y-63378210D01*
X141769737Y-63266503D01*
X141769735Y-63266498D01*
X141709397Y-63120827D01*
X141709390Y-63120814D01*
X141621789Y-62989711D01*
X141621786Y-62989707D01*
X141510292Y-62878213D01*
X141510288Y-62878210D01*
X141379185Y-62790609D01*
X141379172Y-62790602D01*
X141233501Y-62730264D01*
X141233489Y-62730261D01*
X141078845Y-62699500D01*
X141078842Y-62699500D01*
X140921158Y-62699500D01*
X140921155Y-62699500D01*
X140766510Y-62730261D01*
X140766498Y-62730264D01*
X140620827Y-62790602D01*
X140620814Y-62790609D01*
X140489711Y-62878210D01*
X140489707Y-62878213D01*
X140378213Y-62989707D01*
X140378210Y-62989711D01*
X140290609Y-63120814D01*
X140290602Y-63120827D01*
X140230264Y-63266498D01*
X140230261Y-63266510D01*
X140199500Y-63421153D01*
X140199500Y-63578846D01*
X140230261Y-63733489D01*
X140230264Y-63733501D01*
X140290602Y-63879172D01*
X140290606Y-63879179D01*
X140328602Y-63936044D01*
X140349480Y-64002721D01*
X140349500Y-64004935D01*
X140349500Y-68157843D01*
X140329815Y-68224882D01*
X140313181Y-68245524D01*
X139430763Y-69127941D01*
X139369440Y-69161426D01*
X139367274Y-69161877D01*
X139300203Y-69175218D01*
X139300193Y-69175221D01*
X139154522Y-69235559D01*
X139154509Y-69235566D01*
X139023406Y-69323167D01*
X139023402Y-69323170D01*
X138911908Y-69434664D01*
X138911905Y-69434668D01*
X138851560Y-69524981D01*
X138826376Y-69546027D01*
X138801974Y-69567947D01*
X138799709Y-69568313D01*
X138797948Y-69569786D01*
X138765388Y-69573875D01*
X138733004Y-69579123D01*
X138730899Y-69578207D01*
X138728623Y-69578493D01*
X138699032Y-69564335D01*
X138668940Y-69551237D01*
X138666894Y-69548959D01*
X138665595Y-69548338D01*
X138645355Y-69524980D01*
X138621397Y-69489124D01*
X138600520Y-69422447D01*
X138600500Y-69420234D01*
X138600500Y-65579765D01*
X138620185Y-65512726D01*
X138621398Y-65510874D01*
X138709390Y-65379185D01*
X138709390Y-65379184D01*
X138709394Y-65379179D01*
X138716632Y-65361706D01*
X138769735Y-65233501D01*
X138769737Y-65233497D01*
X138800500Y-65078842D01*
X138800500Y-64921158D01*
X138800500Y-64921155D01*
X138800499Y-64921153D01*
X138793673Y-64886837D01*
X138769737Y-64766503D01*
X138769038Y-64764815D01*
X138709396Y-64620825D01*
X138709394Y-64620822D01*
X138709394Y-64620821D01*
X138674694Y-64568889D01*
X138653816Y-64502215D01*
X138672300Y-64434835D01*
X138674676Y-64431136D01*
X138709394Y-64379179D01*
X138769737Y-64233497D01*
X138800500Y-64078842D01*
X138800500Y-63921158D01*
X138800500Y-63921155D01*
X138800499Y-63921153D01*
X138785658Y-63846544D01*
X138769737Y-63766503D01*
X138738825Y-63691874D01*
X138709397Y-63620827D01*
X138709390Y-63620814D01*
X138621789Y-63489711D01*
X138621786Y-63489707D01*
X138510292Y-63378213D01*
X138510288Y-63378210D01*
X138379185Y-63290609D01*
X138379172Y-63290602D01*
X138233501Y-63230264D01*
X138233491Y-63230261D01*
X138078151Y-63199362D01*
X138016241Y-63166977D01*
X138014662Y-63165426D01*
X137487590Y-62638355D01*
X137487588Y-62638352D01*
X137368717Y-62519481D01*
X137368716Y-62519480D01*
X137281904Y-62469360D01*
X137281904Y-62469359D01*
X137281900Y-62469358D01*
X137231785Y-62440423D01*
X137079057Y-62399499D01*
X136920943Y-62399499D01*
X136913347Y-62399499D01*
X136913331Y-62399500D01*
X133670940Y-62399500D01*
X133630019Y-62410464D01*
X133630019Y-62410465D01*
X133592751Y-62420451D01*
X133518214Y-62440423D01*
X133518209Y-62440426D01*
X133381290Y-62519475D01*
X133381282Y-62519481D01*
X133019481Y-62881282D01*
X133019477Y-62881287D01*
X132995088Y-62923533D01*
X132995087Y-62923535D01*
X132940423Y-63018215D01*
X132899499Y-63170943D01*
X132899499Y-63170945D01*
X132899499Y-63339046D01*
X132899500Y-63339059D01*
X132899500Y-65218141D01*
X132879815Y-65285180D01*
X132863181Y-65305822D01*
X132494458Y-65674544D01*
X132433135Y-65708029D01*
X132430969Y-65708480D01*
X132275627Y-65739380D01*
X132275617Y-65739383D01*
X132129946Y-65799721D01*
X132129933Y-65799728D01*
X131998830Y-65887329D01*
X131998826Y-65887332D01*
X131887332Y-65998826D01*
X131887329Y-65998830D01*
X131799728Y-66129933D01*
X131799721Y-66129946D01*
X131739383Y-66275617D01*
X131739380Y-66275629D01*
X131708619Y-66430272D01*
X130738247Y-66430272D01*
X130752676Y-66385867D01*
X130752676Y-66385866D01*
X130785571Y-66284624D01*
X130815500Y-66095667D01*
X130815500Y-65904332D01*
X130785571Y-65715373D01*
X130726446Y-65533407D01*
X130639586Y-65362934D01*
X130618980Y-65334573D01*
X130618979Y-65334572D01*
X130050302Y-65903250D01*
X130028651Y-65822447D01*
X129968091Y-65717554D01*
X129882446Y-65631909D01*
X129777553Y-65571349D01*
X129696748Y-65549696D01*
X130265425Y-64981019D01*
X130237059Y-64960410D01*
X130066592Y-64873553D01*
X129884626Y-64814428D01*
X129695667Y-64784500D01*
X129642377Y-64784500D01*
X129575338Y-64764815D01*
X129529583Y-64712011D01*
X129519639Y-64642853D01*
X129534990Y-64598500D01*
X129599820Y-64486211D01*
X129599828Y-64486195D01*
X129711437Y-64216744D01*
X129786930Y-63935003D01*
X129824998Y-63645844D01*
X129825000Y-63645827D01*
X129825000Y-63354172D01*
X129824998Y-63354155D01*
X129786930Y-63064996D01*
X129711437Y-62783255D01*
X129599828Y-62513804D01*
X129599820Y-62513788D01*
X129453993Y-62261211D01*
X129453987Y-62261203D01*
X129340390Y-62113161D01*
X129340389Y-62113161D01*
X128572086Y-62881465D01*
X128477171Y-62750825D01*
X128349175Y-62622829D01*
X128218532Y-62527912D01*
X128986837Y-61759608D01*
X128838796Y-61646012D01*
X128838788Y-61646006D01*
X128586211Y-61500179D01*
X128586195Y-61500171D01*
X128316744Y-61388562D01*
X128035003Y-61313069D01*
X127745844Y-61275001D01*
X127745827Y-61275000D01*
X127454173Y-61275000D01*
X127454155Y-61275001D01*
X127164996Y-61313069D01*
X126883255Y-61388562D01*
X126613804Y-61500171D01*
X126613788Y-61500179D01*
X126361211Y-61646006D01*
X126361195Y-61646017D01*
X126213161Y-61759606D01*
X126213161Y-61759608D01*
X126981466Y-62527913D01*
X126850825Y-62622829D01*
X126722829Y-62750825D01*
X126627913Y-62881466D01*
X125859608Y-62113161D01*
X125859606Y-62113161D01*
X125746017Y-62261195D01*
X125746006Y-62261211D01*
X125600179Y-62513788D01*
X125600171Y-62513804D01*
X125488562Y-62783255D01*
X125413069Y-63064996D01*
X125375001Y-63354155D01*
X125375000Y-63354172D01*
X125019413Y-63354172D01*
X125019794Y-63230264D01*
X125021615Y-62638352D01*
X125030060Y-59893713D01*
X132649500Y-59893713D01*
X132649500Y-60106286D01*
X132682753Y-60316239D01*
X132748444Y-60518414D01*
X132844951Y-60707820D01*
X132969890Y-60879786D01*
X133120213Y-61030109D01*
X133292179Y-61155048D01*
X133292181Y-61155049D01*
X133292184Y-61155051D01*
X133481588Y-61251557D01*
X133683757Y-61317246D01*
X133893713Y-61350500D01*
X133893714Y-61350500D01*
X134106286Y-61350500D01*
X134106287Y-61350500D01*
X134316243Y-61317246D01*
X134518412Y-61251557D01*
X134707816Y-61155051D01*
X134784276Y-61099500D01*
X134879786Y-61030109D01*
X134879788Y-61030106D01*
X134879792Y-61030104D01*
X135030104Y-60879792D01*
X135030106Y-60879788D01*
X135030109Y-60879786D01*
X135155048Y-60707820D01*
X135155047Y-60707820D01*
X135155051Y-60707816D01*
X135251557Y-60518412D01*
X135317246Y-60316243D01*
X135350500Y-60106287D01*
X135350500Y-59893713D01*
X135317246Y-59683757D01*
X135251557Y-59481588D01*
X135155051Y-59292184D01*
X135155049Y-59292181D01*
X135155048Y-59292179D01*
X135030109Y-59120213D01*
X134879786Y-58969890D01*
X134707820Y-58844951D01*
X134518414Y-58748444D01*
X134518413Y-58748443D01*
X134518412Y-58748443D01*
X134316243Y-58682754D01*
X134316241Y-58682753D01*
X134316240Y-58682753D01*
X134154957Y-58657208D01*
X134106287Y-58649500D01*
X133893713Y-58649500D01*
X133845042Y-58657208D01*
X133683760Y-58682753D01*
X133481585Y-58748444D01*
X133292179Y-58844951D01*
X133120213Y-58969890D01*
X132969890Y-59120213D01*
X132844951Y-59292179D01*
X132748444Y-59481585D01*
X132682753Y-59683760D01*
X132649500Y-59893713D01*
X125030060Y-59893713D01*
X125033888Y-58649500D01*
X125038582Y-57124118D01*
X125058472Y-57057140D01*
X125111417Y-57011548D01*
X125162581Y-57000500D01*
X168375500Y-57000500D01*
X168442539Y-57020185D01*
G37*
%TD.AperFunction*%
%TD*%
M02*
