M48
; DRILL file KiCad 10.0.1 date 2026-05-02T19:26:53
; FORMAT={-:-/ absolute / inch / decimal}
; #@! TF.CreationDate,2026-05-02T19:26:53-04:00
; #@! TF.GenerationSoftware,Kicad,Pcbnew,10.0.1
; #@! TF.FileFunction,Plated,1,2,PTH
FMAT,2
INCH
; #@! TA.AperFunction,Plated,PTH,ViaDrill
T1C0.0118
; #@! TA.AperFunction,Plated,PTH,ComponentDrill
T2C0.0118
; #@! TA.AperFunction,Plated,PTH,ComponentDrill
T3C0.0197
; #@! TA.AperFunction,Plated,PTH,ComponentDrill
T4C0.0362
; #@! TA.AperFunction,Plated,PTH,ComponentDrill
T5C0.0906
%
G90
G05
T1
X5.2165Y-2.874
X5.2244Y-2.7874
X5.2481Y-2.7638
X5.4134Y-2.815
X5.4528Y-2.5591
X5.4724Y-2.7756
X5.5906Y-2.3937
X5.5906Y-2.8346
X5.6693Y-2.4606
X5.6693Y-2.7362
X5.6693Y-2.815
X5.8465Y-2.4409
X5.8465Y-3.0906
X5.8858Y-3.1132
X5.8858Y-3.1467
X5.8957Y-2.5492
X5.9047Y-2.5787
X5.9476Y-2.5787
X5.9487Y-2.9724
X5.9646Y-3.0315
X5.9843Y-2.3031
X6.0236Y-3.0709
X6.0264Y-2.9134
X6.0335Y-2.5591
X6.0474Y-2.8889
X6.1122Y-2.5689
X6.1417Y-2.4606
X6.1468Y-2.798
X6.1811Y-2.7461
X6.2047Y-2.315
X6.2205Y-2.8346
X6.2598Y-2.3819
X6.3701Y-2.4646
X6.4173Y-2.6181
X6.4173Y-2.6969
X6.4173Y-2.7756
X6.437Y-2.8346
X6.4961Y-2.5984
X6.5157Y-2.874
X6.5157Y-2.9528
X6.5453Y-2.874
X6.5453Y-2.9528
X6.5748Y-2.874
X6.5748Y-2.9528
X6.6043Y-2.874
X6.6043Y-2.9528
T2
X6.6437Y-2.9941
T3
X5.374Y-2.5197
X5.374Y-2.5591
X5.374Y-2.5984
X5.374Y-2.6378
X5.374Y-2.6772
T4
X5.0945Y-2.5984
X5.0945Y-2.6969
X5.0945Y-2.7756
X5.0945Y-2.874
T5
X5.0157Y-2.5
X5.0157Y-2.9724
M30
