%TF.GenerationSoftware,KiCad,Pcbnew,10.0.1*%
%TF.CreationDate,2026-05-02T19:26:53-04:00*%
%TF.ProjectId,Primis_Versipellis,5072696d-6973-45f5-9665-72736970656c,rev?*%
%TF.SameCoordinates,Original*%
%TF.FileFunction,Copper,L1,Top*%
%TF.FilePolarity,Positive*%
%FSLAX46Y46*%
G04 Gerber Fmt 4.6, Leading zero omitted, Abs format (unit mm)*
G04 Created by KiCad (PCBNEW 10.0.1) date 2026-05-02 19:26:53*
%MOMM*%
%LPD*%
G01*
G04 APERTURE LIST*
G04 Aperture macros list*
%AMRoundRect*
0 Rectangle with rounded corners*
0 $1 Rounding radius*
0 $2 $3 $4 $5 $6 $7 $8 $9 X,Y pos of 4 corners*
0 Add a 4 corners polygon primitive as box body*
4,1,4,$2,$3,$4,$5,$6,$7,$8,$9,$2,$3,0*
0 Add four circle primitives for the rounded corners*
1,1,$1+$1,$2,$3*
1,1,$1+$1,$4,$5*
1,1,$1+$1,$6,$7*
1,1,$1+$1,$8,$9*
0 Add four rect primitives between the rounded corners*
20,1,$1+$1,$2,$3,$4,$5,0*
20,1,$1+$1,$4,$5,$6,$7,0*
20,1,$1+$1,$6,$7,$8,$9,0*
20,1,$1+$1,$8,$9,$2,$3,0*%
G04 Aperture macros list end*
%TA.AperFunction,EtchedComponent*%
%ADD10C,0.000000*%
%TD*%
%TA.AperFunction,SMDPad,CuDef*%
%ADD11RoundRect,0.225000X-0.250000X0.225000X-0.250000X-0.225000X0.250000X-0.225000X0.250000X0.225000X0*%
%TD*%
%TA.AperFunction,ComponentPad*%
%ADD12R,0.850000X0.850000*%
%TD*%
%TA.AperFunction,ComponentPad*%
%ADD13C,0.850000*%
%TD*%
%TA.AperFunction,SMDPad,CuDef*%
%ADD14RoundRect,0.250000X0.262500X0.450000X-0.262500X0.450000X-0.262500X-0.450000X0.262500X-0.450000X0*%
%TD*%
%TA.AperFunction,SMDPad,CuDef*%
%ADD15RoundRect,0.225000X0.225000X0.250000X-0.225000X0.250000X-0.225000X-0.250000X0.225000X-0.250000X0*%
%TD*%
%TA.AperFunction,SMDPad,CuDef*%
%ADD16RoundRect,0.200000X-0.200000X-0.275000X0.200000X-0.275000X0.200000X0.275000X-0.200000X0.275000X0*%
%TD*%
%TA.AperFunction,ComponentPad*%
%ADD17C,1.431000*%
%TD*%
%TA.AperFunction,ComponentPad*%
%ADD18C,3.450000*%
%TD*%
%TA.AperFunction,ConnectorPad*%
%ADD19R,0.500000X0.500000*%
%TD*%
%TA.AperFunction,ComponentPad*%
%ADD20R,0.500000X0.900000*%
%TD*%
%TA.AperFunction,SMDPad,CuDef*%
%ADD21R,0.700000X0.700000*%
%TD*%
%TA.AperFunction,SMDPad,CuDef*%
%ADD22RoundRect,0.062500X-0.350000X-0.062500X0.350000X-0.062500X0.350000X0.062500X-0.350000X0.062500X0*%
%TD*%
%TA.AperFunction,SMDPad,CuDef*%
%ADD23RoundRect,0.062500X-0.062500X-0.350000X0.062500X-0.350000X0.062500X0.350000X-0.062500X0.350000X0*%
%TD*%
%TA.AperFunction,HeatsinkPad*%
%ADD24R,3.600000X3.600000*%
%TD*%
%TA.AperFunction,SMDPad,CuDef*%
%ADD25RoundRect,0.225000X0.250000X-0.225000X0.250000X0.225000X-0.250000X0.225000X-0.250000X-0.225000X0*%
%TD*%
%TA.AperFunction,SMDPad,CuDef*%
%ADD26RoundRect,0.225000X-0.225000X-0.250000X0.225000X-0.250000X0.225000X0.250000X-0.225000X0.250000X0*%
%TD*%
%TA.AperFunction,SMDPad,CuDef*%
%ADD27RoundRect,0.218750X0.218750X0.256250X-0.218750X0.256250X-0.218750X-0.256250X0.218750X-0.256250X0*%
%TD*%
%TA.AperFunction,SMDPad,CuDef*%
%ADD28RoundRect,0.250000X-0.450000X-0.350000X0.450000X-0.350000X0.450000X0.350000X-0.450000X0.350000X0*%
%TD*%
%TA.AperFunction,ViaPad*%
%ADD29C,0.600000*%
%TD*%
%TA.AperFunction,ViaPad*%
%ADD30C,0.700000*%
%TD*%
%TA.AperFunction,Conductor*%
%ADD31C,0.200000*%
%TD*%
%TA.AperFunction,Conductor*%
%ADD32C,0.300000*%
%TD*%
%TA.AperFunction,Conductor*%
%ADD33C,1.100000*%
%TD*%
G04 APERTURE END LIST*
D10*
%TA.AperFunction,EtchedComponent*%
%TO.C,REF\u002A\u002A*%
G36*
X173900000Y-64800000D02*
G01*
X171260000Y-64800000D01*
X171260000Y-66800000D01*
X173900000Y-66800000D01*
X173900000Y-69500000D01*
X171260000Y-69500000D01*
X171260000Y-71500000D01*
X173900000Y-71500000D01*
X173900000Y-76500000D01*
X168743215Y-76500000D01*
X168500000Y-76500000D01*
X168500000Y-76075156D01*
X168603957Y-76075156D01*
X168616065Y-76117819D01*
X168620419Y-76125731D01*
X168653203Y-76163674D01*
X168695605Y-76187742D01*
X168743215Y-76197583D01*
X168791622Y-76192847D01*
X168836416Y-76173185D01*
X168873186Y-76138245D01*
X168890092Y-76105353D01*
X168897982Y-76057267D01*
X168891408Y-76007682D01*
X168871313Y-75962372D01*
X168838643Y-75927112D01*
X168806417Y-75910218D01*
X168758158Y-75901778D01*
X168708632Y-75908309D01*
X168663447Y-75928868D01*
X168628213Y-75962511D01*
X168617600Y-75981122D01*
X168604700Y-76026637D01*
X168603957Y-76075156D01*
X168500000Y-76075156D01*
X168500000Y-75600000D01*
X173400000Y-75600000D01*
X173400000Y-74200000D01*
X168500000Y-74200000D01*
X168500000Y-73700000D01*
X173400000Y-73700000D01*
X173400000Y-72000000D01*
X170760000Y-72000000D01*
X170760000Y-69000000D01*
X173400000Y-69000000D01*
X173400000Y-67300000D01*
X170760000Y-67300000D01*
X170760000Y-64300000D01*
X173400000Y-64300000D01*
X173400000Y-62600000D01*
X169460000Y-62600000D01*
X169460000Y-62100000D01*
X173900000Y-62100000D01*
X173900000Y-64800000D01*
G37*
%TD.AperFunction*%
%TD*%
D11*
%TO.P,C5,1*%
%TO.N,GND*%
X162000000Y-72450000D03*
%TO.P,C5,2*%
%TO.N,Net-(C5-Pad2)*%
X162000000Y-74000000D03*
%TD*%
D12*
%TO.P,J3,1,Pin_1_1*%
%TO.N,VDD_nRF*%
X136500000Y-64000000D03*
D13*
%TO.P,J3,2,Pin_2_2*%
%TO.N,GND*%
X136500000Y-65000000D03*
%TO.P,J3,3,Pin_3_3*%
%TO.N,Net-(J3-Pin_3)*%
X136500000Y-66000000D03*
%TO.P,J3,4,Pin_4_4*%
%TO.N,Net-(J3-Pin_4)*%
X136500000Y-67000000D03*
%TO.P,J3,5,Pin_5_5*%
%TO.N,Net-(J3-Pin_5)*%
X136500000Y-68000000D03*
%TD*%
D14*
%TO.P,R8,1*%
%TO.N,Net-(U1-VBUS)*%
X143412500Y-74000000D03*
%TO.P,R8,2*%
%TO.N,VBUS*%
X141587500Y-74000000D03*
%TD*%
D11*
%TO.P,C6,1*%
%TO.N,GND*%
X156500000Y-72450000D03*
%TO.P,C6,2*%
%TO.N,Net-(U1-ANT)*%
X156500000Y-74000000D03*
%TD*%
D15*
%TO.P,C4,1*%
%TO.N,GND*%
X161550000Y-66500000D03*
%TO.P,C4,2*%
%TO.N,Net-(U1-XC1)*%
X160000000Y-66500000D03*
%TD*%
D11*
%TO.P,C2,1*%
%TO.N,Net-(U1-DECUSB)*%
X148500000Y-75500000D03*
%TO.P,C2,2*%
%TO.N,GND*%
X148500000Y-77050000D03*
%TD*%
D16*
%TO.P,R2,1*%
%TO.N,Net-(J3-Pin_3)*%
X139080000Y-66755000D03*
%TO.P,R2,2*%
%TO.N,Net-(U1-P0.18{slash}~{RESET})*%
X140730000Y-66755000D03*
%TD*%
D17*
%TO.P,J1,1,1_1*%
%TO.N,VBUS*%
X129400000Y-66000000D03*
%TO.P,J1,2,2_2*%
%TO.N,D-*%
X129400000Y-68500000D03*
%TO.P,J1,3,3_3*%
%TO.N,D+*%
X129400000Y-70500000D03*
%TO.P,J1,4,4_4*%
%TO.N,GND*%
X129400000Y-73000000D03*
D18*
%TO.P,J1,5,5_5*%
X127400000Y-63500000D03*
%TO.P,J1,6,6_6*%
X127400000Y-75500000D03*
%TD*%
D19*
%TO.P,REF\u002A\u002A,1*%
%TO.N,ANT*%
X168750000Y-73950000D03*
D20*
%TO.P,REF\u002A\u002A,2*%
%TO.N,N/C*%
X168750000Y-76050000D03*
%TD*%
D21*
%TO.P,D3,1,DOUT_1*%
%TO.N,unconnected-(D3-DOUT-Pad1)*%
X143370000Y-59300000D03*
%TO.P,D3,2,VSS_2*%
%TO.N,GND*%
X143370000Y-60400000D03*
%TO.P,D3,3,DIN_3*%
%TO.N,Net-(D3-DIN)*%
X145200000Y-60400000D03*
%TO.P,D3,4,VDD_4*%
%TO.N,Net-(D3-VDD)*%
X145200000Y-59300000D03*
%TD*%
D15*
%TO.P,C9,1*%
%TO.N,VDD_nRF*%
X146825000Y-69500000D03*
%TO.P,C9,2*%
%TO.N,GND*%
X145275000Y-69500000D03*
%TD*%
D22*
%TO.P,U1,1,DEC1_1*%
%TO.N,Net-(U1-DEC1)*%
X149062500Y-67700000D03*
%TO.P,U1,2,XL1/P0.00_2*%
%TO.N,unconnected-(U1-XL1{slash}P0.00-Pad2)*%
X149062500Y-68100000D03*
%TO.P,U1,3,XL2/P0.01_3*%
%TO.N,unconnected-(U1-XL2{slash}P0.01-Pad3)*%
X149062500Y-68500000D03*
%TO.P,U1,4,AIN2/P0.04_4*%
%TO.N,unconnected-(U1-AIN2{slash}P0.04-Pad4)*%
X149062500Y-68900000D03*
%TO.P,U1,5,AIN3/P0.05_5*%
%TO.N,unconnected-(U1-AIN3{slash}P0.05-Pad5)*%
X149062500Y-69300000D03*
%TO.P,U1,6,P1.09_6*%
%TO.N,unconnected-(U1-P1.09-Pad6)*%
X149062500Y-69700000D03*
%TO.P,U1,7,P0.11_7*%
%TO.N,unconnected-(U1-P0.11-Pad7)*%
X149062500Y-70100000D03*
%TO.P,U1,8,VDD_8*%
%TO.N,VDD_nRF*%
X149062500Y-70500000D03*
%TO.P,U1,9,VDDH_9*%
%TO.N,Net-(U1-VBUS)*%
X149062500Y-70900000D03*
%TO.P,U1,10,VBUS_10*%
X149062500Y-71300000D03*
D23*
%TO.P,U1,11,DECUSB_11*%
%TO.N,Net-(U1-DECUSB)*%
X149700000Y-71937500D03*
%TO.P,U1,12,D-_12*%
%TO.N,D-*%
X150100000Y-71937500D03*
%TO.P,U1,13,D+_13*%
%TO.N,D+*%
X150500000Y-71937500D03*
%TO.P,U1,14,P0.15_14*%
%TO.N,unconnected-(U1-P0.15-Pad14)*%
X150900000Y-71937500D03*
%TO.P,U1,15,P0.17_15*%
%TO.N,unconnected-(U1-P0.17-Pad15)*%
X151300000Y-71937500D03*
%TO.P,U1,16,P0.18/~{RESET}_16*%
%TO.N,Net-(U1-P0.18{slash}~{RESET})*%
X151700000Y-71937500D03*
%TO.P,U1,17,P0.20_17*%
%TO.N,unconnected-(U1-P0.20-Pad17)*%
X152100000Y-71937500D03*
%TO.P,U1,18,VDD_18*%
%TO.N,VDD_nRF*%
X152500000Y-71937500D03*
%TO.P,U1,19,SWDIO_19*%
%TO.N,Net-(J3-Pin_5)*%
X152900000Y-71937500D03*
%TO.P,U1,20,SWDCLK_20*%
%TO.N,Net-(J3-Pin_4)*%
X153300000Y-71937500D03*
D22*
%TO.P,U1,21,DEC5_21*%
%TO.N,unconnected-(U1-DEC5-Pad21)*%
X153937500Y-71300000D03*
%TO.P,U1,22,NFC1/P0.09_22*%
%TO.N,unconnected-(U1-NFC1{slash}P0.09-Pad22)*%
X153937500Y-70900000D03*
%TO.P,U1,23,NFC2/P0.10_23*%
%TO.N,unconnected-(U1-NFC2{slash}P0.10-Pad23)*%
X153937500Y-70500000D03*
%TO.P,U1,24,ANT_24*%
%TO.N,Net-(U1-ANT)*%
X153937500Y-70100000D03*
%TO.P,U1,25,VSS_PA_25*%
%TO.N,GND*%
X153937500Y-69700000D03*
%TO.P,U1,26,DEC6_26*%
%TO.N,DEC4_6*%
X153937500Y-69300000D03*
%TO.P,U1,27,DEC3_27*%
%TO.N,DEC3*%
X153937500Y-68900000D03*
%TO.P,U1,28,XC1_28*%
%TO.N,Net-(U1-XC1)*%
X153937500Y-68500000D03*
%TO.P,U1,29,XC2_29*%
%TO.N,Net-(U1-XC2)*%
X153937500Y-68100000D03*
%TO.P,U1,30,VDD_30*%
%TO.N,VDD_nRF*%
X153937500Y-67700000D03*
D23*
%TO.P,U1,31,AIN1/P0.03_31*%
%TO.N,unconnected-(U1-AIN1{slash}P0.03-Pad31)*%
X153300000Y-67062500D03*
%TO.P,U1,32,AIN0/P0.02_32*%
%TO.N,unconnected-(U1-AIN0{slash}P0.02-Pad32)*%
X152900000Y-67062500D03*
%TO.P,U1,33,AIN4/P0.28_33*%
%TO.N,unconnected-(U1-AIN4{slash}P0.28-Pad33)*%
X152500000Y-67062500D03*
%TO.P,U1,34,AIN5/P0.29_34*%
%TO.N,unconnected-(U1-AIN5{slash}P0.29-Pad34)*%
X152100000Y-67062500D03*
%TO.P,U1,35,AIN6/P0.30_35*%
%TO.N,Net-(D3-DIN)*%
X151700000Y-67062500D03*
%TO.P,U1,36,AIN7/P0.31_36*%
%TO.N,unconnected-(U1-AIN7{slash}P0.31-Pad36)*%
X151300000Y-67062500D03*
%TO.P,U1,37,VSS_37*%
%TO.N,GND*%
X150900000Y-67062500D03*
%TO.P,U1,38,DEC4_38*%
%TO.N,DEC4_6*%
X150500000Y-67062500D03*
%TO.P,U1,39,DCC_39*%
%TO.N,unconnected-(U1-DCC-Pad39)*%
X150100000Y-67062500D03*
%TO.P,U1,40,VDD_40*%
%TO.N,VDD_nRF*%
X149700000Y-67062500D03*
D24*
%TO.P,U1,41,VSS_41*%
%TO.N,GND*%
X151500000Y-69500000D03*
%TD*%
D25*
%TO.P,C8,1*%
%TO.N,GND*%
X153000000Y-76500000D03*
%TO.P,C8,2*%
%TO.N,VDD_nRF*%
X153000000Y-74950000D03*
%TD*%
D26*
%TO.P,C3,1*%
%TO.N,GND*%
X160225000Y-60500000D03*
%TO.P,C3,2*%
%TO.N,Net-(U1-XC2)*%
X161775000Y-60500000D03*
%TD*%
%TO.P,C31,1*%
%TO.N,DEC3*%
X159950000Y-68500000D03*
%TO.P,C31,2*%
%TO.N,GND*%
X161500000Y-68500000D03*
%TD*%
D16*
%TO.P,R1,1*%
%TO.N,Net-(D1-A)*%
X154600000Y-60600000D03*
%TO.P,R1,2*%
%TO.N,VDD_nRF*%
X156250000Y-60600000D03*
%TD*%
D15*
%TO.P,C7,1*%
%TO.N,Net-(U1-VBUS)*%
X146825000Y-71500000D03*
%TO.P,C7,2*%
%TO.N,GND*%
X145275000Y-71500000D03*
%TD*%
D27*
%TO.P,D1,1,K_1*%
%TO.N,GND*%
X156175000Y-58800000D03*
%TO.P,D1,2,A_2*%
%TO.N,Net-(D1-A)*%
X154600000Y-58800000D03*
%TD*%
D15*
%TO.P,C30,1*%
%TO.N,GND*%
X161550000Y-70500000D03*
%TO.P,C30,2*%
%TO.N,DEC4_6*%
X160000000Y-70500000D03*
%TD*%
D26*
%TO.P,C29,1*%
%TO.N,DEC4_6*%
X150500000Y-60000000D03*
%TO.P,C29,2*%
%TO.N,GND*%
X152050000Y-60000000D03*
%TD*%
D25*
%TO.P,C11,1*%
%TO.N,VDD_nRF*%
X148500000Y-64825000D03*
%TO.P,C11,2*%
%TO.N,GND*%
X148500000Y-63275000D03*
%TD*%
D28*
%TO.P,Y2,1,1_1*%
%TO.N,Net-(U1-XC1)*%
X163425000Y-64425000D03*
%TO.P,Y2,2,G_2*%
%TO.N,GND*%
X165625000Y-64425000D03*
%TO.P,Y2,3,3_3*%
%TO.N,Net-(U1-XC2)*%
X165625000Y-62725000D03*
%TO.P,Y2,4,G_4*%
%TO.N,GND*%
X163425000Y-62725000D03*
%TD*%
D11*
%TO.P,C10,1*%
%TO.N,GND*%
X154500000Y-62450000D03*
%TO.P,C10,2*%
%TO.N,VDD_nRF*%
X154500000Y-64000000D03*
%TD*%
D27*
%TO.P,L2,1,1_1*%
%TO.N,ANT*%
X165575000Y-74000000D03*
%TO.P,L2,2,2_2*%
%TO.N,Net-(C5-Pad2)*%
X164000000Y-74000000D03*
%TD*%
%TO.P,L1,1,1_1*%
%TO.N,Net-(C5-Pad2)*%
X160000000Y-74000000D03*
%TO.P,L1,2,2_2*%
%TO.N,Net-(U1-ANT)*%
X158425000Y-74000000D03*
%TD*%
D11*
%TO.P,C1,1*%
%TO.N,GND*%
X144000000Y-63950000D03*
%TO.P,C1,2*%
%TO.N,Net-(U1-DEC1)*%
X144000000Y-65500000D03*
%TD*%
D26*
%TO.P,C12,1*%
%TO.N,VDD_nRF*%
X138450000Y-60600000D03*
%TO.P,C12,2*%
%TO.N,Net-(D3-VDD)*%
X140000000Y-60600000D03*
%TD*%
D29*
%TO.N,GND*%
X132500000Y-73000000D03*
D30*
X163000000Y-66500000D03*
X153000000Y-78000000D03*
D29*
X165500000Y-75000000D03*
D30*
X148500000Y-62000000D03*
D29*
X163500000Y-72000000D03*
D30*
X138500000Y-65000000D03*
X144000000Y-69500000D03*
D29*
X167750000Y-73000000D03*
X165000000Y-66000000D03*
D30*
X156000000Y-62500000D03*
D29*
X167000000Y-75000000D03*
D30*
X148500000Y-78500000D03*
X156128763Y-71070000D03*
D29*
X161800000Y-62600000D03*
X158000000Y-72000000D03*
D30*
X151070000Y-65500000D03*
D29*
X167750000Y-75000000D03*
D30*
X144000000Y-62500000D03*
X144000000Y-71500000D03*
X163000000Y-68500000D03*
D29*
X142000000Y-60800000D03*
D30*
X152000000Y-58500000D03*
D29*
X157600000Y-58800000D03*
X167000000Y-73000000D03*
D30*
X159000000Y-60500000D03*
D29*
X165500000Y-73000000D03*
D30*
X163000000Y-70500000D03*
D29*
X166250000Y-75000000D03*
X166250000Y-73000000D03*
%TO.N,D-*%
X149500000Y-79075000D03*
X133300521Y-70199479D03*
%TO.N,D+*%
X132699479Y-70800521D03*
X149500000Y-79925000D03*
%TO.N,VDD_nRF*%
X155250000Y-65250000D03*
X151500000Y-77000000D03*
X153250000Y-65000000D03*
X149980000Y-65500000D03*
D30*
%TO.N,Net-(J3-Pin_4)*%
X153604674Y-73378286D03*
X139000000Y-70500000D03*
%TO.N,Net-(J3-Pin_5)*%
X137500000Y-71500000D03*
X153070000Y-74000000D03*
%TO.N,Net-(U1-P0.18{slash}~{RESET})*%
X142000000Y-72000000D03*
X151096979Y-75500000D03*
D29*
%TO.N,DEC4_6*%
X149750000Y-64750000D03*
X157000000Y-69750000D03*
%TD*%
%TO.N,GND*%
D31*
X165625000Y-64425000D02*
X165625000Y-65375000D01*
X162000000Y-72450000D02*
X163050000Y-72450000D01*
X154406624Y-69700000D02*
X155776624Y-71070000D01*
X136500000Y-65000000D02*
X138500000Y-65000000D01*
D32*
X148500000Y-77050000D02*
X148500000Y-78500000D01*
X144000000Y-63950000D02*
X144000000Y-62500000D01*
D31*
X157550000Y-72450000D02*
X158000000Y-72000000D01*
X154500000Y-62450000D02*
X155950000Y-62450000D01*
X152050000Y-58550000D02*
X152000000Y-58500000D01*
X155776624Y-71070000D02*
X156128763Y-71070000D01*
D32*
X160225000Y-60500000D02*
X159000000Y-60500000D01*
X148500000Y-63275000D02*
X148500000Y-62000000D01*
D31*
X161550000Y-66500000D02*
X163000000Y-66500000D01*
X142400000Y-60400000D02*
X142000000Y-60800000D01*
X153937500Y-69700000D02*
X151700000Y-69700000D01*
X143370000Y-60400000D02*
X142400000Y-60400000D01*
X153937500Y-69700000D02*
X154406624Y-69700000D01*
X152050000Y-60000000D02*
X152050000Y-58550000D01*
X163425000Y-62725000D02*
X161925000Y-62725000D01*
X161500000Y-68500000D02*
X163000000Y-68500000D01*
D32*
X145275000Y-71500000D02*
X144000000Y-71500000D01*
D31*
X155950000Y-62450000D02*
X156000000Y-62500000D01*
X151700000Y-69700000D02*
X151500000Y-69500000D01*
D32*
X145275000Y-69500000D02*
X144000000Y-69500000D01*
D31*
X161925000Y-62725000D02*
X161800000Y-62600000D01*
X150900000Y-67062500D02*
X150900000Y-65670000D01*
X161550000Y-70500000D02*
X163000000Y-70500000D01*
X163050000Y-72450000D02*
X163500000Y-72000000D01*
X129442000Y-73000000D02*
X132500000Y-73000000D01*
D32*
X153000000Y-76500000D02*
X153000000Y-78000000D01*
D31*
X165625000Y-65375000D02*
X165000000Y-66000000D01*
X150900000Y-65670000D02*
X151070000Y-65500000D01*
X156175000Y-58800000D02*
X157600000Y-58800000D01*
X156500000Y-72450000D02*
X157550000Y-72450000D01*
%TO.N,Net-(C5-Pad2)*%
X160000000Y-74000000D02*
X162000000Y-74000000D01*
X162000000Y-74000000D02*
X164000000Y-74000000D01*
%TO.N,VBUS*%
D32*
X141800000Y-74000000D02*
X141587500Y-74000000D01*
D31*
X129442000Y-66000000D02*
X131193898Y-66000000D01*
X139193898Y-74000000D02*
X141587500Y-74000000D01*
X131193898Y-66000000D02*
X139193898Y-74000000D01*
%TO.N,D-*%
X133017678Y-70199479D02*
X133300521Y-70199479D01*
X149713603Y-79075000D02*
X150074999Y-78713604D01*
X149500000Y-79075000D02*
X149713603Y-79075000D01*
X150074999Y-71962501D02*
X150100000Y-71937500D01*
X130216999Y-69274999D02*
X132093198Y-69274999D01*
X132093198Y-69274999D02*
X133017678Y-70199479D01*
X129442000Y-68500000D02*
X130216999Y-69274999D01*
X150074999Y-78713604D02*
X150074999Y-71962501D01*
%TO.N,D+*%
X150551980Y-72124716D02*
X150551980Y-71937500D01*
X150526979Y-72149717D02*
X150551980Y-72124716D01*
X150525001Y-78899999D02*
X150525001Y-71962501D01*
X129442000Y-70500000D02*
X130216999Y-69725001D01*
X149500000Y-79925000D02*
X150525001Y-78899999D01*
X130216999Y-69725001D02*
X131906802Y-69725001D01*
X132699479Y-70517678D02*
X132699479Y-70800521D01*
X150525001Y-71962501D02*
X150500000Y-71937500D01*
X131906802Y-69725001D02*
X132699479Y-70517678D01*
%TO.N,VDD_nRF*%
X149980000Y-65745000D02*
X149980000Y-65500000D01*
X153000000Y-74950000D02*
X152500000Y-74450000D01*
X151521000Y-77021000D02*
X151521000Y-80140806D01*
X151500000Y-77000000D02*
X152021000Y-76479000D01*
X152500000Y-74450000D02*
X152500000Y-73250000D01*
X154500000Y-65250000D02*
X155250000Y-65250000D01*
X152500000Y-73250000D02*
X152500000Y-71937500D01*
X148472978Y-80446000D02*
X142679000Y-74652022D01*
X136500000Y-64000000D02*
X139500000Y-64000000D01*
X151521000Y-80140806D02*
X151215806Y-80446000D01*
X156570000Y-60920000D02*
X156570000Y-62736102D01*
X147825000Y-70500000D02*
X149062500Y-70500000D01*
X153500000Y-65250000D02*
X154500000Y-65250000D01*
X149700000Y-66025000D02*
X146525000Y-66025000D01*
X152021000Y-73500000D02*
X152250000Y-73500000D01*
X156570000Y-62736102D02*
X155306102Y-64000000D01*
X146825000Y-69500000D02*
X147825000Y-70500000D01*
X144825000Y-67500000D02*
X146825000Y-69500000D01*
X151500000Y-77000000D02*
X151521000Y-77021000D01*
X145329000Y-64829000D02*
X143559026Y-64829000D01*
X154500000Y-67137500D02*
X153937500Y-67700000D01*
X152250000Y-73500000D02*
X152500000Y-73250000D01*
X156250000Y-60600000D02*
X156570000Y-60920000D01*
X146525000Y-66025000D02*
X145329000Y-64829000D01*
X154500000Y-64000000D02*
X154500000Y-65250000D01*
X142679000Y-67821000D02*
X143000000Y-67500000D01*
X155306102Y-64000000D02*
X154500000Y-64000000D01*
X139500000Y-64000000D02*
X143000000Y-67500000D01*
X143000000Y-65388026D02*
X143000000Y-67500000D01*
X138450000Y-60600000D02*
X138450000Y-62950000D01*
X153250000Y-65000000D02*
X153500000Y-65250000D01*
X143559026Y-64829000D02*
X143000000Y-65388026D01*
X152021000Y-76479000D02*
X152021000Y-73500000D01*
X154500000Y-65250000D02*
X154500000Y-67137500D01*
X142679000Y-74652022D02*
X142679000Y-67821000D01*
X138450000Y-62950000D02*
X139500000Y-64000000D01*
X149700000Y-66025000D02*
X148500000Y-64825000D01*
X149700000Y-67062500D02*
X149700000Y-66025000D01*
X143000000Y-67500000D02*
X144825000Y-67500000D01*
X151215806Y-80446000D02*
X148472978Y-80446000D01*
X149700000Y-66025000D02*
X149980000Y-65745000D01*
%TO.N,Net-(J3-Pin_3)*%
X136500000Y-66000000D02*
X138325000Y-66000000D01*
X138325000Y-66000000D02*
X139080000Y-66755000D01*
%TO.N,Net-(J3-Pin_4)*%
X139000000Y-69500000D02*
X139000000Y-70500000D01*
X136500000Y-67000000D02*
X139000000Y-69500000D01*
X153604674Y-72242174D02*
X153300000Y-71937500D01*
X153604674Y-73378286D02*
X153604674Y-72242174D01*
%TO.N,Net-(J3-Pin_5)*%
X136500000Y-68000000D02*
X136500000Y-70500000D01*
X152900000Y-73830000D02*
X152900000Y-71937500D01*
X153070000Y-74000000D02*
X152900000Y-73830000D01*
X136500000Y-70500000D02*
X137500000Y-71500000D01*
%TO.N,Net-(U1-VBUS)*%
X149062500Y-70900000D02*
X148400000Y-70900000D01*
X144325000Y-74000000D02*
X143412500Y-74000000D01*
X148000000Y-71300000D02*
X147025000Y-71300000D01*
X148400000Y-70900000D02*
X148000000Y-71300000D01*
X149062500Y-71300000D02*
X148000000Y-71300000D01*
X147025000Y-71300000D02*
X146825000Y-71500000D01*
X146825000Y-71500000D02*
X144325000Y-74000000D01*
%TO.N,Net-(U1-ANT)*%
X154571000Y-70318338D02*
X154352662Y-70100000D01*
X156500000Y-74000000D02*
X158425000Y-74000000D01*
X154352662Y-70100000D02*
X153937500Y-70100000D01*
X156500000Y-74000000D02*
X154571000Y-72071000D01*
X154571000Y-72071000D02*
X154571000Y-70318338D01*
%TO.N,Net-(U1-XC1)*%
X160000000Y-66500000D02*
X162075000Y-64425000D01*
X160000000Y-66500000D02*
X160000000Y-66400000D01*
X160000000Y-66500000D02*
X158000000Y-68500000D01*
X158000000Y-68500000D02*
X153937500Y-68500000D01*
X162075000Y-64425000D02*
X163425000Y-64425000D01*
%TO.N,Net-(U1-DECUSB)*%
X148500000Y-73137500D02*
X149700000Y-71937500D01*
X148500000Y-75500000D02*
X148500000Y-73137500D01*
%TO.N,Net-(U1-P0.18{slash}~{RESET})*%
X151700000Y-74896979D02*
X151700000Y-71937500D01*
X140730000Y-70230000D02*
X142000000Y-71500000D01*
X151096979Y-75500000D02*
X151700000Y-74896979D01*
X140730000Y-66755000D02*
X140730000Y-70230000D01*
X142000000Y-71500000D02*
X142000000Y-72000000D01*
%TO.N,ANT*%
D33*
X168700000Y-74000000D02*
X168750000Y-73950000D01*
X165575000Y-74000000D02*
X168700000Y-74000000D01*
%TO.N,Net-(D3-DIN)*%
D31*
X147846000Y-59304000D02*
X150915974Y-59304000D01*
X146750000Y-60400000D02*
X147846000Y-59304000D01*
X151379000Y-65001484D02*
X151700000Y-65322484D01*
X151379000Y-59767026D02*
X151379000Y-65001484D01*
X145200000Y-60400000D02*
X146750000Y-60400000D01*
X150915974Y-59304000D02*
X151379000Y-59767026D01*
X151700000Y-65322484D02*
X151700000Y-67062500D01*
%TO.N,Net-(D3-VDD)*%
X144630000Y-58730000D02*
X145200000Y-59300000D01*
X141870000Y-58730000D02*
X144630000Y-58730000D01*
X140000000Y-60600000D02*
X141870000Y-58730000D01*
%TO.N,Net-(U1-DEC1)*%
X146200000Y-67700000D02*
X144000000Y-65500000D01*
X149062500Y-67700000D02*
X146200000Y-67700000D01*
%TO.N,DEC4_6*%
X155625000Y-70125000D02*
X156000000Y-70500000D01*
X153937500Y-69300000D02*
X154800000Y-69300000D01*
X155625000Y-70125000D02*
X156000000Y-69750000D01*
X149750000Y-64750000D02*
X149750000Y-64000000D01*
X156000000Y-70500000D02*
X160000000Y-70500000D01*
X150500000Y-63250000D02*
X150500000Y-60000000D01*
X156000000Y-69750000D02*
X157000000Y-69750000D01*
X150500000Y-67062500D02*
X150500000Y-63250000D01*
X149750000Y-64000000D02*
X150500000Y-63250000D01*
X154800000Y-69300000D02*
X155625000Y-70125000D01*
%TO.N,DEC3*%
X153937500Y-68900000D02*
X159550000Y-68900000D01*
X159550000Y-68900000D02*
X159950000Y-68500000D01*
%TO.N,Net-(U1-XC2)*%
X160196000Y-62079000D02*
X161775000Y-60500000D01*
X163400000Y-60500000D02*
X161775000Y-60500000D01*
X153937500Y-68100000D02*
X154381022Y-68100000D01*
X157829000Y-62347978D02*
X158097978Y-62079000D01*
X157829000Y-64652022D02*
X157829000Y-62347978D01*
X154381022Y-68100000D02*
X157829000Y-64652022D01*
X165625000Y-62725000D02*
X163400000Y-60500000D01*
X158097978Y-62079000D02*
X160196000Y-62079000D01*
%TO.N,Net-(D1-A)*%
X154600000Y-60600000D02*
X154600000Y-58800000D01*
%TD*%
%TA.AperFunction,Conductor*%
%TO.N,GND*%
G36*
X134273293Y-69934878D02*
G01*
X134299615Y-69954952D01*
X138709037Y-74364374D01*
X138709047Y-74364385D01*
X138713377Y-74368715D01*
X138713378Y-74368716D01*
X138825182Y-74480520D01*
X138825184Y-74480521D01*
X138825188Y-74480524D01*
X138907876Y-74528263D01*
X138962114Y-74559577D01*
X139073917Y-74589534D01*
X139114840Y-74600500D01*
X139114841Y-74600500D01*
X140494699Y-74600500D01*
X140561738Y-74620185D01*
X140607493Y-74672989D01*
X140612403Y-74685492D01*
X140640186Y-74769334D01*
X140732288Y-74918656D01*
X140856344Y-75042712D01*
X141005666Y-75134814D01*
X141172203Y-75189999D01*
X141274991Y-75200500D01*
X141900008Y-75200499D01*
X141900016Y-75200498D01*
X141900019Y-75200498D01*
X141981769Y-75192147D01*
X142002797Y-75189999D01*
X142169334Y-75134814D01*
X142174468Y-75131646D01*
X142241860Y-75113206D01*
X142308524Y-75134128D01*
X142327247Y-75149504D01*
X147988117Y-80810374D01*
X147988127Y-80810385D01*
X147992457Y-80814715D01*
X147992458Y-80814716D01*
X148104262Y-80926520D01*
X148191073Y-80976639D01*
X148191075Y-80976641D01*
X148241191Y-81005576D01*
X148241193Y-81005577D01*
X148393920Y-81046500D01*
X148393921Y-81046500D01*
X151129137Y-81046500D01*
X151129153Y-81046501D01*
X151136749Y-81046501D01*
X151294860Y-81046501D01*
X151294863Y-81046501D01*
X151447591Y-81005577D01*
X151497710Y-80976639D01*
X151584522Y-80926520D01*
X151696326Y-80814716D01*
X151696326Y-80814714D01*
X151706534Y-80804507D01*
X151706536Y-80804504D01*
X151879506Y-80631534D01*
X151879511Y-80631530D01*
X151889714Y-80621326D01*
X151889716Y-80621326D01*
X152001520Y-80509522D01*
X152080577Y-80372590D01*
X152121500Y-80219863D01*
X152121500Y-77548337D01*
X152126827Y-77530193D01*
X152127165Y-77511284D01*
X152140665Y-77483066D01*
X152141185Y-77481298D01*
X152142398Y-77479446D01*
X152207224Y-77382427D01*
X152260836Y-77337622D01*
X152330161Y-77328915D01*
X152375424Y-77345780D01*
X152441511Y-77386544D01*
X152441518Y-77386547D01*
X152602393Y-77439855D01*
X152701683Y-77449999D01*
X153250000Y-77449999D01*
X153298308Y-77449999D01*
X153298322Y-77449998D01*
X153397607Y-77439855D01*
X153558481Y-77386547D01*
X153558492Y-77386542D01*
X153702728Y-77297575D01*
X153702732Y-77297572D01*
X153822572Y-77177732D01*
X153822575Y-77177728D01*
X153911542Y-77033492D01*
X153911547Y-77033481D01*
X153964855Y-76872606D01*
X153974999Y-76773322D01*
X153975000Y-76773309D01*
X153975000Y-76750000D01*
X153250000Y-76750000D01*
X153250000Y-77449999D01*
X152701683Y-77449999D01*
X152749999Y-77449998D01*
X152750000Y-77449998D01*
X152750000Y-76624000D01*
X152769685Y-76556961D01*
X152822489Y-76511206D01*
X152874000Y-76500000D01*
X153000000Y-76500000D01*
X153000000Y-76374000D01*
X153019685Y-76306961D01*
X153072489Y-76261206D01*
X153124000Y-76250000D01*
X153974999Y-76250000D01*
X153974999Y-76226692D01*
X153974998Y-76226677D01*
X153964855Y-76127392D01*
X153911547Y-75966518D01*
X153911542Y-75966507D01*
X153822575Y-75822271D01*
X153822572Y-75822267D01*
X153813339Y-75813034D01*
X153779854Y-75751711D01*
X153784838Y-75682019D01*
X153813343Y-75637668D01*
X153822968Y-75628044D01*
X153912003Y-75483697D01*
X153965349Y-75322708D01*
X153975500Y-75223345D01*
X153975499Y-74676656D01*
X153975341Y-74675112D01*
X153965349Y-74577292D01*
X153965348Y-74577289D01*
X153912003Y-74416303D01*
X153889134Y-74379227D01*
X153888895Y-74378355D01*
X153888231Y-74377740D01*
X153879696Y-74344734D01*
X153870694Y-74311836D01*
X153870890Y-74310681D01*
X153870739Y-74310096D01*
X153871916Y-74304640D01*
X153876896Y-74275343D01*
X153878339Y-74270958D01*
X153887816Y-74248082D01*
X153890777Y-74233192D01*
X153893141Y-74226016D01*
X153908853Y-74203232D01*
X153921680Y-74178708D01*
X153929387Y-74173457D01*
X153932808Y-74168498D01*
X153942795Y-74164324D01*
X153963464Y-74150244D01*
X154007537Y-74131989D01*
X154146836Y-74038912D01*
X154265300Y-73920448D01*
X154358377Y-73781149D01*
X154422490Y-73626368D01*
X154455174Y-73462053D01*
X154455174Y-73294519D01*
X154422490Y-73130204D01*
X154407566Y-73094176D01*
X154400098Y-73024709D01*
X154431372Y-72962230D01*
X154491461Y-72926577D01*
X154561286Y-72929070D01*
X154609809Y-72959044D01*
X155488181Y-73837416D01*
X155521666Y-73898739D01*
X155524500Y-73925097D01*
X155524500Y-74273337D01*
X155524501Y-74273355D01*
X155534650Y-74372707D01*
X155534651Y-74372710D01*
X155587996Y-74533694D01*
X155588001Y-74533705D01*
X155677029Y-74678040D01*
X155677032Y-74678044D01*
X155796955Y-74797967D01*
X155796959Y-74797970D01*
X155941294Y-74886998D01*
X155941297Y-74886999D01*
X155941303Y-74887003D01*
X156102292Y-74940349D01*
X156201655Y-74950500D01*
X156798344Y-74950499D01*
X156798352Y-74950498D01*
X156798355Y-74950498D01*
X156852760Y-74944940D01*
X156897708Y-74940349D01*
X157058697Y-74887003D01*
X157203044Y-74797968D01*
X157322968Y-74678044D01*
X157334465Y-74659403D01*
X157342051Y-74652580D01*
X157346291Y-74643297D01*
X157367589Y-74629609D01*
X157386412Y-74612679D01*
X157398048Y-74610034D01*
X157405069Y-74605523D01*
X157440004Y-74600500D01*
X157504315Y-74600500D01*
X157571354Y-74620185D01*
X157609851Y-74659400D01*
X157637500Y-74704225D01*
X157638220Y-74705392D01*
X157757108Y-74824280D01*
X157757112Y-74824283D01*
X157900204Y-74912544D01*
X157900207Y-74912545D01*
X157900213Y-74912549D01*
X158059815Y-74965436D01*
X158158326Y-74975500D01*
X158158331Y-74975500D01*
X158691669Y-74975500D01*
X158691674Y-74975500D01*
X158790185Y-74965436D01*
X158949787Y-74912549D01*
X159092891Y-74824281D01*
X159124819Y-74792353D01*
X159186142Y-74758868D01*
X159255834Y-74763852D01*
X159300181Y-74792353D01*
X159332108Y-74824280D01*
X159332112Y-74824283D01*
X159475204Y-74912544D01*
X159475207Y-74912545D01*
X159475213Y-74912549D01*
X159634815Y-74965436D01*
X159733326Y-74975500D01*
X159733331Y-74975500D01*
X160266669Y-74975500D01*
X160266674Y-74975500D01*
X160365185Y-74965436D01*
X160524787Y-74912549D01*
X160667891Y-74824281D01*
X160786781Y-74705391D01*
X160815148Y-74659401D01*
X160822733Y-74652578D01*
X160826972Y-74643297D01*
X160848271Y-74629608D01*
X160867094Y-74612679D01*
X160878729Y-74610034D01*
X160885750Y-74605523D01*
X160920685Y-74600500D01*
X161059996Y-74600500D01*
X161127035Y-74620185D01*
X161165535Y-74659404D01*
X161177031Y-74678043D01*
X161296955Y-74797967D01*
X161296959Y-74797970D01*
X161441294Y-74886998D01*
X161441297Y-74886999D01*
X161441303Y-74887003D01*
X161602292Y-74940349D01*
X161701655Y-74950500D01*
X162298344Y-74950499D01*
X162298352Y-74950498D01*
X162298355Y-74950498D01*
X162352760Y-74944940D01*
X162397708Y-74940349D01*
X162558697Y-74887003D01*
X162703044Y-74797968D01*
X162822968Y-74678044D01*
X162834465Y-74659403D01*
X162842051Y-74652580D01*
X162846291Y-74643297D01*
X162867589Y-74629609D01*
X162886412Y-74612679D01*
X162898048Y-74610034D01*
X162905069Y-74605523D01*
X162940004Y-74600500D01*
X163079315Y-74600500D01*
X163146354Y-74620185D01*
X163184851Y-74659400D01*
X163212500Y-74704225D01*
X163213220Y-74705392D01*
X163332108Y-74824280D01*
X163332112Y-74824283D01*
X163475204Y-74912544D01*
X163475207Y-74912545D01*
X163475213Y-74912549D01*
X163634815Y-74965436D01*
X163733326Y-74975500D01*
X163733331Y-74975500D01*
X164266669Y-74975500D01*
X164266674Y-74975500D01*
X164365185Y-74965436D01*
X164524787Y-74912549D01*
X164667891Y-74824281D01*
X164699819Y-74792353D01*
X164761142Y-74758868D01*
X164830834Y-74763852D01*
X164858696Y-74778510D01*
X164867540Y-74784712D01*
X164907109Y-74824281D01*
X165045832Y-74909846D01*
X165077402Y-74930941D01*
X165268580Y-75010130D01*
X165432372Y-75042710D01*
X165471530Y-75050499D01*
X165471534Y-75050500D01*
X168038429Y-75050500D01*
X168051354Y-75054295D01*
X168064793Y-75053335D01*
X168084226Y-75063947D01*
X168105468Y-75070185D01*
X168114289Y-75080365D01*
X168126114Y-75086823D01*
X168136724Y-75106256D01*
X168151223Y-75122989D01*
X168153140Y-75136324D01*
X168159596Y-75148148D01*
X168158015Y-75170230D01*
X168161167Y-75192147D01*
X168155461Y-75205919D01*
X168154609Y-75217839D01*
X168137695Y-75248809D01*
X168114847Y-75279330D01*
X168111471Y-75283840D01*
X168105921Y-75290726D01*
X168074746Y-75326704D01*
X168074746Y-75326705D01*
X168073023Y-75330477D01*
X168059507Y-75353254D01*
X168056210Y-75357658D01*
X168056204Y-75357669D01*
X168036591Y-75410251D01*
X168014976Y-75457584D01*
X168012490Y-75474867D01*
X168007836Y-75487346D01*
X168005910Y-75492510D01*
X168005909Y-75492516D01*
X167999500Y-75552118D01*
X167999500Y-75556354D01*
X167998238Y-75573999D01*
X167994500Y-75599996D01*
X167994500Y-76500000D01*
X167999645Y-76571942D01*
X168000372Y-76574418D01*
X168003499Y-76585069D01*
X168005909Y-76607483D01*
X168025515Y-76660052D01*
X168026763Y-76664301D01*
X168026765Y-76664306D01*
X168040180Y-76709990D01*
X168042415Y-76713468D01*
X168054275Y-76737161D01*
X168056201Y-76742326D01*
X168056205Y-76742332D01*
X168081915Y-76776677D01*
X168089841Y-76787264D01*
X168117969Y-76831032D01*
X168131165Y-76842466D01*
X168139155Y-76853139D01*
X168139155Y-76853140D01*
X168139156Y-76853141D01*
X168142453Y-76857546D01*
X168162415Y-76872489D01*
X168187380Y-76891178D01*
X168226706Y-76925254D01*
X168242589Y-76932507D01*
X168253263Y-76940498D01*
X168253263Y-76940499D01*
X168257664Y-76943793D01*
X168257669Y-76943796D01*
X168310251Y-76963408D01*
X168357584Y-76985024D01*
X168374870Y-76987509D01*
X168392517Y-76994091D01*
X168430567Y-76998182D01*
X168452116Y-77000499D01*
X168452118Y-77000499D01*
X168452127Y-77000500D01*
X168456352Y-77000499D01*
X168472537Y-77001559D01*
X168473211Y-77001647D01*
X168500000Y-77005500D01*
X168502483Y-77005500D01*
X168509086Y-77006369D01*
X168537791Y-77019066D01*
X168567209Y-77030036D01*
X168569495Y-77033089D01*
X168572984Y-77034633D01*
X168590269Y-77060836D01*
X168609085Y-77085966D01*
X168609357Y-77089770D01*
X168611458Y-77092955D01*
X168611833Y-77124347D01*
X168614075Y-77155657D01*
X168612263Y-77160343D01*
X168612293Y-77162820D01*
X168609712Y-77166942D01*
X168600294Y-77191309D01*
X168533609Y-77306810D01*
X168533609Y-77306811D01*
X168499500Y-77434108D01*
X168499500Y-81875500D01*
X168479815Y-81942539D01*
X168427011Y-81988294D01*
X168375500Y-81999500D01*
X125086424Y-81999500D01*
X125019385Y-81979815D01*
X124973630Y-81927011D01*
X124962425Y-81875118D01*
X124968564Y-79879786D01*
X124971598Y-78893713D01*
X132649500Y-78893713D01*
X132649500Y-79106286D01*
X132681527Y-79308501D01*
X132682754Y-79316243D01*
X132727572Y-79454179D01*
X132748444Y-79518414D01*
X132844951Y-79707820D01*
X132969890Y-79879786D01*
X133120213Y-80030109D01*
X133292179Y-80155048D01*
X133292181Y-80155049D01*
X133292184Y-80155051D01*
X133481588Y-80251557D01*
X133683757Y-80317246D01*
X133893713Y-80350500D01*
X133893714Y-80350500D01*
X134106286Y-80350500D01*
X134106287Y-80350500D01*
X134316243Y-80317246D01*
X134518412Y-80251557D01*
X134707816Y-80155051D01*
X134729789Y-80139086D01*
X134879786Y-80030109D01*
X134879788Y-80030106D01*
X134879792Y-80030104D01*
X135030104Y-79879792D01*
X135030106Y-79879788D01*
X135030109Y-79879786D01*
X135155048Y-79707820D01*
X135155047Y-79707820D01*
X135155051Y-79707816D01*
X135251557Y-79518412D01*
X135317246Y-79316243D01*
X135350500Y-79106287D01*
X135350500Y-78893713D01*
X135317246Y-78683757D01*
X135251557Y-78481588D01*
X135155051Y-78292184D01*
X135155049Y-78292181D01*
X135155048Y-78292179D01*
X135030109Y-78120213D01*
X134879786Y-77969890D01*
X134707820Y-77844951D01*
X134518414Y-77748444D01*
X134518413Y-77748443D01*
X134518412Y-77748443D01*
X134316243Y-77682754D01*
X134316241Y-77682753D01*
X134316240Y-77682753D01*
X134154957Y-77657208D01*
X134106287Y-77649500D01*
X133893713Y-77649500D01*
X133845042Y-77657208D01*
X133683760Y-77682753D01*
X133481585Y-77748444D01*
X133292179Y-77844951D01*
X133120213Y-77969890D01*
X132969890Y-78120213D01*
X132844951Y-78292179D01*
X132748444Y-78481585D01*
X132682753Y-78683760D01*
X132649500Y-78893713D01*
X124971598Y-78893713D01*
X124980476Y-76008439D01*
X125000366Y-75941462D01*
X125053311Y-75895870D01*
X125122500Y-75886139D01*
X125185966Y-75915359D01*
X125223559Y-75974253D01*
X125224250Y-75976728D01*
X125288562Y-76216744D01*
X125400171Y-76486195D01*
X125400179Y-76486211D01*
X125546006Y-76738788D01*
X125546012Y-76738796D01*
X125659608Y-76886837D01*
X126427912Y-76118532D01*
X126522829Y-76249175D01*
X126650825Y-76377171D01*
X126781465Y-76472086D01*
X126013161Y-77240390D01*
X126161203Y-77353987D01*
X126161211Y-77353993D01*
X126413788Y-77499820D01*
X126413804Y-77499828D01*
X126683255Y-77611437D01*
X126964996Y-77686930D01*
X127254155Y-77724998D01*
X127254173Y-77725000D01*
X127545827Y-77725000D01*
X127545844Y-77724998D01*
X127835003Y-77686930D01*
X128116744Y-77611437D01*
X128386195Y-77499828D01*
X128386211Y-77499820D01*
X128638788Y-77353993D01*
X128638806Y-77353981D01*
X128786837Y-77240391D01*
X128786837Y-77240389D01*
X128018533Y-76472086D01*
X128149175Y-76377171D01*
X128277171Y-76249175D01*
X128372086Y-76118533D01*
X129140389Y-76886837D01*
X129140391Y-76886837D01*
X129253981Y-76738806D01*
X129253993Y-76738788D01*
X129399820Y-76486211D01*
X129399828Y-76486195D01*
X129511437Y-76216744D01*
X129586930Y-75935003D01*
X129624998Y-75645844D01*
X129625000Y-75645827D01*
X129625000Y-75354172D01*
X129624998Y-75354155D01*
X129586930Y-75064996D01*
X129511437Y-74783255D01*
X129399828Y-74513804D01*
X129399820Y-74513788D01*
X129334990Y-74401500D01*
X129318517Y-74333600D01*
X129341369Y-74267573D01*
X129396290Y-74224383D01*
X129442377Y-74215500D01*
X129495667Y-74215500D01*
X129684626Y-74185571D01*
X129866592Y-74126446D01*
X130037061Y-74039588D01*
X130065425Y-74018980D01*
X130065425Y-74018979D01*
X129496748Y-73450302D01*
X129577553Y-73428651D01*
X129682446Y-73368091D01*
X129768091Y-73282446D01*
X129828651Y-73177553D01*
X129850302Y-73096748D01*
X130418979Y-73665425D01*
X130418980Y-73665425D01*
X130439588Y-73637061D01*
X130526446Y-73466592D01*
X130585571Y-73284626D01*
X130615500Y-73095667D01*
X130615500Y-72904332D01*
X130585571Y-72715373D01*
X130526446Y-72533407D01*
X130439586Y-72362934D01*
X130418980Y-72334573D01*
X130418979Y-72334572D01*
X129850302Y-72903250D01*
X129828651Y-72822447D01*
X129768091Y-72717554D01*
X129682446Y-72631909D01*
X129577553Y-72571349D01*
X129496749Y-72549697D01*
X130065425Y-71981019D01*
X130037059Y-71960410D01*
X129866590Y-71873551D01*
X129850095Y-71868192D01*
X129792420Y-71828754D01*
X129765223Y-71764395D01*
X129777139Y-71695549D01*
X129824384Y-71644074D01*
X129850089Y-71632334D01*
X129866782Y-71626911D01*
X130037323Y-71540016D01*
X130192171Y-71427513D01*
X130327513Y-71292171D01*
X130440016Y-71137323D01*
X130526911Y-70966782D01*
X130586058Y-70784747D01*
X130616000Y-70595701D01*
X130616000Y-70449501D01*
X130635685Y-70382462D01*
X130688489Y-70336707D01*
X130740000Y-70325501D01*
X131606705Y-70325501D01*
X131673744Y-70345186D01*
X131694386Y-70361820D01*
X131877872Y-70545306D01*
X131911357Y-70606629D01*
X131911809Y-70657177D01*
X131899793Y-70717590D01*
X131898979Y-70721680D01*
X131898979Y-70879367D01*
X131929740Y-71034010D01*
X131929743Y-71034022D01*
X131990081Y-71179693D01*
X131990088Y-71179706D01*
X132077689Y-71310809D01*
X132077692Y-71310813D01*
X132189186Y-71422307D01*
X132189190Y-71422310D01*
X132320293Y-71509911D01*
X132320306Y-71509918D01*
X132449563Y-71563457D01*
X132465982Y-71570258D01*
X132596270Y-71596174D01*
X132620632Y-71601020D01*
X132620635Y-71601021D01*
X132620637Y-71601021D01*
X132778323Y-71601021D01*
X132778324Y-71601020D01*
X132932976Y-71570258D01*
X133078658Y-71509915D01*
X133209768Y-71422310D01*
X133321268Y-71310810D01*
X133408873Y-71179700D01*
X133408874Y-71179697D01*
X133408876Y-71179694D01*
X133458629Y-71059577D01*
X133468540Y-71035647D01*
X133512380Y-70981245D01*
X133535645Y-70968541D01*
X133617418Y-70934671D01*
X133679694Y-70908876D01*
X133679697Y-70908874D01*
X133679700Y-70908873D01*
X133810810Y-70821268D01*
X133922310Y-70709768D01*
X134009915Y-70578658D01*
X134009918Y-70578651D01*
X134070257Y-70432979D01*
X134070258Y-70432976D01*
X134101021Y-70278321D01*
X134101021Y-70120637D01*
X134101021Y-70120634D01*
X134090317Y-70066825D01*
X134096544Y-69997234D01*
X134139406Y-69942056D01*
X134205296Y-69918811D01*
X134273293Y-69934878D01*
G37*
%TD.AperFunction*%
%TA.AperFunction,Conductor*%
G36*
X147920943Y-71900501D02*
G01*
X148079057Y-71900501D01*
X148079061Y-71900500D01*
X148515492Y-71900500D01*
X148562942Y-71909938D01*
X148565528Y-71911009D01*
X148591693Y-71914453D01*
X148655589Y-71942718D01*
X148694061Y-72001042D01*
X148694894Y-72070906D01*
X148663190Y-72125073D01*
X148134357Y-72653906D01*
X148134350Y-72653913D01*
X148131286Y-72656978D01*
X148131284Y-72656980D01*
X148019480Y-72768784D01*
X147995684Y-72810001D01*
X147989718Y-72820333D01*
X147989718Y-72820334D01*
X147963822Y-72865187D01*
X147940423Y-72905715D01*
X147899499Y-73058443D01*
X147899499Y-73058445D01*
X147899499Y-73226546D01*
X147899500Y-73226559D01*
X147899500Y-74569574D01*
X147879815Y-74636613D01*
X147840598Y-74675112D01*
X147796957Y-74702030D01*
X147677029Y-74821959D01*
X147588001Y-74966294D01*
X147587996Y-74966305D01*
X147534651Y-75127290D01*
X147524500Y-75226647D01*
X147524500Y-75773337D01*
X147524501Y-75773355D01*
X147534650Y-75872707D01*
X147534651Y-75872710D01*
X147587996Y-76033694D01*
X147588001Y-76033705D01*
X147677029Y-76178040D01*
X147677032Y-76178044D01*
X147686660Y-76187672D01*
X147720145Y-76248995D01*
X147715161Y-76318687D01*
X147686663Y-76363031D01*
X147677428Y-76372265D01*
X147677424Y-76372271D01*
X147588457Y-76516507D01*
X147588452Y-76516518D01*
X147535144Y-76677393D01*
X147525000Y-76776677D01*
X147525000Y-76800000D01*
X148376000Y-76800000D01*
X148443039Y-76819685D01*
X148488794Y-76872489D01*
X148500000Y-76924000D01*
X148500000Y-77050000D01*
X148626000Y-77050000D01*
X148693039Y-77069685D01*
X148738794Y-77122489D01*
X148750000Y-77174000D01*
X148750000Y-77999999D01*
X148798308Y-77999999D01*
X148798322Y-77999998D01*
X148897607Y-77989855D01*
X149058481Y-77936547D01*
X149058492Y-77936542D01*
X149202728Y-77847575D01*
X149202732Y-77847572D01*
X149262818Y-77787487D01*
X149324141Y-77754002D01*
X149393833Y-77758986D01*
X149449766Y-77800858D01*
X149474183Y-77866322D01*
X149474499Y-77875168D01*
X149474499Y-78162125D01*
X149454814Y-78229164D01*
X149402010Y-78274919D01*
X149374691Y-78283742D01*
X149266508Y-78305261D01*
X149266498Y-78305264D01*
X149120827Y-78365602D01*
X149120814Y-78365609D01*
X148989711Y-78453210D01*
X148989707Y-78453213D01*
X148878213Y-78564707D01*
X148878210Y-78564711D01*
X148790609Y-78695814D01*
X148790602Y-78695827D01*
X148730264Y-78841498D01*
X148730261Y-78841510D01*
X148699500Y-78996153D01*
X148699500Y-79153846D01*
X148730261Y-79308489D01*
X148730264Y-79308501D01*
X148789930Y-79452548D01*
X148793210Y-79483062D01*
X148798658Y-79513256D01*
X148797109Y-79519323D01*
X148797399Y-79522017D01*
X148789930Y-79547454D01*
X148753671Y-79634989D01*
X148709829Y-79689392D01*
X148643535Y-79711456D01*
X148575836Y-79694176D01*
X148551429Y-79675216D01*
X146199535Y-77323322D01*
X147525001Y-77323322D01*
X147535144Y-77422607D01*
X147588452Y-77583481D01*
X147588457Y-77583492D01*
X147677424Y-77727728D01*
X147677427Y-77727732D01*
X147797267Y-77847572D01*
X147797271Y-77847575D01*
X147941507Y-77936542D01*
X147941518Y-77936547D01*
X148102393Y-77989855D01*
X148201683Y-77999999D01*
X148249999Y-77999998D01*
X148250000Y-77999998D01*
X148250000Y-77300000D01*
X147525001Y-77300000D01*
X147525001Y-77323322D01*
X146199535Y-77323322D01*
X144115550Y-75239337D01*
X144082065Y-75178014D01*
X144087049Y-75108322D01*
X144128921Y-75052389D01*
X144138140Y-75046114D01*
X144143656Y-75042712D01*
X144267712Y-74918656D01*
X144359814Y-74769334D01*
X144395870Y-74660522D01*
X144396345Y-74659837D01*
X144396385Y-74659000D01*
X144416201Y-74631158D01*
X144435641Y-74603080D01*
X144436575Y-74602532D01*
X144436900Y-74602076D01*
X144440002Y-74600522D01*
X144467461Y-74584422D01*
X144474326Y-74581671D01*
X144556785Y-74559577D01*
X144611022Y-74528263D01*
X144693716Y-74480520D01*
X144805520Y-74368716D01*
X144805520Y-74368714D01*
X144815724Y-74358511D01*
X144815728Y-74358506D01*
X146662416Y-72511818D01*
X146723739Y-72478333D01*
X146750097Y-72475499D01*
X147098338Y-72475499D01*
X147098344Y-72475499D01*
X147098352Y-72475498D01*
X147098355Y-72475498D01*
X147167830Y-72468401D01*
X147197708Y-72465349D01*
X147358697Y-72412003D01*
X147503044Y-72322968D01*
X147622968Y-72203044D01*
X147712003Y-72058697D01*
X147736259Y-71985495D01*
X147776032Y-71928051D01*
X147840547Y-71901228D01*
X147853965Y-71900500D01*
X147920939Y-71900500D01*
X147920943Y-71900501D01*
G37*
%TD.AperFunction*%
%TA.AperFunction,Conductor*%
G36*
X125222469Y-64051593D02*
G01*
X125260062Y-64110487D01*
X125260753Y-64112961D01*
X125288563Y-64216745D01*
X125400171Y-64486195D01*
X125400179Y-64486211D01*
X125546006Y-64738788D01*
X125546012Y-64738796D01*
X125659608Y-64886837D01*
X126427912Y-64118532D01*
X126522829Y-64249175D01*
X126650825Y-64377171D01*
X126781465Y-64472086D01*
X126013161Y-65240389D01*
X126013161Y-65240390D01*
X126161203Y-65353987D01*
X126161211Y-65353993D01*
X126413788Y-65499820D01*
X126413804Y-65499828D01*
X126683255Y-65611437D01*
X126964996Y-65686930D01*
X127254155Y-65724998D01*
X127254173Y-65725000D01*
X127545827Y-65725000D01*
X127545844Y-65724998D01*
X127835003Y-65686930D01*
X128050984Y-65629058D01*
X128120834Y-65630721D01*
X128178697Y-65669883D01*
X128206201Y-65734112D01*
X128205551Y-65768231D01*
X128184000Y-65904299D01*
X128184000Y-66095700D01*
X128213941Y-66284744D01*
X128213942Y-66284748D01*
X128230411Y-66335435D01*
X128232406Y-66405276D01*
X128196325Y-66465109D01*
X128133624Y-66495936D01*
X128064209Y-66487971D01*
X128043409Y-66475402D01*
X128042847Y-66476245D01*
X127873920Y-66363371D01*
X127873907Y-66363364D01*
X127691839Y-66287950D01*
X127691829Y-66287947D01*
X127498543Y-66249500D01*
X127498541Y-66249500D01*
X127301459Y-66249500D01*
X127301457Y-66249500D01*
X127108170Y-66287947D01*
X127108160Y-66287950D01*
X126926092Y-66363364D01*
X126926079Y-66363371D01*
X126762218Y-66472860D01*
X126762214Y-66472863D01*
X126622863Y-66612214D01*
X126622860Y-66612218D01*
X126513371Y-66776079D01*
X126513364Y-66776092D01*
X126437950Y-66958160D01*
X126437947Y-66958170D01*
X126399500Y-67151456D01*
X126399500Y-67151459D01*
X126399500Y-67348541D01*
X126399500Y-67348543D01*
X126399499Y-67348543D01*
X126437947Y-67541829D01*
X126437950Y-67541839D01*
X126513364Y-67723907D01*
X126513371Y-67723920D01*
X126622860Y-67887781D01*
X126622863Y-67887785D01*
X126762214Y-68027136D01*
X126762218Y-68027139D01*
X126926079Y-68136628D01*
X126926092Y-68136635D01*
X127083156Y-68201692D01*
X127108165Y-68212051D01*
X127108169Y-68212051D01*
X127108170Y-68212052D01*
X127301456Y-68250500D01*
X127301459Y-68250500D01*
X127498543Y-68250500D01*
X127629250Y-68224500D01*
X127691835Y-68212051D01*
X127873914Y-68136632D01*
X127898529Y-68120185D01*
X128042847Y-68023755D01*
X128044317Y-68025955D01*
X128098020Y-68003093D01*
X128166898Y-68014826D01*
X128218498Y-68061934D01*
X128236438Y-68129461D01*
X128230412Y-68164563D01*
X128214983Y-68212051D01*
X128213941Y-68215257D01*
X128184000Y-68404299D01*
X128184000Y-68595700D01*
X128213941Y-68784744D01*
X128213942Y-68784747D01*
X128273089Y-68966782D01*
X128349213Y-69116184D01*
X128359986Y-69137326D01*
X128472481Y-69292164D01*
X128472485Y-69292169D01*
X128592635Y-69412319D01*
X128626120Y-69473642D01*
X128621136Y-69543334D01*
X128592635Y-69587681D01*
X128472485Y-69707830D01*
X128472481Y-69707835D01*
X128359986Y-69862673D01*
X128273090Y-70033215D01*
X128213941Y-70215255D01*
X128190728Y-70361820D01*
X128184000Y-70404299D01*
X128184000Y-70595701D01*
X128184478Y-70598716D01*
X128213941Y-70784744D01*
X128213942Y-70784748D01*
X128230411Y-70835435D01*
X128232406Y-70905276D01*
X128196325Y-70965109D01*
X128133624Y-70995936D01*
X128064209Y-70987971D01*
X128043409Y-70975402D01*
X128042847Y-70976245D01*
X127873920Y-70863371D01*
X127873907Y-70863364D01*
X127691839Y-70787950D01*
X127691829Y-70787947D01*
X127498543Y-70749500D01*
X127498541Y-70749500D01*
X127301459Y-70749500D01*
X127301457Y-70749500D01*
X127108170Y-70787947D01*
X127108160Y-70787950D01*
X126926092Y-70863364D01*
X126926079Y-70863371D01*
X126762218Y-70972860D01*
X126762214Y-70972863D01*
X126622863Y-71112214D01*
X126622860Y-71112218D01*
X126513371Y-71276079D01*
X126513364Y-71276092D01*
X126437950Y-71458160D01*
X126437947Y-71458170D01*
X126399500Y-71651456D01*
X126399500Y-71651459D01*
X126399500Y-71848541D01*
X126399500Y-71848543D01*
X126399499Y-71848543D01*
X126437947Y-72041829D01*
X126437950Y-72041839D01*
X126513364Y-72223907D01*
X126513371Y-72223920D01*
X126622860Y-72387781D01*
X126622863Y-72387785D01*
X126762214Y-72527136D01*
X126762218Y-72527139D01*
X126926079Y-72636628D01*
X126926092Y-72636635D01*
X127079071Y-72700000D01*
X127108165Y-72712051D01*
X127108169Y-72712051D01*
X127108170Y-72712052D01*
X127301456Y-72750500D01*
X127301459Y-72750500D01*
X127498543Y-72750500D01*
X127635238Y-72723309D01*
X127691835Y-72712051D01*
X127873914Y-72636632D01*
X127877829Y-72634016D01*
X128042847Y-72523755D01*
X128044165Y-72525728D01*
X128098768Y-72502501D01*
X128167643Y-72514252D01*
X128219231Y-72561373D01*
X128237154Y-72628905D01*
X128231128Y-72663975D01*
X128214428Y-72715374D01*
X128184500Y-72904332D01*
X128184500Y-73095668D01*
X128206078Y-73231911D01*
X128197123Y-73301204D01*
X128152127Y-73354656D01*
X128085375Y-73375295D01*
X128051511Y-73371083D01*
X127835003Y-73313069D01*
X127545844Y-73275001D01*
X127545827Y-73275000D01*
X127254173Y-73275000D01*
X127254155Y-73275001D01*
X126964996Y-73313069D01*
X126683255Y-73388562D01*
X126413804Y-73500171D01*
X126413788Y-73500179D01*
X126161211Y-73646006D01*
X126161195Y-73646017D01*
X126013161Y-73759606D01*
X126013161Y-73759608D01*
X126781466Y-74527913D01*
X126650825Y-74622829D01*
X126522829Y-74750825D01*
X126427913Y-74881466D01*
X125659608Y-74113161D01*
X125659606Y-74113161D01*
X125546017Y-74261195D01*
X125546006Y-74261211D01*
X125400179Y-74513788D01*
X125400171Y-74513804D01*
X125288562Y-74783255D01*
X125227417Y-75011449D01*
X125191051Y-75071109D01*
X125128204Y-75101638D01*
X125058829Y-75093343D01*
X125004951Y-75048857D01*
X124983677Y-74982305D01*
X124983643Y-74979019D01*
X125016979Y-64144670D01*
X125036869Y-64077696D01*
X125089814Y-64032104D01*
X125159003Y-64022373D01*
X125222469Y-64051593D01*
G37*
%TD.AperFunction*%
%TA.AperFunction,Conductor*%
G36*
X168442539Y-57020185D02*
G01*
X168488294Y-57072989D01*
X168499500Y-57124500D01*
X168499500Y-61434108D01*
X168499500Y-61565892D01*
X168503251Y-61579890D01*
X168533608Y-61693187D01*
X168566554Y-61750250D01*
X168599500Y-61807314D01*
X168692686Y-61900500D01*
X168806814Y-61966392D01*
X168862593Y-61981337D01*
X168922253Y-62017701D01*
X168952783Y-62080548D01*
X168954500Y-62101112D01*
X168954500Y-62599999D01*
X168959644Y-62671940D01*
X168974732Y-62723322D01*
X168994977Y-62792270D01*
X169000000Y-62827203D01*
X169000000Y-72777551D01*
X168980315Y-72844590D01*
X168927511Y-72890345D01*
X168858353Y-72900289D01*
X168854103Y-72899561D01*
X168853469Y-72899499D01*
X168853466Y-72899499D01*
X168646535Y-72899499D01*
X168646533Y-72899499D01*
X168443585Y-72939868D01*
X168443576Y-72939871D01*
X168443116Y-72940062D01*
X168442628Y-72940159D01*
X168437753Y-72941638D01*
X168437607Y-72941157D01*
X168395666Y-72949500D01*
X165471530Y-72949500D01*
X165268587Y-72989868D01*
X165268579Y-72989870D01*
X165077402Y-73069058D01*
X165048864Y-73088126D01*
X165048830Y-73088149D01*
X165045832Y-73090153D01*
X164907109Y-73175719D01*
X164867539Y-73215288D01*
X164858698Y-73221489D01*
X164835419Y-73229358D01*
X164813858Y-73241132D01*
X164802908Y-73240348D01*
X164792508Y-73243865D01*
X164768672Y-73237900D01*
X164744166Y-73236148D01*
X164733005Y-73228975D01*
X164724728Y-73226904D01*
X164717018Y-73218700D01*
X164699819Y-73207647D01*
X164667891Y-73175719D01*
X164667887Y-73175716D01*
X164524795Y-73087455D01*
X164524789Y-73087452D01*
X164524787Y-73087451D01*
X164365185Y-73034564D01*
X164365183Y-73034563D01*
X164266681Y-73024500D01*
X164266674Y-73024500D01*
X163733326Y-73024500D01*
X163733318Y-73024500D01*
X163634816Y-73034563D01*
X163634815Y-73034564D01*
X163567060Y-73057016D01*
X163475215Y-73087450D01*
X163475204Y-73087455D01*
X163332112Y-73175716D01*
X163332108Y-73175719D01*
X163213220Y-73294607D01*
X163213219Y-73294609D01*
X163184851Y-73340598D01*
X163177266Y-73347421D01*
X163173028Y-73356703D01*
X163151728Y-73370391D01*
X163132906Y-73387321D01*
X163121270Y-73389965D01*
X163114250Y-73394477D01*
X163079315Y-73399500D01*
X162940004Y-73399500D01*
X162872965Y-73379815D01*
X162834465Y-73340596D01*
X162822968Y-73321956D01*
X162813339Y-73312327D01*
X162779854Y-73251004D01*
X162784838Y-73181312D01*
X162813345Y-73136959D01*
X162822573Y-73127731D01*
X162911542Y-72983492D01*
X162911547Y-72983481D01*
X162964855Y-72822606D01*
X162974999Y-72723322D01*
X162975000Y-72723309D01*
X162975000Y-72700000D01*
X161025001Y-72700000D01*
X161025001Y-72723322D01*
X161035144Y-72822607D01*
X161088452Y-72983481D01*
X161088457Y-72983492D01*
X161177424Y-73127728D01*
X161177427Y-73127732D01*
X161186660Y-73136965D01*
X161187012Y-73137611D01*
X161187656Y-73137972D01*
X161203738Y-73168241D01*
X161220145Y-73198288D01*
X161220092Y-73199022D01*
X161220438Y-73199673D01*
X161217606Y-73233780D01*
X161215161Y-73267980D01*
X161214698Y-73268815D01*
X161214658Y-73269304D01*
X161213120Y-73271667D01*
X161197391Y-73300085D01*
X161192425Y-73306562D01*
X161177032Y-73321956D01*
X161162231Y-73345951D01*
X161158408Y-73350939D01*
X161135076Y-73367992D01*
X161113588Y-73387321D01*
X161106396Y-73388955D01*
X161102000Y-73392169D01*
X161088755Y-73392964D01*
X161059996Y-73399500D01*
X160920685Y-73399500D01*
X160853646Y-73379815D01*
X160815148Y-73340599D01*
X160786781Y-73294609D01*
X160667891Y-73175719D01*
X160667887Y-73175716D01*
X160524795Y-73087455D01*
X160524789Y-73087452D01*
X160524787Y-73087451D01*
X160365185Y-73034564D01*
X160365183Y-73034563D01*
X160266681Y-73024500D01*
X160266674Y-73024500D01*
X159733326Y-73024500D01*
X159733318Y-73024500D01*
X159634816Y-73034563D01*
X159634815Y-73034564D01*
X159567060Y-73057016D01*
X159475215Y-73087450D01*
X159475204Y-73087455D01*
X159332112Y-73175716D01*
X159332108Y-73175719D01*
X159300181Y-73207647D01*
X159238858Y-73241132D01*
X159169166Y-73236148D01*
X159124819Y-73207647D01*
X159092891Y-73175719D01*
X159092887Y-73175716D01*
X158949795Y-73087455D01*
X158949789Y-73087452D01*
X158949787Y-73087451D01*
X158790185Y-73034564D01*
X158790183Y-73034563D01*
X158691681Y-73024500D01*
X158691674Y-73024500D01*
X158158326Y-73024500D01*
X158158318Y-73024500D01*
X158059816Y-73034563D01*
X158059815Y-73034564D01*
X157992060Y-73057016D01*
X157900215Y-73087450D01*
X157900204Y-73087455D01*
X157757112Y-73175716D01*
X157757108Y-73175719D01*
X157638220Y-73294607D01*
X157638219Y-73294609D01*
X157609851Y-73340598D01*
X157602266Y-73347421D01*
X157598028Y-73356703D01*
X157576728Y-73370391D01*
X157557906Y-73387321D01*
X157546270Y-73389965D01*
X157539250Y-73394477D01*
X157504315Y-73399500D01*
X157440004Y-73399500D01*
X157372965Y-73379815D01*
X157334465Y-73340596D01*
X157322968Y-73321956D01*
X157313339Y-73312327D01*
X157279854Y-73251004D01*
X157284838Y-73181312D01*
X157313345Y-73136959D01*
X157322573Y-73127731D01*
X157411542Y-72983492D01*
X157411547Y-72983481D01*
X157464855Y-72822606D01*
X157474999Y-72723322D01*
X157475000Y-72723309D01*
X157475000Y-72700000D01*
X156624000Y-72700000D01*
X156556961Y-72680315D01*
X156511206Y-72627511D01*
X156500000Y-72576000D01*
X156500000Y-72450000D01*
X156374000Y-72450000D01*
X156306961Y-72430315D01*
X156261206Y-72377511D01*
X156250000Y-72326000D01*
X156250000Y-72200000D01*
X156750000Y-72200000D01*
X157474999Y-72200000D01*
X157474999Y-72176692D01*
X157474998Y-72176677D01*
X157464855Y-72077392D01*
X157411547Y-71916518D01*
X157411542Y-71916507D01*
X157322575Y-71772271D01*
X157322572Y-71772267D01*
X157202732Y-71652427D01*
X157202728Y-71652424D01*
X157058492Y-71563457D01*
X157058481Y-71563452D01*
X156897606Y-71510144D01*
X156798322Y-71500000D01*
X156750000Y-71500000D01*
X156750000Y-72200000D01*
X156250000Y-72200000D01*
X156250000Y-71500000D01*
X156249999Y-71499999D01*
X156201693Y-71500000D01*
X156201675Y-71500001D01*
X156102392Y-71510144D01*
X155941518Y-71563452D01*
X155941507Y-71563457D01*
X155797271Y-71652424D01*
X155797267Y-71652427D01*
X155677427Y-71772267D01*
X155677424Y-71772271D01*
X155588457Y-71916507D01*
X155588450Y-71916522D01*
X155571368Y-71968072D01*
X155570014Y-71970026D01*
X155569845Y-71972400D01*
X155550226Y-71998606D01*
X155531595Y-72025516D01*
X155529398Y-72026429D01*
X155527973Y-72028333D01*
X155497302Y-72039772D01*
X155467078Y-72052338D01*
X155464737Y-72051918D01*
X155462509Y-72052750D01*
X155430523Y-72045792D01*
X155398303Y-72040022D01*
X155395837Y-72038246D01*
X155394236Y-72037898D01*
X155365982Y-72016747D01*
X155207819Y-71858584D01*
X155174334Y-71797261D01*
X155171500Y-71770903D01*
X155171500Y-70820097D01*
X155191185Y-70753058D01*
X155243989Y-70707303D01*
X155313147Y-70697359D01*
X155376703Y-70726384D01*
X155383181Y-70732416D01*
X155515139Y-70864374D01*
X155515149Y-70864385D01*
X155519479Y-70868715D01*
X155519480Y-70868716D01*
X155631284Y-70980520D01*
X155707462Y-71024501D01*
X155768215Y-71059577D01*
X155920943Y-71100500D01*
X159069575Y-71100500D01*
X159136614Y-71120185D01*
X159175113Y-71159402D01*
X159202031Y-71203043D01*
X159321955Y-71322967D01*
X159321959Y-71322970D01*
X159466294Y-71411998D01*
X159466297Y-71411999D01*
X159466303Y-71412003D01*
X159627292Y-71465349D01*
X159726655Y-71475500D01*
X160273344Y-71475499D01*
X160273352Y-71475498D01*
X160273355Y-71475498D01*
X160358180Y-71466833D01*
X160372708Y-71465349D01*
X160533697Y-71412003D01*
X160678044Y-71322968D01*
X160687668Y-71313343D01*
X160748987Y-71279856D01*
X160818679Y-71284835D01*
X160863034Y-71313339D01*
X160872267Y-71322572D01*
X160872271Y-71322575D01*
X161016507Y-71411542D01*
X161016518Y-71411547D01*
X161177393Y-71464855D01*
X161196744Y-71466833D01*
X161261436Y-71493229D01*
X161301587Y-71550410D01*
X161304450Y-71620221D01*
X161271823Y-71677872D01*
X161177424Y-71772271D01*
X161088457Y-71916507D01*
X161088452Y-71916518D01*
X161035144Y-72077393D01*
X161025000Y-72176677D01*
X161025000Y-72200000D01*
X162974999Y-72200000D01*
X162974999Y-72176692D01*
X162974998Y-72176677D01*
X162964855Y-72077392D01*
X162911547Y-71916518D01*
X162911542Y-71916507D01*
X162822575Y-71772271D01*
X162822572Y-71772267D01*
X162702732Y-71652427D01*
X162702728Y-71652424D01*
X162558492Y-71563457D01*
X162558481Y-71563452D01*
X162397606Y-71510144D01*
X162332889Y-71503532D01*
X162268197Y-71477136D01*
X162228046Y-71419955D01*
X162225183Y-71350144D01*
X162257811Y-71292492D01*
X162347576Y-71202727D01*
X162436542Y-71058492D01*
X162436547Y-71058481D01*
X162489855Y-70897606D01*
X162499999Y-70798322D01*
X162500000Y-70798309D01*
X162500000Y-70750000D01*
X161674000Y-70750000D01*
X161606961Y-70730315D01*
X161561206Y-70677511D01*
X161550000Y-70626000D01*
X161550000Y-70500000D01*
X161424000Y-70500000D01*
X161356961Y-70480315D01*
X161311206Y-70427511D01*
X161300000Y-70376000D01*
X161300000Y-69605000D01*
X161286319Y-69591319D01*
X161252834Y-69529996D01*
X161250000Y-69503638D01*
X161250000Y-69395000D01*
X161750000Y-69395000D01*
X161763681Y-69408681D01*
X161797166Y-69470004D01*
X161800000Y-69496362D01*
X161800000Y-70250000D01*
X162499999Y-70250000D01*
X162499999Y-70201692D01*
X162499998Y-70201677D01*
X162489855Y-70102392D01*
X162436547Y-69941518D01*
X162436542Y-69941507D01*
X162347575Y-69797271D01*
X162347572Y-69797267D01*
X162227732Y-69677427D01*
X162227728Y-69677424D01*
X162086183Y-69590117D01*
X162039458Y-69538169D01*
X162028237Y-69469206D01*
X162056080Y-69405124D01*
X162086184Y-69379040D01*
X162177730Y-69322573D01*
X162177732Y-69322572D01*
X162297572Y-69202732D01*
X162297575Y-69202728D01*
X162386542Y-69058492D01*
X162386547Y-69058481D01*
X162439855Y-68897606D01*
X162449999Y-68798322D01*
X162450000Y-68798309D01*
X162450000Y-68750000D01*
X161750000Y-68750000D01*
X161750000Y-69395000D01*
X161250000Y-69395000D01*
X161250000Y-67605000D01*
X161750000Y-67605000D01*
X161750000Y-68250000D01*
X162449999Y-68250000D01*
X162449999Y-68201692D01*
X162449998Y-68201677D01*
X162439855Y-68102392D01*
X162386547Y-67941518D01*
X162386542Y-67941507D01*
X162297575Y-67797271D01*
X162297572Y-67797267D01*
X162177732Y-67677427D01*
X162177728Y-67677424D01*
X162086183Y-67620958D01*
X162039458Y-67569010D01*
X162028237Y-67500048D01*
X162056080Y-67435966D01*
X162086183Y-67409881D01*
X162227733Y-67322571D01*
X162347572Y-67202732D01*
X162347575Y-67202728D01*
X162436542Y-67058492D01*
X162436547Y-67058481D01*
X162489855Y-66897606D01*
X162499999Y-66798322D01*
X162500000Y-66798309D01*
X162500000Y-66750000D01*
X161800000Y-66750000D01*
X161800000Y-67503638D01*
X161780315Y-67570677D01*
X161763681Y-67591319D01*
X161750000Y-67605000D01*
X161250000Y-67605000D01*
X161250000Y-67496362D01*
X161269685Y-67429323D01*
X161286319Y-67408681D01*
X161300000Y-67395000D01*
X161300000Y-66624000D01*
X161319685Y-66556961D01*
X161372489Y-66511206D01*
X161424000Y-66500000D01*
X161550000Y-66500000D01*
X161550000Y-66374000D01*
X161569685Y-66306961D01*
X161622489Y-66261206D01*
X161674000Y-66250000D01*
X162499999Y-66250000D01*
X162499999Y-66201692D01*
X162499998Y-66201677D01*
X162489855Y-66102392D01*
X162436547Y-65941518D01*
X162436542Y-65941507D01*
X162347575Y-65797271D01*
X162347572Y-65797267D01*
X162227732Y-65677427D01*
X162227728Y-65677424D01*
X162083492Y-65588457D01*
X162083481Y-65588452D01*
X162031927Y-65571369D01*
X161974482Y-65531596D01*
X161947659Y-65467080D01*
X161959974Y-65398304D01*
X161983244Y-65365989D01*
X162165836Y-65183397D01*
X162227155Y-65149915D01*
X162296847Y-65154899D01*
X162352780Y-65196771D01*
X162359051Y-65205984D01*
X162382285Y-65243652D01*
X162382288Y-65243656D01*
X162506344Y-65367712D01*
X162655666Y-65459814D01*
X162822203Y-65514999D01*
X162924991Y-65525500D01*
X163925008Y-65525499D01*
X163925016Y-65525498D01*
X163925019Y-65525498D01*
X163983940Y-65519479D01*
X164027797Y-65514999D01*
X164194334Y-65459814D01*
X164343656Y-65367712D01*
X164437675Y-65273692D01*
X164498994Y-65240210D01*
X164568686Y-65245194D01*
X164613034Y-65273695D01*
X164706654Y-65367315D01*
X164855875Y-65459356D01*
X164855880Y-65459358D01*
X165022302Y-65514505D01*
X165022309Y-65514506D01*
X165125019Y-65524999D01*
X165374999Y-65524999D01*
X165875000Y-65524999D01*
X166124972Y-65524999D01*
X166124986Y-65524998D01*
X166227697Y-65514505D01*
X166394119Y-65459358D01*
X166394124Y-65459356D01*
X166543345Y-65367315D01*
X166667315Y-65243345D01*
X166759356Y-65094124D01*
X166759358Y-65094119D01*
X166814505Y-64927697D01*
X166814506Y-64927690D01*
X166824999Y-64824986D01*
X166825000Y-64824973D01*
X166825000Y-64675000D01*
X165875000Y-64675000D01*
X165875000Y-65524999D01*
X165374999Y-65524999D01*
X165375000Y-65524998D01*
X165375000Y-64549000D01*
X165394685Y-64481961D01*
X165447489Y-64436206D01*
X165499000Y-64425000D01*
X165625000Y-64425000D01*
X165625000Y-64299000D01*
X165644685Y-64231961D01*
X165697489Y-64186206D01*
X165749000Y-64175000D01*
X166824999Y-64175000D01*
X166824999Y-64025028D01*
X166824998Y-64025013D01*
X166814505Y-63922302D01*
X166759358Y-63755880D01*
X166759353Y-63755869D01*
X166688237Y-63640573D01*
X166669796Y-63573181D01*
X166688234Y-63510383D01*
X166759814Y-63394334D01*
X166814999Y-63227797D01*
X166825500Y-63125009D01*
X166825499Y-62324992D01*
X166814999Y-62222203D01*
X166759814Y-62055666D01*
X166667712Y-61906344D01*
X166543656Y-61782288D01*
X166450888Y-61725069D01*
X166394336Y-61690187D01*
X166394331Y-61690185D01*
X166350307Y-61675597D01*
X166227797Y-61635001D01*
X166227795Y-61635000D01*
X166125016Y-61624500D01*
X166125009Y-61624500D01*
X165425097Y-61624500D01*
X165358058Y-61604815D01*
X165337416Y-61588181D01*
X163887590Y-60138355D01*
X163887588Y-60138352D01*
X163768717Y-60019481D01*
X163768716Y-60019480D01*
X163681904Y-59969360D01*
X163681904Y-59969359D01*
X163681900Y-59969358D01*
X163631785Y-59940423D01*
X163479057Y-59899499D01*
X163320943Y-59899499D01*
X163313347Y-59899499D01*
X163313331Y-59899500D01*
X162705425Y-59899500D01*
X162638386Y-59879815D01*
X162599887Y-59840598D01*
X162572968Y-59796956D01*
X162453044Y-59677032D01*
X162453040Y-59677029D01*
X162308705Y-59588001D01*
X162308699Y-59587998D01*
X162308697Y-59587997D01*
X162308284Y-59587860D01*
X162147709Y-59534651D01*
X162048346Y-59524500D01*
X161501662Y-59524500D01*
X161501644Y-59524501D01*
X161402292Y-59534650D01*
X161402289Y-59534651D01*
X161241305Y-59587996D01*
X161241294Y-59588001D01*
X161096959Y-59677029D01*
X161096953Y-59677033D01*
X161087324Y-59686663D01*
X161026000Y-59720146D01*
X160956308Y-59715159D01*
X160911965Y-59686660D01*
X160902732Y-59677427D01*
X160902728Y-59677424D01*
X160758492Y-59588457D01*
X160758481Y-59588452D01*
X160597606Y-59535144D01*
X160498322Y-59525000D01*
X160475000Y-59525000D01*
X160475000Y-60376000D01*
X160455315Y-60443039D01*
X160402511Y-60488794D01*
X160351000Y-60500000D01*
X160225000Y-60500000D01*
X160225000Y-60626000D01*
X160205315Y-60693039D01*
X160152511Y-60738794D01*
X160101000Y-60750000D01*
X159275001Y-60750000D01*
X159275001Y-60798322D01*
X159285144Y-60897607D01*
X159338452Y-61058481D01*
X159338457Y-61058492D01*
X159427424Y-61202728D01*
X159427427Y-61202732D01*
X159491514Y-61266819D01*
X159524999Y-61328142D01*
X159520015Y-61397834D01*
X159478143Y-61453767D01*
X159412679Y-61478184D01*
X159403833Y-61478500D01*
X158018918Y-61478500D01*
X157977997Y-61489464D01*
X157977997Y-61489465D01*
X157940729Y-61499451D01*
X157866192Y-61519423D01*
X157866187Y-61519426D01*
X157729268Y-61598475D01*
X157729260Y-61598481D01*
X157382181Y-61945561D01*
X157320858Y-61979046D01*
X157251166Y-61974062D01*
X157195233Y-61932190D01*
X157170816Y-61866726D01*
X157170500Y-61857880D01*
X157170500Y-60840945D01*
X157170499Y-60840941D01*
X157165683Y-60822968D01*
X157154725Y-60782068D01*
X157150500Y-60749976D01*
X157150500Y-60268388D01*
X157148829Y-60250000D01*
X157144438Y-60201677D01*
X159275000Y-60201677D01*
X159275000Y-60250000D01*
X159975000Y-60250000D01*
X159975000Y-59524999D01*
X159951693Y-59525000D01*
X159951674Y-59525001D01*
X159852392Y-59535144D01*
X159691518Y-59588452D01*
X159691507Y-59588457D01*
X159547271Y-59677424D01*
X159547267Y-59677427D01*
X159427427Y-59797267D01*
X159427424Y-59797271D01*
X159338457Y-59941507D01*
X159338452Y-59941518D01*
X159285144Y-60102393D01*
X159275000Y-60201677D01*
X157144438Y-60201677D01*
X157144086Y-60197804D01*
X157093478Y-60035394D01*
X157005472Y-59889815D01*
X157005470Y-59889813D01*
X157005469Y-59889811D01*
X156879882Y-59764224D01*
X156881952Y-59762153D01*
X156849184Y-59716327D01*
X156845724Y-59646543D01*
X156878604Y-59587860D01*
X156961387Y-59505077D01*
X157049591Y-59362077D01*
X157049593Y-59362072D01*
X157102442Y-59202583D01*
X157112499Y-59104150D01*
X157112500Y-59104137D01*
X157112500Y-59050000D01*
X156299000Y-59050000D01*
X156231961Y-59030315D01*
X156186206Y-58977511D01*
X156175000Y-58926000D01*
X156175000Y-58800000D01*
X156049000Y-58800000D01*
X155981961Y-58780315D01*
X155936206Y-58727511D01*
X155925000Y-58676000D01*
X155925000Y-58550000D01*
X156425000Y-58550000D01*
X157112499Y-58550000D01*
X157112499Y-58495864D01*
X157112498Y-58495847D01*
X157102443Y-58397416D01*
X157049593Y-58237927D01*
X157049591Y-58237922D01*
X156961385Y-58094919D01*
X156842580Y-57976114D01*
X156699577Y-57887908D01*
X156699572Y-57887906D01*
X156540083Y-57835057D01*
X156441650Y-57825000D01*
X156425000Y-57825000D01*
X156425000Y-58550000D01*
X155925000Y-58550000D01*
X155925000Y-57824999D01*
X155908356Y-57825000D01*
X155809915Y-57835057D01*
X155650427Y-57887906D01*
X155650422Y-57887908D01*
X155507419Y-57976114D01*
X155475533Y-58008000D01*
X155414209Y-58041485D01*
X155344518Y-58036499D01*
X155300173Y-58008000D01*
X155267892Y-57975719D01*
X155267887Y-57975716D01*
X155124795Y-57887455D01*
X155124789Y-57887452D01*
X155124787Y-57887451D01*
X154965185Y-57834564D01*
X154965183Y-57834563D01*
X154866681Y-57824500D01*
X154866674Y-57824500D01*
X154333326Y-57824500D01*
X154333318Y-57824500D01*
X154234816Y-57834563D01*
X154234815Y-57834564D01*
X154155719Y-57860773D01*
X154075215Y-57887450D01*
X154075204Y-57887455D01*
X153932112Y-57975716D01*
X153932108Y-57975719D01*
X153813219Y-58094608D01*
X153813216Y-58094612D01*
X153724955Y-58237704D01*
X153724950Y-58237715D01*
X153724880Y-58237927D01*
X153672064Y-58397315D01*
X153672064Y-58397316D01*
X153672063Y-58397316D01*
X153662000Y-58495818D01*
X153662000Y-59104181D01*
X153672063Y-59202683D01*
X153724950Y-59362284D01*
X153724955Y-59362295D01*
X153813216Y-59505387D01*
X153813219Y-59505391D01*
X153933404Y-59625576D01*
X153966889Y-59686899D01*
X153961905Y-59756591D01*
X153933404Y-59800938D01*
X153844531Y-59889810D01*
X153844530Y-59889811D01*
X153756522Y-60035393D01*
X153705913Y-60197807D01*
X153699500Y-60268386D01*
X153699500Y-60931613D01*
X153705913Y-61002192D01*
X153705913Y-61002194D01*
X153705914Y-61002196D01*
X153756522Y-61164606D01*
X153844487Y-61310118D01*
X153844530Y-61310188D01*
X153927284Y-61392942D01*
X153960769Y-61454265D01*
X153955785Y-61523957D01*
X153913913Y-61579890D01*
X153904700Y-61586161D01*
X153797271Y-61652424D01*
X153797267Y-61652427D01*
X153677427Y-61772267D01*
X153677424Y-61772271D01*
X153588457Y-61916507D01*
X153588452Y-61916518D01*
X153535144Y-62077393D01*
X153525000Y-62176677D01*
X153525000Y-62200000D01*
X155474999Y-62200000D01*
X155474999Y-62176692D01*
X155474998Y-62176677D01*
X155464855Y-62077392D01*
X155411547Y-61916518D01*
X155411542Y-61916507D01*
X155322575Y-61772271D01*
X155322572Y-61772267D01*
X155202729Y-61652424D01*
X155197950Y-61648645D01*
X155157574Y-61591622D01*
X155154437Y-61521823D01*
X155189535Y-61461408D01*
X155191831Y-61459285D01*
X155200598Y-61451380D01*
X155235185Y-61430472D01*
X155339580Y-61326076D01*
X155341968Y-61323924D01*
X155370687Y-61310118D01*
X155398642Y-61294854D01*
X155401949Y-61295090D01*
X155404940Y-61293653D01*
X155436562Y-61297565D01*
X155468334Y-61299838D01*
X155471531Y-61301892D01*
X155474281Y-61302233D01*
X155481793Y-61308488D01*
X155512681Y-61328339D01*
X155614811Y-61430469D01*
X155614813Y-61430470D01*
X155614815Y-61430472D01*
X155760394Y-61518478D01*
X155882392Y-61556493D01*
X155940538Y-61595230D01*
X155968512Y-61659255D01*
X155969500Y-61674878D01*
X155969500Y-62436004D01*
X155949815Y-62503043D01*
X155933181Y-62523685D01*
X155686681Y-62770185D01*
X155625358Y-62803670D01*
X155555666Y-62798686D01*
X155499733Y-62756814D01*
X155480649Y-62705649D01*
X155475000Y-62700000D01*
X153525001Y-62700000D01*
X153525001Y-62723322D01*
X153535144Y-62822607D01*
X153588452Y-62983481D01*
X153588457Y-62983492D01*
X153677424Y-63127728D01*
X153677427Y-63127732D01*
X153686660Y-63136965D01*
X153720145Y-63198288D01*
X153715161Y-63267980D01*
X153686663Y-63312324D01*
X153677033Y-63321953D01*
X153677029Y-63321959D01*
X153588001Y-63466294D01*
X153587996Y-63466305D01*
X153534651Y-63627290D01*
X153524500Y-63726647D01*
X153524500Y-64087324D01*
X153504815Y-64154363D01*
X153452011Y-64200118D01*
X153382853Y-64210062D01*
X153376309Y-64208941D01*
X153328846Y-64199500D01*
X153328842Y-64199500D01*
X153171158Y-64199500D01*
X153171155Y-64199500D01*
X153016510Y-64230261D01*
X153016498Y-64230264D01*
X152870827Y-64290602D01*
X152870814Y-64290609D01*
X152739711Y-64378210D01*
X152739707Y-64378213D01*
X152628213Y-64489707D01*
X152628210Y-64489711D01*
X152540609Y-64620814D01*
X152540602Y-64620827D01*
X152480264Y-64766498D01*
X152480261Y-64766510D01*
X152449500Y-64921153D01*
X152449500Y-64956881D01*
X152429815Y-65023920D01*
X152377011Y-65069675D01*
X152307853Y-65079619D01*
X152244297Y-65050594D01*
X152218113Y-65018881D01*
X152180522Y-64953771D01*
X152180518Y-64953766D01*
X152015819Y-64789067D01*
X151982334Y-64727744D01*
X151979500Y-64701386D01*
X151979500Y-60974999D01*
X152300000Y-60974999D01*
X152323308Y-60974999D01*
X152323322Y-60974998D01*
X152422607Y-60964855D01*
X152583481Y-60911547D01*
X152583492Y-60911542D01*
X152727728Y-60822575D01*
X152727732Y-60822572D01*
X152847572Y-60702732D01*
X152847575Y-60702728D01*
X152936542Y-60558492D01*
X152936547Y-60558481D01*
X152989855Y-60397606D01*
X152999999Y-60298322D01*
X153000000Y-60298309D01*
X153000000Y-60250000D01*
X152300000Y-60250000D01*
X152300000Y-60974999D01*
X151979500Y-60974999D01*
X151979500Y-59856086D01*
X151979501Y-59856073D01*
X151979501Y-59750000D01*
X152300000Y-59750000D01*
X152999999Y-59750000D01*
X152999999Y-59701692D01*
X152999998Y-59701677D01*
X152989855Y-59602392D01*
X152936547Y-59441518D01*
X152936542Y-59441507D01*
X152847575Y-59297271D01*
X152847572Y-59297267D01*
X152727732Y-59177427D01*
X152727728Y-59177424D01*
X152583492Y-59088457D01*
X152583481Y-59088452D01*
X152422606Y-59035144D01*
X152323322Y-59025000D01*
X152300000Y-59025000D01*
X152300000Y-59750000D01*
X151979501Y-59750000D01*
X151979501Y-59687970D01*
X151979501Y-59687969D01*
X151938577Y-59535242D01*
X151921343Y-59505391D01*
X151859524Y-59398316D01*
X151859518Y-59398308D01*
X151836319Y-59375109D01*
X151802834Y-59313786D01*
X151800000Y-59287428D01*
X151800000Y-59024999D01*
X151776693Y-59025000D01*
X151776674Y-59025001D01*
X151677391Y-59035144D01*
X151614014Y-59056145D01*
X151544186Y-59058546D01*
X151487330Y-59026120D01*
X151284691Y-58823481D01*
X151284690Y-58823480D01*
X151197878Y-58773360D01*
X151197878Y-58773359D01*
X151197874Y-58773358D01*
X151147759Y-58744423D01*
X150995031Y-58703499D01*
X150836917Y-58703499D01*
X150829321Y-58703499D01*
X150829305Y-58703500D01*
X147925057Y-58703500D01*
X147766943Y-58703500D01*
X147614215Y-58744423D01*
X147614214Y-58744423D01*
X147614212Y-58744424D01*
X147614209Y-58744425D01*
X147564096Y-58773359D01*
X147564095Y-58773360D01*
X147552049Y-58780315D01*
X147477285Y-58823479D01*
X147477282Y-58823481D01*
X147398641Y-58902123D01*
X147365480Y-58935284D01*
X147365478Y-58935286D01*
X146933946Y-59366819D01*
X146537584Y-59763181D01*
X146476261Y-59796666D01*
X146449903Y-59799500D01*
X146174500Y-59799500D01*
X146107461Y-59779815D01*
X146061706Y-59727011D01*
X146050500Y-59675500D01*
X146050499Y-58902129D01*
X146050498Y-58902123D01*
X146044091Y-58842516D01*
X145993797Y-58707671D01*
X145993793Y-58707664D01*
X145907547Y-58592455D01*
X145907544Y-58592452D01*
X145792335Y-58506206D01*
X145792328Y-58506202D01*
X145657482Y-58455908D01*
X145657483Y-58455908D01*
X145597883Y-58449501D01*
X145597881Y-58449500D01*
X145597873Y-58449500D01*
X145597865Y-58449500D01*
X145250098Y-58449500D01*
X145183059Y-58429815D01*
X145162417Y-58413181D01*
X144998717Y-58249481D01*
X144998716Y-58249480D01*
X144911904Y-58199360D01*
X144911904Y-58199359D01*
X144911900Y-58199358D01*
X144861785Y-58170423D01*
X144709057Y-58129499D01*
X144550943Y-58129499D01*
X144543347Y-58129499D01*
X144543331Y-58129500D01*
X141790940Y-58129500D01*
X141750019Y-58140464D01*
X141750019Y-58140465D01*
X141712751Y-58150451D01*
X141638214Y-58170423D01*
X141638209Y-58170426D01*
X141501290Y-58249475D01*
X141501282Y-58249481D01*
X141389478Y-58361286D01*
X140162582Y-59588181D01*
X140101259Y-59621666D01*
X140074901Y-59624500D01*
X139726662Y-59624500D01*
X139726644Y-59624501D01*
X139627292Y-59634650D01*
X139627289Y-59634651D01*
X139466305Y-59687996D01*
X139466294Y-59688001D01*
X139321959Y-59777029D01*
X139321955Y-59777032D01*
X139312681Y-59786307D01*
X139251358Y-59819792D01*
X139181666Y-59814808D01*
X139137319Y-59786307D01*
X139128044Y-59777032D01*
X139128040Y-59777029D01*
X138983705Y-59688001D01*
X138983699Y-59687998D01*
X138983697Y-59687997D01*
X138979662Y-59686660D01*
X138822709Y-59634651D01*
X138723346Y-59624500D01*
X138176662Y-59624500D01*
X138176644Y-59624501D01*
X138077292Y-59634650D01*
X138077289Y-59634651D01*
X137916305Y-59687996D01*
X137916294Y-59688001D01*
X137771959Y-59777029D01*
X137771955Y-59777032D01*
X137652032Y-59896955D01*
X137652029Y-59896959D01*
X137563001Y-60041294D01*
X137562996Y-60041305D01*
X137509651Y-60202290D01*
X137499500Y-60301647D01*
X137499500Y-60898337D01*
X137499501Y-60898355D01*
X137509650Y-60997707D01*
X137509651Y-60997710D01*
X137562996Y-61158694D01*
X137563001Y-61158705D01*
X137652029Y-61303040D01*
X137652032Y-61303044D01*
X137771956Y-61422968D01*
X137790596Y-61434465D01*
X137837321Y-61486412D01*
X137849500Y-61540004D01*
X137849500Y-62863330D01*
X137849499Y-62863348D01*
X137849499Y-63029054D01*
X137849498Y-63029054D01*
X137857697Y-63059651D01*
X137890423Y-63181785D01*
X137899951Y-63198288D01*
X137908734Y-63213500D01*
X137925207Y-63281400D01*
X137902354Y-63347427D01*
X137847433Y-63390618D01*
X137801347Y-63399500D01*
X137478861Y-63399500D01*
X137411822Y-63379815D01*
X137374362Y-63339581D01*
X137374112Y-63339769D01*
X137372364Y-63337434D01*
X137370027Y-63334924D01*
X137368797Y-63332673D01*
X137368796Y-63332669D01*
X137368793Y-63332665D01*
X137368792Y-63332663D01*
X137282547Y-63217455D01*
X137282544Y-63217452D01*
X137167335Y-63131206D01*
X137167328Y-63131202D01*
X137032482Y-63080908D01*
X137032483Y-63080908D01*
X136972883Y-63074501D01*
X136972881Y-63074500D01*
X136972873Y-63074500D01*
X136972864Y-63074500D01*
X136027129Y-63074500D01*
X136027123Y-63074501D01*
X135967516Y-63080908D01*
X135832671Y-63131202D01*
X135832664Y-63131206D01*
X135717455Y-63217452D01*
X135717452Y-63217455D01*
X135631206Y-63332664D01*
X135631202Y-63332671D01*
X135580908Y-63467517D01*
X135574501Y-63527116D01*
X135574500Y-63527135D01*
X135574500Y-64472870D01*
X135574501Y-64472876D01*
X135580908Y-64532483D01*
X135616702Y-64628451D01*
X135621686Y-64698143D01*
X135615085Y-64719227D01*
X135610549Y-64730180D01*
X135610545Y-64730190D01*
X135575000Y-64908891D01*
X135575000Y-65091109D01*
X135610545Y-65269805D01*
X135610548Y-65269817D01*
X135680275Y-65438153D01*
X135681808Y-65441022D01*
X135682156Y-65442695D01*
X135682606Y-65443781D01*
X135682400Y-65443866D01*
X135696046Y-65509426D01*
X135681811Y-65557909D01*
X135679834Y-65561607D01*
X135610067Y-65730041D01*
X135610065Y-65730047D01*
X135574500Y-65908843D01*
X135574500Y-65908846D01*
X135574500Y-66091154D01*
X135574500Y-66091156D01*
X135574499Y-66091156D01*
X135610065Y-66269952D01*
X135610067Y-66269958D01*
X135679835Y-66438394D01*
X135681525Y-66441556D01*
X135681908Y-66443399D01*
X135682164Y-66444016D01*
X135682047Y-66444064D01*
X135695761Y-66509960D01*
X135681525Y-66558444D01*
X135679835Y-66561605D01*
X135610067Y-66730041D01*
X135610065Y-66730047D01*
X135574500Y-66908843D01*
X135574500Y-66908846D01*
X135574500Y-67091154D01*
X135574500Y-67091156D01*
X135574499Y-67091156D01*
X135610065Y-67269952D01*
X135610067Y-67269958D01*
X135679835Y-67438394D01*
X135681525Y-67441556D01*
X135681908Y-67443399D01*
X135682164Y-67444016D01*
X135682047Y-67444064D01*
X135695761Y-67509960D01*
X135681525Y-67558444D01*
X135679835Y-67561605D01*
X135610067Y-67730041D01*
X135610065Y-67730047D01*
X135574500Y-67908843D01*
X135574500Y-67908846D01*
X135574500Y-68091154D01*
X135574500Y-68091156D01*
X135574499Y-68091156D01*
X135610065Y-68269952D01*
X135610068Y-68269962D01*
X135679831Y-68438387D01*
X135679833Y-68438391D01*
X135781113Y-68589967D01*
X135781114Y-68589969D01*
X135781116Y-68589971D01*
X135781117Y-68589972D01*
X135863182Y-68672037D01*
X135896666Y-68733358D01*
X135899500Y-68759717D01*
X135899500Y-69557005D01*
X135879815Y-69624044D01*
X135827011Y-69669799D01*
X135757853Y-69679743D01*
X135694297Y-69650718D01*
X135687819Y-69644686D01*
X131681488Y-65638355D01*
X131681486Y-65638352D01*
X131562615Y-65519481D01*
X131562614Y-65519480D01*
X131458541Y-65459394D01*
X131458540Y-65459393D01*
X131425681Y-65440422D01*
X131369779Y-65425443D01*
X131272955Y-65399499D01*
X131114841Y-65399499D01*
X131107245Y-65399499D01*
X131107229Y-65399500D01*
X130529951Y-65399500D01*
X130462912Y-65379815D01*
X130429633Y-65348385D01*
X130327518Y-65207834D01*
X130192169Y-65072485D01*
X130192164Y-65072481D01*
X130037326Y-64959986D01*
X130037325Y-64959985D01*
X130037323Y-64959984D01*
X129866782Y-64873089D01*
X129684747Y-64813942D01*
X129684745Y-64813941D01*
X129684744Y-64813941D01*
X129539523Y-64790940D01*
X129495701Y-64784000D01*
X129442665Y-64784000D01*
X129375626Y-64764315D01*
X129329871Y-64711511D01*
X129319927Y-64642353D01*
X129335278Y-64597999D01*
X129399823Y-64486204D01*
X129399828Y-64486195D01*
X129511437Y-64216744D01*
X129586930Y-63935003D01*
X129624998Y-63645844D01*
X129625000Y-63645827D01*
X129625000Y-63354172D01*
X129624998Y-63354155D01*
X129586930Y-63064996D01*
X129511437Y-62783255D01*
X129399828Y-62513804D01*
X129399820Y-62513788D01*
X129253993Y-62261211D01*
X129253987Y-62261203D01*
X129140390Y-62113161D01*
X129140389Y-62113161D01*
X128372086Y-62881465D01*
X128277171Y-62750825D01*
X128149175Y-62622829D01*
X128018532Y-62527912D01*
X128786837Y-61759608D01*
X128638796Y-61646012D01*
X128638788Y-61646006D01*
X128386211Y-61500179D01*
X128386195Y-61500171D01*
X128116744Y-61388562D01*
X127835003Y-61313069D01*
X127545844Y-61275001D01*
X127545827Y-61275000D01*
X127254173Y-61275000D01*
X127254155Y-61275001D01*
X126964996Y-61313069D01*
X126683255Y-61388562D01*
X126413804Y-61500171D01*
X126413788Y-61500179D01*
X126161211Y-61646006D01*
X126161195Y-61646017D01*
X126013161Y-61759606D01*
X126013161Y-61759608D01*
X126781466Y-62527913D01*
X126650825Y-62622829D01*
X126522829Y-62750825D01*
X126427913Y-62881466D01*
X125659608Y-62113161D01*
X125659606Y-62113161D01*
X125546017Y-62261195D01*
X125546006Y-62261211D01*
X125400179Y-62513788D01*
X125400171Y-62513804D01*
X125288561Y-62783258D01*
X125288559Y-62783263D01*
X125264768Y-62872051D01*
X125228403Y-62931711D01*
X125165556Y-62962239D01*
X125096180Y-62953944D01*
X125042303Y-62909458D01*
X125021029Y-62842906D01*
X125020995Y-62839620D01*
X125030059Y-59893855D01*
X125030059Y-59893713D01*
X132649500Y-59893713D01*
X132649500Y-60106287D01*
X132654579Y-60138352D01*
X132679920Y-60298355D01*
X132682754Y-60316243D01*
X132738819Y-60488794D01*
X132748444Y-60518414D01*
X132844951Y-60707820D01*
X132969890Y-60879786D01*
X133120213Y-61030109D01*
X133292179Y-61155048D01*
X133292181Y-61155049D01*
X133292184Y-61155051D01*
X133481588Y-61251557D01*
X133683757Y-61317246D01*
X133893713Y-61350500D01*
X133893714Y-61350500D01*
X134106286Y-61350500D01*
X134106287Y-61350500D01*
X134316243Y-61317246D01*
X134518412Y-61251557D01*
X134707816Y-61155051D01*
X134773200Y-61107547D01*
X134879786Y-61030109D01*
X134879788Y-61030106D01*
X134879792Y-61030104D01*
X135030104Y-60879792D01*
X135030106Y-60879788D01*
X135030109Y-60879786D01*
X135155048Y-60707820D01*
X135155047Y-60707820D01*
X135155051Y-60707816D01*
X135251557Y-60518412D01*
X135317246Y-60316243D01*
X135350500Y-60106287D01*
X135350500Y-59893713D01*
X135317246Y-59683757D01*
X135251557Y-59481588D01*
X135155051Y-59292184D01*
X135155049Y-59292181D01*
X135155048Y-59292179D01*
X135030109Y-59120213D01*
X134879786Y-58969890D01*
X134707820Y-58844951D01*
X134518414Y-58748444D01*
X134518413Y-58748443D01*
X134518412Y-58748443D01*
X134316243Y-58682754D01*
X134316241Y-58682753D01*
X134316240Y-58682753D01*
X134154957Y-58657208D01*
X134106287Y-58649500D01*
X133893713Y-58649500D01*
X133845042Y-58657208D01*
X133683760Y-58682753D01*
X133481585Y-58748444D01*
X133292179Y-58844951D01*
X133120213Y-58969890D01*
X132969890Y-59120213D01*
X132844951Y-59292179D01*
X132748444Y-59481585D01*
X132682753Y-59683760D01*
X132652624Y-59873988D01*
X132649500Y-59893713D01*
X125030059Y-59893713D01*
X125030076Y-59888459D01*
X125038582Y-57124118D01*
X125058472Y-57057140D01*
X125111417Y-57011548D01*
X125162581Y-57000500D01*
X168375500Y-57000500D01*
X168442539Y-57020185D01*
G37*
%TD.AperFunction*%
%TA.AperFunction,Conductor*%
G36*
X144591942Y-68120185D02*
G01*
X144612584Y-68136819D01*
X144841747Y-68365982D01*
X144875232Y-68427305D01*
X144870248Y-68496997D01*
X144828376Y-68552930D01*
X144793072Y-68571368D01*
X144741522Y-68588450D01*
X144741507Y-68588457D01*
X144597271Y-68677424D01*
X144597267Y-68677427D01*
X144477427Y-68797267D01*
X144477424Y-68797271D01*
X144388457Y-68941507D01*
X144388452Y-68941518D01*
X144335144Y-69102393D01*
X144325000Y-69201677D01*
X144325000Y-69250000D01*
X145151000Y-69250000D01*
X145218039Y-69269685D01*
X145263794Y-69322489D01*
X145275000Y-69374000D01*
X145275000Y-69500000D01*
X145401000Y-69500000D01*
X145468039Y-69519685D01*
X145513794Y-69572489D01*
X145525000Y-69624000D01*
X145525000Y-71376000D01*
X145505315Y-71443039D01*
X145452511Y-71488794D01*
X145401000Y-71500000D01*
X145275000Y-71500000D01*
X145275000Y-71626000D01*
X145255315Y-71693039D01*
X145202511Y-71738794D01*
X145151000Y-71750000D01*
X144325001Y-71750000D01*
X144325001Y-71798322D01*
X144335144Y-71897607D01*
X144388452Y-72058481D01*
X144388457Y-72058492D01*
X144477424Y-72202728D01*
X144477427Y-72202732D01*
X144597267Y-72322572D01*
X144597271Y-72322575D01*
X144741507Y-72411542D01*
X144741520Y-72411548D01*
X144793068Y-72428629D01*
X144850513Y-72468401D01*
X144877337Y-72532916D01*
X144865022Y-72601692D01*
X144841746Y-72634016D01*
X144418746Y-73057016D01*
X144357423Y-73090501D01*
X144287731Y-73085517D01*
X144243384Y-73057016D01*
X144143657Y-72957289D01*
X144143656Y-72957288D01*
X144049965Y-72899499D01*
X143994336Y-72865187D01*
X143994331Y-72865185D01*
X143992862Y-72864698D01*
X143827797Y-72810001D01*
X143827795Y-72810000D01*
X143725016Y-72799500D01*
X143725009Y-72799500D01*
X143403500Y-72799500D01*
X143336461Y-72779815D01*
X143290706Y-72727011D01*
X143279500Y-72675500D01*
X143279500Y-71201677D01*
X144325000Y-71201677D01*
X144325000Y-71250000D01*
X145025000Y-71250000D01*
X145025000Y-69750000D01*
X144325001Y-69750000D01*
X144325001Y-69798322D01*
X144335144Y-69897607D01*
X144388452Y-70058481D01*
X144388457Y-70058492D01*
X144477424Y-70202728D01*
X144477427Y-70202732D01*
X144597267Y-70322572D01*
X144597271Y-70322575D01*
X144713816Y-70394462D01*
X144760541Y-70446410D01*
X144771762Y-70515373D01*
X144743919Y-70579455D01*
X144713816Y-70605538D01*
X144597271Y-70677424D01*
X144597267Y-70677427D01*
X144477427Y-70797267D01*
X144477424Y-70797271D01*
X144388457Y-70941507D01*
X144388452Y-70941518D01*
X144335144Y-71102393D01*
X144325000Y-71201677D01*
X143279500Y-71201677D01*
X143279500Y-68224500D01*
X143299185Y-68157461D01*
X143351989Y-68111706D01*
X143403500Y-68100500D01*
X144524903Y-68100500D01*
X144591942Y-68120185D01*
G37*
%TD.AperFunction*%
%TA.AperFunction,Conductor*%
G36*
X128556136Y-71382068D02*
G01*
X128582458Y-71402142D01*
X128607830Y-71427514D01*
X128607835Y-71427518D01*
X128698280Y-71493229D01*
X128762677Y-71540016D01*
X128933218Y-71626911D01*
X128949901Y-71632331D01*
X129007575Y-71671766D01*
X129034775Y-71736124D01*
X129022863Y-71804970D01*
X128975620Y-71856448D01*
X128949906Y-71868192D01*
X128933406Y-71873553D01*
X128762936Y-71960412D01*
X128734573Y-71981019D01*
X128734572Y-71981019D01*
X129303250Y-72549697D01*
X129222447Y-72571349D01*
X129117554Y-72631909D01*
X129031909Y-72717554D01*
X128971349Y-72822447D01*
X128949697Y-72903250D01*
X128340597Y-72294150D01*
X128344034Y-72290712D01*
X128319490Y-72266378D01*
X128304346Y-72198169D01*
X128313504Y-72159036D01*
X128362051Y-72041835D01*
X128386978Y-71916522D01*
X128400500Y-71848543D01*
X128400500Y-71651456D01*
X128373160Y-71514015D01*
X128379387Y-71444424D01*
X128422249Y-71389246D01*
X128488139Y-71366001D01*
X128556136Y-71382068D01*
G37*
%TD.AperFunction*%
%TA.AperFunction,Conductor*%
G36*
X150917298Y-67894788D02*
G01*
X150922039Y-67894280D01*
X150938228Y-67899033D01*
X150942688Y-67899938D01*
X150952459Y-67903426D01*
X150953571Y-67904279D01*
X151090528Y-67961009D01*
X151200599Y-67975500D01*
X151399400Y-67975499D01*
X151483820Y-67964385D01*
X151516177Y-67964385D01*
X151600599Y-67975500D01*
X151799400Y-67975499D01*
X151883820Y-67964385D01*
X151916177Y-67964385D01*
X152000599Y-67975500D01*
X152199400Y-67975499D01*
X152283820Y-67964385D01*
X152316177Y-67964385D01*
X152400599Y-67975500D01*
X152599400Y-67975499D01*
X152683823Y-67964384D01*
X152707514Y-67963552D01*
X152711849Y-67963815D01*
X152800599Y-67975500D01*
X152904269Y-67975499D01*
X152908016Y-67975727D01*
X152937482Y-67986357D01*
X152967538Y-67995183D01*
X152970083Y-67998119D01*
X152973739Y-67999439D01*
X152992777Y-68024310D01*
X153013294Y-68047986D01*
X153014243Y-68052351D01*
X153016209Y-68054919D01*
X153017065Y-68065324D01*
X153024500Y-68099498D01*
X153024500Y-68199401D01*
X153035613Y-68283814D01*
X153035613Y-68316183D01*
X153024500Y-68400597D01*
X153024500Y-68599401D01*
X153035613Y-68683814D01*
X153035613Y-68716183D01*
X153024500Y-68800597D01*
X153024500Y-68999401D01*
X153035613Y-69083814D01*
X153035613Y-69116183D01*
X153024500Y-69200597D01*
X153024500Y-69399401D01*
X153034143Y-69472648D01*
X153038991Y-69509472D01*
X153095721Y-69646429D01*
X153096573Y-69647540D01*
X153100062Y-69657312D01*
X153101540Y-69683097D01*
X153105720Y-69722039D01*
X153098264Y-69747432D01*
X153097850Y-69748432D01*
X153078301Y-69772698D01*
X153069714Y-69787911D01*
X153063335Y-69791277D01*
X153054019Y-69802843D01*
X153045241Y-69805766D01*
X153028373Y-69824999D01*
X153035865Y-69881899D01*
X153035865Y-69914270D01*
X153024500Y-70000597D01*
X153024500Y-70199401D01*
X153035613Y-70283814D01*
X153035613Y-70316183D01*
X153024500Y-70400597D01*
X153024500Y-70599401D01*
X153035613Y-70683814D01*
X153036446Y-70707513D01*
X153036181Y-70711866D01*
X153024500Y-70800599D01*
X153024500Y-70904251D01*
X153024272Y-70908015D01*
X153013639Y-70937487D01*
X153004815Y-70967539D01*
X153001879Y-70970082D01*
X153000561Y-70973738D01*
X152975677Y-70992786D01*
X152952011Y-71013294D01*
X152947649Y-71014242D01*
X152945081Y-71016209D01*
X152934671Y-71017066D01*
X152900501Y-71024500D01*
X152800598Y-71024500D01*
X152716185Y-71035613D01*
X152683816Y-71035613D01*
X152599402Y-71024500D01*
X152400597Y-71024500D01*
X152316185Y-71035613D01*
X152283816Y-71035613D01*
X152199402Y-71024500D01*
X152000597Y-71024500D01*
X151916185Y-71035613D01*
X151883816Y-71035613D01*
X151799402Y-71024500D01*
X151600597Y-71024500D01*
X151516185Y-71035613D01*
X151483816Y-71035613D01*
X151399402Y-71024500D01*
X151200597Y-71024500D01*
X151116185Y-71035613D01*
X151083816Y-71035613D01*
X150999402Y-71024500D01*
X150800597Y-71024500D01*
X150716185Y-71035613D01*
X150683816Y-71035613D01*
X150599402Y-71024500D01*
X150400597Y-71024500D01*
X150316185Y-71035613D01*
X150292486Y-71036446D01*
X150288133Y-71036181D01*
X150199401Y-71024500D01*
X150095747Y-71024500D01*
X150091984Y-71024272D01*
X150062511Y-71013639D01*
X150032460Y-71004815D01*
X150029916Y-71001879D01*
X150026261Y-71000561D01*
X150007212Y-70975677D01*
X149986705Y-70952011D01*
X149985756Y-70947649D01*
X149983790Y-70945081D01*
X149982932Y-70934671D01*
X149975499Y-70900502D01*
X149975499Y-70800600D01*
X149975199Y-70798322D01*
X149964386Y-70716184D01*
X149964386Y-70683812D01*
X149975500Y-70599401D01*
X149975499Y-70400600D01*
X149973111Y-70382462D01*
X149964386Y-70316184D01*
X149964386Y-70283812D01*
X149964907Y-70279856D01*
X149975500Y-70199401D01*
X149975499Y-70000600D01*
X149969869Y-69957838D01*
X149964386Y-69916185D01*
X149964386Y-69883813D01*
X149964638Y-69881899D01*
X149975500Y-69799401D01*
X149975499Y-69600600D01*
X149974745Y-69594874D01*
X149964386Y-69516184D01*
X149964386Y-69483812D01*
X149966817Y-69465349D01*
X149975500Y-69399401D01*
X149975499Y-69200600D01*
X149964386Y-69116184D01*
X149964386Y-69083812D01*
X149972856Y-69019480D01*
X149975500Y-68999401D01*
X149975499Y-68800600D01*
X149975199Y-68798322D01*
X149964386Y-68716184D01*
X149964386Y-68683812D01*
X149965612Y-68674499D01*
X149975500Y-68599401D01*
X149975499Y-68400600D01*
X149970942Y-68365982D01*
X149964386Y-68316184D01*
X149963553Y-68292484D01*
X149963816Y-68288136D01*
X149975500Y-68199401D01*
X149975499Y-68095731D01*
X149975727Y-68091984D01*
X149986358Y-68062515D01*
X149995183Y-68032461D01*
X149998119Y-68029916D01*
X149999438Y-68026261D01*
X150024312Y-68007219D01*
X150047986Y-67986705D01*
X150052350Y-67985755D01*
X150054918Y-67983790D01*
X150065325Y-67982932D01*
X150099496Y-67975499D01*
X150199400Y-67975499D01*
X150283820Y-67964385D01*
X150316177Y-67964385D01*
X150400599Y-67975500D01*
X150599400Y-67975499D01*
X150709472Y-67961009D01*
X150846429Y-67904279D01*
X150847542Y-67903424D01*
X150857313Y-67899937D01*
X150883102Y-67898458D01*
X150885281Y-67898224D01*
X150908098Y-67892923D01*
X150917298Y-67894788D01*
G37*
%TD.AperFunction*%
%TA.AperFunction,Conductor*%
G36*
X163166942Y-61120185D02*
G01*
X163187584Y-61136819D01*
X163638681Y-61587916D01*
X163672166Y-61649239D01*
X163675000Y-61675597D01*
X163675000Y-62601000D01*
X163655315Y-62668039D01*
X163602511Y-62713794D01*
X163551000Y-62725000D01*
X163425000Y-62725000D01*
X163425000Y-62851000D01*
X163405315Y-62918039D01*
X163352511Y-62963794D01*
X163301000Y-62975000D01*
X162225001Y-62975000D01*
X162225001Y-63124986D01*
X162235494Y-63227697D01*
X162290641Y-63394119D01*
X162290643Y-63394124D01*
X162361763Y-63509426D01*
X162365820Y-63524255D01*
X162374411Y-63537002D01*
X162374853Y-63557265D01*
X162380203Y-63576818D01*
X162375622Y-63592514D01*
X162375935Y-63606855D01*
X162362106Y-63638824D01*
X162361976Y-63639272D01*
X162361710Y-63639706D01*
X162290186Y-63755666D01*
X162289566Y-63757536D01*
X162284844Y-63765249D01*
X162263943Y-63784172D01*
X162245313Y-63805337D01*
X162238340Y-63807354D01*
X162233051Y-63812144D01*
X162206616Y-63816534D01*
X162179092Y-63824500D01*
X162154057Y-63824500D01*
X161995943Y-63824500D01*
X161843215Y-63865423D01*
X161843214Y-63865423D01*
X161843212Y-63865424D01*
X161843209Y-63865425D01*
X161793096Y-63894359D01*
X161793095Y-63894360D01*
X161752203Y-63917969D01*
X161706285Y-63944479D01*
X161706282Y-63944481D01*
X161594478Y-64056286D01*
X160162582Y-65488181D01*
X160101259Y-65521666D01*
X160074901Y-65524500D01*
X159726662Y-65524500D01*
X159726644Y-65524501D01*
X159627292Y-65534650D01*
X159627289Y-65534651D01*
X159466305Y-65587996D01*
X159466294Y-65588001D01*
X159321959Y-65677029D01*
X159321955Y-65677032D01*
X159202032Y-65796955D01*
X159202029Y-65796959D01*
X159113001Y-65941294D01*
X159112996Y-65941305D01*
X159059651Y-66102290D01*
X159049500Y-66201647D01*
X159049500Y-66549902D01*
X159029815Y-66616941D01*
X159013181Y-66637583D01*
X157787584Y-67863181D01*
X157726261Y-67896666D01*
X157699903Y-67899500D01*
X155730119Y-67899500D01*
X155663080Y-67879815D01*
X155617325Y-67827011D01*
X155607381Y-67757853D01*
X155636406Y-67694297D01*
X155642438Y-67687819D01*
X156271776Y-67058481D01*
X158187506Y-65142749D01*
X158187511Y-65142746D01*
X158197714Y-65132542D01*
X158197716Y-65132542D01*
X158309520Y-65020738D01*
X158367136Y-64920943D01*
X158388577Y-64883807D01*
X158429500Y-64731080D01*
X158429500Y-64572965D01*
X158429500Y-62803500D01*
X158449185Y-62736461D01*
X158501989Y-62690706D01*
X158553500Y-62679500D01*
X160109331Y-62679500D01*
X160109347Y-62679501D01*
X160116943Y-62679501D01*
X160275054Y-62679501D01*
X160275057Y-62679501D01*
X160427785Y-62638577D01*
X160494602Y-62600000D01*
X160564716Y-62559520D01*
X160676520Y-62447716D01*
X160676520Y-62447714D01*
X160686724Y-62437511D01*
X160686728Y-62437506D01*
X160799221Y-62325013D01*
X162225000Y-62325013D01*
X162225000Y-62475000D01*
X163175000Y-62475000D01*
X163175000Y-61625000D01*
X162925029Y-61625000D01*
X162925012Y-61625001D01*
X162822302Y-61635494D01*
X162655880Y-61690641D01*
X162655875Y-61690643D01*
X162506654Y-61782684D01*
X162382684Y-61906654D01*
X162290643Y-62055875D01*
X162290641Y-62055880D01*
X162235494Y-62222302D01*
X162235493Y-62222309D01*
X162225000Y-62325013D01*
X160799221Y-62325013D01*
X161612416Y-61511818D01*
X161673739Y-61478333D01*
X161700097Y-61475499D01*
X162048338Y-61475499D01*
X162048344Y-61475499D01*
X162048352Y-61475498D01*
X162048355Y-61475498D01*
X162108599Y-61469344D01*
X162147708Y-61465349D01*
X162308697Y-61412003D01*
X162453044Y-61322968D01*
X162572968Y-61203044D01*
X162599887Y-61159402D01*
X162651835Y-61112678D01*
X162705425Y-61100500D01*
X163099903Y-61100500D01*
X163166942Y-61120185D01*
G37*
%TD.AperFunction*%
%TA.AperFunction,Conductor*%
G36*
X139266942Y-64620185D02*
G01*
X139287584Y-64636819D01*
X140283629Y-65632864D01*
X140317114Y-65694187D01*
X140312130Y-65763879D01*
X140270258Y-65819812D01*
X140246846Y-65833618D01*
X140240395Y-65836521D01*
X140094811Y-65924530D01*
X140094810Y-65924531D01*
X139992681Y-66026661D01*
X139931358Y-66060146D01*
X139861666Y-66055162D01*
X139817319Y-66026661D01*
X139715188Y-65924530D01*
X139569606Y-65836522D01*
X139560287Y-65833618D01*
X139407196Y-65785914D01*
X139407194Y-65785913D01*
X139407192Y-65785913D01*
X139357778Y-65781423D01*
X139336616Y-65779500D01*
X139336613Y-65779500D01*
X139005097Y-65779500D01*
X138975656Y-65770855D01*
X138945670Y-65764332D01*
X138940654Y-65760577D01*
X138938058Y-65759815D01*
X138917416Y-65743181D01*
X138812590Y-65638355D01*
X138812588Y-65638352D01*
X138693717Y-65519481D01*
X138693716Y-65519480D01*
X138589643Y-65459394D01*
X138589642Y-65459393D01*
X138556783Y-65440422D01*
X138500881Y-65425443D01*
X138404057Y-65399499D01*
X138245943Y-65399499D01*
X138238347Y-65399499D01*
X138238331Y-65399500D01*
X137514751Y-65399500D01*
X137447712Y-65379815D01*
X137401957Y-65327011D01*
X137392013Y-65257853D01*
X137393134Y-65251309D01*
X137424999Y-65091109D01*
X137425000Y-65091106D01*
X137425000Y-64908894D01*
X137424999Y-64908890D01*
X137393134Y-64748691D01*
X137399361Y-64679100D01*
X137442224Y-64623922D01*
X137508114Y-64600678D01*
X137514751Y-64600500D01*
X139199903Y-64600500D01*
X139266942Y-64620185D01*
G37*
%TD.AperFunction*%
%TA.AperFunction,Conductor*%
G36*
X142462540Y-59350185D02*
G01*
X142508295Y-59402989D01*
X142519501Y-59454500D01*
X142519501Y-59697872D01*
X142525909Y-59757483D01*
X142547574Y-59815570D01*
X142549451Y-59824117D01*
X142547609Y-59850597D01*
X142549503Y-59877074D01*
X142544609Y-59893741D01*
X142544604Y-59893818D01*
X142544575Y-59893855D01*
X142544520Y-59894046D01*
X142526402Y-59942623D01*
X142526401Y-59942627D01*
X142520000Y-60002155D01*
X142520000Y-60150000D01*
X142960833Y-60150000D01*
X142968811Y-60150427D01*
X142968817Y-60150322D01*
X142972102Y-60150497D01*
X142972127Y-60150500D01*
X143246002Y-60150499D01*
X143313039Y-60170183D01*
X143358794Y-60222987D01*
X143370000Y-60274499D01*
X143370000Y-60400000D01*
X143496000Y-60400000D01*
X143563039Y-60419685D01*
X143608794Y-60472489D01*
X143620000Y-60524000D01*
X143620000Y-61250000D01*
X143767828Y-61250000D01*
X143767844Y-61249999D01*
X143827372Y-61243598D01*
X143827379Y-61243596D01*
X143962086Y-61193354D01*
X143962093Y-61193350D01*
X144077187Y-61107190D01*
X144077190Y-61107187D01*
X144163350Y-60992093D01*
X144163354Y-60992086D01*
X144168550Y-60978155D01*
X144210420Y-60922220D01*
X144275884Y-60897801D01*
X144344157Y-60912651D01*
X144393564Y-60962055D01*
X144400915Y-60978151D01*
X144406203Y-60992330D01*
X144406206Y-60992335D01*
X144492452Y-61107544D01*
X144492455Y-61107547D01*
X144607664Y-61193793D01*
X144607671Y-61193797D01*
X144742517Y-61244091D01*
X144742516Y-61244091D01*
X144749444Y-61244835D01*
X144802127Y-61250500D01*
X145597872Y-61250499D01*
X145657483Y-61244091D01*
X145792331Y-61193796D01*
X145907546Y-61107546D01*
X145944268Y-61058492D01*
X145950485Y-61050188D01*
X146006419Y-61008318D01*
X146049751Y-61000500D01*
X146663331Y-61000500D01*
X146663347Y-61000501D01*
X146670943Y-61000501D01*
X146829054Y-61000501D01*
X146829057Y-61000501D01*
X146981785Y-60959577D01*
X147064185Y-60912003D01*
X147064984Y-60911542D01*
X147118709Y-60880524D01*
X147118708Y-60880524D01*
X147118716Y-60880520D01*
X147230520Y-60768716D01*
X147230520Y-60768714D01*
X147240724Y-60758511D01*
X147240727Y-60758506D01*
X148058416Y-59940819D01*
X148119739Y-59907334D01*
X148146097Y-59904500D01*
X149425500Y-59904500D01*
X149492539Y-59924185D01*
X149538294Y-59976989D01*
X149549500Y-60028500D01*
X149549500Y-60298336D01*
X149549501Y-60298355D01*
X149559650Y-60397707D01*
X149559651Y-60397710D01*
X149612996Y-60558694D01*
X149613001Y-60558705D01*
X149702029Y-60703040D01*
X149702032Y-60703044D01*
X149821956Y-60822968D01*
X149840596Y-60834465D01*
X149887321Y-60886412D01*
X149899500Y-60940004D01*
X149899500Y-62949902D01*
X149890855Y-62979342D01*
X149884332Y-63009329D01*
X149880577Y-63014344D01*
X149879815Y-63016941D01*
X149863181Y-63037583D01*
X149686680Y-63214083D01*
X149625357Y-63247568D01*
X149555665Y-63242584D01*
X149499732Y-63200712D01*
X149475315Y-63135248D01*
X149474999Y-63126402D01*
X149474999Y-63001692D01*
X149474998Y-63001677D01*
X149464855Y-62902392D01*
X149411547Y-62741518D01*
X149411542Y-62741507D01*
X149322575Y-62597271D01*
X149322572Y-62597267D01*
X149202732Y-62477427D01*
X149202728Y-62477424D01*
X149058492Y-62388457D01*
X149058481Y-62388452D01*
X148897606Y-62335144D01*
X148798322Y-62325000D01*
X148750000Y-62325000D01*
X148750000Y-63151000D01*
X148730315Y-63218039D01*
X148677511Y-63263794D01*
X148626000Y-63275000D01*
X148500000Y-63275000D01*
X148500000Y-63401000D01*
X148480315Y-63468039D01*
X148427511Y-63513794D01*
X148376000Y-63525000D01*
X147525001Y-63525000D01*
X147525001Y-63548322D01*
X147535144Y-63647607D01*
X147588452Y-63808481D01*
X147588457Y-63808492D01*
X147677424Y-63952728D01*
X147677427Y-63952732D01*
X147686660Y-63961965D01*
X147720145Y-64023288D01*
X147715161Y-64092980D01*
X147686663Y-64137324D01*
X147677033Y-64146953D01*
X147677029Y-64146959D01*
X147588001Y-64291294D01*
X147587996Y-64291305D01*
X147534651Y-64452290D01*
X147524500Y-64551647D01*
X147524500Y-65098337D01*
X147524501Y-65098355D01*
X147534650Y-65197707D01*
X147534651Y-65197710D01*
X147555788Y-65261496D01*
X147558190Y-65331324D01*
X147522458Y-65391366D01*
X147459938Y-65422559D01*
X147438082Y-65424500D01*
X146825097Y-65424500D01*
X146758058Y-65404815D01*
X146737416Y-65388181D01*
X145816590Y-64467355D01*
X145816588Y-64467352D01*
X145697717Y-64348481D01*
X145697709Y-64348475D01*
X145598683Y-64291303D01*
X145598681Y-64291302D01*
X145560790Y-64269425D01*
X145560789Y-64269424D01*
X145548263Y-64266067D01*
X145408057Y-64228499D01*
X145249943Y-64228499D01*
X145242347Y-64228499D01*
X145242331Y-64228500D01*
X145054862Y-64228500D01*
X144987823Y-64208815D01*
X144976884Y-64200000D01*
X143025001Y-64200000D01*
X143025001Y-64223322D01*
X143035144Y-64322607D01*
X143056145Y-64385984D01*
X143058547Y-64455813D01*
X143026120Y-64512669D01*
X142631286Y-64907504D01*
X142519481Y-65019308D01*
X142519475Y-65019316D01*
X142476165Y-65094333D01*
X142476165Y-65094334D01*
X142440423Y-65156241D01*
X142399499Y-65308969D01*
X142399499Y-65308971D01*
X142399499Y-65477072D01*
X142399500Y-65477085D01*
X142399500Y-65750903D01*
X142379815Y-65817942D01*
X142327011Y-65863697D01*
X142257853Y-65873641D01*
X142194297Y-65844616D01*
X142187819Y-65838584D01*
X140025912Y-63676677D01*
X143025000Y-63676677D01*
X143025000Y-63700000D01*
X143750000Y-63700000D01*
X144250000Y-63700000D01*
X144974999Y-63700000D01*
X144974999Y-63676692D01*
X144974998Y-63676677D01*
X144964855Y-63577392D01*
X144911547Y-63416518D01*
X144911542Y-63416507D01*
X144822575Y-63272271D01*
X144822572Y-63272267D01*
X144702732Y-63152427D01*
X144702728Y-63152424D01*
X144624328Y-63104066D01*
X144558492Y-63063457D01*
X144558481Y-63063452D01*
X144397606Y-63010144D01*
X144314736Y-63001677D01*
X147525000Y-63001677D01*
X147525000Y-63025000D01*
X148250000Y-63025000D01*
X148250000Y-62325000D01*
X148249999Y-62324999D01*
X148201693Y-62325000D01*
X148201675Y-62325001D01*
X148102392Y-62335144D01*
X147941518Y-62388452D01*
X147941507Y-62388457D01*
X147797271Y-62477424D01*
X147797267Y-62477427D01*
X147677427Y-62597267D01*
X147677424Y-62597271D01*
X147588457Y-62741507D01*
X147588452Y-62741518D01*
X147535144Y-62902393D01*
X147525000Y-63001677D01*
X144314736Y-63001677D01*
X144298322Y-63000000D01*
X144250000Y-63000000D01*
X144250000Y-63700000D01*
X143750000Y-63700000D01*
X143750000Y-63000000D01*
X143749999Y-62999999D01*
X143701693Y-63000000D01*
X143701675Y-63000001D01*
X143602392Y-63010144D01*
X143441518Y-63063452D01*
X143441507Y-63063457D01*
X143297271Y-63152424D01*
X143297267Y-63152427D01*
X143177427Y-63272267D01*
X143177424Y-63272271D01*
X143088457Y-63416507D01*
X143088452Y-63416518D01*
X143035144Y-63577393D01*
X143025000Y-63676677D01*
X140025912Y-63676677D01*
X139987590Y-63638355D01*
X139987588Y-63638352D01*
X139987587Y-63638351D01*
X139987587Y-63638352D01*
X139980520Y-63631285D01*
X139980520Y-63631284D01*
X139868716Y-63519480D01*
X139868715Y-63519479D01*
X139864385Y-63515149D01*
X139864374Y-63515139D01*
X139086819Y-62737584D01*
X139053334Y-62676261D01*
X139050500Y-62649903D01*
X139050500Y-61540004D01*
X139051601Y-61536253D01*
X139050731Y-61532445D01*
X139061366Y-61502997D01*
X139070185Y-61472965D01*
X139073520Y-61469344D01*
X139074465Y-61466730D01*
X139084282Y-61457664D01*
X139099161Y-61441515D01*
X139104099Y-61437736D01*
X139128044Y-61422968D01*
X139143134Y-61407877D01*
X139149661Y-61402885D01*
X139174904Y-61393169D01*
X139198642Y-61380208D01*
X139207025Y-61380807D01*
X139214868Y-61377789D01*
X139241352Y-61383262D01*
X139268334Y-61385192D01*
X139276697Y-61390567D01*
X139283292Y-61391930D01*
X139291830Y-61400292D01*
X139312681Y-61413693D01*
X139321955Y-61422967D01*
X139321959Y-61422970D01*
X139466294Y-61511998D01*
X139466297Y-61511999D01*
X139466303Y-61512003D01*
X139627292Y-61565349D01*
X139726655Y-61575500D01*
X140273344Y-61575499D01*
X140273352Y-61575498D01*
X140273355Y-61575498D01*
X140336124Y-61569086D01*
X140372708Y-61565349D01*
X140533697Y-61512003D01*
X140678044Y-61422968D01*
X140797968Y-61303044D01*
X140887003Y-61158697D01*
X140940349Y-60997708D01*
X140950500Y-60898345D01*
X140950500Y-60797844D01*
X142520000Y-60797844D01*
X142526401Y-60857372D01*
X142526403Y-60857379D01*
X142576645Y-60992086D01*
X142576649Y-60992093D01*
X142662809Y-61107187D01*
X142662812Y-61107190D01*
X142777906Y-61193350D01*
X142777913Y-61193354D01*
X142912620Y-61243596D01*
X142912627Y-61243598D01*
X142972155Y-61249999D01*
X142972172Y-61250000D01*
X143120000Y-61250000D01*
X143120000Y-60650000D01*
X142520000Y-60650000D01*
X142520000Y-60797844D01*
X140950500Y-60797844D01*
X140950499Y-60550095D01*
X140970184Y-60483057D01*
X140986813Y-60462420D01*
X142082416Y-59366819D01*
X142143739Y-59333334D01*
X142170097Y-59330500D01*
X142395501Y-59330500D01*
X142462540Y-59350185D01*
G37*
%TD.AperFunction*%
%TD*%
M02*
