%TF.GenerationSoftware,KiCad,Pcbnew,10.0.3*%
%TF.CreationDate,2026-06-24T20:29:48-04:00*%
%TF.ProjectId,Primis_Versipellis,5072696d-6973-45f5-9665-72736970656c,rev?*%
%TF.SameCoordinates,Original*%
%TF.FileFunction,Copper,L1,Top*%
%TF.FilePolarity,Positive*%
%FSLAX46Y46*%
G04 Gerber Fmt 4.6, Leading zero omitted, Abs format (unit mm)*
G04 Created by KiCad (PCBNEW 10.0.3) date 2026-06-24 20:29:48*
%MOMM*%
%LPD*%
G01*
G04 APERTURE LIST*
G04 Aperture macros list*
%AMRoundRect*
0 Rectangle with rounded corners*
0 $1 Rounding radius*
0 $2 $3 $4 $5 $6 $7 $8 $9 X,Y pos of 4 corners*
0 Add a 4 corners polygon primitive as box body*
4,1,4,$2,$3,$4,$5,$6,$7,$8,$9,$2,$3,0*
0 Add four circle primitives for the rounded corners*
1,1,$1+$1,$2,$3*
1,1,$1+$1,$4,$5*
1,1,$1+$1,$6,$7*
1,1,$1+$1,$8,$9*
0 Add four rect primitives between the rounded corners*
20,1,$1+$1,$2,$3,$4,$5,0*
20,1,$1+$1,$4,$5,$6,$7,0*
20,1,$1+$1,$6,$7,$8,$9,0*
20,1,$1+$1,$8,$9,$2,$3,0*%
G04 Aperture macros list end*
%TA.AperFunction,EtchedComponent*%
%ADD10C,0.000000*%
%TD*%
%TA.AperFunction,SMDPad,CuDef*%
%ADD11RoundRect,0.225000X-0.250000X0.225000X-0.250000X-0.225000X0.250000X-0.225000X0.250000X0.225000X0*%
%TD*%
%TA.AperFunction,SMDPad,CuDef*%
%ADD12RoundRect,0.250000X0.262500X0.450000X-0.262500X0.450000X-0.262500X-0.450000X0.262500X-0.450000X0*%
%TD*%
%TA.AperFunction,SMDPad,CuDef*%
%ADD13RoundRect,0.225000X0.225000X0.250000X-0.225000X0.250000X-0.225000X-0.250000X0.225000X-0.250000X0*%
%TD*%
%TA.AperFunction,ComponentPad*%
%ADD14C,1.431000*%
%TD*%
%TA.AperFunction,ComponentPad*%
%ADD15C,3.450000*%
%TD*%
%TA.AperFunction,ConnectorPad*%
%ADD16R,0.500000X0.500000*%
%TD*%
%TA.AperFunction,ComponentPad*%
%ADD17R,0.500000X0.900000*%
%TD*%
%TA.AperFunction,SMDPad,CuDef*%
%ADD18R,0.700000X0.700000*%
%TD*%
%TA.AperFunction,ConnectorPad*%
%ADD19C,0.787400*%
%TD*%
%TA.AperFunction,SMDPad,CuDef*%
%ADD20RoundRect,0.062500X-0.350000X-0.062500X0.350000X-0.062500X0.350000X0.062500X-0.350000X0.062500X0*%
%TD*%
%TA.AperFunction,SMDPad,CuDef*%
%ADD21RoundRect,0.062500X-0.062500X-0.350000X0.062500X-0.350000X0.062500X0.350000X-0.062500X0.350000X0*%
%TD*%
%TA.AperFunction,HeatsinkPad*%
%ADD22R,3.600000X3.600000*%
%TD*%
%TA.AperFunction,SMDPad,CuDef*%
%ADD23RoundRect,0.225000X0.250000X-0.225000X0.250000X0.225000X-0.250000X0.225000X-0.250000X-0.225000X0*%
%TD*%
%TA.AperFunction,SMDPad,CuDef*%
%ADD24RoundRect,0.225000X-0.225000X-0.250000X0.225000X-0.250000X0.225000X0.250000X-0.225000X0.250000X0*%
%TD*%
%TA.AperFunction,SMDPad,CuDef*%
%ADD25RoundRect,0.200000X-0.200000X-0.275000X0.200000X-0.275000X0.200000X0.275000X-0.200000X0.275000X0*%
%TD*%
%TA.AperFunction,SMDPad,CuDef*%
%ADD26RoundRect,0.218750X0.218750X0.256250X-0.218750X0.256250X-0.218750X-0.256250X0.218750X-0.256250X0*%
%TD*%
%TA.AperFunction,SMDPad,CuDef*%
%ADD27RoundRect,0.250000X-0.450000X-0.350000X0.450000X-0.350000X0.450000X0.350000X-0.450000X0.350000X0*%
%TD*%
%TA.AperFunction,ViaPad*%
%ADD28C,0.700000*%
%TD*%
%TA.AperFunction,ViaPad*%
%ADD29C,0.600000*%
%TD*%
%TA.AperFunction,Conductor*%
%ADD30C,0.200000*%
%TD*%
%TA.AperFunction,Conductor*%
%ADD31C,0.300000*%
%TD*%
%TA.AperFunction,Conductor*%
%ADD32C,0.500000*%
%TD*%
%TA.AperFunction,Conductor*%
%ADD33C,1.100000*%
%TD*%
G04 APERTURE END LIST*
D10*
%TA.AperFunction,EtchedComponent*%
%TO.C,REF\u002A\u002A*%
G36*
X173900000Y-64800000D02*
G01*
X171260000Y-64800000D01*
X171260000Y-66800000D01*
X173900000Y-66800000D01*
X173900000Y-69500000D01*
X171260000Y-69500000D01*
X171260000Y-71500000D01*
X173900000Y-71500000D01*
X173900000Y-76500000D01*
X168743215Y-76500000D01*
X168500000Y-76500000D01*
X168500000Y-76075156D01*
X168603957Y-76075156D01*
X168616065Y-76117819D01*
X168620419Y-76125731D01*
X168653203Y-76163674D01*
X168695605Y-76187742D01*
X168743215Y-76197583D01*
X168791622Y-76192847D01*
X168836416Y-76173185D01*
X168873186Y-76138245D01*
X168890092Y-76105353D01*
X168897982Y-76057267D01*
X168891408Y-76007682D01*
X168871313Y-75962372D01*
X168838643Y-75927112D01*
X168806417Y-75910218D01*
X168758158Y-75901778D01*
X168708632Y-75908309D01*
X168663447Y-75928868D01*
X168628213Y-75962511D01*
X168617600Y-75981122D01*
X168604700Y-76026637D01*
X168603957Y-76075156D01*
X168500000Y-76075156D01*
X168500000Y-75600000D01*
X173400000Y-75600000D01*
X173400000Y-74200000D01*
X168500000Y-74200000D01*
X168500000Y-73700000D01*
X173400000Y-73700000D01*
X173400000Y-72000000D01*
X170760000Y-72000000D01*
X170760000Y-69000000D01*
X173400000Y-69000000D01*
X173400000Y-67300000D01*
X170760000Y-67300000D01*
X170760000Y-64300000D01*
X173400000Y-64300000D01*
X173400000Y-62600000D01*
X169460000Y-62600000D01*
X169460000Y-62100000D01*
X173900000Y-62100000D01*
X173900000Y-64800000D01*
G37*
%TD.AperFunction*%
%TD*%
D11*
%TO.P,C5,1*%
%TO.N,GND*%
X162000000Y-72450000D03*
%TO.P,C5,2*%
%TO.N,Net-(C5-Pad2)*%
X162000000Y-74000000D03*
%TD*%
D12*
%TO.P,R8,1*%
%TO.N,Net-(U1-VBUS)*%
X143412500Y-74000000D03*
%TO.P,R8,2*%
%TO.N,VBUS*%
X141587500Y-74000000D03*
%TD*%
D11*
%TO.P,C6,1*%
%TO.N,GND*%
X156500000Y-72450000D03*
%TO.P,C6,2*%
%TO.N,Net-(U1-ANT)*%
X156500000Y-74000000D03*
%TD*%
D13*
%TO.P,C4,1*%
%TO.N,GND*%
X161550000Y-66500000D03*
%TO.P,C4,2*%
%TO.N,Net-(U1-XC1)*%
X160000000Y-66500000D03*
%TD*%
D11*
%TO.P,C2,1*%
%TO.N,Net-(U1-DECUSB)*%
X148500000Y-75500000D03*
%TO.P,C2,2*%
%TO.N,GND*%
X148500000Y-77050000D03*
%TD*%
D14*
%TO.P,J1,1,1_1*%
%TO.N,GND*%
X129600000Y-66000000D03*
%TO.P,J1,2,2_2*%
%TO.N,D+*%
X129600000Y-68500000D03*
%TO.P,J1,3,3_3*%
%TO.N,D-*%
X129600000Y-70500000D03*
%TO.P,J1,4,4_4*%
%TO.N,VBUS*%
X129600000Y-73000000D03*
D15*
%TO.P,J1,5,5_5*%
%TO.N,GND*%
X127600000Y-63500000D03*
%TO.P,J1,6,6_6*%
X127600000Y-75500000D03*
%TD*%
D16*
%TO.P,REF\u002A\u002A,1*%
%TO.N,ANT*%
X168750000Y-73950000D03*
D17*
%TO.P,REF\u002A\u002A,2*%
%TO.N,N/C*%
X168750000Y-76050000D03*
%TD*%
D18*
%TO.P,D3,1,DOUT_1*%
%TO.N,unconnected-(D3-DOUT-Pad1)*%
X143370000Y-59300000D03*
%TO.P,D3,2,VSS_2*%
%TO.N,GND*%
X143370000Y-60400000D03*
%TO.P,D3,3,DIN_3*%
%TO.N,Net-(D3-DIN)*%
X145200000Y-60400000D03*
%TO.P,D3,4,VDD_4*%
%TO.N,Net-(D3-VDD)*%
X145200000Y-59300000D03*
%TD*%
D19*
%TO.P,J2,1,VCC_1*%
%TO.N,VDD_nRF*%
X134365000Y-65190000D03*
%TO.P,J2,2,SWDIO_2*%
%TO.N,Net-(J2-SWDIO)*%
X135635000Y-65190000D03*
%TO.P,J2,3,~{RESET}_3*%
%TO.N,Net-(J2-~{RESET})*%
X134365000Y-66460000D03*
%TO.P,J2,4,SWCLK_4*%
%TO.N,Net-(J2-SWCLK)*%
X135635000Y-66460000D03*
%TO.P,J2,5,GND_5*%
%TO.N,GND*%
X134365000Y-67730000D03*
%TO.P,J2,6,SWO_6*%
%TO.N,unconnected-(J2-SWO-Pad6)*%
X135635000Y-67730000D03*
%TD*%
D13*
%TO.P,C9,1*%
%TO.N,VDD_nRF*%
X146825000Y-69500000D03*
%TO.P,C9,2*%
%TO.N,GND*%
X145275000Y-69500000D03*
%TD*%
D20*
%TO.P,U1,1,DEC1_1*%
%TO.N,Net-(U1-DEC1)*%
X149062500Y-67700000D03*
%TO.P,U1,2,XL1/P0.00_2*%
%TO.N,unconnected-(U1-XL1{slash}P0.00-Pad2)*%
X149062500Y-68100000D03*
%TO.P,U1,3,XL2/P0.01_3*%
%TO.N,unconnected-(U1-XL2{slash}P0.01-Pad3)*%
X149062500Y-68500000D03*
%TO.P,U1,4,AIN2/P0.04_4*%
%TO.N,unconnected-(U1-AIN2{slash}P0.04-Pad4)*%
X149062500Y-68900000D03*
%TO.P,U1,5,AIN3/P0.05_5*%
%TO.N,unconnected-(U1-AIN3{slash}P0.05-Pad5)*%
X149062500Y-69300000D03*
%TO.P,U1,6,P1.09_6*%
%TO.N,unconnected-(U1-P1.09-Pad6)*%
X149062500Y-69700000D03*
%TO.P,U1,7,P0.11_7*%
%TO.N,unconnected-(U1-P0.11-Pad7)*%
X149062500Y-70100000D03*
%TO.P,U1,8,VDD_8*%
%TO.N,VDD_nRF*%
X149062500Y-70500000D03*
%TO.P,U1,9,VDDH_9*%
%TO.N,Net-(U1-VBUS)*%
X149062500Y-70900000D03*
%TO.P,U1,10,VBUS_10*%
X149062500Y-71300000D03*
D21*
%TO.P,U1,11,DECUSB_11*%
%TO.N,Net-(U1-DECUSB)*%
X149700000Y-71937500D03*
%TO.P,U1,12,D-_12*%
%TO.N,D-*%
X150100000Y-71937500D03*
%TO.P,U1,13,D+_13*%
%TO.N,D+*%
X150500000Y-71937500D03*
%TO.P,U1,14,P0.15_14*%
%TO.N,unconnected-(U1-P0.15-Pad14)*%
X150900000Y-71937500D03*
%TO.P,U1,15,P0.17_15*%
%TO.N,unconnected-(U1-P0.17-Pad15)*%
X151300000Y-71937500D03*
%TO.P,U1,16,P0.18/~{RESET}_16*%
%TO.N,Net-(U1-P0.18{slash}~{RESET})*%
X151700000Y-71937500D03*
%TO.P,U1,17,P0.20_17*%
%TO.N,unconnected-(U1-P0.20-Pad17)*%
X152100000Y-71937500D03*
%TO.P,U1,18,VDD_18*%
%TO.N,VDD_nRF*%
X152500000Y-71937500D03*
%TO.P,U1,19,SWDIO_19*%
%TO.N,Net-(J2-SWDIO)*%
X152900000Y-71937500D03*
%TO.P,U1,20,SWDCLK_20*%
%TO.N,Net-(J2-SWCLK)*%
X153300000Y-71937500D03*
D20*
%TO.P,U1,21,DEC5_21*%
%TO.N,unconnected-(U1-DEC5-Pad21)*%
X153937500Y-71300000D03*
%TO.P,U1,22,NFC1/P0.09_22*%
%TO.N,unconnected-(U1-NFC1{slash}P0.09-Pad22)*%
X153937500Y-70900000D03*
%TO.P,U1,23,NFC2/P0.10_23*%
%TO.N,unconnected-(U1-NFC2{slash}P0.10-Pad23)*%
X153937500Y-70500000D03*
%TO.P,U1,24,ANT_24*%
%TO.N,Net-(U1-ANT)*%
X153937500Y-70100000D03*
%TO.P,U1,25,VSS_PA_25*%
%TO.N,GND*%
X153937500Y-69700000D03*
%TO.P,U1,26,DEC6_26*%
%TO.N,DEC4_6*%
X153937500Y-69300000D03*
%TO.P,U1,27,DEC3_27*%
%TO.N,DEC3*%
X153937500Y-68900000D03*
%TO.P,U1,28,XC1_28*%
%TO.N,Net-(U1-XC1)*%
X153937500Y-68500000D03*
%TO.P,U1,29,XC2_29*%
%TO.N,Net-(U1-XC2)*%
X153937500Y-68100000D03*
%TO.P,U1,30,VDD_30*%
%TO.N,VDD_nRF*%
X153937500Y-67700000D03*
D21*
%TO.P,U1,31,AIN1/P0.03_31*%
%TO.N,unconnected-(U1-AIN1{slash}P0.03-Pad31)*%
X153300000Y-67062500D03*
%TO.P,U1,32,AIN0/P0.02_32*%
%TO.N,unconnected-(U1-AIN0{slash}P0.02-Pad32)*%
X152900000Y-67062500D03*
%TO.P,U1,33,AIN4/P0.28_33*%
%TO.N,unconnected-(U1-AIN4{slash}P0.28-Pad33)*%
X152500000Y-67062500D03*
%TO.P,U1,34,AIN5/P0.29_34*%
%TO.N,unconnected-(U1-AIN5{slash}P0.29-Pad34)*%
X152100000Y-67062500D03*
%TO.P,U1,35,AIN6/P0.30_35*%
%TO.N,Net-(D3-DIN)*%
X151700000Y-67062500D03*
%TO.P,U1,36,AIN7/P0.31_36*%
%TO.N,unconnected-(U1-AIN7{slash}P0.31-Pad36)*%
X151300000Y-67062500D03*
%TO.P,U1,37,VSS_37*%
%TO.N,GND*%
X150900000Y-67062500D03*
%TO.P,U1,38,DEC4_38*%
%TO.N,DEC4_6*%
X150500000Y-67062500D03*
%TO.P,U1,39,DCC_39*%
%TO.N,unconnected-(U1-DCC-Pad39)*%
X150100000Y-67062500D03*
%TO.P,U1,40,VDD_40*%
%TO.N,VDD_nRF*%
X149700000Y-67062500D03*
D22*
%TO.P,U1,41,VSS_41*%
%TO.N,GND*%
X151500000Y-69500000D03*
%TD*%
D23*
%TO.P,C8,1*%
%TO.N,GND*%
X153000000Y-76500000D03*
%TO.P,C8,2*%
%TO.N,VDD_nRF*%
X153000000Y-74950000D03*
%TD*%
D24*
%TO.P,C3,1*%
%TO.N,GND*%
X158000000Y-60500000D03*
%TO.P,C3,2*%
%TO.N,Net-(U1-XC2)*%
X159550000Y-60500000D03*
%TD*%
%TO.P,C31,1*%
%TO.N,DEC3*%
X159950000Y-68500000D03*
%TO.P,C31,2*%
%TO.N,GND*%
X161500000Y-68500000D03*
%TD*%
D25*
%TO.P,R1,1*%
%TO.N,Net-(D1-A)*%
X154600000Y-60600000D03*
%TO.P,R1,2*%
%TO.N,VDD_nRF*%
X156250000Y-60600000D03*
%TD*%
D13*
%TO.P,C7,1*%
%TO.N,Net-(U1-VBUS)*%
X146825000Y-71500000D03*
%TO.P,C7,2*%
%TO.N,GND*%
X145275000Y-71500000D03*
%TD*%
D26*
%TO.P,D1,1,K_1*%
%TO.N,GND*%
X156175000Y-58800000D03*
%TO.P,D1,2,A_2*%
%TO.N,Net-(D1-A)*%
X154600000Y-58800000D03*
%TD*%
D13*
%TO.P,C30,1*%
%TO.N,GND*%
X161550000Y-70500000D03*
%TO.P,C30,2*%
%TO.N,DEC4_6*%
X160000000Y-70500000D03*
%TD*%
D24*
%TO.P,C29,1*%
%TO.N,DEC4_6*%
X150500000Y-60000000D03*
%TO.P,C29,2*%
%TO.N,GND*%
X152050000Y-60000000D03*
%TD*%
D23*
%TO.P,C11,1*%
%TO.N,VDD_nRF*%
X148500000Y-64825000D03*
%TO.P,C11,2*%
%TO.N,GND*%
X148500000Y-63275000D03*
%TD*%
D27*
%TO.P,Y2,1,1_1*%
%TO.N,Net-(U1-XC1)*%
X159500000Y-64500000D03*
%TO.P,Y2,2,G_2*%
%TO.N,GND*%
X161700000Y-64500000D03*
%TO.P,Y2,3,3_3*%
%TO.N,Net-(U1-XC2)*%
X161700000Y-62800000D03*
%TO.P,Y2,4,G_4*%
%TO.N,GND*%
X159500000Y-62800000D03*
%TD*%
D11*
%TO.P,C10,1*%
%TO.N,GND*%
X154500000Y-62450000D03*
%TO.P,C10,2*%
%TO.N,VDD_nRF*%
X154500000Y-64000000D03*
%TD*%
D26*
%TO.P,L2,1,1_1*%
%TO.N,ANT*%
X165575000Y-74000000D03*
%TO.P,L2,2,2_2*%
%TO.N,Net-(C5-Pad2)*%
X164000000Y-74000000D03*
%TD*%
D25*
%TO.P,R3,1*%
%TO.N,Net-(J2-~{RESET})*%
X138850000Y-66500000D03*
%TO.P,R3,2*%
%TO.N,Net-(U1-P0.18{slash}~{RESET})*%
X140500000Y-66500000D03*
%TD*%
D26*
%TO.P,L1,1,1_1*%
%TO.N,Net-(C5-Pad2)*%
X160000000Y-74000000D03*
%TO.P,L1,2,2_2*%
%TO.N,Net-(U1-ANT)*%
X158425000Y-74000000D03*
%TD*%
D11*
%TO.P,C1,1*%
%TO.N,GND*%
X144000000Y-63950000D03*
%TO.P,C1,2*%
%TO.N,Net-(U1-DEC1)*%
X144000000Y-65500000D03*
%TD*%
D24*
%TO.P,C12,1*%
%TO.N,VBUS*%
X138450000Y-60600000D03*
%TO.P,C12,2*%
%TO.N,Net-(D3-VDD)*%
X140000000Y-60600000D03*
%TD*%
D28*
%TO.N,GND*%
X163000000Y-66500000D03*
X153000000Y-78000000D03*
D29*
X165500000Y-75000000D03*
D28*
X148500000Y-62000000D03*
D29*
X163500000Y-72000000D03*
X132500000Y-67500000D03*
D28*
X144000000Y-69500000D03*
D29*
X167750000Y-73000000D03*
D28*
X156000000Y-62500000D03*
D29*
X167000000Y-75000000D03*
D28*
X148500000Y-78500000D03*
X156128763Y-71070000D03*
D29*
X158000000Y-72000000D03*
X158000000Y-63000000D03*
D28*
X151070000Y-65500000D03*
D29*
X167750000Y-75000000D03*
D28*
X144000000Y-62500000D03*
X144000000Y-71500000D03*
X163000000Y-68500000D03*
D29*
X142000000Y-60800000D03*
D28*
X152000000Y-58500000D03*
D29*
X163500000Y-64500000D03*
X157600000Y-58800000D03*
X167000000Y-73000000D03*
X165500000Y-73000000D03*
D28*
X163000000Y-70500000D03*
D29*
X166250000Y-75000000D03*
X132000000Y-66000000D03*
X166250000Y-73000000D03*
%TO.N,VBUS*%
X141000000Y-63500000D03*
X139533695Y-69944957D03*
%TO.N,D+*%
X134000000Y-71575000D03*
X150951669Y-79199479D03*
%TO.N,D-*%
X134000000Y-72425000D03*
X150350627Y-79800521D03*
%TO.N,VDD_nRF*%
X155250000Y-65250000D03*
X151500000Y-77000000D03*
X153250000Y-65000000D03*
X149980000Y-65500000D03*
%TO.N,Net-(J2-SWDIO)*%
X138000000Y-70000000D03*
D28*
X137500000Y-71500000D03*
D29*
X138000000Y-65000000D03*
D28*
X153070000Y-74000000D03*
D29*
%TO.N,Net-(J2-~{RESET})*%
X138000000Y-64000000D03*
X132509119Y-66509119D03*
D28*
%TO.N,Net-(J2-SWCLK)*%
X153604674Y-73378286D03*
X139000000Y-70500000D03*
%TO.N,Net-(U1-P0.18{slash}~{RESET})*%
X142000000Y-72000000D03*
X151096979Y-75500000D03*
D29*
%TO.N,DEC4_6*%
X149750000Y-64750000D03*
X157000000Y-69750000D03*
%TD*%
%TO.N,GND*%
D30*
X162000000Y-72450000D02*
X163050000Y-72450000D01*
X154406624Y-69700000D02*
X155776624Y-71070000D01*
D31*
X158200000Y-62800000D02*
X158000000Y-63000000D01*
X148500000Y-77050000D02*
X148500000Y-78500000D01*
X144000000Y-63950000D02*
X144000000Y-62500000D01*
D30*
X157550000Y-72450000D02*
X158000000Y-72000000D01*
X154500000Y-62450000D02*
X155950000Y-62450000D01*
X152050000Y-58550000D02*
X152000000Y-58500000D01*
X155776624Y-71070000D02*
X156128763Y-71070000D01*
D31*
X148500000Y-63275000D02*
X148500000Y-62000000D01*
X161700000Y-64500000D02*
X163500000Y-64500000D01*
D30*
X161550000Y-66500000D02*
X163000000Y-66500000D01*
X142400000Y-60400000D02*
X142000000Y-60800000D01*
X153937500Y-69700000D02*
X151700000Y-69700000D01*
X143370000Y-60400000D02*
X142400000Y-60400000D01*
X153937500Y-69700000D02*
X154406624Y-69700000D01*
X152050000Y-60000000D02*
X152050000Y-58550000D01*
X161500000Y-68500000D02*
X163000000Y-68500000D01*
D31*
X145275000Y-71500000D02*
X144000000Y-71500000D01*
D32*
X129600000Y-66000000D02*
X132000000Y-66000000D01*
D30*
X155950000Y-62450000D02*
X156000000Y-62500000D01*
X151700000Y-69700000D02*
X151500000Y-69500000D01*
D31*
X132730000Y-67730000D02*
X132500000Y-67500000D01*
X145275000Y-69500000D02*
X144000000Y-69500000D01*
D30*
X150900000Y-67062500D02*
X150900000Y-65670000D01*
X161550000Y-70500000D02*
X163000000Y-70500000D01*
X163050000Y-72450000D02*
X163500000Y-72000000D01*
D31*
X153000000Y-76500000D02*
X153000000Y-78000000D01*
D30*
X150900000Y-65670000D02*
X151070000Y-65500000D01*
X156175000Y-58800000D02*
X157600000Y-58800000D01*
D31*
X159500000Y-62800000D02*
X158200000Y-62800000D01*
D30*
X156500000Y-72450000D02*
X157550000Y-72450000D01*
D31*
X134365000Y-67730000D02*
X132730000Y-67730000D01*
%TO.N,Net-(C5-Pad2)*%
D30*
X160000000Y-74000000D02*
X162000000Y-74000000D01*
X162000000Y-74000000D02*
X164000000Y-74000000D01*
%TO.N,Net-(U1-VBUS)*%
X149062500Y-70900000D02*
X148400000Y-70900000D01*
X144325000Y-74000000D02*
X143412500Y-74000000D01*
X148000000Y-71300000D02*
X147025000Y-71300000D01*
X148400000Y-70900000D02*
X148000000Y-71300000D01*
X149062500Y-71300000D02*
X148000000Y-71300000D01*
X147025000Y-71300000D02*
X146825000Y-71500000D01*
X146825000Y-71500000D02*
X144325000Y-74000000D01*
%TO.N,VBUS*%
D31*
X140587500Y-73000000D02*
X141587500Y-74000000D01*
X139620000Y-70031262D02*
X139533695Y-69944957D01*
X141000000Y-63500000D02*
X141000000Y-63150000D01*
X141587500Y-74000000D02*
X139620000Y-72032500D01*
X129600000Y-73000000D02*
X140587500Y-73000000D01*
X141000000Y-63150000D02*
X138450000Y-60600000D01*
X139620000Y-72032500D02*
X139620000Y-70031262D01*
%TO.N,Net-(U1-ANT)*%
D30*
X154571000Y-70318338D02*
X154352662Y-70100000D01*
X156500000Y-74000000D02*
X158425000Y-74000000D01*
X154352662Y-70100000D02*
X153937500Y-70100000D01*
X156500000Y-74000000D02*
X154571000Y-72071000D01*
X154571000Y-72071000D02*
X154571000Y-70318338D01*
%TO.N,Net-(U1-XC1)*%
X160000000Y-65000000D02*
X159500000Y-64500000D01*
X160000000Y-66500000D02*
X160000000Y-65000000D01*
X160000000Y-66500000D02*
X158000000Y-68500000D01*
X158000000Y-68500000D02*
X153937500Y-68500000D01*
%TO.N,Net-(U1-DECUSB)*%
X148500000Y-73137500D02*
X149700000Y-71937500D01*
X148500000Y-75500000D02*
X148500000Y-73137500D01*
%TO.N,D+*%
X134000000Y-71575000D02*
X133800001Y-71774999D01*
X150525001Y-79055654D02*
X150668826Y-79199479D01*
X150500000Y-71937500D02*
X150525001Y-71962501D01*
X150525001Y-71962501D02*
X150525001Y-79055654D01*
X132874999Y-71774999D02*
X129600000Y-68500000D01*
X150668826Y-79199479D02*
X150951669Y-79199479D01*
X133800001Y-71774999D02*
X132874999Y-71774999D01*
%TO.N,D-*%
X150074999Y-71962501D02*
X150074999Y-79242050D01*
X134000000Y-72425000D02*
X133800001Y-72225001D01*
X130963603Y-70500000D02*
X129600000Y-70500000D01*
X150350627Y-79517678D02*
X150350627Y-79800521D01*
X132688604Y-72225001D02*
X130963603Y-70500000D01*
X150100000Y-71937500D02*
X150074999Y-71962501D01*
X150074999Y-79242050D02*
X150350627Y-79517678D01*
X133800001Y-72225001D02*
X132688604Y-72225001D01*
%TO.N,ANT*%
D33*
X168700000Y-74000000D02*
X168750000Y-73950000D01*
X165575000Y-74000000D02*
X168700000Y-74000000D01*
%TO.N,Net-(D3-DIN)*%
D30*
X147846000Y-59304000D02*
X150915974Y-59304000D01*
X146750000Y-60400000D02*
X147846000Y-59304000D01*
X151379000Y-65001484D02*
X151700000Y-65322484D01*
X151379000Y-59767026D02*
X151379000Y-65001484D01*
X145200000Y-60400000D02*
X146750000Y-60400000D01*
X150915974Y-59304000D02*
X151379000Y-59767026D01*
X151700000Y-65322484D02*
X151700000Y-67062500D01*
%TO.N,Net-(D3-VDD)*%
X144630000Y-58730000D02*
X145200000Y-59300000D01*
X141870000Y-58730000D02*
X144630000Y-58730000D01*
X140000000Y-60600000D02*
X141870000Y-58730000D01*
%TO.N,VDD_nRF*%
X149980000Y-65745000D02*
X149980000Y-65500000D01*
X153000000Y-74950000D02*
X152500000Y-74450000D01*
X151521000Y-77021000D02*
X151521000Y-80140806D01*
X151500000Y-77000000D02*
X152021000Y-76479000D01*
X152500000Y-74450000D02*
X152500000Y-73250000D01*
X154500000Y-65250000D02*
X155250000Y-65250000D01*
X152500000Y-73250000D02*
X152500000Y-71937500D01*
X148472978Y-80446000D02*
X142679000Y-74652022D01*
X151521000Y-80140806D02*
X151215806Y-80446000D01*
X156570000Y-60920000D02*
X156570000Y-62736102D01*
X147825000Y-70500000D02*
X149062500Y-70500000D01*
X153500000Y-65250000D02*
X154500000Y-65250000D01*
X149700000Y-66025000D02*
X146525000Y-66025000D01*
X152021000Y-73500000D02*
X152250000Y-73500000D01*
X156570000Y-62736102D02*
X155306102Y-64000000D01*
X146825000Y-69500000D02*
X147825000Y-70500000D01*
X144825000Y-67500000D02*
X146825000Y-69500000D01*
X151500000Y-77000000D02*
X151521000Y-77021000D01*
X145329000Y-64829000D02*
X143559026Y-64829000D01*
X154500000Y-67137500D02*
X153937500Y-67700000D01*
X152250000Y-73500000D02*
X152500000Y-73250000D01*
X134365000Y-65190000D02*
X133971301Y-64796301D01*
X156250000Y-60600000D02*
X156570000Y-60920000D01*
X134774565Y-62950000D02*
X138450000Y-62950000D01*
X146525000Y-66025000D02*
X145329000Y-64829000D01*
X154500000Y-64000000D02*
X154500000Y-65250000D01*
X142679000Y-67821000D02*
X143000000Y-67500000D01*
X155306102Y-64000000D02*
X154500000Y-64000000D01*
X139500000Y-64000000D02*
X143000000Y-67500000D01*
X143000000Y-65388026D02*
X143000000Y-67500000D01*
X133971301Y-64796301D02*
X133971301Y-63753264D01*
X153250000Y-65000000D02*
X153500000Y-65250000D01*
X133971301Y-63753264D02*
X134774565Y-62950000D01*
X143559026Y-64829000D02*
X143000000Y-65388026D01*
X152021000Y-76479000D02*
X152021000Y-73500000D01*
X154500000Y-65250000D02*
X154500000Y-67137500D01*
X142679000Y-74652022D02*
X142679000Y-67821000D01*
X138450000Y-62950000D02*
X139500000Y-64000000D01*
X149700000Y-66025000D02*
X148500000Y-64825000D01*
X149700000Y-67062500D02*
X149700000Y-66025000D01*
X143000000Y-67500000D02*
X144825000Y-67500000D01*
X151215806Y-80446000D02*
X148472978Y-80446000D01*
X149700000Y-66025000D02*
X149980000Y-65745000D01*
%TO.N,Net-(J2-SWDIO)*%
X138000000Y-71000000D02*
X137500000Y-71500000D01*
X137810000Y-65190000D02*
X138000000Y-65000000D01*
X135635000Y-65190000D02*
X137810000Y-65190000D01*
X152900000Y-73830000D02*
X152900000Y-71937500D01*
X153070000Y-74000000D02*
X152900000Y-73830000D01*
X138000000Y-70000000D02*
X138000000Y-71000000D01*
%TO.N,Net-(J2-~{RESET})*%
X138850000Y-64850000D02*
X138000000Y-64000000D01*
X134365000Y-66460000D02*
X132558238Y-66460000D01*
X138850000Y-66500000D02*
X138850000Y-64850000D01*
X132558238Y-66460000D02*
X132509119Y-66509119D01*
%TO.N,Net-(J2-SWCLK)*%
X153604674Y-72242174D02*
X153300000Y-71937500D01*
X135635000Y-66460000D02*
X139000000Y-69825000D01*
X139000000Y-69825000D02*
X139000000Y-70500000D01*
X153604674Y-73378286D02*
X153604674Y-72242174D01*
%TO.N,Net-(U1-DEC1)*%
X146200000Y-67700000D02*
X144000000Y-65500000D01*
X149062500Y-67700000D02*
X146200000Y-67700000D01*
%TO.N,Net-(U1-P0.18{slash}~{RESET})*%
X151700000Y-74896979D02*
X151700000Y-71937500D01*
X140500000Y-70000000D02*
X142000000Y-71500000D01*
X151096979Y-75500000D02*
X151700000Y-74896979D01*
X140500000Y-66500000D02*
X140500000Y-70000000D01*
X142000000Y-71500000D02*
X142000000Y-72000000D01*
%TO.N,DEC4_6*%
X155625000Y-70125000D02*
X156000000Y-70500000D01*
X153937500Y-69300000D02*
X154800000Y-69300000D01*
X155625000Y-70125000D02*
X156000000Y-69750000D01*
X149750000Y-64750000D02*
X149750000Y-64000000D01*
X156000000Y-70500000D02*
X160000000Y-70500000D01*
X150500000Y-63250000D02*
X150500000Y-60000000D01*
X156000000Y-69750000D02*
X157000000Y-69750000D01*
X150500000Y-67062500D02*
X150500000Y-63250000D01*
X149750000Y-64000000D02*
X150500000Y-63250000D01*
X154800000Y-69300000D02*
X155625000Y-70125000D01*
%TO.N,DEC3*%
X153937500Y-68900000D02*
X159550000Y-68900000D01*
X159550000Y-68900000D02*
X159950000Y-68500000D01*
%TO.N,Net-(U1-XC2)*%
X161700000Y-62650000D02*
X161700000Y-62800000D01*
X159550000Y-60500000D02*
X161700000Y-62650000D01*
X157480000Y-62570000D02*
X159550000Y-60500000D01*
X153937500Y-68100000D02*
X154381022Y-68100000D01*
X154381022Y-68100000D02*
X157480000Y-65001022D01*
X157480000Y-65001022D02*
X157480000Y-62570000D01*
%TO.N,Net-(D1-A)*%
X154600000Y-60600000D02*
X154600000Y-58800000D01*
%TD*%
%TA.AperFunction,Conductor*%
%TO.N,GND*%
G36*
X168442539Y-57020185D02*
G01*
X168488294Y-57072989D01*
X168499500Y-57124500D01*
X168499500Y-61434108D01*
X168499500Y-61565892D01*
X168507361Y-61595230D01*
X168533608Y-61693187D01*
X168543316Y-61710001D01*
X168599500Y-61807314D01*
X168692686Y-61900500D01*
X168806814Y-61966392D01*
X168862593Y-61981337D01*
X168922253Y-62017701D01*
X168952783Y-62080548D01*
X168954500Y-62101112D01*
X168954500Y-62600002D01*
X168959644Y-62671940D01*
X168978258Y-62735331D01*
X168994977Y-62792270D01*
X169000000Y-62827203D01*
X169000000Y-72777551D01*
X168980315Y-72844590D01*
X168927511Y-72890345D01*
X168858353Y-72900289D01*
X168854103Y-72899561D01*
X168853469Y-72899499D01*
X168853466Y-72899499D01*
X168646535Y-72899499D01*
X168646533Y-72899499D01*
X168443585Y-72939868D01*
X168443576Y-72939871D01*
X168443116Y-72940062D01*
X168442628Y-72940159D01*
X168437753Y-72941638D01*
X168437607Y-72941157D01*
X168395666Y-72949500D01*
X165471530Y-72949500D01*
X165268587Y-72989868D01*
X165268579Y-72989870D01*
X165077402Y-73069058D01*
X165048864Y-73088126D01*
X165048830Y-73088149D01*
X165045832Y-73090153D01*
X164907109Y-73175719D01*
X164867539Y-73215288D01*
X164858698Y-73221489D01*
X164835419Y-73229358D01*
X164813858Y-73241132D01*
X164802908Y-73240348D01*
X164792508Y-73243865D01*
X164768672Y-73237900D01*
X164744166Y-73236148D01*
X164733005Y-73228975D01*
X164724728Y-73226904D01*
X164717018Y-73218700D01*
X164699819Y-73207647D01*
X164667891Y-73175719D01*
X164667887Y-73175716D01*
X164524795Y-73087455D01*
X164524789Y-73087452D01*
X164524787Y-73087451D01*
X164365185Y-73034564D01*
X164365183Y-73034563D01*
X164266681Y-73024500D01*
X164266674Y-73024500D01*
X163733326Y-73024500D01*
X163733318Y-73024500D01*
X163634816Y-73034563D01*
X163634815Y-73034564D01*
X163567060Y-73057016D01*
X163475215Y-73087450D01*
X163475204Y-73087455D01*
X163332112Y-73175716D01*
X163332108Y-73175719D01*
X163213220Y-73294607D01*
X163213219Y-73294609D01*
X163184851Y-73340598D01*
X163177266Y-73347421D01*
X163173028Y-73356703D01*
X163151728Y-73370391D01*
X163132906Y-73387321D01*
X163121270Y-73389965D01*
X163114250Y-73394477D01*
X163079315Y-73399500D01*
X162940004Y-73399500D01*
X162872965Y-73379815D01*
X162834465Y-73340596D01*
X162822968Y-73321956D01*
X162813339Y-73312327D01*
X162779854Y-73251004D01*
X162784838Y-73181312D01*
X162813345Y-73136959D01*
X162822573Y-73127731D01*
X162911542Y-72983492D01*
X162911547Y-72983481D01*
X162964855Y-72822606D01*
X162974999Y-72723322D01*
X162975000Y-72723309D01*
X162975000Y-72700000D01*
X161025001Y-72700000D01*
X161025001Y-72723322D01*
X161035144Y-72822607D01*
X161088452Y-72983481D01*
X161088457Y-72983492D01*
X161177424Y-73127728D01*
X161177427Y-73127732D01*
X161186660Y-73136965D01*
X161187012Y-73137611D01*
X161187656Y-73137972D01*
X161203738Y-73168241D01*
X161220145Y-73198288D01*
X161220092Y-73199022D01*
X161220438Y-73199673D01*
X161217606Y-73233780D01*
X161215161Y-73267980D01*
X161214698Y-73268815D01*
X161214658Y-73269304D01*
X161213120Y-73271667D01*
X161197391Y-73300085D01*
X161192425Y-73306562D01*
X161177032Y-73321956D01*
X161162231Y-73345951D01*
X161158408Y-73350939D01*
X161135076Y-73367992D01*
X161113588Y-73387321D01*
X161106396Y-73388955D01*
X161102000Y-73392169D01*
X161088755Y-73392964D01*
X161059996Y-73399500D01*
X160920685Y-73399500D01*
X160853646Y-73379815D01*
X160815148Y-73340599D01*
X160786781Y-73294609D01*
X160667891Y-73175719D01*
X160667887Y-73175716D01*
X160524795Y-73087455D01*
X160524789Y-73087452D01*
X160524787Y-73087451D01*
X160365185Y-73034564D01*
X160365183Y-73034563D01*
X160266681Y-73024500D01*
X160266674Y-73024500D01*
X159733326Y-73024500D01*
X159733318Y-73024500D01*
X159634816Y-73034563D01*
X159634815Y-73034564D01*
X159567060Y-73057016D01*
X159475215Y-73087450D01*
X159475204Y-73087455D01*
X159332112Y-73175716D01*
X159332108Y-73175719D01*
X159300181Y-73207647D01*
X159238858Y-73241132D01*
X159169166Y-73236148D01*
X159124819Y-73207647D01*
X159092891Y-73175719D01*
X159092887Y-73175716D01*
X158949795Y-73087455D01*
X158949789Y-73087452D01*
X158949787Y-73087451D01*
X158790185Y-73034564D01*
X158790183Y-73034563D01*
X158691681Y-73024500D01*
X158691674Y-73024500D01*
X158158326Y-73024500D01*
X158158318Y-73024500D01*
X158059816Y-73034563D01*
X158059815Y-73034564D01*
X157992060Y-73057016D01*
X157900215Y-73087450D01*
X157900204Y-73087455D01*
X157757112Y-73175716D01*
X157757108Y-73175719D01*
X157638220Y-73294607D01*
X157638219Y-73294609D01*
X157609851Y-73340598D01*
X157602266Y-73347421D01*
X157598028Y-73356703D01*
X157576728Y-73370391D01*
X157557906Y-73387321D01*
X157546270Y-73389965D01*
X157539250Y-73394477D01*
X157504315Y-73399500D01*
X157440004Y-73399500D01*
X157372965Y-73379815D01*
X157334465Y-73340596D01*
X157322968Y-73321956D01*
X157313339Y-73312327D01*
X157279854Y-73251004D01*
X157284838Y-73181312D01*
X157313345Y-73136959D01*
X157322573Y-73127731D01*
X157411542Y-72983492D01*
X157411547Y-72983481D01*
X157464855Y-72822606D01*
X157474999Y-72723322D01*
X157475000Y-72723309D01*
X157475000Y-72700000D01*
X156624000Y-72700000D01*
X156556961Y-72680315D01*
X156511206Y-72627511D01*
X156500000Y-72576000D01*
X156500000Y-72450000D01*
X156374000Y-72450000D01*
X156306961Y-72430315D01*
X156261206Y-72377511D01*
X156250000Y-72326000D01*
X156250000Y-72200000D01*
X156750000Y-72200000D01*
X157474999Y-72200000D01*
X157474999Y-72176692D01*
X157474998Y-72176677D01*
X157464855Y-72077392D01*
X157411547Y-71916518D01*
X157411542Y-71916507D01*
X157322575Y-71772271D01*
X157322572Y-71772267D01*
X157202732Y-71652427D01*
X157202728Y-71652424D01*
X157058492Y-71563457D01*
X157058481Y-71563452D01*
X156897606Y-71510144D01*
X156798322Y-71500000D01*
X156750000Y-71500000D01*
X156750000Y-72200000D01*
X156250000Y-72200000D01*
X156250000Y-71500000D01*
X156249999Y-71499999D01*
X156201693Y-71500000D01*
X156201675Y-71500001D01*
X156102392Y-71510144D01*
X155941518Y-71563452D01*
X155941507Y-71563457D01*
X155797271Y-71652424D01*
X155797267Y-71652427D01*
X155677427Y-71772267D01*
X155677424Y-71772271D01*
X155588457Y-71916507D01*
X155588450Y-71916522D01*
X155571368Y-71968072D01*
X155570014Y-71970026D01*
X155569845Y-71972400D01*
X155550226Y-71998606D01*
X155531595Y-72025516D01*
X155529398Y-72026429D01*
X155527973Y-72028333D01*
X155497302Y-72039772D01*
X155467078Y-72052338D01*
X155464737Y-72051918D01*
X155462509Y-72052750D01*
X155430523Y-72045792D01*
X155398303Y-72040022D01*
X155395837Y-72038246D01*
X155394236Y-72037898D01*
X155365982Y-72016747D01*
X155207819Y-71858584D01*
X155174334Y-71797261D01*
X155171500Y-71770903D01*
X155171500Y-70820097D01*
X155191185Y-70753058D01*
X155243989Y-70707303D01*
X155313147Y-70697359D01*
X155376703Y-70726384D01*
X155383181Y-70732416D01*
X155515139Y-70864374D01*
X155515149Y-70864385D01*
X155519479Y-70868715D01*
X155519480Y-70868716D01*
X155631284Y-70980520D01*
X155707462Y-71024501D01*
X155768215Y-71059577D01*
X155920943Y-71100500D01*
X159069575Y-71100500D01*
X159136614Y-71120185D01*
X159175113Y-71159402D01*
X159202031Y-71203043D01*
X159321955Y-71322967D01*
X159321959Y-71322970D01*
X159466294Y-71411998D01*
X159466297Y-71411999D01*
X159466303Y-71412003D01*
X159627292Y-71465349D01*
X159726655Y-71475500D01*
X160273344Y-71475499D01*
X160273352Y-71475498D01*
X160273355Y-71475498D01*
X160358180Y-71466833D01*
X160372708Y-71465349D01*
X160533697Y-71412003D01*
X160678044Y-71322968D01*
X160687668Y-71313343D01*
X160748987Y-71279856D01*
X160818679Y-71284835D01*
X160863034Y-71313339D01*
X160872267Y-71322572D01*
X160872271Y-71322575D01*
X161016507Y-71411542D01*
X161016518Y-71411547D01*
X161177393Y-71464855D01*
X161196744Y-71466833D01*
X161261436Y-71493229D01*
X161301587Y-71550410D01*
X161304450Y-71620221D01*
X161271823Y-71677872D01*
X161177424Y-71772271D01*
X161088457Y-71916507D01*
X161088452Y-71916518D01*
X161035144Y-72077393D01*
X161025000Y-72176677D01*
X161025000Y-72200000D01*
X162974999Y-72200000D01*
X162974999Y-72176692D01*
X162974998Y-72176677D01*
X162964855Y-72077392D01*
X162911547Y-71916518D01*
X162911542Y-71916507D01*
X162822575Y-71772271D01*
X162822572Y-71772267D01*
X162702732Y-71652427D01*
X162702728Y-71652424D01*
X162558492Y-71563457D01*
X162558481Y-71563452D01*
X162397606Y-71510144D01*
X162332889Y-71503532D01*
X162268197Y-71477136D01*
X162228046Y-71419955D01*
X162225183Y-71350144D01*
X162257811Y-71292492D01*
X162347576Y-71202727D01*
X162436542Y-71058492D01*
X162436547Y-71058481D01*
X162489855Y-70897606D01*
X162499999Y-70798322D01*
X162500000Y-70798309D01*
X162500000Y-70750000D01*
X161674000Y-70750000D01*
X161606961Y-70730315D01*
X161561206Y-70677511D01*
X161550000Y-70626000D01*
X161550000Y-70500000D01*
X161424000Y-70500000D01*
X161356961Y-70480315D01*
X161311206Y-70427511D01*
X161300000Y-70376000D01*
X161300000Y-69605000D01*
X161286319Y-69591319D01*
X161252834Y-69529996D01*
X161250000Y-69503638D01*
X161250000Y-69395000D01*
X161750000Y-69395000D01*
X161763681Y-69408681D01*
X161797166Y-69470004D01*
X161800000Y-69496362D01*
X161800000Y-70250000D01*
X162499999Y-70250000D01*
X162499999Y-70201692D01*
X162499998Y-70201677D01*
X162489855Y-70102392D01*
X162436547Y-69941518D01*
X162436542Y-69941507D01*
X162347575Y-69797271D01*
X162347572Y-69797267D01*
X162227732Y-69677427D01*
X162227728Y-69677424D01*
X162086183Y-69590117D01*
X162039458Y-69538169D01*
X162028237Y-69469206D01*
X162056080Y-69405124D01*
X162086184Y-69379040D01*
X162177730Y-69322573D01*
X162177732Y-69322572D01*
X162297572Y-69202732D01*
X162297575Y-69202728D01*
X162386542Y-69058492D01*
X162386547Y-69058481D01*
X162439855Y-68897606D01*
X162449999Y-68798322D01*
X162450000Y-68798309D01*
X162450000Y-68750000D01*
X161750000Y-68750000D01*
X161750000Y-69395000D01*
X161250000Y-69395000D01*
X161250000Y-67605000D01*
X161750000Y-67605000D01*
X161750000Y-68250000D01*
X162449999Y-68250000D01*
X162449999Y-68201692D01*
X162449998Y-68201677D01*
X162439855Y-68102392D01*
X162386547Y-67941518D01*
X162386542Y-67941507D01*
X162297575Y-67797271D01*
X162297572Y-67797267D01*
X162177732Y-67677427D01*
X162177728Y-67677424D01*
X162086183Y-67620958D01*
X162039458Y-67569010D01*
X162028237Y-67500048D01*
X162056080Y-67435966D01*
X162086183Y-67409881D01*
X162227733Y-67322571D01*
X162347572Y-67202732D01*
X162347575Y-67202728D01*
X162436542Y-67058492D01*
X162436547Y-67058481D01*
X162489855Y-66897606D01*
X162499999Y-66798322D01*
X162500000Y-66798309D01*
X162500000Y-66750000D01*
X161800000Y-66750000D01*
X161800000Y-67503638D01*
X161780315Y-67570677D01*
X161763681Y-67591319D01*
X161750000Y-67605000D01*
X161250000Y-67605000D01*
X161250000Y-67496362D01*
X161269685Y-67429323D01*
X161286319Y-67408681D01*
X161300000Y-67395000D01*
X161300000Y-65756364D01*
X161800000Y-65756364D01*
X161800000Y-66250000D01*
X162499999Y-66250000D01*
X162499999Y-66201692D01*
X162499998Y-66201677D01*
X162489855Y-66102392D01*
X162436547Y-65941518D01*
X162436542Y-65941507D01*
X162347575Y-65797271D01*
X162347572Y-65797267D01*
X162322504Y-65772199D01*
X162289019Y-65710876D01*
X162294003Y-65641184D01*
X162335875Y-65585251D01*
X162371181Y-65566812D01*
X162469119Y-65534358D01*
X162469124Y-65534356D01*
X162618345Y-65442315D01*
X162742315Y-65318345D01*
X162834356Y-65169124D01*
X162834358Y-65169119D01*
X162889505Y-65002697D01*
X162889506Y-65002690D01*
X162899999Y-64899986D01*
X162900000Y-64899973D01*
X162900000Y-64750000D01*
X161950000Y-64750000D01*
X161950000Y-65606000D01*
X161945363Y-65621789D01*
X161945735Y-65638241D01*
X161935723Y-65654621D01*
X161930315Y-65673039D01*
X161917879Y-65683814D01*
X161909297Y-65697856D01*
X161880044Y-65717603D01*
X161800000Y-65756364D01*
X161300000Y-65756364D01*
X161300000Y-65519000D01*
X161319685Y-65451961D01*
X161372489Y-65406206D01*
X161424000Y-65395000D01*
X161450000Y-65395000D01*
X161450000Y-64624000D01*
X161469685Y-64556961D01*
X161522489Y-64511206D01*
X161574000Y-64500000D01*
X161700000Y-64500000D01*
X161700000Y-64374000D01*
X161719685Y-64306961D01*
X161772489Y-64261206D01*
X161824000Y-64250000D01*
X162899999Y-64250000D01*
X162899999Y-64100028D01*
X162899998Y-64100013D01*
X162889505Y-63997302D01*
X162834358Y-63830880D01*
X162834353Y-63830869D01*
X162763237Y-63715573D01*
X162744796Y-63648181D01*
X162763234Y-63585383D01*
X162834814Y-63469334D01*
X162889999Y-63302797D01*
X162900500Y-63200009D01*
X162900499Y-62399992D01*
X162892838Y-62325000D01*
X162889999Y-62297203D01*
X162889998Y-62297200D01*
X162857789Y-62200000D01*
X162834814Y-62130666D01*
X162742712Y-61981344D01*
X162618656Y-61857288D01*
X162469334Y-61765186D01*
X162302797Y-61710001D01*
X162302795Y-61710000D01*
X162200016Y-61699500D01*
X162200009Y-61699500D01*
X161650097Y-61699500D01*
X161583058Y-61679815D01*
X161562416Y-61663181D01*
X160536818Y-60637583D01*
X160503333Y-60576260D01*
X160500499Y-60549902D01*
X160500499Y-60201662D01*
X160500498Y-60201644D01*
X160490349Y-60102292D01*
X160490348Y-60102289D01*
X160465897Y-60028500D01*
X160437003Y-59941303D01*
X160436999Y-59941297D01*
X160436998Y-59941294D01*
X160347970Y-59796959D01*
X160347967Y-59796955D01*
X160228044Y-59677032D01*
X160228040Y-59677029D01*
X160083705Y-59588001D01*
X160083699Y-59587998D01*
X160083697Y-59587997D01*
X160083284Y-59587860D01*
X159922709Y-59534651D01*
X159823346Y-59524500D01*
X159276662Y-59524500D01*
X159276644Y-59524501D01*
X159177292Y-59534650D01*
X159177289Y-59534651D01*
X159016305Y-59587996D01*
X159016294Y-59588001D01*
X158871959Y-59677029D01*
X158871953Y-59677033D01*
X158862324Y-59686663D01*
X158801000Y-59720146D01*
X158731308Y-59715159D01*
X158686965Y-59686660D01*
X158677732Y-59677427D01*
X158677728Y-59677424D01*
X158533492Y-59588457D01*
X158533481Y-59588452D01*
X158372606Y-59535144D01*
X158273322Y-59525000D01*
X158250000Y-59525000D01*
X158250000Y-60376000D01*
X158230315Y-60443039D01*
X158177511Y-60488794D01*
X158126000Y-60500000D01*
X157874000Y-60500000D01*
X157806961Y-60480315D01*
X157761206Y-60427511D01*
X157750000Y-60376000D01*
X157750000Y-59524999D01*
X157726693Y-59525000D01*
X157726674Y-59525001D01*
X157627392Y-59535144D01*
X157466518Y-59588452D01*
X157466507Y-59588457D01*
X157322271Y-59677424D01*
X157322267Y-59677427D01*
X157202424Y-59797270D01*
X157174309Y-59842852D01*
X157157079Y-59858348D01*
X157143216Y-59876920D01*
X157131590Y-59881274D01*
X157122361Y-59889575D01*
X157099488Y-59893296D01*
X157077785Y-59901425D01*
X157065650Y-59898802D01*
X157053398Y-59900796D01*
X157032142Y-59891560D01*
X157009492Y-59886665D01*
X156993689Y-59874852D01*
X156989316Y-59872952D01*
X156981209Y-59865552D01*
X156885185Y-59769528D01*
X156884526Y-59769130D01*
X156878722Y-59763341D01*
X156865360Y-59738950D01*
X156849184Y-59716327D01*
X156848807Y-59708732D01*
X156845154Y-59702063D01*
X156847101Y-59674316D01*
X156845724Y-59646543D01*
X156849526Y-59639756D01*
X156850045Y-59632365D01*
X156864570Y-59612907D01*
X156878604Y-59587860D01*
X156961387Y-59505077D01*
X157049591Y-59362077D01*
X157049593Y-59362072D01*
X157102442Y-59202583D01*
X157112499Y-59104150D01*
X157112500Y-59104137D01*
X157112500Y-59050000D01*
X156299000Y-59050000D01*
X156231961Y-59030315D01*
X156186206Y-58977511D01*
X156175000Y-58926000D01*
X156175000Y-58800000D01*
X156049000Y-58800000D01*
X155981961Y-58780315D01*
X155936206Y-58727511D01*
X155925000Y-58676000D01*
X155925000Y-58550000D01*
X156425000Y-58550000D01*
X157112499Y-58550000D01*
X157112499Y-58495864D01*
X157112498Y-58495847D01*
X157102443Y-58397416D01*
X157049593Y-58237927D01*
X157049591Y-58237922D01*
X156961385Y-58094919D01*
X156842580Y-57976114D01*
X156699577Y-57887908D01*
X156699572Y-57887906D01*
X156540083Y-57835057D01*
X156441650Y-57825000D01*
X156425000Y-57825000D01*
X156425000Y-58550000D01*
X155925000Y-58550000D01*
X155925000Y-57824999D01*
X155908356Y-57825000D01*
X155809915Y-57835057D01*
X155650427Y-57887906D01*
X155650422Y-57887908D01*
X155507419Y-57976114D01*
X155475533Y-58008000D01*
X155414209Y-58041485D01*
X155344518Y-58036499D01*
X155300173Y-58008000D01*
X155267892Y-57975719D01*
X155267887Y-57975716D01*
X155124795Y-57887455D01*
X155124789Y-57887452D01*
X155124787Y-57887451D01*
X154965185Y-57834564D01*
X154965183Y-57834563D01*
X154866681Y-57824500D01*
X154866674Y-57824500D01*
X154333326Y-57824500D01*
X154333318Y-57824500D01*
X154234816Y-57834563D01*
X154234815Y-57834564D01*
X154155719Y-57860773D01*
X154075215Y-57887450D01*
X154075204Y-57887455D01*
X153932112Y-57975716D01*
X153932108Y-57975719D01*
X153813219Y-58094608D01*
X153813216Y-58094612D01*
X153724955Y-58237704D01*
X153724950Y-58237715D01*
X153724880Y-58237927D01*
X153672064Y-58397315D01*
X153672064Y-58397316D01*
X153672063Y-58397316D01*
X153662000Y-58495818D01*
X153662000Y-59104181D01*
X153672063Y-59202683D01*
X153724950Y-59362284D01*
X153724955Y-59362295D01*
X153813216Y-59505387D01*
X153813219Y-59505391D01*
X153933404Y-59625576D01*
X153966889Y-59686899D01*
X153961905Y-59756591D01*
X153933404Y-59800938D01*
X153844531Y-59889810D01*
X153844530Y-59889811D01*
X153756522Y-60035393D01*
X153705913Y-60197807D01*
X153699500Y-60268386D01*
X153699500Y-60931613D01*
X153705913Y-61002192D01*
X153705913Y-61002194D01*
X153705914Y-61002196D01*
X153756522Y-61164606D01*
X153844487Y-61310118D01*
X153844530Y-61310188D01*
X153927284Y-61392942D01*
X153960769Y-61454265D01*
X153955785Y-61523957D01*
X153913913Y-61579890D01*
X153904700Y-61586161D01*
X153797271Y-61652424D01*
X153797267Y-61652427D01*
X153677427Y-61772267D01*
X153677424Y-61772271D01*
X153588457Y-61916507D01*
X153588452Y-61916518D01*
X153535144Y-62077393D01*
X153525000Y-62176677D01*
X153525000Y-62200000D01*
X155474999Y-62200000D01*
X155474999Y-62176692D01*
X155474998Y-62176677D01*
X155464855Y-62077392D01*
X155411547Y-61916518D01*
X155411542Y-61916507D01*
X155322575Y-61772271D01*
X155322572Y-61772267D01*
X155202729Y-61652424D01*
X155197950Y-61648645D01*
X155157574Y-61591622D01*
X155154437Y-61521823D01*
X155189535Y-61461408D01*
X155191831Y-61459285D01*
X155200598Y-61451380D01*
X155235185Y-61430472D01*
X155339580Y-61326076D01*
X155341968Y-61323924D01*
X155370687Y-61310118D01*
X155398642Y-61294854D01*
X155401949Y-61295090D01*
X155404940Y-61293653D01*
X155436562Y-61297565D01*
X155468334Y-61299838D01*
X155471531Y-61301892D01*
X155474281Y-61302233D01*
X155481793Y-61308488D01*
X155512681Y-61328339D01*
X155614811Y-61430469D01*
X155614813Y-61430470D01*
X155614815Y-61430472D01*
X155760394Y-61518478D01*
X155882392Y-61556493D01*
X155940538Y-61595230D01*
X155968512Y-61659255D01*
X155969500Y-61674878D01*
X155969500Y-62436004D01*
X155949815Y-62503043D01*
X155933181Y-62523685D01*
X155686681Y-62770185D01*
X155625358Y-62803670D01*
X155555666Y-62798686D01*
X155499733Y-62756814D01*
X155480649Y-62705649D01*
X155475000Y-62700000D01*
X153525001Y-62700000D01*
X153525001Y-62723322D01*
X153535144Y-62822607D01*
X153588452Y-62983481D01*
X153588457Y-62983492D01*
X153677424Y-63127728D01*
X153677427Y-63127732D01*
X153686660Y-63136965D01*
X153720145Y-63198288D01*
X153715161Y-63267980D01*
X153686663Y-63312324D01*
X153677033Y-63321953D01*
X153677029Y-63321959D01*
X153588001Y-63466294D01*
X153587996Y-63466305D01*
X153534651Y-63627290D01*
X153524500Y-63726647D01*
X153524500Y-64087324D01*
X153504815Y-64154363D01*
X153452011Y-64200118D01*
X153382853Y-64210062D01*
X153376309Y-64208941D01*
X153328846Y-64199500D01*
X153328842Y-64199500D01*
X153171158Y-64199500D01*
X153171155Y-64199500D01*
X153016510Y-64230261D01*
X153016498Y-64230264D01*
X152870827Y-64290602D01*
X152870814Y-64290609D01*
X152739711Y-64378210D01*
X152739707Y-64378213D01*
X152628213Y-64489707D01*
X152628210Y-64489711D01*
X152540609Y-64620814D01*
X152540602Y-64620827D01*
X152480264Y-64766498D01*
X152480261Y-64766510D01*
X152449500Y-64921153D01*
X152449500Y-64956881D01*
X152429815Y-65023920D01*
X152377011Y-65069675D01*
X152307853Y-65079619D01*
X152244297Y-65050594D01*
X152218113Y-65018881D01*
X152180522Y-64953771D01*
X152180518Y-64953766D01*
X152015819Y-64789067D01*
X151982334Y-64727744D01*
X151979500Y-64701386D01*
X151979500Y-60974999D01*
X152300000Y-60974999D01*
X152323308Y-60974999D01*
X152323322Y-60974998D01*
X152422607Y-60964855D01*
X152583481Y-60911547D01*
X152583492Y-60911542D01*
X152727728Y-60822575D01*
X152727732Y-60822572D01*
X152847572Y-60702732D01*
X152847575Y-60702728D01*
X152936542Y-60558492D01*
X152936547Y-60558481D01*
X152989855Y-60397606D01*
X152999999Y-60298322D01*
X153000000Y-60298309D01*
X153000000Y-60250000D01*
X152300000Y-60250000D01*
X152300000Y-60974999D01*
X151979500Y-60974999D01*
X151979500Y-59856086D01*
X151979501Y-59856073D01*
X151979501Y-59750000D01*
X152300000Y-59750000D01*
X152999999Y-59750000D01*
X152999999Y-59701692D01*
X152999998Y-59701677D01*
X152989855Y-59602392D01*
X152936547Y-59441518D01*
X152936542Y-59441507D01*
X152847575Y-59297271D01*
X152847572Y-59297267D01*
X152727732Y-59177427D01*
X152727728Y-59177424D01*
X152583492Y-59088457D01*
X152583481Y-59088452D01*
X152422606Y-59035144D01*
X152323322Y-59025000D01*
X152300000Y-59025000D01*
X152300000Y-59750000D01*
X151979501Y-59750000D01*
X151979501Y-59687970D01*
X151976675Y-59677424D01*
X151938577Y-59535242D01*
X151921343Y-59505391D01*
X151859524Y-59398316D01*
X151859518Y-59398308D01*
X151836319Y-59375109D01*
X151802834Y-59313786D01*
X151800000Y-59287428D01*
X151800000Y-59024999D01*
X151776693Y-59025000D01*
X151776674Y-59025001D01*
X151677391Y-59035144D01*
X151614014Y-59056145D01*
X151544186Y-59058546D01*
X151487330Y-59026120D01*
X151284691Y-58823481D01*
X151284690Y-58823480D01*
X151197878Y-58773360D01*
X151197878Y-58773359D01*
X151197874Y-58773358D01*
X151147759Y-58744423D01*
X150995031Y-58703499D01*
X150836917Y-58703499D01*
X150829321Y-58703499D01*
X150829305Y-58703500D01*
X147925057Y-58703500D01*
X147766943Y-58703500D01*
X147614215Y-58744423D01*
X147614214Y-58744423D01*
X147614212Y-58744424D01*
X147614209Y-58744425D01*
X147564096Y-58773359D01*
X147564095Y-58773360D01*
X147552049Y-58780315D01*
X147477285Y-58823479D01*
X147477282Y-58823481D01*
X147398641Y-58902123D01*
X147365480Y-58935284D01*
X147365478Y-58935286D01*
X146933946Y-59366819D01*
X146537584Y-59763181D01*
X146476261Y-59796666D01*
X146449903Y-59799500D01*
X146174500Y-59799500D01*
X146107461Y-59779815D01*
X146061706Y-59727011D01*
X146050500Y-59675500D01*
X146050499Y-58902129D01*
X146050498Y-58902123D01*
X146044091Y-58842516D01*
X145993797Y-58707671D01*
X145993793Y-58707664D01*
X145907547Y-58592455D01*
X145907544Y-58592452D01*
X145792335Y-58506206D01*
X145792328Y-58506202D01*
X145657482Y-58455908D01*
X145657483Y-58455908D01*
X145597883Y-58449501D01*
X145597881Y-58449500D01*
X145597873Y-58449500D01*
X145597865Y-58449500D01*
X145250098Y-58449500D01*
X145183059Y-58429815D01*
X145162417Y-58413181D01*
X144998717Y-58249481D01*
X144998716Y-58249480D01*
X144911904Y-58199360D01*
X144911904Y-58199359D01*
X144911900Y-58199358D01*
X144861785Y-58170423D01*
X144709057Y-58129499D01*
X144550943Y-58129499D01*
X144543347Y-58129499D01*
X144543331Y-58129500D01*
X141790940Y-58129500D01*
X141750019Y-58140464D01*
X141750019Y-58140465D01*
X141712751Y-58150451D01*
X141638214Y-58170423D01*
X141638209Y-58170426D01*
X141501290Y-58249475D01*
X141501282Y-58249481D01*
X141389478Y-58361286D01*
X140162582Y-59588181D01*
X140101259Y-59621666D01*
X140074901Y-59624500D01*
X139726662Y-59624500D01*
X139726644Y-59624501D01*
X139627292Y-59634650D01*
X139627289Y-59634651D01*
X139466305Y-59687996D01*
X139466294Y-59688001D01*
X139321959Y-59777029D01*
X139321955Y-59777032D01*
X139312681Y-59786307D01*
X139251358Y-59819792D01*
X139181666Y-59814808D01*
X139137319Y-59786307D01*
X139128044Y-59777032D01*
X139128040Y-59777029D01*
X138983705Y-59688001D01*
X138983699Y-59687998D01*
X138983697Y-59687997D01*
X138979662Y-59686660D01*
X138822709Y-59634651D01*
X138723346Y-59624500D01*
X138176662Y-59624500D01*
X138176644Y-59624501D01*
X138077292Y-59634650D01*
X138077289Y-59634651D01*
X137916305Y-59687996D01*
X137916294Y-59688001D01*
X137771959Y-59777029D01*
X137771955Y-59777032D01*
X137652032Y-59896955D01*
X137652029Y-59896959D01*
X137563001Y-60041294D01*
X137562996Y-60041305D01*
X137509651Y-60202290D01*
X137499500Y-60301647D01*
X137499500Y-60898337D01*
X137499501Y-60898355D01*
X137509650Y-60997707D01*
X137509651Y-60997710D01*
X137562996Y-61158694D01*
X137563001Y-61158705D01*
X137652029Y-61303040D01*
X137652032Y-61303044D01*
X137771955Y-61422967D01*
X137771959Y-61422970D01*
X137916294Y-61511998D01*
X137916297Y-61511999D01*
X137916303Y-61512003D01*
X138077292Y-61565349D01*
X138176655Y-61575500D01*
X138454191Y-61575499D01*
X138521230Y-61595183D01*
X138541872Y-61611818D01*
X140177803Y-63247749D01*
X140194453Y-63278242D01*
X140211191Y-63308631D01*
X140211193Y-63308899D01*
X140211288Y-63309072D01*
X140213837Y-63343825D01*
X140213295Y-63351799D01*
X140199500Y-63421158D01*
X140199500Y-63555098D01*
X140199215Y-63559298D01*
X140188521Y-63588289D01*
X140179815Y-63617942D01*
X140176537Y-63620781D01*
X140175037Y-63624851D01*
X140150360Y-63643464D01*
X140127011Y-63663697D01*
X140122719Y-63664314D01*
X140119257Y-63666926D01*
X140088442Y-63669242D01*
X140057853Y-63673641D01*
X140053907Y-63671838D01*
X140049584Y-63672164D01*
X140022414Y-63657456D01*
X139994297Y-63644616D01*
X139988192Y-63638932D01*
X139988139Y-63638903D01*
X139988115Y-63638859D01*
X139987819Y-63638584D01*
X138937590Y-62588355D01*
X138937588Y-62588352D01*
X138818717Y-62469481D01*
X138818709Y-62469475D01*
X138729923Y-62418215D01*
X138729922Y-62418215D01*
X138681785Y-62390423D01*
X138529057Y-62349499D01*
X138370943Y-62349499D01*
X138363347Y-62349499D01*
X138363331Y-62349500D01*
X134861234Y-62349500D01*
X134861218Y-62349499D01*
X134853622Y-62349499D01*
X134695508Y-62349499D01*
X134542780Y-62390423D01*
X134494643Y-62418215D01*
X134494642Y-62418215D01*
X134405855Y-62469475D01*
X134405847Y-62469481D01*
X133490780Y-63384548D01*
X133476379Y-63409493D01*
X133458522Y-63440423D01*
X133441832Y-63469331D01*
X133412878Y-63519481D01*
X133411724Y-63521479D01*
X133370800Y-63674207D01*
X133370800Y-63674209D01*
X133370800Y-63842310D01*
X133370801Y-63842323D01*
X133370801Y-64709631D01*
X133370800Y-64709649D01*
X133370800Y-64875355D01*
X133370799Y-64875355D01*
X133411724Y-65028086D01*
X133430600Y-65060781D01*
X133430601Y-65060782D01*
X133430603Y-65060785D01*
X133454187Y-65101634D01*
X133470800Y-65163633D01*
X133470800Y-65278075D01*
X133505161Y-65450821D01*
X133505163Y-65450829D01*
X133572568Y-65613560D01*
X133572573Y-65613568D01*
X133608014Y-65666609D01*
X133628892Y-65733286D01*
X133610408Y-65800666D01*
X133558429Y-65847357D01*
X133504912Y-65859500D01*
X133015373Y-65859500D01*
X132948334Y-65839815D01*
X132946483Y-65838602D01*
X132888308Y-65799731D01*
X132888301Y-65799727D01*
X132888298Y-65799725D01*
X132888294Y-65799723D01*
X132888290Y-65799721D01*
X132742620Y-65739383D01*
X132742608Y-65739380D01*
X132587964Y-65708619D01*
X132587961Y-65708619D01*
X132430277Y-65708619D01*
X132430274Y-65708619D01*
X132275629Y-65739380D01*
X132275617Y-65739383D01*
X132129946Y-65799721D01*
X132129933Y-65799728D01*
X131998830Y-65887329D01*
X131998826Y-65887332D01*
X131887332Y-65998826D01*
X131887329Y-65998830D01*
X131799728Y-66129933D01*
X131799721Y-66129946D01*
X131739383Y-66275617D01*
X131739380Y-66275629D01*
X131708619Y-66430272D01*
X131708619Y-66587965D01*
X131739380Y-66742608D01*
X131739383Y-66742620D01*
X131799721Y-66888291D01*
X131799728Y-66888304D01*
X131887329Y-67019407D01*
X131887332Y-67019411D01*
X131998826Y-67130905D01*
X131998830Y-67130908D01*
X132129933Y-67218509D01*
X132129946Y-67218516D01*
X132239447Y-67263872D01*
X132275622Y-67278856D01*
X132415482Y-67306676D01*
X132430272Y-67309618D01*
X132430275Y-67309619D01*
X132430277Y-67309619D01*
X132587963Y-67309619D01*
X132587964Y-67309618D01*
X132742616Y-67278856D01*
X132888298Y-67218513D01*
X133019408Y-67130908D01*
X133053496Y-67096820D01*
X133114818Y-67063334D01*
X133141178Y-67060500D01*
X133505514Y-67060500D01*
X133572553Y-67080185D01*
X133618308Y-67132989D01*
X133628252Y-67202147D01*
X133608616Y-67253391D01*
X133573017Y-67306667D01*
X133573012Y-67306676D01*
X133505645Y-67469316D01*
X133505643Y-67469322D01*
X133471300Y-67641975D01*
X133471300Y-67818024D01*
X133471299Y-67818024D01*
X133505643Y-67990677D01*
X133505645Y-67990683D01*
X133573012Y-68153323D01*
X133573016Y-68153330D01*
X133607745Y-68205306D01*
X133628622Y-68271984D01*
X133610137Y-68339364D01*
X133573533Y-68377298D01*
X133508580Y-68420698D01*
X133508576Y-68420701D01*
X133404701Y-68524576D01*
X133404698Y-68524580D01*
X133323083Y-68646724D01*
X133323078Y-68646733D01*
X133266861Y-68782455D01*
X133266858Y-68782465D01*
X133238200Y-68926540D01*
X133238200Y-69073459D01*
X133266858Y-69217534D01*
X133266861Y-69217544D01*
X133323078Y-69353266D01*
X133323083Y-69353275D01*
X133404698Y-69475419D01*
X133404701Y-69475423D01*
X133508576Y-69579298D01*
X133508580Y-69579301D01*
X133630724Y-69660916D01*
X133630730Y-69660919D01*
X133630731Y-69660920D01*
X133766458Y-69717140D01*
X133910540Y-69745799D01*
X133910544Y-69745800D01*
X133910545Y-69745800D01*
X134057456Y-69745800D01*
X134057457Y-69745799D01*
X134201542Y-69717140D01*
X134337269Y-69660920D01*
X134459420Y-69579301D01*
X134563301Y-69475420D01*
X134644920Y-69353269D01*
X134701140Y-69217542D01*
X134729800Y-69073455D01*
X134729800Y-68926545D01*
X134701140Y-68782458D01*
X134669270Y-68705517D01*
X134661801Y-68636047D01*
X134693076Y-68573568D01*
X134736379Y-68543503D01*
X134788322Y-68521987D01*
X134788326Y-68521985D01*
X134797380Y-68515934D01*
X134275904Y-67994458D01*
X134242419Y-67933135D01*
X134247403Y-67863443D01*
X134275904Y-67819096D01*
X134328681Y-67766319D01*
X134355608Y-67751615D01*
X134381427Y-67735023D01*
X134387627Y-67734131D01*
X134390004Y-67732834D01*
X134416362Y-67730000D01*
X134621517Y-67730000D01*
X134688556Y-67749685D01*
X134734311Y-67802489D01*
X134743134Y-67829809D01*
X134775161Y-67990821D01*
X134775163Y-67990829D01*
X134842568Y-68153560D01*
X134842573Y-68153569D01*
X134940428Y-68300018D01*
X134940431Y-68300022D01*
X135064977Y-68424568D01*
X135064981Y-68424571D01*
X135211430Y-68522426D01*
X135211439Y-68522431D01*
X135263429Y-68543966D01*
X135317832Y-68587807D01*
X135339897Y-68654101D01*
X135330538Y-68705978D01*
X135298861Y-68782455D01*
X135298858Y-68782465D01*
X135270200Y-68926540D01*
X135270200Y-69073459D01*
X135298858Y-69217534D01*
X135298861Y-69217544D01*
X135355078Y-69353266D01*
X135355083Y-69353275D01*
X135436698Y-69475419D01*
X135436701Y-69475423D01*
X135540576Y-69579298D01*
X135540580Y-69579301D01*
X135662724Y-69660916D01*
X135662730Y-69660919D01*
X135662731Y-69660920D01*
X135798458Y-69717140D01*
X135942540Y-69745799D01*
X135942544Y-69745800D01*
X135942545Y-69745800D01*
X136089456Y-69745800D01*
X136089457Y-69745799D01*
X136233542Y-69717140D01*
X136369269Y-69660920D01*
X136491420Y-69579301D01*
X136595301Y-69475420D01*
X136676920Y-69353269D01*
X136733140Y-69217542D01*
X136761800Y-69073455D01*
X136761800Y-68926545D01*
X136733140Y-68782458D01*
X136706476Y-68718087D01*
X136699008Y-68648618D01*
X136730283Y-68586139D01*
X136790372Y-68550487D01*
X136860197Y-68552981D01*
X136908717Y-68582953D01*
X137223370Y-68897606D01*
X137511313Y-69185549D01*
X137544798Y-69246872D01*
X137539814Y-69316564D01*
X137497942Y-69372497D01*
X137492545Y-69376316D01*
X137490699Y-69377550D01*
X137489706Y-69378214D01*
X137489704Y-69378217D01*
X137378213Y-69489707D01*
X137378210Y-69489711D01*
X137290609Y-69620814D01*
X137290602Y-69620827D01*
X137230264Y-69766498D01*
X137230261Y-69766510D01*
X137199500Y-69921153D01*
X137199500Y-70078846D01*
X137230261Y-70233489D01*
X137230264Y-70233501D01*
X137290602Y-70379172D01*
X137290612Y-70379190D01*
X137361673Y-70485541D01*
X137382551Y-70552218D01*
X137364066Y-70619598D01*
X137312087Y-70666288D01*
X137282763Y-70676048D01*
X137251923Y-70682182D01*
X137251917Y-70682184D01*
X137097139Y-70746295D01*
X136957837Y-70839373D01*
X136839373Y-70957837D01*
X136746295Y-71097139D01*
X136682184Y-71251917D01*
X136682182Y-71251925D01*
X136649500Y-71416228D01*
X136649500Y-71583771D01*
X136682182Y-71748074D01*
X136682184Y-71748082D01*
X136746295Y-71902860D01*
X136839373Y-72042162D01*
X136935030Y-72137819D01*
X136968515Y-72199142D01*
X136963531Y-72268834D01*
X136921659Y-72324767D01*
X136856195Y-72349184D01*
X136847349Y-72349500D01*
X134902929Y-72349500D01*
X134880367Y-72342875D01*
X134856958Y-72340663D01*
X134847466Y-72333214D01*
X134835890Y-72329815D01*
X134820493Y-72312047D01*
X134801993Y-72297528D01*
X134796098Y-72283892D01*
X134790135Y-72277011D01*
X134785789Y-72266173D01*
X134782981Y-72258087D01*
X134769737Y-72191503D01*
X134709394Y-72045821D01*
X134709153Y-72045461D01*
X134707491Y-72040673D01*
X134705962Y-72009251D01*
X134702601Y-71977983D01*
X134704180Y-71972603D01*
X134704097Y-71970886D01*
X134705296Y-71968803D01*
X134710070Y-71952548D01*
X134749983Y-71856188D01*
X134769737Y-71808497D01*
X134800500Y-71653842D01*
X134800500Y-71496158D01*
X134800500Y-71496155D01*
X134800499Y-71496153D01*
X134786954Y-71428060D01*
X134769737Y-71341503D01*
X134769735Y-71341498D01*
X134709397Y-71195827D01*
X134709390Y-71195814D01*
X134621789Y-71064711D01*
X134621786Y-71064707D01*
X134510292Y-70953213D01*
X134510288Y-70953210D01*
X134379185Y-70865609D01*
X134379172Y-70865602D01*
X134233501Y-70805264D01*
X134233489Y-70805261D01*
X134078845Y-70774500D01*
X134078842Y-70774500D01*
X133921158Y-70774500D01*
X133921155Y-70774500D01*
X133766510Y-70805261D01*
X133766498Y-70805264D01*
X133620827Y-70865602D01*
X133620814Y-70865609D01*
X133489711Y-70953210D01*
X133489707Y-70953213D01*
X133378212Y-71064708D01*
X133356545Y-71097137D01*
X133341675Y-71119390D01*
X133335585Y-71124480D01*
X133332287Y-71131702D01*
X133309158Y-71146565D01*
X133288065Y-71164194D01*
X133278690Y-71166145D01*
X133273509Y-71169476D01*
X133238574Y-71174499D01*
X133175096Y-71174499D01*
X133108057Y-71154814D01*
X133087415Y-71138180D01*
X130823613Y-68874378D01*
X130790128Y-68813055D01*
X130788821Y-68767299D01*
X130795251Y-68726706D01*
X130816000Y-68595701D01*
X130816000Y-68404299D01*
X130786058Y-68215253D01*
X130726911Y-68033218D01*
X130640016Y-67862677D01*
X130583598Y-67785024D01*
X130527518Y-67707835D01*
X130527514Y-67707830D01*
X130392169Y-67572485D01*
X130392164Y-67572481D01*
X130237326Y-67459986D01*
X130237325Y-67459985D01*
X130237323Y-67459984D01*
X130066782Y-67373089D01*
X130050096Y-67367667D01*
X129992421Y-67328230D01*
X129965223Y-67263872D01*
X129977138Y-67195025D01*
X130024382Y-67143550D01*
X130050100Y-67131805D01*
X130066593Y-67126446D01*
X130237061Y-67039588D01*
X130265425Y-67018980D01*
X130265425Y-67018979D01*
X129696749Y-66450302D01*
X129777553Y-66428651D01*
X129882446Y-66368091D01*
X129968091Y-66282446D01*
X130028651Y-66177553D01*
X130050302Y-66096748D01*
X130618979Y-66665425D01*
X130618980Y-66665425D01*
X130639588Y-66637061D01*
X130726446Y-66466592D01*
X130785571Y-66284626D01*
X130815500Y-66095667D01*
X130815500Y-65904332D01*
X130785571Y-65715373D01*
X130726446Y-65533407D01*
X130639586Y-65362934D01*
X130618980Y-65334573D01*
X130618979Y-65334572D01*
X130050302Y-65903250D01*
X130028651Y-65822447D01*
X129968091Y-65717554D01*
X129882446Y-65631909D01*
X129777553Y-65571349D01*
X129696748Y-65549696D01*
X130265425Y-64981019D01*
X130237059Y-64960410D01*
X130066592Y-64873553D01*
X129884626Y-64814428D01*
X129695667Y-64784500D01*
X129642377Y-64784500D01*
X129575338Y-64764815D01*
X129529583Y-64712011D01*
X129519639Y-64642853D01*
X129534990Y-64598500D01*
X129599820Y-64486211D01*
X129599828Y-64486195D01*
X129711437Y-64216744D01*
X129786930Y-63935003D01*
X129824998Y-63645844D01*
X129825000Y-63645827D01*
X129825000Y-63354172D01*
X129824998Y-63354155D01*
X129786930Y-63064996D01*
X129711437Y-62783255D01*
X129599828Y-62513804D01*
X129599820Y-62513788D01*
X129453993Y-62261211D01*
X129453987Y-62261203D01*
X129340390Y-62113161D01*
X129340389Y-62113161D01*
X128572086Y-62881465D01*
X128477171Y-62750825D01*
X128349175Y-62622829D01*
X128218532Y-62527912D01*
X128986837Y-61759608D01*
X128838796Y-61646012D01*
X128838788Y-61646006D01*
X128586211Y-61500179D01*
X128586195Y-61500171D01*
X128316744Y-61388562D01*
X128035003Y-61313069D01*
X127745844Y-61275001D01*
X127745827Y-61275000D01*
X127454173Y-61275000D01*
X127454155Y-61275001D01*
X127164996Y-61313069D01*
X126883255Y-61388562D01*
X126613804Y-61500171D01*
X126613788Y-61500179D01*
X126361211Y-61646006D01*
X126361195Y-61646017D01*
X126213161Y-61759606D01*
X126213161Y-61759608D01*
X126981466Y-62527913D01*
X126850825Y-62622829D01*
X126722829Y-62750825D01*
X126627913Y-62881466D01*
X125859608Y-62113161D01*
X125859606Y-62113161D01*
X125746017Y-62261195D01*
X125746006Y-62261211D01*
X125600179Y-62513788D01*
X125600171Y-62513804D01*
X125488562Y-62783255D01*
X125413069Y-63064996D01*
X125375001Y-63354155D01*
X125375000Y-63354172D01*
X125375000Y-63645827D01*
X125375001Y-63645844D01*
X125413069Y-63935003D01*
X125488562Y-64216744D01*
X125600171Y-64486195D01*
X125600179Y-64486211D01*
X125746006Y-64738788D01*
X125746012Y-64738796D01*
X125859608Y-64886837D01*
X126627912Y-64118532D01*
X126722829Y-64249175D01*
X126850825Y-64377171D01*
X126981465Y-64472086D01*
X126213161Y-65240389D01*
X126213161Y-65240390D01*
X126361203Y-65353987D01*
X126361211Y-65353993D01*
X126613788Y-65499820D01*
X126613804Y-65499828D01*
X126883255Y-65611437D01*
X127164996Y-65686930D01*
X127454155Y-65724998D01*
X127454173Y-65725000D01*
X127745827Y-65725000D01*
X127745844Y-65724998D01*
X128035002Y-65686930D01*
X128251511Y-65628916D01*
X128321361Y-65630579D01*
X128379223Y-65669741D01*
X128406728Y-65733969D01*
X128406078Y-65768088D01*
X128384500Y-65904331D01*
X128384500Y-66095667D01*
X128414428Y-66284626D01*
X128414429Y-66284631D01*
X128431127Y-66336023D01*
X128433122Y-66405864D01*
X128397041Y-66465697D01*
X128334340Y-66496524D01*
X128264925Y-66488559D01*
X128243337Y-66475511D01*
X128242847Y-66476245D01*
X128073920Y-66363371D01*
X128073907Y-66363364D01*
X127891839Y-66287950D01*
X127891829Y-66287947D01*
X127698543Y-66249500D01*
X127698541Y-66249500D01*
X127501459Y-66249500D01*
X127501457Y-66249500D01*
X127308170Y-66287947D01*
X127308160Y-66287950D01*
X127126092Y-66363364D01*
X127126079Y-66363371D01*
X126962218Y-66472860D01*
X126962214Y-66472863D01*
X126822863Y-66612214D01*
X126822861Y-66612217D01*
X126713371Y-66776079D01*
X126713364Y-66776092D01*
X126637950Y-66958160D01*
X126637947Y-66958170D01*
X126599500Y-67151456D01*
X126599500Y-67151459D01*
X126599500Y-67348541D01*
X126599500Y-67348543D01*
X126599499Y-67348543D01*
X126637947Y-67541829D01*
X126637950Y-67541839D01*
X126713364Y-67723907D01*
X126713371Y-67723920D01*
X126822860Y-67887781D01*
X126822863Y-67887785D01*
X126962214Y-68027136D01*
X126962218Y-68027139D01*
X127126079Y-68136628D01*
X127126092Y-68136635D01*
X127283156Y-68201692D01*
X127308165Y-68212051D01*
X127308169Y-68212051D01*
X127308170Y-68212052D01*
X127501456Y-68250500D01*
X127501459Y-68250500D01*
X127698543Y-68250500D01*
X127829250Y-68224500D01*
X127891835Y-68212051D01*
X128073914Y-68136632D01*
X128098529Y-68120185D01*
X128242847Y-68023755D01*
X128244317Y-68025955D01*
X128298020Y-68003093D01*
X128366898Y-68014826D01*
X128418498Y-68061934D01*
X128436438Y-68129461D01*
X128430412Y-68164563D01*
X128414983Y-68212051D01*
X128413941Y-68215257D01*
X128384000Y-68404299D01*
X128384000Y-68595700D01*
X128413941Y-68784744D01*
X128413942Y-68784747D01*
X128473089Y-68966782D01*
X128549213Y-69116184D01*
X128559986Y-69137326D01*
X128672481Y-69292164D01*
X128672485Y-69292169D01*
X128792635Y-69412319D01*
X128826120Y-69473642D01*
X128821136Y-69543334D01*
X128792635Y-69587681D01*
X128672485Y-69707830D01*
X128672481Y-69707835D01*
X128559986Y-69862673D01*
X128473090Y-70033215D01*
X128413941Y-70215255D01*
X128384000Y-70404299D01*
X128384000Y-70595700D01*
X128413941Y-70784744D01*
X128413942Y-70784748D01*
X128430411Y-70835435D01*
X128432406Y-70905276D01*
X128396325Y-70965109D01*
X128333624Y-70995936D01*
X128264209Y-70987971D01*
X128243409Y-70975402D01*
X128242847Y-70976245D01*
X128073920Y-70863371D01*
X128073907Y-70863364D01*
X127891839Y-70787950D01*
X127891829Y-70787947D01*
X127698543Y-70749500D01*
X127698541Y-70749500D01*
X127501459Y-70749500D01*
X127501457Y-70749500D01*
X127308170Y-70787947D01*
X127308160Y-70787950D01*
X127126092Y-70863364D01*
X127126079Y-70863371D01*
X126962218Y-70972860D01*
X126962214Y-70972863D01*
X126822863Y-71112214D01*
X126822860Y-71112218D01*
X126713371Y-71276079D01*
X126713364Y-71276092D01*
X126637950Y-71458160D01*
X126637947Y-71458170D01*
X126599500Y-71651456D01*
X126599500Y-71651459D01*
X126599500Y-71848541D01*
X126599500Y-71848543D01*
X126599499Y-71848543D01*
X126637947Y-72041829D01*
X126637950Y-72041839D01*
X126713364Y-72223907D01*
X126713371Y-72223920D01*
X126822860Y-72387781D01*
X126822863Y-72387785D01*
X126962214Y-72527136D01*
X126962218Y-72527139D01*
X127126079Y-72636628D01*
X127126092Y-72636635D01*
X127279071Y-72700000D01*
X127308165Y-72712051D01*
X127308169Y-72712051D01*
X127308170Y-72712052D01*
X127501456Y-72750500D01*
X127501459Y-72750500D01*
X127698543Y-72750500D01*
X127835238Y-72723309D01*
X127891835Y-72712051D01*
X128073914Y-72636632D01*
X128087565Y-72627511D01*
X128242847Y-72523755D01*
X128244317Y-72525955D01*
X128298020Y-72503093D01*
X128366898Y-72514826D01*
X128418498Y-72561934D01*
X128436438Y-72629461D01*
X128430412Y-72664563D01*
X128425294Y-72680315D01*
X128414983Y-72712051D01*
X128413941Y-72715257D01*
X128396939Y-72822606D01*
X128384000Y-72904299D01*
X128384000Y-73095701D01*
X128404724Y-73226546D01*
X128405551Y-73231768D01*
X128396596Y-73301062D01*
X128351600Y-73354514D01*
X128284849Y-73375153D01*
X128250985Y-73370941D01*
X128035005Y-73313069D01*
X127745844Y-73275001D01*
X127745827Y-73275000D01*
X127454173Y-73275000D01*
X127454155Y-73275001D01*
X127164996Y-73313069D01*
X126883255Y-73388562D01*
X126613804Y-73500171D01*
X126613788Y-73500179D01*
X126361211Y-73646006D01*
X126361195Y-73646017D01*
X126213161Y-73759606D01*
X126213161Y-73759608D01*
X126981466Y-74527913D01*
X126850825Y-74622829D01*
X126722829Y-74750825D01*
X126627913Y-74881466D01*
X125859608Y-74113161D01*
X125859606Y-74113161D01*
X125746017Y-74261195D01*
X125746006Y-74261211D01*
X125600179Y-74513788D01*
X125600171Y-74513804D01*
X125488562Y-74783255D01*
X125413069Y-75064996D01*
X125375001Y-75354155D01*
X125375000Y-75354172D01*
X125375000Y-75645827D01*
X125375001Y-75645844D01*
X125413069Y-75935003D01*
X125488562Y-76216744D01*
X125600171Y-76486195D01*
X125600179Y-76486211D01*
X125746006Y-76738788D01*
X125746012Y-76738796D01*
X125859608Y-76886837D01*
X126627912Y-76118532D01*
X126722829Y-76249175D01*
X126850825Y-76377171D01*
X126981465Y-76472086D01*
X126213161Y-77240390D01*
X126361203Y-77353987D01*
X126361211Y-77353993D01*
X126613788Y-77499820D01*
X126613804Y-77499828D01*
X126883255Y-77611437D01*
X127164996Y-77686930D01*
X127454155Y-77724998D01*
X127454173Y-77725000D01*
X127745827Y-77725000D01*
X127745844Y-77724998D01*
X128035003Y-77686930D01*
X128316744Y-77611437D01*
X128586195Y-77499828D01*
X128586211Y-77499820D01*
X128838788Y-77353993D01*
X128838806Y-77353981D01*
X128986837Y-77240391D01*
X128986837Y-77240389D01*
X128218533Y-76472086D01*
X128349175Y-76377171D01*
X128477171Y-76249175D01*
X128572086Y-76118533D01*
X129340389Y-76886837D01*
X129340391Y-76886837D01*
X129453981Y-76738806D01*
X129453993Y-76738788D01*
X129599820Y-76486211D01*
X129599828Y-76486195D01*
X129711437Y-76216744D01*
X129786930Y-75935003D01*
X129824998Y-75645844D01*
X129825000Y-75645827D01*
X129825000Y-75354172D01*
X129824998Y-75354155D01*
X129786930Y-75064996D01*
X129711437Y-74783255D01*
X129599828Y-74513804D01*
X129599823Y-74513795D01*
X129535278Y-74402001D01*
X129518805Y-74334101D01*
X129541657Y-74268074D01*
X129596578Y-74224883D01*
X129642665Y-74216000D01*
X129695700Y-74216000D01*
X129695701Y-74216000D01*
X129884747Y-74186058D01*
X130066782Y-74126911D01*
X130237323Y-74040016D01*
X130392171Y-73927513D01*
X130527513Y-73792171D01*
X130593304Y-73701615D01*
X130648633Y-73658949D01*
X130693623Y-73650500D01*
X140266692Y-73650500D01*
X140333731Y-73670185D01*
X140354373Y-73686819D01*
X140538181Y-73870627D01*
X140571666Y-73931950D01*
X140574500Y-73958308D01*
X140574500Y-74500001D01*
X140574501Y-74500019D01*
X140585000Y-74602796D01*
X140585001Y-74602799D01*
X140619033Y-74705500D01*
X140640186Y-74769334D01*
X140732288Y-74918656D01*
X140856344Y-75042712D01*
X141005666Y-75134814D01*
X141172203Y-75189999D01*
X141274991Y-75200500D01*
X141900008Y-75200499D01*
X141900016Y-75200498D01*
X141900019Y-75200498D01*
X141981769Y-75192147D01*
X142002797Y-75189999D01*
X142169334Y-75134814D01*
X142174468Y-75131646D01*
X142241860Y-75113206D01*
X142308524Y-75134128D01*
X142327247Y-75149504D01*
X147988117Y-80810374D01*
X147988127Y-80810385D01*
X147992457Y-80814715D01*
X147992458Y-80814716D01*
X148104262Y-80926520D01*
X148191073Y-80976639D01*
X148191075Y-80976641D01*
X148241191Y-81005576D01*
X148241193Y-81005577D01*
X148393920Y-81046500D01*
X148393921Y-81046500D01*
X151129137Y-81046500D01*
X151129153Y-81046501D01*
X151136749Y-81046501D01*
X151294860Y-81046501D01*
X151294863Y-81046501D01*
X151447591Y-81005577D01*
X151497710Y-80976639D01*
X151584522Y-80926520D01*
X151696326Y-80814716D01*
X151696326Y-80814714D01*
X151706534Y-80804507D01*
X151706536Y-80804504D01*
X151879506Y-80631534D01*
X151879511Y-80631530D01*
X151889714Y-80621326D01*
X151889716Y-80621326D01*
X152001520Y-80509522D01*
X152080577Y-80372590D01*
X152121500Y-80219863D01*
X152121500Y-77548337D01*
X152126827Y-77530193D01*
X152127165Y-77511284D01*
X152140665Y-77483066D01*
X152141185Y-77481298D01*
X152142398Y-77479446D01*
X152207224Y-77382427D01*
X152260836Y-77337622D01*
X152330161Y-77328915D01*
X152375424Y-77345780D01*
X152441511Y-77386544D01*
X152441518Y-77386547D01*
X152602393Y-77439855D01*
X152701683Y-77449999D01*
X153250000Y-77449999D01*
X153298308Y-77449999D01*
X153298322Y-77449998D01*
X153397607Y-77439855D01*
X153558481Y-77386547D01*
X153558492Y-77386542D01*
X153702728Y-77297575D01*
X153702732Y-77297572D01*
X153822572Y-77177732D01*
X153822575Y-77177728D01*
X153911542Y-77033492D01*
X153911547Y-77033481D01*
X153964855Y-76872606D01*
X153974999Y-76773322D01*
X153975000Y-76773309D01*
X153975000Y-76750000D01*
X153250000Y-76750000D01*
X153250000Y-77449999D01*
X152701683Y-77449999D01*
X152749999Y-77449998D01*
X152750000Y-77449998D01*
X152750000Y-76624000D01*
X152769685Y-76556961D01*
X152822489Y-76511206D01*
X152874000Y-76500000D01*
X153000000Y-76500000D01*
X153000000Y-76374000D01*
X153019685Y-76306961D01*
X153072489Y-76261206D01*
X153124000Y-76250000D01*
X153974999Y-76250000D01*
X153974999Y-76226692D01*
X153974998Y-76226677D01*
X153964855Y-76127392D01*
X153911547Y-75966518D01*
X153911542Y-75966507D01*
X153822575Y-75822271D01*
X153822572Y-75822267D01*
X153813339Y-75813034D01*
X153779854Y-75751711D01*
X153784838Y-75682019D01*
X153813343Y-75637668D01*
X153822968Y-75628044D01*
X153912003Y-75483697D01*
X153965349Y-75322708D01*
X153975500Y-75223345D01*
X153975499Y-74676656D01*
X153975341Y-74675112D01*
X153965349Y-74577292D01*
X153965348Y-74577289D01*
X153912003Y-74416303D01*
X153889134Y-74379227D01*
X153888895Y-74378355D01*
X153888231Y-74377740D01*
X153879696Y-74344734D01*
X153870694Y-74311836D01*
X153870890Y-74310681D01*
X153870739Y-74310096D01*
X153871916Y-74304640D01*
X153876896Y-74275343D01*
X153878339Y-74270958D01*
X153887816Y-74248082D01*
X153890777Y-74233192D01*
X153893141Y-74226016D01*
X153908853Y-74203232D01*
X153921680Y-74178708D01*
X153929387Y-74173457D01*
X153932808Y-74168498D01*
X153942795Y-74164324D01*
X153963464Y-74150244D01*
X154007537Y-74131989D01*
X154146836Y-74038912D01*
X154265300Y-73920448D01*
X154358377Y-73781149D01*
X154422490Y-73626368D01*
X154455174Y-73462053D01*
X154455174Y-73294519D01*
X154422490Y-73130204D01*
X154407566Y-73094176D01*
X154400098Y-73024709D01*
X154431372Y-72962230D01*
X154491461Y-72926577D01*
X154561286Y-72929070D01*
X154609809Y-72959044D01*
X155488181Y-73837416D01*
X155521666Y-73898739D01*
X155524500Y-73925097D01*
X155524500Y-74273337D01*
X155524501Y-74273355D01*
X155534650Y-74372707D01*
X155534651Y-74372710D01*
X155587996Y-74533694D01*
X155588001Y-74533705D01*
X155677029Y-74678040D01*
X155677032Y-74678044D01*
X155796955Y-74797967D01*
X155796959Y-74797970D01*
X155941294Y-74886998D01*
X155941297Y-74886999D01*
X155941303Y-74887003D01*
X156102292Y-74940349D01*
X156201655Y-74950500D01*
X156798344Y-74950499D01*
X156798352Y-74950498D01*
X156798355Y-74950498D01*
X156852760Y-74944940D01*
X156897708Y-74940349D01*
X157058697Y-74887003D01*
X157203044Y-74797968D01*
X157322968Y-74678044D01*
X157334465Y-74659403D01*
X157342051Y-74652580D01*
X157346291Y-74643297D01*
X157367589Y-74629609D01*
X157386412Y-74612679D01*
X157398048Y-74610034D01*
X157405069Y-74605523D01*
X157440004Y-74600500D01*
X157504315Y-74600500D01*
X157571354Y-74620185D01*
X157609851Y-74659400D01*
X157637500Y-74704225D01*
X157638220Y-74705392D01*
X157757108Y-74824280D01*
X157757112Y-74824283D01*
X157900204Y-74912544D01*
X157900207Y-74912545D01*
X157900213Y-74912549D01*
X158059815Y-74965436D01*
X158158326Y-74975500D01*
X158158331Y-74975500D01*
X158691669Y-74975500D01*
X158691674Y-74975500D01*
X158790185Y-74965436D01*
X158949787Y-74912549D01*
X159092891Y-74824281D01*
X159124819Y-74792353D01*
X159186142Y-74758868D01*
X159255834Y-74763852D01*
X159300181Y-74792353D01*
X159332108Y-74824280D01*
X159332112Y-74824283D01*
X159475204Y-74912544D01*
X159475207Y-74912545D01*
X159475213Y-74912549D01*
X159634815Y-74965436D01*
X159733326Y-74975500D01*
X159733331Y-74975500D01*
X160266669Y-74975500D01*
X160266674Y-74975500D01*
X160365185Y-74965436D01*
X160524787Y-74912549D01*
X160667891Y-74824281D01*
X160786781Y-74705391D01*
X160815148Y-74659401D01*
X160822733Y-74652578D01*
X160826972Y-74643297D01*
X160848271Y-74629608D01*
X160867094Y-74612679D01*
X160878729Y-74610034D01*
X160885750Y-74605523D01*
X160920685Y-74600500D01*
X161059996Y-74600500D01*
X161127035Y-74620185D01*
X161165535Y-74659404D01*
X161177031Y-74678043D01*
X161296955Y-74797967D01*
X161296959Y-74797970D01*
X161441294Y-74886998D01*
X161441297Y-74886999D01*
X161441303Y-74887003D01*
X161602292Y-74940349D01*
X161701655Y-74950500D01*
X162298344Y-74950499D01*
X162298352Y-74950498D01*
X162298355Y-74950498D01*
X162352760Y-74944940D01*
X162397708Y-74940349D01*
X162558697Y-74887003D01*
X162703044Y-74797968D01*
X162822968Y-74678044D01*
X162834465Y-74659403D01*
X162842051Y-74652580D01*
X162846291Y-74643297D01*
X162867589Y-74629609D01*
X162886412Y-74612679D01*
X162898048Y-74610034D01*
X162905069Y-74605523D01*
X162940004Y-74600500D01*
X163079315Y-74600500D01*
X163146354Y-74620185D01*
X163184851Y-74659400D01*
X163212500Y-74704225D01*
X163213220Y-74705392D01*
X163332108Y-74824280D01*
X163332112Y-74824283D01*
X163475204Y-74912544D01*
X163475207Y-74912545D01*
X163475213Y-74912549D01*
X163634815Y-74965436D01*
X163733326Y-74975500D01*
X163733331Y-74975500D01*
X164266669Y-74975500D01*
X164266674Y-74975500D01*
X164365185Y-74965436D01*
X164524787Y-74912549D01*
X164667891Y-74824281D01*
X164699819Y-74792353D01*
X164761142Y-74758868D01*
X164830834Y-74763852D01*
X164858696Y-74778510D01*
X164867540Y-74784712D01*
X164907109Y-74824281D01*
X165045832Y-74909846D01*
X165077402Y-74930941D01*
X165268580Y-75010130D01*
X165432372Y-75042710D01*
X165471530Y-75050499D01*
X165471534Y-75050500D01*
X168038429Y-75050500D01*
X168051354Y-75054295D01*
X168064793Y-75053335D01*
X168084226Y-75063947D01*
X168105468Y-75070185D01*
X168114289Y-75080365D01*
X168126114Y-75086823D01*
X168136724Y-75106256D01*
X168151223Y-75122989D01*
X168153140Y-75136324D01*
X168159596Y-75148148D01*
X168158015Y-75170230D01*
X168161167Y-75192147D01*
X168155461Y-75205919D01*
X168154609Y-75217839D01*
X168137695Y-75248809D01*
X168114847Y-75279330D01*
X168111471Y-75283840D01*
X168105921Y-75290726D01*
X168074746Y-75326704D01*
X168074746Y-75326705D01*
X168073023Y-75330477D01*
X168059507Y-75353254D01*
X168056210Y-75357658D01*
X168056204Y-75357669D01*
X168036591Y-75410251D01*
X168014976Y-75457584D01*
X168012490Y-75474867D01*
X168007836Y-75487346D01*
X168005910Y-75492510D01*
X168005909Y-75492516D01*
X167999500Y-75552118D01*
X167999500Y-75556354D01*
X167998238Y-75573999D01*
X167994500Y-75599996D01*
X167994500Y-76500000D01*
X167999645Y-76571942D01*
X168000372Y-76574418D01*
X168003499Y-76585069D01*
X168005909Y-76607483D01*
X168025515Y-76660052D01*
X168026763Y-76664301D01*
X168026765Y-76664306D01*
X168040180Y-76709990D01*
X168042415Y-76713468D01*
X168054275Y-76737161D01*
X168056201Y-76742326D01*
X168056205Y-76742332D01*
X168081915Y-76776677D01*
X168089841Y-76787264D01*
X168117969Y-76831032D01*
X168131165Y-76842466D01*
X168139155Y-76853139D01*
X168139155Y-76853140D01*
X168139156Y-76853141D01*
X168142453Y-76857546D01*
X168162415Y-76872489D01*
X168187380Y-76891178D01*
X168226706Y-76925254D01*
X168242589Y-76932507D01*
X168253263Y-76940498D01*
X168253263Y-76940499D01*
X168257664Y-76943793D01*
X168257669Y-76943796D01*
X168310251Y-76963408D01*
X168357584Y-76985024D01*
X168374870Y-76987509D01*
X168392517Y-76994091D01*
X168430567Y-76998182D01*
X168452116Y-77000499D01*
X168452118Y-77000499D01*
X168452127Y-77000500D01*
X168456352Y-77000499D01*
X168472537Y-77001559D01*
X168473211Y-77001647D01*
X168500000Y-77005500D01*
X168502483Y-77005500D01*
X168509086Y-77006369D01*
X168537791Y-77019066D01*
X168567209Y-77030036D01*
X168569495Y-77033089D01*
X168572984Y-77034633D01*
X168590269Y-77060836D01*
X168609085Y-77085966D01*
X168609357Y-77089770D01*
X168611458Y-77092955D01*
X168611833Y-77124347D01*
X168614075Y-77155657D01*
X168612263Y-77160343D01*
X168612293Y-77162820D01*
X168609712Y-77166942D01*
X168600294Y-77191309D01*
X168533609Y-77306810D01*
X168533609Y-77306811D01*
X168499500Y-77434108D01*
X168499500Y-81875500D01*
X168479815Y-81942539D01*
X168427011Y-81988294D01*
X168375500Y-81999500D01*
X125086424Y-81999500D01*
X125019385Y-81979815D01*
X124973630Y-81927011D01*
X124962425Y-81875118D01*
X124968564Y-79879786D01*
X124971598Y-78893713D01*
X132649500Y-78893713D01*
X132649500Y-79106287D01*
X132682754Y-79316243D01*
X132744932Y-79507607D01*
X132748444Y-79518414D01*
X132844951Y-79707820D01*
X132969890Y-79879786D01*
X133120213Y-80030109D01*
X133292179Y-80155048D01*
X133292181Y-80155049D01*
X133292184Y-80155051D01*
X133481588Y-80251557D01*
X133683757Y-80317246D01*
X133893713Y-80350500D01*
X133893714Y-80350500D01*
X134106286Y-80350500D01*
X134106287Y-80350500D01*
X134316243Y-80317246D01*
X134518412Y-80251557D01*
X134707816Y-80155051D01*
X134729789Y-80139086D01*
X134879786Y-80030109D01*
X134879788Y-80030106D01*
X134879792Y-80030104D01*
X135030104Y-79879792D01*
X135030106Y-79879788D01*
X135030109Y-79879786D01*
X135155048Y-79707820D01*
X135155047Y-79707820D01*
X135155051Y-79707816D01*
X135251557Y-79518412D01*
X135317246Y-79316243D01*
X135350500Y-79106287D01*
X135350500Y-78893713D01*
X135317246Y-78683757D01*
X135251557Y-78481588D01*
X135155051Y-78292184D01*
X135155049Y-78292181D01*
X135155048Y-78292179D01*
X135030109Y-78120213D01*
X134879786Y-77969890D01*
X134707820Y-77844951D01*
X134518414Y-77748444D01*
X134518413Y-77748443D01*
X134518412Y-77748443D01*
X134316243Y-77682754D01*
X134316241Y-77682753D01*
X134316240Y-77682753D01*
X134154957Y-77657208D01*
X134106287Y-77649500D01*
X133893713Y-77649500D01*
X133845042Y-77657208D01*
X133683760Y-77682753D01*
X133481585Y-77748444D01*
X133292179Y-77844951D01*
X133120213Y-77969890D01*
X132969890Y-78120213D01*
X132844951Y-78292179D01*
X132748444Y-78481585D01*
X132682753Y-78683760D01*
X132650332Y-78888459D01*
X132649500Y-78893713D01*
X124971598Y-78893713D01*
X124979736Y-76248995D01*
X124982503Y-75349725D01*
X125019426Y-63349725D01*
X125021511Y-62671940D01*
X125030060Y-59893713D01*
X132649500Y-59893713D01*
X132649500Y-60106286D01*
X132679920Y-60298355D01*
X132682754Y-60316243D01*
X132738819Y-60488794D01*
X132748444Y-60518414D01*
X132844951Y-60707820D01*
X132969890Y-60879786D01*
X133120213Y-61030109D01*
X133292179Y-61155048D01*
X133292181Y-61155049D01*
X133292184Y-61155051D01*
X133481588Y-61251557D01*
X133683757Y-61317246D01*
X133893713Y-61350500D01*
X133893714Y-61350500D01*
X134106286Y-61350500D01*
X134106287Y-61350500D01*
X134316243Y-61317246D01*
X134518412Y-61251557D01*
X134707816Y-61155051D01*
X134773200Y-61107547D01*
X134879786Y-61030109D01*
X134879788Y-61030106D01*
X134879792Y-61030104D01*
X135030104Y-60879792D01*
X135030106Y-60879788D01*
X135030109Y-60879786D01*
X135155048Y-60707820D01*
X135155047Y-60707820D01*
X135155051Y-60707816D01*
X135251557Y-60518412D01*
X135317246Y-60316243D01*
X135350500Y-60106287D01*
X135350500Y-59893713D01*
X135317246Y-59683757D01*
X135251557Y-59481588D01*
X135155051Y-59292184D01*
X135155049Y-59292181D01*
X135155048Y-59292179D01*
X135030109Y-59120213D01*
X134879786Y-58969890D01*
X134707820Y-58844951D01*
X134518414Y-58748444D01*
X134518413Y-58748443D01*
X134518412Y-58748443D01*
X134316243Y-58682754D01*
X134316241Y-58682753D01*
X134316240Y-58682753D01*
X134154957Y-58657208D01*
X134106287Y-58649500D01*
X133893713Y-58649500D01*
X133845042Y-58657208D01*
X133683760Y-58682753D01*
X133481585Y-58748444D01*
X133292179Y-58844951D01*
X133120213Y-58969890D01*
X132969890Y-59120213D01*
X132844951Y-59292179D01*
X132748444Y-59481585D01*
X132682753Y-59683760D01*
X132649500Y-59893713D01*
X125030060Y-59893713D01*
X125030076Y-59888459D01*
X125038582Y-57124118D01*
X125058472Y-57057140D01*
X125111417Y-57011548D01*
X125162581Y-57000500D01*
X168375500Y-57000500D01*
X168442539Y-57020185D01*
G37*
%TD.AperFunction*%
%TA.AperFunction,Conductor*%
G36*
X147920943Y-71900501D02*
G01*
X148079057Y-71900501D01*
X148079061Y-71900500D01*
X148515492Y-71900500D01*
X148562942Y-71909938D01*
X148565528Y-71911009D01*
X148591693Y-71914453D01*
X148655589Y-71942718D01*
X148694061Y-72001042D01*
X148694894Y-72070906D01*
X148663190Y-72125073D01*
X148134665Y-72653598D01*
X148134659Y-72653604D01*
X148131286Y-72656978D01*
X148131284Y-72656980D01*
X148019480Y-72768784D01*
X147991172Y-72817816D01*
X147985426Y-72827766D01*
X147985425Y-72827769D01*
X147940424Y-72905713D01*
X147940423Y-72905715D01*
X147899499Y-73058443D01*
X147899499Y-73058445D01*
X147899499Y-73226546D01*
X147899500Y-73226559D01*
X147899500Y-74569574D01*
X147879815Y-74636613D01*
X147840598Y-74675112D01*
X147796957Y-74702030D01*
X147677029Y-74821959D01*
X147588001Y-74966294D01*
X147587996Y-74966305D01*
X147534651Y-75127290D01*
X147524500Y-75226647D01*
X147524500Y-75773337D01*
X147524501Y-75773355D01*
X147534650Y-75872707D01*
X147534651Y-75872710D01*
X147587996Y-76033694D01*
X147588001Y-76033705D01*
X147677029Y-76178040D01*
X147677032Y-76178044D01*
X147686660Y-76187672D01*
X147720145Y-76248995D01*
X147715161Y-76318687D01*
X147686663Y-76363031D01*
X147677428Y-76372265D01*
X147677424Y-76372271D01*
X147588457Y-76516507D01*
X147588452Y-76516518D01*
X147535144Y-76677393D01*
X147525000Y-76776677D01*
X147525000Y-76800000D01*
X148376000Y-76800000D01*
X148443039Y-76819685D01*
X148488794Y-76872489D01*
X148500000Y-76924000D01*
X148500000Y-77050000D01*
X148626000Y-77050000D01*
X148693039Y-77069685D01*
X148738794Y-77122489D01*
X148750000Y-77174000D01*
X148750000Y-77999999D01*
X148798308Y-77999999D01*
X148798322Y-77999998D01*
X148897607Y-77989855D01*
X149058481Y-77936547D01*
X149058492Y-77936542D01*
X149202728Y-77847575D01*
X149202732Y-77847572D01*
X149262818Y-77787487D01*
X149324141Y-77754002D01*
X149393833Y-77758986D01*
X149449766Y-77800858D01*
X149474183Y-77866322D01*
X149474499Y-77875168D01*
X149474499Y-79155380D01*
X149474498Y-79155398D01*
X149474498Y-79321104D01*
X149474497Y-79321104D01*
X149515422Y-79473835D01*
X149534920Y-79507606D01*
X149534920Y-79507607D01*
X149554565Y-79541633D01*
X149571038Y-79609533D01*
X149568795Y-79627824D01*
X149550127Y-79721674D01*
X149549530Y-79727740D01*
X149548329Y-79727621D01*
X149530442Y-79788539D01*
X149477638Y-79834294D01*
X149426127Y-79845500D01*
X148773075Y-79845500D01*
X148706036Y-79825815D01*
X148685394Y-79809181D01*
X146199535Y-77323322D01*
X147525001Y-77323322D01*
X147535144Y-77422607D01*
X147588452Y-77583481D01*
X147588457Y-77583492D01*
X147677424Y-77727728D01*
X147677427Y-77727732D01*
X147797267Y-77847572D01*
X147797271Y-77847575D01*
X147941507Y-77936542D01*
X147941518Y-77936547D01*
X148102393Y-77989855D01*
X148201683Y-77999999D01*
X148249999Y-77999998D01*
X148250000Y-77999998D01*
X148250000Y-77300000D01*
X147525001Y-77300000D01*
X147525001Y-77323322D01*
X146199535Y-77323322D01*
X144115550Y-75239337D01*
X144082065Y-75178014D01*
X144087049Y-75108322D01*
X144128921Y-75052389D01*
X144138140Y-75046114D01*
X144143656Y-75042712D01*
X144267712Y-74918656D01*
X144359814Y-74769334D01*
X144395870Y-74660522D01*
X144396345Y-74659837D01*
X144396385Y-74659000D01*
X144416201Y-74631158D01*
X144435641Y-74603080D01*
X144436575Y-74602532D01*
X144436900Y-74602076D01*
X144440002Y-74600522D01*
X144467461Y-74584422D01*
X144474326Y-74581671D01*
X144556785Y-74559577D01*
X144611022Y-74528263D01*
X144693716Y-74480520D01*
X144805520Y-74368716D01*
X144805520Y-74368714D01*
X144815724Y-74358511D01*
X144815728Y-74358506D01*
X146662416Y-72511818D01*
X146723739Y-72478333D01*
X146750097Y-72475499D01*
X147098338Y-72475499D01*
X147098344Y-72475499D01*
X147098352Y-72475498D01*
X147098355Y-72475498D01*
X147167830Y-72468401D01*
X147197708Y-72465349D01*
X147358697Y-72412003D01*
X147503044Y-72322968D01*
X147622968Y-72203044D01*
X147712003Y-72058697D01*
X147736259Y-71985495D01*
X147776032Y-71928051D01*
X147840547Y-71901228D01*
X147853965Y-71900500D01*
X147920939Y-71900500D01*
X147920943Y-71900501D01*
G37*
%TD.AperFunction*%
%TA.AperFunction,Conductor*%
G36*
X144591942Y-68120185D02*
G01*
X144612584Y-68136819D01*
X144841747Y-68365982D01*
X144875232Y-68427305D01*
X144870248Y-68496997D01*
X144828376Y-68552930D01*
X144793072Y-68571368D01*
X144741522Y-68588450D01*
X144741507Y-68588457D01*
X144597271Y-68677424D01*
X144597267Y-68677427D01*
X144477427Y-68797267D01*
X144477424Y-68797271D01*
X144388457Y-68941507D01*
X144388452Y-68941518D01*
X144335144Y-69102393D01*
X144325000Y-69201677D01*
X144325000Y-69250000D01*
X145151000Y-69250000D01*
X145218039Y-69269685D01*
X145263794Y-69322489D01*
X145275000Y-69374000D01*
X145275000Y-69500000D01*
X145401000Y-69500000D01*
X145468039Y-69519685D01*
X145513794Y-69572489D01*
X145525000Y-69624000D01*
X145525000Y-71376000D01*
X145505315Y-71443039D01*
X145452511Y-71488794D01*
X145401000Y-71500000D01*
X145275000Y-71500000D01*
X145275000Y-71626000D01*
X145255315Y-71693039D01*
X145202511Y-71738794D01*
X145151000Y-71750000D01*
X144325001Y-71750000D01*
X144325001Y-71798322D01*
X144335144Y-71897607D01*
X144388452Y-72058481D01*
X144388457Y-72058492D01*
X144477424Y-72202728D01*
X144477427Y-72202732D01*
X144597267Y-72322572D01*
X144597271Y-72322575D01*
X144741507Y-72411542D01*
X144741520Y-72411548D01*
X144793068Y-72428629D01*
X144850513Y-72468401D01*
X144877337Y-72532916D01*
X144865022Y-72601692D01*
X144841746Y-72634016D01*
X144418746Y-73057016D01*
X144357423Y-73090501D01*
X144287731Y-73085517D01*
X144243384Y-73057016D01*
X144143657Y-72957289D01*
X144143656Y-72957288D01*
X144049965Y-72899499D01*
X143994336Y-72865187D01*
X143994331Y-72865185D01*
X143992862Y-72864698D01*
X143827797Y-72810001D01*
X143827795Y-72810000D01*
X143725016Y-72799500D01*
X143725009Y-72799500D01*
X143403500Y-72799500D01*
X143336461Y-72779815D01*
X143290706Y-72727011D01*
X143279500Y-72675500D01*
X143279500Y-71201677D01*
X144325000Y-71201677D01*
X144325000Y-71250000D01*
X145025000Y-71250000D01*
X145025000Y-69750000D01*
X144325001Y-69750000D01*
X144325001Y-69798322D01*
X144335144Y-69897607D01*
X144388452Y-70058481D01*
X144388457Y-70058492D01*
X144477424Y-70202728D01*
X144477427Y-70202732D01*
X144597267Y-70322572D01*
X144597271Y-70322575D01*
X144713816Y-70394462D01*
X144760541Y-70446410D01*
X144771762Y-70515373D01*
X144743919Y-70579455D01*
X144713816Y-70605538D01*
X144597271Y-70677424D01*
X144597267Y-70677427D01*
X144477427Y-70797267D01*
X144477424Y-70797271D01*
X144388457Y-70941507D01*
X144388452Y-70941518D01*
X144335144Y-71102393D01*
X144325000Y-71201677D01*
X143279500Y-71201677D01*
X143279500Y-68224500D01*
X143299185Y-68157461D01*
X143351989Y-68111706D01*
X143403500Y-68100500D01*
X144524903Y-68100500D01*
X144591942Y-68120185D01*
G37*
%TD.AperFunction*%
%TA.AperFunction,Conductor*%
G36*
X150917298Y-67894788D02*
G01*
X150922039Y-67894280D01*
X150938228Y-67899033D01*
X150942688Y-67899938D01*
X150952459Y-67903426D01*
X150953571Y-67904279D01*
X151090528Y-67961009D01*
X151200599Y-67975500D01*
X151399400Y-67975499D01*
X151483820Y-67964385D01*
X151516177Y-67964385D01*
X151600599Y-67975500D01*
X151799400Y-67975499D01*
X151883820Y-67964385D01*
X151916177Y-67964385D01*
X152000599Y-67975500D01*
X152199400Y-67975499D01*
X152283820Y-67964385D01*
X152316177Y-67964385D01*
X152400599Y-67975500D01*
X152599400Y-67975499D01*
X152683823Y-67964384D01*
X152707514Y-67963552D01*
X152711849Y-67963815D01*
X152800599Y-67975500D01*
X152904269Y-67975499D01*
X152908016Y-67975727D01*
X152937482Y-67986357D01*
X152967538Y-67995183D01*
X152970083Y-67998119D01*
X152973739Y-67999439D01*
X152992777Y-68024310D01*
X153013294Y-68047986D01*
X153014243Y-68052351D01*
X153016209Y-68054919D01*
X153017065Y-68065324D01*
X153024500Y-68099498D01*
X153024500Y-68199401D01*
X153035613Y-68283814D01*
X153035613Y-68316183D01*
X153024500Y-68400597D01*
X153024500Y-68599401D01*
X153035613Y-68683814D01*
X153035613Y-68716183D01*
X153024500Y-68800597D01*
X153024500Y-68999401D01*
X153035613Y-69083814D01*
X153035613Y-69116183D01*
X153024500Y-69200597D01*
X153024500Y-69399401D01*
X153034143Y-69472648D01*
X153038991Y-69509472D01*
X153095721Y-69646429D01*
X153096573Y-69647540D01*
X153100062Y-69657312D01*
X153101540Y-69683097D01*
X153105720Y-69722039D01*
X153098264Y-69747432D01*
X153097850Y-69748432D01*
X153078301Y-69772698D01*
X153069714Y-69787911D01*
X153063335Y-69791277D01*
X153054019Y-69802843D01*
X153045241Y-69805766D01*
X153028373Y-69824999D01*
X153035865Y-69881899D01*
X153035865Y-69914270D01*
X153024500Y-70000597D01*
X153024500Y-70199401D01*
X153035613Y-70283814D01*
X153035613Y-70316183D01*
X153024500Y-70400597D01*
X153024500Y-70599401D01*
X153035613Y-70683814D01*
X153036446Y-70707513D01*
X153036181Y-70711866D01*
X153024500Y-70800599D01*
X153024500Y-70904251D01*
X153024272Y-70908015D01*
X153013639Y-70937487D01*
X153004815Y-70967539D01*
X153001879Y-70970082D01*
X153000561Y-70973738D01*
X152975677Y-70992786D01*
X152952011Y-71013294D01*
X152947649Y-71014242D01*
X152945081Y-71016209D01*
X152934671Y-71017066D01*
X152900501Y-71024500D01*
X152800598Y-71024500D01*
X152716185Y-71035613D01*
X152683816Y-71035613D01*
X152599402Y-71024500D01*
X152400597Y-71024500D01*
X152316185Y-71035613D01*
X152283816Y-71035613D01*
X152199402Y-71024500D01*
X152000597Y-71024500D01*
X151916185Y-71035613D01*
X151883816Y-71035613D01*
X151799402Y-71024500D01*
X151600597Y-71024500D01*
X151516185Y-71035613D01*
X151483816Y-71035613D01*
X151399402Y-71024500D01*
X151200597Y-71024500D01*
X151116185Y-71035613D01*
X151083816Y-71035613D01*
X150999402Y-71024500D01*
X150800597Y-71024500D01*
X150716185Y-71035613D01*
X150683816Y-71035613D01*
X150599402Y-71024500D01*
X150400597Y-71024500D01*
X150316185Y-71035613D01*
X150292486Y-71036446D01*
X150288133Y-71036181D01*
X150199401Y-71024500D01*
X150095747Y-71024500D01*
X150091984Y-71024272D01*
X150062511Y-71013639D01*
X150032460Y-71004815D01*
X150029916Y-71001879D01*
X150026261Y-71000561D01*
X150007212Y-70975677D01*
X149986705Y-70952011D01*
X149985756Y-70947649D01*
X149983790Y-70945081D01*
X149982932Y-70934671D01*
X149975499Y-70900502D01*
X149975499Y-70800600D01*
X149975199Y-70798322D01*
X149964386Y-70716184D01*
X149964386Y-70683812D01*
X149975500Y-70599401D01*
X149975499Y-70400600D01*
X149974691Y-70394462D01*
X149964386Y-70316184D01*
X149964386Y-70283812D01*
X149971012Y-70233489D01*
X149975500Y-70199401D01*
X149975499Y-70000600D01*
X149967719Y-69941507D01*
X149964386Y-69916185D01*
X149964386Y-69883813D01*
X149964638Y-69881899D01*
X149975500Y-69799401D01*
X149975499Y-69600600D01*
X149974745Y-69594874D01*
X149964386Y-69516184D01*
X149964386Y-69483812D01*
X149966817Y-69465349D01*
X149975500Y-69399401D01*
X149975499Y-69200600D01*
X149972158Y-69175220D01*
X149964386Y-69116184D01*
X149964386Y-69083812D01*
X149965749Y-69073459D01*
X149975500Y-68999401D01*
X149975499Y-68800600D01*
X149975199Y-68798322D01*
X149964386Y-68716184D01*
X149964386Y-68683812D01*
X149975499Y-68599406D01*
X149975500Y-68599401D01*
X149975499Y-68400600D01*
X149975499Y-68400597D01*
X149964386Y-68316184D01*
X149963553Y-68292484D01*
X149963816Y-68288136D01*
X149975500Y-68199401D01*
X149975499Y-68095731D01*
X149975727Y-68091984D01*
X149986358Y-68062515D01*
X149995183Y-68032461D01*
X149998119Y-68029916D01*
X149999438Y-68026261D01*
X150024312Y-68007219D01*
X150047986Y-67986705D01*
X150052350Y-67985755D01*
X150054918Y-67983790D01*
X150065325Y-67982932D01*
X150099496Y-67975499D01*
X150199400Y-67975499D01*
X150283820Y-67964385D01*
X150316177Y-67964385D01*
X150400599Y-67975500D01*
X150599400Y-67975499D01*
X150709472Y-67961009D01*
X150846429Y-67904279D01*
X150847542Y-67903424D01*
X150857313Y-67899937D01*
X150883102Y-67898458D01*
X150885281Y-67898224D01*
X150908098Y-67892923D01*
X150917298Y-67894788D01*
G37*
%TD.AperFunction*%
%TA.AperFunction,Conductor*%
G36*
X129171349Y-66177553D02*
G01*
X129231909Y-66282446D01*
X129317554Y-66368091D01*
X129422447Y-66428651D01*
X129503250Y-66450302D01*
X128934572Y-67018979D01*
X128934573Y-67018980D01*
X128962934Y-67039586D01*
X129133408Y-67126447D01*
X129149901Y-67131806D01*
X129207577Y-67171242D01*
X129234776Y-67235601D01*
X129222862Y-67304447D01*
X129175618Y-67355924D01*
X129149904Y-67367667D01*
X129133217Y-67373088D01*
X128962673Y-67459986D01*
X128807835Y-67572480D01*
X128782457Y-67597859D01*
X128721133Y-67631343D01*
X128651441Y-67626357D01*
X128595509Y-67584485D01*
X128571093Y-67519020D01*
X128573159Y-67485988D01*
X128595846Y-67371940D01*
X128600500Y-67348543D01*
X128600500Y-67151456D01*
X128562052Y-66958170D01*
X128562051Y-66958169D01*
X128562051Y-66958165D01*
X128513504Y-66840963D01*
X128506036Y-66771495D01*
X128537311Y-66709016D01*
X128541361Y-66706612D01*
X128540597Y-66705848D01*
X129149696Y-66096748D01*
X129171349Y-66177553D01*
G37*
%TD.AperFunction*%
%TA.AperFunction,Conductor*%
G36*
X142462540Y-59350185D02*
G01*
X142508295Y-59402989D01*
X142519501Y-59454500D01*
X142519501Y-59697876D01*
X142525909Y-59757484D01*
X142544519Y-59807382D01*
X142549503Y-59877074D01*
X142544520Y-59894046D01*
X142526402Y-59942623D01*
X142526401Y-59942627D01*
X142520000Y-60002155D01*
X142520000Y-60150000D01*
X142960833Y-60150000D01*
X142968811Y-60150427D01*
X142968817Y-60150322D01*
X142972102Y-60150497D01*
X142972127Y-60150500D01*
X143246002Y-60150499D01*
X143313039Y-60170183D01*
X143358794Y-60222987D01*
X143370000Y-60274499D01*
X143370000Y-60400000D01*
X143496000Y-60400000D01*
X143563039Y-60419685D01*
X143608794Y-60472489D01*
X143620000Y-60524000D01*
X143620000Y-61250000D01*
X143767828Y-61250000D01*
X143767844Y-61249999D01*
X143827372Y-61243598D01*
X143827379Y-61243596D01*
X143962086Y-61193354D01*
X143962093Y-61193350D01*
X144077187Y-61107190D01*
X144077190Y-61107187D01*
X144163350Y-60992093D01*
X144163354Y-60992086D01*
X144168550Y-60978155D01*
X144210420Y-60922220D01*
X144275884Y-60897801D01*
X144344157Y-60912651D01*
X144393564Y-60962055D01*
X144400915Y-60978151D01*
X144406203Y-60992330D01*
X144406206Y-60992335D01*
X144492452Y-61107544D01*
X144492455Y-61107547D01*
X144607664Y-61193793D01*
X144607671Y-61193797D01*
X144742517Y-61244091D01*
X144742516Y-61244091D01*
X144749444Y-61244835D01*
X144802127Y-61250500D01*
X145597872Y-61250499D01*
X145657483Y-61244091D01*
X145792331Y-61193796D01*
X145907546Y-61107546D01*
X145934227Y-61071903D01*
X145950485Y-61050188D01*
X146006419Y-61008318D01*
X146049751Y-61000500D01*
X146663331Y-61000500D01*
X146663347Y-61000501D01*
X146670943Y-61000501D01*
X146829054Y-61000501D01*
X146829057Y-61000501D01*
X146981785Y-60959577D01*
X147064185Y-60912003D01*
X147064984Y-60911542D01*
X147118709Y-60880524D01*
X147118708Y-60880524D01*
X147118716Y-60880520D01*
X147230520Y-60768716D01*
X147230520Y-60768714D01*
X147240724Y-60758511D01*
X147240727Y-60758506D01*
X148058416Y-59940819D01*
X148119739Y-59907334D01*
X148146097Y-59904500D01*
X149425500Y-59904500D01*
X149492539Y-59924185D01*
X149538294Y-59976989D01*
X149549500Y-60028500D01*
X149549500Y-60298336D01*
X149549501Y-60298355D01*
X149559650Y-60397707D01*
X149559651Y-60397710D01*
X149612996Y-60558694D01*
X149613001Y-60558705D01*
X149702029Y-60703040D01*
X149702032Y-60703044D01*
X149821956Y-60822968D01*
X149840596Y-60834465D01*
X149887321Y-60886412D01*
X149899500Y-60940004D01*
X149899500Y-62949902D01*
X149890855Y-62979342D01*
X149884332Y-63009329D01*
X149880577Y-63014344D01*
X149879815Y-63016941D01*
X149863181Y-63037583D01*
X149686680Y-63214083D01*
X149625357Y-63247568D01*
X149555665Y-63242584D01*
X149499732Y-63200712D01*
X149475315Y-63135248D01*
X149474999Y-63126402D01*
X149474999Y-63001692D01*
X149474998Y-63001677D01*
X149464855Y-62902392D01*
X149411547Y-62741518D01*
X149411542Y-62741507D01*
X149322575Y-62597271D01*
X149322572Y-62597267D01*
X149202732Y-62477427D01*
X149202728Y-62477424D01*
X149058492Y-62388457D01*
X149058481Y-62388452D01*
X148897606Y-62335144D01*
X148798322Y-62325000D01*
X148750000Y-62325000D01*
X148750000Y-63151000D01*
X148730315Y-63218039D01*
X148677511Y-63263794D01*
X148626000Y-63275000D01*
X148500000Y-63275000D01*
X148500000Y-63401000D01*
X148480315Y-63468039D01*
X148427511Y-63513794D01*
X148376000Y-63525000D01*
X147525001Y-63525000D01*
X147525001Y-63548322D01*
X147535144Y-63647607D01*
X147588452Y-63808481D01*
X147588457Y-63808492D01*
X147677424Y-63952728D01*
X147677427Y-63952732D01*
X147686660Y-63961965D01*
X147720145Y-64023288D01*
X147715161Y-64092980D01*
X147686663Y-64137324D01*
X147677033Y-64146953D01*
X147677029Y-64146959D01*
X147588001Y-64291294D01*
X147587996Y-64291305D01*
X147534651Y-64452290D01*
X147524500Y-64551647D01*
X147524500Y-65098337D01*
X147524501Y-65098343D01*
X147534650Y-65197707D01*
X147534651Y-65197710D01*
X147555788Y-65261496D01*
X147558190Y-65331324D01*
X147522458Y-65391366D01*
X147459938Y-65422559D01*
X147438082Y-65424500D01*
X146825097Y-65424500D01*
X146758058Y-65404815D01*
X146737416Y-65388181D01*
X145816590Y-64467355D01*
X145816588Y-64467352D01*
X145697717Y-64348481D01*
X145697709Y-64348475D01*
X145598683Y-64291303D01*
X145598681Y-64291302D01*
X145560790Y-64269425D01*
X145560789Y-64269424D01*
X145530119Y-64261206D01*
X145408057Y-64228499D01*
X145249943Y-64228499D01*
X145242347Y-64228499D01*
X145242331Y-64228500D01*
X145054862Y-64228500D01*
X144987823Y-64208815D01*
X144976884Y-64200000D01*
X143025001Y-64200000D01*
X143025001Y-64223322D01*
X143035144Y-64322607D01*
X143056145Y-64385984D01*
X143058547Y-64455813D01*
X143026120Y-64512669D01*
X142631286Y-64907504D01*
X142519481Y-65019308D01*
X142519480Y-65019310D01*
X142473850Y-65098344D01*
X142440423Y-65156241D01*
X142399499Y-65308969D01*
X142399499Y-65308971D01*
X142399499Y-65477072D01*
X142399500Y-65477085D01*
X142399500Y-65750903D01*
X142379815Y-65817942D01*
X142327011Y-65863697D01*
X142257853Y-65873641D01*
X142194297Y-65844616D01*
X142187819Y-65838584D01*
X140861416Y-64512181D01*
X140827931Y-64450858D01*
X140832915Y-64381166D01*
X140874787Y-64325233D01*
X140940251Y-64300816D01*
X140949097Y-64300500D01*
X141078844Y-64300500D01*
X141078845Y-64300499D01*
X141233497Y-64269737D01*
X141355896Y-64219038D01*
X141379172Y-64209397D01*
X141379172Y-64209396D01*
X141379179Y-64209394D01*
X141510289Y-64121789D01*
X141621789Y-64010289D01*
X141709394Y-63879179D01*
X141769737Y-63733497D01*
X141781039Y-63676677D01*
X143025000Y-63676677D01*
X143025000Y-63700000D01*
X143750000Y-63700000D01*
X144250000Y-63700000D01*
X144974999Y-63700000D01*
X144974999Y-63676692D01*
X144974998Y-63676677D01*
X144964855Y-63577392D01*
X144911547Y-63416518D01*
X144911542Y-63416507D01*
X144822575Y-63272271D01*
X144822572Y-63272267D01*
X144702732Y-63152427D01*
X144702728Y-63152424D01*
X144624328Y-63104066D01*
X144558492Y-63063457D01*
X144558481Y-63063452D01*
X144397606Y-63010144D01*
X144314736Y-63001677D01*
X147525000Y-63001677D01*
X147525000Y-63025000D01*
X148250000Y-63025000D01*
X148250000Y-62325000D01*
X148249999Y-62324999D01*
X148201693Y-62325000D01*
X148201675Y-62325001D01*
X148102392Y-62335144D01*
X147941518Y-62388452D01*
X147941507Y-62388457D01*
X147797271Y-62477424D01*
X147797267Y-62477427D01*
X147677427Y-62597267D01*
X147677424Y-62597271D01*
X147588457Y-62741507D01*
X147588452Y-62741518D01*
X147535144Y-62902393D01*
X147525000Y-63001677D01*
X144314736Y-63001677D01*
X144298322Y-63000000D01*
X144250000Y-63000000D01*
X144250000Y-63700000D01*
X143750000Y-63700000D01*
X143750000Y-63000000D01*
X143749999Y-62999999D01*
X143701693Y-63000000D01*
X143701675Y-63000001D01*
X143602392Y-63010144D01*
X143441518Y-63063452D01*
X143441507Y-63063457D01*
X143297271Y-63152424D01*
X143297267Y-63152427D01*
X143177427Y-63272267D01*
X143177424Y-63272271D01*
X143088457Y-63416507D01*
X143088452Y-63416518D01*
X143035144Y-63577393D01*
X143025000Y-63676677D01*
X141781039Y-63676677D01*
X141782979Y-63666926D01*
X141786478Y-63649337D01*
X141786478Y-63649336D01*
X141800500Y-63578844D01*
X141800500Y-63421155D01*
X141800499Y-63421153D01*
X141788722Y-63361947D01*
X141769737Y-63266503D01*
X141759830Y-63242584D01*
X141709397Y-63120827D01*
X141709390Y-63120814D01*
X141649120Y-63030614D01*
X141635332Y-63003108D01*
X141632348Y-62994681D01*
X141625501Y-62960256D01*
X141589979Y-62874499D01*
X141576466Y-62841874D01*
X141543320Y-62792267D01*
X141505278Y-62735332D01*
X141505272Y-62735325D01*
X140486759Y-61716813D01*
X140453274Y-61655490D01*
X140458258Y-61585798D01*
X140500130Y-61529865D01*
X140527416Y-61515615D01*
X140527154Y-61515053D01*
X140533687Y-61512006D01*
X140533697Y-61512003D01*
X140678044Y-61422968D01*
X140797968Y-61303044D01*
X140887003Y-61158697D01*
X140940349Y-60997708D01*
X140950500Y-60898345D01*
X140950500Y-60797844D01*
X142520000Y-60797844D01*
X142526401Y-60857372D01*
X142526403Y-60857379D01*
X142576645Y-60992086D01*
X142576649Y-60992093D01*
X142662809Y-61107187D01*
X142662812Y-61107190D01*
X142777906Y-61193350D01*
X142777913Y-61193354D01*
X142912620Y-61243596D01*
X142912627Y-61243598D01*
X142972155Y-61249999D01*
X142972172Y-61250000D01*
X143120000Y-61250000D01*
X143120000Y-60650000D01*
X142520000Y-60650000D01*
X142520000Y-60797844D01*
X140950500Y-60797844D01*
X140950499Y-60550095D01*
X140970184Y-60483057D01*
X140986813Y-60462420D01*
X142082416Y-59366819D01*
X142143739Y-59333334D01*
X142170097Y-59330500D01*
X142395501Y-59330500D01*
X142462540Y-59350185D01*
G37*
%TD.AperFunction*%
%TD*%
M02*
