%TF.GenerationSoftware,KiCad,Pcbnew,10.0.1*%
%TF.CreationDate,2026-05-02T19:26:53-04:00*%
%TF.ProjectId,Primis_Versipellis,5072696d-6973-45f5-9665-72736970656c,rev?*%
%TF.SameCoordinates,Original*%
%TF.FileFunction,Copper,L2,Bot*%
%TF.FilePolarity,Positive*%
%FSLAX46Y46*%
G04 Gerber Fmt 4.6, Leading zero omitted, Abs format (unit mm)*
G04 Created by KiCad (PCBNEW 10.0.1) date 2026-05-02 19:26:53*
%MOMM*%
%LPD*%
G01*
G04 APERTURE LIST*
%TA.AperFunction,ComponentPad*%
%ADD10R,0.850000X0.850000*%
%TD*%
%TA.AperFunction,ComponentPad*%
%ADD11C,0.850000*%
%TD*%
%TA.AperFunction,ComponentPad*%
%ADD12C,1.431000*%
%TD*%
%TA.AperFunction,ComponentPad*%
%ADD13C,3.450000*%
%TD*%
%TA.AperFunction,ComponentPad*%
%ADD14R,0.500000X0.900000*%
%TD*%
%TA.AperFunction,ViaPad*%
%ADD15C,0.600000*%
%TD*%
%TA.AperFunction,ViaPad*%
%ADD16C,0.700000*%
%TD*%
%TA.AperFunction,Conductor*%
%ADD17C,0.200000*%
%TD*%
G04 APERTURE END LIST*
D10*
%TO.P,J3,1,Pin_1_1*%
%TO.N,VDD_nRF*%
X136500000Y-64000000D03*
D11*
%TO.P,J3,2,Pin_2_2*%
%TO.N,GND*%
X136500000Y-65000000D03*
%TO.P,J3,3,Pin_3_3*%
%TO.N,Net-(J3-Pin_3)*%
X136500000Y-66000000D03*
%TO.P,J3,4,Pin_4_4*%
%TO.N,Net-(J3-Pin_4)*%
X136500000Y-67000000D03*
%TO.P,J3,5,Pin_5_5*%
%TO.N,Net-(J3-Pin_5)*%
X136500000Y-68000000D03*
%TD*%
D12*
%TO.P,J1,1,1_1*%
%TO.N,VBUS*%
X129400000Y-66000000D03*
%TO.P,J1,2,2_2*%
%TO.N,D-*%
X129400000Y-68500000D03*
%TO.P,J1,3,3_3*%
%TO.N,D+*%
X129400000Y-70500000D03*
%TO.P,J1,4,4_4*%
%TO.N,GND*%
X129400000Y-73000000D03*
D13*
%TO.P,J1,5,5_5*%
X127400000Y-63500000D03*
%TO.P,J1,6,6_6*%
X127400000Y-75500000D03*
%TD*%
D14*
%TO.P,REF\u002A\u002A,2*%
%TO.N,N/C*%
X168750000Y-76050000D03*
%TD*%
D15*
%TO.N,GND*%
X132500000Y-73000000D03*
D16*
X163000000Y-66500000D03*
X153000000Y-78000000D03*
D15*
X165500000Y-75000000D03*
D16*
X148500000Y-62000000D03*
D15*
X163500000Y-72000000D03*
D16*
X138500000Y-65000000D03*
X144000000Y-69500000D03*
D15*
X167750000Y-73000000D03*
X165000000Y-66000000D03*
D16*
X156000000Y-62500000D03*
D15*
X167000000Y-75000000D03*
D16*
X148500000Y-78500000D03*
X156128763Y-71070000D03*
D15*
X161800000Y-62600000D03*
X158000000Y-72000000D03*
D16*
X151070000Y-65500000D03*
D15*
X167750000Y-75000000D03*
D16*
X144000000Y-62500000D03*
X144000000Y-71500000D03*
X163000000Y-68500000D03*
D15*
X142000000Y-60800000D03*
D16*
X152000000Y-58500000D03*
D15*
X157600000Y-58800000D03*
X167000000Y-73000000D03*
D16*
X159000000Y-60500000D03*
D15*
X165500000Y-73000000D03*
D16*
X163000000Y-70500000D03*
D15*
X166250000Y-75000000D03*
X166250000Y-73000000D03*
%TO.N,D-*%
X149500000Y-79075000D03*
X133300521Y-70199479D03*
%TO.N,D+*%
X132699479Y-70800521D03*
X149500000Y-79925000D03*
%TO.N,VDD_nRF*%
X155250000Y-65250000D03*
X151500000Y-77000000D03*
X153250000Y-65000000D03*
X149980000Y-65500000D03*
D16*
%TO.N,Net-(J3-Pin_4)*%
X153604674Y-73378286D03*
X139000000Y-70500000D03*
%TO.N,Net-(J3-Pin_5)*%
X137500000Y-71500000D03*
X153070000Y-74000000D03*
%TO.N,Net-(U1-P0.18{slash}~{RESET})*%
X142000000Y-72000000D03*
X151096979Y-75500000D03*
D15*
%TO.N,DEC4_6*%
X149750000Y-64750000D03*
X157000000Y-69750000D03*
%TD*%
%TO.N,D-*%
D17*
X133300521Y-70199479D02*
X133300521Y-70482322D01*
X136480000Y-73661801D02*
X136480000Y-74215392D01*
X141539607Y-79274999D02*
X149300001Y-79274999D01*
X133300521Y-70482322D02*
X136480000Y-73661801D01*
X149300001Y-79274999D02*
X149500000Y-79075000D01*
X136480000Y-74215392D02*
X141539607Y-79274999D01*
%TO.N,D+*%
X132699479Y-70800521D02*
X132982322Y-70800521D01*
X136030020Y-73848219D02*
X136030020Y-74401780D01*
X149300001Y-79725001D02*
X149500000Y-79925000D01*
X132982322Y-70800521D02*
X136030020Y-73848219D01*
X136030020Y-74401780D02*
X141353241Y-79725001D01*
X141353241Y-79725001D02*
X149300001Y-79725001D01*
%TO.N,VDD_nRF*%
X152479000Y-64229000D02*
X153250000Y-65000000D01*
X157521000Y-70979000D02*
X151500000Y-77000000D01*
X149980000Y-65500000D02*
X149763194Y-65500000D01*
X149229000Y-64965806D02*
X149229000Y-64534194D01*
X155250000Y-65250000D02*
X157521000Y-67521000D01*
X149229000Y-64534194D02*
X149534194Y-64229000D01*
X157521000Y-67521000D02*
X157521000Y-70979000D01*
X149763194Y-65500000D02*
X149229000Y-64965806D01*
X149534194Y-64229000D02*
X152479000Y-64229000D01*
%TO.N,Net-(J3-Pin_4)*%
X150726388Y-70500000D02*
X153604674Y-73378286D01*
X139000000Y-70500000D02*
X150726388Y-70500000D01*
%TO.N,Net-(J3-Pin_5)*%
X145692484Y-74000000D02*
X153070000Y-74000000D01*
X137571000Y-71429000D02*
X143121484Y-71429000D01*
X137500000Y-71500000D02*
X137571000Y-71429000D01*
X143121484Y-71429000D02*
X145692484Y-74000000D01*
%TO.N,Net-(U1-P0.18{slash}~{RESET})*%
X142000000Y-72000000D02*
X145500000Y-75500000D01*
X145500000Y-75500000D02*
X151096979Y-75500000D01*
%TO.N,DEC4_6*%
X152000000Y-64750000D02*
X149750000Y-64750000D01*
X157000000Y-69750000D02*
X152000000Y-64750000D01*
%TD*%
%TA.AperFunction,Conductor*%
%TO.N,GND*%
G36*
X150493330Y-71120185D02*
G01*
X150513972Y-71136819D01*
X152534733Y-73157580D01*
X152568218Y-73218903D01*
X152563234Y-73288595D01*
X152530916Y-73333837D01*
X152532145Y-73335066D01*
X152504030Y-73363181D01*
X152442707Y-73396666D01*
X152416349Y-73399500D01*
X145992581Y-73399500D01*
X145925542Y-73379815D01*
X145904900Y-73363181D01*
X143853900Y-71312181D01*
X143820415Y-71250858D01*
X143825399Y-71181166D01*
X143867271Y-71125233D01*
X143932735Y-71100816D01*
X143941581Y-71100500D01*
X150426291Y-71100500D01*
X150493330Y-71120185D01*
G37*
%TD.AperFunction*%
%TA.AperFunction,Conductor*%
G36*
X168442539Y-57020185D02*
G01*
X168488294Y-57072989D01*
X168499500Y-57124500D01*
X168499500Y-61565891D01*
X168533608Y-61693187D01*
X168566554Y-61750250D01*
X168599500Y-61807314D01*
X168692686Y-61900500D01*
X168806814Y-61966392D01*
X168908095Y-61993529D01*
X168967753Y-62029892D01*
X168998283Y-62092739D01*
X169000000Y-62113303D01*
X169000000Y-74975500D01*
X168980315Y-75042539D01*
X168927511Y-75088294D01*
X168876000Y-75099500D01*
X168452129Y-75099500D01*
X168452123Y-75099501D01*
X168392516Y-75105908D01*
X168257671Y-75156202D01*
X168257664Y-75156206D01*
X168142455Y-75242452D01*
X168142452Y-75242455D01*
X168056206Y-75357664D01*
X168056202Y-75357671D01*
X168005908Y-75492517D01*
X167999501Y-75552116D01*
X167999500Y-75552135D01*
X167999500Y-76547870D01*
X167999501Y-76547876D01*
X168005908Y-76607483D01*
X168056202Y-76742328D01*
X168056206Y-76742335D01*
X168142452Y-76857544D01*
X168142455Y-76857547D01*
X168257664Y-76943793D01*
X168257671Y-76943797D01*
X168302618Y-76960561D01*
X168392517Y-76994091D01*
X168452127Y-77000500D01*
X168495684Y-77000499D01*
X168562721Y-77020182D01*
X168608477Y-77072985D01*
X168618422Y-77142143D01*
X168603071Y-77186499D01*
X168533609Y-77306810D01*
X168533609Y-77306811D01*
X168533608Y-77306813D01*
X168533608Y-77306814D01*
X168499500Y-77434108D01*
X168499500Y-81875500D01*
X168479815Y-81942539D01*
X168427011Y-81988294D01*
X168375500Y-81999500D01*
X125086424Y-81999500D01*
X125019385Y-81979815D01*
X124973630Y-81927011D01*
X124962425Y-81875118D01*
X124967218Y-80317246D01*
X124971598Y-78893713D01*
X132649500Y-78893713D01*
X132649500Y-79106286D01*
X132681527Y-79308501D01*
X132682754Y-79316243D01*
X132727572Y-79454179D01*
X132748444Y-79518414D01*
X132844951Y-79707820D01*
X132969890Y-79879786D01*
X133120213Y-80030109D01*
X133292179Y-80155048D01*
X133292181Y-80155049D01*
X133292184Y-80155051D01*
X133481588Y-80251557D01*
X133683757Y-80317246D01*
X133893713Y-80350500D01*
X133893714Y-80350500D01*
X134106286Y-80350500D01*
X134106287Y-80350500D01*
X134316243Y-80317246D01*
X134518412Y-80251557D01*
X134707816Y-80155051D01*
X134798212Y-80089375D01*
X134879786Y-80030109D01*
X134879788Y-80030106D01*
X134879792Y-80030104D01*
X135030104Y-79879792D01*
X135030106Y-79879788D01*
X135030109Y-79879786D01*
X135155048Y-79707820D01*
X135155047Y-79707820D01*
X135155051Y-79707816D01*
X135251557Y-79518412D01*
X135317246Y-79316243D01*
X135350500Y-79106287D01*
X135350500Y-78893713D01*
X135317246Y-78683757D01*
X135251557Y-78481588D01*
X135155051Y-78292184D01*
X135155049Y-78292181D01*
X135155048Y-78292179D01*
X135030109Y-78120213D01*
X134879786Y-77969890D01*
X134707820Y-77844951D01*
X134518414Y-77748444D01*
X134518413Y-77748443D01*
X134518412Y-77748443D01*
X134316243Y-77682754D01*
X134316241Y-77682753D01*
X134316240Y-77682753D01*
X134154957Y-77657208D01*
X134106287Y-77649500D01*
X133893713Y-77649500D01*
X133845042Y-77657208D01*
X133683760Y-77682753D01*
X133481585Y-77748444D01*
X133292179Y-77844951D01*
X133120213Y-77969890D01*
X132969890Y-78120213D01*
X132844951Y-78292179D01*
X132748444Y-78481585D01*
X132682753Y-78683760D01*
X132649500Y-78893713D01*
X124971598Y-78893713D01*
X124980476Y-76008439D01*
X125000366Y-75941462D01*
X125053311Y-75895870D01*
X125122500Y-75886139D01*
X125185966Y-75915359D01*
X125223559Y-75974253D01*
X125224250Y-75976728D01*
X125288562Y-76216744D01*
X125400171Y-76486195D01*
X125400179Y-76486211D01*
X125546006Y-76738788D01*
X125546012Y-76738796D01*
X125659608Y-76886837D01*
X126427912Y-76118532D01*
X126522829Y-76249175D01*
X126650825Y-76377171D01*
X126781465Y-76472086D01*
X126013161Y-77240390D01*
X126161203Y-77353987D01*
X126161211Y-77353993D01*
X126413788Y-77499820D01*
X126413804Y-77499828D01*
X126683255Y-77611437D01*
X126964996Y-77686930D01*
X127254155Y-77724998D01*
X127254173Y-77725000D01*
X127545827Y-77725000D01*
X127545844Y-77724998D01*
X127835003Y-77686930D01*
X128116744Y-77611437D01*
X128386195Y-77499828D01*
X128386211Y-77499820D01*
X128638788Y-77353993D01*
X128638806Y-77353981D01*
X128786837Y-77240391D01*
X128786837Y-77240389D01*
X128018533Y-76472086D01*
X128149175Y-76377171D01*
X128277171Y-76249175D01*
X128372086Y-76118533D01*
X129140389Y-76886837D01*
X129140391Y-76886837D01*
X129253981Y-76738806D01*
X129253993Y-76738788D01*
X129399820Y-76486211D01*
X129399828Y-76486195D01*
X129511437Y-76216744D01*
X129586930Y-75935003D01*
X129624998Y-75645844D01*
X129625000Y-75645827D01*
X129625000Y-75354172D01*
X129624998Y-75354155D01*
X129586930Y-75064996D01*
X129511437Y-74783255D01*
X129399828Y-74513804D01*
X129399820Y-74513788D01*
X129334990Y-74401500D01*
X129318517Y-74333600D01*
X129341369Y-74267573D01*
X129396290Y-74224383D01*
X129442377Y-74215500D01*
X129495667Y-74215500D01*
X129684626Y-74185571D01*
X129866592Y-74126446D01*
X130037061Y-74039588D01*
X130065425Y-74018980D01*
X130065425Y-74018979D01*
X129496748Y-73450302D01*
X129577553Y-73428651D01*
X129682446Y-73368091D01*
X129768091Y-73282446D01*
X129828651Y-73177553D01*
X129850302Y-73096748D01*
X130418979Y-73665425D01*
X130418980Y-73665425D01*
X130439588Y-73637061D01*
X130526446Y-73466592D01*
X130585571Y-73284626D01*
X130615500Y-73095667D01*
X130615500Y-72904332D01*
X130585571Y-72715373D01*
X130526446Y-72533407D01*
X130439586Y-72362934D01*
X130418980Y-72334573D01*
X130418979Y-72334572D01*
X129850302Y-72903250D01*
X129828651Y-72822447D01*
X129768091Y-72717554D01*
X129682446Y-72631909D01*
X129577553Y-72571349D01*
X129496749Y-72549697D01*
X130065425Y-71981019D01*
X130037059Y-71960410D01*
X129866590Y-71873551D01*
X129850095Y-71868192D01*
X129792420Y-71828754D01*
X129765223Y-71764395D01*
X129777139Y-71695549D01*
X129824384Y-71644074D01*
X129850089Y-71632334D01*
X129866782Y-71626911D01*
X130037323Y-71540016D01*
X130192171Y-71427513D01*
X130327513Y-71292171D01*
X130440016Y-71137323D01*
X130526911Y-70966782D01*
X130586058Y-70784747D01*
X130596048Y-70721674D01*
X131898979Y-70721674D01*
X131898979Y-70879367D01*
X131929740Y-71034010D01*
X131929743Y-71034022D01*
X131990081Y-71179693D01*
X131990088Y-71179706D01*
X132077689Y-71310809D01*
X132077692Y-71310813D01*
X132189186Y-71422307D01*
X132189190Y-71422310D01*
X132320293Y-71509911D01*
X132320306Y-71509918D01*
X132465977Y-71570256D01*
X132465982Y-71570258D01*
X132587442Y-71594418D01*
X132620632Y-71601020D01*
X132620635Y-71601021D01*
X132620637Y-71601021D01*
X132778322Y-71601021D01*
X132817944Y-71593139D01*
X132842819Y-71588191D01*
X132912411Y-71594418D01*
X132954693Y-71622127D01*
X135393201Y-74060635D01*
X135407904Y-74087562D01*
X135424497Y-74113381D01*
X135425388Y-74119581D01*
X135426686Y-74121958D01*
X135429520Y-74148316D01*
X135429520Y-74315110D01*
X135429519Y-74315128D01*
X135429519Y-74480834D01*
X135429518Y-74480834D01*
X135450618Y-74559577D01*
X135470443Y-74633565D01*
X135489562Y-74666680D01*
X135499378Y-74683680D01*
X135499379Y-74683684D01*
X135499380Y-74683684D01*
X135547364Y-74766797D01*
X135549499Y-74770494D01*
X135549501Y-74770497D01*
X135668369Y-74889365D01*
X135668375Y-74889370D01*
X140868380Y-80089375D01*
X140868390Y-80089386D01*
X140872720Y-80093716D01*
X140872721Y-80093717D01*
X140984525Y-80205521D01*
X140984527Y-80205522D01*
X140984531Y-80205525D01*
X141064259Y-80251555D01*
X141121457Y-80284578D01*
X141233260Y-80314535D01*
X141274183Y-80325501D01*
X141274184Y-80325501D01*
X148738574Y-80325501D01*
X148805613Y-80345186D01*
X148841675Y-80380609D01*
X148866042Y-80417076D01*
X148878212Y-80435291D01*
X148989707Y-80546786D01*
X148989711Y-80546789D01*
X149120814Y-80634390D01*
X149120827Y-80634397D01*
X149266498Y-80694735D01*
X149266503Y-80694737D01*
X149421153Y-80725499D01*
X149421156Y-80725500D01*
X149421158Y-80725500D01*
X149578844Y-80725500D01*
X149578845Y-80725499D01*
X149733497Y-80694737D01*
X149879179Y-80634394D01*
X150010289Y-80546789D01*
X150121789Y-80435289D01*
X150209394Y-80304179D01*
X150269737Y-80158497D01*
X150300500Y-80003842D01*
X150300500Y-79846158D01*
X150300500Y-79846155D01*
X150300499Y-79846153D01*
X150269737Y-79691503D01*
X150210070Y-79547452D01*
X150202601Y-79477983D01*
X150210070Y-79452548D01*
X150243005Y-79373033D01*
X150269737Y-79308497D01*
X150300500Y-79153842D01*
X150300500Y-78996158D01*
X150300500Y-78996155D01*
X150300499Y-78996153D01*
X150269738Y-78841510D01*
X150269737Y-78841503D01*
X150269735Y-78841498D01*
X150209397Y-78695827D01*
X150209390Y-78695814D01*
X150121789Y-78564711D01*
X150121786Y-78564707D01*
X150010292Y-78453213D01*
X150010288Y-78453210D01*
X149879185Y-78365609D01*
X149879172Y-78365602D01*
X149733501Y-78305264D01*
X149733489Y-78305261D01*
X149578845Y-78274500D01*
X149578842Y-78274500D01*
X149421158Y-78274500D01*
X149421155Y-78274500D01*
X149266510Y-78305261D01*
X149266498Y-78305264D01*
X149120827Y-78365602D01*
X149120814Y-78365609D01*
X148989711Y-78453210D01*
X148989707Y-78453213D01*
X148878212Y-78564708D01*
X148856339Y-78597443D01*
X148841675Y-78619390D01*
X148788065Y-78664194D01*
X148738574Y-78674499D01*
X141839704Y-78674499D01*
X141772665Y-78654814D01*
X141752023Y-78638180D01*
X137116819Y-74002976D01*
X137083334Y-73941653D01*
X137080500Y-73915295D01*
X137080500Y-73582746D01*
X137080499Y-73582740D01*
X137080034Y-73581005D01*
X137076558Y-73568030D01*
X137039577Y-73430016D01*
X136993091Y-73349500D01*
X136960520Y-73293085D01*
X136848716Y-73181281D01*
X136848715Y-73181280D01*
X136844385Y-73176950D01*
X136844374Y-73176940D01*
X135083662Y-71416228D01*
X136649500Y-71416228D01*
X136649500Y-71583771D01*
X136682182Y-71748074D01*
X136682184Y-71748082D01*
X136746295Y-71902860D01*
X136839373Y-72042162D01*
X136957837Y-72160626D01*
X137050494Y-72222537D01*
X137097137Y-72253703D01*
X137251918Y-72317816D01*
X137416228Y-72350499D01*
X137416232Y-72350500D01*
X137416233Y-72350500D01*
X137583768Y-72350500D01*
X137583769Y-72350499D01*
X137748082Y-72317816D01*
X137902863Y-72253703D01*
X138042162Y-72160626D01*
X138136970Y-72065817D01*
X138198291Y-72032334D01*
X138224650Y-72029500D01*
X141036941Y-72029500D01*
X141103980Y-72049185D01*
X141149735Y-72101989D01*
X141158558Y-72129309D01*
X141182182Y-72248074D01*
X141182184Y-72248082D01*
X141246295Y-72402860D01*
X141339373Y-72542162D01*
X141457837Y-72660626D01*
X141543195Y-72717660D01*
X141597137Y-72753703D01*
X141751918Y-72817816D01*
X141916228Y-72850499D01*
X141916232Y-72850500D01*
X141916233Y-72850500D01*
X141949903Y-72850500D01*
X142016942Y-72870185D01*
X142037584Y-72886819D01*
X145015139Y-75864374D01*
X145015149Y-75864385D01*
X145019479Y-75868715D01*
X145019480Y-75868716D01*
X145131284Y-75980520D01*
X145131286Y-75980521D01*
X145131290Y-75980524D01*
X145179643Y-76008440D01*
X145268216Y-76059577D01*
X145380019Y-76089534D01*
X145420942Y-76100500D01*
X145420943Y-76100500D01*
X150443328Y-76100500D01*
X150510367Y-76120185D01*
X150531009Y-76136819D01*
X150554816Y-76160626D01*
X150638803Y-76216744D01*
X150694116Y-76253703D01*
X150694117Y-76253703D01*
X150694118Y-76253704D01*
X150694120Y-76253705D01*
X150759055Y-76280602D01*
X150822221Y-76306766D01*
X150876625Y-76350607D01*
X150898690Y-76416901D01*
X150881411Y-76484600D01*
X150877871Y-76490217D01*
X150790612Y-76620809D01*
X150790602Y-76620827D01*
X150730264Y-76766498D01*
X150730261Y-76766510D01*
X150699500Y-76921153D01*
X150699500Y-77078846D01*
X150730261Y-77233489D01*
X150730264Y-77233501D01*
X150790602Y-77379172D01*
X150790609Y-77379185D01*
X150878210Y-77510288D01*
X150878213Y-77510292D01*
X150989707Y-77621786D01*
X150989711Y-77621789D01*
X151120814Y-77709390D01*
X151120827Y-77709397D01*
X151266498Y-77769735D01*
X151266503Y-77769737D01*
X151421153Y-77800499D01*
X151421156Y-77800500D01*
X151421158Y-77800500D01*
X151578844Y-77800500D01*
X151578845Y-77800499D01*
X151733497Y-77769737D01*
X151879179Y-77709394D01*
X152010289Y-77621789D01*
X152121789Y-77510289D01*
X152209394Y-77379179D01*
X152269737Y-77233497D01*
X152296391Y-77099500D01*
X152300638Y-77078150D01*
X152333023Y-77016239D01*
X152334518Y-77014716D01*
X157879506Y-71469727D01*
X157879511Y-71469724D01*
X157889714Y-71459520D01*
X157889716Y-71459520D01*
X158001520Y-71347716D01*
X158055798Y-71253703D01*
X158080577Y-71210785D01*
X158121501Y-71058057D01*
X158121501Y-70899943D01*
X158121501Y-70892348D01*
X158121500Y-70892330D01*
X158121500Y-67610059D01*
X158121501Y-67610046D01*
X158121501Y-67441945D01*
X158121501Y-67441943D01*
X158080577Y-67289215D01*
X158017425Y-67179833D01*
X158001520Y-67152284D01*
X157889716Y-67040480D01*
X157889713Y-67040478D01*
X156084574Y-65235339D01*
X156051089Y-65174016D01*
X156050638Y-65171849D01*
X156025378Y-65044863D01*
X156019737Y-65016503D01*
X155996326Y-64959984D01*
X155959397Y-64870827D01*
X155959390Y-64870814D01*
X155871789Y-64739711D01*
X155871786Y-64739707D01*
X155760292Y-64628213D01*
X155760288Y-64628210D01*
X155629185Y-64540609D01*
X155629172Y-64540602D01*
X155483501Y-64480264D01*
X155483489Y-64480261D01*
X155328845Y-64449500D01*
X155328842Y-64449500D01*
X155171158Y-64449500D01*
X155171155Y-64449500D01*
X155016510Y-64480261D01*
X155016498Y-64480264D01*
X154870827Y-64540602D01*
X154870814Y-64540609D01*
X154739711Y-64628210D01*
X154739707Y-64628213D01*
X154628213Y-64739707D01*
X154628210Y-64739711D01*
X154540609Y-64870814D01*
X154540602Y-64870827D01*
X154480264Y-65016498D01*
X154480261Y-65016510D01*
X154449500Y-65171153D01*
X154449500Y-65328846D01*
X154480261Y-65483489D01*
X154480264Y-65483501D01*
X154540602Y-65629172D01*
X154540609Y-65629185D01*
X154628210Y-65760288D01*
X154628213Y-65760292D01*
X154739707Y-65871786D01*
X154739711Y-65871789D01*
X154870814Y-65959390D01*
X154870827Y-65959397D01*
X155016498Y-66019735D01*
X155016503Y-66019737D01*
X155081147Y-66032595D01*
X155171849Y-66050638D01*
X155233760Y-66083023D01*
X155235339Y-66084574D01*
X156884181Y-67733416D01*
X156917666Y-67794739D01*
X156920500Y-67821097D01*
X156920500Y-68521903D01*
X156900815Y-68588942D01*
X156848011Y-68634697D01*
X156778853Y-68644641D01*
X156715297Y-68615616D01*
X156708819Y-68609584D01*
X153828337Y-65729102D01*
X153794852Y-65667779D01*
X153799836Y-65598087D01*
X153828337Y-65553740D01*
X153871789Y-65510289D01*
X153959394Y-65379179D01*
X153966632Y-65361706D01*
X154019735Y-65233501D01*
X154019737Y-65233497D01*
X154050500Y-65078842D01*
X154050500Y-64921158D01*
X154050500Y-64921155D01*
X154050499Y-64921153D01*
X154050089Y-64919091D01*
X154019737Y-64766503D01*
X154012901Y-64750000D01*
X153959397Y-64620827D01*
X153959390Y-64620814D01*
X153871789Y-64489711D01*
X153871786Y-64489707D01*
X153760292Y-64378213D01*
X153760288Y-64378210D01*
X153629185Y-64290609D01*
X153629172Y-64290602D01*
X153483501Y-64230264D01*
X153483489Y-64230261D01*
X153328151Y-64199362D01*
X153266240Y-64166977D01*
X153264711Y-64165475D01*
X152966589Y-63867354D01*
X152966588Y-63867352D01*
X152847717Y-63748481D01*
X152847716Y-63748480D01*
X152760904Y-63698360D01*
X152760904Y-63698359D01*
X152760900Y-63698358D01*
X152710785Y-63669423D01*
X152558057Y-63628499D01*
X152399943Y-63628499D01*
X152392347Y-63628499D01*
X152392331Y-63628500D01*
X149455134Y-63628500D01*
X149414213Y-63639464D01*
X149414213Y-63639465D01*
X149390470Y-63645827D01*
X149302408Y-63669423D01*
X149302403Y-63669426D01*
X149165484Y-63748475D01*
X149165476Y-63748481D01*
X148748480Y-64165477D01*
X148737140Y-64185119D01*
X148728838Y-64199500D01*
X148700158Y-64249175D01*
X148676238Y-64290606D01*
X148669423Y-64302409D01*
X148628499Y-64455137D01*
X148628499Y-64455139D01*
X148628499Y-64623240D01*
X148628500Y-64623253D01*
X148628500Y-64879136D01*
X148628499Y-64879154D01*
X148628499Y-65044860D01*
X148628498Y-65044860D01*
X148669423Y-65197591D01*
X148675334Y-65207829D01*
X148748477Y-65334518D01*
X148748481Y-65334523D01*
X148867349Y-65453391D01*
X148867355Y-65453396D01*
X149237231Y-65823272D01*
X149264110Y-65863499D01*
X149270602Y-65879172D01*
X149270607Y-65879181D01*
X149358207Y-66010284D01*
X149358213Y-66010292D01*
X149469707Y-66121786D01*
X149469711Y-66121789D01*
X149600814Y-66209390D01*
X149600827Y-66209397D01*
X149697646Y-66249500D01*
X149746503Y-66269737D01*
X149901153Y-66300499D01*
X149901156Y-66300500D01*
X149901158Y-66300500D01*
X150058844Y-66300500D01*
X150058845Y-66300499D01*
X150213497Y-66269737D01*
X150359179Y-66209394D01*
X150490289Y-66121789D01*
X150601789Y-66010289D01*
X150689394Y-65879179D01*
X150749737Y-65733497D01*
X150780500Y-65578842D01*
X150780500Y-65474500D01*
X150800185Y-65407461D01*
X150852989Y-65361706D01*
X150904500Y-65350500D01*
X151699903Y-65350500D01*
X151766942Y-65370185D01*
X151787584Y-65386819D01*
X156165425Y-69764660D01*
X156198910Y-69825983D01*
X156199361Y-69828149D01*
X156230261Y-69983491D01*
X156230264Y-69983501D01*
X156290602Y-70129172D01*
X156290609Y-70129185D01*
X156378210Y-70260288D01*
X156378213Y-70260292D01*
X156489707Y-70371786D01*
X156489711Y-70371789D01*
X156620814Y-70459390D01*
X156620827Y-70459397D01*
X156766498Y-70519735D01*
X156766503Y-70519737D01*
X156797029Y-70525809D01*
X156820691Y-70530516D01*
X156848821Y-70545230D01*
X156877703Y-70558420D01*
X156879559Y-70561308D01*
X156882602Y-70562900D01*
X156898311Y-70590487D01*
X156915477Y-70617198D01*
X156916137Y-70621792D01*
X156917176Y-70623616D01*
X156920500Y-70652133D01*
X156920500Y-70678902D01*
X156900815Y-70745941D01*
X156884181Y-70766583D01*
X154582437Y-73068326D01*
X154521114Y-73101811D01*
X154451422Y-73096827D01*
X154395489Y-73054955D01*
X154380197Y-73028102D01*
X154358377Y-72975423D01*
X154334334Y-72939440D01*
X154265300Y-72836123D01*
X154146836Y-72717659D01*
X154007534Y-72624581D01*
X153852756Y-72560470D01*
X153852748Y-72560468D01*
X153688445Y-72527786D01*
X153688441Y-72527786D01*
X153654771Y-72527786D01*
X153587732Y-72508101D01*
X153567090Y-72491467D01*
X151213978Y-70138355D01*
X151213976Y-70138352D01*
X151095105Y-70019481D01*
X151095104Y-70019480D01*
X150988336Y-69957838D01*
X150988335Y-69957837D01*
X150958171Y-69940422D01*
X150902269Y-69925443D01*
X150805445Y-69899499D01*
X150647331Y-69899499D01*
X150639735Y-69899499D01*
X150639719Y-69899500D01*
X139653651Y-69899500D01*
X139586612Y-69879815D01*
X139565970Y-69863181D01*
X139542162Y-69839373D01*
X139402860Y-69746295D01*
X139248082Y-69682184D01*
X139248074Y-69682182D01*
X139083771Y-69649500D01*
X139083767Y-69649500D01*
X138916233Y-69649500D01*
X138916228Y-69649500D01*
X138751925Y-69682182D01*
X138751917Y-69682184D01*
X138597139Y-69746295D01*
X138457837Y-69839373D01*
X138339373Y-69957837D01*
X138246295Y-70097139D01*
X138182184Y-70251917D01*
X138182182Y-70251925D01*
X138149500Y-70416228D01*
X138149500Y-70583771D01*
X138166186Y-70667657D01*
X138159959Y-70737249D01*
X138117095Y-70792426D01*
X138051206Y-70815670D01*
X137983209Y-70799602D01*
X137975679Y-70794951D01*
X137933223Y-70766583D01*
X137902863Y-70746297D01*
X137902860Y-70746295D01*
X137902859Y-70746295D01*
X137748082Y-70682184D01*
X137748074Y-70682182D01*
X137583771Y-70649500D01*
X137583767Y-70649500D01*
X137416233Y-70649500D01*
X137416228Y-70649500D01*
X137251925Y-70682182D01*
X137251917Y-70682184D01*
X137097139Y-70746295D01*
X136957837Y-70839373D01*
X136839373Y-70957837D01*
X136746295Y-71097139D01*
X136682184Y-71251917D01*
X136682182Y-71251925D01*
X136649500Y-71416228D01*
X135083662Y-71416228D01*
X134122127Y-70454693D01*
X134088642Y-70393370D01*
X134088191Y-70342819D01*
X134101021Y-70278322D01*
X134101021Y-70120634D01*
X134101020Y-70120632D01*
X134096347Y-70097139D01*
X134070258Y-69965982D01*
X134059671Y-69940422D01*
X134009918Y-69820306D01*
X134009911Y-69820293D01*
X133922310Y-69689190D01*
X133922307Y-69689186D01*
X133810813Y-69577692D01*
X133810809Y-69577689D01*
X133679706Y-69490088D01*
X133679693Y-69490081D01*
X133534022Y-69429743D01*
X133534010Y-69429740D01*
X133379366Y-69398979D01*
X133379363Y-69398979D01*
X133221679Y-69398979D01*
X133221676Y-69398979D01*
X133067031Y-69429740D01*
X133067019Y-69429743D01*
X132921348Y-69490081D01*
X132921335Y-69490088D01*
X132790232Y-69577689D01*
X132790228Y-69577692D01*
X132678734Y-69689186D01*
X132678731Y-69689190D01*
X132591130Y-69820293D01*
X132591125Y-69820302D01*
X132531459Y-69964351D01*
X132487618Y-70018754D01*
X132464351Y-70031459D01*
X132320302Y-70091125D01*
X132320293Y-70091130D01*
X132189190Y-70178731D01*
X132189186Y-70178734D01*
X132077692Y-70290228D01*
X132077689Y-70290232D01*
X131990088Y-70421335D01*
X131990081Y-70421348D01*
X131929743Y-70567019D01*
X131929740Y-70567031D01*
X131898979Y-70721674D01*
X130596048Y-70721674D01*
X130616000Y-70595701D01*
X130616000Y-70404299D01*
X130586058Y-70215253D01*
X130526911Y-70033218D01*
X130440016Y-69862677D01*
X130409229Y-69820302D01*
X130327518Y-69707835D01*
X130327514Y-69707830D01*
X130207365Y-69587681D01*
X130173880Y-69526358D01*
X130178864Y-69456666D01*
X130207365Y-69412319D01*
X130220705Y-69398979D01*
X130327513Y-69292171D01*
X130440016Y-69137323D01*
X130526911Y-68966782D01*
X130586058Y-68784747D01*
X130616000Y-68595701D01*
X130616000Y-68404299D01*
X130586058Y-68215253D01*
X130526911Y-68033218D01*
X130440016Y-67862677D01*
X130409807Y-67821097D01*
X130327518Y-67707835D01*
X130327514Y-67707830D01*
X130192169Y-67572485D01*
X130192164Y-67572481D01*
X130037326Y-67459986D01*
X130037325Y-67459985D01*
X130037323Y-67459984D01*
X129866782Y-67373089D01*
X129850904Y-67367930D01*
X129793231Y-67328494D01*
X129766032Y-67264135D01*
X129777946Y-67195289D01*
X129825190Y-67143813D01*
X129850902Y-67132070D01*
X129866782Y-67126911D01*
X130037323Y-67040016D01*
X130192171Y-66927513D01*
X130327513Y-66792171D01*
X130440016Y-66637323D01*
X130526911Y-66466782D01*
X130586058Y-66284747D01*
X130616000Y-66095701D01*
X130616000Y-66091156D01*
X135574499Y-66091156D01*
X135610065Y-66269952D01*
X135610067Y-66269958D01*
X135679835Y-66438394D01*
X135681525Y-66441556D01*
X135681908Y-66443399D01*
X135682164Y-66444016D01*
X135682047Y-66444064D01*
X135695761Y-66509960D01*
X135681525Y-66558444D01*
X135679835Y-66561605D01*
X135610067Y-66730041D01*
X135610065Y-66730047D01*
X135574500Y-66908843D01*
X135574500Y-66908846D01*
X135574500Y-67091154D01*
X135574500Y-67091156D01*
X135574499Y-67091156D01*
X135610065Y-67269952D01*
X135610067Y-67269958D01*
X135679835Y-67438394D01*
X135681525Y-67441556D01*
X135681908Y-67443399D01*
X135682164Y-67444016D01*
X135682047Y-67444064D01*
X135695761Y-67509960D01*
X135681525Y-67558444D01*
X135679835Y-67561605D01*
X135610067Y-67730041D01*
X135610065Y-67730047D01*
X135574500Y-67908843D01*
X135574500Y-67908846D01*
X135574500Y-68091154D01*
X135574500Y-68091156D01*
X135574499Y-68091156D01*
X135610065Y-68269952D01*
X135610068Y-68269962D01*
X135679831Y-68438387D01*
X135679833Y-68438391D01*
X135781113Y-68589967D01*
X135781119Y-68589975D01*
X135910024Y-68718880D01*
X135910032Y-68718886D01*
X136061608Y-68820166D01*
X136061612Y-68820168D01*
X136230037Y-68889931D01*
X136230042Y-68889933D01*
X136230046Y-68889933D01*
X136230047Y-68889934D01*
X136408843Y-68925500D01*
X136408846Y-68925500D01*
X136591156Y-68925500D01*
X136711445Y-68901572D01*
X136769958Y-68889933D01*
X136882245Y-68843422D01*
X136938387Y-68820168D01*
X136938391Y-68820166D01*
X137013672Y-68769864D01*
X137089972Y-68718883D01*
X137218883Y-68589972D01*
X137320167Y-68438389D01*
X137334288Y-68404299D01*
X137389931Y-68269962D01*
X137389933Y-68269958D01*
X137416454Y-68136632D01*
X137425500Y-68091156D01*
X137425500Y-67908843D01*
X137389934Y-67730047D01*
X137389933Y-67730046D01*
X137389933Y-67730042D01*
X137340235Y-67610059D01*
X137320169Y-67561615D01*
X137318482Y-67558459D01*
X137318097Y-67556613D01*
X137317836Y-67555982D01*
X137317955Y-67555932D01*
X137304236Y-67490057D01*
X137318482Y-67441541D01*
X137320163Y-67438394D01*
X137320167Y-67438389D01*
X137389933Y-67269958D01*
X137407860Y-67179833D01*
X137425500Y-67091156D01*
X137425500Y-66908843D01*
X137389934Y-66730047D01*
X137389933Y-66730046D01*
X137389933Y-66730042D01*
X137341129Y-66612218D01*
X137320169Y-66561615D01*
X137318482Y-66558459D01*
X137318097Y-66556613D01*
X137317836Y-66555982D01*
X137317955Y-66555932D01*
X137304236Y-66490057D01*
X137318482Y-66441541D01*
X137320163Y-66438394D01*
X137320167Y-66438389D01*
X137389933Y-66269958D01*
X137401981Y-66209390D01*
X137425500Y-66091156D01*
X137425500Y-65908843D01*
X137389934Y-65730047D01*
X137389933Y-65730046D01*
X137389933Y-65730042D01*
X137372076Y-65686930D01*
X137320170Y-65561617D01*
X137318193Y-65557918D01*
X137303953Y-65489515D01*
X137318199Y-65441005D01*
X137319730Y-65438140D01*
X137389451Y-65269817D01*
X137389454Y-65269805D01*
X137424999Y-65091109D01*
X137425000Y-65091106D01*
X137425000Y-64908894D01*
X137424999Y-64908890D01*
X137389454Y-64730194D01*
X137389451Y-64730182D01*
X137384917Y-64719235D01*
X137377450Y-64649766D01*
X137383297Y-64628452D01*
X137416061Y-64540606D01*
X137419091Y-64532483D01*
X137425500Y-64472873D01*
X137425499Y-63527128D01*
X137419091Y-63467517D01*
X137397449Y-63409493D01*
X137368797Y-63332671D01*
X137368793Y-63332664D01*
X137282547Y-63217455D01*
X137282544Y-63217452D01*
X137167335Y-63131206D01*
X137167328Y-63131202D01*
X137032482Y-63080908D01*
X137032483Y-63080908D01*
X136972883Y-63074501D01*
X136972881Y-63074500D01*
X136972873Y-63074500D01*
X136972864Y-63074500D01*
X136027129Y-63074500D01*
X136027123Y-63074501D01*
X135967516Y-63080908D01*
X135832671Y-63131202D01*
X135832664Y-63131206D01*
X135717455Y-63217452D01*
X135717452Y-63217455D01*
X135631206Y-63332664D01*
X135631202Y-63332671D01*
X135580908Y-63467517D01*
X135574501Y-63527116D01*
X135574501Y-63527123D01*
X135574500Y-63527135D01*
X135574500Y-64472870D01*
X135574501Y-64472876D01*
X135580908Y-64532483D01*
X135616702Y-64628451D01*
X135621686Y-64698143D01*
X135615085Y-64719227D01*
X135610549Y-64730180D01*
X135610545Y-64730190D01*
X135575000Y-64908891D01*
X135575000Y-65091109D01*
X135610545Y-65269805D01*
X135610548Y-65269817D01*
X135680275Y-65438153D01*
X135681808Y-65441022D01*
X135682156Y-65442695D01*
X135682606Y-65443781D01*
X135682400Y-65443866D01*
X135696046Y-65509426D01*
X135681811Y-65557909D01*
X135679834Y-65561607D01*
X135610067Y-65730041D01*
X135610065Y-65730047D01*
X135574500Y-65908843D01*
X135574500Y-65908846D01*
X135574500Y-66091154D01*
X135574500Y-66091156D01*
X135574499Y-66091156D01*
X130616000Y-66091156D01*
X130616000Y-65904299D01*
X130586058Y-65715253D01*
X130526911Y-65533218D01*
X130440016Y-65362677D01*
X130419557Y-65334518D01*
X130327518Y-65207835D01*
X130327513Y-65207829D01*
X130192169Y-65072485D01*
X130192164Y-65072481D01*
X130037326Y-64959986D01*
X130037325Y-64959985D01*
X130037323Y-64959984D01*
X129866782Y-64873089D01*
X129684747Y-64813942D01*
X129684745Y-64813941D01*
X129684744Y-64813941D01*
X129539523Y-64790940D01*
X129495701Y-64784000D01*
X129442665Y-64784000D01*
X129375626Y-64764315D01*
X129329871Y-64711511D01*
X129319927Y-64642353D01*
X129335278Y-64597999D01*
X129399823Y-64486204D01*
X129399828Y-64486195D01*
X129511437Y-64216744D01*
X129586930Y-63935003D01*
X129624998Y-63645844D01*
X129625000Y-63645827D01*
X129625000Y-63354172D01*
X129624998Y-63354155D01*
X129586930Y-63064996D01*
X129511437Y-62783255D01*
X129399828Y-62513804D01*
X129399820Y-62513788D01*
X129253993Y-62261211D01*
X129253987Y-62261203D01*
X129140390Y-62113161D01*
X129140389Y-62113161D01*
X128372086Y-62881465D01*
X128277171Y-62750825D01*
X128149175Y-62622829D01*
X128018532Y-62527912D01*
X128786837Y-61759608D01*
X128638796Y-61646012D01*
X128638788Y-61646006D01*
X128386211Y-61500179D01*
X128386195Y-61500171D01*
X128116744Y-61388562D01*
X127835003Y-61313069D01*
X127545844Y-61275001D01*
X127545827Y-61275000D01*
X127254173Y-61275000D01*
X127254155Y-61275001D01*
X126964996Y-61313069D01*
X126683255Y-61388562D01*
X126413804Y-61500171D01*
X126413788Y-61500179D01*
X126161211Y-61646006D01*
X126161195Y-61646017D01*
X126013161Y-61759606D01*
X126013161Y-61759608D01*
X126781466Y-62527913D01*
X126650825Y-62622829D01*
X126522829Y-62750825D01*
X126427913Y-62881466D01*
X125659608Y-62113161D01*
X125659606Y-62113161D01*
X125546017Y-62261195D01*
X125546006Y-62261211D01*
X125400179Y-62513788D01*
X125400171Y-62513804D01*
X125288561Y-62783258D01*
X125288559Y-62783263D01*
X125264768Y-62872051D01*
X125228403Y-62931711D01*
X125165556Y-62962239D01*
X125096180Y-62953944D01*
X125042303Y-62909458D01*
X125021029Y-62842906D01*
X125020995Y-62839620D01*
X125030060Y-59893713D01*
X132649500Y-59893713D01*
X132649500Y-60106286D01*
X132682753Y-60316239D01*
X132748444Y-60518414D01*
X132844951Y-60707820D01*
X132969890Y-60879786D01*
X133120213Y-61030109D01*
X133292179Y-61155048D01*
X133292181Y-61155049D01*
X133292184Y-61155051D01*
X133481588Y-61251557D01*
X133683757Y-61317246D01*
X133893713Y-61350500D01*
X133893714Y-61350500D01*
X134106286Y-61350500D01*
X134106287Y-61350500D01*
X134316243Y-61317246D01*
X134518412Y-61251557D01*
X134707816Y-61155051D01*
X134784276Y-61099500D01*
X134879786Y-61030109D01*
X134879788Y-61030106D01*
X134879792Y-61030104D01*
X135030104Y-60879792D01*
X135030106Y-60879788D01*
X135030109Y-60879786D01*
X135155048Y-60707820D01*
X135155047Y-60707820D01*
X135155051Y-60707816D01*
X135251557Y-60518412D01*
X135317246Y-60316243D01*
X135350500Y-60106287D01*
X135350500Y-59893713D01*
X135317246Y-59683757D01*
X135251557Y-59481588D01*
X135155051Y-59292184D01*
X135155049Y-59292181D01*
X135155048Y-59292179D01*
X135030109Y-59120213D01*
X134879786Y-58969890D01*
X134707820Y-58844951D01*
X134518414Y-58748444D01*
X134518413Y-58748443D01*
X134518412Y-58748443D01*
X134316243Y-58682754D01*
X134316241Y-58682753D01*
X134316240Y-58682753D01*
X134154957Y-58657208D01*
X134106287Y-58649500D01*
X133893713Y-58649500D01*
X133845042Y-58657208D01*
X133683760Y-58682753D01*
X133481585Y-58748444D01*
X133292179Y-58844951D01*
X133120213Y-58969890D01*
X132969890Y-59120213D01*
X132844951Y-59292179D01*
X132748444Y-59481585D01*
X132682753Y-59683760D01*
X132649500Y-59893713D01*
X125030060Y-59893713D01*
X125033888Y-58649500D01*
X125038582Y-57124118D01*
X125058472Y-57057140D01*
X125111417Y-57011548D01*
X125162581Y-57000500D01*
X168375500Y-57000500D01*
X168442539Y-57020185D01*
G37*
%TD.AperFunction*%
%TA.AperFunction,Conductor*%
G36*
X125222469Y-64051593D02*
G01*
X125260062Y-64110487D01*
X125260753Y-64112961D01*
X125288563Y-64216745D01*
X125400171Y-64486195D01*
X125400179Y-64486211D01*
X125546006Y-64738788D01*
X125546012Y-64738796D01*
X125659608Y-64886837D01*
X126427912Y-64118532D01*
X126522829Y-64249175D01*
X126650825Y-64377171D01*
X126781465Y-64472086D01*
X126013161Y-65240389D01*
X126013161Y-65240390D01*
X126161203Y-65353987D01*
X126161211Y-65353993D01*
X126413788Y-65499820D01*
X126413804Y-65499828D01*
X126683255Y-65611437D01*
X126964996Y-65686930D01*
X127254155Y-65724998D01*
X127254173Y-65725000D01*
X127545827Y-65725000D01*
X127545844Y-65724998D01*
X127835003Y-65686930D01*
X128050984Y-65629058D01*
X128120834Y-65630721D01*
X128178697Y-65669883D01*
X128206201Y-65734112D01*
X128205550Y-65768231D01*
X128184000Y-65904299D01*
X128184000Y-66095701D01*
X128188132Y-66121789D01*
X128213941Y-66284744D01*
X128213942Y-66284748D01*
X128230411Y-66335435D01*
X128232406Y-66405276D01*
X128196325Y-66465109D01*
X128133624Y-66495936D01*
X128064209Y-66487971D01*
X128043409Y-66475402D01*
X128042847Y-66476245D01*
X127873920Y-66363371D01*
X127873907Y-66363364D01*
X127691839Y-66287950D01*
X127691829Y-66287947D01*
X127498543Y-66249500D01*
X127498541Y-66249500D01*
X127301459Y-66249500D01*
X127301457Y-66249500D01*
X127108170Y-66287947D01*
X127108160Y-66287950D01*
X126926092Y-66363364D01*
X126926079Y-66363371D01*
X126762218Y-66472860D01*
X126762214Y-66472863D01*
X126622863Y-66612214D01*
X126622860Y-66612218D01*
X126513371Y-66776079D01*
X126513364Y-66776092D01*
X126437950Y-66958160D01*
X126437947Y-66958170D01*
X126399500Y-67151456D01*
X126399500Y-67151459D01*
X126399500Y-67348541D01*
X126399500Y-67348543D01*
X126399499Y-67348543D01*
X126437947Y-67541829D01*
X126437950Y-67541839D01*
X126513364Y-67723907D01*
X126513371Y-67723920D01*
X126622860Y-67887781D01*
X126622863Y-67887785D01*
X126762214Y-68027136D01*
X126762218Y-68027139D01*
X126926079Y-68136628D01*
X126926092Y-68136635D01*
X127108160Y-68212049D01*
X127108165Y-68212051D01*
X127108169Y-68212051D01*
X127108170Y-68212052D01*
X127301456Y-68250500D01*
X127301459Y-68250500D01*
X127498543Y-68250500D01*
X127628582Y-68224632D01*
X127691835Y-68212051D01*
X127873914Y-68136632D01*
X127985708Y-68061934D01*
X128042847Y-68023755D01*
X128044317Y-68025955D01*
X128098020Y-68003093D01*
X128166898Y-68014826D01*
X128218498Y-68061934D01*
X128236438Y-68129461D01*
X128230412Y-68164563D01*
X128214983Y-68212051D01*
X128213941Y-68215257D01*
X128184000Y-68404299D01*
X128184000Y-68595700D01*
X128213941Y-68784744D01*
X128213942Y-68784747D01*
X128248119Y-68889934D01*
X128273090Y-68966784D01*
X128359986Y-69137326D01*
X128472481Y-69292164D01*
X128472485Y-69292169D01*
X128592635Y-69412319D01*
X128626120Y-69473642D01*
X128621136Y-69543334D01*
X128592635Y-69587681D01*
X128472485Y-69707830D01*
X128472481Y-69707835D01*
X128359986Y-69862673D01*
X128273090Y-70033215D01*
X128213941Y-70215255D01*
X128184000Y-70404299D01*
X128184000Y-70595700D01*
X128213941Y-70784744D01*
X128213942Y-70784748D01*
X128230411Y-70835435D01*
X128232406Y-70905276D01*
X128196325Y-70965109D01*
X128133624Y-70995936D01*
X128064209Y-70987971D01*
X128043409Y-70975402D01*
X128042847Y-70976245D01*
X127873920Y-70863371D01*
X127873907Y-70863364D01*
X127691839Y-70787950D01*
X127691829Y-70787947D01*
X127498543Y-70749500D01*
X127498541Y-70749500D01*
X127301459Y-70749500D01*
X127301457Y-70749500D01*
X127108170Y-70787947D01*
X127108160Y-70787950D01*
X126926092Y-70863364D01*
X126926079Y-70863371D01*
X126762218Y-70972860D01*
X126762214Y-70972863D01*
X126622863Y-71112214D01*
X126622860Y-71112218D01*
X126513371Y-71276079D01*
X126513364Y-71276092D01*
X126437950Y-71458160D01*
X126437947Y-71458170D01*
X126399500Y-71651456D01*
X126399500Y-71651459D01*
X126399500Y-71848541D01*
X126399500Y-71848543D01*
X126399499Y-71848543D01*
X126437947Y-72041829D01*
X126437950Y-72041839D01*
X126513364Y-72223907D01*
X126513371Y-72223920D01*
X126622860Y-72387781D01*
X126622863Y-72387785D01*
X126762214Y-72527136D01*
X126762218Y-72527139D01*
X126926079Y-72636628D01*
X126926092Y-72636635D01*
X126992098Y-72663975D01*
X127108165Y-72712051D01*
X127108169Y-72712051D01*
X127108170Y-72712052D01*
X127301456Y-72750500D01*
X127301459Y-72750500D01*
X127498543Y-72750500D01*
X127628582Y-72724632D01*
X127691835Y-72712051D01*
X127873914Y-72636632D01*
X127873920Y-72636628D01*
X128042847Y-72523755D01*
X128044165Y-72525728D01*
X128098768Y-72502501D01*
X128167643Y-72514252D01*
X128219231Y-72561373D01*
X128237154Y-72628905D01*
X128231128Y-72663975D01*
X128214428Y-72715374D01*
X128184500Y-72904332D01*
X128184500Y-73095668D01*
X128206078Y-73231911D01*
X128197123Y-73301204D01*
X128152127Y-73354656D01*
X128085375Y-73375295D01*
X128051511Y-73371083D01*
X127835003Y-73313069D01*
X127545844Y-73275001D01*
X127545827Y-73275000D01*
X127254173Y-73275000D01*
X127254155Y-73275001D01*
X126964996Y-73313069D01*
X126683255Y-73388562D01*
X126413804Y-73500171D01*
X126413788Y-73500179D01*
X126161211Y-73646006D01*
X126161195Y-73646017D01*
X126013161Y-73759606D01*
X126013161Y-73759608D01*
X126781466Y-74527913D01*
X126650825Y-74622829D01*
X126522829Y-74750825D01*
X126427913Y-74881466D01*
X125659608Y-74113161D01*
X125659606Y-74113161D01*
X125546017Y-74261195D01*
X125546006Y-74261211D01*
X125400179Y-74513788D01*
X125400171Y-74513804D01*
X125288562Y-74783255D01*
X125227417Y-75011449D01*
X125191051Y-75071109D01*
X125128204Y-75101638D01*
X125058829Y-75093343D01*
X125004951Y-75048857D01*
X124983677Y-74982305D01*
X124983643Y-74979019D01*
X125016979Y-64144670D01*
X125036869Y-64077696D01*
X125089814Y-64032104D01*
X125159003Y-64022373D01*
X125222469Y-64051593D01*
G37*
%TD.AperFunction*%
%TA.AperFunction,Conductor*%
G36*
X128556136Y-71382068D02*
G01*
X128582458Y-71402142D01*
X128607830Y-71427514D01*
X128607835Y-71427518D01*
X128721241Y-71509911D01*
X128762677Y-71540016D01*
X128933218Y-71626911D01*
X128949901Y-71632331D01*
X129007575Y-71671766D01*
X129034775Y-71736124D01*
X129022863Y-71804970D01*
X128975620Y-71856448D01*
X128949906Y-71868192D01*
X128933406Y-71873553D01*
X128762936Y-71960412D01*
X128734573Y-71981019D01*
X128734572Y-71981019D01*
X129303250Y-72549697D01*
X129222447Y-72571349D01*
X129117554Y-72631909D01*
X129031909Y-72717554D01*
X128971349Y-72822447D01*
X128949697Y-72903250D01*
X128340597Y-72294150D01*
X128344034Y-72290712D01*
X128319490Y-72266378D01*
X128304346Y-72198169D01*
X128313504Y-72159036D01*
X128362051Y-72041835D01*
X128396591Y-71868192D01*
X128400500Y-71848543D01*
X128400500Y-71651456D01*
X128373160Y-71514015D01*
X128379387Y-71444424D01*
X128422249Y-71389246D01*
X128488139Y-71366001D01*
X128556136Y-71382068D01*
G37*
%TD.AperFunction*%
%TD*%
M02*
