%TF.GenerationSoftware,KiCad,Pcbnew,10.0.3*%
%TF.CreationDate,2026-06-24T20:19:24-04:00*%
%TF.ProjectId,TurrimX1,54757272-696d-4583-912e-6b696361645f,rev?*%
%TF.SameCoordinates,Original*%
%TF.FileFunction,Soldermask,Bot*%
%TF.FilePolarity,Negative*%
%FSLAX46Y46*%
G04 Gerber Fmt 4.6, Leading zero omitted, Abs format (unit mm)*
G04 Created by KiCad (PCBNEW 10.0.3) date 2026-06-24 20:19:24*
%MOMM*%
%LPD*%
G01*
G04 APERTURE LIST*
G04 APERTURE END LIST*
G36*
X119780134Y-109833156D02*
G01*
X119959220Y-109891345D01*
X120126998Y-109976832D01*
X120279338Y-110087513D01*
X120412487Y-110220662D01*
X120523168Y-110373002D01*
X120608655Y-110540780D01*
X120666844Y-110719866D01*
X120696301Y-110905849D01*
X120696301Y-111094151D01*
X120666844Y-111280134D01*
X120608655Y-111459220D01*
X120523168Y-111626998D01*
X120412487Y-111779338D01*
X120279338Y-111912487D01*
X120126998Y-112023168D01*
X119959220Y-112108655D01*
X119780134Y-112166844D01*
X119594151Y-112196301D01*
X119405849Y-112196301D01*
X119219866Y-112166844D01*
X119040780Y-112108655D01*
X118873002Y-112023168D01*
X118720662Y-111912487D01*
X118587513Y-111779338D01*
X118476832Y-111626998D01*
X118391345Y-111459220D01*
X118333156Y-111280134D01*
X118303699Y-111094151D01*
X118303699Y-110905849D01*
X118333156Y-110719866D01*
X118391345Y-110540780D01*
X118476832Y-110373002D01*
X118587513Y-110220662D01*
X118720662Y-110087513D01*
X118873002Y-109976832D01*
X119040780Y-109891345D01*
X119219866Y-109833156D01*
X119405849Y-109803699D01*
X119594151Y-109803699D01*
X119780134Y-109833156D01*
G37*
G36*
X163780134Y-109833156D02*
G01*
X163959220Y-109891345D01*
X164126998Y-109976832D01*
X164279338Y-110087513D01*
X164412487Y-110220662D01*
X164523168Y-110373002D01*
X164608655Y-110540780D01*
X164666844Y-110719866D01*
X164696301Y-110905849D01*
X164696301Y-111094151D01*
X164666844Y-111280134D01*
X164608655Y-111459220D01*
X164523168Y-111626998D01*
X164412487Y-111779338D01*
X164279338Y-111912487D01*
X164126998Y-112023168D01*
X163959220Y-112108655D01*
X163780134Y-112166844D01*
X163594151Y-112196301D01*
X163405849Y-112196301D01*
X163219866Y-112166844D01*
X163040780Y-112108655D01*
X162873002Y-112023168D01*
X162720662Y-111912487D01*
X162587513Y-111779338D01*
X162476832Y-111626998D01*
X162391345Y-111459220D01*
X162333156Y-111280134D01*
X162303699Y-111094151D01*
X162303699Y-110905849D01*
X162333156Y-110719866D01*
X162391345Y-110540780D01*
X162476832Y-110373002D01*
X162587513Y-110220662D01*
X162720662Y-110087513D01*
X162873002Y-109976832D01*
X163040780Y-109891345D01*
X163219866Y-109833156D01*
X163405849Y-109803699D01*
X163594151Y-109803699D01*
X163780134Y-109833156D01*
G37*
G36*
X125103873Y-104920190D02*
G01*
X125181394Y-104923236D01*
X125188374Y-104924341D01*
X125202918Y-104925056D01*
X125242116Y-104932853D01*
X125345078Y-104949160D01*
X125378200Y-104959922D01*
X125404799Y-104965213D01*
X125442335Y-104980760D01*
X125501762Y-105000070D01*
X125557433Y-105028435D01*
X125594967Y-105043983D01*
X125617517Y-105059050D01*
X125648539Y-105074857D01*
X125732866Y-105136124D01*
X125766113Y-105158339D01*
X125773208Y-105165434D01*
X125781817Y-105171689D01*
X125898310Y-105288182D01*
X125904564Y-105296790D01*
X125911661Y-105303887D01*
X125933878Y-105337138D01*
X125995142Y-105421460D01*
X126010947Y-105452479D01*
X126026017Y-105475033D01*
X126041566Y-105512572D01*
X126069929Y-105568237D01*
X126089235Y-105627657D01*
X126104787Y-105665201D01*
X126110078Y-105691805D01*
X126120839Y-105724921D01*
X126137145Y-105827876D01*
X126144944Y-105867082D01*
X126144944Y-105877114D01*
X126146609Y-105887627D01*
X126146609Y-106052372D01*
X126144944Y-106062884D01*
X126144944Y-106072918D01*
X126137144Y-106112126D01*
X126120839Y-106215078D01*
X126110079Y-106248192D01*
X126104787Y-106274799D01*
X126089234Y-106312346D01*
X126069929Y-106371762D01*
X126041568Y-106427422D01*
X126026017Y-106464967D01*
X126010945Y-106487523D01*
X125995142Y-106518539D01*
X125933887Y-106602849D01*
X125911661Y-106636113D01*
X125904561Y-106643212D01*
X125898310Y-106651817D01*
X125781817Y-106768310D01*
X125773212Y-106774561D01*
X125766113Y-106781661D01*
X125732849Y-106803887D01*
X125648539Y-106865142D01*
X125617523Y-106880945D01*
X125594967Y-106896017D01*
X125557422Y-106911568D01*
X125501762Y-106939929D01*
X125442346Y-106959234D01*
X125404799Y-106974787D01*
X125378192Y-106980079D01*
X125345078Y-106990839D01*
X125242140Y-107007142D01*
X125202918Y-107014944D01*
X125188365Y-107015658D01*
X125181394Y-107016763D01*
X125103879Y-107019809D01*
X125100000Y-107020000D01*
X125099030Y-107020000D01*
X124100970Y-107020000D01*
X124100000Y-107020000D01*
X124096120Y-107019809D01*
X124018605Y-107016763D01*
X124011633Y-107015658D01*
X123997082Y-107014944D01*
X123957862Y-107007142D01*
X123854921Y-106990839D01*
X123821805Y-106980078D01*
X123795201Y-106974787D01*
X123757657Y-106959235D01*
X123698237Y-106939929D01*
X123642572Y-106911566D01*
X123605033Y-106896017D01*
X123582479Y-106880947D01*
X123551460Y-106865142D01*
X123467138Y-106803878D01*
X123433887Y-106781661D01*
X123426790Y-106774564D01*
X123418182Y-106768310D01*
X123301689Y-106651817D01*
X123295434Y-106643208D01*
X123288339Y-106636113D01*
X123266124Y-106602866D01*
X123204857Y-106518539D01*
X123189050Y-106487517D01*
X123173983Y-106464967D01*
X123158435Y-106427433D01*
X123130070Y-106371762D01*
X123110760Y-106312335D01*
X123095213Y-106274799D01*
X123089922Y-106248200D01*
X123079160Y-106215078D01*
X123062853Y-106112117D01*
X123055056Y-106072918D01*
X123055056Y-106062884D01*
X123053391Y-106052372D01*
X123053391Y-105887627D01*
X123055056Y-105877114D01*
X123055056Y-105867082D01*
X123062852Y-105827886D01*
X123079160Y-105724921D01*
X123089922Y-105691797D01*
X123095213Y-105665201D01*
X123110759Y-105627668D01*
X123130070Y-105568237D01*
X123158438Y-105512561D01*
X123173983Y-105475033D01*
X123189048Y-105452486D01*
X123204857Y-105421460D01*
X123266132Y-105337121D01*
X123288339Y-105303887D01*
X123295432Y-105296793D01*
X123301689Y-105288182D01*
X123418182Y-105171689D01*
X123426793Y-105165432D01*
X123433887Y-105158339D01*
X123467121Y-105136132D01*
X123551460Y-105074857D01*
X123582486Y-105059048D01*
X123605033Y-105043983D01*
X123642561Y-105028438D01*
X123698237Y-105000070D01*
X123757668Y-104980759D01*
X123795201Y-104965213D01*
X123821797Y-104959922D01*
X123854921Y-104949160D01*
X123957887Y-104932852D01*
X123997082Y-104925056D01*
X124011624Y-104924341D01*
X124018605Y-104923236D01*
X124096126Y-104920190D01*
X124100000Y-104920000D01*
X125100000Y-104920000D01*
X125103873Y-104920190D01*
G37*
G36*
X159983686Y-103220241D02*
G01*
X160037577Y-103222889D01*
X160044210Y-103224208D01*
X160058316Y-103225133D01*
X160085562Y-103232433D01*
X160154099Y-103246066D01*
X160186448Y-103259465D01*
X160209610Y-103265672D01*
X160230377Y-103277662D01*
X160262722Y-103291060D01*
X160320816Y-103329877D01*
X160345257Y-103343988D01*
X160351946Y-103350677D01*
X160360481Y-103356380D01*
X160443619Y-103439518D01*
X160449321Y-103448052D01*
X160456012Y-103454743D01*
X160470124Y-103479186D01*
X160508939Y-103537277D01*
X160522335Y-103569618D01*
X160534328Y-103590390D01*
X160540535Y-103613555D01*
X160553933Y-103645900D01*
X160567565Y-103714433D01*
X160574867Y-103741684D01*
X160574867Y-103751141D01*
X160576870Y-103761211D01*
X160576870Y-103878788D01*
X160574867Y-103888857D01*
X160574867Y-103898316D01*
X160567564Y-103925569D01*
X160553933Y-103994099D01*
X160540535Y-104026441D01*
X160534328Y-104049610D01*
X160522334Y-104070383D01*
X160508939Y-104102722D01*
X160470128Y-104160805D01*
X160456012Y-104185257D01*
X160449319Y-104191949D01*
X160443619Y-104200481D01*
X160360481Y-104283619D01*
X160351949Y-104289319D01*
X160345257Y-104296012D01*
X160320805Y-104310128D01*
X160262722Y-104348939D01*
X160230383Y-104362334D01*
X160209610Y-104374328D01*
X160186441Y-104380535D01*
X160154099Y-104393933D01*
X160085576Y-104407562D01*
X160058316Y-104414867D01*
X160044203Y-104415791D01*
X160037577Y-104417110D01*
X159983691Y-104419758D01*
X159980000Y-104420000D01*
X159978768Y-104420000D01*
X158881232Y-104420000D01*
X158880000Y-104420000D01*
X158876308Y-104419758D01*
X158822422Y-104417110D01*
X158815795Y-104415791D01*
X158801684Y-104414867D01*
X158774426Y-104407563D01*
X158705900Y-104393933D01*
X158673555Y-104380535D01*
X158650390Y-104374328D01*
X158629618Y-104362335D01*
X158597277Y-104348939D01*
X158539186Y-104310124D01*
X158514743Y-104296012D01*
X158508052Y-104289321D01*
X158499518Y-104283619D01*
X158416380Y-104200481D01*
X158410677Y-104191946D01*
X158403988Y-104185257D01*
X158389877Y-104160816D01*
X158351060Y-104102722D01*
X158337662Y-104070377D01*
X158325672Y-104049610D01*
X158319465Y-104026448D01*
X158306066Y-103994099D01*
X158292433Y-103925563D01*
X158285133Y-103898316D01*
X158285133Y-103888858D01*
X158283130Y-103878788D01*
X158283130Y-103761211D01*
X158285133Y-103751140D01*
X158285133Y-103741684D01*
X158292433Y-103714439D01*
X158306066Y-103645900D01*
X158319466Y-103613548D01*
X158325672Y-103590390D01*
X158337660Y-103569624D01*
X158351060Y-103537277D01*
X158389881Y-103479175D01*
X158403988Y-103454743D01*
X158410675Y-103448055D01*
X158416380Y-103439518D01*
X158499518Y-103356380D01*
X158508055Y-103350675D01*
X158514743Y-103343988D01*
X158539175Y-103329881D01*
X158597277Y-103291060D01*
X158629624Y-103277660D01*
X158650390Y-103265672D01*
X158673548Y-103259466D01*
X158705900Y-103246066D01*
X158774440Y-103232432D01*
X158801684Y-103225133D01*
X158815787Y-103224208D01*
X158822422Y-103222889D01*
X158876313Y-103220241D01*
X158880000Y-103220000D01*
X159980000Y-103220000D01*
X159983686Y-103220241D01*
G37*
G36*
X163913686Y-103220241D02*
G01*
X163967577Y-103222889D01*
X163974210Y-103224208D01*
X163988316Y-103225133D01*
X164015562Y-103232433D01*
X164084099Y-103246066D01*
X164116448Y-103259465D01*
X164139610Y-103265672D01*
X164160377Y-103277662D01*
X164192722Y-103291060D01*
X164250816Y-103329877D01*
X164275257Y-103343988D01*
X164281946Y-103350677D01*
X164290481Y-103356380D01*
X164373619Y-103439518D01*
X164379321Y-103448052D01*
X164386012Y-103454743D01*
X164400124Y-103479186D01*
X164438939Y-103537277D01*
X164452335Y-103569618D01*
X164464328Y-103590390D01*
X164470535Y-103613555D01*
X164483933Y-103645900D01*
X164497565Y-103714433D01*
X164504867Y-103741684D01*
X164504867Y-103751141D01*
X164506870Y-103761211D01*
X164506870Y-103878788D01*
X164504867Y-103888857D01*
X164504867Y-103898316D01*
X164497564Y-103925569D01*
X164483933Y-103994099D01*
X164470535Y-104026441D01*
X164464328Y-104049610D01*
X164452334Y-104070383D01*
X164438939Y-104102722D01*
X164400128Y-104160805D01*
X164386012Y-104185257D01*
X164379319Y-104191949D01*
X164373619Y-104200481D01*
X164290481Y-104283619D01*
X164281949Y-104289319D01*
X164275257Y-104296012D01*
X164250805Y-104310128D01*
X164192722Y-104348939D01*
X164160383Y-104362334D01*
X164139610Y-104374328D01*
X164116441Y-104380535D01*
X164084099Y-104393933D01*
X164015576Y-104407562D01*
X163988316Y-104414867D01*
X163974203Y-104415791D01*
X163967577Y-104417110D01*
X163913691Y-104419758D01*
X163910000Y-104420000D01*
X163908768Y-104420000D01*
X163311232Y-104420000D01*
X163310000Y-104420000D01*
X163306308Y-104419758D01*
X163252422Y-104417110D01*
X163245795Y-104415791D01*
X163231684Y-104414867D01*
X163204426Y-104407563D01*
X163135900Y-104393933D01*
X163103555Y-104380535D01*
X163080390Y-104374328D01*
X163059618Y-104362335D01*
X163027277Y-104348939D01*
X162969186Y-104310124D01*
X162944743Y-104296012D01*
X162938052Y-104289321D01*
X162929518Y-104283619D01*
X162846380Y-104200481D01*
X162840677Y-104191946D01*
X162833988Y-104185257D01*
X162819877Y-104160816D01*
X162781060Y-104102722D01*
X162767662Y-104070377D01*
X162755672Y-104049610D01*
X162749465Y-104026448D01*
X162736066Y-103994099D01*
X162722433Y-103925563D01*
X162715133Y-103898316D01*
X162715133Y-103888858D01*
X162713130Y-103878788D01*
X162713130Y-103761211D01*
X162715133Y-103751140D01*
X162715133Y-103741684D01*
X162722433Y-103714439D01*
X162736066Y-103645900D01*
X162749466Y-103613548D01*
X162755672Y-103590390D01*
X162767660Y-103569624D01*
X162781060Y-103537277D01*
X162819881Y-103479175D01*
X162833988Y-103454743D01*
X162840675Y-103448055D01*
X162846380Y-103439518D01*
X162929518Y-103356380D01*
X162938055Y-103350675D01*
X162944743Y-103343988D01*
X162969175Y-103329881D01*
X163027277Y-103291060D01*
X163059624Y-103277660D01*
X163080390Y-103265672D01*
X163103548Y-103259466D01*
X163135900Y-103246066D01*
X163204440Y-103232432D01*
X163231684Y-103225133D01*
X163245787Y-103224208D01*
X163252422Y-103222889D01*
X163306313Y-103220241D01*
X163310000Y-103220000D01*
X163910000Y-103220000D01*
X163913686Y-103220241D01*
G37*
G36*
X125699868Y-102164550D02*
G01*
X125705586Y-102167345D01*
X125707962Y-102167722D01*
X125745987Y-102187096D01*
X125803377Y-102215153D01*
X125884847Y-102296623D01*
X125912907Y-102354020D01*
X125932276Y-102392034D01*
X125932652Y-102394408D01*
X125935450Y-102400132D01*
X125950000Y-102500000D01*
X125950000Y-103300000D01*
X125935450Y-103399868D01*
X125932652Y-103405589D01*
X125932277Y-103407962D01*
X125912926Y-103445939D01*
X125884847Y-103503377D01*
X125803377Y-103584847D01*
X125745955Y-103612919D01*
X125707965Y-103632276D01*
X125705591Y-103632651D01*
X125699868Y-103635450D01*
X125600000Y-103650000D01*
X124800000Y-103650000D01*
X124700132Y-103635450D01*
X124694410Y-103632652D01*
X124692037Y-103632277D01*
X124654035Y-103612914D01*
X124596623Y-103584847D01*
X124515153Y-103503377D01*
X124487104Y-103446003D01*
X124467723Y-103407965D01*
X124467346Y-103405588D01*
X124464550Y-103399868D01*
X124450000Y-103300000D01*
X124450000Y-102500000D01*
X124464550Y-102400132D01*
X124467345Y-102394413D01*
X124467722Y-102392037D01*
X124487108Y-102353987D01*
X124515153Y-102296623D01*
X124596623Y-102215153D01*
X124653971Y-102187116D01*
X124692034Y-102167723D01*
X124694411Y-102167346D01*
X124700132Y-102164550D01*
X124800000Y-102150000D01*
X125600000Y-102150000D01*
X125699868Y-102164550D01*
G37*
G36*
X160122640Y-101997351D02*
G01*
X160218724Y-102052825D01*
X160297175Y-102131276D01*
X160352649Y-102227360D01*
X160381364Y-102334526D01*
X160381364Y-102445474D01*
X160352649Y-102552640D01*
X160297175Y-102648724D01*
X160218724Y-102727175D01*
X160122640Y-102782649D01*
X160015474Y-102811364D01*
X159904526Y-102811364D01*
X159797360Y-102782649D01*
X159701276Y-102727175D01*
X159622825Y-102648724D01*
X159567351Y-102552640D01*
X159538636Y-102445474D01*
X159538636Y-102334526D01*
X159567351Y-102227360D01*
X159622825Y-102131276D01*
X159701276Y-102052825D01*
X159797360Y-101997351D01*
X159904526Y-101968636D01*
X160015474Y-101968636D01*
X160122640Y-101997351D01*
G37*
G36*
X125417714Y-99682295D02*
G01*
X125553548Y-99738559D01*
X125675795Y-99820242D01*
X125779758Y-99924205D01*
X125861441Y-100046452D01*
X125917705Y-100182286D01*
X125946389Y-100326487D01*
X125946389Y-100473513D01*
X125917705Y-100617714D01*
X125861441Y-100753548D01*
X125779758Y-100875795D01*
X125675795Y-100979758D01*
X125553548Y-101061441D01*
X125417714Y-101117705D01*
X125273513Y-101146389D01*
X125126487Y-101146389D01*
X124982286Y-101117705D01*
X124846452Y-101061441D01*
X124724205Y-100979758D01*
X124620242Y-100875795D01*
X124538559Y-100753548D01*
X124482295Y-100617714D01*
X124453611Y-100473513D01*
X124453611Y-100326487D01*
X124482295Y-100182286D01*
X124538559Y-100046452D01*
X124620242Y-99924205D01*
X124724205Y-99820242D01*
X124846452Y-99738559D01*
X124982286Y-99682295D01*
X125126487Y-99653611D01*
X125273513Y-99653611D01*
X125417714Y-99682295D01*
G37*
G36*
X120512885Y-97855056D02*
G01*
X120522918Y-97855056D01*
X120562117Y-97862853D01*
X120665078Y-97879160D01*
X120698200Y-97889922D01*
X120724799Y-97895213D01*
X120762335Y-97910760D01*
X120821762Y-97930070D01*
X120877433Y-97958435D01*
X120914967Y-97973983D01*
X120937517Y-97989050D01*
X120968539Y-98004857D01*
X121052866Y-98066124D01*
X121086113Y-98088339D01*
X121093208Y-98095434D01*
X121101817Y-98101689D01*
X121218310Y-98218182D01*
X121224564Y-98226790D01*
X121231661Y-98233887D01*
X121253878Y-98267138D01*
X121315142Y-98351460D01*
X121330947Y-98382479D01*
X121346017Y-98405033D01*
X121361566Y-98442572D01*
X121389929Y-98498237D01*
X121409235Y-98557657D01*
X121424787Y-98595201D01*
X121430078Y-98621805D01*
X121440839Y-98654921D01*
X121457142Y-98757862D01*
X121464944Y-98797082D01*
X121465658Y-98811633D01*
X121466763Y-98818605D01*
X121469809Y-98896120D01*
X121470000Y-98900000D01*
X121470000Y-99900000D01*
X121469809Y-99903883D01*
X121466763Y-99981394D01*
X121465658Y-99988365D01*
X121464944Y-100002918D01*
X121457142Y-100042140D01*
X121440839Y-100145078D01*
X121430079Y-100178192D01*
X121424787Y-100204799D01*
X121409234Y-100242346D01*
X121389929Y-100301762D01*
X121361568Y-100357422D01*
X121346017Y-100394967D01*
X121330945Y-100417523D01*
X121315142Y-100448539D01*
X121253887Y-100532849D01*
X121231661Y-100566113D01*
X121224561Y-100573212D01*
X121218310Y-100581817D01*
X121101817Y-100698310D01*
X121093212Y-100704561D01*
X121086113Y-100711661D01*
X121052849Y-100733887D01*
X120968539Y-100795142D01*
X120937523Y-100810945D01*
X120914967Y-100826017D01*
X120877422Y-100841568D01*
X120821762Y-100869929D01*
X120762346Y-100889234D01*
X120724799Y-100904787D01*
X120698192Y-100910079D01*
X120665078Y-100920839D01*
X120562126Y-100937144D01*
X120522918Y-100944944D01*
X120512884Y-100944944D01*
X120502372Y-100946609D01*
X120337628Y-100946609D01*
X120327115Y-100944944D01*
X120317082Y-100944944D01*
X120277874Y-100937145D01*
X120174921Y-100920839D01*
X120141805Y-100910078D01*
X120115201Y-100904787D01*
X120077657Y-100889235D01*
X120018237Y-100869929D01*
X119962572Y-100841566D01*
X119925033Y-100826017D01*
X119902479Y-100810947D01*
X119871460Y-100795142D01*
X119787138Y-100733878D01*
X119753887Y-100711661D01*
X119746790Y-100704564D01*
X119738182Y-100698310D01*
X119621689Y-100581817D01*
X119615434Y-100573208D01*
X119608339Y-100566113D01*
X119586124Y-100532866D01*
X119524857Y-100448539D01*
X119509050Y-100417517D01*
X119493983Y-100394967D01*
X119478435Y-100357433D01*
X119450070Y-100301762D01*
X119430760Y-100242335D01*
X119415213Y-100204799D01*
X119409922Y-100178200D01*
X119399160Y-100145078D01*
X119382853Y-100042116D01*
X119375056Y-100002918D01*
X119374341Y-99988374D01*
X119373236Y-99981394D01*
X119370190Y-99903877D01*
X119370000Y-99900000D01*
X119370000Y-98900000D01*
X119370190Y-98896126D01*
X119373236Y-98818605D01*
X119374341Y-98811624D01*
X119375056Y-98797082D01*
X119382852Y-98757887D01*
X119399160Y-98654921D01*
X119409922Y-98621797D01*
X119415213Y-98595201D01*
X119430759Y-98557668D01*
X119450070Y-98498237D01*
X119478438Y-98442561D01*
X119493983Y-98405033D01*
X119509048Y-98382486D01*
X119524857Y-98351460D01*
X119586132Y-98267121D01*
X119608339Y-98233887D01*
X119615432Y-98226793D01*
X119621689Y-98218182D01*
X119738182Y-98101689D01*
X119746793Y-98095432D01*
X119753887Y-98088339D01*
X119787121Y-98066132D01*
X119871460Y-98004857D01*
X119902486Y-97989048D01*
X119925033Y-97973983D01*
X119962561Y-97958438D01*
X120018237Y-97930070D01*
X120077668Y-97910759D01*
X120115201Y-97895213D01*
X120141797Y-97889922D01*
X120174921Y-97879160D01*
X120277883Y-97862853D01*
X120317082Y-97855056D01*
X120327115Y-97855056D01*
X120337628Y-97853391D01*
X120502372Y-97853391D01*
X120512885Y-97855056D01*
G37*
G36*
X125417714Y-97682295D02*
G01*
X125553548Y-97738559D01*
X125675795Y-97820242D01*
X125779758Y-97924205D01*
X125861441Y-98046452D01*
X125917705Y-98182286D01*
X125946389Y-98326487D01*
X125946389Y-98473513D01*
X125917705Y-98617714D01*
X125861441Y-98753548D01*
X125779758Y-98875795D01*
X125675795Y-98979758D01*
X125553548Y-99061441D01*
X125417714Y-99117705D01*
X125273513Y-99146389D01*
X125126487Y-99146389D01*
X124982286Y-99117705D01*
X124846452Y-99061441D01*
X124724205Y-98979758D01*
X124620242Y-98875795D01*
X124538559Y-98753548D01*
X124482295Y-98617714D01*
X124453611Y-98473513D01*
X124453611Y-98326487D01*
X124482295Y-98182286D01*
X124538559Y-98046452D01*
X124620242Y-97924205D01*
X124724205Y-97820242D01*
X124846452Y-97738559D01*
X124982286Y-97682295D01*
X125126487Y-97653611D01*
X125273513Y-97653611D01*
X125417714Y-97682295D01*
G37*
G36*
X160122640Y-96217351D02*
G01*
X160218724Y-96272825D01*
X160297175Y-96351276D01*
X160352649Y-96447360D01*
X160381364Y-96554526D01*
X160381364Y-96665474D01*
X160352649Y-96772640D01*
X160297175Y-96868724D01*
X160218724Y-96947175D01*
X160122640Y-97002649D01*
X160015474Y-97031364D01*
X159904526Y-97031364D01*
X159797360Y-97002649D01*
X159701276Y-96947175D01*
X159622825Y-96868724D01*
X159567351Y-96772640D01*
X159538636Y-96665474D01*
X159538636Y-96554526D01*
X159567351Y-96447360D01*
X159622825Y-96351276D01*
X159701276Y-96272825D01*
X159797360Y-96217351D01*
X159904526Y-96188636D01*
X160015474Y-96188636D01*
X160122640Y-96217351D01*
G37*
G36*
X125417714Y-95182295D02*
G01*
X125553548Y-95238559D01*
X125675795Y-95320242D01*
X125779758Y-95424205D01*
X125861441Y-95546452D01*
X125917705Y-95682286D01*
X125946389Y-95826487D01*
X125946389Y-95973513D01*
X125917705Y-96117714D01*
X125861441Y-96253548D01*
X125779758Y-96375795D01*
X125675795Y-96479758D01*
X125553548Y-96561441D01*
X125417714Y-96617705D01*
X125273513Y-96646389D01*
X125126487Y-96646389D01*
X124982286Y-96617705D01*
X124846452Y-96561441D01*
X124724205Y-96479758D01*
X124620242Y-96375795D01*
X124538559Y-96253548D01*
X124482295Y-96117714D01*
X124453611Y-95973513D01*
X124453611Y-95826487D01*
X124482295Y-95682286D01*
X124538559Y-95546452D01*
X124620242Y-95424205D01*
X124724205Y-95320242D01*
X124846452Y-95238559D01*
X124982286Y-95182295D01*
X125126487Y-95153611D01*
X125273513Y-95153611D01*
X125417714Y-95182295D01*
G37*
G36*
X159983686Y-94580241D02*
G01*
X160037577Y-94582889D01*
X160044210Y-94584208D01*
X160058316Y-94585133D01*
X160085562Y-94592433D01*
X160154099Y-94606066D01*
X160186448Y-94619465D01*
X160209610Y-94625672D01*
X160230377Y-94637662D01*
X160262722Y-94651060D01*
X160320816Y-94689877D01*
X160345257Y-94703988D01*
X160351946Y-94710677D01*
X160360481Y-94716380D01*
X160443619Y-94799518D01*
X160449321Y-94808052D01*
X160456012Y-94814743D01*
X160470124Y-94839186D01*
X160508939Y-94897277D01*
X160522335Y-94929618D01*
X160534328Y-94950390D01*
X160540535Y-94973555D01*
X160553933Y-95005900D01*
X160567565Y-95074433D01*
X160574867Y-95101684D01*
X160574867Y-95111141D01*
X160576870Y-95121211D01*
X160576870Y-95238788D01*
X160574867Y-95248857D01*
X160574867Y-95258316D01*
X160567564Y-95285569D01*
X160553933Y-95354099D01*
X160540535Y-95386441D01*
X160534328Y-95409610D01*
X160522334Y-95430383D01*
X160508939Y-95462722D01*
X160470128Y-95520805D01*
X160456012Y-95545257D01*
X160449319Y-95551949D01*
X160443619Y-95560481D01*
X160360481Y-95643619D01*
X160351949Y-95649319D01*
X160345257Y-95656012D01*
X160320805Y-95670128D01*
X160262722Y-95708939D01*
X160230383Y-95722334D01*
X160209610Y-95734328D01*
X160186441Y-95740535D01*
X160154099Y-95753933D01*
X160085576Y-95767562D01*
X160058316Y-95774867D01*
X160044203Y-95775791D01*
X160037577Y-95777110D01*
X159983691Y-95779758D01*
X159980000Y-95780000D01*
X159978768Y-95780000D01*
X158881232Y-95780000D01*
X158880000Y-95780000D01*
X158876308Y-95779758D01*
X158822422Y-95777110D01*
X158815795Y-95775791D01*
X158801684Y-95774867D01*
X158774426Y-95767563D01*
X158705900Y-95753933D01*
X158673555Y-95740535D01*
X158650390Y-95734328D01*
X158629618Y-95722335D01*
X158597277Y-95708939D01*
X158539186Y-95670124D01*
X158514743Y-95656012D01*
X158508052Y-95649321D01*
X158499518Y-95643619D01*
X158416380Y-95560481D01*
X158410677Y-95551946D01*
X158403988Y-95545257D01*
X158389877Y-95520816D01*
X158351060Y-95462722D01*
X158337662Y-95430377D01*
X158325672Y-95409610D01*
X158319465Y-95386448D01*
X158306066Y-95354099D01*
X158292433Y-95285563D01*
X158285133Y-95258316D01*
X158285133Y-95248858D01*
X158283130Y-95238788D01*
X158283130Y-95121211D01*
X158285133Y-95111140D01*
X158285133Y-95101684D01*
X158292433Y-95074439D01*
X158306066Y-95005900D01*
X158319466Y-94973548D01*
X158325672Y-94950390D01*
X158337660Y-94929624D01*
X158351060Y-94897277D01*
X158389881Y-94839175D01*
X158403988Y-94814743D01*
X158410675Y-94808055D01*
X158416380Y-94799518D01*
X158499518Y-94716380D01*
X158508055Y-94710675D01*
X158514743Y-94703988D01*
X158539175Y-94689881D01*
X158597277Y-94651060D01*
X158629624Y-94637660D01*
X158650390Y-94625672D01*
X158673548Y-94619466D01*
X158705900Y-94606066D01*
X158774440Y-94592432D01*
X158801684Y-94585133D01*
X158815787Y-94584208D01*
X158822422Y-94582889D01*
X158876313Y-94580241D01*
X158880000Y-94580000D01*
X159980000Y-94580000D01*
X159983686Y-94580241D01*
G37*
G36*
X163913686Y-94580241D02*
G01*
X163967577Y-94582889D01*
X163974210Y-94584208D01*
X163988316Y-94585133D01*
X164015562Y-94592433D01*
X164084099Y-94606066D01*
X164116448Y-94619465D01*
X164139610Y-94625672D01*
X164160377Y-94637662D01*
X164192722Y-94651060D01*
X164250816Y-94689877D01*
X164275257Y-94703988D01*
X164281946Y-94710677D01*
X164290481Y-94716380D01*
X164373619Y-94799518D01*
X164379321Y-94808052D01*
X164386012Y-94814743D01*
X164400124Y-94839186D01*
X164438939Y-94897277D01*
X164452335Y-94929618D01*
X164464328Y-94950390D01*
X164470535Y-94973555D01*
X164483933Y-95005900D01*
X164497565Y-95074433D01*
X164504867Y-95101684D01*
X164504867Y-95111141D01*
X164506870Y-95121211D01*
X164506870Y-95238788D01*
X164504867Y-95248857D01*
X164504867Y-95258316D01*
X164497564Y-95285569D01*
X164483933Y-95354099D01*
X164470535Y-95386441D01*
X164464328Y-95409610D01*
X164452334Y-95430383D01*
X164438939Y-95462722D01*
X164400128Y-95520805D01*
X164386012Y-95545257D01*
X164379319Y-95551949D01*
X164373619Y-95560481D01*
X164290481Y-95643619D01*
X164281949Y-95649319D01*
X164275257Y-95656012D01*
X164250805Y-95670128D01*
X164192722Y-95708939D01*
X164160383Y-95722334D01*
X164139610Y-95734328D01*
X164116441Y-95740535D01*
X164084099Y-95753933D01*
X164015576Y-95767562D01*
X163988316Y-95774867D01*
X163974203Y-95775791D01*
X163967577Y-95777110D01*
X163913691Y-95779758D01*
X163910000Y-95780000D01*
X163908768Y-95780000D01*
X163311232Y-95780000D01*
X163310000Y-95780000D01*
X163306308Y-95779758D01*
X163252422Y-95777110D01*
X163245795Y-95775791D01*
X163231684Y-95774867D01*
X163204426Y-95767563D01*
X163135900Y-95753933D01*
X163103555Y-95740535D01*
X163080390Y-95734328D01*
X163059618Y-95722335D01*
X163027277Y-95708939D01*
X162969186Y-95670124D01*
X162944743Y-95656012D01*
X162938052Y-95649321D01*
X162929518Y-95643619D01*
X162846380Y-95560481D01*
X162840677Y-95551946D01*
X162833988Y-95545257D01*
X162819877Y-95520816D01*
X162781060Y-95462722D01*
X162767662Y-95430377D01*
X162755672Y-95409610D01*
X162749465Y-95386448D01*
X162736066Y-95354099D01*
X162722433Y-95285563D01*
X162715133Y-95258316D01*
X162715133Y-95248858D01*
X162713130Y-95238788D01*
X162713130Y-95121211D01*
X162715133Y-95111140D01*
X162715133Y-95101684D01*
X162722433Y-95074439D01*
X162736066Y-95005900D01*
X162749466Y-94973548D01*
X162755672Y-94950390D01*
X162767660Y-94929624D01*
X162781060Y-94897277D01*
X162819881Y-94839175D01*
X162833988Y-94814743D01*
X162840675Y-94808055D01*
X162846380Y-94799518D01*
X162929518Y-94716380D01*
X162938055Y-94710675D01*
X162944743Y-94703988D01*
X162969175Y-94689881D01*
X163027277Y-94651060D01*
X163059624Y-94637660D01*
X163080390Y-94625672D01*
X163103548Y-94619466D01*
X163135900Y-94606066D01*
X163204440Y-94592432D01*
X163231684Y-94585133D01*
X163245787Y-94584208D01*
X163252422Y-94582889D01*
X163306313Y-94580241D01*
X163310000Y-94580000D01*
X163910000Y-94580000D01*
X163913686Y-94580241D01*
G37*
G36*
X125103873Y-91780190D02*
G01*
X125181394Y-91783236D01*
X125188374Y-91784341D01*
X125202918Y-91785056D01*
X125242116Y-91792853D01*
X125345078Y-91809160D01*
X125378200Y-91819922D01*
X125404799Y-91825213D01*
X125442335Y-91840760D01*
X125501762Y-91860070D01*
X125557433Y-91888435D01*
X125594967Y-91903983D01*
X125617517Y-91919050D01*
X125648539Y-91934857D01*
X125732866Y-91996124D01*
X125766113Y-92018339D01*
X125773208Y-92025434D01*
X125781817Y-92031689D01*
X125898310Y-92148182D01*
X125904564Y-92156790D01*
X125911661Y-92163887D01*
X125933878Y-92197138D01*
X125995142Y-92281460D01*
X126010947Y-92312479D01*
X126026017Y-92335033D01*
X126041566Y-92372572D01*
X126069929Y-92428237D01*
X126089235Y-92487657D01*
X126104787Y-92525201D01*
X126110078Y-92551805D01*
X126120839Y-92584921D01*
X126137145Y-92687876D01*
X126144944Y-92727082D01*
X126144944Y-92737114D01*
X126146609Y-92747627D01*
X126146609Y-92912372D01*
X126144944Y-92922884D01*
X126144944Y-92932918D01*
X126137144Y-92972126D01*
X126120839Y-93075078D01*
X126110079Y-93108192D01*
X126104787Y-93134799D01*
X126089234Y-93172346D01*
X126069929Y-93231762D01*
X126041568Y-93287422D01*
X126026017Y-93324967D01*
X126010945Y-93347523D01*
X125995142Y-93378539D01*
X125933887Y-93462849D01*
X125911661Y-93496113D01*
X125904561Y-93503212D01*
X125898310Y-93511817D01*
X125781817Y-93628310D01*
X125773212Y-93634561D01*
X125766113Y-93641661D01*
X125732849Y-93663887D01*
X125648539Y-93725142D01*
X125617523Y-93740945D01*
X125594967Y-93756017D01*
X125557422Y-93771568D01*
X125501762Y-93799929D01*
X125442346Y-93819234D01*
X125404799Y-93834787D01*
X125378192Y-93840079D01*
X125345078Y-93850839D01*
X125242140Y-93867142D01*
X125202918Y-93874944D01*
X125188365Y-93875658D01*
X125181394Y-93876763D01*
X125103879Y-93879809D01*
X125100000Y-93880000D01*
X125099030Y-93880000D01*
X124100970Y-93880000D01*
X124100000Y-93880000D01*
X124096120Y-93879809D01*
X124018605Y-93876763D01*
X124011633Y-93875658D01*
X123997082Y-93874944D01*
X123957862Y-93867142D01*
X123854921Y-93850839D01*
X123821805Y-93840078D01*
X123795201Y-93834787D01*
X123757657Y-93819235D01*
X123698237Y-93799929D01*
X123642572Y-93771566D01*
X123605033Y-93756017D01*
X123582479Y-93740947D01*
X123551460Y-93725142D01*
X123467138Y-93663878D01*
X123433887Y-93641661D01*
X123426790Y-93634564D01*
X123418182Y-93628310D01*
X123301689Y-93511817D01*
X123295434Y-93503208D01*
X123288339Y-93496113D01*
X123266124Y-93462866D01*
X123204857Y-93378539D01*
X123189050Y-93347517D01*
X123173983Y-93324967D01*
X123158435Y-93287433D01*
X123130070Y-93231762D01*
X123110760Y-93172335D01*
X123095213Y-93134799D01*
X123089922Y-93108200D01*
X123079160Y-93075078D01*
X123062853Y-92972117D01*
X123055056Y-92932918D01*
X123055056Y-92922884D01*
X123053391Y-92912372D01*
X123053391Y-92747627D01*
X123055056Y-92737114D01*
X123055056Y-92727082D01*
X123062852Y-92687886D01*
X123079160Y-92584921D01*
X123089922Y-92551797D01*
X123095213Y-92525201D01*
X123110759Y-92487668D01*
X123130070Y-92428237D01*
X123158438Y-92372561D01*
X123173983Y-92335033D01*
X123189048Y-92312486D01*
X123204857Y-92281460D01*
X123266132Y-92197121D01*
X123288339Y-92163887D01*
X123295432Y-92156793D01*
X123301689Y-92148182D01*
X123418182Y-92031689D01*
X123426793Y-92025432D01*
X123433887Y-92018339D01*
X123467121Y-91996132D01*
X123551460Y-91934857D01*
X123582486Y-91919048D01*
X123605033Y-91903983D01*
X123642561Y-91888438D01*
X123698237Y-91860070D01*
X123757668Y-91840759D01*
X123795201Y-91825213D01*
X123821797Y-91819922D01*
X123854921Y-91809160D01*
X123957887Y-91792852D01*
X123997082Y-91785056D01*
X124011624Y-91784341D01*
X124018605Y-91783236D01*
X124096126Y-91780190D01*
X124100000Y-91780000D01*
X125100000Y-91780000D01*
X125103873Y-91780190D01*
G37*
G36*
X119780134Y-86833156D02*
G01*
X119959220Y-86891345D01*
X120126998Y-86976832D01*
X120279338Y-87087513D01*
X120412487Y-87220662D01*
X120523168Y-87373002D01*
X120608655Y-87540780D01*
X120666844Y-87719866D01*
X120696301Y-87905849D01*
X120696301Y-88094151D01*
X120666844Y-88280134D01*
X120608655Y-88459220D01*
X120523168Y-88626998D01*
X120412487Y-88779338D01*
X120279338Y-88912487D01*
X120126998Y-89023168D01*
X119959220Y-89108655D01*
X119780134Y-89166844D01*
X119594151Y-89196301D01*
X119405849Y-89196301D01*
X119219866Y-89166844D01*
X119040780Y-89108655D01*
X118873002Y-89023168D01*
X118720662Y-88912487D01*
X118587513Y-88779338D01*
X118476832Y-88626998D01*
X118391345Y-88459220D01*
X118333156Y-88280134D01*
X118303699Y-88094151D01*
X118303699Y-87905849D01*
X118333156Y-87719866D01*
X118391345Y-87540780D01*
X118476832Y-87373002D01*
X118587513Y-87220662D01*
X118720662Y-87087513D01*
X118873002Y-86976832D01*
X119040780Y-86891345D01*
X119219866Y-86833156D01*
X119405849Y-86803699D01*
X119594151Y-86803699D01*
X119780134Y-86833156D01*
G37*
G36*
X163780134Y-86833156D02*
G01*
X163959220Y-86891345D01*
X164126998Y-86976832D01*
X164279338Y-87087513D01*
X164412487Y-87220662D01*
X164523168Y-87373002D01*
X164608655Y-87540780D01*
X164666844Y-87719866D01*
X164696301Y-87905849D01*
X164696301Y-88094151D01*
X164666844Y-88280134D01*
X164608655Y-88459220D01*
X164523168Y-88626998D01*
X164412487Y-88779338D01*
X164279338Y-88912487D01*
X164126998Y-89023168D01*
X163959220Y-89108655D01*
X163780134Y-89166844D01*
X163594151Y-89196301D01*
X163405849Y-89196301D01*
X163219866Y-89166844D01*
X163040780Y-89108655D01*
X162873002Y-89023168D01*
X162720662Y-88912487D01*
X162587513Y-88779338D01*
X162476832Y-88626998D01*
X162391345Y-88459220D01*
X162333156Y-88280134D01*
X162303699Y-88094151D01*
X162303699Y-87905849D01*
X162333156Y-87719866D01*
X162391345Y-87540780D01*
X162476832Y-87373002D01*
X162587513Y-87220662D01*
X162720662Y-87087513D01*
X162873002Y-86976832D01*
X163040780Y-86891345D01*
X163219866Y-86833156D01*
X163405849Y-86803699D01*
X163594151Y-86803699D01*
X163780134Y-86833156D01*
G37*
M02*
