M48
; DRILL file KiCad 10.0.3 date 2026-05-23T20:13:59
; FORMAT={-:-/ absolute / inch / decimal}
; #@! TF.CreationDate,2026-05-23T20:13:59-04:00
; #@! TF.GenerationSoftware,Kicad,Pcbnew,10.0.3
; #@! TF.FileFunction,Plated,1,2,PTH
FMAT,2
INCH
; #@! TA.AperFunction,Plated,PTH,ViaDrill
T1C0.0118
; #@! TA.AperFunction,Plated,PTH,ComponentDrill
T2C0.0236
; #@! TA.AperFunction,Plated,PTH,ComponentDrill
T3C0.0354
; #@! TA.AperFunction,Plated,PTH,ComponentDrill
T4C0.0512
%
G90
G05
T1
X5.0079Y-3.7795
X5.874Y-3.811
X5.874Y-3.9843
X6.0709Y-3.7874
X6.0709Y-4.0551
T3
X4.9291Y-3.7756
X4.9291Y-3.874
X4.9291Y-3.9528
X4.9291Y-4.0512
T2
G00X6.1561Y-3.748
M15
G01X6.1994Y-3.748
M16
G05
G00X6.1561Y-4.0882
M15
G01X6.1994Y-4.0882
M16
G05
G00X6.3305Y-3.748
M15
G01X6.3541Y-3.748
M16
G05
G00X6.3305Y-4.0882
M15
G01X6.3541Y-4.0882
M16
G05
T4
G00X4.7409Y-3.9331
M15
G01X4.7409Y-3.8937
M16
G05
G00X4.8858Y-3.6547
M15
G01X4.9252Y-3.6547
M16
G05
G00X4.9252Y-4.172
M15
G01X4.8858Y-4.172
M16
G05
M30
