%TF.GenerationSoftware,KiCad,Pcbnew,10.0.3*%
%TF.CreationDate,2026-06-24T20:19:24-04:00*%
%TF.ProjectId,TurrimX1,54757272-696d-4583-912e-6b696361645f,rev?*%
%TF.SameCoordinates,Original*%
%TF.FileFunction,Copper,L1,Top*%
%TF.FilePolarity,Positive*%
%FSLAX46Y46*%
G04 Gerber Fmt 4.6, Leading zero omitted, Abs format (unit mm)*
G04 Created by KiCad (PCBNEW 10.0.3) date 2026-06-24 20:19:24*
%MOMM*%
%LPD*%
G01*
G04 APERTURE LIST*
G04 Aperture macros list*
%AMRoundRect*
0 Rectangle with rounded corners*
0 $1 Rounding radius*
0 $2 $3 $4 $5 $6 $7 $8 $9 X,Y pos of 4 corners*
0 Add a 4 corners polygon primitive as box body*
4,1,4,$2,$3,$4,$5,$6,$7,$8,$9,$2,$3,0*
0 Add four circle primitives for the rounded corners*
1,1,$1+$1,$2,$3*
1,1,$1+$1,$4,$5*
1,1,$1+$1,$6,$7*
1,1,$1+$1,$8,$9*
0 Add four rect primitives between the rounded corners*
20,1,$1+$1,$2,$3,$4,$5,0*
20,1,$1+$1,$4,$5,$6,$7,0*
20,1,$1+$1,$6,$7,$8,$9,0*
20,1,$1+$1,$8,$9,$2,$3,0*%
G04 Aperture macros list end*
%TA.AperFunction,ComponentPad*%
%ADD10O,2.900000X1.900000*%
%TD*%
%TA.AperFunction,ComponentPad*%
%ADD11O,1.900000X2.900000*%
%TD*%
%TA.AperFunction,ComponentPad*%
%ADD12C,1.300000*%
%TD*%
%TA.AperFunction,ComponentPad*%
%ADD13RoundRect,0.250000X0.400000X-0.400000X0.400000X0.400000X-0.400000X0.400000X-0.400000X-0.400000X0*%
%TD*%
%TA.AperFunction,SMDPad,CuDef*%
%ADD14RoundRect,0.150000X0.575000X-0.150000X0.575000X0.150000X-0.575000X0.150000X-0.575000X-0.150000X0*%
%TD*%
%TA.AperFunction,SMDPad,CuDef*%
%ADD15RoundRect,0.075000X0.650000X-0.075000X0.650000X0.075000X-0.650000X0.075000X-0.650000X-0.075000X0*%
%TD*%
%TA.AperFunction,ComponentPad*%
%ADD16O,2.100000X1.000000*%
%TD*%
%TA.AperFunction,ComponentPad*%
%ADD17O,1.600000X1.000000*%
%TD*%
%TA.AperFunction,SMDPad,CuDef*%
%ADD18RoundRect,0.250000X0.262500X0.450000X-0.262500X0.450000X-0.262500X-0.450000X0.262500X-0.450000X0*%
%TD*%
%TA.AperFunction,ViaPad*%
%ADD19C,0.600000*%
%TD*%
%TA.AperFunction,Conductor*%
%ADD20C,0.300000*%
%TD*%
%TA.AperFunction,Conductor*%
%ADD21C,0.500000*%
%TD*%
G04 APERTURE END LIST*
D10*
%TO.P,J2,SH,Shield_SH*%
%TO.N,GND*%
X124600000Y-92830000D03*
D11*
X120420000Y-99400000D03*
D10*
X124600000Y-105970000D03*
D12*
%TO.P,J2,4,GND_4*%
X125200000Y-95900000D03*
%TO.P,J2,3,D+_3*%
%TO.N,D+*%
X125200000Y-98400000D03*
%TO.P,J2,2,D-_2*%
%TO.N,D-*%
X125200000Y-100400000D03*
D13*
%TO.P,J2,1,VBUS_1*%
%TO.N,Net-(J2-VBUS)*%
X125200000Y-102900000D03*
%TD*%
D14*
%TO.P,J1,A1,GND_A1*%
%TO.N,GND*%
X158515000Y-102750000D03*
%TO.P,J1,A4,VBUS_A4*%
%TO.N,Net-(J2-VBUS)*%
X158515000Y-101950000D03*
D15*
%TO.P,J1,A5,CC1_A5*%
%TO.N,Net-(J1-CC1)*%
X158515000Y-100750000D03*
%TO.P,J1,A6,D+_A6*%
%TO.N,D+*%
X158515000Y-99750000D03*
%TO.P,J1,A7,D-_A7*%
%TO.N,D-*%
X158515000Y-99250000D03*
%TO.P,J1,A8,SBU1_A8*%
%TO.N,unconnected-(J1-SBU1-PadA8)*%
X158515000Y-98250000D03*
D14*
%TO.P,J1,A9,VBUS_A9*%
%TO.N,Net-(J2-VBUS)*%
X158515000Y-97050000D03*
%TO.P,J1,A12,GND_A12*%
%TO.N,GND*%
X158515000Y-96250000D03*
%TO.P,J1,B1,GND_B1*%
X158515000Y-96250000D03*
%TO.P,J1,B4,VBUS_B4*%
%TO.N,Net-(J2-VBUS)*%
X158515000Y-97050000D03*
D15*
%TO.P,J1,B5,CC2_B5*%
%TO.N,Net-(J1-CC2)*%
X158515000Y-97750000D03*
%TO.P,J1,B6,D+_B6*%
%TO.N,D+*%
X158515000Y-98750000D03*
%TO.P,J1,B7,D-_B7*%
%TO.N,D-*%
X158515000Y-100250000D03*
%TO.P,J1,B8,SBU2_B8*%
%TO.N,unconnected-(J1-SBU2-PadB8)*%
X158515000Y-101250000D03*
D14*
%TO.P,J1,B9,VBUS_B9*%
%TO.N,Net-(J2-VBUS)*%
X158515000Y-101950000D03*
%TO.P,J1,B12,GND_B12*%
%TO.N,GND*%
X158515000Y-102750000D03*
D16*
%TO.P,J1,SH,SHIELD_SH*%
X159430000Y-103820000D03*
D17*
X163610000Y-103820000D03*
D16*
X159430000Y-95180000D03*
D17*
X163610000Y-95180000D03*
%TD*%
D18*
%TO.P,R2,1*%
%TO.N,Net-(J1-CC2)*%
X155250000Y-97500000D03*
%TO.P,R2,2*%
%TO.N,GND*%
X153425000Y-97500000D03*
%TD*%
%TO.P,R1,1*%
%TO.N,Net-(J1-CC1)*%
X155250000Y-101250000D03*
%TO.P,R1,2*%
%TO.N,GND*%
X153425000Y-101250000D03*
%TD*%
D19*
%TO.N,GND*%
X152250000Y-97500000D03*
X152250000Y-101250000D03*
X156743164Y-103550000D03*
X156750000Y-96000000D03*
X127200000Y-96000000D03*
%TD*%
%TO.N,Net-(J2-VBUS)*%
D20*
X158515000Y-97050000D02*
X159239999Y-97050000D01*
X159239999Y-97050000D02*
X160689000Y-98499001D01*
X160689000Y-98499001D02*
X160689000Y-100630038D01*
X160689000Y-100630038D02*
X159369038Y-101950000D01*
X159369038Y-101950000D02*
X158515000Y-101950000D01*
%TO.N,D-*%
X137300919Y-99750001D02*
X137414895Y-99750000D01*
%TO.N,D+*%
X140459541Y-98750000D02*
X158515000Y-98750000D01*
%TO.N,D-*%
X140064895Y-100100001D02*
X140064895Y-99900001D01*
%TO.N,D+*%
X140214895Y-98750001D02*
X140414895Y-98750001D01*
X138714895Y-100250001D02*
X138914895Y-100250001D01*
X137300919Y-98750000D02*
X137414895Y-98750001D01*
X137414895Y-98750001D02*
G75*
G02*
X138564899Y-99900001I5J-1149999D01*
G01*
%TO.N,D-*%
X137414895Y-99750001D02*
G75*
G02*
X137564899Y-99900001I5J-149999D01*
G01*
X138914895Y-101250001D02*
G75*
G03*
X140064901Y-100100001I5J1150001D01*
G01*
X140064895Y-99900001D02*
G75*
G02*
X140214895Y-99749995I150005J1D01*
G01*
X125849999Y-99750001D02*
X137300919Y-99750001D01*
X137414895Y-99750000D02*
X137414895Y-99750001D01*
X140214895Y-99750001D02*
X140414895Y-99750001D01*
X137564895Y-99900001D02*
X137564895Y-100100001D01*
X140414895Y-99750001D02*
X140459541Y-99750001D01*
X140459541Y-99750001D02*
X157440000Y-99750000D01*
%TO.N,D+*%
X138564895Y-99900001D02*
X138564895Y-100100001D01*
X125550000Y-98750000D02*
X137300919Y-98750000D01*
X138914895Y-100250001D02*
G75*
G03*
X139064901Y-100100001I5J150001D01*
G01*
%TO.N,D-*%
X138714895Y-101250001D02*
X138914895Y-101250001D01*
%TO.N,D+*%
X140414895Y-98750001D02*
X140459541Y-98750000D01*
X139064895Y-100100001D02*
X139064895Y-99900001D01*
%TO.N,D-*%
X125200000Y-100400000D02*
X125849999Y-99750001D01*
%TO.N,D+*%
X125200000Y-98400000D02*
X125550000Y-98750000D01*
X138564895Y-100100001D02*
G75*
G03*
X138714895Y-100250005I150005J1D01*
G01*
X139064895Y-99900001D02*
G75*
G02*
X140214895Y-98749995I1150005J1D01*
G01*
%TO.N,D-*%
X137564895Y-100100001D02*
G75*
G03*
X138714895Y-101250005I1150005J1D01*
G01*
X157440000Y-99750000D02*
X157440000Y-100003120D01*
X157440000Y-99496880D02*
X157440000Y-99750000D01*
%TO.N,GND*%
D21*
X153425000Y-97500000D02*
X152250000Y-97500000D01*
X153425000Y-101250000D02*
X152250000Y-101250000D01*
%TO.N,Net-(J1-CC2)*%
D20*
X155250000Y-97500000D02*
X155500000Y-97750000D01*
X155500000Y-97750000D02*
X158515000Y-97750000D01*
%TO.N,Net-(J1-CC1)*%
X155250000Y-101250000D02*
X155750000Y-100750000D01*
X155750000Y-100750000D02*
X158515000Y-100750000D01*
%TO.N,D+*%
X159750000Y-99500000D02*
X159750000Y-99000000D01*
X159500000Y-98750000D02*
X158515000Y-98750000D01*
X158515000Y-99750000D02*
X159500000Y-99750000D01*
X159500000Y-99750000D02*
X159750000Y-99500000D01*
X159750000Y-99000000D02*
X159500000Y-98750000D01*
%TO.N,D-*%
X158515000Y-99250000D02*
X157686880Y-99250000D01*
X157686880Y-99250000D02*
X157440000Y-99496880D01*
X157440000Y-100003120D02*
X157686880Y-100250000D01*
X157686880Y-100250000D02*
X158515000Y-100250000D01*
%TO.N,GND*%
D21*
X157715000Y-103550000D02*
X156743164Y-103550000D01*
X158515000Y-102750000D02*
X157715000Y-103550000D01*
X157000000Y-96250000D02*
X156750000Y-96000000D01*
X158515000Y-96250000D02*
X157000000Y-96250000D01*
%TO.N,Net-(J2-VBUS)*%
D20*
X156928738Y-102900000D02*
X157878738Y-101950000D01*
X157878738Y-101950000D02*
X158515000Y-101950000D01*
%TO.N,GND*%
D21*
X127100000Y-95900000D02*
X127200000Y-96000000D01*
X125200000Y-95900000D02*
X127100000Y-95900000D01*
%TO.N,Net-(J2-VBUS)*%
D20*
X125200000Y-102900000D02*
X156928738Y-102900000D01*
%TD*%
%TA.AperFunction,Conductor*%
%TO.N,GND*%
G36*
X152400096Y-100420185D02*
G01*
X152445851Y-100472989D01*
X152455795Y-100542147D01*
X152450763Y-100563504D01*
X152422994Y-100647302D01*
X152422993Y-100647309D01*
X152412500Y-100750013D01*
X152412500Y-101000000D01*
X153301000Y-101000000D01*
X153368039Y-101019685D01*
X153413794Y-101072489D01*
X153425000Y-101124000D01*
X153425000Y-101376000D01*
X153405315Y-101443039D01*
X153352511Y-101488794D01*
X153301000Y-101500000D01*
X152412501Y-101500000D01*
X152412501Y-101749986D01*
X152422994Y-101852697D01*
X152478141Y-102019119D01*
X152478146Y-102019130D01*
X152503604Y-102060403D01*
X152522045Y-102127795D01*
X152501123Y-102194459D01*
X152447481Y-102239229D01*
X152398066Y-102249500D01*
X126395908Y-102249500D01*
X126328869Y-102229815D01*
X126290363Y-102185728D01*
X126288605Y-102186813D01*
X126284812Y-102180663D01*
X126192712Y-102031344D01*
X126068656Y-101907288D01*
X125975888Y-101850069D01*
X125919336Y-101815187D01*
X125919331Y-101815185D01*
X125899477Y-101808606D01*
X125752797Y-101760001D01*
X125752795Y-101760000D01*
X125650016Y-101749500D01*
X125552668Y-101749500D01*
X125485629Y-101729815D01*
X125439874Y-101677011D01*
X125429930Y-101607853D01*
X125458955Y-101544297D01*
X125514351Y-101507569D01*
X125641633Y-101466213D01*
X125641639Y-101466211D01*
X125802994Y-101383996D01*
X125949501Y-101277553D01*
X126077553Y-101149501D01*
X126183996Y-101002994D01*
X126266211Y-100841639D01*
X126322171Y-100669409D01*
X126338945Y-100563504D01*
X126348195Y-100505103D01*
X126378124Y-100441968D01*
X126437436Y-100405037D01*
X126470668Y-100400501D01*
X136836251Y-100400501D01*
X136903290Y-100420186D01*
X136949045Y-100472990D01*
X136956023Y-100492400D01*
X136986091Y-100604615D01*
X137006288Y-100679992D01*
X137096609Y-100898046D01*
X137096614Y-100898057D01*
X137155472Y-101000000D01*
X137214622Y-101102451D01*
X137214624Y-101102454D01*
X137214625Y-101102455D01*
X137358301Y-101289698D01*
X137358307Y-101289705D01*
X137525190Y-101456588D01*
X137525197Y-101456594D01*
X137581765Y-101500000D01*
X137712445Y-101600274D01*
X137843813Y-101676119D01*
X137916838Y-101718281D01*
X137916843Y-101718283D01*
X137916846Y-101718285D01*
X138134902Y-101808607D01*
X138362881Y-101869694D01*
X138596884Y-101900501D01*
X138596891Y-101900501D01*
X139032899Y-101900501D01*
X139032906Y-101900501D01*
X139266909Y-101869694D01*
X139494888Y-101808607D01*
X139712944Y-101718285D01*
X139917345Y-101600274D01*
X140104594Y-101456593D01*
X140271487Y-101289700D01*
X140415168Y-101102451D01*
X140533179Y-100898050D01*
X140623501Y-100679994D01*
X140673765Y-100492405D01*
X140710130Y-100432746D01*
X140772977Y-100402217D01*
X140793540Y-100400500D01*
X152333057Y-100400500D01*
X152400096Y-100420185D01*
G37*
%TD.AperFunction*%
%TA.AperFunction,Conductor*%
G36*
X163504043Y-86000765D02*
G01*
X163752895Y-86017075D01*
X163768953Y-86019190D01*
X163976105Y-86060395D01*
X164009535Y-86067045D01*
X164025202Y-86071243D01*
X164194947Y-86128863D01*
X164257481Y-86150091D01*
X164272458Y-86156294D01*
X164481799Y-86259529D01*
X164492460Y-86264787D01*
X164506506Y-86272897D01*
X164710460Y-86409174D01*
X164723329Y-86419048D01*
X164907749Y-86580781D01*
X164919218Y-86592250D01*
X165080951Y-86776670D01*
X165090825Y-86789539D01*
X165227102Y-86993493D01*
X165235212Y-87007539D01*
X165343702Y-87227534D01*
X165349909Y-87242520D01*
X165428756Y-87474797D01*
X165432954Y-87490464D01*
X165480807Y-87731035D01*
X165482925Y-87747116D01*
X165499235Y-87995956D01*
X165499500Y-88004066D01*
X165499500Y-110995933D01*
X165499235Y-111004043D01*
X165482925Y-111252883D01*
X165480807Y-111268964D01*
X165432954Y-111509535D01*
X165428756Y-111525202D01*
X165349909Y-111757479D01*
X165343702Y-111772465D01*
X165235212Y-111992460D01*
X165227102Y-112006506D01*
X165090825Y-112210460D01*
X165080951Y-112223329D01*
X164919218Y-112407749D01*
X164907749Y-112419218D01*
X164723329Y-112580951D01*
X164710460Y-112590825D01*
X164506506Y-112727102D01*
X164492460Y-112735212D01*
X164272465Y-112843702D01*
X164257479Y-112849909D01*
X164025202Y-112928756D01*
X164009535Y-112932954D01*
X163768964Y-112980807D01*
X163752883Y-112982925D01*
X163504043Y-112999235D01*
X163495933Y-112999500D01*
X119504067Y-112999500D01*
X119495957Y-112999235D01*
X119247116Y-112982925D01*
X119231035Y-112980807D01*
X118990464Y-112932954D01*
X118974797Y-112928756D01*
X118742520Y-112849909D01*
X118727534Y-112843702D01*
X118507539Y-112735212D01*
X118493493Y-112727102D01*
X118289539Y-112590825D01*
X118276670Y-112580951D01*
X118092250Y-112419218D01*
X118080781Y-112407749D01*
X118004832Y-112321146D01*
X117919045Y-112223325D01*
X117909174Y-112210460D01*
X117772897Y-112006506D01*
X117764787Y-111992460D01*
X117658855Y-111777652D01*
X117656294Y-111772458D01*
X117650090Y-111757479D01*
X117571243Y-111525202D01*
X117567045Y-111509535D01*
X117559186Y-111470026D01*
X117519190Y-111268953D01*
X117517075Y-111252895D01*
X117500765Y-111004043D01*
X117500500Y-110995933D01*
X117500500Y-110893399D01*
X118145500Y-110893399D01*
X118145500Y-111106600D01*
X118178853Y-111317180D01*
X118178853Y-111317183D01*
X118244734Y-111519944D01*
X118244736Y-111519947D01*
X118341528Y-111709913D01*
X118466846Y-111882397D01*
X118617603Y-112033154D01*
X118790087Y-112158472D01*
X118980053Y-112255264D01*
X118980055Y-112255265D01*
X119169182Y-112316715D01*
X119182821Y-112321147D01*
X119393399Y-112354500D01*
X119393400Y-112354500D01*
X119606600Y-112354500D01*
X119606601Y-112354500D01*
X119817179Y-112321147D01*
X119817182Y-112321146D01*
X119817183Y-112321146D01*
X120019944Y-112255265D01*
X120019944Y-112255264D01*
X120019947Y-112255264D01*
X120209913Y-112158472D01*
X120382397Y-112033154D01*
X120533154Y-111882397D01*
X120658472Y-111709913D01*
X120755264Y-111519947D01*
X120821147Y-111317179D01*
X120854500Y-111106601D01*
X120854500Y-110893399D01*
X162145500Y-110893399D01*
X162145500Y-111106600D01*
X162178853Y-111317180D01*
X162178853Y-111317183D01*
X162244734Y-111519944D01*
X162244736Y-111519947D01*
X162341528Y-111709913D01*
X162466846Y-111882397D01*
X162617603Y-112033154D01*
X162790087Y-112158472D01*
X162980053Y-112255264D01*
X162980055Y-112255265D01*
X163169182Y-112316715D01*
X163182821Y-112321147D01*
X163393399Y-112354500D01*
X163393400Y-112354500D01*
X163606600Y-112354500D01*
X163606601Y-112354500D01*
X163817179Y-112321147D01*
X163817182Y-112321146D01*
X163817183Y-112321146D01*
X164019944Y-112255265D01*
X164019944Y-112255264D01*
X164019947Y-112255264D01*
X164209913Y-112158472D01*
X164382397Y-112033154D01*
X164533154Y-111882397D01*
X164658472Y-111709913D01*
X164755264Y-111519947D01*
X164821147Y-111317179D01*
X164854500Y-111106601D01*
X164854500Y-110893399D01*
X164821147Y-110682821D01*
X164821146Y-110682817D01*
X164821146Y-110682816D01*
X164755265Y-110480055D01*
X164755263Y-110480052D01*
X164658471Y-110290086D01*
X164533154Y-110117603D01*
X164382397Y-109966846D01*
X164209913Y-109841528D01*
X164019947Y-109744736D01*
X164019944Y-109744734D01*
X163817181Y-109678853D01*
X163676793Y-109656617D01*
X163606601Y-109645500D01*
X163393399Y-109645500D01*
X163323206Y-109656617D01*
X163182819Y-109678853D01*
X163182816Y-109678853D01*
X162980055Y-109744734D01*
X162980052Y-109744736D01*
X162790086Y-109841528D01*
X162617601Y-109966847D01*
X162466847Y-110117601D01*
X162341528Y-110290086D01*
X162244736Y-110480052D01*
X162244734Y-110480055D01*
X162178853Y-110682816D01*
X162178853Y-110682819D01*
X162145500Y-110893399D01*
X120854500Y-110893399D01*
X120821147Y-110682821D01*
X120821146Y-110682817D01*
X120821146Y-110682816D01*
X120755265Y-110480055D01*
X120755263Y-110480052D01*
X120658471Y-110290086D01*
X120533154Y-110117603D01*
X120382397Y-109966846D01*
X120209913Y-109841528D01*
X120019947Y-109744736D01*
X120019944Y-109744734D01*
X119817181Y-109678853D01*
X119676793Y-109656617D01*
X119606601Y-109645500D01*
X119393399Y-109645500D01*
X119323206Y-109656617D01*
X119182819Y-109678853D01*
X119182816Y-109678853D01*
X118980055Y-109744734D01*
X118980052Y-109744736D01*
X118790086Y-109841528D01*
X118617601Y-109966847D01*
X118466847Y-110117601D01*
X118341528Y-110290086D01*
X118244736Y-110480052D01*
X118244734Y-110480055D01*
X118178853Y-110682816D01*
X118178853Y-110682819D01*
X118145500Y-110893399D01*
X117500500Y-110893399D01*
X117500500Y-105720000D01*
X122671522Y-105720000D01*
X123499999Y-105720000D01*
X123474979Y-105780402D01*
X123450000Y-105905981D01*
X123450000Y-106034019D01*
X123474979Y-106159598D01*
X123499999Y-106220000D01*
X122671522Y-106220000D01*
X122685704Y-106309544D01*
X122756230Y-106526604D01*
X122859849Y-106729966D01*
X122994004Y-106914614D01*
X123155385Y-107075995D01*
X123340033Y-107210150D01*
X123543395Y-107313769D01*
X123760455Y-107384295D01*
X123985884Y-107420000D01*
X124350000Y-107420000D01*
X124350000Y-106620000D01*
X124850000Y-106620000D01*
X124850000Y-107420000D01*
X125214116Y-107420000D01*
X125439544Y-107384295D01*
X125656604Y-107313769D01*
X125859966Y-107210150D01*
X126044614Y-107075995D01*
X126205995Y-106914614D01*
X126340150Y-106729966D01*
X126443769Y-106526604D01*
X126514295Y-106309544D01*
X126528478Y-106220000D01*
X125700001Y-106220000D01*
X125725021Y-106159598D01*
X125750000Y-106034019D01*
X125750000Y-105905981D01*
X125725021Y-105780402D01*
X125700001Y-105720000D01*
X126528478Y-105720000D01*
X126514295Y-105630455D01*
X126443769Y-105413395D01*
X126340150Y-105210033D01*
X126205995Y-105025385D01*
X126044614Y-104864004D01*
X125859966Y-104729849D01*
X125656604Y-104626230D01*
X125439544Y-104555704D01*
X125214116Y-104520000D01*
X124850000Y-104520000D01*
X124850000Y-105320000D01*
X124350000Y-105320000D01*
X124350000Y-104520000D01*
X123985884Y-104520000D01*
X123760455Y-104555704D01*
X123543395Y-104626230D01*
X123340033Y-104729849D01*
X123155385Y-104864004D01*
X122994004Y-105025385D01*
X122859849Y-105210033D01*
X122756230Y-105413395D01*
X122685704Y-105630455D01*
X122671522Y-105720000D01*
X117500500Y-105720000D01*
X117500500Y-98785883D01*
X118970000Y-98785883D01*
X118970000Y-99150000D01*
X119770000Y-99150000D01*
X119770000Y-99650000D01*
X118970000Y-99650000D01*
X118970000Y-100014116D01*
X119005704Y-100239544D01*
X119076230Y-100456604D01*
X119179849Y-100659966D01*
X119314004Y-100844614D01*
X119475385Y-101005995D01*
X119660033Y-101140150D01*
X119863395Y-101243769D01*
X120080455Y-101314295D01*
X120170000Y-101328478D01*
X120170000Y-100500001D01*
X120230402Y-100525021D01*
X120355981Y-100550000D01*
X120484019Y-100550000D01*
X120609598Y-100525021D01*
X120670000Y-100500001D01*
X120670000Y-101328477D01*
X120759544Y-101314295D01*
X120976604Y-101243769D01*
X121179966Y-101140150D01*
X121364614Y-101005995D01*
X121525995Y-100844614D01*
X121660150Y-100659966D01*
X121763769Y-100456604D01*
X121834295Y-100239544D01*
X121870000Y-100014116D01*
X121870000Y-99650000D01*
X121070000Y-99650000D01*
X121070000Y-99150000D01*
X121870000Y-99150000D01*
X121870000Y-98785883D01*
X121834295Y-98560455D01*
X121763768Y-98343393D01*
X121746472Y-98309448D01*
X124049500Y-98309448D01*
X124049500Y-98490551D01*
X124077829Y-98669410D01*
X124133787Y-98841636D01*
X124133788Y-98841639D01*
X124216006Y-99002997D01*
X124322441Y-99149494D01*
X124322445Y-99149499D01*
X124450500Y-99277554D01*
X124480956Y-99299682D01*
X124523621Y-99355013D01*
X124529600Y-99424626D01*
X124496994Y-99486421D01*
X124480956Y-99500318D01*
X124450500Y-99522445D01*
X124322445Y-99650500D01*
X124322441Y-99650505D01*
X124216006Y-99797002D01*
X124133788Y-99958360D01*
X124133787Y-99958363D01*
X124077829Y-100130589D01*
X124049500Y-100309448D01*
X124049500Y-100490551D01*
X124077829Y-100669410D01*
X124133787Y-100841636D01*
X124133788Y-100841639D01*
X124182970Y-100938161D01*
X124214478Y-101000000D01*
X124216006Y-101002997D01*
X124322441Y-101149494D01*
X124322445Y-101149499D01*
X124450500Y-101277554D01*
X124450505Y-101277558D01*
X124578287Y-101370396D01*
X124597006Y-101383996D01*
X124702484Y-101437740D01*
X124758360Y-101466211D01*
X124758366Y-101466213D01*
X124885650Y-101507569D01*
X124943326Y-101547006D01*
X124970525Y-101611364D01*
X124958611Y-101680210D01*
X124911367Y-101731687D01*
X124847334Y-101749500D01*
X124749999Y-101749500D01*
X124749980Y-101749501D01*
X124647203Y-101760000D01*
X124647200Y-101760001D01*
X124480668Y-101815185D01*
X124480663Y-101815187D01*
X124331342Y-101907289D01*
X124207289Y-102031342D01*
X124115187Y-102180663D01*
X124115185Y-102180668D01*
X124095780Y-102239229D01*
X124060001Y-102347203D01*
X124060001Y-102347204D01*
X124060000Y-102347204D01*
X124049500Y-102449983D01*
X124049500Y-103350001D01*
X124049501Y-103350019D01*
X124060000Y-103452796D01*
X124060001Y-103452797D01*
X124115186Y-103619334D01*
X124207288Y-103768656D01*
X124331344Y-103892712D01*
X124480666Y-103984814D01*
X124647203Y-104039999D01*
X124749991Y-104050500D01*
X125650008Y-104050499D01*
X125650016Y-104050498D01*
X125650019Y-104050498D01*
X125706302Y-104044748D01*
X125752797Y-104039999D01*
X125919334Y-103984814D01*
X126068656Y-103892712D01*
X126192712Y-103768656D01*
X126284814Y-103619334D01*
X126284815Y-103619331D01*
X126288605Y-103613187D01*
X126290399Y-103614293D01*
X126329687Y-103569663D01*
X126395908Y-103550500D01*
X156992809Y-103550500D01*
X157077353Y-103533682D01*
X157118482Y-103525501D01*
X157236865Y-103476465D01*
X157272287Y-103452797D01*
X157343407Y-103405277D01*
X157347037Y-103401646D01*
X157408356Y-103368159D01*
X157478048Y-103373140D01*
X157522403Y-103401643D01*
X157538438Y-103417678D01*
X157538447Y-103417685D01*
X157679803Y-103501282D01*
X157679806Y-103501283D01*
X157837504Y-103547099D01*
X157837510Y-103547100D01*
X157842426Y-103547487D01*
X157901499Y-103570000D01*
X158713012Y-103570000D01*
X158695795Y-103579940D01*
X158639940Y-103635795D01*
X158600444Y-103704204D01*
X158580000Y-103780504D01*
X158580000Y-103859496D01*
X158600444Y-103935796D01*
X158639940Y-104004205D01*
X158695795Y-104060060D01*
X158713012Y-104070000D01*
X157910138Y-104070000D01*
X157918430Y-104111690D01*
X157918430Y-104111692D01*
X157993807Y-104293671D01*
X157993814Y-104293684D01*
X158103248Y-104457462D01*
X158103251Y-104457466D01*
X158242533Y-104596748D01*
X158242537Y-104596751D01*
X158406315Y-104706185D01*
X158406328Y-104706192D01*
X158588306Y-104781569D01*
X158588318Y-104781572D01*
X158781504Y-104819999D01*
X158781508Y-104820000D01*
X159180000Y-104820000D01*
X159180000Y-104120000D01*
X159680000Y-104120000D01*
X159680000Y-104820000D01*
X160078492Y-104820000D01*
X160078495Y-104819999D01*
X160271681Y-104781572D01*
X160271693Y-104781569D01*
X160453671Y-104706192D01*
X160453684Y-104706185D01*
X160617462Y-104596751D01*
X160617466Y-104596748D01*
X160756748Y-104457466D01*
X160756751Y-104457462D01*
X160866185Y-104293684D01*
X160866192Y-104293671D01*
X160941569Y-104111692D01*
X160941569Y-104111690D01*
X160949862Y-104070000D01*
X160146988Y-104070000D01*
X160164205Y-104060060D01*
X160220060Y-104004205D01*
X160259556Y-103935796D01*
X160280000Y-103859496D01*
X160280000Y-103780504D01*
X160259556Y-103704204D01*
X160220060Y-103635795D01*
X160164205Y-103579940D01*
X160146988Y-103570000D01*
X160949862Y-103570000D01*
X162340138Y-103570000D01*
X163143012Y-103570000D01*
X163125795Y-103579940D01*
X163069940Y-103635795D01*
X163030444Y-103704204D01*
X163010000Y-103780504D01*
X163010000Y-103859496D01*
X163030444Y-103935796D01*
X163069940Y-104004205D01*
X163125795Y-104060060D01*
X163143012Y-104070000D01*
X162340138Y-104070000D01*
X162348430Y-104111690D01*
X162348430Y-104111692D01*
X162423807Y-104293671D01*
X162423814Y-104293684D01*
X162533248Y-104457462D01*
X162533251Y-104457466D01*
X162672533Y-104596748D01*
X162672537Y-104596751D01*
X162836315Y-104706185D01*
X162836328Y-104706192D01*
X163018306Y-104781569D01*
X163018318Y-104781572D01*
X163211504Y-104819999D01*
X163211508Y-104820000D01*
X163360000Y-104820000D01*
X163360000Y-104120000D01*
X163860000Y-104120000D01*
X163860000Y-104820000D01*
X164008492Y-104820000D01*
X164008495Y-104819999D01*
X164201681Y-104781572D01*
X164201693Y-104781569D01*
X164383671Y-104706192D01*
X164383684Y-104706185D01*
X164547462Y-104596751D01*
X164547466Y-104596748D01*
X164686748Y-104457466D01*
X164686751Y-104457462D01*
X164796185Y-104293684D01*
X164796192Y-104293671D01*
X164871569Y-104111692D01*
X164871569Y-104111690D01*
X164879862Y-104070000D01*
X164076988Y-104070000D01*
X164094205Y-104060060D01*
X164150060Y-104004205D01*
X164189556Y-103935796D01*
X164210000Y-103859496D01*
X164210000Y-103780504D01*
X164189556Y-103704204D01*
X164150060Y-103635795D01*
X164094205Y-103579940D01*
X164076988Y-103570000D01*
X164879862Y-103570000D01*
X164871569Y-103528309D01*
X164871569Y-103528307D01*
X164796192Y-103346328D01*
X164796185Y-103346315D01*
X164686751Y-103182537D01*
X164686748Y-103182533D01*
X164547466Y-103043251D01*
X164547462Y-103043248D01*
X164383684Y-102933814D01*
X164383671Y-102933807D01*
X164201693Y-102858430D01*
X164201681Y-102858427D01*
X164008495Y-102820000D01*
X163860000Y-102820000D01*
X163860000Y-103520000D01*
X163360000Y-103520000D01*
X163360000Y-102820000D01*
X163211504Y-102820000D01*
X163018318Y-102858427D01*
X163018306Y-102858430D01*
X162836328Y-102933807D01*
X162836315Y-102933814D01*
X162672537Y-103043248D01*
X162672533Y-103043251D01*
X162533251Y-103182533D01*
X162533248Y-103182537D01*
X162423814Y-103346315D01*
X162423807Y-103346328D01*
X162348430Y-103528307D01*
X162348430Y-103528309D01*
X162340138Y-103570000D01*
X160949862Y-103570000D01*
X160941569Y-103528309D01*
X160941569Y-103528307D01*
X160866192Y-103346328D01*
X160866185Y-103346315D01*
X160756751Y-103182537D01*
X160756748Y-103182533D01*
X160617466Y-103043251D01*
X160617462Y-103043248D01*
X160448613Y-102930426D01*
X160450110Y-102928184D01*
X160408677Y-102886788D01*
X160393794Y-102818522D01*
X160418181Y-102753046D01*
X160419111Y-102751819D01*
X160423703Y-102745832D01*
X160423715Y-102745821D01*
X160500008Y-102613678D01*
X160539500Y-102466293D01*
X160539500Y-102313707D01*
X160500008Y-102166322D01*
X160477764Y-102127795D01*
X160423717Y-102034182D01*
X160423712Y-102034176D01*
X160401940Y-102012404D01*
X160368455Y-101951081D01*
X160373439Y-101881389D01*
X160401938Y-101837044D01*
X161194276Y-101044707D01*
X161265465Y-100938165D01*
X161314501Y-100819782D01*
X161317585Y-100804280D01*
X161328380Y-100750013D01*
X161339500Y-100694109D01*
X161339500Y-98434929D01*
X161314502Y-98309262D01*
X161314501Y-98309261D01*
X161314501Y-98309257D01*
X161265465Y-98190874D01*
X161253880Y-98173536D01*
X161194277Y-98084332D01*
X161194275Y-98084330D01*
X161194273Y-98084327D01*
X161194272Y-98084326D01*
X160337421Y-97227476D01*
X160303936Y-97166153D01*
X160308920Y-97096462D01*
X160337417Y-97052118D01*
X160423715Y-96965821D01*
X160500008Y-96833678D01*
X160539500Y-96686293D01*
X160539500Y-96533707D01*
X160500008Y-96386322D01*
X160497466Y-96381920D01*
X160423716Y-96254181D01*
X160423715Y-96254179D01*
X160423712Y-96254176D01*
X160419108Y-96248176D01*
X160393912Y-96183007D01*
X160407949Y-96114562D01*
X160449939Y-96071558D01*
X160448613Y-96069574D01*
X160617462Y-95956751D01*
X160617466Y-95956748D01*
X160756748Y-95817466D01*
X160756751Y-95817462D01*
X160866185Y-95653684D01*
X160866192Y-95653671D01*
X160941569Y-95471692D01*
X160941569Y-95471690D01*
X160949862Y-95430000D01*
X160146988Y-95430000D01*
X160164205Y-95420060D01*
X160220060Y-95364205D01*
X160259556Y-95295796D01*
X160280000Y-95219496D01*
X160280000Y-95140504D01*
X160259556Y-95064204D01*
X160220060Y-94995795D01*
X160164205Y-94939940D01*
X160146988Y-94930000D01*
X160949862Y-94930000D01*
X162340138Y-94930000D01*
X163143012Y-94930000D01*
X163125795Y-94939940D01*
X163069940Y-94995795D01*
X163030444Y-95064204D01*
X163010000Y-95140504D01*
X163010000Y-95219496D01*
X163030444Y-95295796D01*
X163069940Y-95364205D01*
X163125795Y-95420060D01*
X163143012Y-95430000D01*
X162340138Y-95430000D01*
X162348430Y-95471690D01*
X162348430Y-95471692D01*
X162423807Y-95653671D01*
X162423814Y-95653684D01*
X162533248Y-95817462D01*
X162533251Y-95817466D01*
X162672533Y-95956748D01*
X162672537Y-95956751D01*
X162836315Y-96066185D01*
X162836328Y-96066192D01*
X163018306Y-96141569D01*
X163018318Y-96141572D01*
X163211504Y-96179999D01*
X163211508Y-96180000D01*
X163360000Y-96180000D01*
X163360000Y-95480000D01*
X163860000Y-95480000D01*
X163860000Y-96180000D01*
X164008492Y-96180000D01*
X164008495Y-96179999D01*
X164201681Y-96141572D01*
X164201693Y-96141569D01*
X164383671Y-96066192D01*
X164383684Y-96066185D01*
X164547462Y-95956751D01*
X164547466Y-95956748D01*
X164686748Y-95817466D01*
X164686751Y-95817462D01*
X164796185Y-95653684D01*
X164796192Y-95653671D01*
X164871569Y-95471692D01*
X164871569Y-95471690D01*
X164879862Y-95430000D01*
X164076988Y-95430000D01*
X164094205Y-95420060D01*
X164150060Y-95364205D01*
X164189556Y-95295796D01*
X164210000Y-95219496D01*
X164210000Y-95140504D01*
X164189556Y-95064204D01*
X164150060Y-94995795D01*
X164094205Y-94939940D01*
X164076988Y-94930000D01*
X164879862Y-94930000D01*
X164871569Y-94888309D01*
X164871569Y-94888307D01*
X164796192Y-94706328D01*
X164796185Y-94706315D01*
X164686751Y-94542537D01*
X164686748Y-94542533D01*
X164547466Y-94403251D01*
X164547462Y-94403248D01*
X164383684Y-94293814D01*
X164383671Y-94293807D01*
X164201693Y-94218430D01*
X164201681Y-94218427D01*
X164008495Y-94180000D01*
X163860000Y-94180000D01*
X163860000Y-94880000D01*
X163360000Y-94880000D01*
X163360000Y-94180000D01*
X163211504Y-94180000D01*
X163018318Y-94218427D01*
X163018306Y-94218430D01*
X162836328Y-94293807D01*
X162836315Y-94293814D01*
X162672537Y-94403248D01*
X162672533Y-94403251D01*
X162533251Y-94542533D01*
X162533248Y-94542537D01*
X162423814Y-94706315D01*
X162423807Y-94706328D01*
X162348430Y-94888307D01*
X162348430Y-94888309D01*
X162340138Y-94930000D01*
X160949862Y-94930000D01*
X160941569Y-94888309D01*
X160941569Y-94888307D01*
X160866192Y-94706328D01*
X160866185Y-94706315D01*
X160756751Y-94542537D01*
X160756748Y-94542533D01*
X160617466Y-94403251D01*
X160617462Y-94403248D01*
X160453684Y-94293814D01*
X160453671Y-94293807D01*
X160271693Y-94218430D01*
X160271681Y-94218427D01*
X160078495Y-94180000D01*
X159680000Y-94180000D01*
X159680000Y-94880000D01*
X159180000Y-94880000D01*
X159180000Y-94180000D01*
X158781504Y-94180000D01*
X158588318Y-94218427D01*
X158588306Y-94218430D01*
X158406328Y-94293807D01*
X158406315Y-94293814D01*
X158242537Y-94403248D01*
X158242533Y-94403251D01*
X158103251Y-94542533D01*
X158103248Y-94542537D01*
X157993814Y-94706315D01*
X157993807Y-94706328D01*
X157918430Y-94888307D01*
X157918430Y-94888309D01*
X157910138Y-94930000D01*
X158713012Y-94930000D01*
X158695795Y-94939940D01*
X158639940Y-94995795D01*
X158600444Y-95064204D01*
X158580000Y-95140504D01*
X158580000Y-95219496D01*
X158600444Y-95295796D01*
X158639940Y-95364205D01*
X158695795Y-95420060D01*
X158713012Y-95430000D01*
X157895608Y-95430000D01*
X157870803Y-95446895D01*
X157842437Y-95452511D01*
X157837517Y-95452898D01*
X157837504Y-95452900D01*
X157679806Y-95498716D01*
X157679803Y-95498717D01*
X157538447Y-95582314D01*
X157538438Y-95582321D01*
X157422321Y-95698438D01*
X157422314Y-95698447D01*
X157338718Y-95839801D01*
X157292899Y-95997513D01*
X157292704Y-95999998D01*
X157292705Y-96000000D01*
X158391000Y-96000000D01*
X158399685Y-96002550D01*
X158408647Y-96001262D01*
X158432687Y-96012240D01*
X158458039Y-96019685D01*
X158463966Y-96026525D01*
X158472203Y-96030287D01*
X158486492Y-96052521D01*
X158503794Y-96072489D01*
X158506081Y-96083003D01*
X158509977Y-96089065D01*
X158515000Y-96124000D01*
X158515000Y-96125500D01*
X158495315Y-96192539D01*
X158442511Y-96238294D01*
X158391000Y-96249500D01*
X157874298Y-96249500D01*
X157837432Y-96252401D01*
X157837426Y-96252402D01*
X157679606Y-96298254D01*
X157679603Y-96298255D01*
X157538137Y-96381917D01*
X157538133Y-96381920D01*
X157497253Y-96422800D01*
X157456371Y-96463682D01*
X157395051Y-96497166D01*
X157368692Y-96500000D01*
X157292705Y-96500000D01*
X157292704Y-96500001D01*
X157292899Y-96502488D01*
X157292900Y-96502494D01*
X157325444Y-96614508D01*
X157325444Y-96683698D01*
X157292402Y-96797426D01*
X157292401Y-96797432D01*
X157289500Y-96834298D01*
X157289500Y-96975500D01*
X157269815Y-97042539D01*
X157217011Y-97088294D01*
X157165500Y-97099500D01*
X156385143Y-97099500D01*
X156318104Y-97079815D01*
X156272349Y-97027011D01*
X156261785Y-96988102D01*
X156258157Y-96952596D01*
X156252499Y-96897203D01*
X156197314Y-96730666D01*
X156105212Y-96581344D01*
X155981156Y-96457288D01*
X155858963Y-96381919D01*
X155831836Y-96365187D01*
X155831831Y-96365185D01*
X155830362Y-96364698D01*
X155665297Y-96310001D01*
X155665295Y-96310000D01*
X155562510Y-96299500D01*
X154937498Y-96299500D01*
X154937480Y-96299501D01*
X154834703Y-96310000D01*
X154834700Y-96310001D01*
X154668168Y-96365185D01*
X154668163Y-96365187D01*
X154518845Y-96457287D01*
X154424827Y-96551305D01*
X154363503Y-96584789D01*
X154293812Y-96579805D01*
X154249465Y-96551304D01*
X154155845Y-96457684D01*
X154006624Y-96365643D01*
X154006619Y-96365641D01*
X153840197Y-96310494D01*
X153840190Y-96310493D01*
X153737486Y-96300000D01*
X153675000Y-96300000D01*
X153675000Y-97376000D01*
X153655315Y-97443039D01*
X153602511Y-97488794D01*
X153551000Y-97500000D01*
X153425000Y-97500000D01*
X153425000Y-97626000D01*
X153405315Y-97693039D01*
X153352511Y-97738794D01*
X153301000Y-97750000D01*
X152412501Y-97750000D01*
X152412501Y-97975500D01*
X152392816Y-98042539D01*
X152340012Y-98088294D01*
X152288501Y-98099500D01*
X140523600Y-98099500D01*
X140523595Y-98099499D01*
X140466000Y-98099500D01*
X140389358Y-98099500D01*
X140389338Y-98099501D01*
X140288189Y-98099501D01*
X140214895Y-98099501D01*
X140096884Y-98099501D01*
X140096878Y-98099501D01*
X140096874Y-98099502D01*
X139862884Y-98130307D01*
X139634901Y-98191395D01*
X139416849Y-98281715D01*
X139416838Y-98281720D01*
X139212440Y-98399731D01*
X139025197Y-98543407D01*
X139025190Y-98543413D01*
X138902576Y-98666028D01*
X138841253Y-98699513D01*
X138771561Y-98694529D01*
X138727214Y-98666028D01*
X138604599Y-98543413D01*
X138604592Y-98543407D01*
X138417349Y-98399731D01*
X138417348Y-98399730D01*
X138417345Y-98399728D01*
X138335852Y-98352678D01*
X138212951Y-98281720D01*
X138212940Y-98281715D01*
X137994888Y-98191395D01*
X137992944Y-98190874D01*
X137766909Y-98130308D01*
X137766908Y-98130307D01*
X137766905Y-98130307D01*
X137532915Y-98099502D01*
X137532912Y-98099501D01*
X137532906Y-98099501D01*
X137532899Y-98099501D01*
X137398267Y-98099501D01*
X137398265Y-98099500D01*
X137398265Y-98099501D01*
X137398263Y-98099500D01*
X137364990Y-98099500D01*
X137364988Y-98099500D01*
X137317561Y-98099500D01*
X137317560Y-98099499D01*
X137230743Y-98099499D01*
X137230723Y-98099500D01*
X126402161Y-98099500D01*
X126335122Y-98079815D01*
X126289367Y-98027011D01*
X126284230Y-98013817D01*
X126266213Y-97958366D01*
X126266211Y-97958360D01*
X126237740Y-97902484D01*
X126183996Y-97797006D01*
X126108460Y-97693039D01*
X126077558Y-97650505D01*
X126077554Y-97650500D01*
X125949499Y-97522445D01*
X125949494Y-97522441D01*
X125802997Y-97416006D01*
X125802996Y-97416005D01*
X125802994Y-97416004D01*
X125751300Y-97389664D01*
X125641639Y-97333788D01*
X125641636Y-97333787D01*
X125469411Y-97277829D01*
X125433992Y-97272219D01*
X125370858Y-97242289D01*
X125333928Y-97182976D01*
X125334926Y-97113114D01*
X125373537Y-97054882D01*
X125433997Y-97027272D01*
X125469296Y-97021681D01*
X125535985Y-97000013D01*
X152412500Y-97000013D01*
X152412500Y-97250000D01*
X153175000Y-97250000D01*
X153175000Y-96300000D01*
X153174999Y-96299999D01*
X153112528Y-96300000D01*
X153112511Y-96300001D01*
X153009802Y-96310494D01*
X152843380Y-96365641D01*
X152843375Y-96365643D01*
X152694154Y-96457684D01*
X152570184Y-96581654D01*
X152478143Y-96730875D01*
X152478141Y-96730880D01*
X152422994Y-96897302D01*
X152422993Y-96897309D01*
X152412500Y-97000013D01*
X125535985Y-97000013D01*
X125641444Y-96965748D01*
X125641452Y-96965745D01*
X125797212Y-96886380D01*
X125802730Y-96883568D01*
X125818532Y-96872085D01*
X125818533Y-96872085D01*
X125288585Y-96342137D01*
X125373694Y-96319333D01*
X125476306Y-96260090D01*
X125560090Y-96176306D01*
X125619333Y-96073694D01*
X125642137Y-95988585D01*
X126172085Y-96518533D01*
X126172085Y-96518532D01*
X126183568Y-96502730D01*
X126265745Y-96341452D01*
X126265748Y-96341444D01*
X126321682Y-96169293D01*
X126350000Y-95990506D01*
X126350000Y-95809493D01*
X126321682Y-95630706D01*
X126265748Y-95458555D01*
X126265747Y-95458552D01*
X126183571Y-95297275D01*
X126183566Y-95297267D01*
X126172085Y-95281466D01*
X125642137Y-95811414D01*
X125619333Y-95726306D01*
X125560090Y-95623694D01*
X125476306Y-95539910D01*
X125373694Y-95480667D01*
X125288584Y-95457861D01*
X125818533Y-94927913D01*
X125802730Y-94916431D01*
X125641447Y-94834252D01*
X125641444Y-94834251D01*
X125469293Y-94778317D01*
X125290506Y-94750000D01*
X125109494Y-94750000D01*
X124930706Y-94778317D01*
X124758555Y-94834251D01*
X124758547Y-94834254D01*
X124597269Y-94916432D01*
X124581466Y-94927912D01*
X124581466Y-94927913D01*
X125111415Y-95457861D01*
X125026306Y-95480667D01*
X124923694Y-95539910D01*
X124839910Y-95623694D01*
X124780667Y-95726306D01*
X124757861Y-95811414D01*
X124227913Y-95281466D01*
X124227912Y-95281466D01*
X124216432Y-95297269D01*
X124134254Y-95458547D01*
X124134251Y-95458555D01*
X124078317Y-95630706D01*
X124050000Y-95809493D01*
X124050000Y-95990506D01*
X124078317Y-96169293D01*
X124134251Y-96341444D01*
X124134252Y-96341447D01*
X124216431Y-96502730D01*
X124227913Y-96518532D01*
X124227913Y-96518533D01*
X124757861Y-95988584D01*
X124780667Y-96073694D01*
X124839910Y-96176306D01*
X124923694Y-96260090D01*
X125026306Y-96319333D01*
X125111414Y-96342137D01*
X124581466Y-96872085D01*
X124581466Y-96872086D01*
X124597267Y-96883566D01*
X124597275Y-96883571D01*
X124758552Y-96965747D01*
X124758555Y-96965748D01*
X124930702Y-97021681D01*
X124966003Y-97027272D01*
X125029138Y-97057201D01*
X125066070Y-97116512D01*
X125065074Y-97186374D01*
X125026465Y-97244608D01*
X124966007Y-97272219D01*
X124930588Y-97277829D01*
X124758363Y-97333787D01*
X124758360Y-97333788D01*
X124597002Y-97416006D01*
X124450505Y-97522441D01*
X124450500Y-97522445D01*
X124322445Y-97650500D01*
X124322441Y-97650505D01*
X124216006Y-97797002D01*
X124133788Y-97958360D01*
X124133787Y-97958363D01*
X124077829Y-98130589D01*
X124049500Y-98309448D01*
X121746472Y-98309448D01*
X121660150Y-98140033D01*
X121525995Y-97955385D01*
X121364614Y-97794004D01*
X121179966Y-97659849D01*
X120976602Y-97556229D01*
X120759541Y-97485703D01*
X120670000Y-97471521D01*
X120670000Y-98299998D01*
X120609598Y-98274979D01*
X120484019Y-98250000D01*
X120355981Y-98250000D01*
X120230402Y-98274979D01*
X120170000Y-98299998D01*
X120170000Y-97471521D01*
X120169999Y-97471521D01*
X120080458Y-97485703D01*
X119863397Y-97556229D01*
X119660033Y-97659849D01*
X119475385Y-97794004D01*
X119314004Y-97955385D01*
X119179849Y-98140033D01*
X119076230Y-98343395D01*
X119005704Y-98560455D01*
X118970000Y-98785883D01*
X117500500Y-98785883D01*
X117500500Y-92580000D01*
X122671522Y-92580000D01*
X123499999Y-92580000D01*
X123474979Y-92640402D01*
X123450000Y-92765981D01*
X123450000Y-92894019D01*
X123474979Y-93019598D01*
X123499999Y-93080000D01*
X122671522Y-93080000D01*
X122685704Y-93169544D01*
X122756230Y-93386604D01*
X122859849Y-93589966D01*
X122994004Y-93774614D01*
X123155385Y-93935995D01*
X123340033Y-94070150D01*
X123543395Y-94173769D01*
X123760455Y-94244295D01*
X123985884Y-94280000D01*
X124350000Y-94280000D01*
X124350000Y-93480000D01*
X124850000Y-93480000D01*
X124850000Y-94280000D01*
X125214116Y-94280000D01*
X125439544Y-94244295D01*
X125656604Y-94173769D01*
X125859966Y-94070150D01*
X126044614Y-93935995D01*
X126205995Y-93774614D01*
X126340150Y-93589966D01*
X126443769Y-93386604D01*
X126514295Y-93169544D01*
X126528478Y-93080000D01*
X125700001Y-93080000D01*
X125725021Y-93019598D01*
X125750000Y-92894019D01*
X125750000Y-92765981D01*
X125725021Y-92640402D01*
X125700001Y-92580000D01*
X126528478Y-92580000D01*
X126514295Y-92490455D01*
X126443769Y-92273395D01*
X126340150Y-92070033D01*
X126205995Y-91885385D01*
X126044614Y-91724004D01*
X125859966Y-91589849D01*
X125656604Y-91486230D01*
X125439544Y-91415704D01*
X125214116Y-91380000D01*
X124850000Y-91380000D01*
X124850000Y-92180000D01*
X124350000Y-92180000D01*
X124350000Y-91380000D01*
X123985884Y-91380000D01*
X123760455Y-91415704D01*
X123543395Y-91486230D01*
X123340033Y-91589849D01*
X123155385Y-91724004D01*
X122994004Y-91885385D01*
X122859849Y-92070033D01*
X122756230Y-92273395D01*
X122685704Y-92490455D01*
X122671522Y-92580000D01*
X117500500Y-92580000D01*
X117500500Y-88004066D01*
X117500765Y-87995957D01*
X117500834Y-87994891D01*
X117507486Y-87893399D01*
X118145500Y-87893399D01*
X118145500Y-88106600D01*
X118178853Y-88317180D01*
X118178853Y-88317183D01*
X118244734Y-88519944D01*
X118244736Y-88519947D01*
X118341528Y-88709913D01*
X118466846Y-88882397D01*
X118617603Y-89033154D01*
X118790087Y-89158472D01*
X118980053Y-89255264D01*
X118980055Y-89255265D01*
X119169182Y-89316715D01*
X119182821Y-89321147D01*
X119393399Y-89354500D01*
X119393400Y-89354500D01*
X119606600Y-89354500D01*
X119606601Y-89354500D01*
X119817179Y-89321147D01*
X119817182Y-89321146D01*
X119817183Y-89321146D01*
X120019944Y-89255265D01*
X120019944Y-89255264D01*
X120019947Y-89255264D01*
X120209913Y-89158472D01*
X120382397Y-89033154D01*
X120533154Y-88882397D01*
X120658472Y-88709913D01*
X120755264Y-88519947D01*
X120821147Y-88317179D01*
X120854500Y-88106601D01*
X120854500Y-87893399D01*
X162145500Y-87893399D01*
X162145500Y-88106600D01*
X162178853Y-88317180D01*
X162178853Y-88317183D01*
X162244734Y-88519944D01*
X162244736Y-88519947D01*
X162341528Y-88709913D01*
X162466846Y-88882397D01*
X162617603Y-89033154D01*
X162790087Y-89158472D01*
X162980053Y-89255264D01*
X162980055Y-89255265D01*
X163169182Y-89316715D01*
X163182821Y-89321147D01*
X163393399Y-89354500D01*
X163393400Y-89354500D01*
X163606600Y-89354500D01*
X163606601Y-89354500D01*
X163817179Y-89321147D01*
X163817182Y-89321146D01*
X163817183Y-89321146D01*
X164019944Y-89255265D01*
X164019944Y-89255264D01*
X164019947Y-89255264D01*
X164209913Y-89158472D01*
X164382397Y-89033154D01*
X164533154Y-88882397D01*
X164658472Y-88709913D01*
X164755264Y-88519947D01*
X164821147Y-88317179D01*
X164854500Y-88106601D01*
X164854500Y-87893399D01*
X164821147Y-87682821D01*
X164821146Y-87682817D01*
X164821146Y-87682816D01*
X164755265Y-87480055D01*
X164755263Y-87480052D01*
X164752586Y-87474797D01*
X164658472Y-87290087D01*
X164533154Y-87117603D01*
X164382397Y-86966846D01*
X164209913Y-86841528D01*
X164019947Y-86744736D01*
X164019944Y-86744734D01*
X163817181Y-86678853D01*
X163676793Y-86656617D01*
X163606601Y-86645500D01*
X163393399Y-86645500D01*
X163323206Y-86656617D01*
X163182819Y-86678853D01*
X163182816Y-86678853D01*
X162980055Y-86744734D01*
X162980052Y-86744736D01*
X162790086Y-86841528D01*
X162617601Y-86966847D01*
X162466847Y-87117601D01*
X162341528Y-87290086D01*
X162244736Y-87480052D01*
X162244734Y-87480055D01*
X162178853Y-87682816D01*
X162178853Y-87682819D01*
X162145500Y-87893399D01*
X120854500Y-87893399D01*
X120821147Y-87682821D01*
X120821146Y-87682817D01*
X120821146Y-87682816D01*
X120755265Y-87480055D01*
X120755263Y-87480052D01*
X120752586Y-87474797D01*
X120658472Y-87290087D01*
X120533154Y-87117603D01*
X120382397Y-86966846D01*
X120209913Y-86841528D01*
X120019947Y-86744736D01*
X120019944Y-86744734D01*
X119817181Y-86678853D01*
X119676793Y-86656617D01*
X119606601Y-86645500D01*
X119393399Y-86645500D01*
X119323206Y-86656617D01*
X119182819Y-86678853D01*
X119182816Y-86678853D01*
X118980055Y-86744734D01*
X118980052Y-86744736D01*
X118790086Y-86841528D01*
X118617601Y-86966847D01*
X118466847Y-87117601D01*
X118341528Y-87290086D01*
X118244736Y-87480052D01*
X118244734Y-87480055D01*
X118178853Y-87682816D01*
X118178853Y-87682819D01*
X118145500Y-87893399D01*
X117507486Y-87893399D01*
X117517075Y-87747102D01*
X117519190Y-87731048D01*
X117567045Y-87490462D01*
X117571243Y-87474797D01*
X117594337Y-87406762D01*
X117650093Y-87242512D01*
X117656291Y-87227547D01*
X117764790Y-87007533D01*
X117772897Y-86993493D01*
X117819838Y-86923241D01*
X117909177Y-86789534D01*
X117919039Y-86776681D01*
X118080786Y-86592244D01*
X118092244Y-86580786D01*
X118276681Y-86419039D01*
X118289534Y-86409177D01*
X118493493Y-86272897D01*
X118507533Y-86264790D01*
X118727547Y-86156291D01*
X118742512Y-86150093D01*
X118906762Y-86094337D01*
X118974797Y-86071243D01*
X118990464Y-86067045D01*
X119231048Y-86019190D01*
X119247102Y-86017075D01*
X119495957Y-86000765D01*
X119504067Y-86000500D01*
X119565892Y-86000500D01*
X163434108Y-86000500D01*
X163495933Y-86000500D01*
X163504043Y-86000765D01*
G37*
%TD.AperFunction*%
%TD*%
M02*
