%TF.GenerationSoftware,KiCad,Pcbnew,10.0.3*%
%TF.CreationDate,2026-05-23T20:13:59-04:00*%
%TF.ProjectId,TurrimX1,54757272-696d-4583-912e-6b696361645f,rev?*%
%TF.SameCoordinates,Original*%
%TF.FileFunction,Soldermask,Top*%
%TF.FilePolarity,Negative*%
%FSLAX46Y46*%
G04 Gerber Fmt 4.6, Leading zero omitted, Abs format (unit mm)*
G04 Created by KiCad (PCBNEW 10.0.3) date 2026-05-23 20:13:59*
%MOMM*%
%LPD*%
G01*
G04 APERTURE LIST*
G04 APERTURE END LIST*
G36*
X119780134Y-109833156D02*
G01*
X119959220Y-109891345D01*
X120126998Y-109976832D01*
X120279338Y-110087513D01*
X120412487Y-110220662D01*
X120523168Y-110373002D01*
X120608655Y-110540780D01*
X120666844Y-110719866D01*
X120696301Y-110905849D01*
X120696301Y-111094151D01*
X120666844Y-111280134D01*
X120608655Y-111459220D01*
X120523168Y-111626998D01*
X120412487Y-111779338D01*
X120279338Y-111912487D01*
X120126998Y-112023168D01*
X119959220Y-112108655D01*
X119780134Y-112166844D01*
X119594151Y-112196301D01*
X119405849Y-112196301D01*
X119219866Y-112166844D01*
X119040780Y-112108655D01*
X118873002Y-112023168D01*
X118720662Y-111912487D01*
X118587513Y-111779338D01*
X118476832Y-111626998D01*
X118391345Y-111459220D01*
X118333156Y-111280134D01*
X118303699Y-111094151D01*
X118303699Y-110905849D01*
X118333156Y-110719866D01*
X118391345Y-110540780D01*
X118476832Y-110373002D01*
X118587513Y-110220662D01*
X118720662Y-110087513D01*
X118873002Y-109976832D01*
X119040780Y-109891345D01*
X119219866Y-109833156D01*
X119405849Y-109803699D01*
X119594151Y-109803699D01*
X119780134Y-109833156D01*
G37*
G36*
X163780134Y-109833156D02*
G01*
X163959220Y-109891345D01*
X164126998Y-109976832D01*
X164279338Y-110087513D01*
X164412487Y-110220662D01*
X164523168Y-110373002D01*
X164608655Y-110540780D01*
X164666844Y-110719866D01*
X164696301Y-110905849D01*
X164696301Y-111094151D01*
X164666844Y-111280134D01*
X164608655Y-111459220D01*
X164523168Y-111626998D01*
X164412487Y-111779338D01*
X164279338Y-111912487D01*
X164126998Y-112023168D01*
X163959220Y-112108655D01*
X163780134Y-112166844D01*
X163594151Y-112196301D01*
X163405849Y-112196301D01*
X163219866Y-112166844D01*
X163040780Y-112108655D01*
X162873002Y-112023168D01*
X162720662Y-111912487D01*
X162587513Y-111779338D01*
X162476832Y-111626998D01*
X162391345Y-111459220D01*
X162333156Y-111280134D01*
X162303699Y-111094151D01*
X162303699Y-110905849D01*
X162333156Y-110719866D01*
X162391345Y-110540780D01*
X162476832Y-110373002D01*
X162587513Y-110220662D01*
X162720662Y-110087513D01*
X162873002Y-109976832D01*
X163040780Y-109891345D01*
X163219866Y-109833156D01*
X163405849Y-109803699D01*
X163594151Y-109803699D01*
X163780134Y-109833156D01*
G37*
G36*
X125103873Y-104920190D02*
G01*
X125181394Y-104923236D01*
X125188374Y-104924341D01*
X125202918Y-104925056D01*
X125242116Y-104932853D01*
X125345078Y-104949160D01*
X125378200Y-104959922D01*
X125404799Y-104965213D01*
X125442335Y-104980760D01*
X125501762Y-105000070D01*
X125557433Y-105028435D01*
X125594967Y-105043983D01*
X125617517Y-105059050D01*
X125648539Y-105074857D01*
X125732866Y-105136124D01*
X125766113Y-105158339D01*
X125773208Y-105165434D01*
X125781817Y-105171689D01*
X125898310Y-105288182D01*
X125904564Y-105296790D01*
X125911661Y-105303887D01*
X125933878Y-105337138D01*
X125995142Y-105421460D01*
X126010947Y-105452479D01*
X126026017Y-105475033D01*
X126041566Y-105512572D01*
X126069929Y-105568237D01*
X126089235Y-105627657D01*
X126104787Y-105665201D01*
X126110078Y-105691805D01*
X126120839Y-105724921D01*
X126137145Y-105827876D01*
X126144944Y-105867082D01*
X126144944Y-105877114D01*
X126146609Y-105887627D01*
X126146609Y-106052372D01*
X126144944Y-106062884D01*
X126144944Y-106072918D01*
X126137144Y-106112126D01*
X126120839Y-106215078D01*
X126110079Y-106248192D01*
X126104787Y-106274799D01*
X126089234Y-106312346D01*
X126069929Y-106371762D01*
X126041568Y-106427422D01*
X126026017Y-106464967D01*
X126010945Y-106487523D01*
X125995142Y-106518539D01*
X125933887Y-106602849D01*
X125911661Y-106636113D01*
X125904561Y-106643212D01*
X125898310Y-106651817D01*
X125781817Y-106768310D01*
X125773212Y-106774561D01*
X125766113Y-106781661D01*
X125732849Y-106803887D01*
X125648539Y-106865142D01*
X125617523Y-106880945D01*
X125594967Y-106896017D01*
X125557422Y-106911568D01*
X125501762Y-106939929D01*
X125442346Y-106959234D01*
X125404799Y-106974787D01*
X125378192Y-106980079D01*
X125345078Y-106990839D01*
X125242140Y-107007142D01*
X125202918Y-107014944D01*
X125188365Y-107015658D01*
X125181394Y-107016763D01*
X125103879Y-107019809D01*
X125100000Y-107020000D01*
X125099030Y-107020000D01*
X124100970Y-107020000D01*
X124100000Y-107020000D01*
X124096120Y-107019809D01*
X124018605Y-107016763D01*
X124011633Y-107015658D01*
X123997082Y-107014944D01*
X123957862Y-107007142D01*
X123854921Y-106990839D01*
X123821805Y-106980078D01*
X123795201Y-106974787D01*
X123757657Y-106959235D01*
X123698237Y-106939929D01*
X123642572Y-106911566D01*
X123605033Y-106896017D01*
X123582479Y-106880947D01*
X123551460Y-106865142D01*
X123467138Y-106803878D01*
X123433887Y-106781661D01*
X123426790Y-106774564D01*
X123418182Y-106768310D01*
X123301689Y-106651817D01*
X123295434Y-106643208D01*
X123288339Y-106636113D01*
X123266124Y-106602866D01*
X123204857Y-106518539D01*
X123189050Y-106487517D01*
X123173983Y-106464967D01*
X123158435Y-106427433D01*
X123130070Y-106371762D01*
X123110760Y-106312335D01*
X123095213Y-106274799D01*
X123089922Y-106248200D01*
X123079160Y-106215078D01*
X123062853Y-106112117D01*
X123055056Y-106072918D01*
X123055056Y-106062884D01*
X123053391Y-106052372D01*
X123053391Y-105887627D01*
X123055056Y-105877114D01*
X123055056Y-105867082D01*
X123062852Y-105827886D01*
X123079160Y-105724921D01*
X123089922Y-105691797D01*
X123095213Y-105665201D01*
X123110759Y-105627668D01*
X123130070Y-105568237D01*
X123158438Y-105512561D01*
X123173983Y-105475033D01*
X123189048Y-105452486D01*
X123204857Y-105421460D01*
X123266132Y-105337121D01*
X123288339Y-105303887D01*
X123295432Y-105296793D01*
X123301689Y-105288182D01*
X123418182Y-105171689D01*
X123426793Y-105165432D01*
X123433887Y-105158339D01*
X123467121Y-105136132D01*
X123551460Y-105074857D01*
X123582486Y-105059048D01*
X123605033Y-105043983D01*
X123642561Y-105028438D01*
X123698237Y-105000070D01*
X123757668Y-104980759D01*
X123795201Y-104965213D01*
X123821797Y-104959922D01*
X123854921Y-104949160D01*
X123957887Y-104932852D01*
X123997082Y-104925056D01*
X124011624Y-104924341D01*
X124018605Y-104923236D01*
X124096126Y-104920190D01*
X124100000Y-104920000D01*
X125100000Y-104920000D01*
X125103873Y-104920190D01*
G37*
G36*
X157468686Y-94600241D02*
G01*
X157522577Y-94602889D01*
X157529210Y-94604208D01*
X157543316Y-94605133D01*
X157570562Y-94612433D01*
X157639099Y-94626066D01*
X157671448Y-94639465D01*
X157694610Y-94645672D01*
X157715377Y-94657662D01*
X157747722Y-94671060D01*
X157805816Y-94709877D01*
X157830257Y-94723988D01*
X157836946Y-94730677D01*
X157845481Y-94736380D01*
X157928619Y-94819518D01*
X157934321Y-94828052D01*
X157941012Y-94834743D01*
X157955124Y-94859186D01*
X157993939Y-94917277D01*
X158007335Y-94949618D01*
X158019328Y-94970390D01*
X158025535Y-94993555D01*
X158038933Y-95025900D01*
X158052565Y-95094433D01*
X158059867Y-95121684D01*
X158059867Y-95131141D01*
X158061870Y-95141211D01*
X158061870Y-95258788D01*
X158059867Y-95268857D01*
X158059867Y-95278316D01*
X158052564Y-95305569D01*
X158038933Y-95374099D01*
X158025535Y-95406441D01*
X158019328Y-95429610D01*
X158007334Y-95450383D01*
X157993939Y-95482722D01*
X157955128Y-95540805D01*
X157941012Y-95565257D01*
X157934319Y-95571949D01*
X157928619Y-95580481D01*
X157845481Y-95663619D01*
X157836949Y-95669319D01*
X157830257Y-95676012D01*
X157805805Y-95690128D01*
X157747722Y-95728939D01*
X157715383Y-95742334D01*
X157694610Y-95754328D01*
X157671441Y-95760535D01*
X157639099Y-95773933D01*
X157570576Y-95787562D01*
X157543316Y-95794867D01*
X157529203Y-95795791D01*
X157522577Y-95797110D01*
X157468691Y-95799758D01*
X157465000Y-95800000D01*
X157463768Y-95800000D01*
X156653024Y-95800000D01*
X156636283Y-95879358D01*
X156647954Y-95884511D01*
X156670671Y-95889030D01*
X156694991Y-95905280D01*
X156715793Y-95914465D01*
X156730000Y-95928672D01*
X156751777Y-95943223D01*
X156766327Y-95964999D01*
X156780534Y-95979206D01*
X156789718Y-96000006D01*
X156805970Y-96024329D01*
X156810489Y-96047048D01*
X156818235Y-96064591D01*
X156824192Y-96115940D01*
X156825000Y-96120000D01*
X156825000Y-96420000D01*
X156824192Y-96424059D01*
X156818235Y-96475408D01*
X156810489Y-96492950D01*
X156805970Y-96515671D01*
X156789716Y-96539995D01*
X156780534Y-96560793D01*
X156766329Y-96574997D01*
X156751777Y-96596777D01*
X156729997Y-96611329D01*
X156715792Y-96625535D01*
X156694994Y-96634717D01*
X156688874Y-96638807D01*
X156688874Y-96701192D01*
X156694993Y-96705281D01*
X156715792Y-96714464D01*
X156730000Y-96728672D01*
X156751777Y-96743223D01*
X156766327Y-96764999D01*
X156780534Y-96779206D01*
X156789718Y-96800006D01*
X156805970Y-96824329D01*
X156810489Y-96847048D01*
X156818235Y-96864591D01*
X156824192Y-96915940D01*
X156825000Y-96920000D01*
X156825000Y-97220000D01*
X156824192Y-97224059D01*
X156818235Y-97275408D01*
X156810489Y-97292950D01*
X156805970Y-97315671D01*
X156789716Y-97339995D01*
X156780534Y-97360793D01*
X156766329Y-97374997D01*
X156751777Y-97396777D01*
X156729997Y-97411329D01*
X156715793Y-97425534D01*
X156694995Y-97434717D01*
X156670671Y-97450970D01*
X156657810Y-97453528D01*
X156665471Y-97523077D01*
X156716970Y-97533321D01*
X156773744Y-97571256D01*
X156811679Y-97628030D01*
X156825000Y-97695000D01*
X156825000Y-97845000D01*
X156811679Y-97911970D01*
X156773744Y-97968744D01*
X156735300Y-97994431D01*
X156735300Y-98045568D01*
X156773744Y-98071256D01*
X156811679Y-98128030D01*
X156825000Y-98195000D01*
X156825000Y-98345000D01*
X156811679Y-98411970D01*
X156773744Y-98468744D01*
X156735300Y-98494431D01*
X156735300Y-98545568D01*
X156773744Y-98571256D01*
X156811679Y-98628030D01*
X156825000Y-98695000D01*
X156825000Y-98845000D01*
X156811679Y-98911970D01*
X156773744Y-98968744D01*
X156735300Y-98994431D01*
X156735300Y-99045568D01*
X156773744Y-99071256D01*
X156811679Y-99128030D01*
X156825000Y-99195000D01*
X156825000Y-99345000D01*
X156811679Y-99411970D01*
X156773744Y-99468744D01*
X156735300Y-99494431D01*
X156735300Y-99545568D01*
X156773744Y-99571256D01*
X156811679Y-99628030D01*
X156825000Y-99695000D01*
X156825000Y-99845000D01*
X156811679Y-99911970D01*
X156773744Y-99968744D01*
X156735300Y-99994431D01*
X156735300Y-100045568D01*
X156773744Y-100071256D01*
X156811679Y-100128030D01*
X156825000Y-100195000D01*
X156825000Y-100345000D01*
X156811679Y-100411970D01*
X156773744Y-100468744D01*
X156735300Y-100494431D01*
X156735300Y-100545568D01*
X156773744Y-100571256D01*
X156811679Y-100628030D01*
X156825000Y-100695000D01*
X156825000Y-100845000D01*
X156811679Y-100911970D01*
X156773744Y-100968744D01*
X156735300Y-100994431D01*
X156735300Y-101045568D01*
X156773744Y-101071256D01*
X156811679Y-101128030D01*
X156825000Y-101195000D01*
X156825000Y-101345000D01*
X156811679Y-101411970D01*
X156773744Y-101468744D01*
X156716970Y-101506679D01*
X156665472Y-101516922D01*
X156657809Y-101586471D01*
X156670671Y-101589030D01*
X156694989Y-101605279D01*
X156715793Y-101614465D01*
X156730000Y-101628672D01*
X156751777Y-101643223D01*
X156766327Y-101664999D01*
X156780534Y-101679206D01*
X156789718Y-101700006D01*
X156805970Y-101724329D01*
X156810489Y-101747048D01*
X156818235Y-101764591D01*
X156824192Y-101815940D01*
X156825000Y-101820000D01*
X156825000Y-102120000D01*
X156824192Y-102124059D01*
X156818235Y-102175408D01*
X156810489Y-102192950D01*
X156805970Y-102215671D01*
X156789716Y-102239995D01*
X156780534Y-102260793D01*
X156766329Y-102274997D01*
X156751777Y-102296777D01*
X156729997Y-102311329D01*
X156715792Y-102325535D01*
X156694994Y-102334717D01*
X156688874Y-102338807D01*
X156688874Y-102401192D01*
X156694993Y-102405281D01*
X156715792Y-102414464D01*
X156730000Y-102428672D01*
X156751777Y-102443223D01*
X156766327Y-102464999D01*
X156780534Y-102479206D01*
X156789718Y-102500006D01*
X156805970Y-102524329D01*
X156810489Y-102547048D01*
X156818235Y-102564591D01*
X156824192Y-102615940D01*
X156825000Y-102620000D01*
X156825000Y-102920000D01*
X156824192Y-102924059D01*
X156818235Y-102975408D01*
X156810489Y-102992950D01*
X156805970Y-103015671D01*
X156789716Y-103039995D01*
X156780534Y-103060793D01*
X156766329Y-103074997D01*
X156751777Y-103096777D01*
X156729997Y-103111329D01*
X156715793Y-103125534D01*
X156694994Y-103134717D01*
X156670671Y-103150970D01*
X156647953Y-103155488D01*
X156636283Y-103160642D01*
X156653024Y-103240000D01*
X157465000Y-103240000D01*
X157468686Y-103240241D01*
X157522577Y-103242889D01*
X157529210Y-103244208D01*
X157543316Y-103245133D01*
X157570562Y-103252433D01*
X157639099Y-103266066D01*
X157671448Y-103279465D01*
X157694610Y-103285672D01*
X157715377Y-103297662D01*
X157747722Y-103311060D01*
X157805816Y-103349877D01*
X157830257Y-103363988D01*
X157836946Y-103370677D01*
X157845481Y-103376380D01*
X157928619Y-103459518D01*
X157934321Y-103468052D01*
X157941012Y-103474743D01*
X157955124Y-103499186D01*
X157993939Y-103557277D01*
X158007335Y-103589618D01*
X158019328Y-103610390D01*
X158025535Y-103633555D01*
X158038933Y-103665900D01*
X158052565Y-103734433D01*
X158059867Y-103761684D01*
X158059867Y-103771141D01*
X158061870Y-103781211D01*
X158061870Y-103898788D01*
X158059867Y-103908857D01*
X158059867Y-103918316D01*
X158052564Y-103945569D01*
X158038933Y-104014099D01*
X158025535Y-104046441D01*
X158019328Y-104069610D01*
X158007334Y-104090383D01*
X157993939Y-104122722D01*
X157955128Y-104180805D01*
X157941012Y-104205257D01*
X157934319Y-104211949D01*
X157928619Y-104220481D01*
X157845481Y-104303619D01*
X157836949Y-104309319D01*
X157830257Y-104316012D01*
X157805805Y-104330128D01*
X157747722Y-104368939D01*
X157715383Y-104382334D01*
X157694610Y-104394328D01*
X157671441Y-104400535D01*
X157639099Y-104413933D01*
X157570576Y-104427562D01*
X157543316Y-104434867D01*
X157529203Y-104435791D01*
X157522577Y-104437110D01*
X157468691Y-104439758D01*
X157465000Y-104440000D01*
X157463768Y-104440000D01*
X156366232Y-104440000D01*
X156365000Y-104440000D01*
X156361308Y-104439758D01*
X156307422Y-104437110D01*
X156300795Y-104435791D01*
X156286684Y-104434867D01*
X156259426Y-104427563D01*
X156190900Y-104413933D01*
X156158555Y-104400535D01*
X156135390Y-104394328D01*
X156114618Y-104382335D01*
X156082277Y-104368939D01*
X156024186Y-104330124D01*
X155999743Y-104316012D01*
X155993052Y-104309321D01*
X155984518Y-104303619D01*
X155901380Y-104220481D01*
X155895677Y-104211946D01*
X155888988Y-104205257D01*
X155874877Y-104180816D01*
X155836060Y-104122722D01*
X155822662Y-104090377D01*
X155810672Y-104069610D01*
X155804465Y-104046448D01*
X155791066Y-104014099D01*
X155777433Y-103945563D01*
X155770133Y-103918316D01*
X155770133Y-103908858D01*
X155768130Y-103898788D01*
X155768130Y-103781211D01*
X155770133Y-103771140D01*
X155770133Y-103761684D01*
X155777433Y-103734439D01*
X155791066Y-103665900D01*
X155804466Y-103633548D01*
X155810672Y-103610390D01*
X155822660Y-103589624D01*
X155836060Y-103557277D01*
X155874881Y-103499175D01*
X155888988Y-103474743D01*
X155895675Y-103468055D01*
X155901380Y-103459518D01*
X155984518Y-103376380D01*
X155993055Y-103370675D01*
X155999743Y-103363988D01*
X156024171Y-103349884D01*
X156082277Y-103311059D01*
X156114628Y-103297658D01*
X156135390Y-103285672D01*
X156158548Y-103279466D01*
X156228510Y-103250488D01*
X156212499Y-103170000D01*
X155425000Y-103170000D01*
X155420941Y-103169192D01*
X155369591Y-103163235D01*
X155352048Y-103155489D01*
X155329329Y-103150970D01*
X155305006Y-103134718D01*
X155284206Y-103125534D01*
X155269999Y-103111327D01*
X155248223Y-103096777D01*
X155233672Y-103075000D01*
X155219465Y-103060793D01*
X155210280Y-103039991D01*
X155194030Y-103015671D01*
X155189511Y-102992954D01*
X155181764Y-102975408D01*
X155175805Y-102924049D01*
X155175000Y-102920000D01*
X155175000Y-102620000D01*
X155175804Y-102615953D01*
X155181764Y-102564591D01*
X155189511Y-102547043D01*
X155194030Y-102524329D01*
X155210278Y-102500010D01*
X155219465Y-102479206D01*
X155233674Y-102464996D01*
X155248223Y-102443223D01*
X155269996Y-102428674D01*
X155284207Y-102414464D01*
X155305015Y-102405275D01*
X155311125Y-102401193D01*
X155311125Y-102338806D01*
X155305014Y-102334723D01*
X155284207Y-102325535D01*
X155269999Y-102311327D01*
X155248223Y-102296777D01*
X155233672Y-102275000D01*
X155219465Y-102260793D01*
X155210280Y-102239991D01*
X155194030Y-102215671D01*
X155189511Y-102192954D01*
X155181764Y-102175408D01*
X155175805Y-102124049D01*
X155175000Y-102120000D01*
X155175000Y-101820000D01*
X155175804Y-101815953D01*
X155181764Y-101764591D01*
X155189511Y-101747043D01*
X155194030Y-101724329D01*
X155210278Y-101700010D01*
X155219465Y-101679206D01*
X155233674Y-101664996D01*
X155248223Y-101643223D01*
X155269996Y-101628674D01*
X155284207Y-101614464D01*
X155305013Y-101605276D01*
X155329329Y-101589030D01*
X155342189Y-101586471D01*
X155334526Y-101516922D01*
X155283030Y-101506679D01*
X155226256Y-101468744D01*
X155188321Y-101411970D01*
X155175000Y-101345000D01*
X155175000Y-101195000D01*
X155188321Y-101128030D01*
X155226256Y-101071256D01*
X155264699Y-101045569D01*
X155264699Y-100994430D01*
X155226256Y-100968744D01*
X155188321Y-100911970D01*
X155175000Y-100845000D01*
X155175000Y-100695000D01*
X155188321Y-100628030D01*
X155226256Y-100571256D01*
X155264699Y-100545569D01*
X155264699Y-100494430D01*
X155226256Y-100468744D01*
X155188321Y-100411970D01*
X155175000Y-100345000D01*
X155175000Y-100195000D01*
X155188321Y-100128030D01*
X155226256Y-100071256D01*
X155264699Y-100045569D01*
X155264699Y-99994430D01*
X155226256Y-99968744D01*
X155188321Y-99911970D01*
X155175000Y-99845000D01*
X155175000Y-99695000D01*
X155188321Y-99628030D01*
X155226256Y-99571256D01*
X155264699Y-99545569D01*
X155264699Y-99494430D01*
X155226256Y-99468744D01*
X155188321Y-99411970D01*
X155175000Y-99345000D01*
X155175000Y-99195000D01*
X155188321Y-99128030D01*
X155226256Y-99071256D01*
X155264699Y-99045569D01*
X155264699Y-98994430D01*
X155226256Y-98968744D01*
X155188321Y-98911970D01*
X155175000Y-98845000D01*
X155175000Y-98695000D01*
X155188321Y-98628030D01*
X155226256Y-98571256D01*
X155264699Y-98545569D01*
X155264699Y-98494430D01*
X155226256Y-98468744D01*
X155188321Y-98411970D01*
X155175000Y-98345000D01*
X155175000Y-98195000D01*
X155188321Y-98128030D01*
X155226256Y-98071256D01*
X155264699Y-98045569D01*
X155264699Y-97994430D01*
X155226256Y-97968744D01*
X155188321Y-97911970D01*
X155175000Y-97845000D01*
X155175000Y-97695000D01*
X155188321Y-97628030D01*
X155226256Y-97571256D01*
X155283030Y-97533321D01*
X155334527Y-97523077D01*
X155342188Y-97453527D01*
X155329329Y-97450970D01*
X155305008Y-97434719D01*
X155284207Y-97425535D01*
X155269999Y-97411327D01*
X155248223Y-97396777D01*
X155233672Y-97375000D01*
X155219465Y-97360793D01*
X155210280Y-97339991D01*
X155194030Y-97315671D01*
X155189511Y-97292954D01*
X155181764Y-97275408D01*
X155175805Y-97224049D01*
X155175000Y-97220000D01*
X155175000Y-96920000D01*
X155175804Y-96915953D01*
X155181764Y-96864591D01*
X155189511Y-96847043D01*
X155194030Y-96824329D01*
X155210278Y-96800010D01*
X155219465Y-96779206D01*
X155233674Y-96764996D01*
X155248223Y-96743223D01*
X155269996Y-96728674D01*
X155284207Y-96714464D01*
X155305015Y-96705275D01*
X155311125Y-96701193D01*
X155311125Y-96638806D01*
X155305014Y-96634723D01*
X155284207Y-96625535D01*
X155269999Y-96611327D01*
X155248223Y-96596777D01*
X155233672Y-96575000D01*
X155219465Y-96560793D01*
X155210280Y-96539991D01*
X155194030Y-96515671D01*
X155189511Y-96492954D01*
X155181764Y-96475408D01*
X155175805Y-96424049D01*
X155175000Y-96420000D01*
X155175000Y-96120000D01*
X155175804Y-96115953D01*
X155181764Y-96064591D01*
X155189511Y-96047043D01*
X155194030Y-96024329D01*
X155210278Y-96000010D01*
X155219465Y-95979206D01*
X155233674Y-95964996D01*
X155248223Y-95943223D01*
X155269996Y-95928674D01*
X155284206Y-95914465D01*
X155305010Y-95905278D01*
X155329329Y-95889030D01*
X155352043Y-95884511D01*
X155369591Y-95876764D01*
X155420952Y-95870805D01*
X155425000Y-95870000D01*
X156212498Y-95870000D01*
X156228508Y-95789511D01*
X156158552Y-95760534D01*
X156135390Y-95754328D01*
X156114623Y-95742338D01*
X156082277Y-95728940D01*
X156024182Y-95690122D01*
X155999743Y-95676012D01*
X155993052Y-95669321D01*
X155984518Y-95663619D01*
X155901380Y-95580481D01*
X155895677Y-95571946D01*
X155888988Y-95565257D01*
X155874877Y-95540816D01*
X155836060Y-95482722D01*
X155822662Y-95450377D01*
X155810672Y-95429610D01*
X155804465Y-95406448D01*
X155791066Y-95374099D01*
X155777433Y-95305563D01*
X155770133Y-95278316D01*
X155770133Y-95268858D01*
X155768130Y-95258788D01*
X155768130Y-95141211D01*
X155770133Y-95131140D01*
X155770133Y-95121684D01*
X155777433Y-95094439D01*
X155791066Y-95025900D01*
X155804466Y-94993548D01*
X155810672Y-94970390D01*
X155822660Y-94949624D01*
X155836060Y-94917277D01*
X155874881Y-94859175D01*
X155888988Y-94834743D01*
X155895675Y-94828055D01*
X155901380Y-94819518D01*
X155984518Y-94736380D01*
X155993055Y-94730675D01*
X155999743Y-94723988D01*
X156024175Y-94709881D01*
X156082277Y-94671060D01*
X156114624Y-94657660D01*
X156135390Y-94645672D01*
X156158548Y-94639466D01*
X156190900Y-94626066D01*
X156259440Y-94612432D01*
X156286684Y-94605133D01*
X156300787Y-94604208D01*
X156307422Y-94602889D01*
X156361313Y-94600241D01*
X156365000Y-94600000D01*
X157465000Y-94600000D01*
X157468686Y-94600241D01*
G37*
G36*
X161398686Y-103240241D02*
G01*
X161452577Y-103242889D01*
X161459210Y-103244208D01*
X161473316Y-103245133D01*
X161500562Y-103252433D01*
X161569099Y-103266066D01*
X161601448Y-103279465D01*
X161624610Y-103285672D01*
X161645377Y-103297662D01*
X161677722Y-103311060D01*
X161735816Y-103349877D01*
X161760257Y-103363988D01*
X161766946Y-103370677D01*
X161775481Y-103376380D01*
X161858619Y-103459518D01*
X161864321Y-103468052D01*
X161871012Y-103474743D01*
X161885124Y-103499186D01*
X161923939Y-103557277D01*
X161937335Y-103589618D01*
X161949328Y-103610390D01*
X161955535Y-103633555D01*
X161968933Y-103665900D01*
X161982565Y-103734433D01*
X161989867Y-103761684D01*
X161989867Y-103771141D01*
X161991870Y-103781211D01*
X161991870Y-103898788D01*
X161989867Y-103908857D01*
X161989867Y-103918316D01*
X161982564Y-103945569D01*
X161968933Y-104014099D01*
X161955535Y-104046441D01*
X161949328Y-104069610D01*
X161937334Y-104090383D01*
X161923939Y-104122722D01*
X161885128Y-104180805D01*
X161871012Y-104205257D01*
X161864319Y-104211949D01*
X161858619Y-104220481D01*
X161775481Y-104303619D01*
X161766949Y-104309319D01*
X161760257Y-104316012D01*
X161735805Y-104330128D01*
X161677722Y-104368939D01*
X161645383Y-104382334D01*
X161624610Y-104394328D01*
X161601441Y-104400535D01*
X161569099Y-104413933D01*
X161500576Y-104427562D01*
X161473316Y-104434867D01*
X161459203Y-104435791D01*
X161452577Y-104437110D01*
X161398691Y-104439758D01*
X161395000Y-104440000D01*
X161393768Y-104440000D01*
X160796232Y-104440000D01*
X160795000Y-104440000D01*
X160791308Y-104439758D01*
X160737422Y-104437110D01*
X160730795Y-104435791D01*
X160716684Y-104434867D01*
X160689426Y-104427563D01*
X160620900Y-104413933D01*
X160588555Y-104400535D01*
X160565390Y-104394328D01*
X160544618Y-104382335D01*
X160512277Y-104368939D01*
X160454186Y-104330124D01*
X160429743Y-104316012D01*
X160423052Y-104309321D01*
X160414518Y-104303619D01*
X160331380Y-104220481D01*
X160325677Y-104211946D01*
X160318988Y-104205257D01*
X160304877Y-104180816D01*
X160266060Y-104122722D01*
X160252662Y-104090377D01*
X160240672Y-104069610D01*
X160234465Y-104046448D01*
X160221066Y-104014099D01*
X160207433Y-103945563D01*
X160200133Y-103918316D01*
X160200133Y-103908858D01*
X160198130Y-103898788D01*
X160198130Y-103781211D01*
X160200133Y-103771140D01*
X160200133Y-103761684D01*
X160207433Y-103734439D01*
X160221066Y-103665900D01*
X160234466Y-103633548D01*
X160240672Y-103610390D01*
X160252660Y-103589624D01*
X160266060Y-103557277D01*
X160304881Y-103499175D01*
X160318988Y-103474743D01*
X160325675Y-103468055D01*
X160331380Y-103459518D01*
X160414518Y-103376380D01*
X160423055Y-103370675D01*
X160429743Y-103363988D01*
X160454175Y-103349881D01*
X160512277Y-103311060D01*
X160544624Y-103297660D01*
X160565390Y-103285672D01*
X160588548Y-103279466D01*
X160620900Y-103266066D01*
X160689440Y-103252432D01*
X160716684Y-103245133D01*
X160730787Y-103244208D01*
X160737422Y-103242889D01*
X160791313Y-103240241D01*
X160795000Y-103240000D01*
X161395000Y-103240000D01*
X161398686Y-103240241D01*
G37*
G36*
X125699868Y-102164550D02*
G01*
X125705586Y-102167345D01*
X125707962Y-102167722D01*
X125745987Y-102187096D01*
X125803377Y-102215153D01*
X125884847Y-102296623D01*
X125912907Y-102354020D01*
X125932276Y-102392034D01*
X125932652Y-102394408D01*
X125935450Y-102400132D01*
X125950000Y-102500000D01*
X125950000Y-103300000D01*
X125935450Y-103399868D01*
X125932652Y-103405589D01*
X125932277Y-103407962D01*
X125912926Y-103445939D01*
X125884847Y-103503377D01*
X125803377Y-103584847D01*
X125745955Y-103612919D01*
X125707965Y-103632276D01*
X125705591Y-103632651D01*
X125699868Y-103635450D01*
X125600000Y-103650000D01*
X124800000Y-103650000D01*
X124700132Y-103635450D01*
X124694410Y-103632652D01*
X124692037Y-103632277D01*
X124654035Y-103612914D01*
X124596623Y-103584847D01*
X124515153Y-103503377D01*
X124487104Y-103446003D01*
X124467723Y-103407965D01*
X124467346Y-103405588D01*
X124464550Y-103399868D01*
X124450000Y-103300000D01*
X124450000Y-102500000D01*
X124464550Y-102400132D01*
X124467345Y-102394413D01*
X124467722Y-102392037D01*
X124487108Y-102353987D01*
X124515153Y-102296623D01*
X124596623Y-102215153D01*
X124653971Y-102187116D01*
X124692034Y-102167723D01*
X124694411Y-102167346D01*
X124700132Y-102164550D01*
X124800000Y-102150000D01*
X125600000Y-102150000D01*
X125699868Y-102164550D01*
G37*
G36*
X157607640Y-102017351D02*
G01*
X157703724Y-102072825D01*
X157782175Y-102151276D01*
X157837649Y-102247360D01*
X157866364Y-102354526D01*
X157866364Y-102465474D01*
X157837649Y-102572640D01*
X157782175Y-102668724D01*
X157703724Y-102747175D01*
X157607640Y-102802649D01*
X157500474Y-102831364D01*
X157389526Y-102831364D01*
X157282360Y-102802649D01*
X157186276Y-102747175D01*
X157107825Y-102668724D01*
X157052351Y-102572640D01*
X157023636Y-102465474D01*
X157023636Y-102354526D01*
X157052351Y-102247360D01*
X157107825Y-102151276D01*
X157186276Y-102072825D01*
X157282360Y-102017351D01*
X157389526Y-101988636D01*
X157500474Y-101988636D01*
X157607640Y-102017351D01*
G37*
G36*
X150737368Y-100414550D02*
G01*
X150743086Y-100417345D01*
X150745462Y-100417722D01*
X150783487Y-100437096D01*
X150840877Y-100465153D01*
X150922347Y-100546623D01*
X150950407Y-100604020D01*
X150969776Y-100642034D01*
X150970152Y-100644408D01*
X150972950Y-100650132D01*
X150987500Y-100750000D01*
X150987500Y-101650000D01*
X150972950Y-101749868D01*
X150970152Y-101755589D01*
X150969777Y-101757962D01*
X150950426Y-101795939D01*
X150922347Y-101853377D01*
X150840877Y-101934847D01*
X150783455Y-101962919D01*
X150745465Y-101982276D01*
X150743091Y-101982651D01*
X150737368Y-101985450D01*
X150637500Y-102000000D01*
X150112500Y-102000000D01*
X150012632Y-101985450D01*
X150006910Y-101982652D01*
X150004537Y-101982277D01*
X149966535Y-101962914D01*
X149909123Y-101934847D01*
X149827653Y-101853377D01*
X149799604Y-101796003D01*
X149780223Y-101757965D01*
X149779846Y-101755588D01*
X149777050Y-101749868D01*
X149762500Y-101650000D01*
X149762500Y-100750000D01*
X149777050Y-100650132D01*
X149779845Y-100644413D01*
X149780222Y-100642037D01*
X149799608Y-100603987D01*
X149827653Y-100546623D01*
X149909123Y-100465153D01*
X149966471Y-100437116D01*
X150004534Y-100417723D01*
X150006911Y-100417346D01*
X150012632Y-100414550D01*
X150112500Y-100400000D01*
X150637500Y-100400000D01*
X150737368Y-100414550D01*
G37*
G36*
X152562368Y-100414550D02*
G01*
X152568086Y-100417345D01*
X152570462Y-100417722D01*
X152608487Y-100437096D01*
X152665877Y-100465153D01*
X152747347Y-100546623D01*
X152775407Y-100604020D01*
X152794776Y-100642034D01*
X152795152Y-100644408D01*
X152797950Y-100650132D01*
X152812500Y-100750000D01*
X152812500Y-101650000D01*
X152797950Y-101749868D01*
X152795152Y-101755589D01*
X152794777Y-101757962D01*
X152775426Y-101795939D01*
X152747347Y-101853377D01*
X152665877Y-101934847D01*
X152608455Y-101962919D01*
X152570465Y-101982276D01*
X152568091Y-101982651D01*
X152562368Y-101985450D01*
X152462500Y-102000000D01*
X151937500Y-102000000D01*
X151837632Y-101985450D01*
X151831910Y-101982652D01*
X151829537Y-101982277D01*
X151791535Y-101962914D01*
X151734123Y-101934847D01*
X151652653Y-101853377D01*
X151624604Y-101796003D01*
X151605223Y-101757965D01*
X151604846Y-101755588D01*
X151602050Y-101749868D01*
X151587500Y-101650000D01*
X151587500Y-100750000D01*
X151602050Y-100650132D01*
X151604845Y-100644413D01*
X151605222Y-100642037D01*
X151624608Y-100603987D01*
X151652653Y-100546623D01*
X151734123Y-100465153D01*
X151791471Y-100437116D01*
X151829534Y-100417723D01*
X151831911Y-100417346D01*
X151837632Y-100414550D01*
X151937500Y-100400000D01*
X152462500Y-100400000D01*
X152562368Y-100414550D01*
G37*
G36*
X125417714Y-99682295D02*
G01*
X125553548Y-99738559D01*
X125675795Y-99820242D01*
X125779758Y-99924205D01*
X125861441Y-100046452D01*
X125917705Y-100182286D01*
X125946389Y-100326487D01*
X125946389Y-100473513D01*
X125917705Y-100617714D01*
X125861441Y-100753548D01*
X125779758Y-100875795D01*
X125675795Y-100979758D01*
X125553548Y-101061441D01*
X125417714Y-101117705D01*
X125273513Y-101146389D01*
X125126487Y-101146389D01*
X124982286Y-101117705D01*
X124846452Y-101061441D01*
X124724205Y-100979758D01*
X124620242Y-100875795D01*
X124538559Y-100753548D01*
X124482295Y-100617714D01*
X124453611Y-100473513D01*
X124453611Y-100326487D01*
X124482295Y-100182286D01*
X124538559Y-100046452D01*
X124620242Y-99924205D01*
X124724205Y-99820242D01*
X124846452Y-99738559D01*
X124982286Y-99682295D01*
X125126487Y-99653611D01*
X125273513Y-99653611D01*
X125417714Y-99682295D01*
G37*
G36*
X120512885Y-97855056D02*
G01*
X120522918Y-97855056D01*
X120562117Y-97862853D01*
X120665078Y-97879160D01*
X120698200Y-97889922D01*
X120724799Y-97895213D01*
X120762335Y-97910760D01*
X120821762Y-97930070D01*
X120877433Y-97958435D01*
X120914967Y-97973983D01*
X120937517Y-97989050D01*
X120968539Y-98004857D01*
X121052866Y-98066124D01*
X121086113Y-98088339D01*
X121093208Y-98095434D01*
X121101817Y-98101689D01*
X121218310Y-98218182D01*
X121224564Y-98226790D01*
X121231661Y-98233887D01*
X121253878Y-98267138D01*
X121315142Y-98351460D01*
X121330947Y-98382479D01*
X121346017Y-98405033D01*
X121361566Y-98442572D01*
X121389929Y-98498237D01*
X121409235Y-98557657D01*
X121424787Y-98595201D01*
X121430078Y-98621805D01*
X121440839Y-98654921D01*
X121457142Y-98757862D01*
X121464944Y-98797082D01*
X121465658Y-98811633D01*
X121466763Y-98818605D01*
X121469809Y-98896120D01*
X121470000Y-98900000D01*
X121470000Y-99900000D01*
X121469809Y-99903883D01*
X121466763Y-99981394D01*
X121465658Y-99988365D01*
X121464944Y-100002918D01*
X121457142Y-100042140D01*
X121440839Y-100145078D01*
X121430079Y-100178192D01*
X121424787Y-100204799D01*
X121409234Y-100242346D01*
X121389929Y-100301762D01*
X121361568Y-100357422D01*
X121346017Y-100394967D01*
X121330945Y-100417523D01*
X121315142Y-100448539D01*
X121253887Y-100532849D01*
X121231661Y-100566113D01*
X121224561Y-100573212D01*
X121218310Y-100581817D01*
X121101817Y-100698310D01*
X121093212Y-100704561D01*
X121086113Y-100711661D01*
X121052849Y-100733887D01*
X120968539Y-100795142D01*
X120937523Y-100810945D01*
X120914967Y-100826017D01*
X120877422Y-100841568D01*
X120821762Y-100869929D01*
X120762346Y-100889234D01*
X120724799Y-100904787D01*
X120698192Y-100910079D01*
X120665078Y-100920839D01*
X120562126Y-100937144D01*
X120522918Y-100944944D01*
X120512884Y-100944944D01*
X120502372Y-100946609D01*
X120337628Y-100946609D01*
X120327115Y-100944944D01*
X120317082Y-100944944D01*
X120277874Y-100937145D01*
X120174921Y-100920839D01*
X120141805Y-100910078D01*
X120115201Y-100904787D01*
X120077657Y-100889235D01*
X120018237Y-100869929D01*
X119962572Y-100841566D01*
X119925033Y-100826017D01*
X119902479Y-100810947D01*
X119871460Y-100795142D01*
X119787138Y-100733878D01*
X119753887Y-100711661D01*
X119746790Y-100704564D01*
X119738182Y-100698310D01*
X119621689Y-100581817D01*
X119615434Y-100573208D01*
X119608339Y-100566113D01*
X119586124Y-100532866D01*
X119524857Y-100448539D01*
X119509050Y-100417517D01*
X119493983Y-100394967D01*
X119478435Y-100357433D01*
X119450070Y-100301762D01*
X119430760Y-100242335D01*
X119415213Y-100204799D01*
X119409922Y-100178200D01*
X119399160Y-100145078D01*
X119382853Y-100042116D01*
X119375056Y-100002918D01*
X119374341Y-99988374D01*
X119373236Y-99981394D01*
X119370190Y-99903877D01*
X119370000Y-99900000D01*
X119370000Y-98900000D01*
X119370190Y-98896126D01*
X119373236Y-98818605D01*
X119374341Y-98811624D01*
X119375056Y-98797082D01*
X119382852Y-98757887D01*
X119399160Y-98654921D01*
X119409922Y-98621797D01*
X119415213Y-98595201D01*
X119430759Y-98557668D01*
X119450070Y-98498237D01*
X119478438Y-98442561D01*
X119493983Y-98405033D01*
X119509048Y-98382486D01*
X119524857Y-98351460D01*
X119586132Y-98267121D01*
X119608339Y-98233887D01*
X119615432Y-98226793D01*
X119621689Y-98218182D01*
X119738182Y-98101689D01*
X119746793Y-98095432D01*
X119753887Y-98088339D01*
X119787121Y-98066132D01*
X119871460Y-98004857D01*
X119902486Y-97989048D01*
X119925033Y-97973983D01*
X119962561Y-97958438D01*
X120018237Y-97930070D01*
X120077668Y-97910759D01*
X120115201Y-97895213D01*
X120141797Y-97889922D01*
X120174921Y-97879160D01*
X120277883Y-97862853D01*
X120317082Y-97855056D01*
X120327115Y-97855056D01*
X120337628Y-97853391D01*
X120502372Y-97853391D01*
X120512885Y-97855056D01*
G37*
G36*
X125417714Y-97682295D02*
G01*
X125553548Y-97738559D01*
X125675795Y-97820242D01*
X125779758Y-97924205D01*
X125861441Y-98046452D01*
X125917705Y-98182286D01*
X125946389Y-98326487D01*
X125946389Y-98473513D01*
X125917705Y-98617714D01*
X125861441Y-98753548D01*
X125779758Y-98875795D01*
X125675795Y-98979758D01*
X125553548Y-99061441D01*
X125417714Y-99117705D01*
X125273513Y-99146389D01*
X125126487Y-99146389D01*
X124982286Y-99117705D01*
X124846452Y-99061441D01*
X124724205Y-98979758D01*
X124620242Y-98875795D01*
X124538559Y-98753548D01*
X124482295Y-98617714D01*
X124453611Y-98473513D01*
X124453611Y-98326487D01*
X124482295Y-98182286D01*
X124538559Y-98046452D01*
X124620242Y-97924205D01*
X124724205Y-97820242D01*
X124846452Y-97738559D01*
X124982286Y-97682295D01*
X125126487Y-97653611D01*
X125273513Y-97653611D01*
X125417714Y-97682295D01*
G37*
G36*
X150737368Y-96014550D02*
G01*
X150743086Y-96017345D01*
X150745462Y-96017722D01*
X150783487Y-96037096D01*
X150840877Y-96065153D01*
X150922347Y-96146623D01*
X150950407Y-96204020D01*
X150969776Y-96242034D01*
X150970152Y-96244408D01*
X150972950Y-96250132D01*
X150987500Y-96350000D01*
X150987500Y-97250000D01*
X150972950Y-97349868D01*
X150970152Y-97355589D01*
X150969777Y-97357962D01*
X150950426Y-97395939D01*
X150922347Y-97453377D01*
X150840877Y-97534847D01*
X150783455Y-97562919D01*
X150745465Y-97582276D01*
X150743091Y-97582651D01*
X150737368Y-97585450D01*
X150637500Y-97600000D01*
X150112500Y-97600000D01*
X150012632Y-97585450D01*
X150006910Y-97582652D01*
X150004537Y-97582277D01*
X149966535Y-97562914D01*
X149909123Y-97534847D01*
X149827653Y-97453377D01*
X149799604Y-97396003D01*
X149780223Y-97357965D01*
X149779846Y-97355588D01*
X149777050Y-97349868D01*
X149762500Y-97250000D01*
X149762500Y-96350000D01*
X149777050Y-96250132D01*
X149779845Y-96244413D01*
X149780222Y-96242037D01*
X149799608Y-96203987D01*
X149827653Y-96146623D01*
X149909123Y-96065153D01*
X149966471Y-96037116D01*
X150004534Y-96017723D01*
X150006911Y-96017346D01*
X150012632Y-96014550D01*
X150112500Y-96000000D01*
X150637500Y-96000000D01*
X150737368Y-96014550D01*
G37*
G36*
X152562368Y-96014550D02*
G01*
X152568086Y-96017345D01*
X152570462Y-96017722D01*
X152608487Y-96037096D01*
X152665877Y-96065153D01*
X152747347Y-96146623D01*
X152775407Y-96204020D01*
X152794776Y-96242034D01*
X152795152Y-96244408D01*
X152797950Y-96250132D01*
X152812500Y-96350000D01*
X152812500Y-97250000D01*
X152797950Y-97349868D01*
X152795152Y-97355589D01*
X152794777Y-97357962D01*
X152775426Y-97395939D01*
X152747347Y-97453377D01*
X152665877Y-97534847D01*
X152608455Y-97562919D01*
X152570465Y-97582276D01*
X152568091Y-97582651D01*
X152562368Y-97585450D01*
X152462500Y-97600000D01*
X151937500Y-97600000D01*
X151837632Y-97585450D01*
X151831910Y-97582652D01*
X151829537Y-97582277D01*
X151791535Y-97562914D01*
X151734123Y-97534847D01*
X151652653Y-97453377D01*
X151624604Y-97396003D01*
X151605223Y-97357965D01*
X151604846Y-97355588D01*
X151602050Y-97349868D01*
X151587500Y-97250000D01*
X151587500Y-96350000D01*
X151602050Y-96250132D01*
X151604845Y-96244413D01*
X151605222Y-96242037D01*
X151624608Y-96203987D01*
X151652653Y-96146623D01*
X151734123Y-96065153D01*
X151791471Y-96037116D01*
X151829534Y-96017723D01*
X151831911Y-96017346D01*
X151837632Y-96014550D01*
X151937500Y-96000000D01*
X152462500Y-96000000D01*
X152562368Y-96014550D01*
G37*
G36*
X157607640Y-96237351D02*
G01*
X157703724Y-96292825D01*
X157782175Y-96371276D01*
X157837649Y-96467360D01*
X157866364Y-96574526D01*
X157866364Y-96685474D01*
X157837649Y-96792640D01*
X157782175Y-96888724D01*
X157703724Y-96967175D01*
X157607640Y-97022649D01*
X157500474Y-97051364D01*
X157389526Y-97051364D01*
X157282360Y-97022649D01*
X157186276Y-96967175D01*
X157107825Y-96888724D01*
X157052351Y-96792640D01*
X157023636Y-96685474D01*
X157023636Y-96574526D01*
X157052351Y-96467360D01*
X157107825Y-96371276D01*
X157186276Y-96292825D01*
X157282360Y-96237351D01*
X157389526Y-96208636D01*
X157500474Y-96208636D01*
X157607640Y-96237351D01*
G37*
G36*
X125417714Y-95182295D02*
G01*
X125553548Y-95238559D01*
X125675795Y-95320242D01*
X125779758Y-95424205D01*
X125861441Y-95546452D01*
X125917705Y-95682286D01*
X125946389Y-95826487D01*
X125946389Y-95973513D01*
X125917705Y-96117714D01*
X125861441Y-96253548D01*
X125779758Y-96375795D01*
X125675795Y-96479758D01*
X125553548Y-96561441D01*
X125417714Y-96617705D01*
X125273513Y-96646389D01*
X125126487Y-96646389D01*
X124982286Y-96617705D01*
X124846452Y-96561441D01*
X124724205Y-96479758D01*
X124620242Y-96375795D01*
X124538559Y-96253548D01*
X124482295Y-96117714D01*
X124453611Y-95973513D01*
X124453611Y-95826487D01*
X124482295Y-95682286D01*
X124538559Y-95546452D01*
X124620242Y-95424205D01*
X124724205Y-95320242D01*
X124846452Y-95238559D01*
X124982286Y-95182295D01*
X125126487Y-95153611D01*
X125273513Y-95153611D01*
X125417714Y-95182295D01*
G37*
G36*
X161398686Y-94600241D02*
G01*
X161452577Y-94602889D01*
X161459210Y-94604208D01*
X161473316Y-94605133D01*
X161500562Y-94612433D01*
X161569099Y-94626066D01*
X161601448Y-94639465D01*
X161624610Y-94645672D01*
X161645377Y-94657662D01*
X161677722Y-94671060D01*
X161735816Y-94709877D01*
X161760257Y-94723988D01*
X161766946Y-94730677D01*
X161775481Y-94736380D01*
X161858619Y-94819518D01*
X161864321Y-94828052D01*
X161871012Y-94834743D01*
X161885124Y-94859186D01*
X161923939Y-94917277D01*
X161937335Y-94949618D01*
X161949328Y-94970390D01*
X161955535Y-94993555D01*
X161968933Y-95025900D01*
X161982565Y-95094433D01*
X161989867Y-95121684D01*
X161989867Y-95131141D01*
X161991870Y-95141211D01*
X161991870Y-95258788D01*
X161989867Y-95268857D01*
X161989867Y-95278316D01*
X161982564Y-95305569D01*
X161968933Y-95374099D01*
X161955535Y-95406441D01*
X161949328Y-95429610D01*
X161937334Y-95450383D01*
X161923939Y-95482722D01*
X161885128Y-95540805D01*
X161871012Y-95565257D01*
X161864319Y-95571949D01*
X161858619Y-95580481D01*
X161775481Y-95663619D01*
X161766949Y-95669319D01*
X161760257Y-95676012D01*
X161735805Y-95690128D01*
X161677722Y-95728939D01*
X161645383Y-95742334D01*
X161624610Y-95754328D01*
X161601441Y-95760535D01*
X161569099Y-95773933D01*
X161500576Y-95787562D01*
X161473316Y-95794867D01*
X161459203Y-95795791D01*
X161452577Y-95797110D01*
X161398691Y-95799758D01*
X161395000Y-95800000D01*
X161393768Y-95800000D01*
X160796232Y-95800000D01*
X160795000Y-95800000D01*
X160791308Y-95799758D01*
X160737422Y-95797110D01*
X160730795Y-95795791D01*
X160716684Y-95794867D01*
X160689426Y-95787563D01*
X160620900Y-95773933D01*
X160588555Y-95760535D01*
X160565390Y-95754328D01*
X160544618Y-95742335D01*
X160512277Y-95728939D01*
X160454186Y-95690124D01*
X160429743Y-95676012D01*
X160423052Y-95669321D01*
X160414518Y-95663619D01*
X160331380Y-95580481D01*
X160325677Y-95571946D01*
X160318988Y-95565257D01*
X160304877Y-95540816D01*
X160266060Y-95482722D01*
X160252662Y-95450377D01*
X160240672Y-95429610D01*
X160234465Y-95406448D01*
X160221066Y-95374099D01*
X160207433Y-95305563D01*
X160200133Y-95278316D01*
X160200133Y-95268858D01*
X160198130Y-95258788D01*
X160198130Y-95141211D01*
X160200133Y-95131140D01*
X160200133Y-95121684D01*
X160207433Y-95094439D01*
X160221066Y-95025900D01*
X160234466Y-94993548D01*
X160240672Y-94970390D01*
X160252660Y-94949624D01*
X160266060Y-94917277D01*
X160304881Y-94859175D01*
X160318988Y-94834743D01*
X160325675Y-94828055D01*
X160331380Y-94819518D01*
X160414518Y-94736380D01*
X160423055Y-94730675D01*
X160429743Y-94723988D01*
X160454175Y-94709881D01*
X160512277Y-94671060D01*
X160544624Y-94657660D01*
X160565390Y-94645672D01*
X160588548Y-94639466D01*
X160620900Y-94626066D01*
X160689440Y-94612432D01*
X160716684Y-94605133D01*
X160730787Y-94604208D01*
X160737422Y-94602889D01*
X160791313Y-94600241D01*
X160795000Y-94600000D01*
X161395000Y-94600000D01*
X161398686Y-94600241D01*
G37*
G36*
X125103873Y-91780190D02*
G01*
X125181394Y-91783236D01*
X125188374Y-91784341D01*
X125202918Y-91785056D01*
X125242116Y-91792853D01*
X125345078Y-91809160D01*
X125378200Y-91819922D01*
X125404799Y-91825213D01*
X125442335Y-91840760D01*
X125501762Y-91860070D01*
X125557433Y-91888435D01*
X125594967Y-91903983D01*
X125617517Y-91919050D01*
X125648539Y-91934857D01*
X125732866Y-91996124D01*
X125766113Y-92018339D01*
X125773208Y-92025434D01*
X125781817Y-92031689D01*
X125898310Y-92148182D01*
X125904564Y-92156790D01*
X125911661Y-92163887D01*
X125933878Y-92197138D01*
X125995142Y-92281460D01*
X126010947Y-92312479D01*
X126026017Y-92335033D01*
X126041566Y-92372572D01*
X126069929Y-92428237D01*
X126089235Y-92487657D01*
X126104787Y-92525201D01*
X126110078Y-92551805D01*
X126120839Y-92584921D01*
X126137145Y-92687876D01*
X126144944Y-92727082D01*
X126144944Y-92737114D01*
X126146609Y-92747627D01*
X126146609Y-92912372D01*
X126144944Y-92922884D01*
X126144944Y-92932918D01*
X126137144Y-92972126D01*
X126120839Y-93075078D01*
X126110079Y-93108192D01*
X126104787Y-93134799D01*
X126089234Y-93172346D01*
X126069929Y-93231762D01*
X126041568Y-93287422D01*
X126026017Y-93324967D01*
X126010945Y-93347523D01*
X125995142Y-93378539D01*
X125933887Y-93462849D01*
X125911661Y-93496113D01*
X125904561Y-93503212D01*
X125898310Y-93511817D01*
X125781817Y-93628310D01*
X125773212Y-93634561D01*
X125766113Y-93641661D01*
X125732849Y-93663887D01*
X125648539Y-93725142D01*
X125617523Y-93740945D01*
X125594967Y-93756017D01*
X125557422Y-93771568D01*
X125501762Y-93799929D01*
X125442346Y-93819234D01*
X125404799Y-93834787D01*
X125378192Y-93840079D01*
X125345078Y-93850839D01*
X125242140Y-93867142D01*
X125202918Y-93874944D01*
X125188365Y-93875658D01*
X125181394Y-93876763D01*
X125103879Y-93879809D01*
X125100000Y-93880000D01*
X125099030Y-93880000D01*
X124100970Y-93880000D01*
X124100000Y-93880000D01*
X124096120Y-93879809D01*
X124018605Y-93876763D01*
X124011633Y-93875658D01*
X123997082Y-93874944D01*
X123957862Y-93867142D01*
X123854921Y-93850839D01*
X123821805Y-93840078D01*
X123795201Y-93834787D01*
X123757657Y-93819235D01*
X123698237Y-93799929D01*
X123642572Y-93771566D01*
X123605033Y-93756017D01*
X123582479Y-93740947D01*
X123551460Y-93725142D01*
X123467138Y-93663878D01*
X123433887Y-93641661D01*
X123426790Y-93634564D01*
X123418182Y-93628310D01*
X123301689Y-93511817D01*
X123295434Y-93503208D01*
X123288339Y-93496113D01*
X123266124Y-93462866D01*
X123204857Y-93378539D01*
X123189050Y-93347517D01*
X123173983Y-93324967D01*
X123158435Y-93287433D01*
X123130070Y-93231762D01*
X123110760Y-93172335D01*
X123095213Y-93134799D01*
X123089922Y-93108200D01*
X123079160Y-93075078D01*
X123062853Y-92972117D01*
X123055056Y-92932918D01*
X123055056Y-92922884D01*
X123053391Y-92912372D01*
X123053391Y-92747627D01*
X123055056Y-92737114D01*
X123055056Y-92727082D01*
X123062852Y-92687886D01*
X123079160Y-92584921D01*
X123089922Y-92551797D01*
X123095213Y-92525201D01*
X123110759Y-92487668D01*
X123130070Y-92428237D01*
X123158438Y-92372561D01*
X123173983Y-92335033D01*
X123189048Y-92312486D01*
X123204857Y-92281460D01*
X123266132Y-92197121D01*
X123288339Y-92163887D01*
X123295432Y-92156793D01*
X123301689Y-92148182D01*
X123418182Y-92031689D01*
X123426793Y-92025432D01*
X123433887Y-92018339D01*
X123467121Y-91996132D01*
X123551460Y-91934857D01*
X123582486Y-91919048D01*
X123605033Y-91903983D01*
X123642561Y-91888438D01*
X123698237Y-91860070D01*
X123757668Y-91840759D01*
X123795201Y-91825213D01*
X123821797Y-91819922D01*
X123854921Y-91809160D01*
X123957887Y-91792852D01*
X123997082Y-91785056D01*
X124011624Y-91784341D01*
X124018605Y-91783236D01*
X124096126Y-91780190D01*
X124100000Y-91780000D01*
X125100000Y-91780000D01*
X125103873Y-91780190D01*
G37*
G36*
X119780134Y-86833156D02*
G01*
X119959220Y-86891345D01*
X120126998Y-86976832D01*
X120279338Y-87087513D01*
X120412487Y-87220662D01*
X120523168Y-87373002D01*
X120608655Y-87540780D01*
X120666844Y-87719866D01*
X120696301Y-87905849D01*
X120696301Y-88094151D01*
X120666844Y-88280134D01*
X120608655Y-88459220D01*
X120523168Y-88626998D01*
X120412487Y-88779338D01*
X120279338Y-88912487D01*
X120126998Y-89023168D01*
X119959220Y-89108655D01*
X119780134Y-89166844D01*
X119594151Y-89196301D01*
X119405849Y-89196301D01*
X119219866Y-89166844D01*
X119040780Y-89108655D01*
X118873002Y-89023168D01*
X118720662Y-88912487D01*
X118587513Y-88779338D01*
X118476832Y-88626998D01*
X118391345Y-88459220D01*
X118333156Y-88280134D01*
X118303699Y-88094151D01*
X118303699Y-87905849D01*
X118333156Y-87719866D01*
X118391345Y-87540780D01*
X118476832Y-87373002D01*
X118587513Y-87220662D01*
X118720662Y-87087513D01*
X118873002Y-86976832D01*
X119040780Y-86891345D01*
X119219866Y-86833156D01*
X119405849Y-86803699D01*
X119594151Y-86803699D01*
X119780134Y-86833156D01*
G37*
G36*
X163780134Y-86833156D02*
G01*
X163959220Y-86891345D01*
X164126998Y-86976832D01*
X164279338Y-87087513D01*
X164412487Y-87220662D01*
X164523168Y-87373002D01*
X164608655Y-87540780D01*
X164666844Y-87719866D01*
X164696301Y-87905849D01*
X164696301Y-88094151D01*
X164666844Y-88280134D01*
X164608655Y-88459220D01*
X164523168Y-88626998D01*
X164412487Y-88779338D01*
X164279338Y-88912487D01*
X164126998Y-89023168D01*
X163959220Y-89108655D01*
X163780134Y-89166844D01*
X163594151Y-89196301D01*
X163405849Y-89196301D01*
X163219866Y-89166844D01*
X163040780Y-89108655D01*
X162873002Y-89023168D01*
X162720662Y-88912487D01*
X162587513Y-88779338D01*
X162476832Y-88626998D01*
X162391345Y-88459220D01*
X162333156Y-88280134D01*
X162303699Y-88094151D01*
X162303699Y-87905849D01*
X162333156Y-87719866D01*
X162391345Y-87540780D01*
X162476832Y-87373002D01*
X162587513Y-87220662D01*
X162720662Y-87087513D01*
X162873002Y-86976832D01*
X163040780Y-86891345D01*
X163219866Y-86833156D01*
X163405849Y-86803699D01*
X163594151Y-86803699D01*
X163780134Y-86833156D01*
G37*
M02*
