#VRML V2.0 utf8

Shape {
  appearance Appearance {
    material Material {
      diffuseColor 0.8549 0.8549 0.8549
      specularColor 0.4275 0.4275 0.4275
      ambientIntensity 0.2
      transparency 0.0000
      shininess 0.5
    }
  }
  geometry IndexedFaceSet {
    ccw TRUE
    solid FALSE
    coord DEF co Coordinate {
      point [
        -0.625984 0.200787 0.480315,
        -0.625984 0.318898 0.480315,
        -0.625984 0.200787 0.000000,
        -0.625984 0.318898 0.000000,
        -0.429134 0.200787 0.480315,
        -0.429134 0.200787 0.000000,
        -0.429134 0.318898 0.480315,
        -0.429134 0.318898 0.000000,
      ]
    }
    coordIndex [
      0, 1, 2, -1,
      2, 1, 3, -1,
      4, 0, 5, -1,
      5, 0, 2, -1,
      6, 4, 7, -1,
      7, 4, 5, -1,
      1, 6, 3, -1,
      3, 6, 7, -1,
      4, 6, 0, -1,
      0, 6, 1, -1,
      7, 5, 3, -1,
      3, 5, 2, -1,
    ]
  }
}

Shape {
  appearance Appearance {
    material Material {
      diffuseColor 0.9255 0.9255 0.9255
      specularColor 0.4627 0.4627 0.4627
      ambientIntensity 0.2
      transparency 0.0000
      shininess 0.5
    }
  }
  geometry IndexedFaceSet {
    ccw TRUE
    solid FALSE
    coord DEF co Coordinate {
      point [
        0.002547 0.031836 0.003937,
        -0.029141 0.031836 0.003937,
        -0.629921 0.314961 0.003937,
        -0.047492 -0.027452 0.003937,
        -0.040664 -0.025599 0.003937,
        -0.029141 -0.027219 0.003937,
        -0.054494 -0.021458 0.003937,
        -0.041722 0.022880 0.003937,
        -0.047316 -0.020525 0.003937,
        -0.040664 0.022293 0.003937,
        -0.040664 -0.017677 0.003937,
        0.001107 -0.027219 0.003937,
        0.008308 -0.027580 0.003937,
        0.001107 -0.020738 0.003937,
        0.002547 0.025354 0.003937,
        0.008308 0.314961 0.003937,
        -0.021219 0.005189 0.003937,
        -0.021219 0.025354 0.003937,
        -0.000334 0.005189 0.003937,
        -0.000334 -0.001293 0.003937,
        -0.021219 -0.001293 0.003937,
        -0.021219 -0.020738 0.003937,
        -0.111963 -0.027219 0.003937,
        -0.111963 0.025354 0.003937,
        -0.089637 0.025354 0.003937,
        -0.077950 -0.017281 0.003937,
        -0.072796 -0.022237 0.003937,
        -0.067276 -0.025456 0.003937,
        -0.074709 0.026761 0.003937,
        -0.079031 0.022207 0.003937,
        -0.082185 0.016650 0.003937,
        -0.084015 0.010313 0.003937,
        -0.060309 -0.020806 0.003937,
        -0.064706 -0.019217 0.003937,
        -0.068890 -0.016412 0.003937,
        -0.072440 -0.012456 0.003937,
        -0.074850 -0.007888 0.003937,
        -0.076412 -0.001494 0.003937,
        -0.076673 0.002939 0.003937,
        -0.076076 0.009327 0.003937,
        -0.074473 0.014406 0.003937,
        -0.055822 0.026074 0.003937,
        -0.069272 0.021406 0.003937,
        -0.061302 0.025463 0.003937,
        -0.065646 0.023867 0.003937,
        -0.072018 0.018508 0.003937,
        -0.047983 0.025204 0.003937,
        -0.060798 -0.027401 0.003937,
        -0.058732 -0.027580 0.003937,
        -0.119884 -0.027219 0.003937,
        -0.084595 0.003422 0.003937,
        -0.083747 -0.004962 0.003937,
        -0.081474 -0.011690 0.003937,
        -0.629921 -0.027580 0.003937,
        -0.119884 0.031836 0.003937,
        -0.056913 0.032556 0.003937,
        -0.089637 0.031836 0.003937,
        -0.064180 0.031803 0.003937,
        -0.069914 0.029837 0.003937,
        -0.040664 0.028775 0.003937,
        -0.046959 0.031360 0.003937,
        -0.055298 0.032528 0.003937,
        -0.629921 -0.314961 0.003937,
        0.008308 -0.314961 0.003937,
        -0.054561 -0.027939 0.003937,
        -0.049343 -0.027580 0.003937,
        0.096171 -0.027219 0.003937,
        0.119217 0.031836 0.003937,
        0.629921 0.314961 0.003937,
        0.050522 0.025497 0.003937,
        0.044408 0.029098 0.003937,
        0.037610 0.031165 0.003937,
        0.104599 0.015272 0.003937,
        0.080203 0.015272 0.003937,
        0.110574 0.031836 0.003937,
        0.074565 0.031836 0.003937,
        0.065923 0.031836 0.003937,
        0.030128 0.031836 0.003937,
        0.014070 0.031836 0.003937,
        0.629921 -0.027580 0.003937,
        0.088249 -0.027219 0.003937,
        0.060775 0.009468 0.003937,
        0.058661 0.015622 0.003937,
        0.055349 0.020831 0.003937,
        0.046180 -0.023881 0.003937,
        0.052030 -0.020074 0.003937,
        0.054324 -0.017948 0.003937,
        0.057865 -0.013324 0.003937,
        0.014070 -0.027219 0.003937,
        0.030735 -0.027219 0.003937,
        0.039267 -0.026307 0.003937,
        0.060352 -0.007592 0.003937,
        0.061489 -0.001353 0.003937,
        0.061602 0.001566 0.003937,
        0.629921 -0.314961 0.003937,
        0.421281 0.086847 0.476378,
        0.629921 0.314961 0.476378,
        0.048652 0.086847 0.476378,
        -0.629921 0.314961 0.476378,
        0.048652 -0.086847 0.476378,
        -0.629921 -0.314961 0.476378,
        0.421281 -0.086847 0.476378,
        0.629921 -0.314961 0.476378,
      ]
    }
    coordIndex [
      0, 1, 2, -1,
      3, 4, 5, -1,
      6, 7, 8, -1,
      8, 7, 9, -1,
      8, 9, 10, -1,
      5, 11, 12, -1,
      12, 11, 13, -1,
      13, 14, 12, -1,
      12, 14, 0, -1,
      12, 0, 15, -1,
      15, 0, 2, -1,
      16, 17, 18, -1,
      18, 17, 14, -1,
      18, 14, 19, -1,
      19, 14, 13, -1,
      19, 13, 20, -1,
      20, 13, 21, -1,
      4, 10, 5, -1,
      5, 10, 9, -1,
      5, 9, 1, -1,
      22, 23, 24, -1,
      25, 26, 22, -1,
      22, 26, 27, -1,
      28, 29, 24, -1,
      24, 29, 30, -1,
      24, 30, 31, -1,
      6, 32, 7, -1,
      7, 32, 33, -1,
      7, 33, 34, -1,
      34, 35, 7, -1,
      7, 35, 36, -1,
      7, 36, 37, -1,
      37, 38, 7, -1,
      7, 38, 39, -1,
      7, 39, 40, -1,
      41, 42, 43, -1,
      43, 42, 44, -1,
      40, 45, 7, -1,
      7, 45, 42, -1,
      7, 42, 46, -1,
      46, 42, 41, -1,
      27, 47, 22, -1,
      22, 47, 48, -1,
      22, 48, 49, -1,
      31, 50, 24, -1,
      24, 50, 51, -1,
      24, 51, 22, -1,
      22, 51, 52, -1,
      22, 52, 25, -1,
      53, 2, 54, -1,
      54, 2, 55, -1,
      54, 55, 56, -1,
      56, 55, 57, -1,
      56, 57, 24, -1,
      24, 57, 58, -1,
      24, 58, 28, -1,
      9, 59, 1, -1,
      1, 59, 60, -1,
      1, 60, 2, -1,
      2, 60, 61, -1,
      2, 61, 55, -1,
      54, 49, 53, -1,
      53, 49, 48, -1,
      53, 48, 62, -1,
      62, 48, 63, -1,
      63, 48, 64, -1,
      63, 64, 65, -1,
      66, 67, 68, -1,
      69, 70, 15, -1,
      15, 70, 71, -1,
      72, 73, 74, -1,
      74, 73, 75, -1,
      67, 74, 68, -1,
      68, 74, 75, -1,
      68, 75, 15, -1,
      15, 75, 76, -1,
      15, 76, 69, -1,
      71, 77, 15, -1,
      15, 77, 78, -1,
      15, 78, 12, -1,
      68, 79, 66, -1,
      66, 79, 12, -1,
      66, 12, 80, -1,
      81, 82, 76, -1,
      76, 82, 83, -1,
      76, 83, 69, -1,
      84, 85, 80, -1,
      80, 85, 86, -1,
      80, 86, 87, -1,
      78, 88, 12, -1,
      12, 88, 89, -1,
      12, 89, 80, -1,
      80, 89, 90, -1,
      80, 90, 84, -1,
      87, 91, 80, -1,
      80, 91, 92, -1,
      80, 92, 76, -1,
      76, 92, 93, -1,
      76, 93, 81, -1,
      3, 5, 65, -1,
      65, 5, 12, -1,
      65, 12, 63, -1,
      63, 12, 79, -1,
      63, 79, 94, -1,
      95, 96, 97, -1,
      97, 96, 98, -1,
      97, 98, 99, -1,
      99, 98, 100, -1,
      99, 100, 101, -1,
      101, 100, 102, -1,
      101, 102, 95, -1,
      95, 102, 96, -1,
      68, 96, 79, -1,
      79, 96, 102, -1,
      79, 102, 94, -1,
      2, 98, 15, -1,
      15, 98, 96, -1,
      15, 96, 68, -1,
      98, 2, 100, -1,
      100, 2, 53, -1,
      100, 53, 62, -1,
      100, 62, 102, -1,
      102, 62, 63, -1,
      102, 63, 94, -1,
    ]
  }
}

Shape {
  appearance Appearance {
    material Material {
      diffuseColor 1.0000 0.4784 0.0000
      specularColor 0.5020 0.2392 0.0000
      ambientIntensity 0.2
      transparency 0.0000
      shininess 0.5
    }
  }
  geometry IndexedFaceSet {
    ccw TRUE
    solid FALSE
    coord DEF co Coordinate {
      point [
        0.421281 0.086847 0.476378,
        0.048652 0.086847 0.476378,
        0.048652 -0.086847 0.476378,
        0.421281 -0.086847 0.476378,
      ]
    }
    coordIndex [
      0, 1, 3, -1,
      3, 1, 2, -1,
    ]
  }
}

Shape {
  appearance Appearance {
    material Material {
      diffuseColor 0.2510 0.2510 0.2510
      specularColor 0.1255 0.1255 0.1255
      ambientIntensity 0.2
      transparency 0.0000
      shininess 0.5
    }
  }
  geometry IndexedFaceSet {
    ccw TRUE
    solid FALSE
    coord DEF co Coordinate {
      point [
        0.002547 0.031836 0.003937,
        -0.029141 0.031836 0.003937,
        -0.047492 -0.027452 0.003937,
        -0.040664 -0.025599 0.003937,
        -0.029141 -0.027219 0.003937,
        -0.054494 -0.021458 0.003937,
        -0.041722 0.022880 0.003937,
        -0.047316 -0.020525 0.003937,
        -0.040664 0.022293 0.003937,
        -0.040664 -0.017677 0.003937,
        0.001107 -0.027219 0.003937,
        0.001107 -0.020738 0.003937,
        0.002547 0.025354 0.003937,
        -0.021219 0.005189 0.003937,
        -0.021219 0.025354 0.003937,
        -0.000334 0.005189 0.003937,
        -0.000334 -0.001293 0.003937,
        -0.021219 -0.001293 0.003937,
        -0.021219 -0.020738 0.003937,
        -0.111963 -0.027219 0.003937,
        -0.111963 0.025354 0.003937,
        -0.089637 0.025354 0.003937,
        -0.077950 -0.017281 0.003937,
        -0.072796 -0.022237 0.003937,
        -0.067276 -0.025456 0.003937,
        -0.074709 0.026761 0.003937,
        -0.079031 0.022207 0.003937,
        -0.082185 0.016650 0.003937,
        -0.084015 0.010313 0.003937,
        -0.060309 -0.020806 0.003937,
        -0.064706 -0.019217 0.003937,
        -0.068890 -0.016412 0.003937,
        -0.072440 -0.012456 0.003937,
        -0.074850 -0.007888 0.003937,
        -0.076412 -0.001494 0.003937,
        -0.076673 0.002939 0.003937,
        -0.076076 0.009327 0.003937,
        -0.074473 0.014406 0.003937,
        -0.055822 0.026074 0.003937,
        -0.069272 0.021406 0.003937,
        -0.061302 0.025463 0.003937,
        -0.065646 0.023867 0.003937,
        -0.072018 0.018508 0.003937,
        -0.047983 0.025204 0.003937,
        -0.060798 -0.027401 0.003937,
        -0.058732 -0.027580 0.003937,
        -0.119884 -0.027219 0.003937,
        -0.084595 0.003422 0.003937,
        -0.083747 -0.004962 0.003937,
        -0.081474 -0.011690 0.003937,
        -0.119884 0.031836 0.003937,
        -0.056913 0.032556 0.003937,
        -0.089637 0.031836 0.003937,
        -0.064180 0.031803 0.003937,
        -0.069914 0.029837 0.003937,
        -0.040664 0.028775 0.003937,
        -0.046959 0.031360 0.003937,
        -0.055298 0.032528 0.003937,
        -0.054561 -0.027939 0.003937,
        -0.049343 -0.027580 0.003937,
        0.096171 -0.027219 0.003937,
        0.119217 0.031836 0.003937,
        0.050522 0.025497 0.003937,
        0.044408 0.029098 0.003937,
        0.037610 0.031165 0.003937,
        0.104599 0.015272 0.003937,
        0.080203 0.015272 0.003937,
        0.110574 0.031836 0.003937,
        0.074565 0.031836 0.003937,
        0.065923 0.031836 0.003937,
        0.030128 0.031836 0.003937,
        0.014070 0.031836 0.003937,
        0.088249 -0.027219 0.003937,
        0.060775 0.009468 0.003937,
        0.058661 0.015622 0.003937,
        0.055349 0.020831 0.003937,
        0.046180 -0.023881 0.003937,
        0.052030 -0.020074 0.003937,
        0.054324 -0.017948 0.003937,
        0.057865 -0.013324 0.003937,
        0.014070 -0.027219 0.003937,
        0.030735 -0.027219 0.003937,
        0.039267 -0.026307 0.003937,
        0.060352 -0.007592 0.003937,
        0.061489 -0.001353 0.003937,
        0.061602 0.001566 0.003937,
        0.096171 -0.027219 0.007874,
        0.119217 0.031836 0.007874,
        0.110574 0.031836 0.007874,
        0.104599 0.015272 0.007874,
        0.080203 0.015272 0.007874,
        0.074565 0.031836 0.007874,
        0.065923 0.031836 0.007874,
        0.088249 -0.027219 0.007874,
        0.082195 0.008790 0.007874,
        0.101944 0.008790 0.007874,
        0.091006 -0.015876 0.007874,
        0.091564 -0.017927 0.007874,
        0.091951 -0.020017 0.007874,
        0.092143 -0.020017 0.007874,
        0.092528 -0.017931 0.007874,
        0.093054 -0.015876 0.007874,
        0.082195 0.008790 0.003937,
        0.101944 0.008790 0.003937,
        0.091006 -0.015876 0.003937,
        0.091564 -0.017927 0.003937,
        0.091951 -0.020017 0.003937,
        0.092143 -0.020017 0.003937,
        0.092528 -0.017931 0.003937,
        0.093054 -0.015876 0.003937,
        0.030128 0.031836 0.007874,
        0.014070 0.031836 0.007874,
        0.014070 -0.027219 0.007874,
        0.030735 -0.027219 0.007874,
        0.061602 0.001566 0.007874,
        0.061489 -0.001353 0.007874,
        0.060352 -0.007592 0.007874,
        0.057865 -0.013324 0.007874,
        0.054324 -0.017948 0.007874,
        0.052030 -0.020074 0.007874,
        0.046180 -0.023881 0.007874,
        0.039267 -0.026307 0.007874,
        0.037610 0.031165 0.007874,
        0.044408 0.029098 0.007874,
        0.050522 0.025497 0.007874,
        0.055349 0.020831 0.007874,
        0.058661 0.015622 0.007874,
        0.060775 0.009468 0.007874,
        0.053680 0.001734 0.007874,
        0.053178 -0.004144 0.007874,
        0.051798 -0.008809 0.007874,
        0.049776 -0.012435 0.007874,
        0.046910 -0.015486 0.007874,
        0.042608 -0.018268 0.007874,
        0.037732 -0.019985 0.007874,
        0.030702 -0.020738 0.007874,
        0.021992 -0.020738 0.007874,
        0.021992 0.025354 0.007874,
        0.030375 0.025354 0.007874,
        0.036614 0.024773 0.007874,
        0.041583 0.023224 0.007874,
        0.045575 0.020852 0.007874,
        0.048912 0.017567 0.007874,
        0.051385 0.013534 0.007874,
        0.052951 0.008838 0.007874,
        0.030702 -0.020738 0.003937,
        0.021992 -0.020738 0.003937,
        0.037732 -0.019985 0.003937,
        0.042608 -0.018268 0.003937,
        0.046910 -0.015486 0.003937,
        0.049776 -0.012435 0.003937,
        0.051798 -0.008809 0.003937,
        0.053178 -0.004144 0.003937,
        0.053680 0.001734 0.003937,
        0.052951 0.008838 0.003937,
        0.051385 0.013534 0.003937,
        0.048912 0.017567 0.003937,
        0.045575 0.020852 0.003937,
        0.041583 0.023224 0.003937,
        0.036614 0.024773 0.003937,
        0.030375 0.025354 0.003937,
        0.021992 0.025354 0.003937,
        0.002547 0.025354 0.007874,
        0.002547 0.031836 0.007874,
        -0.029141 0.031836 0.007874,
        -0.029141 -0.027219 0.007874,
        0.001107 -0.027219 0.007874,
        0.001107 -0.020738 0.007874,
        -0.021219 -0.020738 0.007874,
        -0.021219 -0.001293 0.007874,
        -0.000334 -0.001293 0.007874,
        -0.000334 0.005189 0.007874,
        -0.021219 0.005189 0.007874,
        -0.021219 0.025354 0.007874,
        -0.040664 0.022293 0.007874,
        -0.040664 0.028775 0.007874,
        -0.056913 0.032556 0.007874,
        -0.055298 0.032528 0.007874,
        -0.046959 0.031360 0.007874,
        -0.084595 0.003422 0.007874,
        -0.084015 0.010313 0.007874,
        -0.082185 0.016650 0.007874,
        -0.079031 0.022207 0.007874,
        -0.074709 0.026761 0.007874,
        -0.069914 0.029837 0.007874,
        -0.064180 0.031803 0.007874,
        -0.054561 -0.027939 0.007874,
        -0.060798 -0.027401 0.007874,
        -0.067276 -0.025456 0.007874,
        -0.072796 -0.022237 0.007874,
        -0.077950 -0.017281 0.007874,
        -0.081474 -0.011690 0.007874,
        -0.083747 -0.004962 0.007874,
        -0.047492 -0.027452 0.007874,
        -0.040664 -0.025599 0.007874,
        -0.040664 -0.017677 0.007874,
        -0.054494 -0.021458 0.007874,
        -0.047316 -0.020525 0.007874,
        -0.076673 0.002939 0.007874,
        -0.076412 -0.001494 0.007874,
        -0.074850 -0.007888 0.007874,
        -0.072440 -0.012456 0.007874,
        -0.068890 -0.016412 0.007874,
        -0.064706 -0.019217 0.007874,
        -0.060309 -0.020806 0.007874,
        -0.055822 0.026074 0.007874,
        -0.061302 0.025463 0.007874,
        -0.065646 0.023867 0.007874,
        -0.069272 0.021406 0.007874,
        -0.072018 0.018508 0.007874,
        -0.074473 0.014406 0.007874,
        -0.076076 0.009327 0.007874,
        -0.041722 0.022880 0.007874,
        -0.047983 0.025204 0.007874,
        -0.089637 0.025354 0.007874,
        -0.089637 0.031836 0.007874,
        -0.119884 0.031836 0.007874,
        -0.119884 -0.027219 0.007874,
        -0.111963 -0.027219 0.007874,
        -0.111963 0.025354 0.007874,
      ]
    }
    coordIndex [
      86, 87, 60, -1,
      60, 87, 61, -1,
      87, 88, 61, -1,
      61, 88, 67, -1,
      88, 89, 67, -1,
      67, 89, 65, -1,
      89, 90, 65, -1,
      65, 90, 66, -1,
      90, 91, 66, -1,
      66, 91, 68, -1,
      91, 92, 68, -1,
      68, 92, 69, -1,
      92, 93, 69, -1,
      69, 93, 72, -1,
      93, 86, 72, -1,
      72, 86, 60, -1,
      94, 90, 95, -1,
      95, 90, 89, -1,
      96, 93, 94, -1,
      94, 93, 92, -1,
      94, 92, 90, -1,
      90, 92, 91, -1,
      96, 97, 93, -1,
      93, 97, 98, -1,
      93, 98, 86, -1,
      86, 98, 99, -1,
      86, 99, 100, -1,
      100, 101, 86, -1,
      86, 101, 95, -1,
      86, 95, 87, -1,
      87, 95, 89, -1,
      87, 89, 88, -1,
      94, 95, 102, -1,
      102, 95, 103, -1,
      96, 94, 104, -1,
      104, 94, 102, -1,
      96, 104, 105, -1,
      96, 105, 97, -1,
      97, 105, 106, -1,
      97, 106, 98, -1,
      99, 98, 107, -1,
      107, 98, 106, -1,
      99, 107, 108, -1,
      99, 108, 100, -1,
      100, 108, 109, -1,
      100, 109, 101, -1,
      95, 101, 103, -1,
      103, 101, 109, -1,
      110, 111, 70, -1,
      70, 111, 71, -1,
      111, 112, 71, -1,
      71, 112, 80, -1,
      112, 113, 80, -1,
      80, 113, 81, -1,
      114, 85, 84, -1,
      114, 84, 115, -1,
      115, 84, 83, -1,
      115, 83, 116, -1,
      116, 83, 79, -1,
      116, 79, 117, -1,
      117, 79, 78, -1,
      117, 78, 118, -1,
      118, 78, 77, -1,
      118, 77, 119, -1,
      119, 77, 76, -1,
      119, 76, 120, -1,
      120, 76, 82, -1,
      120, 82, 121, -1,
      121, 82, 81, -1,
      121, 81, 113, -1,
      110, 70, 64, -1,
      110, 64, 122, -1,
      122, 64, 63, -1,
      122, 63, 123, -1,
      123, 63, 62, -1,
      123, 62, 124, -1,
      124, 62, 75, -1,
      124, 75, 125, -1,
      125, 75, 74, -1,
      125, 74, 126, -1,
      126, 74, 73, -1,
      126, 73, 127, -1,
      127, 73, 85, -1,
      127, 85, 114, -1,
      127, 114, 128, -1,
      128, 114, 115, -1,
      128, 115, 129, -1,
      129, 115, 116, -1,
      129, 116, 130, -1,
      130, 116, 117, -1,
      130, 117, 131, -1,
      131, 117, 118, -1,
      131, 118, 132, -1,
      132, 118, 119, -1,
      132, 119, 133, -1,
      133, 119, 120, -1,
      133, 120, 134, -1,
      134, 120, 121, -1,
      134, 121, 135, -1,
      135, 121, 113, -1,
      135, 113, 136, -1,
      136, 113, 112, -1,
      136, 112, 137, -1,
      137, 112, 111, -1,
      137, 111, 138, -1,
      138, 111, 110, -1,
      138, 110, 139, -1,
      139, 110, 122, -1,
      139, 122, 140, -1,
      140, 122, 123, -1,
      140, 123, 141, -1,
      141, 123, 124, -1,
      141, 124, 142, -1,
      142, 124, 125, -1,
      142, 125, 143, -1,
      143, 125, 126, -1,
      143, 126, 144, -1,
      144, 126, 127, -1,
      144, 127, 128, -1,
      135, 136, 145, -1,
      145, 136, 146, -1,
      135, 145, 147, -1,
      135, 147, 134, -1,
      134, 147, 148, -1,
      134, 148, 133, -1,
      133, 148, 149, -1,
      133, 149, 132, -1,
      132, 149, 150, -1,
      132, 150, 131, -1,
      131, 150, 151, -1,
      131, 151, 130, -1,
      130, 151, 152, -1,
      130, 152, 129, -1,
      129, 152, 153, -1,
      129, 153, 128, -1,
      128, 153, 154, -1,
      128, 154, 144, -1,
      144, 154, 155, -1,
      144, 155, 143, -1,
      143, 155, 156, -1,
      143, 156, 142, -1,
      142, 156, 157, -1,
      142, 157, 141, -1,
      141, 157, 158, -1,
      141, 158, 140, -1,
      140, 158, 159, -1,
      140, 159, 139, -1,
      139, 159, 160, -1,
      139, 160, 138, -1,
      137, 138, 161, -1,
      161, 138, 160, -1,
      136, 137, 146, -1,
      146, 137, 161, -1,
      162, 163, 12, -1,
      12, 163, 0, -1,
      163, 164, 0, -1,
      0, 164, 1, -1,
      164, 165, 1, -1,
      1, 165, 4, -1,
      165, 166, 4, -1,
      4, 166, 10, -1,
      166, 167, 10, -1,
      10, 167, 11, -1,
      167, 168, 11, -1,
      11, 168, 18, -1,
      168, 169, 18, -1,
      18, 169, 17, -1,
      169, 170, 17, -1,
      17, 170, 16, -1,
      170, 171, 16, -1,
      16, 171, 15, -1,
      171, 172, 15, -1,
      15, 172, 13, -1,
      172, 173, 13, -1,
      13, 173, 14, -1,
      173, 162, 14, -1,
      14, 162, 12, -1,
      164, 163, 162, -1,
      162, 173, 164, -1,
      164, 173, 172, -1,
      164, 172, 165, -1,
      167, 166, 168, -1,
      168, 166, 165, -1,
      168, 165, 169, -1,
      169, 165, 172, -1,
      169, 172, 170, -1,
      170, 172, 171, -1,
      174, 175, 8, -1,
      8, 175, 55, -1,
      176, 51, 57, -1,
      176, 57, 177, -1,
      177, 57, 56, -1,
      177, 56, 178, -1,
      178, 56, 55, -1,
      178, 55, 175, -1,
      179, 47, 28, -1,
      179, 28, 180, -1,
      180, 28, 27, -1,
      180, 27, 181, -1,
      181, 27, 26, -1,
      181, 26, 182, -1,
      182, 26, 25, -1,
      182, 25, 183, -1,
      183, 25, 54, -1,
      183, 54, 184, -1,
      184, 54, 53, -1,
      184, 53, 185, -1,
      185, 53, 51, -1,
      185, 51, 176, -1,
      58, 45, 186, -1,
      186, 45, 187, -1,
      45, 44, 187, -1,
      187, 44, 24, -1,
      187, 24, 188, -1,
      188, 24, 23, -1,
      188, 23, 189, -1,
      189, 23, 22, -1,
      189, 22, 190, -1,
      190, 22, 49, -1,
      190, 49, 191, -1,
      191, 49, 48, -1,
      191, 48, 192, -1,
      192, 48, 47, -1,
      192, 47, 179, -1,
      58, 186, 59, -1,
      59, 186, 193, -1,
      59, 193, 2, -1,
      2, 193, 194, -1,
      2, 194, 3, -1,
      194, 195, 3, -1,
      3, 195, 9, -1,
      196, 5, 7, -1,
      196, 7, 197, -1,
      197, 7, 9, -1,
      197, 9, 195, -1,
      198, 35, 34, -1,
      198, 34, 199, -1,
      199, 34, 33, -1,
      199, 33, 200, -1,
      200, 33, 32, -1,
      200, 32, 201, -1,
      201, 32, 31, -1,
      201, 31, 202, -1,
      202, 31, 30, -1,
      202, 30, 203, -1,
      203, 30, 29, -1,
      203, 29, 204, -1,
      204, 29, 5, -1,
      204, 5, 196, -1,
      205, 38, 40, -1,
      205, 40, 206, -1,
      206, 40, 41, -1,
      206, 41, 207, -1,
      207, 41, 39, -1,
      207, 39, 208, -1,
      208, 39, 42, -1,
      208, 42, 209, -1,
      209, 42, 37, -1,
      209, 37, 210, -1,
      210, 37, 36, -1,
      210, 36, 211, -1,
      211, 36, 35, -1,
      211, 35, 198, -1,
      174, 8, 6, -1,
      174, 6, 212, -1,
      212, 6, 43, -1,
      212, 43, 213, -1,
      213, 43, 38, -1,
      213, 38, 205, -1,
      206, 176, 205, -1,
      205, 176, 177, -1,
      205, 177, 213, -1,
      213, 177, 178, -1,
      213, 178, 212, -1,
      212, 178, 175, -1,
      212, 175, 174, -1,
      195, 194, 197, -1,
      197, 194, 193, -1,
      197, 193, 196, -1,
      196, 193, 186, -1,
      196, 186, 204, -1,
      204, 186, 187, -1,
      204, 187, 203, -1,
      203, 187, 188, -1,
      203, 188, 202, -1,
      202, 188, 189, -1,
      202, 189, 201, -1,
      201, 189, 190, -1,
      201, 190, 200, -1,
      200, 190, 191, -1,
      200, 191, 199, -1,
      199, 191, 192, -1,
      199, 192, 198, -1,
      198, 192, 179, -1,
      198, 179, 211, -1,
      211, 179, 180, -1,
      211, 180, 210, -1,
      210, 180, 181, -1,
      210, 181, 209, -1,
      209, 181, 182, -1,
      209, 182, 208, -1,
      208, 182, 183, -1,
      208, 183, 207, -1,
      207, 183, 184, -1,
      207, 184, 206, -1,
      206, 184, 185, -1,
      206, 185, 176, -1,
      214, 215, 21, -1,
      21, 215, 52, -1,
      215, 216, 52, -1,
      52, 216, 50, -1,
      216, 217, 50, -1,
      50, 217, 46, -1,
      217, 218, 46, -1,
      46, 218, 19, -1,
      218, 219, 19, -1,
      19, 219, 20, -1,
      219, 214, 20, -1,
      20, 214, 21, -1,
      218, 217, 219, -1,
      219, 217, 216, -1,
      219, 216, 214, -1,
      214, 216, 215, -1,
    ]
  }
}

Shape {
  appearance Appearance {
    material Material {
      diffuseColor 0.9255 0.9255 0.9255
      specularColor 0.4627 0.4627 0.4627
      ambientIntensity 0.2
      transparency 0.0000
      shininess 0.5
    }
  }
  geometry IndexedFaceSet {
    ccw TRUE
    solid FALSE
    coord DEF co Coordinate {
      point [
        0.082195 0.008790 0.003937,
        0.101944 0.008790 0.003937,
        0.091006 -0.015876 0.003937,
        0.091564 -0.017927 0.003937,
        0.091951 -0.020017 0.003937,
        0.092143 -0.020017 0.003937,
        0.092528 -0.017931 0.003937,
        0.093054 -0.015876 0.003937,
        0.030702 -0.020738 0.003937,
        0.021992 -0.020738 0.003937,
        0.037732 -0.019985 0.003937,
        0.042608 -0.018268 0.003937,
        0.046910 -0.015486 0.003937,
        0.049776 -0.012435 0.003937,
        0.051798 -0.008809 0.003937,
        0.053178 -0.004144 0.003937,
        0.053680 0.001734 0.003937,
        0.052951 0.008838 0.003937,
        0.051385 0.013534 0.003937,
        0.048912 0.017567 0.003937,
        0.045575 0.020852 0.003937,
        0.041583 0.023224 0.003937,
        0.036614 0.024773 0.003937,
        0.030375 0.025354 0.003937,
        0.021992 0.025354 0.003937,
      ]
    }
    coordIndex [
      0, 1, 2, -1,
      2, 1, 7, -1,
      2, 7, 3, -1,
      3, 7, 6, -1,
      3, 6, 4, -1,
      4, 6, 5, -1,
      9, 24, 8, -1,
      8, 24, 23, -1,
      17, 16, 8, -1,
      16, 15, 8, -1,
      8, 15, 14, -1,
      8, 14, 10, -1,
      23, 22, 8, -1,
      8, 22, 21, -1,
      8, 21, 20, -1,
      13, 12, 14, -1,
      14, 12, 11, -1,
      14, 11, 10, -1,
      20, 19, 8, -1,
      8, 19, 18, -1,
      8, 18, 17, -1,
    ]
  }
}

Shape {
  appearance Appearance {
    material Material {
      diffuseColor 0.8549 0.8549 0.8549
      specularColor 0.4275 0.4275 0.4275
      ambientIntensity 0.2
      transparency 0.0000
      shininess 0.5
    }
  }
  geometry IndexedFaceSet {
    ccw TRUE
    solid FALSE
    coord DEF co Coordinate {
      point [
        0.429134 0.318898 0.480315,
        0.625984 0.318898 0.480315,
        0.429134 0.318898 0.000000,
        0.625984 0.318898 0.000000,
        0.429134 0.200787 0.480315,
        0.429134 0.200787 0.000000,
        0.625984 0.200787 0.480315,
        0.625984 0.200787 0.000000,
        0.625984 -0.200787 0.480315,
        0.625984 -0.318898 0.480315,
        0.625984 -0.200787 0.000000,
        0.625984 -0.318898 0.000000,
        0.429134 -0.200787 0.480315,
        0.429134 -0.200787 0.000000,
        0.429134 -0.318898 0.480315,
        0.429134 -0.318898 0.000000,
        -0.429134 -0.318898 0.480315,
        -0.625984 -0.318898 0.480315,
        -0.429134 -0.318898 0.000000,
        -0.625984 -0.318898 0.000000,
        -0.429134 -0.200787 0.480315,
        -0.429134 -0.200787 0.000000,
        -0.625984 -0.200787 0.480315,
        -0.625984 -0.200787 0.000000,
      ]
    }
    coordIndex [
      0, 1, 2, -1,
      2, 1, 3, -1,
      4, 0, 5, -1,
      5, 0, 2, -1,
      6, 4, 7, -1,
      7, 4, 5, -1,
      1, 6, 3, -1,
      3, 6, 7, -1,
      4, 6, 0, -1,
      0, 6, 1, -1,
      7, 5, 3, -1,
      3, 5, 2, -1,
      8, 9, 10, -1,
      10, 9, 11, -1,
      12, 8, 13, -1,
      13, 8, 10, -1,
      14, 12, 15, -1,
      15, 12, 13, -1,
      9, 14, 11, -1,
      11, 14, 15, -1,
      12, 14, 8, -1,
      8, 14, 9, -1,
      15, 13, 11, -1,
      11, 13, 10, -1,
      16, 17, 18, -1,
      18, 17, 19, -1,
      20, 16, 21, -1,
      21, 16, 18, -1,
      22, 20, 23, -1,
      23, 20, 21, -1,
      17, 22, 19, -1,
      19, 22, 23, -1,
      20, 22, 16, -1,
      16, 22, 17, -1,
      23, 21, 19, -1,
      19, 21, 18, -1,
    ]
  }
}
