#VRML V2.0 utf8

Shape {
  appearance Appearance {
    material Material {
      diffuseColor 0.9020 0.7843 0.6863
      specularColor 0.4510 0.3922 0.3412
      ambientIntensity 0.2
      transparency 0.0000
      shininess 0.5
    }
  }
  geometry IndexedFaceSet {
    ccw TRUE
    solid FALSE
    coord DEF co Coordinate {
      point [
        0.232283 0.311024 0.007874,
        0.232283 0.311024 0.000000,
        0.232283 0.232283 0.007874,
        0.232283 0.232283 0.000000,
        0.389764 0.074803 0.000000,
        0.389764 0.074803 0.007874,
        0.297244 0.074803 0.000000,
        0.297244 0.074803 0.007874,
        0.257874 0.232283 0.007874,
        0.264711 0.231685 0.007874,
        0.354528 0.311024 0.007874,
        0.271339 0.229909 0.007874,
        0.297244 0.192913 0.007874,
        0.389764 0.275788 0.007874,
        0.296646 0.199750 0.007874,
        0.383144 0.277032 0.007874,
        0.291970 0.212598 0.007874,
        0.294870 0.206379 0.007874,
        0.277559 0.227009 0.007874,
        0.283181 0.223072 0.007874,
        0.355772 0.304404 0.007874,
        0.358128 0.298092 0.007874,
        0.376832 0.279387 0.007874,
        0.371015 0.282783 0.007874,
        0.288033 0.218220 0.007874,
        0.365862 0.287122 0.007874,
        0.361524 0.292275 0.007874,
        0.257874 0.232283 0.000000,
        0.389764 0.275788 0.000000,
        0.297244 0.192913 0.000000,
        0.296646 0.199750 0.000000,
        0.294870 0.206379 0.000000,
        0.291970 0.212598 0.000000,
        0.383144 0.277032 0.000000,
        0.376832 0.279387 0.000000,
        0.354528 0.311024 0.000000,
        0.271339 0.229909 0.000000,
        0.264711 0.231685 0.000000,
        0.355772 0.304404 0.000000,
        0.283181 0.223072 0.000000,
        0.277559 0.227009 0.000000,
        0.358128 0.298092 0.000000,
        0.361524 0.292275 0.000000,
        0.288033 0.218220 0.000000,
        0.365862 0.287122 0.000000,
        0.371015 0.282783 0.000000,
      ]
    }
    coordIndex [
      0, 1, 2, -1,
      2, 1, 3, -1,
      4, 5, 6, -1,
      6, 5, 7, -1,
      2, 8, 0, -1,
      0, 8, 9, -1,
      0, 9, 10, -1,
      10, 9, 11, -1,
      7, 5, 12, -1,
      12, 5, 13, -1,
      12, 13, 14, -1,
      15, 16, 13, -1,
      13, 16, 17, -1,
      13, 17, 14, -1,
      11, 18, 10, -1,
      10, 18, 19, -1,
      10, 19, 20, -1,
      20, 19, 21, -1,
      15, 22, 16, -1,
      16, 22, 23, -1,
      16, 23, 24, -1,
      24, 23, 25, -1,
      24, 25, 19, -1,
      19, 25, 26, -1,
      19, 26, 21, -1,
      27, 3, 1, -1,
      4, 6, 28, -1,
      28, 6, 29, -1,
      28, 29, 30, -1,
      30, 31, 28, -1,
      28, 31, 32, -1,
      28, 32, 33, -1,
      33, 32, 34, -1,
      35, 36, 1, -1,
      1, 36, 37, -1,
      1, 37, 27, -1,
      38, 39, 35, -1,
      35, 39, 40, -1,
      35, 40, 36, -1,
      38, 41, 39, -1,
      39, 41, 42, -1,
      39, 42, 43, -1,
      43, 42, 44, -1,
      43, 44, 32, -1,
      32, 44, 45, -1,
      32, 45, 34, -1,
      5, 4, 13, -1,
      13, 4, 28, -1,
      1, 0, 35, -1,
      35, 0, 10, -1,
      13, 28, 15, -1,
      15, 28, 33, -1,
      15, 33, 22, -1,
      22, 33, 34, -1,
      22, 34, 23, -1,
      23, 34, 45, -1,
      23, 45, 25, -1,
      25, 45, 44, -1,
      25, 44, 26, -1,
      26, 44, 42, -1,
      26, 42, 21, -1,
      21, 42, 41, -1,
      21, 41, 20, -1,
      20, 41, 38, -1,
      20, 38, 10, -1,
      10, 38, 35, -1,
    ]
  }
}

Shape {
  appearance Appearance {
    material Material {
      diffuseColor 0.5098 0.5098 0.6275
      specularColor 0.2549 0.2549 0.3137
      ambientIntensity 0.2
      transparency 0.0000
      shininess 0.5
    }
  }
  geometry IndexedFaceSet {
    ccw TRUE
    solid FALSE
    coord DEF co Coordinate {
      point [
        0.232283 0.232283 0.007874,
        0.232283 0.232283 0.000000,
        0.297244 0.074803 0.000000,
        0.297244 0.074803 0.007874,
        0.257874 0.232283 0.007874,
        0.297244 0.192913 0.007874,
        0.257874 0.232283 0.000000,
        0.297244 0.192913 0.000000,
      ]
    }
    coordIndex [
      7, 2, 5, -1,
      5, 2, 3, -1,
      4, 0, 6, -1,
      6, 0, 1, -1,
    ]
  }
}

Shape {
  appearance Appearance {
    material Material {
      diffuseColor 0.9020 0.7843 0.6863
      specularColor 0.4510 0.3922 0.3412
      ambientIntensity 0.2
      transparency 0.0000
      shininess 0.5
    }
  }
  geometry IndexedFaceSet {
    ccw TRUE
    solid FALSE
    coord DEF co Coordinate {
      point [
        0.257874 0.232283 0.007874,
        0.264711 0.231685 0.007874,
        0.271339 0.229909 0.007874,
        0.297244 0.192913 0.007874,
        0.296646 0.199750 0.007874,
        0.291970 0.212598 0.007874,
        0.294870 0.206379 0.007874,
        0.277559 0.227009 0.007874,
        0.283181 0.223072 0.007874,
        0.288033 0.218220 0.007874,
        0.257874 0.232283 0.000000,
        0.297244 0.192913 0.000000,
        0.296646 0.199750 0.000000,
        0.294870 0.206379 0.000000,
        0.291970 0.212598 0.000000,
        0.271339 0.229909 0.000000,
        0.264711 0.231685 0.000000,
        0.283181 0.223072 0.000000,
        0.277559 0.227009 0.000000,
        0.288033 0.218220 0.000000,
        0.389764 -0.074803 0.007874,
        0.389764 -0.074803 0.000000,
        0.297244 -0.074803 0.007874,
        0.297244 -0.074803 0.000000,
        0.232283 -0.311024 0.000000,
        0.232283 -0.311024 0.007874,
        0.232283 -0.232283 0.000000,
        0.232283 -0.232283 0.007874,
        0.257874 -0.232283 0.007874,
        0.389764 -0.275788 0.007874,
        0.297244 -0.192913 0.007874,
        0.296646 -0.199750 0.007874,
        0.294870 -0.206379 0.007874,
        0.291970 -0.212598 0.007874,
        0.383144 -0.277032 0.007874,
        0.376832 -0.279387 0.007874,
        0.283181 -0.223072 0.007874,
        0.354528 -0.311024 0.007874,
        0.355772 -0.304404 0.007874,
        0.277559 -0.227009 0.007874,
        0.271339 -0.229909 0.007874,
        0.264711 -0.231685 0.007874,
        0.358128 -0.298092 0.007874,
        0.361524 -0.292275 0.007874,
        0.288033 -0.218220 0.007874,
        0.365862 -0.287122 0.007874,
        0.371015 -0.282783 0.007874,
        0.271339 -0.229909 0.000000,
        0.354528 -0.311024 0.000000,
        0.264711 -0.231685 0.000000,
        0.257874 -0.232283 0.000000,
        0.297244 -0.192913 0.000000,
        0.389764 -0.275788 0.000000,
        0.296646 -0.199750 0.000000,
        0.277559 -0.227009 0.000000,
        0.283181 -0.223072 0.000000,
        0.355772 -0.304404 0.000000,
        0.358128 -0.298092 0.000000,
        0.383144 -0.277032 0.000000,
        0.291970 -0.212598 0.000000,
        0.294870 -0.206379 0.000000,
        0.376832 -0.279387 0.000000,
        0.371015 -0.282783 0.000000,
        0.288033 -0.218220 0.000000,
        0.365862 -0.287122 0.000000,
        0.361524 -0.292275 0.000000,
      ]
    }
    coordIndex [
      11, 3, 12, -1,
      12, 3, 4, -1,
      12, 4, 13, -1,
      13, 4, 6, -1,
      13, 6, 14, -1,
      14, 6, 5, -1,
      14, 5, 19, -1,
      19, 5, 9, -1,
      19, 9, 17, -1,
      17, 9, 8, -1,
      17, 8, 18, -1,
      18, 8, 7, -1,
      18, 7, 15, -1,
      15, 7, 2, -1,
      15, 2, 16, -1,
      16, 2, 1, -1,
      16, 1, 10, -1,
      10, 1, 0, -1,
      20, 21, 22, -1,
      22, 21, 23, -1,
      24, 25, 26, -1,
      26, 25, 27, -1,
      28, 27, 25, -1,
      20, 22, 29, -1,
      29, 22, 30, -1,
      29, 30, 31, -1,
      31, 32, 29, -1,
      29, 32, 33, -1,
      29, 33, 34, -1,
      34, 33, 35, -1,
      36, 37, 38, -1,
      36, 39, 37, -1,
      37, 39, 40, -1,
      37, 40, 25, -1,
      25, 40, 41, -1,
      25, 41, 28, -1,
      38, 42, 36, -1,
      36, 42, 43, -1,
      36, 43, 44, -1,
      44, 43, 45, -1,
      44, 45, 33, -1,
      33, 45, 46, -1,
      33, 46, 35, -1,
      47, 48, 49, -1,
      49, 48, 24, -1,
      49, 24, 50, -1,
      50, 24, 26, -1,
      23, 21, 51, -1,
      51, 21, 52, -1,
      51, 52, 53, -1,
      47, 54, 48, -1,
      48, 54, 55, -1,
      48, 55, 56, -1,
      56, 55, 57, -1,
      58, 59, 52, -1,
      52, 59, 60, -1,
      52, 60, 53, -1,
      58, 61, 59, -1,
      59, 61, 62, -1,
      59, 62, 63, -1,
      63, 62, 64, -1,
      63, 64, 55, -1,
      55, 64, 65, -1,
      55, 65, 57, -1,
      21, 20, 52, -1,
      52, 20, 29, -1,
      25, 24, 37, -1,
      37, 24, 48, -1,
      37, 48, 38, -1,
      38, 48, 56, -1,
      38, 56, 42, -1,
      42, 56, 57, -1,
      42, 57, 43, -1,
      43, 57, 65, -1,
      43, 65, 45, -1,
      45, 65, 64, -1,
      45, 64, 46, -1,
      46, 64, 62, -1,
      46, 62, 35, -1,
      35, 62, 61, -1,
      35, 61, 34, -1,
      34, 61, 58, -1,
      34, 58, 29, -1,
      29, 58, 52, -1,
    ]
  }
}

Shape {
  appearance Appearance {
    material Material {
      diffuseColor 0.5098 0.5098 0.6275
      specularColor 0.2549 0.2549 0.3137
      ambientIntensity 0.2
      transparency 0.0000
      shininess 0.5
    }
  }
  geometry IndexedFaceSet {
    ccw TRUE
    solid FALSE
    coord DEF co Coordinate {
      point [
        0.297244 -0.074803 0.007874,
        0.297244 -0.074803 0.000000,
        0.232283 -0.232283 0.000000,
        0.232283 -0.232283 0.007874,
        0.257874 -0.232283 0.007874,
        0.297244 -0.192913 0.007874,
        0.257874 -0.232283 0.000000,
        0.297244 -0.192913 0.000000,
      ]
    }
    coordIndex [
      6, 2, 4, -1,
      4, 2, 3, -1,
      5, 0, 7, -1,
      7, 0, 1, -1,
    ]
  }
}

Shape {
  appearance Appearance {
    material Material {
      diffuseColor 0.9020 0.7843 0.6863
      specularColor 0.4510 0.3922 0.3412
      ambientIntensity 0.2
      transparency 0.0000
      shininess 0.5
    }
  }
  geometry IndexedFaceSet {
    ccw TRUE
    solid FALSE
    coord DEF co Coordinate {
      point [
        0.257874 -0.232283 0.007874,
        0.297244 -0.192913 0.007874,
        0.296646 -0.199750 0.007874,
        0.294870 -0.206379 0.007874,
        0.291970 -0.212598 0.007874,
        0.283181 -0.223072 0.007874,
        0.277559 -0.227009 0.007874,
        0.271339 -0.229909 0.007874,
        0.264711 -0.231685 0.007874,
        0.288033 -0.218220 0.007874,
        0.271339 -0.229909 0.000000,
        0.264711 -0.231685 0.000000,
        0.257874 -0.232283 0.000000,
        0.297244 -0.192913 0.000000,
        0.296646 -0.199750 0.000000,
        0.277559 -0.227009 0.000000,
        0.283181 -0.223072 0.000000,
        0.291970 -0.212598 0.000000,
        0.294870 -0.206379 0.000000,
        0.288033 -0.218220 0.000000,
        -0.232283 -0.311024 0.007874,
        -0.232283 -0.311024 0.000000,
        -0.232283 -0.232283 0.007874,
        -0.232283 -0.232283 0.000000,
        -0.389764 -0.074803 0.000000,
        -0.389764 -0.074803 0.007874,
        -0.297244 -0.074803 0.000000,
        -0.297244 -0.074803 0.007874,
        -0.257874 -0.232283 0.007874,
        -0.264711 -0.231685 0.007874,
        -0.354528 -0.311024 0.007874,
        -0.271339 -0.229909 0.007874,
        -0.297244 -0.192913 0.007874,
        -0.389764 -0.275788 0.007874,
        -0.296646 -0.199750 0.007874,
        -0.277559 -0.227009 0.007874,
        -0.283181 -0.223072 0.007874,
        -0.355772 -0.304404 0.007874,
        -0.358128 -0.298092 0.007874,
        -0.383144 -0.277032 0.007874,
        -0.291970 -0.212598 0.007874,
        -0.294870 -0.206379 0.007874,
        -0.376832 -0.279387 0.007874,
        -0.371015 -0.282783 0.007874,
        -0.288033 -0.218220 0.007874,
        -0.365862 -0.287122 0.007874,
        -0.361524 -0.292275 0.007874,
        -0.257874 -0.232283 0.000000,
        -0.354528 -0.311024 0.000000,
        -0.271339 -0.229909 0.000000,
        -0.264711 -0.231685 0.000000,
        -0.389764 -0.275788 0.000000,
        -0.297244 -0.192913 0.000000,
        -0.296646 -0.199750 0.000000,
        -0.294870 -0.206379 0.000000,
        -0.291970 -0.212598 0.000000,
        -0.383144 -0.277032 0.000000,
        -0.376832 -0.279387 0.000000,
        -0.355772 -0.304404 0.000000,
        -0.283181 -0.223072 0.000000,
        -0.277559 -0.227009 0.000000,
        -0.358128 -0.298092 0.000000,
        -0.361524 -0.292275 0.000000,
        -0.288033 -0.218220 0.000000,
        -0.365862 -0.287122 0.000000,
        -0.371015 -0.282783 0.000000,
      ]
    }
    coordIndex [
      12, 0, 11, -1,
      11, 0, 8, -1,
      11, 8, 10, -1,
      10, 8, 7, -1,
      10, 7, 15, -1,
      15, 7, 6, -1,
      15, 6, 16, -1,
      16, 6, 5, -1,
      16, 5, 19, -1,
      19, 5, 9, -1,
      19, 9, 17, -1,
      17, 9, 4, -1,
      17, 4, 18, -1,
      18, 4, 3, -1,
      18, 3, 14, -1,
      14, 3, 2, -1,
      14, 2, 13, -1,
      13, 2, 1, -1,
      20, 21, 22, -1,
      22, 21, 23, -1,
      24, 25, 26, -1,
      26, 25, 27, -1,
      22, 28, 20, -1,
      20, 28, 29, -1,
      20, 29, 30, -1,
      30, 29, 31, -1,
      27, 25, 32, -1,
      32, 25, 33, -1,
      32, 33, 34, -1,
      31, 35, 30, -1,
      30, 35, 36, -1,
      30, 36, 37, -1,
      37, 36, 38, -1,
      39, 40, 33, -1,
      33, 40, 41, -1,
      33, 41, 34, -1,
      39, 42, 40, -1,
      40, 42, 43, -1,
      40, 43, 44, -1,
      44, 43, 45, -1,
      44, 45, 36, -1,
      36, 45, 46, -1,
      36, 46, 38, -1,
      47, 23, 21, -1,
      48, 49, 21, -1,
      21, 49, 50, -1,
      21, 50, 47, -1,
      24, 26, 51, -1,
      51, 26, 52, -1,
      51, 52, 53, -1,
      53, 54, 51, -1,
      51, 54, 55, -1,
      51, 55, 56, -1,
      56, 55, 57, -1,
      58, 59, 48, -1,
      48, 59, 60, -1,
      48, 60, 49, -1,
      58, 61, 59, -1,
      59, 61, 62, -1,
      59, 62, 63, -1,
      63, 62, 64, -1,
      63, 64, 55, -1,
      55, 64, 65, -1,
      55, 65, 57, -1,
      25, 24, 33, -1,
      33, 24, 51, -1,
      21, 20, 48, -1,
      48, 20, 30, -1,
      33, 51, 39, -1,
      39, 51, 56, -1,
      39, 56, 42, -1,
      42, 56, 57, -1,
      42, 57, 43, -1,
      43, 57, 65, -1,
      43, 65, 45, -1,
      45, 65, 64, -1,
      45, 64, 46, -1,
      46, 64, 62, -1,
      46, 62, 38, -1,
      38, 62, 61, -1,
      38, 61, 37, -1,
      37, 61, 58, -1,
      37, 58, 30, -1,
      30, 58, 48, -1,
    ]
  }
}

Shape {
  appearance Appearance {
    material Material {
      diffuseColor 0.5098 0.5098 0.6275
      specularColor 0.2549 0.2549 0.3137
      ambientIntensity 0.2
      transparency 0.0000
      shininess 0.5
    }
  }
  geometry IndexedFaceSet {
    ccw TRUE
    solid FALSE
    coord DEF co Coordinate {
      point [
        -0.232283 -0.232283 0.007874,
        -0.232283 -0.232283 0.000000,
        -0.297244 -0.074803 0.000000,
        -0.297244 -0.074803 0.007874,
        -0.257874 -0.232283 0.007874,
        -0.297244 -0.192913 0.007874,
        -0.257874 -0.232283 0.000000,
        -0.297244 -0.192913 0.000000,
      ]
    }
    coordIndex [
      7, 2, 5, -1,
      5, 2, 3, -1,
      4, 0, 6, -1,
      6, 0, 1, -1,
    ]
  }
}

Shape {
  appearance Appearance {
    material Material {
      diffuseColor 0.9020 0.7843 0.6863
      specularColor 0.4510 0.3922 0.3412
      ambientIntensity 0.2
      transparency 0.0000
      shininess 0.5
    }
  }
  geometry IndexedFaceSet {
    ccw TRUE
    solid FALSE
    coord DEF co Coordinate {
      point [
        -0.257874 -0.232283 0.007874,
        -0.264711 -0.231685 0.007874,
        -0.271339 -0.229909 0.007874,
        -0.297244 -0.192913 0.007874,
        -0.296646 -0.199750 0.007874,
        -0.277559 -0.227009 0.007874,
        -0.283181 -0.223072 0.007874,
        -0.291970 -0.212598 0.007874,
        -0.294870 -0.206379 0.007874,
        -0.288033 -0.218220 0.007874,
        -0.257874 -0.232283 0.000000,
        -0.271339 -0.229909 0.000000,
        -0.264711 -0.231685 0.000000,
        -0.297244 -0.192913 0.000000,
        -0.296646 -0.199750 0.000000,
        -0.294870 -0.206379 0.000000,
        -0.291970 -0.212598 0.000000,
        -0.283181 -0.223072 0.000000,
        -0.277559 -0.227009 0.000000,
        -0.288033 -0.218220 0.000000,
      ]
    }
    coordIndex [
      13, 3, 14, -1,
      14, 3, 4, -1,
      14, 4, 15, -1,
      15, 4, 8, -1,
      15, 8, 16, -1,
      16, 8, 7, -1,
      16, 7, 19, -1,
      19, 7, 9, -1,
      19, 9, 17, -1,
      17, 9, 6, -1,
      17, 6, 18, -1,
      18, 6, 5, -1,
      18, 5, 11, -1,
      11, 5, 2, -1,
      11, 2, 12, -1,
      12, 2, 1, -1,
      12, 1, 10, -1,
      10, 1, 0, -1,
    ]
  }
}

Shape {
  appearance Appearance {
    material Material {
      diffuseColor 0.2510 0.2510 0.2510
      specularColor 0.1255 0.1255 0.1255
      ambientIntensity 0.2
      transparency 0.0000
      shininess 0.5
    }
  }
  geometry IndexedFaceSet {
    ccw TRUE
    solid FALSE
    coord DEF co Coordinate {
      point [
        -0.008582 0.124848 0.007874,
        -0.004741 -0.015436 0.007874,
        -0.008582 -0.019997 0.007874,
        -0.004741 -0.019757 0.007874,
        0.016384 -0.019757 0.007874,
        0.024066 -0.017717 0.007874,
        0.024066 -0.013395 0.007874,
        0.016384 0.019613 0.007874,
        0.011103 0.015292 0.007874,
        0.011103 0.002329 0.007874,
        -0.003781 0.015292 0.007874,
        -0.002821 0.002329 0.007874,
        0.011103 -0.001993 0.007874,
        0.011103 -0.015436 0.007874,
        -0.002821 -0.001993 0.007874,
        0.076880 -0.019757 0.007874,
        0.037214 -0.019997 0.007874,
        0.056714 -0.019757 0.007874,
        0.039750 -0.019734 0.007874,
        0.043567 -0.018420 0.007874,
        -0.003781 0.019613 0.007874,
        0.051276 0.009244 0.007874,
        0.048968 0.012924 0.007874,
        0.071598 0.019613 0.007874,
        0.037163 0.015337 0.007874,
        0.040109 0.014273 0.007874,
        0.024772 -0.013786 0.007874,
        0.042834 0.012450 0.007874,
        0.045212 0.009826 0.007874,
        0.048072 -0.000492 0.007874,
        0.047673 -0.004754 0.007874,
        0.046604 -0.008141 0.007874,
        0.037843 -0.015504 0.007874,
        0.034171 -0.015916 0.007874,
        0.040712 -0.014448 0.007874,
        0.043128 -0.012820 0.007874,
        0.044976 -0.010870 0.007874,
        0.028945 -0.015336 0.007874,
        0.046835 0.006786 0.007874,
        0.047884 0.002571 0.007874,
        0.046733 -0.016398 0.007874,
        0.049691 -0.013285 0.007874,
        0.056714 -0.015436 0.007874,
        0.051788 -0.009541 0.007874,
        0.071598 -0.015436 0.007874,
        0.052973 -0.005374 0.007874,
        0.053354 -0.000815 0.007874,
        0.052787 0.004783 0.007874,
        0.045414 0.016343 0.007874,
        0.041674 0.018495 0.007874,
        0.037285 0.019770 0.007874,
        0.033331 0.020093 0.007874,
        0.028618 0.019768 0.007874,
        0.024066 0.018533 0.007874,
        0.024066 0.013252 0.007874,
        0.028500 0.015150 0.007874,
        0.033286 0.015772 0.007874,
        0.032241 -0.019997 0.007874,
        0.033822 -0.020219 0.007874,
        -0.008582 -0.124848 0.007874,
        0.034899 -0.020237 0.007874,
        0.076880 0.019613 0.007874,
        0.184119 0.124848 0.007874,
        0.184119 -0.019997 0.007874,
        0.184119 -0.124848 0.007874,
        -0.184119 -0.124848 0.007874,
        -0.184119 -0.019997 0.007874,
        0.028263 -0.019440 0.007874,
        -0.046992 -0.019757 0.007874,
        -0.042146 -0.008967 0.007874,
        -0.039888 -0.012488 0.007874,
        -0.076760 -0.019757 0.007874,
        -0.082521 -0.019757 0.007874,
        -0.067157 0.019613 0.007874,
        -0.184119 0.124848 0.007874,
        -0.061876 0.019613 0.007874,
        -0.036647 -0.015591 0.007874,
        -0.032537 -0.017980 0.007874,
        -0.028000 -0.019332 0.007874,
        -0.023129 -0.019757 0.007874,
        -0.012424 -0.019757 0.007874,
        -0.012424 0.019613 0.007874,
        -0.023534 0.019613 0.007874,
        -0.038154 0.014480 0.007874,
        -0.040938 0.011393 0.007874,
        -0.042768 0.008007 0.007874,
        -0.029222 0.019005 0.007874,
        -0.033828 0.017387 0.007874,
        -0.038113 0.014516 0.007874,
        -0.052754 -0.019757 0.007874,
        -0.056512 -0.008714 0.007874,
        -0.072776 -0.008714 0.007874,
        -0.043826 0.004128 0.007874,
        -0.044111 0.000423 0.007874,
        -0.043559 -0.004846 0.007874,
      ]
    }
    coordIndex [
      0, 1, 2, -1,
      2, 1, 3, -1,
      2, 3, 4, -1,
      5, 4, 6, -1,
      6, 4, 7, -1,
      8, 9, 10, -1,
      10, 9, 11, -1,
      12, 13, 14, -1,
      14, 13, 1, -1,
      15, 16, 17, -1,
      17, 16, 18, -1,
      17, 18, 19, -1,
      7, 20, 0, -1,
      0, 20, 10, -1,
      0, 10, 1, -1,
      1, 10, 11, -1,
      1, 11, 14, -1,
      21, 22, 23, -1,
      24, 25, 26, -1,
      26, 25, 27, -1,
      26, 27, 28, -1,
      29, 30, 26, -1,
      26, 30, 31, -1,
      32, 33, 34, -1,
      34, 33, 35, -1,
      31, 36, 26, -1,
      26, 36, 35, -1,
      26, 35, 37, -1,
      37, 35, 33, -1,
      28, 38, 26, -1,
      26, 38, 39, -1,
      26, 39, 29, -1,
      19, 40, 17, -1,
      17, 40, 41, -1,
      17, 41, 42, -1,
      42, 41, 43, -1,
      42, 43, 44, -1,
      43, 45, 44, -1,
      44, 45, 46, -1,
      44, 46, 23, -1,
      23, 46, 47, -1,
      23, 47, 21, -1,
      48, 49, 0, -1,
      0, 49, 50, -1,
      0, 50, 51, -1,
      51, 52, 0, -1,
      0, 52, 53, -1,
      0, 53, 7, -1,
      7, 53, 54, -1,
      7, 54, 6, -1,
      6, 54, 55, -1,
      6, 55, 26, -1,
      26, 55, 56, -1,
      26, 56, 24, -1,
      57, 58, 59, -1,
      59, 58, 60, -1,
      59, 60, 16, -1,
      22, 48, 23, -1,
      23, 48, 0, -1,
      23, 0, 61, -1,
      61, 0, 62, -1,
      61, 62, 15, -1,
      15, 62, 63, -1,
      15, 63, 16, -1,
      16, 63, 64, -1,
      16, 64, 59, -1,
      65, 66, 59, -1,
      59, 66, 2, -1,
      59, 2, 57, -1,
      57, 2, 4, -1,
      57, 4, 67, -1,
      67, 4, 5, -1,
      68, 69, 70, -1,
      71, 2, 72, -1,
      72, 2, 66, -1,
      72, 66, 73, -1,
      73, 66, 74, -1,
      73, 74, 75, -1,
      75, 74, 0, -1,
      70, 76, 68, -1,
      68, 76, 77, -1,
      68, 77, 78, -1,
      79, 80, 2, -1,
      2, 80, 81, -1,
      2, 81, 0, -1,
      0, 81, 82, -1,
      83, 84, 75, -1,
      75, 84, 85, -1,
      82, 86, 0, -1,
      0, 86, 87, -1,
      0, 87, 75, -1,
      75, 87, 88, -1,
      75, 88, 83, -1,
      78, 79, 68, -1,
      68, 79, 2, -1,
      68, 2, 89, -1,
      89, 2, 71, -1,
      89, 71, 90, -1,
      90, 71, 91, -1,
      85, 92, 75, -1,
      75, 92, 93, -1,
      75, 93, 68, -1,
      68, 93, 94, -1,
      68, 94, 69, -1,
    ]
  }
}

Shape {
  appearance Appearance {
    material Material {
      diffuseColor 0.5098 0.5098 0.6275
      specularColor 0.2549 0.2549 0.3137
      ambientIntensity 0.2
      transparency 0.0000
      shininess 0.5
    }
  }
  geometry IndexedFaceSet {
    ccw TRUE
    solid FALSE
    coord DEF co Coordinate {
      point [
        0.257874 0.232283 0.007874,
        0.297244 0.192913 0.007874,
        0.291970 0.212598 0.007874,
        0.277559 0.227009 0.007874,
        0.365862 0.287122 0.007874,
        0.257874 -0.232283 0.007874,
        0.297244 -0.192913 0.007874,
        0.291970 -0.212598 0.007874,
        0.277559 -0.227009 0.007874,
        0.365862 -0.287122 0.007874,
        -0.257874 -0.232283 0.007874,
        -0.297244 -0.192913 0.007874,
        -0.277559 -0.227009 0.007874,
        -0.291970 -0.212598 0.007874,
        -0.365862 -0.287122 0.007874,
        -0.141164 0.290264 0.007874,
        -0.232283 0.290264 0.007874,
        -0.232283 0.311024 0.007874,
        -0.393701 -0.275591 0.007874,
        -0.393701 0.275591 0.007874,
        -0.389764 0.074803 0.007874,
        -0.389764 0.275788 0.007874,
        0.374016 0.280865 0.007874,
        0.383511 0.276932 0.007874,
        0.295903 0.203103 0.007874,
        -0.383511 -0.276932 0.007874,
        -0.297244 0.074803 0.007874,
        -0.295903 -0.203103 0.007874,
        -0.374016 -0.280865 0.007874,
        0.355672 0.304771 0.007874,
        0.359605 0.295276 0.007874,
        0.354331 0.314961 0.007874,
        0.268064 0.230942 0.007874,
        0.295903 -0.203103 0.007874,
        0.355672 -0.304771 0.007874,
        0.359605 -0.295276 0.007874,
        0.268064 -0.230942 0.007874,
        -0.359605 -0.295276 0.007874,
        -0.355672 -0.304771 0.007874,
        -0.354331 -0.314961 0.007874,
        -0.354528 0.311024 0.007874,
        -0.354331 0.314961 0.007874,
        -0.141164 0.232283 0.007874,
        0.354331 -0.314961 0.007874,
        -0.268064 -0.230942 0.007874,
        -0.285713 -0.220752 0.007874,
        0.285713 0.220752 0.007874,
        0.393701 0.275591 0.007874,
        0.393701 -0.275591 0.007874,
        0.383511 -0.276932 0.007874,
        0.374016 -0.280865 0.007874,
        0.285713 -0.220752 0.007874,
        -0.277559 -0.227009 0.078740,
        -0.285713 -0.220752 0.078740,
        -0.184119 -0.124848 0.078740,
        -0.268064 -0.230942 0.078740,
        0.277559 -0.227009 0.078740,
        0.268064 -0.230942 0.078740,
        0.184119 -0.124848 0.078740,
        0.257874 -0.232283 0.078740,
        -0.257874 -0.232283 0.078740,
        0.291970 0.212598 0.078740,
        0.295903 0.203103 0.078740,
        0.184119 0.124848 0.078740,
        0.297244 0.192913 0.078740,
        0.297244 -0.192913 0.078740,
        0.295903 -0.203103 0.078740,
        -0.184119 0.124848 0.078740,
        -0.285713 0.220752 0.078740,
        -0.277559 0.227009 0.078740,
        0.291970 -0.212598 0.078740,
        0.285713 -0.220752 0.078740,
        -0.268064 0.230942 0.078740,
        -0.257874 0.232283 0.078740,
        0.257874 0.232283 0.078740,
        0.268064 0.230942 0.078740,
        -0.297244 0.192913 0.078740,
        -0.297244 -0.192913 0.078740,
        -0.295903 0.203103 0.078740,
        -0.291970 0.212598 0.078740,
        0.277559 0.227009 0.078740,
        0.285713 0.220752 0.078740,
        -0.291970 -0.212598 0.078740,
        -0.295903 -0.203103 0.078740,
        0.393701 -0.275591 0.283465,
        0.393701 0.275591 0.283465,
        -0.354331 0.314961 0.283465,
        0.354331 0.314961 0.283465,
        -0.393701 -0.275591 0.283465,
        -0.393701 0.275591 0.283465,
        -0.354331 -0.314961 0.283465,
        0.354331 -0.314961 0.283465,
        0.171148 -0.021268 0.322835,
        0.159625 -0.021268 0.322835,
        0.159625 -0.026069 0.322835,
        -0.059311 -0.039513 0.322835,
        -0.065072 -0.039513 0.322835,
        -0.011298 -0.277887 0.322835,
        -0.353365 -0.026069 0.322835,
        -0.353365 -0.258202 0.322835,
        -0.165898 -0.036392 0.322835,
        -0.102522 -0.039513 0.322835,
        -0.122509 -0.032426 0.322835,
        -0.125802 -0.035301 0.322835,
        -0.338775 -0.277216 0.322835,
        -0.333680 -0.277887 0.322835,
        -0.092919 -0.039513 0.322835,
        -0.130252 -0.037736 0.322835,
        -0.137937 -0.039879 0.322835,
        -0.146078 -0.040473 0.322835,
        -0.350728 -0.268044 0.322835,
        -0.347599 -0.272121 0.322835,
        -0.163374 -0.037598 0.322835,
        -0.156212 -0.039429 0.322835,
        -0.343522 -0.275250 0.322835,
        -0.352694 -0.263297 0.322835,
        -0.053499 -0.026069 0.322835,
        -0.031463 -0.039513 0.322835,
        -0.021861 -0.039513 0.322835,
        -0.011298 -0.026069 0.322835,
        -0.021861 -0.026069 0.322835,
        -0.021861 0.039228 0.322835,
        -0.165898 -0.026069 0.322835,
        -0.165898 -0.024869 0.322835,
        -0.353365 0.258202 0.322835,
        -0.034344 0.039228 0.322835,
        -0.011298 0.277887 0.322835,
        -0.347599 0.272121 0.322835,
        -0.350728 0.268044 0.322835,
        -0.343522 0.275250 0.322835,
        -0.352694 0.263297 0.322835,
        -0.120767 0.026504 0.322835,
        -0.102522 -0.026069 0.322835,
        -0.120767 0.038027 0.322835,
        -0.102522 0.039228 0.322835,
        -0.117886 -0.019212 0.322835,
        -0.118506 -0.024744 0.322835,
        -0.118990 -0.026069 0.322835,
        -0.119966 -0.028734 0.322835,
        -0.128060 -0.001890 0.322835,
        -0.123087 -0.006183 0.322835,
        -0.120269 -0.010064 0.322835,
        -0.118611 -0.013983 0.322835,
        -0.161123 0.006352 0.322835,
        -0.163602 0.009818 0.322835,
        -0.165251 0.013934 0.322835,
        -0.165898 0.019063 0.322835,
        -0.333680 0.277887 0.322835,
        -0.165193 0.024504 0.322835,
        -0.163654 0.028272 0.322835,
        -0.338775 0.277216 0.322835,
        -0.062267 -0.024149 0.322835,
        -0.061906 -0.024149 0.322835,
        -0.063850 -0.019278 0.322835,
        -0.060077 -0.019220 0.322835,
        -0.065777 -0.014531 0.322835,
        -0.138606 0.004119 0.322835,
        -0.126720 0.029595 0.322835,
        -0.145925 0.007997 0.322835,
        -0.133451 0.031204 0.322835,
        -0.138891 0.031546 0.322835,
        -0.161179 0.031691 0.322835,
        -0.157798 0.034625 0.322835,
        -0.153370 0.037169 0.322835,
        -0.146756 0.039339 0.322835,
        -0.138051 0.040188 0.322835,
        -0.129309 0.039814 0.322835,
        -0.058170 -0.014321 0.322835,
        -0.089078 0.039228 0.322835,
        -0.163944 -0.026069 0.322835,
        -0.146648 -0.003278 0.322835,
        -0.156925 0.002738 0.322835,
        -0.131609 -0.012407 0.322835,
        -0.134850 -0.009657 0.322835,
        -0.135946 -0.008958 0.322835,
        -0.154161 0.014922 0.322835,
        -0.154989 0.017093 0.322835,
        -0.155335 0.020098 0.322835,
        -0.152829 0.012969 0.322835,
        -0.150415 0.010851 0.322835,
        -0.153244 0.026296 0.322835,
        -0.154392 0.024509 0.322835,
        -0.155088 0.022483 0.322835,
        -0.128448 -0.020083 0.322835,
        -0.128781 -0.023189 0.322835,
        -0.129688 -0.025644 0.322835,
        -0.144404 0.031046 0.322835,
        -0.148583 0.029709 0.322835,
        -0.151450 0.028020 0.322835,
        -0.128791 -0.017289 0.322835,
        -0.129683 -0.015048 0.322835,
        -0.129972 -0.026069 0.322835,
        -0.160142 -0.028406 0.322835,
        -0.150821 -0.031271 0.322835,
        -0.144907 -0.031831 0.322835,
        -0.139190 -0.031390 0.322835,
        -0.130730 -0.027206 0.322835,
        -0.135194 -0.030309 0.322835,
        -0.132370 -0.028750 0.322835,
        -0.092919 -0.026069 0.322835,
        -0.070820 -0.026069 0.322835,
        -0.092919 0.012581 0.322835,
        -0.092975 0.020625 0.322835,
        -0.092919 0.028665 0.322835,
        -0.093219 0.028665 0.322835,
        -0.091923 0.024396 0.322835,
        -0.090609 0.020218 0.322835,
        -0.031234 0.020863 0.322835,
        -0.030698 0.028665 0.322835,
        -0.030954 0.028665 0.322835,
        -0.031968 0.024619 0.322835,
        -0.033294 0.020668 0.322835,
        -0.031463 0.013046 0.322835,
        -0.031463 -0.026069 0.322835,
        0.104891 -0.012626 0.322835,
        0.113533 -0.013076 0.322835,
        0.104891 -0.004944 0.322835,
        0.131892 0.010497 0.322835,
        0.144165 0.029664 0.322835,
        0.058714 -0.017921 0.322835,
        0.054201 -0.024965 0.322835,
        0.075124 -0.012626 0.322835,
        0.053048 -0.026069 0.322835,
        0.113533 -0.021268 0.322835,
        0.353365 -0.026069 0.322835,
        0.353365 0.258202 0.322835,
        0.171148 -0.012626 0.322835,
        0.021485 0.039228 0.322835,
        0.032861 0.038011 0.322835,
        -0.000736 0.039228 0.322835,
        0.352694 0.263297 0.322835,
        0.159625 0.039228 0.322835,
        0.159625 -0.012626 0.322835,
        0.042043 0.034792 0.322835,
        0.050621 0.029053 0.322835,
        0.149363 0.039228 0.322835,
        0.050793 0.028901 0.322835,
        0.056338 0.022724 0.322835,
        0.059981 0.015944 0.322835,
        0.062081 0.008182 0.322835,
        0.350728 0.268044 0.322835,
        0.347599 0.272121 0.322835,
        0.343522 0.275250 0.322835,
        0.333680 0.277887 0.322835,
        0.338775 0.277216 0.322835,
        0.075124 -0.004944 0.322835,
        0.062641 0.000848 0.322835,
        0.061535 -0.009690 0.322835,
        0.353365 -0.258202 0.322835,
        0.159625 -0.039513 0.322835,
        0.150023 -0.039513 0.322835,
        0.333680 -0.277887 0.322835,
        0.338775 -0.277216 0.322835,
        0.343522 -0.275250 0.322835,
        0.347599 -0.272121 0.322835,
        0.350728 -0.268044 0.322835,
        0.352694 -0.263297 0.322835,
        0.150023 -0.021268 0.322835,
        0.150023 -0.026069 0.322835,
        0.047722 -0.031172 0.322835,
        0.039504 -0.035952 0.322835,
        0.030432 -0.038659 0.322835,
        0.020675 -0.039513 0.322835,
        -0.000736 -0.039513 0.322835,
        -0.000736 -0.026069 0.322835,
        0.343522 0.275250 0.283465,
        0.347599 0.272121 0.283465,
        0.365862 0.287122 0.283465,
        0.352694 -0.263297 0.283465,
        0.353365 -0.258202 0.283465,
        0.383511 0.276932 0.283465,
        -0.343522 0.275250 0.283465,
        -0.338775 0.277216 0.283465,
        -0.359605 0.295276 0.283465,
        -0.355672 0.304771 0.283465,
        -0.353365 0.258202 0.283465,
        -0.352694 0.263297 0.283465,
        0.355672 0.304771 0.283465,
        0.359605 0.295276 0.283465,
        0.374016 0.280865 0.283465,
        0.333680 -0.277887 0.283465,
        -0.333680 -0.277887 0.283465,
        -0.338775 -0.277216 0.283465,
        -0.355672 -0.304771 0.283465,
        -0.343522 -0.275250 0.283465,
        -0.359605 -0.295276 0.283465,
        0.343522 -0.275250 0.283465,
        0.359605 -0.295276 0.283465,
        0.347599 -0.272121 0.283465,
        0.365862 -0.287122 0.283465,
        0.350728 -0.268044 0.283465,
        0.374016 -0.280865 0.283465,
        0.383511 -0.276932 0.283465,
        0.350728 0.268044 0.283465,
        0.352694 0.263297 0.283465,
        0.353365 0.258202 0.283465,
        -0.333680 0.277887 0.283465,
        0.333680 0.277887 0.283465,
        0.338775 0.277216 0.283465,
        0.338775 -0.277216 0.283465,
        0.355672 -0.304771 0.283465,
        -0.365862 -0.287122 0.283465,
        -0.347599 -0.272121 0.283465,
        -0.374016 -0.280865 0.283465,
        -0.350728 -0.268044 0.283465,
        -0.352694 -0.263297 0.283465,
        -0.353365 -0.258202 0.283465,
        -0.383511 -0.276932 0.283465,
        -0.347599 0.272121 0.283465,
        -0.365862 0.287122 0.283465,
        -0.350728 0.268044 0.283465,
        -0.374016 0.280865 0.283465,
        -0.383511 0.276932 0.283465,
      ]
    }
    coordIndex [
      15, 16, 17, -1,
      18, 19, 20, -1,
      20, 19, 21, -1,
      22, 23, 24, -1,
      18, 20, 25, -1,
      25, 20, 26, -1,
      25, 26, 11, -1,
      11, 27, 25, -1,
      25, 27, 13, -1,
      25, 13, 28, -1,
      28, 13, 14, -1,
      3, 29, 30, -1,
      29, 3, 31, -1,
      31, 3, 32, -1,
      31, 32, 0, -1,
      33, 6, 23, -1,
      23, 6, 1, -1,
      23, 1, 24, -1,
      34, 10, 35, -1,
      35, 10, 5, -1,
      35, 5, 36, -1,
      37, 12, 38, -1,
      38, 12, 39, -1,
      40, 41, 17, -1,
      17, 41, 31, -1,
      17, 31, 15, -1,
      15, 31, 0, -1,
      15, 0, 42, -1,
      34, 43, 10, -1,
      10, 43, 39, -1,
      10, 39, 44, -1,
      44, 39, 12, -1,
      14, 13, 37, -1,
      37, 13, 45, -1,
      37, 45, 12, -1,
      22, 24, 4, -1,
      4, 24, 2, -1,
      4, 2, 30, -1,
      30, 2, 46, -1,
      30, 46, 3, -1,
      47, 48, 23, -1,
      23, 48, 49, -1,
      23, 49, 33, -1,
      33, 49, 50, -1,
      33, 50, 7, -1,
      7, 50, 9, -1,
      7, 9, 51, -1,
      51, 9, 35, -1,
      51, 35, 8, -1,
      8, 35, 36, -1,
      52, 53, 54, -1,
      52, 54, 55, -1,
      56, 57, 58, -1,
      58, 57, 59, -1,
      58, 59, 54, -1,
      54, 59, 60, -1,
      54, 60, 55, -1,
      61, 62, 63, -1,
      63, 62, 64, -1,
      63, 64, 58, -1,
      58, 64, 65, -1,
      58, 65, 66, -1,
      67, 68, 69, -1,
      66, 70, 58, -1,
      58, 70, 71, -1,
      58, 71, 56, -1,
      69, 72, 67, -1,
      67, 72, 73, -1,
      67, 73, 63, -1,
      63, 73, 74, -1,
      63, 74, 75, -1,
      76, 67, 77, -1,
      77, 67, 54, -1,
      76, 78, 67, -1,
      67, 78, 79, -1,
      67, 79, 68, -1,
      75, 80, 63, -1,
      63, 80, 81, -1,
      63, 81, 61, -1,
      53, 82, 54, -1,
      54, 82, 83, -1,
      54, 83, 77, -1,
      84, 48, 85, -1,
      85, 48, 47, -1,
      41, 86, 31, -1,
      31, 86, 87, -1,
      18, 88, 19, -1,
      19, 88, 89, -1,
      90, 39, 91, -1,
      91, 39, 43, -1,
      92, 93, 94, -1,
      95, 96, 97, -1,
      98, 99, 100, -1,
      101, 102, 103, -1,
      103, 104, 101, -1,
      101, 104, 105, -1,
      101, 105, 106, -1,
      103, 107, 104, -1,
      104, 107, 108, -1,
      104, 108, 109, -1,
      110, 111, 112, -1,
      109, 113, 104, -1,
      104, 113, 112, -1,
      104, 112, 114, -1,
      114, 112, 111, -1,
      100, 99, 112, -1,
      112, 99, 115, -1,
      112, 115, 110, -1,
      116, 95, 117, -1,
      117, 95, 97, -1,
      117, 97, 118, -1,
      118, 97, 119, -1,
      118, 119, 120, -1,
      120, 119, 121, -1,
      100, 122, 98, -1,
      98, 122, 123, -1,
      98, 123, 124, -1,
      125, 121, 126, -1,
      127, 128, 129, -1,
      129, 128, 130, -1,
      129, 130, 124, -1,
      131, 132, 133, -1,
      133, 132, 134, -1,
      135, 136, 132, -1,
      132, 136, 137, -1,
      132, 137, 101, -1,
      101, 137, 138, -1,
      101, 138, 102, -1,
      139, 140, 131, -1,
      131, 140, 141, -1,
      131, 141, 132, -1,
      132, 141, 142, -1,
      132, 142, 135, -1,
      143, 144, 123, -1,
      145, 146, 147, -1,
      147, 146, 148, -1,
      147, 148, 149, -1,
      144, 145, 123, -1,
      123, 145, 147, -1,
      123, 147, 124, -1,
      124, 147, 150, -1,
      124, 150, 129, -1,
      151, 152, 153, -1,
      153, 152, 154, -1,
      153, 154, 155, -1,
      139, 131, 156, -1,
      156, 131, 157, -1,
      156, 157, 158, -1,
      158, 157, 159, -1,
      158, 159, 160, -1,
      149, 161, 147, -1,
      147, 161, 162, -1,
      147, 162, 163, -1,
      163, 164, 147, -1,
      147, 164, 165, -1,
      147, 165, 166, -1,
      154, 167, 155, -1,
      155, 167, 125, -1,
      155, 125, 168, -1,
      168, 125, 126, -1,
      168, 126, 134, -1,
      134, 126, 147, -1,
      134, 147, 133, -1,
      133, 147, 166, -1,
      169, 170, 123, -1,
      123, 170, 171, -1,
      123, 171, 143, -1,
      172, 173, 169, -1,
      169, 173, 174, -1,
      169, 174, 170, -1,
      175, 160, 176, -1,
      176, 160, 177, -1,
      175, 178, 160, -1,
      160, 178, 179, -1,
      160, 179, 158, -1,
      180, 181, 182, -1,
      183, 169, 184, -1,
      184, 169, 185, -1,
      160, 186, 177, -1,
      177, 186, 187, -1,
      177, 187, 182, -1,
      182, 187, 188, -1,
      182, 188, 180, -1,
      183, 189, 169, -1,
      169, 189, 190, -1,
      169, 190, 172, -1,
      185, 169, 191, -1,
      191, 169, 192, -1,
      191, 192, 193, -1,
      193, 194, 191, -1,
      191, 194, 195, -1,
      191, 195, 196, -1,
      196, 195, 197, -1,
      196, 197, 198, -1,
      105, 97, 106, -1,
      106, 97, 96, -1,
      106, 96, 199, -1,
      199, 96, 200, -1,
      199, 200, 201, -1,
      201, 200, 202, -1,
      203, 204, 205, -1,
      205, 204, 202, -1,
      205, 202, 206, -1,
      206, 202, 200, -1,
      207, 208, 209, -1,
      209, 210, 207, -1,
      207, 210, 211, -1,
      207, 211, 212, -1,
      212, 211, 116, -1,
      212, 116, 213, -1,
      213, 116, 117, -1,
      214, 215, 216, -1,
      216, 215, 217, -1,
      216, 217, 218, -1,
      219, 220, 221, -1,
      221, 220, 222, -1,
      221, 222, 214, -1,
      214, 222, 223, -1,
      214, 223, 215, -1,
      224, 225, 226, -1,
      227, 228, 126, -1,
      121, 119, 126, -1,
      126, 119, 229, -1,
      126, 229, 227, -1,
      230, 231, 225, -1,
      225, 231, 232, -1,
      225, 232, 226, -1,
      233, 234, 235, -1,
      235, 234, 236, -1,
      236, 237, 235, -1,
      235, 237, 238, -1,
      235, 238, 239, -1,
      230, 240, 231, -1,
      231, 240, 241, -1,
      231, 241, 242, -1,
      228, 233, 126, -1,
      126, 233, 235, -1,
      126, 235, 243, -1,
      243, 235, 231, -1,
      243, 231, 244, -1,
      244, 231, 242, -1,
      218, 235, 216, -1,
      216, 235, 239, -1,
      216, 239, 245, -1,
      245, 239, 246, -1,
      245, 246, 221, -1,
      221, 246, 247, -1,
      221, 247, 219, -1,
      226, 92, 224, -1,
      224, 92, 94, -1,
      224, 94, 248, -1,
      248, 94, 249, -1,
      250, 97, 249, -1,
      249, 97, 251, -1,
      251, 252, 249, -1,
      249, 252, 253, -1,
      249, 253, 254, -1,
      254, 255, 249, -1,
      249, 255, 256, -1,
      249, 256, 248, -1,
      257, 223, 258, -1,
      258, 223, 222, -1,
      258, 222, 250, -1,
      250, 222, 259, -1,
      250, 259, 97, -1,
      97, 259, 260, -1,
      97, 260, 261, -1,
      261, 262, 97, -1,
      97, 262, 263, -1,
      97, 263, 119, -1,
      119, 263, 264, -1,
      119, 264, 229, -1,
      265, 266, 267, -1,
      268, 84, 269, -1,
      269, 84, 85, -1,
      269, 85, 270, -1,
      271, 272, 273, -1,
      273, 272, 274, -1,
      275, 276, 89, -1,
      87, 86, 277, -1,
      277, 86, 274, -1,
      277, 274, 278, -1,
      278, 274, 267, -1,
      267, 266, 279, -1,
      280, 281, 90, -1,
      90, 281, 282, -1,
      90, 282, 283, -1,
      283, 282, 284, -1,
      283, 284, 285, -1,
      286, 287, 288, -1,
      288, 287, 289, -1,
      288, 289, 290, -1,
      290, 289, 291, -1,
      290, 291, 268, -1,
      268, 291, 292, -1,
      268, 292, 84, -1,
      266, 293, 279, -1,
      279, 293, 294, -1,
      279, 294, 270, -1,
      270, 294, 295, -1,
      270, 295, 269, -1,
      272, 296, 274, -1,
      274, 296, 297, -1,
      274, 297, 267, -1,
      267, 297, 298, -1,
      267, 298, 265, -1,
      286, 299, 287, -1,
      287, 299, 280, -1,
      287, 280, 300, -1,
      300, 280, 90, -1,
      300, 90, 91, -1,
      285, 284, 301, -1,
      301, 284, 302, -1,
      301, 302, 303, -1,
      303, 302, 304, -1,
      303, 304, 305, -1,
      275, 89, 306, -1,
      306, 89, 88, -1,
      306, 88, 305, -1,
      305, 88, 307, -1,
      305, 307, 303, -1,
      271, 273, 308, -1,
      308, 273, 309, -1,
      308, 309, 310, -1,
      310, 309, 311, -1,
      310, 311, 276, -1,
      276, 311, 312, -1,
      276, 312, 89, -1,
    ]
  }
}

Shape {
  appearance Appearance {
    material Material {
      diffuseColor 0.9020 0.7843 0.6863
      specularColor 0.4510 0.3922 0.3412
      ambientIntensity 0.2
      transparency 0.0000
      shininess 0.5
    }
  }
  geometry IndexedFaceSet {
    ccw TRUE
    solid FALSE
    coord DEF co Coordinate {
      point [
        -0.011298 -0.277887 0.322835,
        -0.353365 -0.026069 0.322835,
        -0.353365 -0.258202 0.322835,
        -0.338775 -0.277216 0.322835,
        -0.333680 -0.277887 0.322835,
        -0.350728 -0.268044 0.322835,
        -0.347599 -0.272121 0.322835,
        -0.343522 -0.275250 0.322835,
        -0.352694 -0.263297 0.322835,
        -0.353365 0.258202 0.322835,
        -0.011298 0.277887 0.322835,
        -0.347599 0.272121 0.322835,
        -0.350728 0.268044 0.322835,
        -0.343522 0.275250 0.322835,
        -0.352694 0.263297 0.322835,
        -0.333680 0.277887 0.322835,
        -0.338775 0.277216 0.322835,
        0.353365 -0.026069 0.322835,
        0.353365 0.258202 0.322835,
        0.352694 0.263297 0.322835,
        0.350728 0.268044 0.322835,
        0.347599 0.272121 0.322835,
        0.343522 0.275250 0.322835,
        0.333680 0.277887 0.322835,
        0.338775 0.277216 0.322835,
        0.353365 -0.258202 0.322835,
        0.333680 -0.277887 0.322835,
        0.338775 -0.277216 0.322835,
        0.343522 -0.275250 0.322835,
        0.347599 -0.272121 0.322835,
        0.350728 -0.268044 0.322835,
        0.352694 -0.263297 0.322835,
        0.343522 0.275250 0.283465,
        0.347599 0.272121 0.283465,
        0.352694 -0.263297 0.283465,
        0.353365 -0.258202 0.283465,
        -0.343522 0.275250 0.283465,
        -0.338775 0.277216 0.283465,
        -0.353365 0.258202 0.283465,
        -0.352694 0.263297 0.283465,
        0.333680 -0.277887 0.283465,
        -0.333680 -0.277887 0.283465,
        -0.338775 -0.277216 0.283465,
        -0.343522 -0.275250 0.283465,
        0.343522 -0.275250 0.283465,
        0.347599 -0.272121 0.283465,
        0.350728 -0.268044 0.283465,
        0.350728 0.268044 0.283465,
        0.352694 0.263297 0.283465,
        0.353365 0.258202 0.283465,
        -0.333680 0.277887 0.283465,
        0.333680 0.277887 0.283465,
        0.338775 0.277216 0.283465,
        0.338775 -0.277216 0.283465,
        -0.347599 -0.272121 0.283465,
        -0.350728 -0.268044 0.283465,
        -0.352694 -0.263297 0.283465,
        -0.353365 -0.258202 0.283465,
        -0.347599 0.272121 0.283465,
        -0.350728 0.268044 0.283465,
      ]
    }
    coordIndex [
      25, 35, 17, -1,
      17, 35, 49, -1,
      17, 49, 18, -1,
      23, 51, 10, -1,
      10, 51, 50, -1,
      10, 50, 15, -1,
      9, 38, 1, -1,
      1, 38, 57, -1,
      1, 57, 2, -1,
      4, 41, 0, -1,
      0, 41, 40, -1,
      0, 40, 26, -1,
      18, 49, 48, -1,
      18, 48, 19, -1,
      19, 48, 47, -1,
      19, 47, 20, -1,
      20, 47, 33, -1,
      20, 33, 21, -1,
      21, 33, 32, -1,
      21, 32, 22, -1,
      22, 32, 52, -1,
      22, 52, 24, -1,
      24, 52, 51, -1,
      24, 51, 23, -1,
      26, 40, 53, -1,
      26, 53, 27, -1,
      27, 53, 44, -1,
      27, 44, 28, -1,
      28, 44, 45, -1,
      28, 45, 29, -1,
      29, 45, 46, -1,
      29, 46, 30, -1,
      30, 46, 34, -1,
      30, 34, 31, -1,
      31, 34, 35, -1,
      31, 35, 25, -1,
      2, 57, 56, -1,
      2, 56, 8, -1,
      8, 56, 55, -1,
      8, 55, 5, -1,
      5, 55, 54, -1,
      5, 54, 6, -1,
      6, 54, 43, -1,
      6, 43, 7, -1,
      7, 43, 42, -1,
      7, 42, 3, -1,
      3, 42, 41, -1,
      3, 41, 4, -1,
      15, 50, 37, -1,
      15, 37, 16, -1,
      16, 37, 36, -1,
      16, 36, 13, -1,
      13, 36, 58, -1,
      13, 58, 11, -1,
      11, 58, 59, -1,
      11, 59, 12, -1,
      12, 59, 39, -1,
      12, 39, 14, -1,
      14, 39, 38, -1,
      14, 38, 9, -1,
    ]
  }
}

Shape {
  appearance Appearance {
    material Material {
      diffuseColor 0.8510 0.8510 0.8510
      specularColor 0.4235 0.4235 0.4235
      ambientIntensity 0.2
      transparency 0.0000
      shininess 0.5
    }
  }
  geometry IndexedFaceSet {
    ccw TRUE
    solid FALSE
    coord DEF co Coordinate {
      point [
        0.171148 -0.021268 0.322835,
        0.159625 -0.021268 0.322835,
        0.159625 -0.026069 0.322835,
        -0.059311 -0.039513 0.322835,
        -0.065072 -0.039513 0.322835,
        -0.165898 -0.036392 0.322835,
        -0.102522 -0.039513 0.322835,
        -0.122509 -0.032426 0.322835,
        -0.125802 -0.035301 0.322835,
        -0.092919 -0.039513 0.322835,
        -0.130252 -0.037736 0.322835,
        -0.137937 -0.039879 0.322835,
        -0.146078 -0.040473 0.322835,
        -0.163374 -0.037598 0.322835,
        -0.156212 -0.039429 0.322835,
        -0.053499 -0.026069 0.322835,
        -0.031463 -0.039513 0.322835,
        -0.021861 -0.039513 0.322835,
        -0.021861 -0.026069 0.322835,
        -0.021861 0.039228 0.322835,
        -0.165898 -0.026069 0.322835,
        -0.165898 -0.024869 0.322835,
        -0.034344 0.039228 0.322835,
        -0.120767 0.026504 0.322835,
        -0.102522 -0.026069 0.322835,
        -0.120767 0.038027 0.322835,
        -0.102522 0.039228 0.322835,
        -0.117886 -0.019212 0.322835,
        -0.118506 -0.024744 0.322835,
        -0.118990 -0.026069 0.322835,
        -0.119966 -0.028734 0.322835,
        -0.128060 -0.001890 0.322835,
        -0.123087 -0.006183 0.322835,
        -0.120269 -0.010064 0.322835,
        -0.118611 -0.013983 0.322835,
        -0.161123 0.006352 0.322835,
        -0.163602 0.009818 0.322835,
        -0.165251 0.013934 0.322835,
        -0.165898 0.019063 0.322835,
        -0.165193 0.024504 0.322835,
        -0.163654 0.028272 0.322835,
        -0.062267 -0.024149 0.322835,
        -0.061906 -0.024149 0.322835,
        -0.063850 -0.019278 0.322835,
        -0.060077 -0.019220 0.322835,
        -0.065777 -0.014531 0.322835,
        -0.138606 0.004119 0.322835,
        -0.126720 0.029595 0.322835,
        -0.145925 0.007997 0.322835,
        -0.133451 0.031204 0.322835,
        -0.138891 0.031546 0.322835,
        -0.161179 0.031691 0.322835,
        -0.157798 0.034625 0.322835,
        -0.153370 0.037169 0.322835,
        -0.146756 0.039339 0.322835,
        -0.138051 0.040188 0.322835,
        -0.129309 0.039814 0.322835,
        -0.058170 -0.014321 0.322835,
        -0.089078 0.039228 0.322835,
        -0.163944 -0.026069 0.322835,
        -0.146648 -0.003278 0.322835,
        -0.156925 0.002738 0.322835,
        -0.131609 -0.012407 0.322835,
        -0.134850 -0.009657 0.322835,
        -0.135946 -0.008958 0.322835,
        -0.154161 0.014922 0.322835,
        -0.154989 0.017093 0.322835,
        -0.155335 0.020098 0.322835,
        -0.152829 0.012969 0.322835,
        -0.150415 0.010851 0.322835,
        -0.153244 0.026296 0.322835,
        -0.154392 0.024509 0.322835,
        -0.155088 0.022483 0.322835,
        -0.128448 -0.020083 0.322835,
        -0.128781 -0.023189 0.322835,
        -0.129688 -0.025644 0.322835,
        -0.144404 0.031046 0.322835,
        -0.148583 0.029709 0.322835,
        -0.151450 0.028020 0.322835,
        -0.128791 -0.017289 0.322835,
        -0.129683 -0.015048 0.322835,
        -0.129972 -0.026069 0.322835,
        -0.160142 -0.028406 0.322835,
        -0.150821 -0.031271 0.322835,
        -0.144907 -0.031831 0.322835,
        -0.139190 -0.031390 0.322835,
        -0.130730 -0.027206 0.322835,
        -0.135194 -0.030309 0.322835,
        -0.132370 -0.028750 0.322835,
        -0.092919 -0.026069 0.322835,
        -0.070820 -0.026069 0.322835,
        -0.092919 0.012581 0.322835,
        -0.092975 0.020625 0.322835,
        -0.092919 0.028665 0.322835,
        -0.093219 0.028665 0.322835,
        -0.091923 0.024396 0.322835,
        -0.090609 0.020218 0.322835,
        -0.031234 0.020863 0.322835,
        -0.030698 0.028665 0.322835,
        -0.030954 0.028665 0.322835,
        -0.031968 0.024619 0.322835,
        -0.033294 0.020668 0.322835,
        -0.031463 0.013046 0.322835,
        -0.031463 -0.026069 0.322835,
        0.104891 -0.012626 0.322835,
        0.113533 -0.013076 0.322835,
        0.104891 -0.004944 0.322835,
        0.131892 0.010497 0.322835,
        0.144165 0.029664 0.322835,
        0.058714 -0.017921 0.322835,
        0.054201 -0.024965 0.322835,
        0.075124 -0.012626 0.322835,
        0.053048 -0.026069 0.322835,
        0.113533 -0.021268 0.322835,
        0.171148 -0.012626 0.322835,
        0.021485 0.039228 0.322835,
        0.032861 0.038011 0.322835,
        -0.000736 0.039228 0.322835,
        0.159625 0.039228 0.322835,
        0.159625 -0.012626 0.322835,
        0.042043 0.034792 0.322835,
        0.050621 0.029053 0.322835,
        0.149363 0.039228 0.322835,
        0.050793 0.028901 0.322835,
        0.056338 0.022724 0.322835,
        0.059981 0.015944 0.322835,
        0.062081 0.008182 0.322835,
        0.075124 -0.004944 0.322835,
        0.062641 0.000848 0.322835,
        0.061535 -0.009690 0.322835,
        0.159625 -0.039513 0.322835,
        0.150023 -0.039513 0.322835,
        0.150023 -0.021268 0.322835,
        0.150023 -0.026069 0.322835,
        0.047722 -0.031172 0.322835,
        0.039504 -0.035952 0.322835,
        0.030432 -0.038659 0.322835,
        0.020675 -0.039513 0.322835,
        -0.000736 -0.039513 0.322835,
        -0.000736 -0.026069 0.322835,
        0.149363 0.039228 0.318898,
        0.159625 0.039228 0.318898,
        0.159625 -0.012626 0.318898,
        0.171148 -0.012626 0.318898,
        0.171148 -0.021268 0.318898,
        0.159625 -0.021268 0.318898,
        0.159625 -0.039513 0.318898,
        0.150023 -0.039513 0.318898,
        0.150023 -0.021268 0.318898,
        0.113533 -0.021268 0.318898,
        0.113533 -0.013076 0.318898,
        0.144165 0.029664 0.318898,
        0.131892 0.010497 0.318898,
        0.150023 0.024779 0.318898,
        0.150023 -0.012626 0.318898,
        0.138185 0.005514 0.318898,
        0.124681 -0.012626 0.318898,
        0.124681 -0.012626 0.322835,
        0.138185 0.005514 0.322835,
        0.150023 0.024779 0.322835,
        0.150023 -0.012626 0.322835,
        0.104891 -0.004944 0.318898,
        0.104891 -0.012626 0.318898,
        0.075124 -0.012626 0.318898,
        0.075124 -0.004944 0.318898,
        0.020675 -0.039513 0.318898,
        -0.000736 -0.039513 0.318898,
        -0.000736 0.039228 0.318898,
        0.021485 0.039228 0.318898,
        0.062641 0.000848 0.318898,
        0.062081 0.008182 0.318898,
        0.059981 0.015944 0.318898,
        0.056338 0.022724 0.318898,
        0.050793 0.028901 0.318898,
        0.050621 0.029053 0.318898,
        0.042043 0.034792 0.318898,
        0.032861 0.038011 0.318898,
        0.030432 -0.038659 0.318898,
        0.039504 -0.035952 0.318898,
        0.047722 -0.031172 0.318898,
        0.054201 -0.024965 0.318898,
        0.058714 -0.017921 0.318898,
        0.061535 -0.009690 0.318898,
        0.046833 0.019547 0.318898,
        0.043007 0.023607 0.318898,
        0.037255 0.027322 0.318898,
        0.030755 0.029596 0.318898,
        0.021440 0.030585 0.318898,
        0.009827 0.030585 0.318898,
        0.009827 -0.030870 0.318898,
        0.021005 -0.030870 0.318898,
        0.029312 -0.030097 0.318898,
        0.035938 -0.028029 0.318898,
        0.041308 -0.024840 0.318898,
        0.045724 -0.020478 0.318898,
        0.049045 -0.015049 0.318898,
        0.051355 -0.007648 0.318898,
        0.052078 0.000623 0.318898,
        0.051409 0.008459 0.318898,
        0.049569 0.014692 0.318898,
        0.021440 0.030585 0.322835,
        0.009827 0.030585 0.322835,
        0.030755 0.029596 0.322835,
        0.037255 0.027322 0.322835,
        0.043007 0.023607 0.322835,
        0.046833 0.019547 0.322835,
        0.049569 0.014692 0.322835,
        0.051409 0.008459 0.322835,
        0.052078 0.000623 0.322835,
        0.051355 -0.007648 0.322835,
        0.049045 -0.015049 0.322835,
        0.045724 -0.020478 0.322835,
        0.041308 -0.024840 0.322835,
        0.035938 -0.028029 0.322835,
        0.029312 -0.030097 0.322835,
        0.021005 -0.030870 0.322835,
        0.009827 -0.030870 0.322835,
        -0.021861 -0.039513 0.318898,
        -0.031463 -0.039513 0.318898,
        -0.031463 0.013046 0.318898,
        -0.030698 0.028665 0.318898,
        -0.031234 0.020863 0.318898,
        -0.030954 0.028665 0.318898,
        -0.033294 0.020668 0.318898,
        -0.031968 0.024619 0.318898,
        -0.059311 -0.039513 0.318898,
        -0.065072 -0.039513 0.318898,
        -0.090609 0.020218 0.318898,
        -0.092919 0.028665 0.318898,
        -0.091923 0.024396 0.318898,
        -0.093219 0.028665 0.318898,
        -0.092919 0.012581 0.318898,
        -0.092975 0.020625 0.318898,
        -0.092919 -0.039513 0.318898,
        -0.102522 -0.039513 0.318898,
        -0.102522 0.039228 0.318898,
        -0.089078 0.039228 0.318898,
        -0.065777 -0.014531 0.318898,
        -0.062267 -0.024149 0.318898,
        -0.063850 -0.019278 0.318898,
        -0.061906 -0.024149 0.318898,
        -0.058170 -0.014321 0.318898,
        -0.060077 -0.019220 0.318898,
        -0.034344 0.039228 0.318898,
        -0.021861 0.039228 0.318898,
        -0.165898 -0.036392 0.318898,
        -0.165898 -0.024869 0.318898,
        -0.144907 -0.031831 0.318898,
        -0.150821 -0.031271 0.318898,
        -0.160142 -0.028406 0.318898,
        -0.128448 -0.020083 0.318898,
        -0.128781 -0.023189 0.318898,
        -0.129688 -0.025644 0.318898,
        -0.130730 -0.027206 0.318898,
        -0.132370 -0.028750 0.318898,
        -0.135194 -0.030309 0.318898,
        -0.139190 -0.031390 0.318898,
        -0.146648 -0.003278 0.318898,
        -0.135946 -0.008958 0.318898,
        -0.134850 -0.009657 0.318898,
        -0.131609 -0.012407 0.318898,
        -0.129683 -0.015048 0.318898,
        -0.128791 -0.017289 0.318898,
        -0.165898 0.019063 0.318898,
        -0.165251 0.013934 0.318898,
        -0.163602 0.009818 0.318898,
        -0.161123 0.006352 0.318898,
        -0.156925 0.002738 0.318898,
        -0.138051 0.040188 0.318898,
        -0.146756 0.039339 0.318898,
        -0.153370 0.037169 0.318898,
        -0.157798 0.034625 0.318898,
        -0.161179 0.031691 0.318898,
        -0.163654 0.028272 0.318898,
        -0.165193 0.024504 0.318898,
        -0.120767 0.038027 0.318898,
        -0.129309 0.039814 0.318898,
        -0.120767 0.026504 0.318898,
        -0.138891 0.031546 0.318898,
        -0.133451 0.031204 0.318898,
        -0.126720 0.029595 0.318898,
        -0.155335 0.020098 0.318898,
        -0.155088 0.022483 0.318898,
        -0.154392 0.024509 0.318898,
        -0.153244 0.026296 0.318898,
        -0.151450 0.028020 0.318898,
        -0.148583 0.029709 0.318898,
        -0.144404 0.031046 0.318898,
        -0.138606 0.004119 0.318898,
        -0.145925 0.007997 0.318898,
        -0.150415 0.010851 0.318898,
        -0.152829 0.012969 0.318898,
        -0.154161 0.014922 0.318898,
        -0.154989 0.017093 0.318898,
        -0.117886 -0.019212 0.318898,
        -0.118611 -0.013983 0.318898,
        -0.120269 -0.010064 0.318898,
        -0.123087 -0.006183 0.318898,
        -0.128060 -0.001890 0.318898,
        -0.118506 -0.024744 0.318898,
        -0.146078 -0.040473 0.318898,
        -0.137937 -0.039879 0.318898,
        -0.130252 -0.037736 0.318898,
        -0.125802 -0.035301 0.318898,
        -0.122509 -0.032426 0.318898,
        -0.119966 -0.028734 0.318898,
        -0.163374 -0.037598 0.318898,
        -0.156212 -0.039429 0.318898,
      ]
    }
    coordIndex [
      140, 141, 122, -1,
      122, 141, 118, -1,
      141, 142, 118, -1,
      118, 142, 119, -1,
      142, 143, 119, -1,
      119, 143, 114, -1,
      143, 144, 114, -1,
      114, 144, 0, -1,
      144, 145, 0, -1,
      0, 145, 1, -1,
      146, 130, 145, -1,
      145, 130, 2, -1,
      145, 2, 1, -1,
      146, 147, 130, -1,
      130, 147, 131, -1,
      131, 147, 133, -1,
      133, 147, 148, -1,
      133, 148, 132, -1,
      148, 149, 132, -1,
      132, 149, 113, -1,
      149, 150, 113, -1,
      113, 150, 105, -1,
      140, 122, 108, -1,
      140, 108, 151, -1,
      151, 108, 107, -1,
      151, 107, 152, -1,
      152, 107, 105, -1,
      152, 105, 150, -1,
      141, 153, 142, -1,
      142, 153, 154, -1,
      147, 146, 148, -1,
      148, 146, 145, -1,
      141, 140, 153, -1,
      153, 140, 151, -1,
      153, 151, 155, -1,
      155, 151, 152, -1,
      155, 152, 156, -1,
      144, 143, 145, -1,
      145, 143, 142, -1,
      145, 142, 148, -1,
      148, 142, 154, -1,
      148, 154, 149, -1,
      149, 154, 156, -1,
      149, 156, 150, -1,
      150, 156, 152, -1,
      156, 157, 158, -1,
      156, 158, 155, -1,
      155, 158, 159, -1,
      155, 159, 153, -1,
      154, 153, 160, -1,
      160, 153, 159, -1,
      156, 154, 157, -1,
      157, 154, 160, -1,
      161, 162, 106, -1,
      106, 162, 104, -1,
      162, 163, 104, -1,
      104, 163, 111, -1,
      163, 164, 111, -1,
      111, 164, 127, -1,
      164, 161, 127, -1,
      127, 161, 106, -1,
      164, 163, 161, -1,
      161, 163, 162, -1,
      165, 166, 137, -1,
      137, 166, 138, -1,
      138, 166, 139, -1,
      139, 166, 167, -1,
      139, 167, 117, -1,
      167, 168, 117, -1,
      117, 168, 115, -1,
      169, 128, 126, -1,
      169, 126, 170, -1,
      170, 126, 125, -1,
      170, 125, 171, -1,
      171, 125, 124, -1,
      171, 124, 172, -1,
      172, 124, 123, -1,
      172, 123, 173, -1,
      173, 123, 121, -1,
      173, 121, 174, -1,
      174, 121, 120, -1,
      174, 120, 175, -1,
      175, 120, 116, -1,
      175, 116, 176, -1,
      176, 116, 115, -1,
      176, 115, 168, -1,
      165, 137, 136, -1,
      165, 136, 177, -1,
      177, 136, 135, -1,
      177, 135, 178, -1,
      178, 135, 134, -1,
      178, 134, 179, -1,
      179, 134, 112, -1,
      179, 112, 180, -1,
      112, 110, 180, -1,
      180, 110, 109, -1,
      180, 109, 181, -1,
      181, 109, 129, -1,
      181, 129, 182, -1,
      182, 129, 128, -1,
      182, 128, 169, -1,
      171, 172, 183, -1,
      183, 172, 173, -1,
      183, 173, 184, -1,
      184, 173, 174, -1,
      184, 174, 185, -1,
      185, 174, 175, -1,
      185, 175, 186, -1,
      186, 175, 176, -1,
      186, 176, 187, -1,
      187, 176, 168, -1,
      187, 168, 188, -1,
      188, 168, 167, -1,
      188, 167, 189, -1,
      189, 167, 166, -1,
      189, 166, 190, -1,
      190, 166, 165, -1,
      190, 165, 191, -1,
      191, 165, 177, -1,
      191, 177, 192, -1,
      192, 177, 178, -1,
      192, 178, 193, -1,
      193, 178, 179, -1,
      193, 179, 194, -1,
      194, 179, 180, -1,
      194, 180, 195, -1,
      195, 180, 181, -1,
      195, 181, 196, -1,
      196, 181, 182, -1,
      196, 182, 197, -1,
      197, 182, 169, -1,
      197, 169, 198, -1,
      198, 169, 170, -1,
      198, 170, 199, -1,
      199, 170, 171, -1,
      199, 171, 183, -1,
      187, 188, 200, -1,
      200, 188, 201, -1,
      187, 200, 202, -1,
      187, 202, 186, -1,
      186, 202, 203, -1,
      186, 203, 185, -1,
      185, 203, 204, -1,
      185, 204, 184, -1,
      184, 204, 205, -1,
      184, 205, 183, -1,
      183, 205, 206, -1,
      183, 206, 199, -1,
      199, 206, 207, -1,
      199, 207, 198, -1,
      198, 207, 208, -1,
      198, 208, 197, -1,
      197, 208, 209, -1,
      197, 209, 196, -1,
      196, 209, 210, -1,
      196, 210, 195, -1,
      195, 210, 211, -1,
      195, 211, 194, -1,
      194, 211, 212, -1,
      194, 212, 193, -1,
      193, 212, 213, -1,
      193, 213, 192, -1,
      192, 213, 214, -1,
      192, 214, 191, -1,
      191, 214, 215, -1,
      191, 215, 190, -1,
      189, 190, 216, -1,
      216, 190, 215, -1,
      188, 189, 201, -1,
      201, 189, 216, -1,
      217, 218, 17, -1,
      17, 218, 16, -1,
      16, 218, 103, -1,
      103, 218, 219, -1,
      103, 219, 102, -1,
      220, 98, 97, -1,
      220, 97, 221, -1,
      221, 97, 102, -1,
      221, 102, 219, -1,
      220, 222, 98, -1,
      98, 222, 99, -1,
      223, 101, 100, -1,
      223, 100, 224, -1,
      224, 100, 99, -1,
      224, 99, 222, -1,
      101, 223, 15, -1,
      15, 223, 225, -1,
      15, 225, 3, -1,
      225, 226, 3, -1,
      3, 226, 4, -1,
      4, 226, 90, -1,
      90, 226, 227, -1,
      90, 227, 96, -1,
      228, 93, 95, -1,
      228, 95, 229, -1,
      229, 95, 96, -1,
      229, 96, 227, -1,
      228, 230, 93, -1,
      93, 230, 94, -1,
      231, 91, 92, -1,
      231, 92, 232, -1,
      232, 92, 94, -1,
      232, 94, 230, -1,
      91, 231, 89, -1,
      89, 231, 233, -1,
      89, 233, 9, -1,
      233, 234, 9, -1,
      9, 234, 6, -1,
      6, 234, 24, -1,
      24, 234, 235, -1,
      24, 235, 26, -1,
      235, 236, 26, -1,
      26, 236, 58, -1,
      236, 237, 58, -1,
      58, 237, 45, -1,
      238, 41, 43, -1,
      238, 43, 239, -1,
      239, 43, 45, -1,
      239, 45, 237, -1,
      238, 240, 41, -1,
      41, 240, 42, -1,
      241, 57, 44, -1,
      241, 44, 242, -1,
      242, 44, 42, -1,
      242, 42, 240, -1,
      241, 243, 57, -1,
      57, 243, 22, -1,
      243, 244, 22, -1,
      22, 244, 19, -1,
      19, 244, 18, -1,
      18, 244, 217, -1,
      18, 217, 17, -1,
      218, 217, 219, -1,
      219, 217, 244, -1,
      219, 244, 221, -1,
      221, 244, 220, -1,
      234, 233, 235, -1,
      235, 233, 231, -1,
      231, 232, 235, -1,
      235, 232, 230, -1,
      235, 230, 236, -1,
      236, 230, 228, -1,
      238, 226, 240, -1,
      240, 226, 225, -1,
      240, 225, 242, -1,
      242, 225, 241, -1,
      220, 244, 222, -1,
      222, 244, 243, -1,
      222, 243, 224, -1,
      238, 239, 226, -1,
      226, 239, 237, -1,
      226, 237, 227, -1,
      227, 237, 236, -1,
      227, 236, 229, -1,
      229, 236, 228, -1,
      241, 225, 243, -1,
      243, 225, 223, -1,
      243, 223, 224, -1,
      5, 245, 20, -1,
      20, 245, 246, -1,
      20, 246, 21, -1,
      247, 84, 83, -1,
      247, 83, 248, -1,
      248, 83, 82, -1,
      248, 82, 249, -1,
      249, 82, 246, -1,
      246, 82, 59, -1,
      246, 59, 21, -1,
      250, 73, 74, -1,
      250, 74, 251, -1,
      251, 74, 75, -1,
      251, 75, 252, -1,
      252, 75, 81, -1,
      252, 81, 253, -1,
      81, 86, 253, -1,
      253, 86, 88, -1,
      253, 88, 254, -1,
      254, 88, 87, -1,
      254, 87, 255, -1,
      255, 87, 85, -1,
      255, 85, 256, -1,
      256, 85, 84, -1,
      256, 84, 247, -1,
      257, 60, 64, -1,
      257, 64, 258, -1,
      258, 64, 63, -1,
      258, 63, 259, -1,
      259, 63, 62, -1,
      259, 62, 260, -1,
      260, 62, 80, -1,
      260, 80, 261, -1,
      261, 80, 79, -1,
      261, 79, 262, -1,
      262, 79, 73, -1,
      262, 73, 250, -1,
      263, 38, 37, -1,
      263, 37, 264, -1,
      264, 37, 36, -1,
      264, 36, 265, -1,
      265, 36, 35, -1,
      265, 35, 266, -1,
      266, 35, 61, -1,
      266, 61, 267, -1,
      267, 61, 60, -1,
      267, 60, 257, -1,
      268, 55, 54, -1,
      268, 54, 269, -1,
      269, 54, 53, -1,
      269, 53, 270, -1,
      270, 53, 52, -1,
      270, 52, 271, -1,
      271, 52, 51, -1,
      271, 51, 272, -1,
      272, 51, 40, -1,
      272, 40, 273, -1,
      273, 40, 39, -1,
      273, 39, 274, -1,
      274, 39, 38, -1,
      274, 38, 263, -1,
      275, 25, 56, -1,
      275, 56, 276, -1,
      276, 56, 55, -1,
      276, 55, 268, -1,
      275, 277, 25, -1,
      25, 277, 23, -1,
      278, 50, 49, -1,
      278, 49, 279, -1,
      279, 49, 47, -1,
      279, 47, 280, -1,
      280, 47, 23, -1,
      280, 23, 277, -1,
      281, 67, 72, -1,
      281, 72, 282, -1,
      282, 72, 71, -1,
      282, 71, 283, -1,
      283, 71, 70, -1,
      283, 70, 284, -1,
      284, 70, 78, -1,
      284, 78, 285, -1,
      285, 78, 77, -1,
      285, 77, 286, -1,
      286, 77, 76, -1,
      286, 76, 287, -1,
      287, 76, 50, -1,
      287, 50, 278, -1,
      288, 46, 48, -1,
      288, 48, 289, -1,
      289, 48, 69, -1,
      289, 69, 290, -1,
      290, 69, 68, -1,
      290, 68, 291, -1,
      291, 68, 65, -1,
      291, 65, 292, -1,
      292, 65, 66, -1,
      292, 66, 293, -1,
      293, 66, 67, -1,
      293, 67, 281, -1,
      294, 27, 34, -1,
      294, 34, 295, -1,
      295, 34, 33, -1,
      295, 33, 296, -1,
      296, 33, 32, -1,
      296, 32, 297, -1,
      297, 32, 31, -1,
      297, 31, 298, -1,
      298, 31, 46, -1,
      298, 46, 288, -1,
      27, 294, 299, -1,
      300, 12, 11, -1,
      300, 11, 301, -1,
      301, 11, 10, -1,
      301, 10, 302, -1,
      302, 10, 8, -1,
      302, 8, 303, -1,
      303, 8, 7, -1,
      303, 7, 304, -1,
      304, 7, 30, -1,
      304, 30, 305, -1,
      305, 30, 29, -1,
      305, 29, 299, -1,
      299, 29, 28, -1,
      299, 28, 27, -1,
      245, 5, 13, -1,
      245, 13, 306, -1,
      306, 13, 14, -1,
      306, 14, 307, -1,
      307, 14, 12, -1,
      307, 12, 300, -1,
      246, 245, 249, -1,
      249, 245, 306, -1,
      249, 306, 248, -1,
      248, 306, 307, -1,
      248, 307, 247, -1,
      247, 307, 300, -1,
      247, 300, 256, -1,
      256, 300, 301, -1,
      256, 301, 255, -1,
      255, 301, 302, -1,
      255, 302, 254, -1,
      254, 302, 303, -1,
      254, 303, 253, -1,
      253, 303, 304, -1,
      253, 304, 252, -1,
      252, 304, 305, -1,
      252, 305, 251, -1,
      251, 305, 299, -1,
      251, 299, 250, -1,
      250, 299, 294, -1,
      250, 294, 262, -1,
      262, 294, 295, -1,
      262, 295, 261, -1,
      261, 295, 296, -1,
      261, 296, 260, -1,
      260, 296, 297, -1,
      260, 297, 259, -1,
      259, 297, 298, -1,
      259, 298, 258, -1,
      258, 298, 288, -1,
      258, 288, 257, -1,
      257, 288, 289, -1,
      257, 289, 267, -1,
      267, 289, 290, -1,
      267, 290, 266, -1,
      266, 290, 291, -1,
      266, 291, 265, -1,
      265, 291, 292, -1,
      265, 292, 264, -1,
      264, 292, 293, -1,
      264, 293, 263, -1,
      263, 293, 281, -1,
      263, 281, 274, -1,
      274, 281, 282, -1,
      274, 282, 273, -1,
      273, 282, 283, -1,
      273, 283, 272, -1,
      272, 283, 284, -1,
      272, 284, 271, -1,
      271, 284, 285, -1,
      271, 285, 270, -1,
      270, 285, 286, -1,
      270, 286, 269, -1,
      269, 286, 287, -1,
      269, 287, 268, -1,
      268, 287, 278, -1,
      268, 278, 276, -1,
      276, 278, 279, -1,
      276, 279, 275, -1,
      275, 279, 280, -1,
      275, 280, 277, -1,
    ]
  }
}

Shape {
  appearance Appearance {
    material Material {
      diffuseColor 0.9020 0.7843 0.6863
      specularColor 0.4510 0.3922 0.3412
      ambientIntensity 0.2
      transparency 0.0000
      shininess 0.5
    }
  }
  geometry IndexedFaceSet {
    ccw TRUE
    solid FALSE
    coord DEF co Coordinate {
      point [
        0.124681 -0.012626 0.322835,
        0.138185 0.005514 0.322835,
        0.150023 0.024779 0.322835,
        0.150023 -0.012626 0.322835,
      ]
    }
    coordIndex [
      0, 3, 1, -1,
      1, 3, 2, -1,
    ]
  }
}

Shape {
  appearance Appearance {
    material Material {
      diffuseColor 0.5098 0.5098 0.6275
      specularColor 0.2549 0.2549 0.3137
      ambientIntensity 0.2
      transparency 0.0000
      shininess 0.5
    }
  }
  geometry IndexedFaceSet {
    ccw TRUE
    solid FALSE
    coord DEF co Coordinate {
      point [
        0.021440 0.030585 0.322835,
        0.009827 0.030585 0.322835,
        0.030755 0.029596 0.322835,
        0.037255 0.027322 0.322835,
        0.043007 0.023607 0.322835,
        0.046833 0.019547 0.322835,
        0.049569 0.014692 0.322835,
        0.051409 0.008459 0.322835,
        0.052078 0.000623 0.322835,
        0.051355 -0.007648 0.322835,
        0.049045 -0.015049 0.322835,
        0.045724 -0.020478 0.322835,
        0.041308 -0.024840 0.322835,
        0.035938 -0.028029 0.322835,
        0.029312 -0.030097 0.322835,
        0.021005 -0.030870 0.322835,
        0.009827 -0.030870 0.322835,
      ]
    }
    coordIndex [
      1, 16, 0, -1,
      0, 16, 15, -1,
      0, 15, 14, -1,
      8, 7, 0, -1,
      0, 7, 6, -1,
      0, 6, 2, -1,
      14, 13, 0, -1,
      0, 13, 12, -1,
      0, 12, 11, -1,
      11, 10, 0, -1,
      0, 10, 9, -1,
      0, 9, 8, -1,
      5, 4, 6, -1,
      6, 4, 3, -1,
      6, 3, 2, -1,
    ]
  }
}

Shape {
  appearance Appearance {
    material Material {
      diffuseColor 0.9020 0.7843 0.6863
      specularColor 0.4510 0.3922 0.3412
      ambientIntensity 0.2
      transparency 0.0000
      shininess 0.5
    }
  }
  geometry IndexedFaceSet {
    ccw TRUE
    solid FALSE
    coord DEF co Coordinate {
      point [
        0.365862 0.287122 0.007874,
        0.365862 -0.287122 0.007874,
        -0.365862 -0.287122 0.007874,
        -0.393701 -0.275591 0.007874,
        -0.393701 0.275591 0.007874,
        -0.389764 0.275788 0.007874,
        0.374016 0.280865 0.007874,
        0.383511 0.276932 0.007874,
        -0.383511 -0.276932 0.007874,
        -0.374016 -0.280865 0.007874,
        0.355672 0.304771 0.007874,
        0.359605 0.295276 0.007874,
        0.354331 0.314961 0.007874,
        0.355672 -0.304771 0.007874,
        0.359605 -0.295276 0.007874,
        -0.359605 -0.295276 0.007874,
        -0.355672 -0.304771 0.007874,
        -0.354331 -0.314961 0.007874,
        -0.354528 0.311024 0.007874,
        -0.354331 0.314961 0.007874,
        0.354331 -0.314961 0.007874,
        0.393701 0.275591 0.007874,
        0.393701 -0.275591 0.007874,
        0.383511 -0.276932 0.007874,
        0.374016 -0.280865 0.007874,
        0.393701 -0.275591 0.283465,
        0.393701 0.275591 0.283465,
        -0.354331 0.314961 0.283465,
        0.354331 0.314961 0.283465,
        -0.393701 -0.275591 0.283465,
        -0.393701 0.275591 0.283465,
        -0.354331 -0.314961 0.283465,
        0.354331 -0.314961 0.283465,
        0.365862 0.287122 0.283465,
        0.383511 0.276932 0.283465,
        -0.359605 0.295276 0.283465,
        -0.355672 0.304771 0.283465,
        0.355672 0.304771 0.283465,
        0.359605 0.295276 0.283465,
        0.374016 0.280865 0.283465,
        -0.355672 -0.304771 0.283465,
        -0.359605 -0.295276 0.283465,
        0.359605 -0.295276 0.283465,
        0.365862 -0.287122 0.283465,
        0.374016 -0.280865 0.283465,
        0.383511 -0.276932 0.283465,
        0.355672 -0.304771 0.283465,
        -0.365862 -0.287122 0.283465,
        -0.374016 -0.280865 0.283465,
        -0.383511 -0.276932 0.283465,
        -0.365862 0.287122 0.283465,
        -0.374016 0.280865 0.283465,
        -0.383511 0.276932 0.283465,
        -0.354528 0.311024 0.000000,
        -0.355672 0.304771 0.000000,
        -0.359605 0.295276 0.000000,
        -0.365862 0.287122 0.000000,
        -0.374016 0.280865 0.000000,
        -0.383511 0.276932 0.000000,
        -0.389764 0.275788 0.000000,
      ]
    }
    coordIndex [
      29, 3, 49, -1,
      49, 3, 8, -1,
      49, 8, 48, -1,
      48, 8, 9, -1,
      48, 9, 47, -1,
      47, 9, 2, -1,
      47, 2, 41, -1,
      41, 2, 15, -1,
      41, 15, 40, -1,
      40, 15, 16, -1,
      40, 16, 31, -1,
      31, 16, 17, -1,
      32, 20, 46, -1,
      46, 20, 13, -1,
      46, 13, 42, -1,
      42, 13, 14, -1,
      42, 14, 43, -1,
      43, 14, 1, -1,
      43, 1, 44, -1,
      44, 1, 24, -1,
      44, 24, 45, -1,
      45, 24, 23, -1,
      45, 23, 25, -1,
      25, 23, 22, -1,
      18, 53, 54, -1,
      4, 30, 5, -1,
      5, 30, 52, -1,
      36, 27, 19, -1,
      19, 18, 36, -1,
      36, 18, 54, -1,
      36, 54, 35, -1,
      35, 54, 55, -1,
      35, 55, 50, -1,
      50, 55, 56, -1,
      50, 56, 51, -1,
      51, 56, 57, -1,
      51, 57, 52, -1,
      52, 57, 58, -1,
      52, 58, 5, -1,
      5, 58, 59, -1,
      26, 21, 34, -1,
      34, 21, 7, -1,
      34, 7, 39, -1,
      39, 7, 6, -1,
      39, 6, 33, -1,
      33, 6, 0, -1,
      33, 0, 38, -1,
      38, 0, 11, -1,
      38, 11, 37, -1,
      37, 11, 10, -1,
      37, 10, 28, -1,
      28, 10, 12, -1,
    ]
  }
}

Shape {
  appearance Appearance {
    material Material {
      diffuseColor 0.5098 0.5098 0.6275
      specularColor 0.2549 0.2549 0.3137
      ambientIntensity 0.2
      transparency 0.0000
      shininess 0.5
    }
  }
  geometry IndexedFaceSet {
    ccw TRUE
    solid FALSE
    coord DEF co Coordinate {
      point [
        0.257874 0.232283 0.007874,
        0.297244 0.192913 0.007874,
        0.257874 -0.232283 0.007874,
        0.297244 -0.192913 0.007874,
        -0.257874 -0.232283 0.007874,
        -0.297244 -0.192913 0.007874,
        -0.297244 0.074803 0.007874,
        -0.141164 0.232283 0.007874,
        0.257874 -0.232283 0.078740,
        -0.257874 -0.232283 0.078740,
        0.297244 0.192913 0.078740,
        0.297244 -0.192913 0.078740,
        -0.257874 0.232283 0.078740,
        0.257874 0.232283 0.078740,
        -0.297244 0.192913 0.078740,
        -0.297244 -0.192913 0.078740,
        -0.297244 0.074803 0.000000,
        -0.297244 0.192913 0.000000,
        -0.141164 0.232283 0.000000,
        -0.257874 0.232283 0.000000,
      ]
    }
    coordIndex [
      16, 17, 6, -1,
      6, 17, 14, -1,
      6, 14, 5, -1,
      5, 14, 15, -1,
      2, 4, 8, -1,
      8, 4, 9, -1,
      11, 10, 3, -1,
      3, 10, 1, -1,
      0, 13, 7, -1,
      7, 13, 12, -1,
      7, 12, 18, -1,
      18, 12, 19, -1,
    ]
  }
}

Shape {
  appearance Appearance {
    material Material {
      diffuseColor 0.2510 0.2510 0.2510
      specularColor 0.1255 0.1255 0.1255
      ambientIntensity 0.2
      transparency 0.0000
      shininess 0.5
    }
  }
  geometry IndexedFaceSet {
    ccw TRUE
    solid FALSE
    coord DEF co Coordinate {
      point [
        -0.008582 0.124848 0.007874,
        -0.008582 -0.124848 0.007874,
        0.184119 0.124848 0.007874,
        0.184119 -0.019997 0.007874,
        0.184119 -0.124848 0.007874,
        -0.184119 -0.124848 0.007874,
        -0.184119 -0.019997 0.007874,
        -0.184119 0.124848 0.007874,
        -0.184119 -0.124848 0.078740,
        0.184119 -0.124848 0.078740,
        0.184119 0.124848 0.078740,
        -0.184119 0.124848 0.078740,
      ]
    }
    coordIndex [
      11, 7, 8, -1,
      8, 7, 6, -1,
      8, 6, 5, -1,
      10, 2, 11, -1,
      11, 2, 0, -1,
      11, 0, 7, -1,
      2, 10, 3, -1,
      3, 10, 9, -1,
      3, 9, 4, -1,
      4, 9, 1, -1,
      1, 9, 8, -1,
      1, 8, 5, -1,
    ]
  }
}

Shape {
  appearance Appearance {
    material Material {
      diffuseColor 0.9020 0.7843 0.6863
      specularColor 0.4510 0.3922 0.3412
      ambientIntensity 0.2
      transparency 0.0000
      shininess 0.5
    }
  }
  geometry IndexedFaceSet {
    ccw TRUE
    solid FALSE
    coord DEF co Coordinate {
      point [
        0.257874 0.232283 0.007874,
        0.297244 0.192913 0.007874,
        0.291970 0.212598 0.007874,
        0.277559 0.227009 0.007874,
        0.257874 -0.232283 0.007874,
        0.297244 -0.192913 0.007874,
        0.291970 -0.212598 0.007874,
        0.277559 -0.227009 0.007874,
        -0.257874 -0.232283 0.007874,
        -0.297244 -0.192913 0.007874,
        -0.277559 -0.227009 0.007874,
        -0.291970 -0.212598 0.007874,
        -0.141164 0.290264 0.007874,
        -0.232283 0.290264 0.007874,
        -0.232283 0.311024 0.007874,
        -0.389764 0.074803 0.007874,
        -0.389764 0.275788 0.007874,
        0.295903 0.203103 0.007874,
        -0.297244 0.074803 0.007874,
        -0.295903 -0.203103 0.007874,
        0.268064 0.230942 0.007874,
        0.295903 -0.203103 0.007874,
        0.268064 -0.230942 0.007874,
        -0.354528 0.311024 0.007874,
        -0.141164 0.232283 0.007874,
        -0.268064 -0.230942 0.007874,
        -0.285713 -0.220752 0.007874,
        0.285713 0.220752 0.007874,
        0.285713 -0.220752 0.007874,
        -0.277559 -0.227009 0.078740,
        -0.285713 -0.220752 0.078740,
        -0.268064 -0.230942 0.078740,
        0.277559 -0.227009 0.078740,
        0.268064 -0.230942 0.078740,
        0.257874 -0.232283 0.078740,
        -0.257874 -0.232283 0.078740,
        0.291970 0.212598 0.078740,
        0.295903 0.203103 0.078740,
        0.297244 0.192913 0.078740,
        0.297244 -0.192913 0.078740,
        0.295903 -0.203103 0.078740,
        -0.285713 0.220752 0.078740,
        -0.277559 0.227009 0.078740,
        0.291970 -0.212598 0.078740,
        0.285713 -0.220752 0.078740,
        -0.268064 0.230942 0.078740,
        -0.257874 0.232283 0.078740,
        0.257874 0.232283 0.078740,
        0.268064 0.230942 0.078740,
        -0.297244 0.192913 0.078740,
        -0.297244 -0.192913 0.078740,
        -0.295903 0.203103 0.078740,
        -0.291970 0.212598 0.078740,
        0.277559 0.227009 0.078740,
        0.285713 0.220752 0.078740,
        -0.291970 -0.212598 0.078740,
        -0.295903 -0.203103 0.078740,
        -0.354528 0.311024 0.000000,
        -0.355672 0.304771 0.000000,
        -0.359605 0.295276 0.000000,
        -0.365862 0.287122 0.000000,
        -0.374016 0.280865 0.000000,
        -0.383511 0.276932 0.000000,
        -0.389764 0.275788 0.000000,
        -0.297244 0.074803 0.000000,
        -0.297244 0.192913 0.000000,
        -0.141164 0.232283 0.000000,
        -0.257874 0.232283 0.000000,
        -0.389764 0.074803 0.000000,
        -0.141164 0.290264 0.000000,
        -0.277559 0.227009 0.000000,
        -0.285713 0.220752 0.000000,
        -0.232283 0.290264 0.000000,
        -0.268064 0.230942 0.000000,
        -0.295903 0.203103 0.000000,
        -0.232283 0.311024 0.000000,
        -0.291970 0.212598 0.000000,
      ]
    }
    coordIndex [
      15, 68, 18, -1,
      18, 68, 64, -1,
      69, 12, 66, -1,
      66, 12, 24, -1,
      70, 71, 72, -1,
      70, 72, 73, -1,
      64, 68, 65, -1,
      65, 68, 63, -1,
      65, 63, 74, -1,
      57, 75, 58, -1,
      58, 75, 72, -1,
      58, 72, 59, -1,
      59, 72, 71, -1,
      59, 71, 60, -1,
      60, 71, 76, -1,
      60, 76, 61, -1,
      61, 76, 74, -1,
      61, 74, 62, -1,
      62, 74, 63, -1,
      69, 66, 72, -1,
      72, 66, 67, -1,
      72, 67, 73, -1,
      14, 75, 23, -1,
      23, 75, 57, -1,
      68, 15, 63, -1,
      63, 15, 16, -1,
      14, 13, 75, -1,
      75, 13, 72, -1,
      13, 12, 72, -1,
      72, 12, 69, -1,
      4, 34, 22, -1,
      22, 34, 33, -1,
      22, 33, 7, -1,
      7, 33, 32, -1,
      7, 32, 28, -1,
      28, 32, 44, -1,
      28, 44, 6, -1,
      6, 44, 43, -1,
      6, 43, 21, -1,
      21, 43, 40, -1,
      21, 40, 5, -1,
      5, 40, 39, -1,
      9, 50, 19, -1,
      19, 50, 56, -1,
      19, 56, 11, -1,
      11, 56, 55, -1,
      11, 55, 26, -1,
      26, 55, 30, -1,
      26, 30, 10, -1,
      10, 30, 29, -1,
      10, 29, 25, -1,
      25, 29, 31, -1,
      25, 31, 8, -1,
      8, 31, 35, -1,
      67, 46, 73, -1,
      73, 46, 45, -1,
      73, 45, 70, -1,
      70, 45, 42, -1,
      70, 42, 71, -1,
      71, 42, 41, -1,
      71, 41, 76, -1,
      76, 41, 52, -1,
      76, 52, 74, -1,
      74, 52, 51, -1,
      74, 51, 65, -1,
      65, 51, 49, -1,
      1, 38, 17, -1,
      17, 38, 37, -1,
      17, 37, 2, -1,
      2, 37, 36, -1,
      2, 36, 27, -1,
      27, 36, 54, -1,
      27, 54, 3, -1,
      3, 54, 53, -1,
      3, 53, 20, -1,
      20, 53, 48, -1,
      20, 48, 0, -1,
      0, 48, 47, -1,
    ]
  }
}

Shape {
  appearance Appearance {
    material Material {
      diffuseColor 1.0000 1.0000 1.0000
      specularColor 0.8784 0.8784 0.8784
      ambientIntensity 0.2
      transparency 0.0000
      shininess 0.5
    }
  }
  geometry IndexedFaceSet {
    ccw TRUE
    solid FALSE
    coord DEF co Coordinate {
      point [
        -0.004741 -0.015436 0.007874,
        -0.004741 -0.019757 0.007874,
        0.016384 -0.019757 0.007874,
        0.024066 -0.017717 0.007874,
        0.024066 -0.013395 0.007874,
        0.016384 0.019613 0.007874,
        0.011103 0.015292 0.007874,
        0.011103 0.002329 0.007874,
        -0.003781 0.015292 0.007874,
        -0.002821 0.002329 0.007874,
        0.011103 -0.001993 0.007874,
        0.011103 -0.015436 0.007874,
        -0.002821 -0.001993 0.007874,
        0.076880 -0.019757 0.007874,
        0.037214 -0.019997 0.007874,
        0.056714 -0.019757 0.007874,
        0.039750 -0.019734 0.007874,
        0.043567 -0.018420 0.007874,
        -0.003781 0.019613 0.007874,
        0.051276 0.009244 0.007874,
        0.048968 0.012924 0.007874,
        0.071598 0.019613 0.007874,
        0.037163 0.015337 0.007874,
        0.040109 0.014273 0.007874,
        0.024772 -0.013786 0.007874,
        0.042834 0.012450 0.007874,
        0.045212 0.009826 0.007874,
        0.048072 -0.000492 0.007874,
        0.047673 -0.004754 0.007874,
        0.046604 -0.008141 0.007874,
        0.037843 -0.015504 0.007874,
        0.034171 -0.015916 0.007874,
        0.040712 -0.014448 0.007874,
        0.043128 -0.012820 0.007874,
        0.044976 -0.010870 0.007874,
        0.028945 -0.015336 0.007874,
        0.046835 0.006786 0.007874,
        0.047884 0.002571 0.007874,
        0.046733 -0.016398 0.007874,
        0.049691 -0.013285 0.007874,
        0.056714 -0.015436 0.007874,
        0.051788 -0.009541 0.007874,
        0.071598 -0.015436 0.007874,
        0.052973 -0.005374 0.007874,
        0.053354 -0.000815 0.007874,
        0.052787 0.004783 0.007874,
        0.045414 0.016343 0.007874,
        0.041674 0.018495 0.007874,
        0.037285 0.019770 0.007874,
        0.033331 0.020093 0.007874,
        0.028618 0.019768 0.007874,
        0.024066 0.018533 0.007874,
        0.024066 0.013252 0.007874,
        0.028500 0.015150 0.007874,
        0.033286 0.015772 0.007874,
        0.032241 -0.019997 0.007874,
        0.033822 -0.020219 0.007874,
        0.034899 -0.020237 0.007874,
        0.076880 0.019613 0.007874,
        0.028263 -0.019440 0.007874,
        -0.046992 -0.019757 0.007874,
        -0.042146 -0.008967 0.007874,
        -0.039888 -0.012488 0.007874,
        -0.076760 -0.019757 0.007874,
        -0.082521 -0.019757 0.007874,
        -0.067157 0.019613 0.007874,
        -0.061876 0.019613 0.007874,
        -0.036647 -0.015591 0.007874,
        -0.032537 -0.017980 0.007874,
        -0.028000 -0.019332 0.007874,
        -0.023129 -0.019757 0.007874,
        -0.012424 -0.019757 0.007874,
        -0.012424 0.019613 0.007874,
        -0.023534 0.019613 0.007874,
        -0.038154 0.014480 0.007874,
        -0.040938 0.011393 0.007874,
        -0.042768 0.008007 0.007874,
        -0.029222 0.019005 0.007874,
        -0.033828 0.017387 0.007874,
        -0.038113 0.014516 0.007874,
        -0.052754 -0.019757 0.007874,
        -0.056512 -0.008714 0.007874,
        -0.072776 -0.008714 0.007874,
        -0.043826 0.004128 0.007874,
        -0.044111 0.000423 0.007874,
        -0.043559 -0.004846 0.007874,
        -0.067157 0.019613 0.011811,
        -0.082521 -0.019757 0.011811,
        -0.076760 -0.019757 0.011811,
        -0.072776 -0.008714 0.011811,
        -0.056512 -0.008714 0.011811,
        -0.052754 -0.019757 0.011811,
        -0.046992 -0.019757 0.011811,
        -0.061876 0.019613 0.011811,
        -0.057840 -0.004393 0.011811,
        -0.071006 -0.004393 0.011811,
        -0.063714 0.012051 0.011811,
        -0.064093 0.013417 0.011811,
        -0.064344 0.014812 0.011811,
        -0.064472 0.014812 0.011811,
        -0.064729 0.013421 0.011811,
        -0.065080 0.012051 0.011811,
        -0.057840 -0.004393 0.007874,
        -0.071006 -0.004393 0.007874,
        -0.063714 0.012051 0.007874,
        -0.064093 0.013417 0.007874,
        -0.064344 0.014812 0.007874,
        -0.064472 0.014812 0.007874,
        -0.064729 0.013421 0.007874,
        -0.065080 0.012051 0.007874,
        -0.023129 -0.019757 0.011811,
        -0.012424 -0.019757 0.011811,
        -0.012424 0.019613 0.011811,
        -0.023534 0.019613 0.011811,
        -0.044111 0.000423 0.011811,
        -0.043826 0.004128 0.011811,
        -0.042768 0.008007 0.011811,
        -0.040938 0.011393 0.011811,
        -0.038154 0.014480 0.011811,
        -0.038113 0.014516 0.011811,
        -0.033828 0.017387 0.011811,
        -0.029222 0.019005 0.011811,
        -0.028000 -0.019332 0.011811,
        -0.032537 -0.017980 0.011811,
        -0.036647 -0.015591 0.011811,
        -0.039888 -0.012488 0.011811,
        -0.042146 -0.008967 0.011811,
        -0.043559 -0.004846 0.011811,
        -0.036209 0.009771 0.011811,
        -0.034296 0.011802 0.011811,
        -0.031421 0.013659 0.011811,
        -0.028171 0.014796 0.011811,
        -0.023511 0.015292 0.011811,
        -0.017705 0.015292 0.011811,
        -0.017705 -0.015436 0.011811,
        -0.023294 -0.015436 0.011811,
        -0.027447 -0.015049 0.011811,
        -0.030760 -0.014015 0.011811,
        -0.033445 -0.012421 0.011811,
        -0.035654 -0.010240 0.011811,
        -0.037314 -0.007525 0.011811,
        -0.038469 -0.003824 0.011811,
        -0.038830 0.000311 0.011811,
        -0.038496 0.004229 0.011811,
        -0.037577 0.007343 0.011811,
        -0.023511 0.015292 0.007874,
        -0.017705 0.015292 0.007874,
        -0.028171 0.014796 0.007874,
        -0.031421 0.013659 0.007874,
        -0.034296 0.011802 0.007874,
        -0.036209 0.009771 0.007874,
        -0.037577 0.007343 0.007874,
        -0.038496 0.004229 0.007874,
        -0.038830 0.000311 0.007874,
        -0.038469 -0.003824 0.007874,
        -0.037314 -0.007525 0.007874,
        -0.035654 -0.010240 0.007874,
        -0.033445 -0.012421 0.007874,
        -0.030760 -0.014015 0.007874,
        -0.027447 -0.015049 0.007874,
        -0.023294 -0.015436 0.007874,
        -0.017705 -0.015436 0.007874,
        -0.004741 -0.015436 0.011811,
        -0.004741 -0.019757 0.011811,
        0.016384 -0.019757 0.011811,
        0.016384 0.019613 0.011811,
        -0.003781 0.019613 0.011811,
        -0.003781 0.015292 0.011811,
        0.011103 0.015292 0.011811,
        0.011103 0.002329 0.011811,
        -0.002821 0.002329 0.011811,
        -0.002821 -0.001993 0.011811,
        0.011103 -0.001993 0.011811,
        0.011103 -0.015436 0.011811,
        0.024066 -0.013395 0.011811,
        0.024066 -0.017717 0.011811,
        0.028263 -0.019440 0.011811,
        0.034899 -0.020237 0.011811,
        0.033822 -0.020219 0.011811,
        0.053354 -0.000815 0.011811,
        0.052973 -0.005374 0.011811,
        0.051788 -0.009541 0.011811,
        0.049691 -0.013285 0.011811,
        0.046733 -0.016398 0.011811,
        0.043567 -0.018420 0.011811,
        0.039750 -0.019734 0.011811,
        0.033331 0.020093 0.011811,
        0.037285 0.019770 0.011811,
        0.041674 0.018495 0.011811,
        0.045414 0.016343 0.011811,
        0.048968 0.012924 0.011811,
        0.051276 0.009244 0.011811,
        0.052787 0.004783 0.011811,
        0.024066 0.018533 0.011811,
        0.028618 0.019768 0.011811,
        0.024066 0.013252 0.011811,
        0.033286 0.015772 0.011811,
        0.028500 0.015150 0.011811,
        0.048072 -0.000492 0.011811,
        0.047884 0.002571 0.011811,
        0.046835 0.006786 0.011811,
        0.045212 0.009826 0.011811,
        0.042834 0.012450 0.011811,
        0.040109 0.014273 0.011811,
        0.037163 0.015337 0.011811,
        0.034171 -0.015916 0.011811,
        0.037843 -0.015504 0.011811,
        0.040712 -0.014448 0.011811,
        0.043128 -0.012820 0.011811,
        0.044976 -0.010870 0.011811,
        0.046604 -0.008141 0.011811,
        0.047673 -0.004754 0.011811,
        0.024772 -0.013786 0.011811,
        0.028945 -0.015336 0.011811,
        0.056714 -0.015436 0.011811,
        0.056714 -0.019757 0.011811,
        0.076880 -0.019757 0.011811,
        0.076880 0.019613 0.011811,
        0.071598 0.019613 0.011811,
        0.071598 -0.015436 0.011811,
      ]
    }
    coordIndex [
      86, 87, 65, -1,
      65, 87, 64, -1,
      87, 88, 64, -1,
      64, 88, 63, -1,
      88, 89, 63, -1,
      63, 89, 82, -1,
      89, 90, 82, -1,
      82, 90, 81, -1,
      90, 91, 81, -1,
      81, 91, 80, -1,
      91, 92, 80, -1,
      80, 92, 60, -1,
      92, 93, 60, -1,
      60, 93, 66, -1,
      93, 86, 66, -1,
      66, 86, 65, -1,
      94, 90, 95, -1,
      95, 90, 89, -1,
      96, 93, 94, -1,
      94, 93, 92, -1,
      94, 92, 90, -1,
      90, 92, 91, -1,
      96, 97, 93, -1,
      93, 97, 98, -1,
      93, 98, 86, -1,
      86, 98, 99, -1,
      86, 99, 100, -1,
      100, 101, 86, -1,
      86, 101, 95, -1,
      86, 95, 87, -1,
      87, 95, 89, -1,
      87, 89, 88, -1,
      94, 95, 102, -1,
      102, 95, 103, -1,
      96, 94, 104, -1,
      104, 94, 102, -1,
      96, 104, 105, -1,
      96, 105, 97, -1,
      97, 105, 106, -1,
      97, 106, 98, -1,
      99, 98, 107, -1,
      107, 98, 106, -1,
      99, 107, 108, -1,
      99, 108, 100, -1,
      100, 108, 109, -1,
      100, 109, 101, -1,
      95, 101, 103, -1,
      103, 101, 109, -1,
      110, 111, 70, -1,
      70, 111, 71, -1,
      111, 112, 71, -1,
      71, 112, 72, -1,
      112, 113, 72, -1,
      72, 113, 73, -1,
      114, 84, 83, -1,
      114, 83, 115, -1,
      115, 83, 76, -1,
      115, 76, 116, -1,
      116, 76, 75, -1,
      116, 75, 117, -1,
      117, 75, 74, -1,
      117, 74, 118, -1,
      118, 74, 79, -1,
      118, 79, 119, -1,
      119, 79, 78, -1,
      119, 78, 120, -1,
      120, 78, 77, -1,
      120, 77, 121, -1,
      121, 77, 73, -1,
      121, 73, 113, -1,
      110, 70, 69, -1,
      110, 69, 122, -1,
      122, 69, 68, -1,
      122, 68, 123, -1,
      123, 68, 67, -1,
      123, 67, 124, -1,
      124, 67, 62, -1,
      124, 62, 125, -1,
      125, 62, 61, -1,
      125, 61, 126, -1,
      126, 61, 85, -1,
      126, 85, 127, -1,
      127, 85, 84, -1,
      127, 84, 114, -1,
      116, 117, 128, -1,
      128, 117, 118, -1,
      128, 118, 129, -1,
      129, 118, 119, -1,
      129, 119, 130, -1,
      130, 119, 120, -1,
      130, 120, 131, -1,
      131, 120, 121, -1,
      131, 121, 132, -1,
      132, 121, 113, -1,
      132, 113, 133, -1,
      133, 113, 112, -1,
      133, 112, 134, -1,
      134, 112, 111, -1,
      134, 111, 135, -1,
      135, 111, 110, -1,
      135, 110, 136, -1,
      136, 110, 122, -1,
      136, 122, 137, -1,
      137, 122, 123, -1,
      137, 123, 138, -1,
      138, 123, 124, -1,
      138, 124, 139, -1,
      139, 124, 125, -1,
      139, 125, 140, -1,
      140, 125, 126, -1,
      140, 126, 141, -1,
      141, 126, 127, -1,
      141, 127, 142, -1,
      142, 127, 114, -1,
      142, 114, 143, -1,
      143, 114, 115, -1,
      143, 115, 144, -1,
      144, 115, 116, -1,
      144, 116, 128, -1,
      132, 133, 145, -1,
      145, 133, 146, -1,
      132, 145, 147, -1,
      132, 147, 131, -1,
      131, 147, 148, -1,
      131, 148, 130, -1,
      130, 148, 149, -1,
      130, 149, 129, -1,
      129, 149, 150, -1,
      129, 150, 128, -1,
      128, 150, 151, -1,
      128, 151, 144, -1,
      144, 151, 152, -1,
      144, 152, 143, -1,
      143, 152, 153, -1,
      143, 153, 142, -1,
      142, 153, 154, -1,
      142, 154, 141, -1,
      141, 154, 155, -1,
      141, 155, 140, -1,
      140, 155, 156, -1,
      140, 156, 139, -1,
      139, 156, 157, -1,
      139, 157, 138, -1,
      138, 157, 158, -1,
      138, 158, 137, -1,
      137, 158, 159, -1,
      137, 159, 136, -1,
      136, 159, 160, -1,
      136, 160, 135, -1,
      134, 135, 161, -1,
      161, 135, 160, -1,
      133, 134, 146, -1,
      146, 134, 161, -1,
      162, 163, 0, -1,
      0, 163, 1, -1,
      163, 164, 1, -1,
      1, 164, 2, -1,
      164, 165, 2, -1,
      2, 165, 5, -1,
      165, 166, 5, -1,
      5, 166, 18, -1,
      166, 167, 18, -1,
      18, 167, 8, -1,
      167, 168, 8, -1,
      8, 168, 6, -1,
      168, 169, 6, -1,
      6, 169, 7, -1,
      169, 170, 7, -1,
      7, 170, 9, -1,
      170, 171, 9, -1,
      9, 171, 12, -1,
      171, 172, 12, -1,
      12, 172, 10, -1,
      172, 173, 10, -1,
      10, 173, 11, -1,
      173, 162, 11, -1,
      11, 162, 0, -1,
      164, 163, 162, -1,
      162, 173, 164, -1,
      164, 173, 172, -1,
      164, 172, 165, -1,
      167, 166, 168, -1,
      168, 166, 165, -1,
      168, 165, 169, -1,
      169, 165, 172, -1,
      169, 172, 170, -1,
      170, 172, 171, -1,
      174, 175, 4, -1,
      4, 175, 3, -1,
      3, 175, 176, -1,
      177, 57, 56, -1,
      177, 56, 178, -1,
      178, 56, 55, -1,
      178, 55, 176, -1,
      176, 55, 59, -1,
      176, 59, 3, -1,
      179, 44, 43, -1,
      179, 43, 180, -1,
      180, 43, 41, -1,
      180, 41, 181, -1,
      181, 41, 39, -1,
      181, 39, 182, -1,
      182, 39, 38, -1,
      182, 38, 183, -1,
      183, 38, 17, -1,
      183, 17, 184, -1,
      184, 17, 16, -1,
      184, 16, 185, -1,
      185, 16, 177, -1,
      177, 16, 14, -1,
      177, 14, 57, -1,
      186, 49, 48, -1,
      186, 48, 187, -1,
      187, 48, 47, -1,
      187, 47, 188, -1,
      188, 47, 46, -1,
      188, 46, 189, -1,
      189, 46, 20, -1,
      189, 20, 190, -1,
      190, 20, 19, -1,
      190, 19, 191, -1,
      191, 19, 45, -1,
      191, 45, 192, -1,
      192, 45, 44, -1,
      192, 44, 179, -1,
      193, 51, 50, -1,
      193, 50, 194, -1,
      194, 50, 49, -1,
      194, 49, 186, -1,
      193, 195, 51, -1,
      51, 195, 52, -1,
      196, 54, 53, -1,
      196, 53, 197, -1,
      197, 53, 52, -1,
      197, 52, 195, -1,
      198, 27, 37, -1,
      198, 37, 199, -1,
      199, 37, 36, -1,
      199, 36, 200, -1,
      200, 36, 26, -1,
      200, 26, 201, -1,
      201, 26, 25, -1,
      201, 25, 202, -1,
      202, 25, 23, -1,
      202, 23, 203, -1,
      203, 23, 22, -1,
      203, 22, 204, -1,
      204, 22, 54, -1,
      204, 54, 196, -1,
      205, 31, 30, -1,
      205, 30, 206, -1,
      206, 30, 32, -1,
      206, 32, 207, -1,
      207, 32, 33, -1,
      207, 33, 208, -1,
      208, 33, 34, -1,
      208, 34, 209, -1,
      209, 34, 29, -1,
      209, 29, 210, -1,
      210, 29, 28, -1,
      210, 28, 211, -1,
      211, 28, 27, -1,
      211, 27, 198, -1,
      174, 4, 24, -1,
      174, 24, 212, -1,
      212, 24, 35, -1,
      212, 35, 213, -1,
      213, 35, 31, -1,
      213, 31, 205, -1,
      206, 177, 205, -1,
      205, 177, 178, -1,
      205, 178, 213, -1,
      213, 178, 176, -1,
      213, 176, 212, -1,
      212, 176, 175, -1,
      212, 175, 174, -1,
      195, 193, 197, -1,
      197, 193, 194, -1,
      197, 194, 196, -1,
      196, 194, 186, -1,
      196, 186, 204, -1,
      204, 186, 187, -1,
      204, 187, 203, -1,
      203, 187, 188, -1,
      203, 188, 202, -1,
      202, 188, 189, -1,
      202, 189, 201, -1,
      201, 189, 190, -1,
      201, 190, 200, -1,
      200, 190, 191, -1,
      200, 191, 199, -1,
      199, 191, 192, -1,
      199, 192, 198, -1,
      198, 192, 179, -1,
      198, 179, 211, -1,
      211, 179, 180, -1,
      211, 180, 210, -1,
      210, 180, 181, -1,
      210, 181, 209, -1,
      209, 181, 182, -1,
      209, 182, 208, -1,
      208, 182, 183, -1,
      208, 183, 207, -1,
      207, 183, 184, -1,
      207, 184, 206, -1,
      206, 184, 185, -1,
      206, 185, 177, -1,
      214, 215, 40, -1,
      40, 215, 15, -1,
      215, 216, 15, -1,
      15, 216, 13, -1,
      216, 217, 13, -1,
      13, 217, 58, -1,
      217, 218, 58, -1,
      58, 218, 21, -1,
      218, 219, 21, -1,
      21, 219, 42, -1,
      219, 214, 42, -1,
      42, 214, 40, -1,
      218, 217, 219, -1,
      219, 217, 216, -1,
      219, 216, 214, -1,
      214, 216, 215, -1,
    ]
  }
}

Shape {
  appearance Appearance {
    material Material {
      diffuseColor 0.2510 0.2510 0.2510
      specularColor 0.1255 0.1255 0.1255
      ambientIntensity 0.2
      transparency 0.0000
      shininess 0.5
    }
  }
  geometry IndexedFaceSet {
    ccw TRUE
    solid FALSE
    coord DEF co Coordinate {
      point [
        -0.057840 -0.004393 0.007874,
        -0.071006 -0.004393 0.007874,
        -0.063714 0.012051 0.007874,
        -0.064093 0.013417 0.007874,
        -0.064344 0.014812 0.007874,
        -0.064472 0.014812 0.007874,
        -0.064729 0.013421 0.007874,
        -0.065080 0.012051 0.007874,
        -0.023511 0.015292 0.007874,
        -0.017705 0.015292 0.007874,
        -0.028171 0.014796 0.007874,
        -0.031421 0.013659 0.007874,
        -0.034296 0.011802 0.007874,
        -0.036209 0.009771 0.007874,
        -0.037577 0.007343 0.007874,
        -0.038496 0.004229 0.007874,
        -0.038830 0.000311 0.007874,
        -0.038469 -0.003824 0.007874,
        -0.037314 -0.007525 0.007874,
        -0.035654 -0.010240 0.007874,
        -0.033445 -0.012421 0.007874,
        -0.030760 -0.014015 0.007874,
        -0.027447 -0.015049 0.007874,
        -0.023294 -0.015436 0.007874,
        -0.017705 -0.015436 0.007874,
      ]
    }
    coordIndex [
      0, 1, 2, -1,
      2, 1, 7, -1,
      2, 7, 3, -1,
      3, 7, 6, -1,
      3, 6, 4, -1,
      4, 6, 5, -1,
      9, 24, 8, -1,
      8, 24, 23, -1,
      8, 23, 22, -1,
      16, 15, 8, -1,
      8, 15, 14, -1,
      8, 14, 10, -1,
      22, 21, 8, -1,
      8, 21, 20, -1,
      8, 20, 19, -1,
      19, 18, 8, -1,
      8, 18, 17, -1,
      8, 17, 16, -1,
      13, 12, 14, -1,
      14, 12, 11, -1,
      14, 11, 10, -1,
    ]
  }
}
