#VRML V2.0 utf8

Shape {
  appearance Appearance {
    material Material {
      diffuseColor 0.5098 0.5098 0.6275
      specularColor 0.2549 0.2549 0.3137
      ambientIntensity 0.2
      transparency 0.0000
      shininess 0.5
    }
  }
  geometry IndexedFaceSet {
    ccw TRUE
    solid FALSE
    coord DEF co Coordinate {
      point [
        0.393701 0.196850 0.003937,
        0.393701 0.196850 0.200787,
        0.393701 -0.045266 0.003937,
        0.393701 -0.196850 0.200787,
        0.393701 -0.196850 0.003937,
        -0.354331 0.236220 0.003937,
        -0.354331 0.236220 0.200787,
        0.046435 0.236220 0.003937,
        0.354331 0.236220 0.200787,
        0.354331 0.236220 0.003937,
        -0.393701 0.196850 0.200787,
        -0.393701 0.196850 0.003937,
        -0.393701 -0.196850 0.200787,
        -0.393701 -0.045266 0.003937,
        -0.393701 -0.196850 0.003937,
        -0.354331 -0.236220 0.200787,
        -0.354331 -0.236220 0.003937,
        0.354331 -0.236220 0.200787,
        0.046435 -0.236220 0.003937,
        0.354331 -0.236220 0.003937,
        0.355672 -0.226031 0.003937,
        0.072557 0.026272 0.003937,
        0.080311 0.025402 0.003937,
        0.055529 -0.032844 0.003937,
        0.070467 -0.045266 0.003937,
        0.046435 -0.045266 0.003937,
        0.062511 -0.044151 0.003937,
        0.054118 -0.040705 0.003937,
        0.159744 -0.044786 0.003937,
        0.080414 -0.045266 0.003937,
        0.119414 -0.044786 0.003937,
        0.085487 -0.044740 0.003937,
        0.093162 -0.042092 0.003937,
        0.355672 0.226031 0.003937,
        0.149182 0.033954 0.003937,
        0.159744 0.033954 0.003937,
        0.359605 0.216535 0.003937,
        0.062987 0.025029 0.003937,
        0.054118 -0.032063 0.003937,
        0.054118 0.021231 0.003937,
        0.054118 0.031794 0.003937,
        0.086204 0.023275 0.003937,
        0.091654 0.019629 0.003937,
        0.096409 0.014380 0.003937,
        0.102130 -0.006256 0.003937,
        0.101333 -0.014780 0.003937,
        0.099185 -0.021572 0.003937,
        0.081721 -0.036268 0.003937,
        0.074328 -0.037104 0.003937,
        0.087456 -0.034144 0.003937,
        0.092284 -0.030874 0.003937,
        0.095926 -0.027027 0.003937,
        0.063876 -0.035944 0.003937,
        0.099656 0.008300 0.003937,
        0.101754 -0.000130 0.003937,
        0.365862 0.208381 0.003937,
        0.374016 0.202125 0.003937,
        0.383511 0.198192 0.003937,
        0.099492 -0.038035 0.003937,
        0.105396 -0.031802 0.003937,
        0.119414 -0.036144 0.003937,
        0.109580 -0.024310 0.003937,
        0.149182 -0.036144 0.003937,
        0.108680 0.012911 0.003937,
        0.104126 0.020322 0.003937,
        0.097107 0.027193 0.003937,
        0.089651 0.031581 0.003937,
        0.080877 0.034212 0.003937,
        0.111940 -0.015971 0.003937,
        0.112693 -0.006901 0.003937,
        0.111667 0.003787 0.003937,
        0.072647 0.034915 0.003937,
        0.063221 0.034264 0.003937,
        0.383511 -0.198192 0.003937,
        0.374016 -0.202125 0.003937,
        0.365862 -0.208381 0.003937,
        0.075783 -0.045746 0.003937,
        0.359605 -0.216535 0.003937,
        0.073630 -0.045709 0.003937,
        -0.355672 -0.226031 0.003937,
        -0.359605 -0.216535 0.003937,
        -0.365862 -0.208381 0.003937,
        -0.374016 -0.202125 0.003937,
        -0.383511 -0.198192 0.003937,
        -0.087999 -0.044786 0.003937,
        -0.078372 -0.023065 0.003937,
        -0.073891 -0.030124 0.003937,
        -0.003497 -0.044786 0.003937,
        0.038754 -0.044786 0.003937,
        0.038754 0.033954 0.003937,
        -0.001577 0.033954 0.003937,
        -0.355672 0.226031 0.003937,
        -0.128329 0.033954 0.003937,
        -0.067437 -0.036355 0.003937,
        -0.059266 -0.041155 0.003937,
        -0.050199 -0.043901 0.003937,
        -0.117767 0.033954 0.003937,
        -0.051969 0.032848 0.003937,
        -0.061204 0.029731 0.003937,
        -0.077917 0.014255 0.003937,
        -0.080914 0.006544 0.003937,
        0.028191 0.025312 0.003937,
        0.028191 -0.000615 0.003937,
        -0.001577 0.025312 0.003937,
        0.000344 -0.000615 0.003937,
        -0.018861 0.033954 0.003937,
        0.000344 -0.009257 0.003937,
        0.028191 -0.009257 0.003937,
        0.028191 -0.036144 0.003937,
        -0.003497 -0.036144 0.003937,
        -0.018861 -0.044786 0.003937,
        -0.040272 -0.044786 0.003937,
        -0.159057 -0.044786 0.003937,
        -0.147534 -0.044786 0.003937,
        -0.069131 0.024696 0.003937,
        -0.073417 0.020626 0.003937,
        -0.082162 -0.001845 0.003937,
        -0.082237 -0.004426 0.003937,
        -0.081167 -0.014808 0.003937,
        -0.041082 0.033954 0.003937,
        -0.383511 0.198192 0.003937,
        -0.374016 0.202125 0.003937,
        -0.365862 0.208381 0.003937,
        -0.359605 0.216535 0.003937,
        -0.139567 -0.022700 0.003937,
        -0.107039 -0.022700 0.003937,
        -0.099522 -0.044786 0.003937,
        0.171148 -0.020196 0.240157,
        0.159625 -0.020196 0.240157,
        0.159625 -0.024998 0.240157,
        -0.092919 -0.038441 0.240157,
        -0.102522 -0.038441 0.240157,
        -0.342031 -0.213175 0.240157,
        -0.059311 -0.038441 0.240157,
        -0.065072 -0.038441 0.240157,
        -0.011298 -0.213175 0.240157,
        -0.102522 -0.024998 0.240157,
        -0.118990 -0.024998 0.240157,
        -0.119966 -0.027663 0.240157,
        -0.122509 -0.031355 0.240157,
        -0.125802 -0.034230 0.240157,
        -0.130252 -0.036665 0.240157,
        -0.137937 -0.038807 0.240157,
        -0.146078 -0.039401 0.240157,
        -0.351873 -0.210538 0.240157,
        -0.163374 -0.036527 0.240157,
        -0.355950 -0.207409 0.240157,
        -0.359078 -0.203333 0.240157,
        -0.156212 -0.038357 0.240157,
        -0.347126 -0.212504 0.240157,
        -0.053499 -0.024998 0.240157,
        -0.031463 -0.038441 0.240157,
        -0.021861 -0.038441 0.240157,
        -0.011298 -0.024998 0.240157,
        -0.021861 -0.024998 0.240157,
        -0.021861 0.040299 0.240157,
        -0.165898 -0.023797 0.240157,
        -0.342031 0.213175 0.240157,
        -0.347126 0.212504 0.240157,
        -0.034344 0.040299 0.240157,
        -0.011298 0.213175 0.240157,
        -0.351873 0.210538 0.240157,
        -0.355950 0.207409 0.240157,
        -0.359078 0.203333 0.240157,
        -0.361045 0.198585 0.240157,
        -0.361716 0.193490 0.240157,
        -0.165898 -0.024998 0.240157,
        -0.361716 -0.024998 0.240157,
        -0.165898 -0.035320 0.240157,
        -0.361716 -0.193490 0.240157,
        -0.361045 -0.198585 0.240157,
        -0.120767 0.027576 0.240157,
        -0.120767 0.039099 0.240157,
        -0.102522 0.040299 0.240157,
        -0.117933 -0.016857 0.240157,
        -0.117886 -0.018141 0.240157,
        -0.118506 -0.023673 0.240157,
        -0.160763 0.007044 0.240157,
        -0.163372 0.010489 0.240157,
        -0.128596 -0.000446 0.240157,
        -0.123326 -0.004853 0.240157,
        -0.120428 -0.008719 0.240157,
        -0.118681 -0.012677 0.240157,
        -0.165865 0.018994 0.240157,
        -0.165898 0.020134 0.240157,
        -0.165193 0.025575 0.240157,
        -0.163654 0.029343 0.240157,
        -0.062267 -0.023077 0.240157,
        -0.061906 -0.023077 0.240157,
        -0.063850 -0.018207 0.240157,
        -0.060077 -0.018149 0.240157,
        -0.065777 -0.013460 0.240157,
        -0.165146 0.014622 0.240157,
        -0.138606 0.005190 0.240157,
        -0.126720 0.030667 0.240157,
        -0.145925 0.009068 0.240157,
        -0.133451 0.032276 0.240157,
        -0.138891 0.032617 0.240157,
        -0.163944 -0.024998 0.240157,
        -0.146648 -0.002207 0.240157,
        -0.156404 0.003437 0.240157,
        -0.161179 0.032762 0.240157,
        -0.157798 0.035696 0.240157,
        -0.153370 0.038240 0.240157,
        -0.146756 0.040410 0.240157,
        -0.138051 0.041259 0.240157,
        -0.129309 0.040885 0.240157,
        -0.058170 -0.013250 0.240157,
        -0.089078 0.040299 0.240157,
        -0.131609 -0.011336 0.240157,
        -0.134850 -0.008586 0.240157,
        -0.135946 -0.007886 0.240157,
        -0.154161 0.015993 0.240157,
        -0.154989 0.018165 0.240157,
        -0.155335 0.021169 0.240157,
        -0.152829 0.014040 0.240157,
        -0.150415 0.011923 0.240157,
        -0.128448 -0.019011 0.240157,
        -0.128781 -0.022117 0.240157,
        -0.129688 -0.024573 0.240157,
        -0.153244 0.027367 0.240157,
        -0.154392 0.025581 0.240157,
        -0.155088 0.023555 0.240157,
        -0.128791 -0.016217 0.240157,
        -0.129683 -0.013977 0.240157,
        -0.144404 0.032117 0.240157,
        -0.148583 0.030780 0.240157,
        -0.151450 0.029091 0.240157,
        -0.129972 -0.024998 0.240157,
        -0.160142 -0.027335 0.240157,
        -0.150821 -0.030200 0.240157,
        -0.144907 -0.030759 0.240157,
        -0.139190 -0.030319 0.240157,
        -0.130730 -0.026134 0.240157,
        -0.135194 -0.029238 0.240157,
        -0.132370 -0.027679 0.240157,
        -0.092919 -0.024998 0.240157,
        -0.070820 -0.024998 0.240157,
        -0.092919 0.013652 0.240157,
        -0.092975 0.021696 0.240157,
        -0.092919 0.029736 0.240157,
        -0.093219 0.029736 0.240157,
        -0.091923 0.025467 0.240157,
        -0.090609 0.021289 0.240157,
        -0.031234 0.021934 0.240157,
        -0.030698 0.029736 0.240157,
        -0.030954 0.029736 0.240157,
        -0.031968 0.025691 0.240157,
        -0.033294 0.021739 0.240157,
        -0.031463 0.014117 0.240157,
        -0.031463 -0.024998 0.240157,
        0.061570 -0.008464 0.240157,
        0.058776 -0.016720 0.240157,
        0.075124 -0.011554 0.240157,
        0.104891 -0.011554 0.240157,
        0.113533 -0.012004 0.240157,
        0.104891 -0.003872 0.240157,
        0.130971 0.010254 0.240157,
        0.146526 0.034931 0.240157,
        0.054294 -0.023780 0.240157,
        0.053032 -0.024998 0.240157,
        0.113533 -0.020196 0.240157,
        0.159625 0.040299 0.240157,
        0.159625 -0.011554 0.240157,
        0.171148 -0.011554 0.240157,
        0.342031 0.213175 0.240157,
        0.149363 0.040299 0.240157,
        0.361716 -0.024998 0.240157,
        0.361716 0.193490 0.240157,
        0.361045 0.198585 0.240157,
        0.062641 0.001919 0.240157,
        0.075124 -0.003872 0.240157,
        0.062565 0.004500 0.240157,
        -0.000736 0.040299 0.240157,
        0.021485 0.040299 0.240157,
        0.053820 0.026971 0.240157,
        0.058320 0.020600 0.240157,
        0.359078 0.203333 0.240157,
        0.355950 0.207409 0.240157,
        0.351873 0.210538 0.240157,
        0.347126 0.212504 0.240157,
        0.032372 0.039193 0.240157,
        0.041607 0.036076 0.240157,
        0.049534 0.031041 0.240157,
        0.061317 0.012888 0.240157,
        0.361716 -0.193490 0.240157,
        0.159625 -0.038441 0.240157,
        0.342031 -0.213175 0.240157,
        0.150023 -0.038441 0.240157,
        0.347126 -0.212504 0.240157,
        0.351873 -0.210538 0.240157,
        0.355950 -0.207409 0.240157,
        0.359078 -0.203333 0.240157,
        0.361045 -0.198585 0.240157,
        0.150023 -0.020196 0.240157,
        0.150023 -0.024998 0.240157,
        0.047840 -0.030011 0.240157,
        0.039669 -0.034810 0.240157,
        0.030602 -0.037557 0.240157,
        0.020675 -0.038441 0.240157,
        -0.000736 -0.038441 0.240157,
        -0.000736 -0.024998 0.240157,
        -0.361045 0.198585 0.200787,
        -0.359078 0.203333 0.200787,
        -0.365862 0.208381 0.200787,
        0.351873 0.210538 0.200787,
        0.355950 0.207409 0.200787,
        0.359605 0.216535 0.200787,
        0.359605 -0.216535 0.200787,
        0.365862 -0.208381 0.200787,
        0.359078 -0.203333 0.200787,
        0.355672 0.226031 0.200787,
        -0.355672 0.226031 0.200787,
        0.361045 -0.198585 0.200787,
        0.374016 -0.202125 0.200787,
        0.361716 -0.193490 0.200787,
        0.383511 -0.198192 0.200787,
        -0.359605 0.216535 0.200787,
        -0.355950 0.207409 0.200787,
        -0.351873 0.210538 0.200787,
        -0.347126 0.212504 0.200787,
        0.374016 0.202125 0.200787,
        0.361716 0.193490 0.200787,
        0.383511 0.198192 0.200787,
        0.365862 0.208381 0.200787,
        0.359078 0.203333 0.200787,
        0.361045 0.198585 0.200787,
        0.355950 -0.207409 0.200787,
        0.351873 -0.210538 0.200787,
        0.355672 -0.226031 0.200787,
        0.347126 -0.212504 0.200787,
        0.342031 -0.213175 0.200787,
        -0.383511 0.198192 0.200787,
        -0.383511 -0.198192 0.200787,
        -0.374016 0.202125 0.200787,
        -0.361716 0.193490 0.200787,
        -0.342031 0.213175 0.200787,
        0.342031 0.213175 0.200787,
        0.347126 0.212504 0.200787,
        -0.342031 -0.213175 0.200787,
        -0.347126 -0.212504 0.200787,
        -0.355672 -0.226031 0.200787,
        -0.351873 -0.210538 0.200787,
        -0.359605 -0.216535 0.200787,
        -0.355950 -0.207409 0.200787,
        -0.365862 -0.208381 0.200787,
        -0.359078 -0.203333 0.200787,
        -0.374016 -0.202125 0.200787,
        -0.361045 -0.198585 0.200787,
        -0.361716 -0.193490 0.200787,
      ]
    }
    coordIndex [
      0, 1, 2, -1,
      2, 1, 3, -1,
      2, 3, 4, -1,
      5, 6, 7, -1,
      7, 6, 8, -1,
      7, 8, 9, -1,
      10, 11, 12, -1,
      12, 11, 13, -1,
      12, 13, 14, -1,
      15, 16, 17, -1,
      17, 16, 18, -1,
      17, 18, 19, -1,
      20, 19, 18, -1,
      21, 22, 23, -1,
      24, 25, 26, -1,
      26, 25, 27, -1,
      28, 29, 30, -1,
      30, 29, 31, -1,
      30, 31, 32, -1,
      7, 9, 33, -1,
      34, 7, 35, -1,
      35, 7, 33, -1,
      35, 33, 28, -1,
      28, 33, 36, -1,
      21, 23, 37, -1,
      37, 23, 38, -1,
      37, 38, 39, -1,
      39, 38, 7, -1,
      39, 7, 40, -1,
      22, 41, 23, -1,
      23, 41, 42, -1,
      23, 42, 43, -1,
      44, 45, 23, -1,
      23, 45, 46, -1,
      47, 48, 49, -1,
      49, 48, 50, -1,
      46, 51, 23, -1,
      23, 51, 50, -1,
      23, 50, 52, -1,
      52, 50, 48, -1,
      43, 53, 23, -1,
      23, 53, 54, -1,
      23, 54, 44, -1,
      36, 55, 28, -1,
      28, 55, 56, -1,
      28, 56, 57, -1,
      32, 58, 30, -1,
      30, 58, 59, -1,
      30, 59, 60, -1,
      60, 59, 61, -1,
      60, 61, 62, -1,
      63, 64, 34, -1,
      34, 64, 65, -1,
      34, 65, 7, -1,
      7, 65, 66, -1,
      7, 66, 67, -1,
      61, 68, 62, -1,
      62, 68, 69, -1,
      62, 69, 34, -1,
      34, 69, 70, -1,
      34, 70, 63, -1,
      67, 71, 7, -1,
      7, 71, 72, -1,
      7, 72, 40, -1,
      2, 4, 73, -1,
      57, 0, 28, -1,
      28, 0, 2, -1,
      28, 2, 29, -1,
      29, 2, 73, -1,
      73, 74, 29, -1,
      29, 74, 75, -1,
      29, 75, 76, -1,
      20, 25, 77, -1,
      77, 25, 24, -1,
      77, 24, 75, -1,
      75, 24, 78, -1,
      75, 78, 76, -1,
      79, 80, 25, -1,
      20, 18, 25, -1,
      25, 18, 16, -1,
      25, 16, 79, -1,
      81, 82, 13, -1,
      13, 82, 83, -1,
      13, 83, 14, -1,
      84, 85, 86, -1,
      87, 88, 25, -1,
      25, 88, 89, -1,
      90, 5, 89, -1,
      89, 5, 7, -1,
      89, 7, 25, -1,
      25, 7, 38, -1,
      25, 38, 27, -1,
      91, 5, 92, -1,
      86, 93, 84, -1,
      84, 93, 94, -1,
      84, 94, 95, -1,
      92, 5, 96, -1,
      97, 98, 96, -1,
      96, 99, 100, -1,
      101, 102, 103, -1,
      103, 102, 104, -1,
      103, 104, 105, -1,
      105, 104, 106, -1,
      107, 108, 106, -1,
      106, 108, 109, -1,
      106, 109, 105, -1,
      105, 109, 87, -1,
      105, 87, 110, -1,
      110, 87, 25, -1,
      110, 25, 111, -1,
      112, 113, 25, -1,
      98, 114, 96, -1,
      96, 114, 115, -1,
      96, 115, 99, -1,
      100, 116, 96, -1,
      96, 116, 117, -1,
      96, 117, 84, -1,
      84, 117, 118, -1,
      84, 118, 85, -1,
      97, 96, 119, -1,
      119, 96, 5, -1,
      119, 5, 105, -1,
      105, 5, 90, -1,
      105, 90, 103, -1,
      13, 11, 120, -1,
      80, 81, 25, -1,
      25, 81, 13, -1,
      25, 13, 112, -1,
      112, 13, 120, -1,
      120, 121, 112, -1,
      112, 121, 122, -1,
      112, 122, 92, -1,
      92, 122, 123, -1,
      92, 123, 91, -1,
      124, 125, 113, -1,
      113, 125, 126, -1,
      113, 126, 25, -1,
      25, 126, 84, -1,
      25, 84, 111, -1,
      111, 84, 95, -1,
      127, 128, 129, -1,
      130, 131, 132, -1,
      133, 134, 135, -1,
      136, 137, 131, -1,
      131, 137, 138, -1,
      131, 138, 139, -1,
      139, 140, 131, -1,
      131, 140, 141, -1,
      131, 141, 132, -1,
      132, 141, 142, -1,
      132, 142, 143, -1,
      144, 145, 146, -1,
      146, 145, 147, -1,
      143, 148, 132, -1,
      132, 148, 145, -1,
      132, 145, 149, -1,
      149, 145, 144, -1,
      150, 133, 151, -1,
      151, 133, 135, -1,
      151, 135, 152, -1,
      152, 135, 153, -1,
      152, 153, 154, -1,
      154, 153, 155, -1,
      156, 157, 158, -1,
      159, 155, 160, -1,
      158, 161, 156, -1,
      156, 161, 162, -1,
      156, 162, 163, -1,
      163, 164, 156, -1,
      156, 164, 165, -1,
      156, 165, 166, -1,
      166, 165, 167, -1,
      166, 167, 168, -1,
      168, 167, 169, -1,
      168, 169, 145, -1,
      145, 169, 170, -1,
      145, 170, 147, -1,
      171, 136, 172, -1,
      172, 136, 173, -1,
      174, 175, 136, -1,
      136, 175, 176, -1,
      136, 176, 137, -1,
      177, 178, 156, -1,
      179, 180, 171, -1,
      171, 180, 181, -1,
      171, 181, 136, -1,
      136, 181, 182, -1,
      136, 182, 174, -1,
      183, 184, 157, -1,
      157, 184, 185, -1,
      157, 185, 186, -1,
      187, 188, 189, -1,
      189, 188, 190, -1,
      189, 190, 191, -1,
      156, 178, 157, -1,
      157, 178, 192, -1,
      157, 192, 183, -1,
      179, 171, 193, -1,
      193, 171, 194, -1,
      193, 194, 195, -1,
      195, 194, 196, -1,
      195, 196, 197, -1,
      198, 199, 156, -1,
      156, 199, 200, -1,
      156, 200, 177, -1,
      186, 201, 157, -1,
      157, 201, 202, -1,
      157, 202, 203, -1,
      203, 204, 157, -1,
      157, 204, 205, -1,
      157, 205, 206, -1,
      190, 207, 191, -1,
      191, 207, 159, -1,
      191, 159, 208, -1,
      208, 159, 160, -1,
      208, 160, 173, -1,
      173, 160, 157, -1,
      173, 157, 172, -1,
      172, 157, 206, -1,
      209, 210, 198, -1,
      198, 210, 211, -1,
      198, 211, 199, -1,
      212, 197, 213, -1,
      213, 197, 214, -1,
      212, 215, 197, -1,
      197, 215, 216, -1,
      197, 216, 195, -1,
      217, 198, 218, -1,
      218, 198, 219, -1,
      220, 221, 222, -1,
      217, 223, 198, -1,
      198, 223, 224, -1,
      198, 224, 209, -1,
      197, 225, 214, -1,
      214, 225, 226, -1,
      214, 226, 222, -1,
      222, 226, 227, -1,
      222, 227, 220, -1,
      219, 198, 228, -1,
      228, 198, 229, -1,
      228, 229, 230, -1,
      230, 231, 228, -1,
      228, 231, 232, -1,
      228, 232, 233, -1,
      233, 232, 234, -1,
      233, 234, 235, -1,
      132, 135, 130, -1,
      130, 135, 134, -1,
      130, 134, 236, -1,
      236, 134, 237, -1,
      236, 237, 238, -1,
      238, 237, 239, -1,
      240, 241, 242, -1,
      242, 241, 239, -1,
      242, 239, 243, -1,
      243, 239, 237, -1,
      244, 245, 246, -1,
      246, 247, 244, -1,
      244, 247, 248, -1,
      244, 248, 249, -1,
      249, 248, 150, -1,
      249, 150, 250, -1,
      250, 150, 151, -1,
      251, 252, 253, -1,
      254, 255, 256, -1,
      256, 255, 257, -1,
      256, 257, 258, -1,
      252, 259, 253, -1,
      253, 259, 260, -1,
      253, 260, 254, -1,
      254, 260, 261, -1,
      254, 261, 255, -1,
      262, 263, 264, -1,
      265, 160, 266, -1,
      267, 268, 264, -1,
      264, 268, 269, -1,
      251, 253, 270, -1,
      270, 253, 271, -1,
      270, 271, 272, -1,
      155, 153, 160, -1,
      160, 153, 273, -1,
      160, 273, 274, -1,
      266, 275, 276, -1,
      269, 277, 264, -1,
      264, 277, 278, -1,
      264, 278, 279, -1,
      266, 262, 265, -1,
      265, 262, 264, -1,
      265, 264, 280, -1,
      280, 264, 279, -1,
      274, 281, 160, -1,
      160, 281, 282, -1,
      160, 282, 266, -1,
      266, 282, 283, -1,
      266, 283, 275, -1,
      258, 266, 256, -1,
      256, 266, 276, -1,
      256, 276, 271, -1,
      271, 276, 284, -1,
      271, 284, 272, -1,
      264, 127, 267, -1,
      267, 127, 129, -1,
      267, 129, 285, -1,
      285, 129, 286, -1,
      287, 286, 135, -1,
      135, 286, 288, -1,
      287, 289, 286, -1,
      286, 289, 290, -1,
      286, 290, 291, -1,
      291, 292, 286, -1,
      286, 292, 293, -1,
      286, 293, 285, -1,
      294, 261, 295, -1,
      295, 261, 260, -1,
      295, 260, 288, -1,
      288, 260, 296, -1,
      288, 296, 135, -1,
      135, 296, 297, -1,
      135, 297, 298, -1,
      298, 299, 135, -1,
      135, 299, 300, -1,
      135, 300, 153, -1,
      153, 300, 301, -1,
      153, 301, 273, -1,
      302, 303, 304, -1,
      305, 306, 307, -1,
      308, 309, 310, -1,
      8, 6, 311, -1,
      311, 6, 312, -1,
      311, 312, 307, -1,
      310, 309, 313, -1,
      313, 309, 314, -1,
      313, 314, 315, -1,
      315, 314, 316, -1,
      315, 316, 3, -1,
      304, 303, 317, -1,
      317, 303, 318, -1,
      317, 318, 312, -1,
      312, 318, 319, -1,
      312, 319, 320, -1,
      321, 322, 323, -1,
      323, 322, 315, -1,
      323, 315, 1, -1,
      1, 315, 3, -1,
      307, 306, 324, -1,
      324, 306, 325, -1,
      324, 325, 321, -1,
      321, 325, 326, -1,
      321, 326, 322, -1,
      310, 327, 308, -1,
      308, 327, 328, -1,
      308, 328, 329, -1,
      329, 328, 330, -1,
      329, 330, 17, -1,
      17, 330, 331, -1,
      17, 331, 15, -1,
      10, 12, 332, -1,
      332, 12, 333, -1,
      332, 333, 334, -1,
      334, 333, 304, -1,
      304, 333, 335, -1,
      304, 335, 302, -1,
      320, 336, 312, -1,
      312, 336, 337, -1,
      312, 337, 307, -1,
      307, 337, 338, -1,
      307, 338, 305, -1,
      331, 339, 15, -1,
      15, 339, 340, -1,
      15, 340, 341, -1,
      341, 340, 342, -1,
      341, 342, 343, -1,
      343, 342, 344, -1,
      343, 344, 345, -1,
      345, 344, 346, -1,
      345, 346, 347, -1,
      347, 346, 348, -1,
      347, 348, 333, -1,
      333, 348, 349, -1,
      333, 349, 335, -1,
    ]
  }
}

Shape {
  appearance Appearance {
    material Material {
      diffuseColor 0.9020 0.7843 0.6863
      specularColor 0.4510 0.3922 0.3412
      ambientIntensity 0.2
      transparency 0.0000
      shininess 0.5
    }
  }
  geometry IndexedFaceSet {
    ccw TRUE
    solid FALSE
    coord DEF co Coordinate {
      point [
        -0.342031 -0.213175 0.240157,
        -0.011298 -0.213175 0.240157,
        -0.351873 -0.210538 0.240157,
        -0.355950 -0.207409 0.240157,
        -0.359078 -0.203333 0.240157,
        -0.347126 -0.212504 0.240157,
        -0.342031 0.213175 0.240157,
        -0.347126 0.212504 0.240157,
        -0.011298 0.213175 0.240157,
        -0.351873 0.210538 0.240157,
        -0.355950 0.207409 0.240157,
        -0.359078 0.203333 0.240157,
        -0.361045 0.198585 0.240157,
        -0.361716 0.193490 0.240157,
        -0.361716 -0.024998 0.240157,
        -0.361716 -0.193490 0.240157,
        -0.361045 -0.198585 0.240157,
        0.342031 0.213175 0.240157,
        0.361716 -0.024998 0.240157,
        0.361716 0.193490 0.240157,
        0.361045 0.198585 0.240157,
        0.359078 0.203333 0.240157,
        0.355950 0.207409 0.240157,
        0.351873 0.210538 0.240157,
        0.347126 0.212504 0.240157,
        0.361716 -0.193490 0.240157,
        0.342031 -0.213175 0.240157,
        0.347126 -0.212504 0.240157,
        0.351873 -0.210538 0.240157,
        0.355950 -0.207409 0.240157,
        0.359078 -0.203333 0.240157,
        0.361045 -0.198585 0.240157,
        -0.361045 0.198585 0.200787,
        -0.359078 0.203333 0.200787,
        0.351873 0.210538 0.200787,
        0.355950 0.207409 0.200787,
        0.359078 -0.203333 0.200787,
        0.361045 -0.198585 0.200787,
        0.361716 -0.193490 0.200787,
        -0.355950 0.207409 0.200787,
        -0.351873 0.210538 0.200787,
        -0.347126 0.212504 0.200787,
        0.361716 0.193490 0.200787,
        0.359078 0.203333 0.200787,
        0.361045 0.198585 0.200787,
        0.355950 -0.207409 0.200787,
        0.351873 -0.210538 0.200787,
        0.347126 -0.212504 0.200787,
        0.342031 -0.213175 0.200787,
        -0.361716 0.193490 0.200787,
        -0.342031 0.213175 0.200787,
        0.342031 0.213175 0.200787,
        0.347126 0.212504 0.200787,
        -0.342031 -0.213175 0.200787,
        -0.347126 -0.212504 0.200787,
        -0.351873 -0.210538 0.200787,
        -0.355950 -0.207409 0.200787,
        -0.359078 -0.203333 0.200787,
        -0.361045 -0.198585 0.200787,
        -0.361716 -0.193490 0.200787,
      ]
    }
    coordIndex [
      25, 38, 18, -1,
      18, 38, 42, -1,
      18, 42, 19, -1,
      17, 51, 8, -1,
      8, 51, 50, -1,
      8, 50, 6, -1,
      13, 49, 14, -1,
      14, 49, 59, -1,
      14, 59, 15, -1,
      0, 53, 1, -1,
      1, 53, 48, -1,
      1, 48, 26, -1,
      19, 42, 44, -1,
      19, 44, 20, -1,
      20, 44, 43, -1,
      20, 43, 21, -1,
      21, 43, 35, -1,
      21, 35, 22, -1,
      22, 35, 34, -1,
      22, 34, 23, -1,
      23, 34, 52, -1,
      23, 52, 24, -1,
      24, 52, 51, -1,
      24, 51, 17, -1,
      26, 48, 47, -1,
      26, 47, 27, -1,
      27, 47, 46, -1,
      27, 46, 28, -1,
      28, 46, 45, -1,
      28, 45, 29, -1,
      29, 45, 36, -1,
      29, 36, 30, -1,
      30, 36, 37, -1,
      30, 37, 31, -1,
      31, 37, 38, -1,
      31, 38, 25, -1,
      15, 59, 58, -1,
      15, 58, 16, -1,
      16, 58, 57, -1,
      16, 57, 4, -1,
      4, 57, 56, -1,
      4, 56, 3, -1,
      3, 56, 55, -1,
      3, 55, 2, -1,
      2, 55, 54, -1,
      2, 54, 5, -1,
      5, 54, 53, -1,
      5, 53, 0, -1,
      6, 50, 41, -1,
      6, 41, 7, -1,
      7, 41, 40, -1,
      7, 40, 9, -1,
      9, 40, 39, -1,
      9, 39, 10, -1,
      10, 39, 33, -1,
      10, 33, 11, -1,
      11, 33, 32, -1,
      11, 32, 12, -1,
      12, 32, 49, -1,
      12, 49, 13, -1,
    ]
  }
}

Shape {
  appearance Appearance {
    material Material {
      diffuseColor 0.8510 0.8510 0.8510
      specularColor 0.4235 0.4235 0.4235
      ambientIntensity 0.2
      transparency 0.0000
      shininess 0.5
    }
  }
  geometry IndexedFaceSet {
    ccw TRUE
    solid FALSE
    coord DEF co Coordinate {
      point [
        0.171148 -0.020196 0.240157,
        0.159625 -0.020196 0.240157,
        0.159625 -0.024998 0.240157,
        -0.092919 -0.038441 0.240157,
        -0.102522 -0.038441 0.240157,
        -0.059311 -0.038441 0.240157,
        -0.065072 -0.038441 0.240157,
        -0.102522 -0.024998 0.240157,
        -0.118990 -0.024998 0.240157,
        -0.119966 -0.027663 0.240157,
        -0.122509 -0.031355 0.240157,
        -0.125802 -0.034230 0.240157,
        -0.130252 -0.036665 0.240157,
        -0.137937 -0.038807 0.240157,
        -0.146078 -0.039401 0.240157,
        -0.163374 -0.036527 0.240157,
        -0.156212 -0.038357 0.240157,
        -0.053499 -0.024998 0.240157,
        -0.031463 -0.038441 0.240157,
        -0.021861 -0.038441 0.240157,
        -0.021861 -0.024998 0.240157,
        -0.021861 0.040299 0.240157,
        -0.165898 -0.023797 0.240157,
        -0.034344 0.040299 0.240157,
        -0.165898 -0.024998 0.240157,
        -0.165898 -0.035320 0.240157,
        -0.120767 0.027576 0.240157,
        -0.120767 0.039099 0.240157,
        -0.102522 0.040299 0.240157,
        -0.117933 -0.016857 0.240157,
        -0.117886 -0.018141 0.240157,
        -0.118506 -0.023673 0.240157,
        -0.160763 0.007044 0.240157,
        -0.163372 0.010489 0.240157,
        -0.128596 -0.000446 0.240157,
        -0.123326 -0.004853 0.240157,
        -0.120428 -0.008719 0.240157,
        -0.118681 -0.012677 0.240157,
        -0.165865 0.018994 0.240157,
        -0.165898 0.020134 0.240157,
        -0.165193 0.025575 0.240157,
        -0.163654 0.029343 0.240157,
        -0.062267 -0.023077 0.240157,
        -0.061906 -0.023077 0.240157,
        -0.063850 -0.018207 0.240157,
        -0.060077 -0.018149 0.240157,
        -0.065777 -0.013460 0.240157,
        -0.165146 0.014622 0.240157,
        -0.138606 0.005190 0.240157,
        -0.126720 0.030667 0.240157,
        -0.145925 0.009068 0.240157,
        -0.133451 0.032276 0.240157,
        -0.138891 0.032617 0.240157,
        -0.163944 -0.024998 0.240157,
        -0.146648 -0.002207 0.240157,
        -0.156404 0.003437 0.240157,
        -0.161179 0.032762 0.240157,
        -0.157798 0.035696 0.240157,
        -0.153370 0.038240 0.240157,
        -0.146756 0.040410 0.240157,
        -0.138051 0.041259 0.240157,
        -0.129309 0.040885 0.240157,
        -0.058170 -0.013250 0.240157,
        -0.089078 0.040299 0.240157,
        -0.131609 -0.011336 0.240157,
        -0.134850 -0.008586 0.240157,
        -0.135946 -0.007886 0.240157,
        -0.154161 0.015993 0.240157,
        -0.154989 0.018165 0.240157,
        -0.155335 0.021169 0.240157,
        -0.152829 0.014040 0.240157,
        -0.150415 0.011923 0.240157,
        -0.128448 -0.019011 0.240157,
        -0.128781 -0.022117 0.240157,
        -0.129688 -0.024573 0.240157,
        -0.153244 0.027367 0.240157,
        -0.154392 0.025581 0.240157,
        -0.155088 0.023555 0.240157,
        -0.128791 -0.016217 0.240157,
        -0.129683 -0.013977 0.240157,
        -0.144404 0.032117 0.240157,
        -0.148583 0.030780 0.240157,
        -0.151450 0.029091 0.240157,
        -0.129972 -0.024998 0.240157,
        -0.160142 -0.027335 0.240157,
        -0.150821 -0.030200 0.240157,
        -0.144907 -0.030759 0.240157,
        -0.139190 -0.030319 0.240157,
        -0.130730 -0.026134 0.240157,
        -0.135194 -0.029238 0.240157,
        -0.132370 -0.027679 0.240157,
        -0.092919 -0.024998 0.240157,
        -0.070820 -0.024998 0.240157,
        -0.092919 0.013652 0.240157,
        -0.092975 0.021696 0.240157,
        -0.092919 0.029736 0.240157,
        -0.093219 0.029736 0.240157,
        -0.091923 0.025467 0.240157,
        -0.090609 0.021289 0.240157,
        -0.031234 0.021934 0.240157,
        -0.030698 0.029736 0.240157,
        -0.030954 0.029736 0.240157,
        -0.031968 0.025691 0.240157,
        -0.033294 0.021739 0.240157,
        -0.031463 0.014117 0.240157,
        -0.031463 -0.024998 0.240157,
        0.061570 -0.008464 0.240157,
        0.058776 -0.016720 0.240157,
        0.075124 -0.011554 0.240157,
        0.104891 -0.011554 0.240157,
        0.113533 -0.012004 0.240157,
        0.104891 -0.003872 0.240157,
        0.130971 0.010254 0.240157,
        0.146526 0.034931 0.240157,
        0.054294 -0.023780 0.240157,
        0.053032 -0.024998 0.240157,
        0.113533 -0.020196 0.240157,
        0.159625 0.040299 0.240157,
        0.159625 -0.011554 0.240157,
        0.171148 -0.011554 0.240157,
        0.149363 0.040299 0.240157,
        0.062641 0.001919 0.240157,
        0.075124 -0.003872 0.240157,
        0.062565 0.004500 0.240157,
        -0.000736 0.040299 0.240157,
        0.021485 0.040299 0.240157,
        0.053820 0.026971 0.240157,
        0.058320 0.020600 0.240157,
        0.032372 0.039193 0.240157,
        0.041607 0.036076 0.240157,
        0.049534 0.031041 0.240157,
        0.061317 0.012888 0.240157,
        0.159625 -0.038441 0.240157,
        0.150023 -0.038441 0.240157,
        0.150023 -0.020196 0.240157,
        0.150023 -0.024998 0.240157,
        0.047840 -0.030011 0.240157,
        0.039669 -0.034810 0.240157,
        0.030602 -0.037557 0.240157,
        0.020675 -0.038441 0.240157,
        -0.000736 -0.038441 0.240157,
        -0.000736 -0.024998 0.240157,
        0.149363 0.040299 0.236220,
        0.159625 0.040299 0.236220,
        0.159625 -0.011554 0.236220,
        0.171148 -0.011554 0.236220,
        0.171148 -0.020196 0.236220,
        0.159625 -0.020196 0.236220,
        0.159625 -0.038441 0.236220,
        0.150023 -0.038441 0.236220,
        0.150023 -0.020196 0.236220,
        0.113533 -0.020196 0.236220,
        0.113533 -0.012004 0.236220,
        0.146526 0.034931 0.236220,
        0.130971 0.010254 0.236220,
        0.150023 0.025850 0.236220,
        0.150023 -0.011554 0.236220,
        0.138185 0.006585 0.236220,
        0.124681 -0.011554 0.236220,
        0.124681 -0.011554 0.240157,
        0.138185 0.006585 0.240157,
        0.150023 0.025850 0.240157,
        0.150023 -0.011554 0.240157,
        0.104891 -0.003872 0.236220,
        0.104891 -0.011554 0.236220,
        0.075124 -0.011554 0.236220,
        0.075124 -0.003872 0.236220,
        0.020675 -0.038441 0.236220,
        -0.000736 -0.038441 0.236220,
        -0.000736 0.040299 0.236220,
        0.021485 0.040299 0.236220,
        0.062641 0.001919 0.236220,
        0.062565 0.004500 0.236220,
        0.061317 0.012888 0.236220,
        0.058320 0.020600 0.236220,
        0.053820 0.026971 0.236220,
        0.049534 0.031041 0.236220,
        0.041607 0.036076 0.236220,
        0.032372 0.039193 0.236220,
        0.030602 -0.037557 0.236220,
        0.039669 -0.034810 0.236220,
        0.047840 -0.030011 0.236220,
        0.054294 -0.023780 0.236220,
        0.058776 -0.016720 0.236220,
        0.061570 -0.008464 0.236220,
        0.052078 0.001694 0.236220,
        0.051409 0.009531 0.236220,
        0.049554 0.015797 0.236220,
        0.046814 0.020644 0.236220,
        0.042984 0.024698 0.236220,
        0.037226 0.028408 0.236220,
        0.030720 0.030675 0.236220,
        0.021440 0.031657 0.236220,
        0.009827 0.031657 0.236220,
        0.009827 -0.029799 0.236220,
        0.021005 -0.029799 0.236220,
        0.029312 -0.029026 0.236220,
        0.035964 -0.026946 0.236220,
        0.041328 -0.023753 0.236220,
        0.045740 -0.019387 0.236220,
        0.049057 -0.013954 0.236220,
        0.051361 -0.006543 0.236220,
        0.021440 0.031657 0.240157,
        0.009827 0.031657 0.240157,
        0.030720 0.030675 0.240157,
        0.037226 0.028408 0.240157,
        0.042984 0.024698 0.240157,
        0.046814 0.020644 0.240157,
        0.049554 0.015797 0.240157,
        0.051409 0.009531 0.240157,
        0.052078 0.001694 0.240157,
        0.051361 -0.006543 0.240157,
        0.049057 -0.013954 0.240157,
        0.045740 -0.019387 0.240157,
        0.041328 -0.023753 0.240157,
        0.035964 -0.026946 0.240157,
        0.029312 -0.029026 0.240157,
        0.021005 -0.029799 0.240157,
        0.009827 -0.029799 0.240157,
        -0.021861 -0.038441 0.236220,
        -0.031463 -0.038441 0.236220,
        -0.031463 0.014117 0.236220,
        -0.030698 0.029736 0.236220,
        -0.031234 0.021934 0.236220,
        -0.030954 0.029736 0.236220,
        -0.033294 0.021739 0.236220,
        -0.031968 0.025691 0.236220,
        -0.059311 -0.038441 0.236220,
        -0.065072 -0.038441 0.236220,
        -0.090609 0.021289 0.236220,
        -0.092919 0.029736 0.236220,
        -0.091923 0.025467 0.236220,
        -0.093219 0.029736 0.236220,
        -0.092919 0.013652 0.236220,
        -0.092975 0.021696 0.236220,
        -0.092919 -0.038441 0.236220,
        -0.102522 -0.038441 0.236220,
        -0.102522 0.040299 0.236220,
        -0.089078 0.040299 0.236220,
        -0.065777 -0.013460 0.236220,
        -0.062267 -0.023077 0.236220,
        -0.063850 -0.018207 0.236220,
        -0.061906 -0.023077 0.236220,
        -0.058170 -0.013250 0.236220,
        -0.060077 -0.018149 0.236220,
        -0.034344 0.040299 0.236220,
        -0.021861 0.040299 0.236220,
        -0.165898 -0.035320 0.236220,
        -0.165898 -0.023797 0.236220,
        -0.144907 -0.030759 0.236220,
        -0.150821 -0.030200 0.236220,
        -0.160142 -0.027335 0.236220,
        -0.128448 -0.019011 0.236220,
        -0.128781 -0.022117 0.236220,
        -0.129688 -0.024573 0.236220,
        -0.130730 -0.026134 0.236220,
        -0.132370 -0.027679 0.236220,
        -0.135194 -0.029238 0.236220,
        -0.139190 -0.030319 0.236220,
        -0.146648 -0.002207 0.236220,
        -0.135946 -0.007886 0.236220,
        -0.134850 -0.008586 0.236220,
        -0.131609 -0.011336 0.236220,
        -0.129683 -0.013977 0.236220,
        -0.128791 -0.016217 0.236220,
        -0.165898 0.020134 0.236220,
        -0.165865 0.018994 0.236220,
        -0.165146 0.014622 0.236220,
        -0.163372 0.010489 0.236220,
        -0.160763 0.007044 0.236220,
        -0.156404 0.003437 0.236220,
        -0.138051 0.041259 0.236220,
        -0.146756 0.040410 0.236220,
        -0.153370 0.038240 0.236220,
        -0.157798 0.035696 0.236220,
        -0.161179 0.032762 0.236220,
        -0.163654 0.029343 0.236220,
        -0.165193 0.025575 0.236220,
        -0.120767 0.039099 0.236220,
        -0.129309 0.040885 0.236220,
        -0.120767 0.027576 0.236220,
        -0.138891 0.032617 0.236220,
        -0.133451 0.032276 0.236220,
        -0.126720 0.030667 0.236220,
        -0.155335 0.021169 0.236220,
        -0.155088 0.023555 0.236220,
        -0.154392 0.025581 0.236220,
        -0.153244 0.027367 0.236220,
        -0.151450 0.029091 0.236220,
        -0.148583 0.030780 0.236220,
        -0.144404 0.032117 0.236220,
        -0.138606 0.005190 0.236220,
        -0.145925 0.009068 0.236220,
        -0.150415 0.011923 0.236220,
        -0.152829 0.014040 0.236220,
        -0.154161 0.015993 0.236220,
        -0.154989 0.018165 0.236220,
        -0.117886 -0.018141 0.236220,
        -0.117933 -0.016857 0.236220,
        -0.118681 -0.012677 0.236220,
        -0.120428 -0.008719 0.236220,
        -0.123326 -0.004853 0.236220,
        -0.128596 -0.000446 0.236220,
        -0.118506 -0.023673 0.236220,
        -0.146078 -0.039401 0.236220,
        -0.137937 -0.038807 0.236220,
        -0.130252 -0.036665 0.236220,
        -0.125802 -0.034230 0.236220,
        -0.122509 -0.031355 0.236220,
        -0.119966 -0.027663 0.236220,
        -0.163374 -0.036527 0.236220,
        -0.156212 -0.038357 0.236220,
      ]
    }
    coordIndex [
      142, 143, 120, -1,
      120, 143, 117, -1,
      143, 144, 117, -1,
      117, 144, 118, -1,
      144, 145, 118, -1,
      118, 145, 119, -1,
      145, 146, 119, -1,
      119, 146, 0, -1,
      146, 147, 0, -1,
      0, 147, 1, -1,
      148, 132, 147, -1,
      147, 132, 2, -1,
      147, 2, 1, -1,
      148, 149, 132, -1,
      132, 149, 133, -1,
      133, 149, 135, -1,
      135, 149, 150, -1,
      135, 150, 134, -1,
      150, 151, 134, -1,
      134, 151, 116, -1,
      151, 152, 116, -1,
      116, 152, 110, -1,
      142, 120, 113, -1,
      142, 113, 153, -1,
      153, 113, 112, -1,
      153, 112, 154, -1,
      154, 112, 110, -1,
      154, 110, 152, -1,
      143, 155, 144, -1,
      144, 155, 156, -1,
      149, 148, 150, -1,
      150, 148, 147, -1,
      143, 142, 155, -1,
      155, 142, 153, -1,
      155, 153, 157, -1,
      157, 153, 154, -1,
      157, 154, 158, -1,
      146, 145, 147, -1,
      147, 145, 144, -1,
      147, 144, 150, -1,
      150, 144, 156, -1,
      150, 156, 151, -1,
      151, 156, 158, -1,
      151, 158, 152, -1,
      152, 158, 154, -1,
      158, 159, 160, -1,
      158, 160, 157, -1,
      157, 160, 161, -1,
      157, 161, 155, -1,
      156, 155, 162, -1,
      162, 155, 161, -1,
      158, 156, 159, -1,
      159, 156, 162, -1,
      163, 164, 111, -1,
      111, 164, 109, -1,
      164, 165, 109, -1,
      109, 165, 108, -1,
      165, 166, 108, -1,
      108, 166, 122, -1,
      166, 163, 122, -1,
      122, 163, 111, -1,
      166, 165, 163, -1,
      163, 165, 164, -1,
      167, 168, 139, -1,
      139, 168, 140, -1,
      140, 168, 141, -1,
      141, 168, 169, -1,
      141, 169, 124, -1,
      169, 170, 124, -1,
      124, 170, 125, -1,
      171, 121, 123, -1,
      171, 123, 172, -1,
      172, 123, 131, -1,
      172, 131, 173, -1,
      173, 131, 127, -1,
      173, 127, 174, -1,
      174, 127, 126, -1,
      174, 126, 175, -1,
      175, 126, 130, -1,
      175, 130, 176, -1,
      176, 130, 129, -1,
      176, 129, 177, -1,
      177, 129, 128, -1,
      177, 128, 178, -1,
      178, 128, 125, -1,
      178, 125, 170, -1,
      167, 139, 138, -1,
      167, 138, 179, -1,
      179, 138, 137, -1,
      179, 137, 180, -1,
      180, 137, 136, -1,
      180, 136, 181, -1,
      181, 136, 115, -1,
      181, 115, 182, -1,
      115, 114, 182, -1,
      182, 114, 107, -1,
      182, 107, 183, -1,
      183, 107, 106, -1,
      183, 106, 184, -1,
      184, 106, 121, -1,
      184, 121, 171, -1,
      184, 171, 185, -1,
      185, 171, 172, -1,
      185, 172, 186, -1,
      186, 172, 173, -1,
      186, 173, 187, -1,
      187, 173, 174, -1,
      187, 174, 188, -1,
      188, 174, 175, -1,
      188, 175, 189, -1,
      189, 175, 176, -1,
      189, 176, 190, -1,
      190, 176, 177, -1,
      190, 177, 191, -1,
      191, 177, 178, -1,
      191, 178, 192, -1,
      192, 178, 170, -1,
      192, 170, 193, -1,
      193, 170, 169, -1,
      193, 169, 194, -1,
      194, 169, 168, -1,
      194, 168, 195, -1,
      195, 168, 167, -1,
      195, 167, 196, -1,
      196, 167, 179, -1,
      196, 179, 197, -1,
      197, 179, 180, -1,
      197, 180, 198, -1,
      198, 180, 181, -1,
      198, 181, 199, -1,
      199, 181, 182, -1,
      199, 182, 200, -1,
      200, 182, 183, -1,
      200, 183, 201, -1,
      201, 183, 184, -1,
      201, 184, 185, -1,
      192, 193, 202, -1,
      202, 193, 203, -1,
      192, 202, 204, -1,
      192, 204, 191, -1,
      191, 204, 205, -1,
      191, 205, 190, -1,
      190, 205, 206, -1,
      190, 206, 189, -1,
      189, 206, 207, -1,
      189, 207, 188, -1,
      188, 207, 208, -1,
      188, 208, 187, -1,
      187, 208, 209, -1,
      187, 209, 186, -1,
      186, 209, 210, -1,
      186, 210, 185, -1,
      185, 210, 211, -1,
      185, 211, 201, -1,
      201, 211, 212, -1,
      201, 212, 200, -1,
      200, 212, 213, -1,
      200, 213, 199, -1,
      199, 213, 214, -1,
      199, 214, 198, -1,
      198, 214, 215, -1,
      198, 215, 197, -1,
      197, 215, 216, -1,
      197, 216, 196, -1,
      196, 216, 217, -1,
      196, 217, 195, -1,
      194, 195, 218, -1,
      218, 195, 217, -1,
      193, 194, 203, -1,
      203, 194, 218, -1,
      219, 220, 19, -1,
      19, 220, 18, -1,
      18, 220, 105, -1,
      105, 220, 221, -1,
      105, 221, 104, -1,
      222, 100, 99, -1,
      222, 99, 223, -1,
      223, 99, 104, -1,
      223, 104, 221, -1,
      222, 224, 100, -1,
      100, 224, 101, -1,
      225, 103, 102, -1,
      225, 102, 226, -1,
      226, 102, 101, -1,
      226, 101, 224, -1,
      103, 225, 17, -1,
      17, 225, 227, -1,
      17, 227, 5, -1,
      227, 228, 5, -1,
      5, 228, 6, -1,
      6, 228, 92, -1,
      92, 228, 229, -1,
      92, 229, 98, -1,
      230, 95, 97, -1,
      230, 97, 231, -1,
      231, 97, 98, -1,
      231, 98, 229, -1,
      230, 232, 95, -1,
      95, 232, 96, -1,
      233, 93, 94, -1,
      233, 94, 234, -1,
      234, 94, 96, -1,
      234, 96, 232, -1,
      93, 233, 91, -1,
      91, 233, 235, -1,
      91, 235, 3, -1,
      235, 236, 3, -1,
      3, 236, 4, -1,
      4, 236, 7, -1,
      7, 236, 237, -1,
      7, 237, 28, -1,
      237, 238, 28, -1,
      28, 238, 63, -1,
      238, 239, 63, -1,
      63, 239, 46, -1,
      240, 42, 44, -1,
      240, 44, 241, -1,
      241, 44, 46, -1,
      241, 46, 239, -1,
      240, 242, 42, -1,
      42, 242, 43, -1,
      243, 62, 45, -1,
      243, 45, 244, -1,
      244, 45, 43, -1,
      244, 43, 242, -1,
      243, 245, 62, -1,
      62, 245, 23, -1,
      245, 246, 23, -1,
      23, 246, 21, -1,
      21, 246, 20, -1,
      20, 246, 219, -1,
      20, 219, 19, -1,
      220, 219, 221, -1,
      221, 219, 246, -1,
      221, 246, 223, -1,
      223, 246, 222, -1,
      236, 235, 237, -1,
      237, 235, 233, -1,
      233, 234, 237, -1,
      237, 234, 232, -1,
      237, 232, 238, -1,
      238, 232, 230, -1,
      240, 228, 242, -1,
      242, 228, 227, -1,
      242, 227, 244, -1,
      244, 227, 243, -1,
      222, 246, 224, -1,
      224, 246, 245, -1,
      224, 245, 226, -1,
      240, 241, 228, -1,
      228, 241, 239, -1,
      228, 239, 229, -1,
      229, 239, 238, -1,
      229, 238, 231, -1,
      231, 238, 230, -1,
      243, 227, 245, -1,
      245, 227, 225, -1,
      245, 225, 226, -1,
      25, 247, 24, -1,
      24, 247, 248, -1,
      24, 248, 22, -1,
      249, 86, 85, -1,
      249, 85, 250, -1,
      250, 85, 84, -1,
      250, 84, 251, -1,
      251, 84, 248, -1,
      248, 84, 53, -1,
      248, 53, 22, -1,
      252, 72, 73, -1,
      252, 73, 253, -1,
      253, 73, 74, -1,
      253, 74, 254, -1,
      254, 74, 83, -1,
      254, 83, 255, -1,
      83, 88, 255, -1,
      255, 88, 90, -1,
      255, 90, 256, -1,
      256, 90, 89, -1,
      256, 89, 257, -1,
      257, 89, 87, -1,
      257, 87, 258, -1,
      258, 87, 86, -1,
      258, 86, 249, -1,
      259, 54, 66, -1,
      259, 66, 260, -1,
      260, 66, 65, -1,
      260, 65, 261, -1,
      261, 65, 64, -1,
      261, 64, 262, -1,
      262, 64, 79, -1,
      262, 79, 263, -1,
      263, 79, 78, -1,
      263, 78, 264, -1,
      264, 78, 72, -1,
      264, 72, 252, -1,
      265, 39, 38, -1,
      265, 38, 266, -1,
      266, 38, 47, -1,
      266, 47, 267, -1,
      267, 47, 33, -1,
      267, 33, 268, -1,
      268, 33, 32, -1,
      268, 32, 269, -1,
      269, 32, 55, -1,
      269, 55, 270, -1,
      270, 55, 54, -1,
      270, 54, 259, -1,
      271, 60, 59, -1,
      271, 59, 272, -1,
      272, 59, 58, -1,
      272, 58, 273, -1,
      273, 58, 57, -1,
      273, 57, 274, -1,
      274, 57, 56, -1,
      274, 56, 275, -1,
      275, 56, 41, -1,
      275, 41, 276, -1,
      276, 41, 40, -1,
      276, 40, 277, -1,
      277, 40, 39, -1,
      277, 39, 265, -1,
      278, 27, 61, -1,
      278, 61, 279, -1,
      279, 61, 60, -1,
      279, 60, 271, -1,
      278, 280, 27, -1,
      27, 280, 26, -1,
      281, 52, 51, -1,
      281, 51, 282, -1,
      282, 51, 49, -1,
      282, 49, 283, -1,
      283, 49, 26, -1,
      283, 26, 280, -1,
      284, 69, 77, -1,
      284, 77, 285, -1,
      285, 77, 76, -1,
      285, 76, 286, -1,
      286, 76, 75, -1,
      286, 75, 287, -1,
      287, 75, 82, -1,
      287, 82, 288, -1,
      288, 82, 81, -1,
      288, 81, 289, -1,
      289, 81, 80, -1,
      289, 80, 290, -1,
      290, 80, 52, -1,
      290, 52, 281, -1,
      291, 48, 50, -1,
      291, 50, 292, -1,
      292, 50, 71, -1,
      292, 71, 293, -1,
      293, 71, 70, -1,
      293, 70, 294, -1,
      294, 70, 67, -1,
      294, 67, 295, -1,
      295, 67, 68, -1,
      295, 68, 296, -1,
      296, 68, 69, -1,
      296, 69, 284, -1,
      297, 30, 29, -1,
      297, 29, 298, -1,
      298, 29, 37, -1,
      298, 37, 299, -1,
      299, 37, 36, -1,
      299, 36, 300, -1,
      300, 36, 35, -1,
      300, 35, 301, -1,
      301, 35, 34, -1,
      301, 34, 302, -1,
      302, 34, 48, -1,
      302, 48, 291, -1,
      30, 297, 303, -1,
      304, 14, 13, -1,
      304, 13, 305, -1,
      305, 13, 12, -1,
      305, 12, 306, -1,
      306, 12, 11, -1,
      306, 11, 307, -1,
      307, 11, 10, -1,
      307, 10, 308, -1,
      308, 10, 9, -1,
      308, 9, 309, -1,
      309, 9, 8, -1,
      309, 8, 303, -1,
      303, 8, 31, -1,
      303, 31, 30, -1,
      247, 25, 15, -1,
      247, 15, 310, -1,
      310, 15, 16, -1,
      310, 16, 311, -1,
      311, 16, 14, -1,
      311, 14, 304, -1,
      283, 280, 278, -1,
      248, 247, 251, -1,
      251, 247, 310, -1,
      251, 310, 250, -1,
      250, 310, 311, -1,
      250, 311, 249, -1,
      249, 311, 304, -1,
      249, 304, 258, -1,
      258, 304, 305, -1,
      258, 305, 257, -1,
      257, 305, 306, -1,
      257, 306, 256, -1,
      256, 306, 307, -1,
      256, 307, 255, -1,
      255, 307, 308, -1,
      255, 308, 254, -1,
      254, 308, 309, -1,
      254, 309, 253, -1,
      253, 309, 303, -1,
      253, 303, 252, -1,
      303, 297, 252, -1,
      252, 297, 298, -1,
      252, 298, 264, -1,
      264, 298, 299, -1,
      264, 299, 263, -1,
      263, 299, 300, -1,
      263, 300, 262, -1,
      262, 300, 301, -1,
      262, 301, 261, -1,
      261, 301, 302, -1,
      261, 302, 260, -1,
      260, 302, 291, -1,
      260, 291, 259, -1,
      259, 291, 292, -1,
      259, 292, 270, -1,
      270, 292, 293, -1,
      270, 293, 269, -1,
      269, 293, 294, -1,
      269, 294, 268, -1,
      268, 294, 295, -1,
      268, 295, 267, -1,
      267, 295, 296, -1,
      267, 296, 266, -1,
      266, 296, 284, -1,
      283, 278, 282, -1,
      282, 278, 279, -1,
      282, 279, 281, -1,
      281, 279, 271, -1,
      281, 271, 290, -1,
      290, 271, 272, -1,
      290, 272, 289, -1,
      289, 272, 273, -1,
      289, 273, 288, -1,
      288, 273, 274, -1,
      288, 274, 287, -1,
      287, 274, 275, -1,
      287, 275, 286, -1,
      286, 275, 276, -1,
      286, 276, 285, -1,
      285, 276, 277, -1,
      285, 277, 284, -1,
      284, 277, 265, -1,
      284, 265, 266, -1,
    ]
  }
}

Shape {
  appearance Appearance {
    material Material {
      diffuseColor 0.9020 0.7843 0.6863
      specularColor 0.4510 0.3922 0.3412
      ambientIntensity 0.2
      transparency 0.0000
      shininess 0.5
    }
  }
  geometry IndexedFaceSet {
    ccw TRUE
    solid FALSE
    coord DEF co Coordinate {
      point [
        0.124681 -0.011554 0.240157,
        0.138185 0.006585 0.240157,
        0.150023 0.025850 0.240157,
        0.150023 -0.011554 0.240157,
      ]
    }
    coordIndex [
      0, 3, 1, -1,
      1, 3, 2, -1,
    ]
  }
}

Shape {
  appearance Appearance {
    material Material {
      diffuseColor 0.5098 0.5098 0.6275
      specularColor 0.2549 0.2549 0.3137
      ambientIntensity 0.2
      transparency 0.0000
      shininess 0.5
    }
  }
  geometry IndexedFaceSet {
    ccw TRUE
    solid FALSE
    coord DEF co Coordinate {
      point [
        0.021440 0.031657 0.240157,
        0.009827 0.031657 0.240157,
        0.030720 0.030675 0.240157,
        0.037226 0.028408 0.240157,
        0.042984 0.024698 0.240157,
        0.046814 0.020644 0.240157,
        0.049554 0.015797 0.240157,
        0.051409 0.009531 0.240157,
        0.052078 0.001694 0.240157,
        0.051361 -0.006543 0.240157,
        0.049057 -0.013954 0.240157,
        0.045740 -0.019387 0.240157,
        0.041328 -0.023753 0.240157,
        0.035964 -0.026946 0.240157,
        0.029312 -0.029026 0.240157,
        0.021005 -0.029799 0.240157,
        0.009827 -0.029799 0.240157,
      ]
    }
    coordIndex [
      1, 16, 0, -1,
      0, 16, 15, -1,
      0, 15, 14, -1,
      8, 7, 0, -1,
      0, 7, 6, -1,
      0, 6, 2, -1,
      14, 13, 0, -1,
      0, 13, 12, -1,
      0, 12, 11, -1,
      11, 10, 0, -1,
      0, 10, 9, -1,
      0, 9, 8, -1,
      5, 4, 6, -1,
      6, 4, 3, -1,
      6, 3, 2, -1,
    ]
  }
}

Shape {
  appearance Appearance {
    material Material {
      diffuseColor 1.0000 1.0000 1.0000
      specularColor 0.8784 0.8784 0.8784
      ambientIntensity 0.2
      transparency 0.0000
      shininess 0.5
    }
  }
  geometry IndexedFaceSet {
    ccw TRUE
    solid FALSE
    coord DEF co Coordinate {
      point [
        0.072557 0.026272 0.003937,
        0.080311 0.025402 0.003937,
        0.055529 -0.032844 0.003937,
        0.070467 -0.045266 0.003937,
        0.062511 -0.044151 0.003937,
        0.054118 -0.040705 0.003937,
        0.159744 -0.044786 0.003937,
        0.080414 -0.045266 0.003937,
        0.119414 -0.044786 0.003937,
        0.085487 -0.044740 0.003937,
        0.093162 -0.042092 0.003937,
        0.149182 0.033954 0.003937,
        0.159744 0.033954 0.003937,
        0.062987 0.025029 0.003937,
        0.054118 -0.032063 0.003937,
        0.054118 0.021231 0.003937,
        0.054118 0.031794 0.003937,
        0.086204 0.023275 0.003937,
        0.091654 0.019629 0.003937,
        0.096409 0.014380 0.003937,
        0.102130 -0.006256 0.003937,
        0.101333 -0.014780 0.003937,
        0.099185 -0.021572 0.003937,
        0.081721 -0.036268 0.003937,
        0.074328 -0.037104 0.003937,
        0.087456 -0.034144 0.003937,
        0.092284 -0.030874 0.003937,
        0.095926 -0.027027 0.003937,
        0.063876 -0.035944 0.003937,
        0.099656 0.008300 0.003937,
        0.101754 -0.000130 0.003937,
        0.099492 -0.038035 0.003937,
        0.105396 -0.031802 0.003937,
        0.119414 -0.036144 0.003937,
        0.109580 -0.024310 0.003937,
        0.149182 -0.036144 0.003937,
        0.108680 0.012911 0.003937,
        0.104126 0.020322 0.003937,
        0.097107 0.027193 0.003937,
        0.089651 0.031581 0.003937,
        0.080877 0.034212 0.003937,
        0.111940 -0.015971 0.003937,
        0.112693 -0.006901 0.003937,
        0.111667 0.003787 0.003937,
        0.072647 0.034915 0.003937,
        0.063221 0.034264 0.003937,
        0.075783 -0.045746 0.003937,
        0.073630 -0.045709 0.003937,
        -0.087999 -0.044786 0.003937,
        -0.078372 -0.023065 0.003937,
        -0.073891 -0.030124 0.003937,
        -0.003497 -0.044786 0.003937,
        0.038754 -0.044786 0.003937,
        0.038754 0.033954 0.003937,
        -0.001577 0.033954 0.003937,
        -0.128329 0.033954 0.003937,
        -0.067437 -0.036355 0.003937,
        -0.059266 -0.041155 0.003937,
        -0.050199 -0.043901 0.003937,
        -0.117767 0.033954 0.003937,
        -0.051969 0.032848 0.003937,
        -0.061204 0.029731 0.003937,
        -0.077917 0.014255 0.003937,
        -0.080914 0.006544 0.003937,
        0.028191 0.025312 0.003937,
        0.028191 -0.000615 0.003937,
        -0.001577 0.025312 0.003937,
        0.000344 -0.000615 0.003937,
        -0.018861 0.033954 0.003937,
        0.000344 -0.009257 0.003937,
        0.028191 -0.009257 0.003937,
        0.028191 -0.036144 0.003937,
        -0.003497 -0.036144 0.003937,
        -0.018861 -0.044786 0.003937,
        -0.040272 -0.044786 0.003937,
        -0.159057 -0.044786 0.003937,
        -0.147534 -0.044786 0.003937,
        -0.069131 0.024696 0.003937,
        -0.073417 0.020626 0.003937,
        -0.082162 -0.001845 0.003937,
        -0.082237 -0.004426 0.003937,
        -0.081167 -0.014808 0.003937,
        -0.041082 0.033954 0.003937,
        -0.139567 -0.022700 0.003937,
        -0.107039 -0.022700 0.003937,
        -0.099522 -0.044786 0.003937,
        -0.128329 0.033954 0.007874,
        -0.159057 -0.044786 0.007874,
        -0.147534 -0.044786 0.007874,
        -0.139567 -0.022700 0.007874,
        -0.107039 -0.022700 0.007874,
        -0.099522 -0.044786 0.007874,
        -0.087999 -0.044786 0.007874,
        -0.117767 0.033954 0.007874,
        -0.109694 -0.014058 0.007874,
        -0.136026 -0.014058 0.007874,
        -0.121443 0.018831 0.007874,
        -0.122200 0.021561 0.007874,
        -0.122703 0.024352 0.007874,
        -0.122958 0.024352 0.007874,
        -0.123472 0.021570 0.007874,
        -0.124173 0.018831 0.007874,
        -0.109694 -0.014058 0.003937,
        -0.136026 -0.014058 0.003937,
        -0.121443 0.018831 0.003937,
        -0.122200 0.021561 0.003937,
        -0.122703 0.024352 0.003937,
        -0.122958 0.024352 0.003937,
        -0.123472 0.021570 0.003937,
        -0.124173 0.018831 0.003937,
        -0.040272 -0.044786 0.007874,
        -0.018861 -0.044786 0.007874,
        -0.018861 0.033954 0.007874,
        -0.041082 0.033954 0.007874,
        -0.082237 -0.004426 0.007874,
        -0.082162 -0.001845 0.007874,
        -0.080914 0.006544 0.007874,
        -0.077917 0.014255 0.007874,
        -0.073417 0.020626 0.007874,
        -0.069131 0.024696 0.007874,
        -0.061204 0.029731 0.007874,
        -0.051969 0.032848 0.007874,
        -0.050199 -0.043901 0.007874,
        -0.059266 -0.041155 0.007874,
        -0.067437 -0.036355 0.007874,
        -0.073891 -0.030124 0.007874,
        -0.078372 -0.023065 0.007874,
        -0.081167 -0.014808 0.007874,
        -0.071675 -0.004650 0.007874,
        -0.071006 0.003186 0.007874,
        -0.069151 0.009452 0.007874,
        -0.066411 0.014300 0.007874,
        -0.062581 0.018354 0.007874,
        -0.056822 0.022063 0.007874,
        -0.050317 0.024331 0.007874,
        -0.041037 0.025312 0.007874,
        -0.029424 0.025312 0.007874,
        -0.029424 -0.036144 0.007874,
        -0.040602 -0.036144 0.007874,
        -0.048909 -0.035370 0.007874,
        -0.055561 -0.033291 0.007874,
        -0.060925 -0.030098 0.007874,
        -0.065337 -0.025732 0.007874,
        -0.068654 -0.020298 0.007874,
        -0.070958 -0.012888 0.007874,
        -0.041037 0.025312 0.003937,
        -0.029424 0.025312 0.003937,
        -0.050317 0.024331 0.003937,
        -0.056822 0.022063 0.003937,
        -0.062581 0.018354 0.003937,
        -0.066411 0.014300 0.003937,
        -0.069151 0.009452 0.003937,
        -0.071006 0.003186 0.003937,
        -0.071675 -0.004650 0.003937,
        -0.070958 -0.012888 0.003937,
        -0.068654 -0.020298 0.003937,
        -0.065337 -0.025732 0.003937,
        -0.060925 -0.030098 0.003937,
        -0.055561 -0.033291 0.003937,
        -0.048909 -0.035370 0.003937,
        -0.040602 -0.036144 0.003937,
        -0.029424 -0.036144 0.003937,
        -0.003497 -0.036144 0.007874,
        -0.003497 -0.044786 0.007874,
        0.038754 -0.044786 0.007874,
        0.038754 0.033954 0.007874,
        -0.001577 0.033954 0.007874,
        -0.001577 0.025312 0.007874,
        0.028191 0.025312 0.007874,
        0.028191 -0.000615 0.007874,
        0.000344 -0.000615 0.007874,
        0.000344 -0.009257 0.007874,
        0.028191 -0.009257 0.007874,
        0.028191 -0.036144 0.007874,
        0.054118 -0.032063 0.007874,
        0.054118 -0.040705 0.007874,
        0.062511 -0.044151 0.007874,
        0.075783 -0.045746 0.007874,
        0.073630 -0.045709 0.007874,
        0.112693 -0.006901 0.007874,
        0.111940 -0.015971 0.007874,
        0.109580 -0.024310 0.007874,
        0.105396 -0.031802 0.007874,
        0.099492 -0.038035 0.007874,
        0.093162 -0.042092 0.007874,
        0.085487 -0.044740 0.007874,
        0.072647 0.034915 0.007874,
        0.080877 0.034212 0.007874,
        0.089651 0.031581 0.007874,
        0.097107 0.027193 0.007874,
        0.104126 0.020322 0.007874,
        0.108680 0.012911 0.007874,
        0.111667 0.003787 0.007874,
        0.054118 0.031794 0.007874,
        0.063221 0.034264 0.007874,
        0.054118 0.021231 0.007874,
        0.072557 0.026272 0.007874,
        0.062987 0.025029 0.007874,
        0.102130 -0.006256 0.007874,
        0.101754 -0.000130 0.007874,
        0.099656 0.008300 0.007874,
        0.096409 0.014380 0.007874,
        0.091654 0.019629 0.007874,
        0.086204 0.023275 0.007874,
        0.080311 0.025402 0.007874,
        0.074328 -0.037104 0.007874,
        0.081721 -0.036268 0.007874,
        0.087456 -0.034144 0.007874,
        0.092284 -0.030874 0.007874,
        0.095926 -0.027027 0.007874,
        0.099185 -0.021572 0.007874,
        0.101333 -0.014780 0.007874,
        0.055529 -0.032844 0.007874,
        0.063876 -0.035944 0.007874,
        0.119414 -0.036144 0.007874,
        0.119414 -0.044786 0.007874,
        0.159744 -0.044786 0.007874,
        0.159744 0.033954 0.007874,
        0.149182 0.033954 0.007874,
        0.149182 -0.036144 0.007874,
      ]
    }
    coordIndex [
      86, 87, 55, -1,
      55, 87, 75, -1,
      87, 88, 75, -1,
      75, 88, 76, -1,
      88, 89, 76, -1,
      76, 89, 83, -1,
      89, 90, 83, -1,
      83, 90, 84, -1,
      90, 91, 84, -1,
      84, 91, 85, -1,
      91, 92, 85, -1,
      85, 92, 48, -1,
      92, 93, 48, -1,
      48, 93, 59, -1,
      93, 86, 59, -1,
      59, 86, 55, -1,
      94, 90, 95, -1,
      95, 90, 89, -1,
      96, 93, 94, -1,
      94, 93, 92, -1,
      94, 92, 90, -1,
      90, 92, 91, -1,
      96, 97, 93, -1,
      93, 97, 98, -1,
      93, 98, 86, -1,
      86, 98, 99, -1,
      86, 99, 100, -1,
      100, 101, 86, -1,
      86, 101, 95, -1,
      86, 95, 87, -1,
      87, 95, 89, -1,
      87, 89, 88, -1,
      94, 95, 102, -1,
      102, 95, 103, -1,
      96, 94, 104, -1,
      104, 94, 102, -1,
      96, 104, 105, -1,
      96, 105, 97, -1,
      97, 105, 106, -1,
      97, 106, 98, -1,
      99, 98, 107, -1,
      107, 98, 106, -1,
      99, 107, 108, -1,
      99, 108, 100, -1,
      100, 108, 109, -1,
      100, 109, 101, -1,
      95, 101, 103, -1,
      103, 101, 109, -1,
      110, 111, 74, -1,
      74, 111, 73, -1,
      111, 112, 73, -1,
      73, 112, 68, -1,
      112, 113, 68, -1,
      68, 113, 82, -1,
      114, 80, 79, -1,
      114, 79, 115, -1,
      115, 79, 63, -1,
      115, 63, 116, -1,
      116, 63, 62, -1,
      116, 62, 117, -1,
      117, 62, 78, -1,
      117, 78, 118, -1,
      118, 78, 77, -1,
      118, 77, 119, -1,
      119, 77, 61, -1,
      119, 61, 120, -1,
      120, 61, 60, -1,
      120, 60, 121, -1,
      121, 60, 82, -1,
      121, 82, 113, -1,
      110, 74, 58, -1,
      110, 58, 122, -1,
      122, 58, 57, -1,
      122, 57, 123, -1,
      123, 57, 56, -1,
      123, 56, 124, -1,
      124, 56, 50, -1,
      124, 50, 125, -1,
      125, 50, 49, -1,
      125, 49, 126, -1,
      126, 49, 81, -1,
      126, 81, 127, -1,
      127, 81, 80, -1,
      127, 80, 114, -1,
      127, 114, 128, -1,
      128, 114, 115, -1,
      128, 115, 129, -1,
      129, 115, 116, -1,
      129, 116, 130, -1,
      130, 116, 117, -1,
      130, 117, 131, -1,
      131, 117, 118, -1,
      131, 118, 132, -1,
      132, 118, 119, -1,
      132, 119, 133, -1,
      133, 119, 120, -1,
      133, 120, 134, -1,
      134, 120, 121, -1,
      134, 121, 135, -1,
      135, 121, 113, -1,
      135, 113, 136, -1,
      136, 113, 112, -1,
      136, 112, 137, -1,
      137, 112, 111, -1,
      137, 111, 138, -1,
      138, 111, 110, -1,
      138, 110, 139, -1,
      139, 110, 122, -1,
      139, 122, 140, -1,
      140, 122, 123, -1,
      140, 123, 141, -1,
      141, 123, 124, -1,
      141, 124, 142, -1,
      142, 124, 125, -1,
      142, 125, 143, -1,
      143, 125, 126, -1,
      143, 126, 144, -1,
      144, 126, 127, -1,
      144, 127, 128, -1,
      135, 136, 145, -1,
      145, 136, 146, -1,
      135, 145, 147, -1,
      135, 147, 134, -1,
      134, 147, 148, -1,
      134, 148, 133, -1,
      133, 148, 149, -1,
      133, 149, 132, -1,
      132, 149, 150, -1,
      132, 150, 131, -1,
      131, 150, 151, -1,
      131, 151, 130, -1,
      130, 151, 152, -1,
      130, 152, 129, -1,
      129, 152, 153, -1,
      129, 153, 128, -1,
      128, 153, 154, -1,
      128, 154, 144, -1,
      144, 154, 155, -1,
      144, 155, 143, -1,
      143, 155, 156, -1,
      143, 156, 142, -1,
      142, 156, 157, -1,
      142, 157, 141, -1,
      141, 157, 158, -1,
      141, 158, 140, -1,
      140, 158, 159, -1,
      140, 159, 139, -1,
      139, 159, 160, -1,
      139, 160, 138, -1,
      137, 138, 161, -1,
      161, 138, 160, -1,
      136, 137, 146, -1,
      146, 137, 161, -1,
      162, 163, 72, -1,
      72, 163, 51, -1,
      163, 164, 51, -1,
      51, 164, 52, -1,
      164, 165, 52, -1,
      52, 165, 53, -1,
      165, 166, 53, -1,
      53, 166, 54, -1,
      166, 167, 54, -1,
      54, 167, 66, -1,
      167, 168, 66, -1,
      66, 168, 64, -1,
      168, 169, 64, -1,
      64, 169, 65, -1,
      169, 170, 65, -1,
      65, 170, 67, -1,
      170, 171, 67, -1,
      67, 171, 69, -1,
      171, 172, 69, -1,
      69, 172, 70, -1,
      172, 173, 70, -1,
      70, 173, 71, -1,
      173, 162, 71, -1,
      71, 162, 72, -1,
      164, 163, 162, -1,
      162, 173, 164, -1,
      164, 173, 172, -1,
      164, 172, 165, -1,
      167, 166, 168, -1,
      168, 166, 165, -1,
      168, 165, 169, -1,
      169, 165, 172, -1,
      169, 172, 170, -1,
      170, 172, 171, -1,
      174, 175, 14, -1,
      14, 175, 5, -1,
      5, 175, 176, -1,
      177, 46, 47, -1,
      177, 47, 178, -1,
      178, 47, 3, -1,
      178, 3, 176, -1,
      176, 3, 4, -1,
      176, 4, 5, -1,
      179, 42, 41, -1,
      179, 41, 180, -1,
      180, 41, 34, -1,
      180, 34, 181, -1,
      181, 34, 32, -1,
      181, 32, 182, -1,
      182, 32, 31, -1,
      182, 31, 183, -1,
      183, 31, 10, -1,
      183, 10, 184, -1,
      184, 10, 9, -1,
      184, 9, 185, -1,
      185, 9, 177, -1,
      177, 9, 7, -1,
      177, 7, 46, -1,
      186, 44, 40, -1,
      186, 40, 187, -1,
      187, 40, 39, -1,
      187, 39, 188, -1,
      188, 39, 38, -1,
      188, 38, 189, -1,
      189, 38, 37, -1,
      189, 37, 190, -1,
      190, 37, 36, -1,
      190, 36, 191, -1,
      191, 36, 43, -1,
      191, 43, 192, -1,
      192, 43, 42, -1,
      192, 42, 179, -1,
      193, 16, 45, -1,
      193, 45, 194, -1,
      194, 45, 44, -1,
      194, 44, 186, -1,
      193, 195, 16, -1,
      16, 195, 15, -1,
      196, 0, 13, -1,
      196, 13, 197, -1,
      197, 13, 15, -1,
      197, 15, 195, -1,
      198, 20, 30, -1,
      198, 30, 199, -1,
      199, 30, 29, -1,
      199, 29, 200, -1,
      200, 29, 19, -1,
      200, 19, 201, -1,
      201, 19, 18, -1,
      201, 18, 202, -1,
      202, 18, 17, -1,
      202, 17, 203, -1,
      203, 17, 1, -1,
      203, 1, 204, -1,
      204, 1, 0, -1,
      204, 0, 196, -1,
      205, 24, 23, -1,
      205, 23, 206, -1,
      206, 23, 25, -1,
      206, 25, 207, -1,
      207, 25, 26, -1,
      207, 26, 208, -1,
      208, 26, 27, -1,
      208, 27, 209, -1,
      209, 27, 22, -1,
      209, 22, 210, -1,
      210, 22, 21, -1,
      210, 21, 211, -1,
      211, 21, 20, -1,
      211, 20, 198, -1,
      174, 14, 2, -1,
      174, 2, 212, -1,
      212, 2, 28, -1,
      212, 28, 213, -1,
      213, 28, 24, -1,
      213, 24, 205, -1,
      206, 177, 205, -1,
      205, 177, 178, -1,
      205, 178, 213, -1,
      213, 178, 176, -1,
      213, 176, 212, -1,
      212, 176, 175, -1,
      212, 175, 174, -1,
      195, 193, 197, -1,
      197, 193, 194, -1,
      197, 194, 196, -1,
      196, 194, 186, -1,
      196, 186, 204, -1,
      204, 186, 187, -1,
      204, 187, 203, -1,
      203, 187, 188, -1,
      203, 188, 202, -1,
      202, 188, 189, -1,
      202, 189, 201, -1,
      201, 189, 190, -1,
      201, 190, 200, -1,
      200, 190, 191, -1,
      200, 191, 199, -1,
      199, 191, 192, -1,
      199, 192, 198, -1,
      198, 192, 179, -1,
      198, 179, 211, -1,
      211, 179, 180, -1,
      211, 180, 210, -1,
      210, 180, 181, -1,
      210, 181, 209, -1,
      209, 181, 182, -1,
      209, 182, 208, -1,
      208, 182, 183, -1,
      208, 183, 207, -1,
      207, 183, 184, -1,
      207, 184, 206, -1,
      206, 184, 185, -1,
      206, 185, 177, -1,
      214, 215, 33, -1,
      33, 215, 8, -1,
      215, 216, 8, -1,
      8, 216, 6, -1,
      216, 217, 6, -1,
      6, 217, 12, -1,
      217, 218, 12, -1,
      12, 218, 11, -1,
      218, 219, 11, -1,
      11, 219, 35, -1,
      219, 214, 35, -1,
      35, 214, 33, -1,
      218, 217, 219, -1,
      219, 217, 216, -1,
      219, 216, 214, -1,
      214, 216, 215, -1,
    ]
  }
}

Shape {
  appearance Appearance {
    material Material {
      diffuseColor 0.5098 0.5098 0.6275
      specularColor 0.2549 0.2549 0.3137
      ambientIntensity 0.2
      transparency 0.0000
      shininess 0.5
    }
  }
  geometry IndexedFaceSet {
    ccw TRUE
    solid FALSE
    coord DEF co Coordinate {
      point [
        -0.109694 -0.014058 0.003937,
        -0.136026 -0.014058 0.003937,
        -0.121443 0.018831 0.003937,
        -0.122200 0.021561 0.003937,
        -0.122703 0.024352 0.003937,
        -0.122958 0.024352 0.003937,
        -0.123472 0.021570 0.003937,
        -0.124173 0.018831 0.003937,
        -0.041037 0.025312 0.003937,
        -0.029424 0.025312 0.003937,
        -0.050317 0.024331 0.003937,
        -0.056822 0.022063 0.003937,
        -0.062581 0.018354 0.003937,
        -0.066411 0.014300 0.003937,
        -0.069151 0.009452 0.003937,
        -0.071006 0.003186 0.003937,
        -0.071675 -0.004650 0.003937,
        -0.070958 -0.012888 0.003937,
        -0.068654 -0.020298 0.003937,
        -0.065337 -0.025732 0.003937,
        -0.060925 -0.030098 0.003937,
        -0.055561 -0.033291 0.003937,
        -0.048909 -0.035370 0.003937,
        -0.040602 -0.036144 0.003937,
        -0.029424 -0.036144 0.003937,
      ]
    }
    coordIndex [
      0, 1, 2, -1,
      2, 1, 7, -1,
      2, 7, 3, -1,
      3, 7, 6, -1,
      3, 6, 4, -1,
      4, 6, 5, -1,
      9, 24, 8, -1,
      8, 24, 23, -1,
      8, 23, 22, -1,
      16, 15, 8, -1,
      8, 15, 14, -1,
      8, 14, 10, -1,
      22, 21, 8, -1,
      8, 21, 20, -1,
      8, 20, 19, -1,
      19, 18, 8, -1,
      8, 18, 17, -1,
      8, 17, 16, -1,
      13, 12, 14, -1,
      14, 12, 11, -1,
      14, 11, 10, -1,
    ]
  }
}

Shape {
  appearance Appearance {
    material Material {
      diffuseColor 0.9020 0.7843 0.6863
      specularColor 0.4510 0.3922 0.3412
      ambientIntensity 0.2
      transparency 0.0000
      shininess 0.5
    }
  }
  geometry IndexedFaceSet {
    ccw TRUE
    solid FALSE
    coord DEF co Coordinate {
      point [
        0.393701 0.196850 0.003937,
        0.393701 0.196850 0.200787,
        0.393701 -0.196850 0.200787,
        0.393701 -0.196850 0.003937,
        -0.354331 0.236220 0.003937,
        -0.354331 0.236220 0.200787,
        0.354331 0.236220 0.200787,
        0.354331 0.236220 0.003937,
        -0.393701 0.196850 0.200787,
        -0.393701 0.196850 0.003937,
        -0.393701 -0.196850 0.200787,
        -0.393701 -0.196850 0.003937,
        -0.354331 -0.236220 0.200787,
        -0.354331 -0.236220 0.003937,
        0.354331 -0.236220 0.200787,
        0.354331 -0.236220 0.003937,
        0.355672 -0.226031 0.003937,
        0.355672 0.226031 0.003937,
        0.359605 0.216535 0.003937,
        0.365862 0.208381 0.003937,
        0.374016 0.202125 0.003937,
        0.383511 0.198192 0.003937,
        0.383511 -0.198192 0.003937,
        0.374016 -0.202125 0.003937,
        0.365862 -0.208381 0.003937,
        0.359605 -0.216535 0.003937,
        -0.355672 -0.226031 0.003937,
        -0.359605 -0.216535 0.003937,
        -0.365862 -0.208381 0.003937,
        -0.374016 -0.202125 0.003937,
        -0.383511 -0.198192 0.003937,
        -0.355672 0.226031 0.003937,
        -0.383511 0.198192 0.003937,
        -0.374016 0.202125 0.003937,
        -0.365862 0.208381 0.003937,
        -0.359605 0.216535 0.003937,
        -0.365862 0.208381 0.200787,
        0.359605 0.216535 0.200787,
        0.359605 -0.216535 0.200787,
        0.365862 -0.208381 0.200787,
        0.355672 0.226031 0.200787,
        -0.355672 0.226031 0.200787,
        0.374016 -0.202125 0.200787,
        0.383511 -0.198192 0.200787,
        -0.359605 0.216535 0.200787,
        0.374016 0.202125 0.200787,
        0.383511 0.198192 0.200787,
        0.365862 0.208381 0.200787,
        0.355672 -0.226031 0.200787,
        -0.383511 0.198192 0.200787,
        -0.383511 -0.198192 0.200787,
        -0.374016 0.202125 0.200787,
        -0.355672 -0.226031 0.200787,
        -0.359605 -0.216535 0.200787,
        -0.365862 -0.208381 0.200787,
        -0.374016 -0.202125 0.200787,
        -0.334646 0.196850 0.007874,
        -0.334646 0.196850 0.000000,
        -0.357817 0.220022 0.007874,
        -0.357817 0.220022 0.000000,
        -0.354331 0.177165 0.000000,
        -0.354331 0.177165 0.007874,
        -0.377502 0.200337 0.000000,
        -0.377502 0.200337 0.007874,
        -0.354331 -0.177165 0.007874,
        -0.354331 -0.177165 0.000000,
        -0.377502 -0.200337 0.007874,
        -0.377502 -0.200337 0.000000,
        -0.334646 -0.196850 0.000000,
        -0.334646 -0.196850 0.007874,
        -0.357817 -0.220022 0.000000,
        -0.357817 -0.220022 0.007874,
        -0.157480 0.196850 0.007874,
        -0.157480 -0.196850 0.007874,
        -0.157480 0.196850 0.000000,
        -0.157480 -0.196850 0.000000,
        -0.362719 0.211929 0.007874,
        -0.369409 -0.205238 0.007874,
        -0.369409 0.205238 0.007874,
        -0.362719 -0.211929 0.007874,
        -0.362719 0.211929 0.000000,
        -0.369409 -0.205238 0.000000,
        -0.362719 -0.211929 0.000000,
        -0.369409 0.205238 0.000000,
        0.334428 -0.196850 0.007874,
        0.334428 -0.196850 0.000000,
        0.357750 -0.220172 0.007874,
        0.357750 -0.220172 0.000000,
        0.354331 -0.176948 0.000000,
        0.354331 -0.176948 0.007874,
        0.377652 -0.200270 0.000000,
        0.377652 -0.200270 0.007874,
        0.354331 0.176948 0.007874,
        0.354331 0.176948 -0.000000,
        0.377652 0.200270 0.007874,
        0.377652 0.200270 -0.000000,
        0.334428 0.196850 0.000000,
        0.334428 0.196850 0.007874,
        0.357750 0.220172 0.000000,
        0.357750 0.220172 0.007874,
        0.157480 0.146790 0.007874,
        0.207541 0.196850 0.007874,
        0.157480 0.146790 0.000000,
        0.207541 0.196850 0.000000,
        0.157480 -0.196850 0.007874,
        0.157480 -0.196850 0.000000,
        0.362685 0.211972 0.007874,
        0.369452 0.205204 0.007874,
        0.362685 -0.211972 0.007874,
        0.369452 -0.205204 0.007874,
        0.369452 0.205204 0.000000,
        0.369452 -0.205204 0.000000,
        0.362685 0.211972 0.000000,
        0.362685 -0.211972 0.000000,
      ]
    }
    coordIndex [
      14, 15, 48, -1,
      48, 15, 16, -1,
      48, 16, 38, -1,
      38, 16, 25, -1,
      38, 25, 39, -1,
      39, 25, 24, -1,
      39, 24, 42, -1,
      42, 24, 23, -1,
      42, 23, 43, -1,
      43, 23, 22, -1,
      43, 22, 2, -1,
      2, 22, 3, -1,
      10, 11, 50, -1,
      50, 11, 30, -1,
      50, 30, 55, -1,
      55, 30, 29, -1,
      55, 29, 54, -1,
      54, 29, 28, -1,
      54, 28, 53, -1,
      53, 28, 27, -1,
      53, 27, 52, -1,
      52, 27, 26, -1,
      52, 26, 12, -1,
      12, 26, 13, -1,
      5, 4, 41, -1,
      41, 4, 31, -1,
      41, 31, 44, -1,
      44, 31, 35, -1,
      44, 35, 36, -1,
      36, 35, 34, -1,
      36, 34, 51, -1,
      51, 34, 33, -1,
      51, 33, 49, -1,
      49, 33, 32, -1,
      49, 32, 8, -1,
      8, 32, 9, -1,
      1, 0, 46, -1,
      46, 0, 21, -1,
      46, 21, 45, -1,
      45, 21, 20, -1,
      45, 20, 47, -1,
      47, 20, 19, -1,
      47, 19, 37, -1,
      37, 19, 18, -1,
      37, 18, 40, -1,
      40, 18, 17, -1,
      40, 17, 6, -1,
      6, 17, 7, -1,
      56, 57, 58, -1,
      58, 57, 59, -1,
      60, 61, 62, -1,
      62, 61, 63, -1,
      64, 65, 66, -1,
      66, 65, 67, -1,
      68, 69, 70, -1,
      70, 69, 71, -1,
      72, 73, 74, -1,
      74, 73, 75, -1,
      56, 72, 57, -1,
      57, 72, 74, -1,
      64, 61, 65, -1,
      65, 61, 60, -1,
      73, 69, 75, -1,
      75, 69, 68, -1,
      61, 72, 56, -1,
      56, 58, 76, -1,
      73, 72, 69, -1,
      69, 72, 61, -1,
      69, 61, 64, -1,
      64, 66, 77, -1,
      56, 76, 61, -1,
      61, 76, 78, -1,
      61, 78, 63, -1,
      64, 77, 69, -1,
      69, 77, 79, -1,
      69, 79, 71, -1,
      57, 74, 60, -1,
      80, 59, 57, -1,
      81, 67, 65, -1,
      68, 70, 82, -1,
      80, 57, 83, -1,
      83, 57, 60, -1,
      83, 60, 62, -1,
      74, 75, 60, -1,
      60, 75, 68, -1,
      60, 68, 65, -1,
      65, 68, 82, -1,
      65, 82, 81, -1,
      66, 67, 77, -1,
      77, 67, 81, -1,
      77, 81, 79, -1,
      79, 81, 82, -1,
      79, 82, 71, -1,
      71, 82, 70, -1,
      58, 59, 76, -1,
      76, 59, 80, -1,
      76, 80, 78, -1,
      78, 80, 83, -1,
      78, 83, 63, -1,
      63, 83, 62, -1,
      84, 85, 86, -1,
      86, 85, 87, -1,
      88, 89, 90, -1,
      90, 89, 91, -1,
      92, 93, 94, -1,
      94, 93, 95, -1,
      96, 97, 98, -1,
      98, 97, 99, -1,
      100, 101, 102, -1,
      102, 101, 103, -1,
      104, 100, 105, -1,
      105, 100, 102, -1,
      84, 104, 85, -1,
      85, 104, 105, -1,
      92, 89, 93, -1,
      93, 89, 88, -1,
      101, 97, 103, -1,
      103, 97, 96, -1,
      106, 99, 97, -1,
      106, 97, 107, -1,
      84, 86, 108, -1,
      104, 84, 100, -1,
      100, 84, 89, -1,
      94, 107, 92, -1,
      92, 107, 97, -1,
      92, 97, 89, -1,
      89, 97, 101, -1,
      89, 101, 100, -1,
      84, 108, 89, -1,
      89, 108, 109, -1,
      89, 109, 91, -1,
      102, 103, 96, -1,
      110, 95, 93, -1,
      88, 90, 111, -1,
      88, 85, 105, -1,
      96, 98, 112, -1,
      88, 111, 85, -1,
      85, 111, 113, -1,
      85, 113, 87, -1,
      105, 102, 88, -1,
      88, 102, 96, -1,
      88, 96, 93, -1,
      93, 96, 112, -1,
      93, 112, 110, -1,
      86, 87, 108, -1,
      108, 87, 113, -1,
      108, 113, 109, -1,
      109, 113, 111, -1,
      109, 111, 91, -1,
      91, 111, 90, -1,
      94, 95, 107, -1,
      107, 95, 110, -1,
      107, 110, 106, -1,
      106, 110, 112, -1,
      106, 112, 99, -1,
      99, 112, 98, -1,
    ]
  }
}
