ISO-10303-21;
HEADER;
/* Generated by software containing ST-Developer
 * from STEP Tools, Inc. (www.steptools.com) 
 */

FILE_DESCRIPTION(
/* description */ (''),
/* implementation_level */ '2;1');

FILE_NAME(
/* name */ 'WLCSP-4(0.8x0.8).step',
/* time_stamp */ '2026-02-21T11:00:18+05:30',
/* author */ (''),
/* organization */ (''),
/* preprocessor_version */ 'ST-DEVELOPER v20.1',
/* originating_system */ 'Autodesk Translation Framework v14.21.0.0',
/* authorisation */ '');

FILE_SCHEMA (('AUTOMOTIVE_DESIGN { 1 0 10303 214 3 1 1 }'));
ENDSEC;

DATA;
#10=MECHANICAL_DESIGN_GEOMETRIC_PRESENTATION_REPRESENTATION('',(#13),#303);
#11=SHAPE_REPRESENTATION_RELATIONSHIP('SRR','None',#310,#12);
#12=ADVANCED_BREP_SHAPE_REPRESENTATION('',(#14),#302);
#13=STYLED_ITEM('',(#320),#14);
#14=MANIFOLD_SOLID_BREP('Body1',#171);
#15=FACE_BOUND('',#69,.T.);
#16=FACE_BOUND('',#70,.T.);
#17=FACE_BOUND('',#71,.T.);
#18=FACE_BOUND('',#72,.T.);
#19=LINE('',#277,#31);
#20=LINE('',#279,#32);
#21=LINE('',#281,#33);
#22=LINE('',#282,#34);
#23=LINE('',#285,#35);
#24=LINE('',#287,#36);
#25=LINE('',#288,#37);
#26=LINE('',#291,#38);
#27=LINE('',#293,#39);
#28=LINE('',#294,#40);
#29=LINE('',#296,#41);
#30=LINE('',#297,#42);
#31=VECTOR('',#231,10.);
#32=VECTOR('',#232,10.);
#33=VECTOR('',#233,10.);
#34=VECTOR('',#234,10.);
#35=VECTOR('',#237,10.);
#36=VECTOR('',#238,10.);
#37=VECTOR('',#239,10.);
#38=VECTOR('',#242,10.);
#39=VECTOR('',#243,10.);
#40=VECTOR('',#244,10.);
#41=VECTOR('',#247,10.);
#42=VECTOR('',#248,10.);
#43=PLANE('',#197);
#44=PLANE('',#198);
#45=PLANE('',#199);
#46=PLANE('',#200);
#47=PLANE('',#201);
#48=PLANE('',#202);
#49=FACE_OUTER_BOUND('',#59,.T.);
#50=FACE_OUTER_BOUND('',#60,.T.);
#51=FACE_OUTER_BOUND('',#61,.T.);
#52=FACE_OUTER_BOUND('',#62,.T.);
#53=FACE_OUTER_BOUND('',#63,.T.);
#54=FACE_OUTER_BOUND('',#64,.T.);
#55=FACE_OUTER_BOUND('',#65,.T.);
#56=FACE_OUTER_BOUND('',#66,.T.);
#57=FACE_OUTER_BOUND('',#67,.T.);
#58=FACE_OUTER_BOUND('',#68,.T.);
#59=EDGE_LOOP('',(#117,#118,#119));
#60=EDGE_LOOP('',(#120,#121,#122));
#61=EDGE_LOOP('',(#123,#124,#125));
#62=EDGE_LOOP('',(#126,#127,#128));
#63=EDGE_LOOP('',(#129,#130,#131,#132));
#64=EDGE_LOOP('',(#133,#134,#135,#136));
#65=EDGE_LOOP('',(#137,#138,#139,#140));
#66=EDGE_LOOP('',(#141,#142,#143,#144));
#67=EDGE_LOOP('',(#145,#146,#147,#148));
#68=EDGE_LOOP('',(#149,#150,#151,#152));
#69=EDGE_LOOP('',(#153));
#70=EDGE_LOOP('',(#154));
#71=EDGE_LOOP('',(#155));
#72=EDGE_LOOP('',(#156));
#73=CIRCLE('',#186,0.115);
#74=CIRCLE('',#187,0.115);
#75=CIRCLE('',#189,0.115);
#76=CIRCLE('',#190,0.115);
#77=CIRCLE('',#192,0.115);
#78=CIRCLE('',#193,0.115);
#79=CIRCLE('',#195,0.115);
#80=CIRCLE('',#196,0.115);
#81=VERTEX_POINT('',#255);
#82=VERTEX_POINT('',#257);
#83=VERTEX_POINT('',#260);
#84=VERTEX_POINT('',#262);
#85=VERTEX_POINT('',#265);
#86=VERTEX_POINT('',#267);
#87=VERTEX_POINT('',#270);
#88=VERTEX_POINT('',#272);
#89=VERTEX_POINT('',#275);
#90=VERTEX_POINT('',#276);
#91=VERTEX_POINT('',#278);
#92=VERTEX_POINT('',#280);
#93=VERTEX_POINT('',#284);
#94=VERTEX_POINT('',#286);
#95=VERTEX_POINT('',#290);
#96=VERTEX_POINT('',#292);
#97=EDGE_CURVE('',#81,#81,#73,.T.);
#98=EDGE_CURVE('',#81,#82,#74,.T.);
#99=EDGE_CURVE('',#83,#83,#75,.T.);
#100=EDGE_CURVE('',#83,#84,#76,.T.);
#101=EDGE_CURVE('',#85,#85,#77,.T.);
#102=EDGE_CURVE('',#85,#86,#78,.T.);
#103=EDGE_CURVE('',#87,#87,#79,.T.);
#104=EDGE_CURVE('',#87,#88,#80,.T.);
#105=EDGE_CURVE('',#89,#90,#19,.T.);
#106=EDGE_CURVE('',#89,#91,#20,.T.);
#107=EDGE_CURVE('',#92,#91,#21,.T.);
#108=EDGE_CURVE('',#90,#92,#22,.T.);
#109=EDGE_CURVE('',#90,#93,#23,.T.);
#110=EDGE_CURVE('',#94,#92,#24,.T.);
#111=EDGE_CURVE('',#93,#94,#25,.T.);
#112=EDGE_CURVE('',#93,#95,#26,.T.);
#113=EDGE_CURVE('',#96,#94,#27,.T.);
#114=EDGE_CURVE('',#95,#96,#28,.T.);
#115=EDGE_CURVE('',#95,#89,#29,.T.);
#116=EDGE_CURVE('',#91,#96,#30,.T.);
#117=ORIENTED_EDGE('',*,*,#97,.F.);
#118=ORIENTED_EDGE('',*,*,#98,.T.);
#119=ORIENTED_EDGE('',*,*,#98,.F.);
#120=ORIENTED_EDGE('',*,*,#99,.F.);
#121=ORIENTED_EDGE('',*,*,#100,.T.);
#122=ORIENTED_EDGE('',*,*,#100,.F.);
#123=ORIENTED_EDGE('',*,*,#101,.F.);
#124=ORIENTED_EDGE('',*,*,#102,.T.);
#125=ORIENTED_EDGE('',*,*,#102,.F.);
#126=ORIENTED_EDGE('',*,*,#103,.F.);
#127=ORIENTED_EDGE('',*,*,#104,.T.);
#128=ORIENTED_EDGE('',*,*,#104,.F.);
#129=ORIENTED_EDGE('',*,*,#105,.F.);
#130=ORIENTED_EDGE('',*,*,#106,.T.);
#131=ORIENTED_EDGE('',*,*,#107,.F.);
#132=ORIENTED_EDGE('',*,*,#108,.F.);
#133=ORIENTED_EDGE('',*,*,#109,.F.);
#134=ORIENTED_EDGE('',*,*,#108,.T.);
#135=ORIENTED_EDGE('',*,*,#110,.F.);
#136=ORIENTED_EDGE('',*,*,#111,.F.);
#137=ORIENTED_EDGE('',*,*,#112,.F.);
#138=ORIENTED_EDGE('',*,*,#111,.T.);
#139=ORIENTED_EDGE('',*,*,#113,.F.);
#140=ORIENTED_EDGE('',*,*,#114,.F.);
#141=ORIENTED_EDGE('',*,*,#115,.F.);
#142=ORIENTED_EDGE('',*,*,#114,.T.);
#143=ORIENTED_EDGE('',*,*,#116,.F.);
#144=ORIENTED_EDGE('',*,*,#106,.F.);
#145=ORIENTED_EDGE('',*,*,#116,.T.);
#146=ORIENTED_EDGE('',*,*,#113,.T.);
#147=ORIENTED_EDGE('',*,*,#110,.T.);
#148=ORIENTED_EDGE('',*,*,#107,.T.);
#149=ORIENTED_EDGE('',*,*,#115,.T.);
#150=ORIENTED_EDGE('',*,*,#105,.T.);
#151=ORIENTED_EDGE('',*,*,#109,.T.);
#152=ORIENTED_EDGE('',*,*,#112,.T.);
#153=ORIENTED_EDGE('',*,*,#97,.T.);
#154=ORIENTED_EDGE('',*,*,#99,.T.);
#155=ORIENTED_EDGE('',*,*,#101,.T.);
#156=ORIENTED_EDGE('',*,*,#103,.T.);
#157=SPHERICAL_SURFACE('',#185,0.115);
#158=SPHERICAL_SURFACE('',#188,0.115);
#159=SPHERICAL_SURFACE('',#191,0.115);
#160=SPHERICAL_SURFACE('',#194,0.115);
#161=ADVANCED_FACE('',(#49),#157,.T.);
#162=ADVANCED_FACE('',(#50),#158,.T.);
#163=ADVANCED_FACE('',(#51),#159,.T.);
#164=ADVANCED_FACE('',(#52),#160,.T.);
#165=ADVANCED_FACE('',(#53),#43,.T.);
#166=ADVANCED_FACE('',(#54),#44,.T.);
#167=ADVANCED_FACE('',(#55),#45,.T.);
#168=ADVANCED_FACE('',(#56),#46,.T.);
#169=ADVANCED_FACE('',(#57),#47,.T.);
#170=ADVANCED_FACE('',(#58,#15,#16,#17,#18),#48,.F.);
#171=CLOSED_SHELL('',(#161,#162,#163,#164,#165,#166,#167,#168,#169,#170));
#172=DERIVED_UNIT_ELEMENT(#174,1.);
#173=DERIVED_UNIT_ELEMENT(#305,-3.);
#174=(
MASS_UNIT()
NAMED_UNIT(*)
SI_UNIT(.KILO.,.GRAM.)
);
#175=DERIVED_UNIT((#172,#173));
#176=MEASURE_REPRESENTATION_ITEM('density measure',
POSITIVE_RATIO_MEASURE(7850.),#175);
#177=PROPERTY_DEFINITION_REPRESENTATION(#182,#179);
#178=PROPERTY_DEFINITION_REPRESENTATION(#183,#180);
#179=REPRESENTATION('material name',(#181),#302);
#180=REPRESENTATION('density',(#176),#302);
#181=DESCRIPTIVE_REPRESENTATION_ITEM('Steel','Steel');
#182=PROPERTY_DEFINITION('material property','material name',#312);
#183=PROPERTY_DEFINITION('material property','density of part',#312);
#184=AXIS2_PLACEMENT_3D('',#253,#203,#204);
#185=AXIS2_PLACEMENT_3D('',#254,#205,#206);
#186=AXIS2_PLACEMENT_3D('',#256,#207,#208);
#187=AXIS2_PLACEMENT_3D('',#258,#209,#210);
#188=AXIS2_PLACEMENT_3D('',#259,#211,#212);
#189=AXIS2_PLACEMENT_3D('',#261,#213,#214);
#190=AXIS2_PLACEMENT_3D('',#263,#215,#216);
#191=AXIS2_PLACEMENT_3D('',#264,#217,#218);
#192=AXIS2_PLACEMENT_3D('',#266,#219,#220);
#193=AXIS2_PLACEMENT_3D('',#268,#221,#222);
#194=AXIS2_PLACEMENT_3D('',#269,#223,#224);
#195=AXIS2_PLACEMENT_3D('',#271,#225,#226);
#196=AXIS2_PLACEMENT_3D('',#273,#227,#228);
#197=AXIS2_PLACEMENT_3D('',#274,#229,#230);
#198=AXIS2_PLACEMENT_3D('',#283,#235,#236);
#199=AXIS2_PLACEMENT_3D('',#289,#240,#241);
#200=AXIS2_PLACEMENT_3D('',#295,#245,#246);
#201=AXIS2_PLACEMENT_3D('',#298,#249,#250);
#202=AXIS2_PLACEMENT_3D('',#299,#251,#252);
#203=DIRECTION('axis',(0.,0.,1.));
#204=DIRECTION('refdir',(1.,0.,0.));
#205=DIRECTION('center_axis',(0.,0.,1.));
#206=DIRECTION('ref_axis',(-2.41352831440251E-16,-1.,0.));
#207=DIRECTION('center_axis',(0.,0.,1.));
#208=DIRECTION('ref_axis',(0.,-1.,0.));
#209=DIRECTION('center_axis',(-1.,0.,0.));
#210=DIRECTION('ref_axis',(0.,1.,0.));
#211=DIRECTION('center_axis',(0.,0.,1.));
#212=DIRECTION('ref_axis',(-1.,2.41352831440251E-16,0.));
#213=DIRECTION('center_axis',(0.,0.,1.));
#214=DIRECTION('ref_axis',(0.,-1.,0.));
#215=DIRECTION('center_axis',(0.,1.,0.));
#216=DIRECTION('ref_axis',(1.,0.,0.));
#217=DIRECTION('center_axis',(0.,0.,1.));
#218=DIRECTION('ref_axis',(0.,1.,0.));
#219=DIRECTION('center_axis',(0.,0.,1.));
#220=DIRECTION('ref_axis',(0.,-1.,0.));
#221=DIRECTION('center_axis',(1.,0.,0.));
#222=DIRECTION('ref_axis',(0.,-1.,0.));
#223=DIRECTION('center_axis',(0.,0.,1.));
#224=DIRECTION('ref_axis',(1.,0.,0.));
#225=DIRECTION('center_axis',(0.,0.,1.));
#226=DIRECTION('ref_axis',(0.,-1.,0.));
#227=DIRECTION('center_axis',(0.,-1.,0.));
#228=DIRECTION('ref_axis',(-1.,0.,0.));
#229=DIRECTION('center_axis',(-1.,0.,0.));
#230=DIRECTION('ref_axis',(0.,-1.,0.));
#231=DIRECTION('',(0.,1.,0.));
#232=DIRECTION('',(0.,0.,1.));
#233=DIRECTION('',(0.,-1.,0.));
#234=DIRECTION('',(0.,0.,1.));
#235=DIRECTION('center_axis',(0.,1.,0.));
#236=DIRECTION('ref_axis',(-1.,0.,0.));
#237=DIRECTION('',(1.,0.,0.));
#238=DIRECTION('',(-1.,0.,0.));
#239=DIRECTION('',(0.,0.,1.));
#240=DIRECTION('center_axis',(1.,0.,0.));
#241=DIRECTION('ref_axis',(0.,1.,0.));
#242=DIRECTION('',(0.,-1.,0.));
#243=DIRECTION('',(0.,1.,0.));
#244=DIRECTION('',(0.,0.,1.));
#245=DIRECTION('center_axis',(0.,-1.,0.));
#246=DIRECTION('ref_axis',(1.,0.,0.));
#247=DIRECTION('',(-1.,0.,0.));
#248=DIRECTION('',(1.,0.,0.));
#249=DIRECTION('center_axis',(0.,0.,1.));
#250=DIRECTION('ref_axis',(1.,0.,0.));
#251=DIRECTION('center_axis',(0.,0.,1.));
#252=DIRECTION('ref_axis',(1.,0.,0.));
#253=CARTESIAN_POINT('',(0.,0.,0.));
#254=CARTESIAN_POINT('Origin',(0.20000000949949,-0.20000000949949,0.));
#255=CARTESIAN_POINT('',(0.20000000949949,-0.0850000094994903,0.));
#256=CARTESIAN_POINT('Origin',(0.20000000949949,-0.20000000949949,0.));
#257=CARTESIAN_POINT('',(0.20000000949949,-0.20000000949949,-0.115));
#258=CARTESIAN_POINT('Origin',(0.20000000949949,-0.20000000949949,0.));
#259=CARTESIAN_POINT('Origin',(-0.20000000949949,-0.20000000949949,0.));
#260=CARTESIAN_POINT('',(-0.0850000094994903,-0.20000000949949,0.));
#261=CARTESIAN_POINT('Origin',(-0.20000000949949,-0.20000000949949,0.));
#262=CARTESIAN_POINT('',(-0.20000000949949,-0.20000000949949,-0.115));
#263=CARTESIAN_POINT('Origin',(-0.20000000949949,-0.20000000949949,0.));
#264=CARTESIAN_POINT('Origin',(-0.20000000949949,0.20000000949949,0.));
#265=CARTESIAN_POINT('',(-0.20000000949949,0.0850000094994902,0.));
#266=CARTESIAN_POINT('Origin',(-0.20000000949949,0.20000000949949,0.));
#267=CARTESIAN_POINT('',(-0.20000000949949,0.20000000949949,-0.115));
#268=CARTESIAN_POINT('Origin',(-0.20000000949949,0.20000000949949,0.));
#269=CARTESIAN_POINT('Origin',(0.20000000949949,0.20000000949949,0.));
#270=CARTESIAN_POINT('',(0.0850000094994902,0.20000000949949,0.));
#271=CARTESIAN_POINT('Origin',(0.20000000949949,0.20000000949949,0.));
#272=CARTESIAN_POINT('',(0.20000000949949,0.20000000949949,-0.115));
#273=CARTESIAN_POINT('Origin',(0.20000000949949,0.20000000949949,0.));
#274=CARTESIAN_POINT('Origin',(-0.41,0.41,0.));
#275=CARTESIAN_POINT('',(-0.41,-0.41,0.));
#276=CARTESIAN_POINT('',(-0.41,0.41,0.));
#277=CARTESIAN_POINT('',(-0.41,-0.41,0.));
#278=CARTESIAN_POINT('',(-0.41,-0.41,0.4));
#279=CARTESIAN_POINT('',(-0.41,-0.41,0.));
#280=CARTESIAN_POINT('',(-0.41,0.41,0.4));
#281=CARTESIAN_POINT('',(-0.41,-0.41,0.4));
#282=CARTESIAN_POINT('',(-0.41,0.41,0.));
#283=CARTESIAN_POINT('Origin',(0.41,0.41,0.));
#284=CARTESIAN_POINT('',(0.41,0.41,0.));
#285=CARTESIAN_POINT('',(-0.41,0.41,0.));
#286=CARTESIAN_POINT('',(0.41,0.41,0.4));
#287=CARTESIAN_POINT('',(-0.41,0.41,0.4));
#288=CARTESIAN_POINT('',(0.41,0.41,0.));
#289=CARTESIAN_POINT('Origin',(0.41,-0.41,0.));
#290=CARTESIAN_POINT('',(0.41,-0.41,0.));
#291=CARTESIAN_POINT('',(0.41,0.41,0.));
#292=CARTESIAN_POINT('',(0.41,-0.41,0.4));
#293=CARTESIAN_POINT('',(0.41,0.41,0.4));
#294=CARTESIAN_POINT('',(0.41,-0.41,0.));
#295=CARTESIAN_POINT('Origin',(-0.41,-0.41,0.));
#296=CARTESIAN_POINT('',(0.41,-0.41,0.));
#297=CARTESIAN_POINT('',(0.41,-0.41,0.4));
#298=CARTESIAN_POINT('Origin',(-1.38777878078145E-16,0.,0.4));
#299=CARTESIAN_POINT('Origin',(-1.38777878078145E-16,0.,0.));
#300=UNCERTAINTY_MEASURE_WITH_UNIT(LENGTH_MEASURE(0.01),#304,
'DISTANCE_ACCURACY_VALUE',
'Maximum model space distance between geometric entities at asserted c
onnectivities');
#301=UNCERTAINTY_MEASURE_WITH_UNIT(LENGTH_MEASURE(0.01),#304,
'DISTANCE_ACCURACY_VALUE',
'Maximum model space distance between geometric entities at asserted c
onnectivities');
#302=(
GEOMETRIC_REPRESENTATION_CONTEXT(3)
GLOBAL_UNCERTAINTY_ASSIGNED_CONTEXT((#300))
GLOBAL_UNIT_ASSIGNED_CONTEXT((#304,#306,#307))
REPRESENTATION_CONTEXT('','3D')
);
#303=(
GEOMETRIC_REPRESENTATION_CONTEXT(3)
GLOBAL_UNCERTAINTY_ASSIGNED_CONTEXT((#301))
GLOBAL_UNIT_ASSIGNED_CONTEXT((#304,#306,#307))
REPRESENTATION_CONTEXT('','3D')
);
#304=(
LENGTH_UNIT()
NAMED_UNIT(*)
SI_UNIT(.MILLI.,.METRE.)
);
#305=(
LENGTH_UNIT()
NAMED_UNIT(*)
SI_UNIT($,.METRE.)
);
#306=(
NAMED_UNIT(*)
PLANE_ANGLE_UNIT()
SI_UNIT($,.RADIAN.)
);
#307=(
NAMED_UNIT(*)
SI_UNIT($,.STERADIAN.)
SOLID_ANGLE_UNIT()
);
#308=SHAPE_DEFINITION_REPRESENTATION(#309,#310);
#309=PRODUCT_DEFINITION_SHAPE('',$,#312);
#310=SHAPE_REPRESENTATION('',(#184),#302);
#311=PRODUCT_DEFINITION_CONTEXT('part definition',#316,'design');
#312=PRODUCT_DEFINITION('2026-02-21-10-53-06-451','(Unsaved)',#313,#311);
#313=PRODUCT_DEFINITION_FORMATION('',$,#318);
#314=PRODUCT_RELATED_PRODUCT_CATEGORY('(Unsaved)','(Unsaved)',(#318));
#315=APPLICATION_PROTOCOL_DEFINITION('international standard',
'automotive_design',2009,#316);
#316=APPLICATION_CONTEXT(
'Core Data for Automotive Mechanical Design Process');
#317=PRODUCT_CONTEXT('part definition',#316,'mechanical');
#318=PRODUCT('2026-02-21-10-53-06-451','(Unsaved)',$,(#317));
#319=PRESENTATION_STYLE_ASSIGNMENT((#321));
#320=PRESENTATION_STYLE_ASSIGNMENT((#322));
#321=SURFACE_STYLE_USAGE(.BOTH.,#323);
#322=SURFACE_STYLE_USAGE(.BOTH.,#324);
#323=SURFACE_SIDE_STYLE('',(#325));
#324=SURFACE_SIDE_STYLE('',(#326));
#325=SURFACE_STYLE_FILL_AREA(#327);
#326=SURFACE_STYLE_FILL_AREA(#328);
#327=FILL_AREA_STYLE('Steel - Satin',(#329));
#328=FILL_AREA_STYLE('Paint - Metallic (Black)',(#330));
#329=FILL_AREA_STYLE_COLOUR('Steel - Satin',#331);
#330=FILL_AREA_STYLE_COLOUR('Paint - Metallic (Black)',#332);
#331=COLOUR_RGB('Steel - Satin',0.627450980392157,0.627450980392157,0.627450980392157);
#332=COLOUR_RGB('Paint - Metallic (Black)',0.0980392156862745,0.0980392156862745,
0.0980392156862745);
ENDSEC;
END-ISO-10303-21;
