%TF.GenerationSoftware,KiCad,Pcbnew,9.0.7*%
%TF.CreationDate,2026-02-16T22:31:36-05:00*%
%TF.ProjectId,Primis_Versipellis,5072696d-6973-45f5-9665-72736970656c,rev?*%
%TF.SameCoordinates,Original*%
%TF.FileFunction,Copper,L2,Bot*%
%TF.FilePolarity,Positive*%
%FSLAX46Y46*%
G04 Gerber Fmt 4.6, Leading zero omitted, Abs format (unit mm)*
G04 Created by KiCad (PCBNEW 9.0.7) date 2026-02-16 22:31:36*
%MOMM*%
%LPD*%
G01*
G04 APERTURE LIST*
%TA.AperFunction,HeatsinkPad*%
%ADD10O,3.500000X1.900000*%
%TD*%
%TA.AperFunction,ComponentPad*%
%ADD11R,0.850000X0.850000*%
%TD*%
%TA.AperFunction,ComponentPad*%
%ADD12C,0.850000*%
%TD*%
%TA.AperFunction,ComponentPad*%
%ADD13R,0.500000X0.900000*%
%TD*%
%TA.AperFunction,ViaPad*%
%ADD14C,0.700000*%
%TD*%
%TA.AperFunction,ViaPad*%
%ADD15C,0.600000*%
%TD*%
%TA.AperFunction,Conductor*%
%ADD16C,0.200000*%
%TD*%
G04 APERTURE END LIST*
D10*
%TO.P,J2,5,Shield*%
%TO.N,GND*%
X127500000Y-75200000D03*
X127500000Y-63800000D03*
%TD*%
D11*
%TO.P,J3,1,Pin_1*%
%TO.N,VDD_nRF*%
X136500000Y-64000000D03*
D12*
%TO.P,J3,2,Pin_2*%
%TO.N,GND*%
X136500000Y-65000000D03*
%TO.P,J3,3,Pin_3*%
%TO.N,Net-(J3-Pin_3)*%
X136500000Y-66000000D03*
%TO.P,J3,4,Pin_4*%
%TO.N,Net-(J3-Pin_4)*%
X136500000Y-67000000D03*
%TO.P,J3,5,Pin_5*%
%TO.N,Net-(J3-Pin_5)*%
X136500000Y-68000000D03*
%TD*%
D13*
%TO.P,REF\u002A\u002A,2*%
%TO.N,N/C*%
X168750000Y-76050000D03*
%TD*%
D14*
%TO.N,GND*%
X163000000Y-66500000D03*
X153000000Y-78000000D03*
D15*
X165500000Y-75000000D03*
D14*
X148500000Y-62000000D03*
D15*
X163500000Y-72000000D03*
D14*
X138500000Y-65000000D03*
X144000000Y-69500000D03*
D15*
X167750000Y-73000000D03*
D14*
X132500000Y-66000000D03*
X156000000Y-62500000D03*
D15*
X167000000Y-75000000D03*
D14*
X148500000Y-78500000D03*
X156128763Y-71070000D03*
D15*
X158000000Y-72000000D03*
D14*
X129500000Y-61500000D03*
X151070000Y-65500000D03*
D15*
X167750000Y-75000000D03*
X147500000Y-58750000D03*
D14*
X129500000Y-77500000D03*
X144000000Y-62500000D03*
X144000000Y-71500000D03*
X163000000Y-68500000D03*
X152000000Y-58500000D03*
D15*
X167000000Y-73000000D03*
D14*
X159000000Y-60500000D03*
D15*
X165500000Y-73000000D03*
D14*
X163000000Y-70500000D03*
D15*
X166250000Y-75000000D03*
X166250000Y-73000000D03*
%TO.N,VDD_nRF*%
X155250000Y-65250000D03*
X151500000Y-77000000D03*
X153250000Y-65000000D03*
X149980000Y-65500000D03*
%TO.N,DEC4_6*%
X149750000Y-64750000D03*
X157000000Y-69750000D03*
D14*
%TO.N,Net-(J3-Pin_4)*%
X153604674Y-73378286D03*
X139000000Y-70500000D03*
D15*
%TO.N,VBUS*%
X137000000Y-74000000D03*
D14*
%TO.N,Net-(J3-Pin_5)*%
X137500000Y-71500000D03*
X153070000Y-74000000D03*
%TO.N,Net-(J3-Pin_3)*%
X142000000Y-72000000D03*
X151096979Y-75500000D03*
D15*
%TO.N,D+*%
X151000000Y-79075000D03*
X133800521Y-69949479D03*
%TO.N,D-*%
X151000000Y-79925000D03*
X133199479Y-70550521D03*
%TD*%
D16*
%TO.N,VDD_nRF*%
X152479000Y-64229000D02*
X153250000Y-65000000D01*
X157521000Y-70979000D02*
X151500000Y-77000000D01*
X149980000Y-65500000D02*
X149763194Y-65500000D01*
X149229000Y-64965806D02*
X149229000Y-64534194D01*
X155250000Y-65250000D02*
X157521000Y-67521000D01*
X149229000Y-64534194D02*
X149534194Y-64229000D01*
X157521000Y-67521000D02*
X157521000Y-70979000D01*
X149763194Y-65500000D02*
X149229000Y-64965806D01*
X149534194Y-64229000D02*
X152479000Y-64229000D01*
%TO.N,DEC4_6*%
X152000000Y-64750000D02*
X149750000Y-64750000D01*
X157000000Y-69750000D02*
X152000000Y-64750000D01*
%TO.N,Net-(J3-Pin_4)*%
X150726388Y-70500000D02*
X153604674Y-73378286D01*
X139000000Y-70500000D02*
X150726388Y-70500000D01*
%TO.N,VBUS*%
X136929000Y-73929000D02*
X137000000Y-74000000D01*
%TO.N,Net-(J3-Pin_5)*%
X145692484Y-74000000D02*
X153070000Y-74000000D01*
X137571000Y-71429000D02*
X143121484Y-71429000D01*
X137500000Y-71500000D02*
X137571000Y-71429000D01*
X143121484Y-71429000D02*
X145692484Y-74000000D01*
%TO.N,Net-(J3-Pin_3)*%
X142000000Y-72000000D02*
X145500000Y-75500000D01*
X145500000Y-75500000D02*
X151096979Y-75500000D01*
%TO.N,D+*%
X150800001Y-79274999D02*
X151000000Y-79075000D01*
X141538193Y-79274999D02*
X150800001Y-79274999D01*
X136479000Y-74215806D02*
X141538193Y-79274999D01*
X133800521Y-70232322D02*
X136479000Y-72910801D01*
X136479000Y-72910801D02*
X136479000Y-74215806D01*
X133800521Y-69949479D02*
X133800521Y-70232322D01*
%TO.N,D-*%
X150800001Y-79725001D02*
X151000000Y-79925000D01*
X133199479Y-70550521D02*
X133482322Y-70550521D01*
X136029020Y-73097219D02*
X136029020Y-74402194D01*
X136029020Y-74402194D02*
X141351827Y-79725001D01*
X141351827Y-79725001D02*
X150800001Y-79725001D01*
X133482322Y-70550521D02*
X136029020Y-73097219D01*
%TD*%
%TA.AperFunction,Conductor*%
%TO.N,GND*%
G36*
X150493330Y-71120185D02*
G01*
X150513972Y-71136819D01*
X152534733Y-73157580D01*
X152568218Y-73218903D01*
X152563234Y-73288595D01*
X152530916Y-73333837D01*
X152532145Y-73335066D01*
X152504030Y-73363181D01*
X152442707Y-73396666D01*
X152416349Y-73399500D01*
X145992581Y-73399500D01*
X145925542Y-73379815D01*
X145904900Y-73363181D01*
X143853900Y-71312181D01*
X143820415Y-71250858D01*
X143825399Y-71181166D01*
X143867271Y-71125233D01*
X143932735Y-71100816D01*
X143941581Y-71100500D01*
X150426291Y-71100500D01*
X150493330Y-71120185D01*
G37*
%TD.AperFunction*%
%TA.AperFunction,Conductor*%
G36*
X168442539Y-57020185D02*
G01*
X168488294Y-57072989D01*
X168499500Y-57124500D01*
X168499500Y-61565891D01*
X168533608Y-61693187D01*
X168566554Y-61750250D01*
X168599500Y-61807314D01*
X168692686Y-61900500D01*
X168806814Y-61966392D01*
X168908095Y-61993529D01*
X168967753Y-62029892D01*
X168998283Y-62092739D01*
X169000000Y-62113303D01*
X169000000Y-74975500D01*
X168980315Y-75042539D01*
X168927511Y-75088294D01*
X168876000Y-75099500D01*
X168452129Y-75099500D01*
X168452123Y-75099501D01*
X168392516Y-75105908D01*
X168257671Y-75156202D01*
X168257664Y-75156206D01*
X168142455Y-75242452D01*
X168142452Y-75242455D01*
X168056206Y-75357664D01*
X168056202Y-75357671D01*
X168005908Y-75492517D01*
X167999501Y-75552116D01*
X167999500Y-75552135D01*
X167999500Y-76547870D01*
X167999501Y-76547876D01*
X168005908Y-76607483D01*
X168056202Y-76742328D01*
X168056206Y-76742335D01*
X168142452Y-76857544D01*
X168142455Y-76857547D01*
X168257664Y-76943793D01*
X168257671Y-76943797D01*
X168302618Y-76960561D01*
X168392517Y-76994091D01*
X168452127Y-77000500D01*
X168495684Y-77000499D01*
X168562721Y-77020182D01*
X168608477Y-77072985D01*
X168618422Y-77142143D01*
X168603071Y-77186499D01*
X168533609Y-77306810D01*
X168533609Y-77306811D01*
X168533608Y-77306813D01*
X168533608Y-77306814D01*
X168499500Y-77434108D01*
X168499500Y-81875500D01*
X168479815Y-81942539D01*
X168427011Y-81988294D01*
X168375500Y-81999500D01*
X125086424Y-81999500D01*
X125019385Y-81979815D01*
X124973630Y-81927011D01*
X124962425Y-81875118D01*
X124971599Y-78893713D01*
X132649500Y-78893713D01*
X132649500Y-79106286D01*
X132681527Y-79308501D01*
X132682754Y-79316243D01*
X132727572Y-79454179D01*
X132748444Y-79518414D01*
X132844951Y-79707820D01*
X132969890Y-79879786D01*
X133120213Y-80030109D01*
X133292179Y-80155048D01*
X133292181Y-80155049D01*
X133292184Y-80155051D01*
X133481588Y-80251557D01*
X133683757Y-80317246D01*
X133893713Y-80350500D01*
X133893714Y-80350500D01*
X134106286Y-80350500D01*
X134106287Y-80350500D01*
X134316243Y-80317246D01*
X134518412Y-80251557D01*
X134707816Y-80155051D01*
X134798212Y-80089375D01*
X134879786Y-80030109D01*
X134879788Y-80030106D01*
X134879792Y-80030104D01*
X135030104Y-79879792D01*
X135030106Y-79879788D01*
X135030109Y-79879786D01*
X135155048Y-79707820D01*
X135155047Y-79707820D01*
X135155051Y-79707816D01*
X135251557Y-79518412D01*
X135317246Y-79316243D01*
X135350500Y-79106287D01*
X135350500Y-78893713D01*
X135317246Y-78683757D01*
X135251557Y-78481588D01*
X135155051Y-78292184D01*
X135155049Y-78292181D01*
X135155048Y-78292179D01*
X135030109Y-78120213D01*
X134879786Y-77969890D01*
X134707820Y-77844951D01*
X134518414Y-77748444D01*
X134518413Y-77748443D01*
X134518412Y-77748443D01*
X134316243Y-77682754D01*
X134316241Y-77682753D01*
X134316240Y-77682753D01*
X134154957Y-77657208D01*
X134106287Y-77649500D01*
X133893713Y-77649500D01*
X133845042Y-77657208D01*
X133683760Y-77682753D01*
X133481585Y-77748444D01*
X133292179Y-77844951D01*
X133120213Y-77969890D01*
X132969890Y-78120213D01*
X132844951Y-78292179D01*
X132748444Y-78481585D01*
X132682753Y-78683760D01*
X132649500Y-78893713D01*
X124971599Y-78893713D01*
X124971615Y-78888459D01*
X124982310Y-75412555D01*
X124982310Y-75412554D01*
X124983620Y-74986682D01*
X124983620Y-74986681D01*
X124983733Y-74950000D01*
X125271522Y-74950000D01*
X126324722Y-74950000D01*
X126280667Y-75026306D01*
X126250000Y-75140756D01*
X126250000Y-75259244D01*
X126280667Y-75373694D01*
X126324722Y-75450000D01*
X125271522Y-75450000D01*
X125285704Y-75539544D01*
X125356230Y-75756604D01*
X125459849Y-75959966D01*
X125594004Y-76144614D01*
X125755385Y-76305995D01*
X125940033Y-76440150D01*
X126143395Y-76543769D01*
X126360455Y-76614295D01*
X126585884Y-76650000D01*
X127250000Y-76650000D01*
X127250000Y-75650000D01*
X127750000Y-75650000D01*
X127750000Y-76650000D01*
X128414116Y-76650000D01*
X128639544Y-76614295D01*
X128856604Y-76543769D01*
X129059966Y-76440150D01*
X129244614Y-76305995D01*
X129405995Y-76144614D01*
X129540150Y-75959966D01*
X129643769Y-75756604D01*
X129714295Y-75539544D01*
X129728478Y-75450000D01*
X128675278Y-75450000D01*
X128719333Y-75373694D01*
X128750000Y-75259244D01*
X128750000Y-75140756D01*
X128719333Y-75026306D01*
X128675278Y-74950000D01*
X129728478Y-74950000D01*
X129714295Y-74860455D01*
X129643769Y-74643395D01*
X129540150Y-74440033D01*
X129405995Y-74255385D01*
X129244614Y-74094004D01*
X129059966Y-73959849D01*
X128856604Y-73856230D01*
X128639544Y-73785704D01*
X128414116Y-73750000D01*
X127750000Y-73750000D01*
X127750000Y-74750000D01*
X127250000Y-74750000D01*
X127250000Y-73750000D01*
X126585884Y-73750000D01*
X126360455Y-73785704D01*
X126143395Y-73856230D01*
X125940033Y-73959849D01*
X125755385Y-74094004D01*
X125594004Y-74255385D01*
X125459849Y-74440033D01*
X125356230Y-74643395D01*
X125285704Y-74860455D01*
X125271522Y-74950000D01*
X124983733Y-74950000D01*
X124987425Y-73750000D01*
X124993667Y-71721153D01*
X126699500Y-71721153D01*
X126699500Y-71878846D01*
X126730261Y-72033489D01*
X126730264Y-72033501D01*
X126790602Y-72179172D01*
X126790609Y-72179185D01*
X126878210Y-72310288D01*
X126878213Y-72310292D01*
X126989707Y-72421786D01*
X126989711Y-72421789D01*
X127120814Y-72509390D01*
X127120827Y-72509397D01*
X127244125Y-72560468D01*
X127266503Y-72569737D01*
X127421153Y-72600499D01*
X127421156Y-72600500D01*
X127421158Y-72600500D01*
X127578844Y-72600500D01*
X127578845Y-72600499D01*
X127733497Y-72569737D01*
X127879179Y-72509394D01*
X128010289Y-72421789D01*
X128121789Y-72310289D01*
X128209394Y-72179179D01*
X128269737Y-72033497D01*
X128300500Y-71878842D01*
X128300500Y-71721158D01*
X128300500Y-71721155D01*
X128300499Y-71721153D01*
X128299212Y-71714684D01*
X128269737Y-71566503D01*
X128269735Y-71566498D01*
X128209397Y-71420827D01*
X128209390Y-71420814D01*
X128121789Y-71289711D01*
X128121786Y-71289707D01*
X128010292Y-71178213D01*
X128010288Y-71178210D01*
X127879185Y-71090609D01*
X127879172Y-71090602D01*
X127733501Y-71030264D01*
X127733489Y-71030261D01*
X127578845Y-70999500D01*
X127578842Y-70999500D01*
X127421158Y-70999500D01*
X127421155Y-70999500D01*
X127266510Y-71030261D01*
X127266498Y-71030264D01*
X127120827Y-71090602D01*
X127120814Y-71090609D01*
X126989711Y-71178210D01*
X126989707Y-71178213D01*
X126878213Y-71289707D01*
X126878210Y-71289711D01*
X126790609Y-71420814D01*
X126790602Y-71420827D01*
X126730264Y-71566498D01*
X126730261Y-71566510D01*
X126699500Y-71721153D01*
X124993667Y-71721153D01*
X124997512Y-70471674D01*
X132398979Y-70471674D01*
X132398979Y-70629367D01*
X132429740Y-70784010D01*
X132429743Y-70784022D01*
X132490081Y-70929693D01*
X132490088Y-70929706D01*
X132577689Y-71060809D01*
X132577692Y-71060813D01*
X132689186Y-71172307D01*
X132689190Y-71172310D01*
X132820293Y-71259911D01*
X132820306Y-71259918D01*
X132892234Y-71289711D01*
X132965982Y-71320258D01*
X133087442Y-71344418D01*
X133120632Y-71351020D01*
X133120635Y-71351021D01*
X133120637Y-71351021D01*
X133278322Y-71351021D01*
X133317944Y-71343139D01*
X133342819Y-71338191D01*
X133412411Y-71344418D01*
X133454693Y-71372127D01*
X135392201Y-73309635D01*
X135425686Y-73370958D01*
X135428520Y-73397316D01*
X135428520Y-74315524D01*
X135428519Y-74315542D01*
X135428519Y-74481248D01*
X135428518Y-74481248D01*
X135469443Y-74633980D01*
X135473301Y-74640661D01*
X135478978Y-74650493D01*
X135478980Y-74650502D01*
X135478983Y-74650501D01*
X135548499Y-74770908D01*
X135548501Y-74770911D01*
X135667369Y-74889779D01*
X135667375Y-74889784D01*
X140866966Y-80089375D01*
X140866976Y-80089386D01*
X140871306Y-80093716D01*
X140871307Y-80093717D01*
X140983111Y-80205521D01*
X141062846Y-80251555D01*
X141069922Y-80255640D01*
X141069924Y-80255642D01*
X141107978Y-80277612D01*
X141120042Y-80284578D01*
X141272770Y-80325502D01*
X141272773Y-80325502D01*
X141438480Y-80325502D01*
X141438496Y-80325501D01*
X150238574Y-80325501D01*
X150305613Y-80345186D01*
X150341675Y-80380609D01*
X150366042Y-80417076D01*
X150378212Y-80435291D01*
X150489707Y-80546786D01*
X150489711Y-80546789D01*
X150620814Y-80634390D01*
X150620827Y-80634397D01*
X150766498Y-80694735D01*
X150766503Y-80694737D01*
X150921153Y-80725499D01*
X150921156Y-80725500D01*
X150921158Y-80725500D01*
X151078844Y-80725500D01*
X151078845Y-80725499D01*
X151233497Y-80694737D01*
X151379179Y-80634394D01*
X151510289Y-80546789D01*
X151621789Y-80435289D01*
X151709394Y-80304179D01*
X151769737Y-80158497D01*
X151800500Y-80003842D01*
X151800500Y-79846158D01*
X151800500Y-79846155D01*
X151800499Y-79846153D01*
X151769737Y-79691503D01*
X151710070Y-79547452D01*
X151702601Y-79477983D01*
X151710070Y-79452548D01*
X151743005Y-79373033D01*
X151769737Y-79308497D01*
X151800500Y-79153842D01*
X151800500Y-78996158D01*
X151800500Y-78996155D01*
X151800499Y-78996153D01*
X151769738Y-78841510D01*
X151769737Y-78841503D01*
X151769735Y-78841498D01*
X151709397Y-78695827D01*
X151709390Y-78695814D01*
X151621789Y-78564711D01*
X151621786Y-78564707D01*
X151510292Y-78453213D01*
X151510288Y-78453210D01*
X151379185Y-78365609D01*
X151379172Y-78365602D01*
X151233501Y-78305264D01*
X151233489Y-78305261D01*
X151078845Y-78274500D01*
X151078842Y-78274500D01*
X150921158Y-78274500D01*
X150921155Y-78274500D01*
X150766510Y-78305261D01*
X150766498Y-78305264D01*
X150620827Y-78365602D01*
X150620814Y-78365609D01*
X150489711Y-78453210D01*
X150489707Y-78453213D01*
X150378212Y-78564708D01*
X150356339Y-78597443D01*
X150341675Y-78619390D01*
X150288065Y-78664194D01*
X150238574Y-78674499D01*
X141838290Y-78674499D01*
X141771251Y-78654814D01*
X141750609Y-78638180D01*
X137694119Y-74581690D01*
X137660634Y-74520367D01*
X137665618Y-74450675D01*
X137678699Y-74425117D01*
X137709389Y-74379186D01*
X137709394Y-74379179D01*
X137769737Y-74233497D01*
X137800500Y-74078842D01*
X137800500Y-73921158D01*
X137800500Y-73921155D01*
X137800499Y-73921153D01*
X137769738Y-73766510D01*
X137769737Y-73766503D01*
X137762901Y-73750000D01*
X137709397Y-73620827D01*
X137709390Y-73620814D01*
X137621789Y-73489711D01*
X137621786Y-73489707D01*
X137510292Y-73378213D01*
X137510288Y-73378210D01*
X137379185Y-73290609D01*
X137379172Y-73290602D01*
X137233501Y-73230264D01*
X137233492Y-73230261D01*
X137179307Y-73219483D01*
X137117397Y-73187097D01*
X137082823Y-73126381D01*
X137079500Y-73097866D01*
X137079500Y-72831746D01*
X137079500Y-72831744D01*
X137038577Y-72679017D01*
X136993245Y-72600499D01*
X136959524Y-72542091D01*
X136959521Y-72542087D01*
X136959520Y-72542085D01*
X136847716Y-72430281D01*
X136847715Y-72430280D01*
X136843385Y-72425950D01*
X136843374Y-72425940D01*
X135833662Y-71416228D01*
X136649500Y-71416228D01*
X136649500Y-71583771D01*
X136682182Y-71748074D01*
X136682184Y-71748082D01*
X136746295Y-71902860D01*
X136839373Y-72042162D01*
X136957837Y-72160626D01*
X136985604Y-72179179D01*
X137097137Y-72253703D01*
X137251918Y-72317816D01*
X137416228Y-72350499D01*
X137416232Y-72350500D01*
X137416233Y-72350500D01*
X137583768Y-72350500D01*
X137583769Y-72350499D01*
X137748082Y-72317816D01*
X137902863Y-72253703D01*
X138042162Y-72160626D01*
X138136970Y-72065817D01*
X138198291Y-72032334D01*
X138224650Y-72029500D01*
X141036941Y-72029500D01*
X141103980Y-72049185D01*
X141149735Y-72101989D01*
X141158558Y-72129309D01*
X141182182Y-72248074D01*
X141182184Y-72248082D01*
X141246295Y-72402860D01*
X141339373Y-72542162D01*
X141457837Y-72660626D01*
X141543195Y-72717660D01*
X141597137Y-72753703D01*
X141751918Y-72817816D01*
X141916228Y-72850499D01*
X141916232Y-72850500D01*
X141916233Y-72850500D01*
X141949903Y-72850500D01*
X142016942Y-72870185D01*
X142037584Y-72886819D01*
X145015139Y-75864374D01*
X145015149Y-75864385D01*
X145019479Y-75868715D01*
X145019480Y-75868716D01*
X145131284Y-75980520D01*
X145131286Y-75980521D01*
X145131290Y-75980524D01*
X145268209Y-76059573D01*
X145268216Y-76059577D01*
X145380019Y-76089534D01*
X145420942Y-76100500D01*
X145420943Y-76100500D01*
X150443328Y-76100500D01*
X150510367Y-76120185D01*
X150531009Y-76136819D01*
X150554816Y-76160626D01*
X150647473Y-76222537D01*
X150694116Y-76253703D01*
X150694117Y-76253703D01*
X150694118Y-76253704D01*
X150694120Y-76253705D01*
X150759055Y-76280602D01*
X150822221Y-76306766D01*
X150876625Y-76350607D01*
X150898690Y-76416901D01*
X150881411Y-76484600D01*
X150877871Y-76490217D01*
X150790612Y-76620809D01*
X150790602Y-76620827D01*
X150730264Y-76766498D01*
X150730261Y-76766510D01*
X150699500Y-76921153D01*
X150699500Y-77078846D01*
X150730261Y-77233489D01*
X150730264Y-77233501D01*
X150790602Y-77379172D01*
X150790609Y-77379185D01*
X150878210Y-77510288D01*
X150878213Y-77510292D01*
X150989707Y-77621786D01*
X150989711Y-77621789D01*
X151120814Y-77709390D01*
X151120827Y-77709397D01*
X151266498Y-77769735D01*
X151266503Y-77769737D01*
X151421153Y-77800499D01*
X151421156Y-77800500D01*
X151421158Y-77800500D01*
X151578844Y-77800500D01*
X151578845Y-77800499D01*
X151733497Y-77769737D01*
X151879179Y-77709394D01*
X152010289Y-77621789D01*
X152121789Y-77510289D01*
X152209394Y-77379179D01*
X152269737Y-77233497D01*
X152296391Y-77099500D01*
X152300638Y-77078150D01*
X152333023Y-77016239D01*
X152334518Y-77014716D01*
X157879506Y-71469727D01*
X157879511Y-71469724D01*
X157889714Y-71459520D01*
X157889716Y-71459520D01*
X158001520Y-71347716D01*
X158055798Y-71253703D01*
X158080577Y-71210785D01*
X158121501Y-71058057D01*
X158121501Y-70899943D01*
X158121501Y-70892348D01*
X158121500Y-70892330D01*
X158121500Y-67610059D01*
X158121501Y-67610046D01*
X158121501Y-67441945D01*
X158121501Y-67441943D01*
X158080577Y-67289215D01*
X158017425Y-67179833D01*
X158001520Y-67152284D01*
X157889716Y-67040480D01*
X157889713Y-67040478D01*
X156084574Y-65235339D01*
X156051089Y-65174016D01*
X156050638Y-65171849D01*
X156025378Y-65044863D01*
X156019737Y-65016503D01*
X156019735Y-65016498D01*
X155959397Y-64870827D01*
X155959390Y-64870814D01*
X155871789Y-64739711D01*
X155871786Y-64739707D01*
X155760292Y-64628213D01*
X155760288Y-64628210D01*
X155629185Y-64540609D01*
X155629172Y-64540602D01*
X155483501Y-64480264D01*
X155483489Y-64480261D01*
X155328845Y-64449500D01*
X155328842Y-64449500D01*
X155171158Y-64449500D01*
X155171155Y-64449500D01*
X155016510Y-64480261D01*
X155016498Y-64480264D01*
X154870827Y-64540602D01*
X154870814Y-64540609D01*
X154739711Y-64628210D01*
X154739707Y-64628213D01*
X154628213Y-64739707D01*
X154628210Y-64739711D01*
X154540609Y-64870814D01*
X154540602Y-64870827D01*
X154480264Y-65016498D01*
X154480261Y-65016510D01*
X154449500Y-65171153D01*
X154449500Y-65328846D01*
X154480261Y-65483489D01*
X154480264Y-65483501D01*
X154540602Y-65629172D01*
X154540609Y-65629185D01*
X154628210Y-65760288D01*
X154628213Y-65760292D01*
X154739707Y-65871786D01*
X154739711Y-65871789D01*
X154870814Y-65959390D01*
X154870827Y-65959397D01*
X155016498Y-66019735D01*
X155016503Y-66019737D01*
X155081147Y-66032595D01*
X155171849Y-66050638D01*
X155233760Y-66083023D01*
X155235339Y-66084574D01*
X156884181Y-67733416D01*
X156917666Y-67794739D01*
X156920500Y-67821097D01*
X156920500Y-68521903D01*
X156900815Y-68588942D01*
X156848011Y-68634697D01*
X156778853Y-68644641D01*
X156715297Y-68615616D01*
X156708819Y-68609584D01*
X153828337Y-65729102D01*
X153794852Y-65667779D01*
X153799836Y-65598087D01*
X153828337Y-65553740D01*
X153871789Y-65510289D01*
X153959394Y-65379179D01*
X153966632Y-65361706D01*
X154019735Y-65233501D01*
X154019737Y-65233497D01*
X154050500Y-65078842D01*
X154050500Y-64921158D01*
X154050500Y-64921155D01*
X154050499Y-64921153D01*
X154050089Y-64919091D01*
X154019737Y-64766503D01*
X154010670Y-64744614D01*
X153959397Y-64620827D01*
X153959390Y-64620814D01*
X153871789Y-64489711D01*
X153871786Y-64489707D01*
X153760292Y-64378213D01*
X153760288Y-64378210D01*
X153629185Y-64290609D01*
X153629172Y-64290602D01*
X153483501Y-64230264D01*
X153483489Y-64230261D01*
X153328151Y-64199362D01*
X153266240Y-64166977D01*
X153264711Y-64165475D01*
X152966589Y-63867354D01*
X152966588Y-63867352D01*
X152847717Y-63748481D01*
X152847716Y-63748480D01*
X152760904Y-63698360D01*
X152760904Y-63698359D01*
X152760900Y-63698358D01*
X152710785Y-63669423D01*
X152558057Y-63628499D01*
X152399943Y-63628499D01*
X152392347Y-63628499D01*
X152392331Y-63628500D01*
X149455134Y-63628500D01*
X149414213Y-63639464D01*
X149414213Y-63639465D01*
X149376945Y-63649451D01*
X149302408Y-63669423D01*
X149302403Y-63669426D01*
X149165484Y-63748475D01*
X149165476Y-63748481D01*
X148748480Y-64165477D01*
X148737140Y-64185119D01*
X148728838Y-64199500D01*
X148699682Y-64250000D01*
X148676238Y-64290606D01*
X148669423Y-64302409D01*
X148628499Y-64455137D01*
X148628499Y-64455139D01*
X148628499Y-64623240D01*
X148628500Y-64623253D01*
X148628500Y-64879136D01*
X148628499Y-64879154D01*
X148628499Y-65044860D01*
X148628498Y-65044860D01*
X148664664Y-65179833D01*
X148669423Y-65197591D01*
X148688435Y-65230520D01*
X148699682Y-65250000D01*
X148748479Y-65334520D01*
X148748481Y-65334523D01*
X148867349Y-65453391D01*
X148867355Y-65453396D01*
X149237231Y-65823272D01*
X149264110Y-65863499D01*
X149270602Y-65879172D01*
X149270607Y-65879181D01*
X149358207Y-66010284D01*
X149358213Y-66010292D01*
X149469707Y-66121786D01*
X149469711Y-66121789D01*
X149600814Y-66209390D01*
X149600827Y-66209397D01*
X149746498Y-66269735D01*
X149746503Y-66269737D01*
X149901153Y-66300499D01*
X149901156Y-66300500D01*
X149901158Y-66300500D01*
X150058844Y-66300500D01*
X150058845Y-66300499D01*
X150213497Y-66269737D01*
X150359179Y-66209394D01*
X150490289Y-66121789D01*
X150601789Y-66010289D01*
X150689394Y-65879179D01*
X150749737Y-65733497D01*
X150780500Y-65578842D01*
X150780500Y-65474500D01*
X150800185Y-65407461D01*
X150852989Y-65361706D01*
X150904500Y-65350500D01*
X151699903Y-65350500D01*
X151766942Y-65370185D01*
X151787584Y-65386819D01*
X156165425Y-69764660D01*
X156198910Y-69825983D01*
X156199361Y-69828149D01*
X156230261Y-69983491D01*
X156230264Y-69983501D01*
X156290602Y-70129172D01*
X156290609Y-70129185D01*
X156378210Y-70260288D01*
X156378213Y-70260292D01*
X156489707Y-70371786D01*
X156489711Y-70371789D01*
X156620814Y-70459390D01*
X156620827Y-70459397D01*
X156766498Y-70519735D01*
X156766503Y-70519737D01*
X156797029Y-70525809D01*
X156820691Y-70530516D01*
X156848821Y-70545230D01*
X156877703Y-70558420D01*
X156879559Y-70561308D01*
X156882602Y-70562900D01*
X156898311Y-70590487D01*
X156915477Y-70617198D01*
X156916137Y-70621792D01*
X156917176Y-70623616D01*
X156920500Y-70652133D01*
X156920500Y-70678902D01*
X156900815Y-70745941D01*
X156884181Y-70766583D01*
X154582437Y-73068326D01*
X154521114Y-73101811D01*
X154451422Y-73096827D01*
X154395489Y-73054955D01*
X154380197Y-73028102D01*
X154358377Y-72975423D01*
X154265300Y-72836123D01*
X154146836Y-72717659D01*
X154007534Y-72624581D01*
X153852756Y-72560470D01*
X153852748Y-72560468D01*
X153688445Y-72527786D01*
X153688441Y-72527786D01*
X153654771Y-72527786D01*
X153587732Y-72508101D01*
X153567090Y-72491467D01*
X151213978Y-70138355D01*
X151213976Y-70138352D01*
X151095105Y-70019481D01*
X151095104Y-70019480D01*
X150988336Y-69957838D01*
X150988335Y-69957837D01*
X150958171Y-69940422D01*
X150902269Y-69925443D01*
X150805445Y-69899499D01*
X150647331Y-69899499D01*
X150639735Y-69899499D01*
X150639719Y-69899500D01*
X139653651Y-69899500D01*
X139586612Y-69879815D01*
X139565970Y-69863181D01*
X139542162Y-69839373D01*
X139402860Y-69746295D01*
X139248082Y-69682184D01*
X139248074Y-69682182D01*
X139083771Y-69649500D01*
X139083767Y-69649500D01*
X138916233Y-69649500D01*
X138916228Y-69649500D01*
X138751925Y-69682182D01*
X138751917Y-69682184D01*
X138597139Y-69746295D01*
X138457837Y-69839373D01*
X138339373Y-69957837D01*
X138246295Y-70097139D01*
X138182184Y-70251917D01*
X138182182Y-70251925D01*
X138149500Y-70416228D01*
X138149500Y-70583771D01*
X138166186Y-70667657D01*
X138159959Y-70737249D01*
X138117095Y-70792426D01*
X138051206Y-70815670D01*
X137983209Y-70799602D01*
X137975679Y-70794951D01*
X137933223Y-70766583D01*
X137902863Y-70746297D01*
X137902860Y-70746295D01*
X137902859Y-70746295D01*
X137748082Y-70682184D01*
X137748074Y-70682182D01*
X137583771Y-70649500D01*
X137583767Y-70649500D01*
X137416233Y-70649500D01*
X137416228Y-70649500D01*
X137251925Y-70682182D01*
X137251917Y-70682184D01*
X137097139Y-70746295D01*
X136957837Y-70839373D01*
X136839373Y-70957837D01*
X136746295Y-71097139D01*
X136682184Y-71251917D01*
X136682182Y-71251925D01*
X136649500Y-71416228D01*
X135833662Y-71416228D01*
X134622127Y-70204693D01*
X134588642Y-70143370D01*
X134588191Y-70092819D01*
X134601021Y-70028322D01*
X134601021Y-69870634D01*
X134601020Y-69870632D01*
X134592707Y-69828842D01*
X134570258Y-69715982D01*
X134556258Y-69682182D01*
X134509918Y-69570306D01*
X134509911Y-69570293D01*
X134422310Y-69439190D01*
X134422307Y-69439186D01*
X134310813Y-69327692D01*
X134310809Y-69327689D01*
X134179706Y-69240088D01*
X134179693Y-69240081D01*
X134034022Y-69179743D01*
X134034010Y-69179740D01*
X133879366Y-69148979D01*
X133879363Y-69148979D01*
X133721679Y-69148979D01*
X133721676Y-69148979D01*
X133567031Y-69179740D01*
X133567019Y-69179743D01*
X133421348Y-69240081D01*
X133421335Y-69240088D01*
X133290232Y-69327689D01*
X133290228Y-69327692D01*
X133178734Y-69439186D01*
X133178731Y-69439190D01*
X133091130Y-69570293D01*
X133091125Y-69570302D01*
X133031459Y-69714351D01*
X132987618Y-69768754D01*
X132964351Y-69781459D01*
X132820302Y-69841125D01*
X132820293Y-69841130D01*
X132689190Y-69928731D01*
X132689186Y-69928734D01*
X132577692Y-70040228D01*
X132577689Y-70040232D01*
X132490088Y-70171335D01*
X132490081Y-70171348D01*
X132429743Y-70317019D01*
X132429740Y-70317031D01*
X132398979Y-70471674D01*
X124997512Y-70471674D01*
X125007821Y-67121153D01*
X126699500Y-67121153D01*
X126699500Y-67278846D01*
X126730261Y-67433489D01*
X126730264Y-67433501D01*
X126790602Y-67579172D01*
X126790609Y-67579185D01*
X126878210Y-67710288D01*
X126878213Y-67710292D01*
X126989707Y-67821786D01*
X126989711Y-67821789D01*
X127120814Y-67909390D01*
X127120827Y-67909397D01*
X127266498Y-67969735D01*
X127266503Y-67969737D01*
X127421153Y-68000499D01*
X127421156Y-68000500D01*
X127421158Y-68000500D01*
X127578844Y-68000500D01*
X127578845Y-68000499D01*
X127733497Y-67969737D01*
X127879179Y-67909394D01*
X128010289Y-67821789D01*
X128121789Y-67710289D01*
X128209394Y-67579179D01*
X128269737Y-67433497D01*
X128300500Y-67278842D01*
X128300500Y-67121158D01*
X128300500Y-67121155D01*
X128300499Y-67121153D01*
X128284452Y-67040480D01*
X128269737Y-66966503D01*
X128245854Y-66908843D01*
X128209397Y-66820827D01*
X128209390Y-66820814D01*
X128121789Y-66689711D01*
X128121786Y-66689707D01*
X128010292Y-66578213D01*
X128010288Y-66578210D01*
X127879185Y-66490609D01*
X127879172Y-66490602D01*
X127733501Y-66430264D01*
X127733489Y-66430261D01*
X127578845Y-66399500D01*
X127578842Y-66399500D01*
X127421158Y-66399500D01*
X127421155Y-66399500D01*
X127266510Y-66430261D01*
X127266498Y-66430264D01*
X127120827Y-66490602D01*
X127120814Y-66490609D01*
X126989711Y-66578210D01*
X126989707Y-66578213D01*
X126878213Y-66689707D01*
X126878210Y-66689711D01*
X126790609Y-66820814D01*
X126790602Y-66820827D01*
X126730264Y-66966498D01*
X126730261Y-66966510D01*
X126699500Y-67121153D01*
X125007821Y-67121153D01*
X125010990Y-66091156D01*
X135574499Y-66091156D01*
X135610065Y-66269952D01*
X135610067Y-66269958D01*
X135679835Y-66438394D01*
X135681525Y-66441556D01*
X135681908Y-66443399D01*
X135682164Y-66444016D01*
X135682047Y-66444064D01*
X135695761Y-66509960D01*
X135681525Y-66558444D01*
X135679835Y-66561605D01*
X135610067Y-66730041D01*
X135610065Y-66730047D01*
X135574500Y-66908843D01*
X135574500Y-66908846D01*
X135574500Y-67091154D01*
X135574500Y-67091156D01*
X135574499Y-67091156D01*
X135610065Y-67269952D01*
X135610067Y-67269958D01*
X135679835Y-67438394D01*
X135681525Y-67441556D01*
X135681908Y-67443399D01*
X135682164Y-67444016D01*
X135682047Y-67444064D01*
X135695761Y-67509960D01*
X135681525Y-67558444D01*
X135679835Y-67561605D01*
X135610067Y-67730041D01*
X135610065Y-67730047D01*
X135574500Y-67908843D01*
X135574500Y-67908846D01*
X135574500Y-68091154D01*
X135574500Y-68091156D01*
X135574499Y-68091156D01*
X135610065Y-68269952D01*
X135610068Y-68269962D01*
X135679831Y-68438387D01*
X135679833Y-68438391D01*
X135781113Y-68589967D01*
X135781119Y-68589975D01*
X135910024Y-68718880D01*
X135910032Y-68718886D01*
X136061608Y-68820166D01*
X136061612Y-68820168D01*
X136230037Y-68889931D01*
X136230042Y-68889933D01*
X136230046Y-68889933D01*
X136230047Y-68889934D01*
X136408843Y-68925500D01*
X136408846Y-68925500D01*
X136591156Y-68925500D01*
X136711445Y-68901572D01*
X136769958Y-68889933D01*
X136882245Y-68843422D01*
X136938387Y-68820168D01*
X136938391Y-68820166D01*
X137013672Y-68769864D01*
X137089972Y-68718883D01*
X137218883Y-68589972D01*
X137320167Y-68438389D01*
X137389933Y-68269958D01*
X137425500Y-68091154D01*
X137425500Y-67908846D01*
X137425500Y-67908843D01*
X137389934Y-67730047D01*
X137389933Y-67730046D01*
X137389933Y-67730042D01*
X137340235Y-67610059D01*
X137320169Y-67561615D01*
X137318482Y-67558459D01*
X137318097Y-67556613D01*
X137317836Y-67555982D01*
X137317955Y-67555932D01*
X137304236Y-67490057D01*
X137318482Y-67441541D01*
X137320163Y-67438394D01*
X137320167Y-67438389D01*
X137389933Y-67269958D01*
X137419532Y-67121158D01*
X137425500Y-67091156D01*
X137425500Y-66908843D01*
X137389934Y-66730047D01*
X137389933Y-66730046D01*
X137389933Y-66730042D01*
X137389931Y-66730037D01*
X137320169Y-66561615D01*
X137318482Y-66558459D01*
X137318097Y-66556613D01*
X137317836Y-66555982D01*
X137317955Y-66555932D01*
X137304236Y-66490057D01*
X137318482Y-66441541D01*
X137320163Y-66438394D01*
X137320167Y-66438389D01*
X137389933Y-66269958D01*
X137401981Y-66209390D01*
X137425500Y-66091156D01*
X137425500Y-65908843D01*
X137389934Y-65730047D01*
X137389933Y-65730046D01*
X137389933Y-65730042D01*
X137348157Y-65629185D01*
X137320170Y-65561617D01*
X137318193Y-65557918D01*
X137303953Y-65489515D01*
X137318199Y-65441005D01*
X137319730Y-65438140D01*
X137389451Y-65269817D01*
X137389454Y-65269805D01*
X137424999Y-65091109D01*
X137425000Y-65091106D01*
X137425000Y-64908894D01*
X137424999Y-64908890D01*
X137389454Y-64730194D01*
X137389451Y-64730182D01*
X137384917Y-64719235D01*
X137377450Y-64649766D01*
X137383297Y-64628452D01*
X137389978Y-64610537D01*
X137419091Y-64532483D01*
X137425500Y-64472873D01*
X137425499Y-63527128D01*
X137419091Y-63467517D01*
X137408794Y-63439910D01*
X137368797Y-63332671D01*
X137368793Y-63332664D01*
X137282547Y-63217455D01*
X137282544Y-63217452D01*
X137167335Y-63131206D01*
X137167328Y-63131202D01*
X137032482Y-63080908D01*
X137032483Y-63080908D01*
X136972883Y-63074501D01*
X136972881Y-63074500D01*
X136972873Y-63074500D01*
X136972864Y-63074500D01*
X136027129Y-63074500D01*
X136027123Y-63074501D01*
X135967516Y-63080908D01*
X135832671Y-63131202D01*
X135832664Y-63131206D01*
X135717455Y-63217452D01*
X135717452Y-63217455D01*
X135631206Y-63332664D01*
X135631202Y-63332671D01*
X135580908Y-63467517D01*
X135574869Y-63523694D01*
X135574501Y-63527123D01*
X135574500Y-63527135D01*
X135574500Y-64472870D01*
X135574501Y-64472876D01*
X135580908Y-64532483D01*
X135616702Y-64628451D01*
X135621686Y-64698143D01*
X135615085Y-64719227D01*
X135610549Y-64730180D01*
X135610545Y-64730190D01*
X135575000Y-64908891D01*
X135575000Y-65091109D01*
X135610545Y-65269805D01*
X135610548Y-65269817D01*
X135680275Y-65438153D01*
X135681808Y-65441022D01*
X135682156Y-65442695D01*
X135682606Y-65443781D01*
X135682400Y-65443866D01*
X135696046Y-65509426D01*
X135681811Y-65557909D01*
X135679834Y-65561607D01*
X135610067Y-65730041D01*
X135610065Y-65730047D01*
X135574500Y-65908843D01*
X135574500Y-65908846D01*
X135574500Y-66091154D01*
X135574500Y-66091156D01*
X135574499Y-66091156D01*
X125010990Y-66091156D01*
X125017362Y-64020476D01*
X125037252Y-63953499D01*
X125090197Y-63907907D01*
X125159386Y-63898176D01*
X125222852Y-63927396D01*
X125260445Y-63986290D01*
X125263834Y-64001461D01*
X125285704Y-64139544D01*
X125356230Y-64356604D01*
X125459849Y-64559966D01*
X125594004Y-64744614D01*
X125755385Y-64905995D01*
X125940033Y-65040150D01*
X126143395Y-65143769D01*
X126360455Y-65214295D01*
X126585884Y-65250000D01*
X127250000Y-65250000D01*
X127250000Y-64250000D01*
X127750000Y-64250000D01*
X127750000Y-65250000D01*
X128414116Y-65250000D01*
X128639544Y-65214295D01*
X128856604Y-65143769D01*
X129059966Y-65040150D01*
X129244614Y-64905995D01*
X129405995Y-64744614D01*
X129540150Y-64559966D01*
X129643769Y-64356604D01*
X129714295Y-64139544D01*
X129728478Y-64050000D01*
X128675278Y-64050000D01*
X128719333Y-63973694D01*
X128750000Y-63859244D01*
X128750000Y-63740756D01*
X128719333Y-63626306D01*
X128675278Y-63550000D01*
X129728478Y-63550000D01*
X129727402Y-63543204D01*
X129714295Y-63460455D01*
X129643769Y-63243395D01*
X129540150Y-63040033D01*
X129405995Y-62855385D01*
X129244614Y-62694004D01*
X129059966Y-62559849D01*
X128856604Y-62456230D01*
X128639544Y-62385704D01*
X128414116Y-62350000D01*
X127750000Y-62350000D01*
X127750000Y-63350000D01*
X127250000Y-63350000D01*
X127250000Y-62350000D01*
X126585884Y-62350000D01*
X126360455Y-62385704D01*
X126143395Y-62456230D01*
X125940033Y-62559849D01*
X125755385Y-62694004D01*
X125594004Y-62855385D01*
X125459849Y-63040033D01*
X125356230Y-63243395D01*
X125285704Y-63460455D01*
X125265220Y-63589787D01*
X125235291Y-63652922D01*
X125175979Y-63689853D01*
X125106117Y-63688855D01*
X125047884Y-63650245D01*
X125019770Y-63586282D01*
X125018748Y-63570007D01*
X125018831Y-63543204D01*
X125030060Y-59893713D01*
X132649500Y-59893713D01*
X132649500Y-60106286D01*
X132682753Y-60316239D01*
X132748444Y-60518414D01*
X132844951Y-60707820D01*
X132969890Y-60879786D01*
X133120213Y-61030109D01*
X133292179Y-61155048D01*
X133292181Y-61155049D01*
X133292184Y-61155051D01*
X133481588Y-61251557D01*
X133683757Y-61317246D01*
X133893713Y-61350500D01*
X133893714Y-61350500D01*
X134106286Y-61350500D01*
X134106287Y-61350500D01*
X134316243Y-61317246D01*
X134518412Y-61251557D01*
X134707816Y-61155051D01*
X134784276Y-61099500D01*
X134879786Y-61030109D01*
X134879788Y-61030106D01*
X134879792Y-61030104D01*
X135030104Y-60879792D01*
X135030106Y-60879788D01*
X135030109Y-60879786D01*
X135155048Y-60707820D01*
X135155047Y-60707820D01*
X135155051Y-60707816D01*
X135251557Y-60518412D01*
X135317246Y-60316243D01*
X135350500Y-60106287D01*
X135350500Y-59893713D01*
X135317246Y-59683757D01*
X135251557Y-59481588D01*
X135155051Y-59292184D01*
X135155049Y-59292181D01*
X135155048Y-59292179D01*
X135030109Y-59120213D01*
X134879786Y-58969890D01*
X134707820Y-58844951D01*
X134518414Y-58748444D01*
X134518413Y-58748443D01*
X134518412Y-58748443D01*
X134316243Y-58682754D01*
X134316241Y-58682753D01*
X134316240Y-58682753D01*
X134154957Y-58657208D01*
X134106287Y-58649500D01*
X133893713Y-58649500D01*
X133845042Y-58657208D01*
X133683760Y-58682753D01*
X133481585Y-58748444D01*
X133292179Y-58844951D01*
X133120213Y-58969890D01*
X132969890Y-59120213D01*
X132844951Y-59292179D01*
X132748444Y-59481585D01*
X132682753Y-59683760D01*
X132649500Y-59893713D01*
X125030060Y-59893713D01*
X125033888Y-58649500D01*
X125038582Y-57124118D01*
X125058472Y-57057140D01*
X125111417Y-57011548D01*
X125162581Y-57000500D01*
X168375500Y-57000500D01*
X168442539Y-57020185D01*
G37*
%TD.AperFunction*%
%TD*%
M02*
