M48
; DRILL file {KiCad 9.0.7} date 2026-02-16T22:31:32-0500
; FORMAT={-:-/ absolute / metric / decimal}
; #@! TF.CreationDate,2026-02-16T22:31:32-05:00
; #@! TF.GenerationSoftware,Kicad,Pcbnew,9.0.7
; #@! TF.FileFunction,MixedPlating,1,2
FMAT,2
METRIC
; #@! TA.AperFunction,Plated,PTH,ViaDrill
T1C0.300
; #@! TA.AperFunction,Plated,PTH,ComponentDrill
T2C0.300
; #@! TA.AperFunction,Plated,PTH,ComponentDrill
T3C0.500
; #@! TA.AperFunction,Plated,PTH,ComponentDrill
T4C0.900
; #@! TA.AperFunction,NonPlated,NPTH,ComponentDrill
T5C1.100
; #@! TA.AperFunction,NonPlated,NPTH,ComponentDrill
T6C2.200
%
G90
G05
T1
X129.5Y-61.5
X129.5Y-77.5
X132.5Y-66.0
X133.199Y-70.551
X133.801Y-69.949
X137.0Y-74.0
X137.5Y-71.5
X138.5Y-65.0
X139.0Y-70.5
X142.0Y-72.0
X144.0Y-62.5
X144.0Y-69.5
X144.0Y-71.5
X147.5Y-58.75
X148.5Y-62.0
X148.5Y-78.5
X149.75Y-64.75
X149.98Y-65.5
X151.0Y-79.075
X151.0Y-79.925
X151.07Y-65.5
X151.097Y-75.5
X151.5Y-77.0
X152.0Y-58.5
X153.0Y-78.0
X153.07Y-74.0
X153.25Y-65.0
X153.605Y-73.378
X155.25Y-65.25
X156.0Y-62.5
X156.129Y-71.07
X157.0Y-69.75
X158.0Y-72.0
X159.0Y-60.5
X163.0Y-66.5
X163.0Y-68.5
X163.0Y-70.5
X163.5Y-72.0
X165.5Y-73.0
X165.5Y-75.0
X166.25Y-73.0
X166.25Y-75.0
X167.0Y-73.0
X167.0Y-75.0
X167.75Y-73.0
X167.75Y-75.0
T2
X168.75Y-76.05
T3
X136.5Y-64.0
X136.5Y-65.0
X136.5Y-66.0
X136.5Y-67.0
X136.5Y-68.0
T5
X127.5Y-67.2
X127.5Y-71.8
T6
X134.0Y-60.0
X134.0Y-79.0
T4
G00X128.3Y-63.8
M15
G01X126.7Y-63.8
M16
G05
G00X128.3Y-75.2
M15
G01X126.7Y-75.2
M16
G05
M30
