%TF.GenerationSoftware,KiCad,Pcbnew,9.0.7*%
%TF.CreationDate,2026-02-16T22:31:36-05:00*%
%TF.ProjectId,Primis_Versipellis,5072696d-6973-45f5-9665-72736970656c,rev?*%
%TF.SameCoordinates,Original*%
%TF.FileFunction,Soldermask,Top*%
%TF.FilePolarity,Negative*%
%FSLAX46Y46*%
G04 Gerber Fmt 4.6, Leading zero omitted, Abs format (unit mm)*
G04 Created by KiCad (PCBNEW 9.0.7) date 2026-02-16 22:31:36*
%MOMM*%
%LPD*%
G01*
G04 APERTURE LIST*
G04 Aperture macros list*
%AMRoundRect*
0 Rectangle with rounded corners*
0 $1 Rounding radius*
0 $2 $3 $4 $5 $6 $7 $8 $9 X,Y pos of 4 corners*
0 Add a 4 corners polygon primitive as box body*
4,1,4,$2,$3,$4,$5,$6,$7,$8,$9,$2,$3,0*
0 Add four circle primitives for the rounded corners*
1,1,$1+$1,$2,$3*
1,1,$1+$1,$4,$5*
1,1,$1+$1,$6,$7*
1,1,$1+$1,$8,$9*
0 Add four rect primitives between the rounded corners*
20,1,$1+$1,$2,$3,$4,$5,0*
20,1,$1+$1,$4,$5,$6,$7,0*
20,1,$1+$1,$6,$7,$8,$9,0*
20,1,$1+$1,$8,$9,$2,$3,0*%
G04 Aperture macros list end*
%ADD10RoundRect,0.225000X-0.250000X0.225000X-0.250000X-0.225000X0.250000X-0.225000X0.250000X0.225000X0*%
%ADD11C,1.100000*%
%ADD12R,2.500000X1.100000*%
%ADD13O,3.500000X1.900000*%
%ADD14R,0.850000X0.850000*%
%ADD15C,0.850000*%
%ADD16RoundRect,0.250000X0.262500X0.450000X-0.262500X0.450000X-0.262500X-0.450000X0.262500X-0.450000X0*%
%ADD17RoundRect,0.225000X0.225000X0.250000X-0.225000X0.250000X-0.225000X-0.250000X0.225000X-0.250000X0*%
%ADD18RoundRect,0.218750X0.218750X0.256250X-0.218750X0.256250X-0.218750X-0.256250X0.218750X-0.256250X0*%
%ADD19RoundRect,0.062500X-0.350000X-0.062500X0.350000X-0.062500X0.350000X0.062500X-0.350000X0.062500X0*%
%ADD20RoundRect,0.062500X-0.062500X-0.350000X0.062500X-0.350000X0.062500X0.350000X-0.062500X0.350000X0*%
%ADD21R,3.600000X3.600000*%
%ADD22RoundRect,0.225000X0.250000X-0.225000X0.250000X0.225000X-0.250000X0.225000X-0.250000X-0.225000X0*%
%ADD23RoundRect,0.225000X-0.225000X-0.250000X0.225000X-0.250000X0.225000X0.250000X-0.225000X0.250000X0*%
%ADD24C,2.200000*%
%ADD25RoundRect,0.200000X0.200000X0.275000X-0.200000X0.275000X-0.200000X-0.275000X0.200000X-0.275000X0*%
%ADD26RoundRect,0.250000X-0.750000X-0.950000X0.750000X-0.950000X0.750000X0.950000X-0.750000X0.950000X0*%
G04 APERTURE END LIST*
D10*
%TO.C,C5*%
X162000000Y-72450000D03*
X162000000Y-74000000D03*
%TD*%
D11*
%TO.C,J2*%
X127500000Y-71800000D03*
X127500000Y-67200000D03*
D12*
X130250000Y-73000000D03*
X130250000Y-70500000D03*
X130250000Y-68500000D03*
X130250000Y-66000000D03*
D13*
X127500000Y-75200000D03*
X127500000Y-63800000D03*
%TD*%
D14*
%TO.C,J3*%
X136500000Y-64000000D03*
D15*
X136500000Y-65000000D03*
X136500000Y-66000000D03*
X136500000Y-67000000D03*
X136500000Y-68000000D03*
%TD*%
D16*
%TO.C,R8*%
X143412500Y-74000000D03*
X141587500Y-74000000D03*
%TD*%
D10*
%TO.C,C6*%
X156500000Y-72450000D03*
X156500000Y-74000000D03*
%TD*%
D17*
%TO.C,C4*%
X161550000Y-66500000D03*
X160000000Y-66500000D03*
%TD*%
D10*
%TO.C,C2*%
X148500000Y-75500000D03*
X148500000Y-77050000D03*
%TD*%
D18*
%TO.C,D3*%
X146150000Y-61000000D03*
X144575000Y-61000000D03*
%TD*%
D17*
%TO.C,C9*%
X146825000Y-69500000D03*
X145275000Y-69500000D03*
%TD*%
D19*
%TO.C,U1*%
X149062500Y-67700000D03*
X149062500Y-68100000D03*
X149062500Y-68500000D03*
X149062500Y-68900000D03*
X149062500Y-69300000D03*
X149062500Y-69700000D03*
X149062500Y-70100000D03*
X149062500Y-70500000D03*
X149062500Y-70900000D03*
X149062500Y-71300000D03*
D20*
X149700000Y-71937500D03*
X150100000Y-71937500D03*
X150500000Y-71937500D03*
X150900000Y-71937500D03*
X151300000Y-71937500D03*
X151700000Y-71937500D03*
X152100000Y-71937500D03*
X152500000Y-71937500D03*
X152900000Y-71937500D03*
X153300000Y-71937500D03*
D19*
X153937500Y-71300000D03*
X153937500Y-70900000D03*
X153937500Y-70500000D03*
X153937500Y-70100000D03*
X153937500Y-69700000D03*
X153937500Y-69300000D03*
X153937500Y-68900000D03*
X153937500Y-68500000D03*
X153937500Y-68100000D03*
X153937500Y-67700000D03*
D20*
X153300000Y-67062500D03*
X152900000Y-67062500D03*
X152500000Y-67062500D03*
X152100000Y-67062500D03*
X151700000Y-67062500D03*
X151300000Y-67062500D03*
X150900000Y-67062500D03*
X150500000Y-67062500D03*
X150100000Y-67062500D03*
X149700000Y-67062500D03*
D21*
X151500000Y-69500000D03*
%TD*%
D22*
%TO.C,C8*%
X153000000Y-76500000D03*
X153000000Y-74950000D03*
%TD*%
D23*
%TO.C,C3*%
X160225000Y-60500000D03*
X161775000Y-60500000D03*
%TD*%
D24*
%TO.C,H2*%
X134000000Y-60000000D03*
%TD*%
D23*
%TO.C,C31*%
X159950000Y-68500000D03*
X161500000Y-68500000D03*
%TD*%
D25*
%TO.C,R1*%
X141575000Y-59000000D03*
X139925000Y-59000000D03*
%TD*%
D17*
%TO.C,C7*%
X146825000Y-71500000D03*
X145275000Y-71500000D03*
%TD*%
D18*
%TO.C,D1*%
X146222500Y-59000000D03*
X144647500Y-59000000D03*
%TD*%
D17*
%TO.C,C30*%
X161550000Y-70500000D03*
X160000000Y-70500000D03*
%TD*%
D23*
%TO.C,C29*%
X150500000Y-60000000D03*
X152050000Y-60000000D03*
%TD*%
D22*
%TO.C,C11*%
X148500000Y-64825000D03*
X148500000Y-63275000D03*
%TD*%
D24*
%TO.C,H1*%
X134000000Y-79000000D03*
%TD*%
D10*
%TO.C,C10*%
X154500000Y-62450000D03*
X154500000Y-64000000D03*
%TD*%
D18*
%TO.C,L2*%
X165575000Y-74000000D03*
X164000000Y-74000000D03*
%TD*%
D26*
%TO.C,Y1*%
X159050000Y-63500000D03*
X162750000Y-63500000D03*
%TD*%
D18*
%TO.C,L1*%
X160000000Y-74000000D03*
X158425000Y-74000000D03*
%TD*%
D25*
%TO.C,R3*%
X141575000Y-61000000D03*
X139925000Y-61000000D03*
%TD*%
D10*
%TO.C,C1*%
X144000000Y-63950000D03*
X144000000Y-65500000D03*
%TD*%
M02*
