%TF.GenerationSoftware,KiCad,Pcbnew,9.0.7*%
%TF.CreationDate,2026-02-16T21:50:05-05:00*%
%TF.ProjectId,Primis_FaceTracker,5072696d-6973-45f4-9661-636554726163,rev?*%
%TF.SameCoordinates,Original*%
%TF.FileFunction,Paste,Top*%
%TF.FilePolarity,Positive*%
%FSLAX46Y46*%
G04 Gerber Fmt 4.6, Leading zero omitted, Abs format (unit mm)*
G04 Created by KiCad (PCBNEW 9.0.7) date 2026-02-16 21:50:05*
%MOMM*%
%LPD*%
G01*
G04 APERTURE LIST*
G04 Aperture macros list*
%AMRoundRect*
0 Rectangle with rounded corners*
0 $1 Rounding radius*
0 $2 $3 $4 $5 $6 $7 $8 $9 X,Y pos of 4 corners*
0 Add a 4 corners polygon primitive as box body*
4,1,4,$2,$3,$4,$5,$6,$7,$8,$9,$2,$3,0*
0 Add four circle primitives for the rounded corners*
1,1,$1+$1,$2,$3*
1,1,$1+$1,$4,$5*
1,1,$1+$1,$6,$7*
1,1,$1+$1,$8,$9*
0 Add four rect primitives between the rounded corners*
20,1,$1+$1,$2,$3,$4,$5,0*
20,1,$1+$1,$4,$5,$6,$7,0*
20,1,$1+$1,$6,$7,$8,$9,0*
20,1,$1+$1,$8,$9,$2,$3,0*%
G04 Aperture macros list end*
%ADD10RoundRect,0.250000X-0.262500X-0.450000X0.262500X-0.450000X0.262500X0.450000X-0.262500X0.450000X0*%
%ADD11RoundRect,0.250000X0.262500X0.450000X-0.262500X0.450000X-0.262500X-0.450000X0.262500X-0.450000X0*%
%ADD12R,0.600000X1.450000*%
%ADD13R,0.300000X1.450000*%
%ADD14RoundRect,0.225000X0.250000X-0.225000X0.250000X0.225000X-0.250000X0.225000X-0.250000X-0.225000X0*%
%ADD15RoundRect,0.250000X-0.650000X0.325000X-0.650000X-0.325000X0.650000X-0.325000X0.650000X0.325000X0*%
%ADD16RoundRect,0.243750X0.456250X-0.243750X0.456250X0.243750X-0.456250X0.243750X-0.456250X-0.243750X0*%
%ADD17RoundRect,0.250000X-0.250000X-0.475000X0.250000X-0.475000X0.250000X0.475000X-0.250000X0.475000X0*%
%ADD18RoundRect,0.375000X0.375000X-0.625000X0.375000X0.625000X-0.375000X0.625000X-0.375000X-0.625000X0*%
%ADD19RoundRect,0.500000X1.400000X-0.500000X1.400000X0.500000X-1.400000X0.500000X-1.400000X-0.500000X0*%
%ADD20RoundRect,0.200000X-0.275000X0.200000X-0.275000X-0.200000X0.275000X-0.200000X0.275000X0.200000X0*%
%ADD21RoundRect,0.200000X-0.200000X-0.275000X0.200000X-0.275000X0.200000X0.275000X-0.200000X0.275000X0*%
%ADD22RoundRect,0.225000X-0.225000X-0.250000X0.225000X-0.250000X0.225000X0.250000X-0.225000X0.250000X0*%
%ADD23RoundRect,0.150000X0.512500X0.150000X-0.512500X0.150000X-0.512500X-0.150000X0.512500X-0.150000X0*%
%ADD24RoundRect,0.250000X0.275000X0.750000X-0.275000X0.750000X-0.275000X-0.750000X0.275000X-0.750000X0*%
%ADD25RoundRect,0.243750X0.243750X0.456250X-0.243750X0.456250X-0.243750X-0.456250X0.243750X-0.456250X0*%
%ADD26R,0.900000X0.900000*%
%ADD27R,1.500000X0.900000*%
%ADD28R,0.900000X1.500000*%
%ADD29RoundRect,0.150000X-0.587500X-0.150000X0.587500X-0.150000X0.587500X0.150000X-0.587500X0.150000X0*%
%ADD30RoundRect,0.250000X-0.475000X0.250000X-0.475000X-0.250000X0.475000X-0.250000X0.475000X0.250000X0*%
%ADD31RoundRect,0.250000X0.450000X-0.262500X0.450000X0.262500X-0.450000X0.262500X-0.450000X-0.262500X0*%
%ADD32RoundRect,0.250000X-0.275000X-0.750000X0.275000X-0.750000X0.275000X0.750000X-0.275000X0.750000X0*%
%ADD33RoundRect,0.250000X-0.450000X0.262500X-0.450000X-0.262500X0.450000X-0.262500X0.450000X0.262500X0*%
%ADD34RoundRect,0.250000X0.475000X-0.250000X0.475000X0.250000X-0.475000X0.250000X-0.475000X-0.250000X0*%
%ADD35R,0.300000X1.800000*%
%ADD36R,2.000000X1.500000*%
%ADD37RoundRect,0.225000X-0.250000X0.225000X-0.250000X-0.225000X0.250000X-0.225000X0.250000X0.225000X0*%
%ADD38RoundRect,0.225000X0.225000X0.250000X-0.225000X0.250000X-0.225000X-0.250000X0.225000X-0.250000X0*%
G04 APERTURE END LIST*
D10*
%TO.C,R13*%
X154175000Y-107000000D03*
X156000000Y-107000000D03*
%TD*%
D11*
%TO.C,R8*%
X150500000Y-83250000D03*
X148675000Y-83250000D03*
%TD*%
D12*
%TO.C,J1*%
X197320000Y-81595000D03*
X196520000Y-81595000D03*
D13*
X195320000Y-81595000D03*
X194320000Y-81595000D03*
X193820000Y-81595000D03*
X192820000Y-81595000D03*
D12*
X191620000Y-81595000D03*
X190820000Y-81595000D03*
X190820000Y-81595000D03*
X191620000Y-81595000D03*
D13*
X192320000Y-81595000D03*
X193320000Y-81595000D03*
X194820000Y-81595000D03*
X195820000Y-81595000D03*
D12*
X196520000Y-81595000D03*
X197320000Y-81595000D03*
%TD*%
D14*
%TO.C,C11*%
X141200000Y-111150000D03*
X141200000Y-109600000D03*
%TD*%
D15*
%TO.C,C5*%
X131800000Y-90600000D03*
X131800000Y-93550000D03*
%TD*%
D10*
%TO.C,R10*%
X117175000Y-92200000D03*
X119000000Y-92200000D03*
%TD*%
D16*
%TO.C,D2*%
X182250000Y-77750000D03*
X182250000Y-75875000D03*
%TD*%
D11*
%TO.C,R12*%
X164075000Y-113250000D03*
X162250000Y-113250000D03*
%TD*%
D17*
%TO.C,C8*%
X131400000Y-103000000D03*
X133300000Y-103000000D03*
%TD*%
D18*
%TO.C,U2*%
X129600000Y-86600000D03*
X131900000Y-86600000D03*
D19*
X131900000Y-80300000D03*
D18*
X134200000Y-86600000D03*
%TD*%
D16*
%TO.C,D4*%
X142750000Y-98600000D03*
X142750000Y-96725000D03*
%TD*%
D20*
%TO.C,R2*%
X140250000Y-75850000D03*
X140250000Y-77500000D03*
%TD*%
D21*
%TO.C,R9*%
X174000000Y-92400000D03*
X175650000Y-92400000D03*
%TD*%
D22*
%TO.C,C14*%
X165200000Y-107800000D03*
X166750000Y-107800000D03*
%TD*%
D23*
%TO.C,U3*%
X133462500Y-108350000D03*
X133462500Y-106450000D03*
X131187500Y-107400000D03*
%TD*%
D14*
%TO.C,C12*%
X141200000Y-106550000D03*
X141200000Y-105000000D03*
%TD*%
D24*
%TO.C,Reset*%
X144450000Y-92400000D03*
X140000000Y-92400000D03*
%TD*%
D14*
%TO.C,C3*%
X146250000Y-77500000D03*
X146250000Y-75950000D03*
%TD*%
D25*
%TO.C,D5*%
X196875000Y-94000000D03*
X195000000Y-94000000D03*
%TD*%
D26*
%TO.C,U1*%
X159692500Y-82105000D03*
X159692500Y-83505000D03*
X159692500Y-84905000D03*
X161092500Y-82105000D03*
X161092500Y-83505000D03*
X161092500Y-84905000D03*
X162492500Y-82105000D03*
X162492500Y-83505000D03*
X162492500Y-84905000D03*
D27*
X153842500Y-75785000D03*
X153842500Y-77055000D03*
X153842500Y-78325000D03*
X153842500Y-79595000D03*
X153842500Y-80865000D03*
X153842500Y-82135000D03*
X153842500Y-83405000D03*
X153842500Y-84675000D03*
X153842500Y-85945000D03*
X153842500Y-87215000D03*
X153842500Y-88485000D03*
X153842500Y-89755000D03*
X153842500Y-91025000D03*
X153842500Y-92295000D03*
D28*
X155607500Y-93545000D03*
X156877500Y-93545000D03*
X158147500Y-93545000D03*
X159417500Y-93545000D03*
X160687500Y-93545000D03*
X161957500Y-93545000D03*
X163227500Y-93545000D03*
X164497500Y-93545000D03*
X165767500Y-93545000D03*
X167037500Y-93545000D03*
X168307500Y-93545000D03*
X169577500Y-93545000D03*
D27*
X171342500Y-92295000D03*
X171342500Y-91025000D03*
X171342500Y-89755000D03*
X171342500Y-88485000D03*
X171342500Y-87215000D03*
X171342500Y-85945000D03*
X171342500Y-84675000D03*
X171342500Y-83405000D03*
X171342500Y-82135000D03*
X171342500Y-80865000D03*
X171342500Y-79595000D03*
X171342500Y-78325000D03*
X171342500Y-77055000D03*
X171342500Y-75785000D03*
%TD*%
D29*
%TO.C,Q1*%
X122925000Y-89650000D03*
X122925000Y-91550000D03*
X124800000Y-90600000D03*
%TD*%
D30*
%TO.C,C1*%
X128200000Y-90600000D03*
X128200000Y-92500000D03*
%TD*%
D31*
%TO.C,R6*%
X198430000Y-86475000D03*
X198430000Y-84650000D03*
%TD*%
D32*
%TO.C,Boot*%
X178150000Y-92400000D03*
X182600000Y-92400000D03*
%TD*%
D16*
%TO.C,D1*%
X142750000Y-77750000D03*
X142750000Y-75875000D03*
%TD*%
D11*
%TO.C,R15*%
X164075000Y-115750000D03*
X162250000Y-115750000D03*
%TD*%
D23*
%TO.C,U5*%
X133600000Y-113300000D03*
X133600000Y-111400000D03*
X131325000Y-112350000D03*
%TD*%
D33*
%TO.C,R14*%
X160500000Y-106500000D03*
X160500000Y-108325000D03*
%TD*%
D34*
%TO.C,C2*%
X149750000Y-77750000D03*
X149750000Y-75850000D03*
%TD*%
D20*
%TO.C,R3*%
X185400000Y-75950000D03*
X185400000Y-77600000D03*
%TD*%
D22*
%TO.C,C15*%
X165250000Y-106000000D03*
X166800000Y-106000000D03*
%TD*%
%TO.C,C7*%
X143050000Y-89400000D03*
X144600000Y-89400000D03*
%TD*%
D17*
%TO.C,C4*%
X134300000Y-89800000D03*
X136200000Y-89800000D03*
%TD*%
D16*
%TO.C,D3*%
X182250000Y-98600000D03*
X182250000Y-96725000D03*
%TD*%
D35*
%TO.C,CN2*%
X157000100Y-103318400D03*
X157499900Y-103318400D03*
X158000100Y-103318400D03*
X158499900Y-103318400D03*
X159000100Y-103318400D03*
X159499900Y-103318400D03*
X160000100Y-103318400D03*
X160499900Y-103318400D03*
X161000100Y-103318400D03*
X161499900Y-103318400D03*
X162000100Y-103318400D03*
X162499900Y-103318400D03*
X162999800Y-103318400D03*
X163499900Y-103318400D03*
X163999800Y-103318400D03*
X164499900Y-103318400D03*
X164999800Y-103318400D03*
X165499900Y-103318400D03*
X165999800Y-103318400D03*
X166499900Y-103318400D03*
X166999800Y-103318400D03*
X167499900Y-103318400D03*
X167999800Y-103318400D03*
X168499900Y-103318400D03*
D36*
X170199900Y-100868600D03*
X155300100Y-100868600D03*
%TD*%
D11*
%TO.C,R1*%
X119000000Y-89000000D03*
X117175000Y-89000000D03*
%TD*%
D20*
%TO.C,R4*%
X185200000Y-96775000D03*
X185200000Y-98425000D03*
%TD*%
D11*
%TO.C,R11*%
X192600000Y-94000000D03*
X190775000Y-94000000D03*
%TD*%
D37*
%TO.C,C13*%
X159750000Y-115750000D03*
X159750000Y-117300000D03*
%TD*%
D34*
%TO.C,C10*%
X138000000Y-106750000D03*
X138000000Y-104850000D03*
%TD*%
%TO.C,C9*%
X138000000Y-111400000D03*
X138000000Y-109500000D03*
%TD*%
D31*
%TO.C,R7*%
X189680000Y-86475000D03*
X189680000Y-84650000D03*
%TD*%
D20*
%TO.C,R5*%
X139800000Y-96800000D03*
X139800000Y-98450000D03*
%TD*%
D38*
%TO.C,C6*%
X150300000Y-80250000D03*
X148750000Y-80250000D03*
%TD*%
M02*
