%TF.GenerationSoftware,KiCad,Pcbnew,9.0.7*%
%TF.CreationDate,2026-02-16T21:50:05-05:00*%
%TF.ProjectId,Primis_FaceTracker,5072696d-6973-45f4-9661-636554726163,rev?*%
%TF.SameCoordinates,Original*%
%TF.FileFunction,Copper,L2,Bot*%
%TF.FilePolarity,Positive*%
%FSLAX46Y46*%
G04 Gerber Fmt 4.6, Leading zero omitted, Abs format (unit mm)*
G04 Created by KiCad (PCBNEW 9.0.7) date 2026-02-16 21:50:05*
%MOMM*%
%LPD*%
G01*
G04 APERTURE LIST*
%TA.AperFunction,HeatsinkPad*%
%ADD10O,1.000000X2.100000*%
%TD*%
%TA.AperFunction,HeatsinkPad*%
%ADD11O,1.000000X1.600000*%
%TD*%
%TA.AperFunction,HeatsinkPad*%
%ADD12C,0.600000*%
%TD*%
%TA.AperFunction,ViaPad*%
%ADD13C,0.600000*%
%TD*%
%TA.AperFunction,Conductor*%
%ADD14C,0.200000*%
%TD*%
%TA.AperFunction,Conductor*%
%ADD15C,0.500000*%
%TD*%
G04 APERTURE END LIST*
D10*
%TO.P,J1,S1,SHIELD*%
%TO.N,GND*%
X198390000Y-80680000D03*
D11*
X198390000Y-76500000D03*
D10*
X189750000Y-80680000D03*
D11*
X189750000Y-76500000D03*
%TD*%
D12*
%TO.P,U1,41,GND*%
%TO.N,GND*%
X159692500Y-82805000D03*
X159692500Y-84205000D03*
X160392500Y-82105000D03*
X160392500Y-83505000D03*
X160392500Y-84905000D03*
X161092500Y-82805000D03*
X161092500Y-84205000D03*
X161792500Y-82105000D03*
X161792500Y-83505000D03*
X161792500Y-84905000D03*
X162492500Y-82805000D03*
X162492500Y-84205000D03*
%TD*%
D13*
%TO.N,CAM_RST*%
X159750000Y-105000000D03*
X159000000Y-113750000D03*
%TO.N,GND*%
X182200000Y-79200000D03*
X152250000Y-75750000D03*
X135000000Y-108400000D03*
X129800000Y-92000000D03*
X189600000Y-87800000D03*
X141200000Y-108400000D03*
X198200000Y-93400000D03*
X173000000Y-75600000D03*
X184000000Y-92600000D03*
X129600000Y-88600000D03*
X138600000Y-92200000D03*
X137800000Y-90000000D03*
X147500000Y-80000000D03*
X148250000Y-75500000D03*
X157400100Y-105500000D03*
X141200000Y-103600000D03*
X145000000Y-75750000D03*
X135000000Y-113400000D03*
X134600000Y-103000000D03*
X152750000Y-101750000D03*
X129600000Y-93400000D03*
X164000000Y-105500000D03*
X198600000Y-87800000D03*
X141800000Y-89400000D03*
X162250000Y-108500000D03*
X142800000Y-100000000D03*
X138000000Y-103600000D03*
X172500000Y-101750000D03*
X168250000Y-106000000D03*
X168250000Y-107750000D03*
X138000000Y-108200000D03*
X143250000Y-79000000D03*
X182400000Y-100000000D03*
%TO.N,+5V*%
X197200000Y-83400000D03*
X184000000Y-85200000D03*
X139800000Y-86600000D03*
X191000000Y-83400000D03*
%TO.N,Net-(Q1-D)*%
X120800000Y-94000000D03*
X121000000Y-89800000D03*
%TO.N,CAM_2.8V*%
X158250000Y-107000000D03*
X153000000Y-110750000D03*
%TO.N,CAM_MCLK*%
X162500000Y-101000000D03*
X148000000Y-92000000D03*
%TO.N,CAM_SCK*%
X160750000Y-111500000D03*
X158500000Y-108500000D03*
%TO.N,D+*%
X151100521Y-93100521D03*
X195200000Y-90025000D03*
%TO.N,D-*%
X195200000Y-89175000D03*
X150499479Y-92499479D03*
%TO.N,+3V3*%
X176000000Y-80600000D03*
X162600000Y-120200000D03*
X166000000Y-79200000D03*
X153000000Y-108600000D03*
%TD*%
D14*
%TO.N,CAM_RST*%
X157899000Y-112649000D02*
X159000000Y-113750000D01*
X159750000Y-105000000D02*
X159750000Y-106400057D01*
X157899000Y-108251057D02*
X157899000Y-112649000D01*
X159750000Y-106400057D02*
X157899000Y-108251057D01*
D15*
%TO.N,+5V*%
X182600000Y-86600000D02*
X139800000Y-86600000D01*
X184000000Y-85200000D02*
X182600000Y-86600000D01*
X191000000Y-83400000D02*
X197200000Y-83400000D01*
%TO.N,Net-(Q1-D)*%
X121000000Y-89800000D02*
X121000000Y-93800000D01*
X121000000Y-93800000D02*
X120800000Y-94000000D01*
D14*
%TO.N,CAM_2.8V*%
X154500000Y-110750000D02*
X153000000Y-110750000D01*
X158250000Y-107000000D02*
X154500000Y-110750000D01*
%TO.N,CAM_MCLK*%
X151500000Y-95500000D02*
X148000000Y-92000000D01*
X162500000Y-101000000D02*
X157000000Y-95500000D01*
X157000000Y-95500000D02*
X151500000Y-95500000D01*
%TO.N,CAM_SCK*%
X158500000Y-108500000D02*
X158500000Y-109250000D01*
X158500000Y-109250000D02*
X160750000Y-111500000D01*
%TO.N,D+*%
X151100521Y-93100521D02*
X151100521Y-92817678D01*
X195000001Y-89825001D02*
X195200000Y-90025000D01*
X151100521Y-92817678D02*
X154093198Y-89825001D01*
X154093198Y-89825001D02*
X195000001Y-89825001D01*
%TO.N,D-*%
X195000001Y-89374999D02*
X195200000Y-89175000D01*
X153906802Y-89374999D02*
X195000001Y-89374999D01*
X150782322Y-92499479D02*
X153906802Y-89374999D01*
X150499479Y-92499479D02*
X150782322Y-92499479D01*
D15*
%TO.N,+3V3*%
X161387925Y-120200000D02*
X162600000Y-120200000D01*
X176000000Y-80600000D02*
X167400000Y-80600000D01*
X152249000Y-111061075D02*
X161387925Y-120200000D01*
X153000000Y-108600000D02*
X152249000Y-109351000D01*
X167400000Y-80600000D02*
X166000000Y-79200000D01*
X152249000Y-109351000D02*
X152249000Y-111061075D01*
%TD*%
%TA.AperFunction,Conductor*%
%TO.N,GND*%
G36*
X189476372Y-75020185D02*
G01*
X189522127Y-75072989D01*
X189532071Y-75142147D01*
X189503046Y-75205703D01*
X189456785Y-75239061D01*
X189276328Y-75313807D01*
X189276315Y-75313814D01*
X189112537Y-75423248D01*
X189112533Y-75423251D01*
X188973251Y-75562533D01*
X188973248Y-75562537D01*
X188863814Y-75726315D01*
X188863807Y-75726328D01*
X188788430Y-75908306D01*
X188788427Y-75908318D01*
X188750000Y-76101504D01*
X188750000Y-76250000D01*
X189450000Y-76250000D01*
X189450000Y-76750000D01*
X188750000Y-76750000D01*
X188750000Y-76898495D01*
X188788427Y-77091681D01*
X188788430Y-77091693D01*
X188863807Y-77273671D01*
X188863814Y-77273684D01*
X188973248Y-77437462D01*
X188973251Y-77437466D01*
X189112533Y-77576748D01*
X189112537Y-77576751D01*
X189276315Y-77686185D01*
X189276328Y-77686192D01*
X189458308Y-77761569D01*
X189500000Y-77769862D01*
X189500000Y-76966988D01*
X189509940Y-76984205D01*
X189565795Y-77040060D01*
X189634204Y-77079556D01*
X189710504Y-77100000D01*
X189789496Y-77100000D01*
X189865796Y-77079556D01*
X189934205Y-77040060D01*
X189990060Y-76984205D01*
X190000000Y-76966988D01*
X190000000Y-77769862D01*
X190041690Y-77761569D01*
X190041692Y-77761569D01*
X190223671Y-77686192D01*
X190223684Y-77686185D01*
X190387462Y-77576751D01*
X190387466Y-77576748D01*
X190526748Y-77437466D01*
X190526751Y-77437462D01*
X190636185Y-77273684D01*
X190636192Y-77273671D01*
X190711569Y-77091693D01*
X190711572Y-77091681D01*
X190749999Y-76898495D01*
X190750000Y-76898492D01*
X190750000Y-76750000D01*
X190050000Y-76750000D01*
X190050000Y-76250000D01*
X190750000Y-76250000D01*
X190750000Y-76101508D01*
X190749999Y-76101504D01*
X190711572Y-75908318D01*
X190711569Y-75908306D01*
X190636192Y-75726328D01*
X190636185Y-75726315D01*
X190526751Y-75562537D01*
X190526748Y-75562533D01*
X190387466Y-75423251D01*
X190387462Y-75423248D01*
X190223684Y-75313814D01*
X190223671Y-75313807D01*
X190043215Y-75239061D01*
X189988811Y-75195220D01*
X189966746Y-75128926D01*
X189984025Y-75061227D01*
X190035162Y-75013616D01*
X190090667Y-75000500D01*
X198049333Y-75000500D01*
X198116372Y-75020185D01*
X198162127Y-75072989D01*
X198172071Y-75142147D01*
X198143046Y-75205703D01*
X198096785Y-75239061D01*
X197916328Y-75313807D01*
X197916315Y-75313814D01*
X197752537Y-75423248D01*
X197752533Y-75423251D01*
X197613251Y-75562533D01*
X197613248Y-75562537D01*
X197503814Y-75726315D01*
X197503807Y-75726328D01*
X197428430Y-75908306D01*
X197428427Y-75908318D01*
X197390000Y-76101504D01*
X197390000Y-76250000D01*
X198090000Y-76250000D01*
X198090000Y-76750000D01*
X197390000Y-76750000D01*
X197390000Y-76898495D01*
X197428427Y-77091681D01*
X197428430Y-77091693D01*
X197503807Y-77273671D01*
X197503814Y-77273684D01*
X197613248Y-77437462D01*
X197613251Y-77437466D01*
X197752533Y-77576748D01*
X197752537Y-77576751D01*
X197916315Y-77686185D01*
X197916328Y-77686192D01*
X198098308Y-77761569D01*
X198140000Y-77769862D01*
X198140000Y-76966988D01*
X198149940Y-76984205D01*
X198205795Y-77040060D01*
X198274204Y-77079556D01*
X198350504Y-77100000D01*
X198429496Y-77100000D01*
X198505796Y-77079556D01*
X198574205Y-77040060D01*
X198630060Y-76984205D01*
X198640000Y-76966988D01*
X198640000Y-77769862D01*
X198681690Y-77761569D01*
X198681692Y-77761569D01*
X198863671Y-77686192D01*
X198863684Y-77686185D01*
X199027462Y-77576751D01*
X199027466Y-77576748D01*
X199166748Y-77437466D01*
X199166751Y-77437462D01*
X199276185Y-77273684D01*
X199276192Y-77273671D01*
X199351569Y-77091693D01*
X199351572Y-77091681D01*
X199389999Y-76898495D01*
X199390000Y-76898492D01*
X199390000Y-76750000D01*
X198690000Y-76750000D01*
X198690000Y-76250000D01*
X199390000Y-76250000D01*
X199390000Y-76101508D01*
X199389999Y-76101504D01*
X199351572Y-75908318D01*
X199351569Y-75908306D01*
X199276192Y-75726328D01*
X199276185Y-75726315D01*
X199166751Y-75562537D01*
X199166748Y-75562533D01*
X199027466Y-75423251D01*
X199027462Y-75423248D01*
X198863684Y-75313814D01*
X198863671Y-75313807D01*
X198683215Y-75239061D01*
X198628811Y-75195220D01*
X198606746Y-75128926D01*
X198624025Y-75061227D01*
X198675162Y-75013616D01*
X198730667Y-75000500D01*
X204934108Y-75000500D01*
X204997439Y-75000500D01*
X205002562Y-75000605D01*
X205407746Y-75017364D01*
X205417919Y-75018207D01*
X205817817Y-75068054D01*
X205827901Y-75069737D01*
X206222294Y-75152432D01*
X206232208Y-75154942D01*
X206618436Y-75269928D01*
X206628104Y-75273247D01*
X207003502Y-75419728D01*
X207012887Y-75423845D01*
X207374880Y-75600813D01*
X207383894Y-75605690D01*
X207730070Y-75811966D01*
X207738638Y-75817564D01*
X208066593Y-76051719D01*
X208074674Y-76058010D01*
X208382155Y-76318433D01*
X208389695Y-76325374D01*
X208674625Y-76610304D01*
X208681566Y-76617844D01*
X208919262Y-76898492D01*
X208941989Y-76925325D01*
X208948282Y-76933410D01*
X209067226Y-77100000D01*
X209182431Y-77261355D01*
X209188037Y-77269935D01*
X209394309Y-77616105D01*
X209399186Y-77625119D01*
X209576154Y-77987112D01*
X209580271Y-77996497D01*
X209726747Y-78371883D01*
X209730075Y-78381576D01*
X209845053Y-78767778D01*
X209847569Y-78777714D01*
X209930260Y-79172089D01*
X209931947Y-79182197D01*
X209981790Y-79582059D01*
X209982636Y-79592273D01*
X209999394Y-79997437D01*
X209999500Y-80002561D01*
X209999500Y-116997438D01*
X209999394Y-117002562D01*
X209982636Y-117407726D01*
X209981790Y-117417940D01*
X209931947Y-117817802D01*
X209930260Y-117827910D01*
X209847569Y-118222285D01*
X209845053Y-118232221D01*
X209730075Y-118618423D01*
X209726747Y-118628116D01*
X209580271Y-119003502D01*
X209576154Y-119012887D01*
X209399186Y-119374880D01*
X209394309Y-119383894D01*
X209188037Y-119730064D01*
X209182431Y-119738644D01*
X208948284Y-120066587D01*
X208941989Y-120074674D01*
X208681566Y-120382155D01*
X208674625Y-120389695D01*
X208389695Y-120674625D01*
X208382155Y-120681566D01*
X208074674Y-120941989D01*
X208066587Y-120948284D01*
X207738644Y-121182431D01*
X207730064Y-121188037D01*
X207383894Y-121394309D01*
X207374880Y-121399186D01*
X207012887Y-121576154D01*
X207003502Y-121580271D01*
X206628116Y-121726747D01*
X206618423Y-121730075D01*
X206232221Y-121845053D01*
X206222285Y-121847569D01*
X205827910Y-121930260D01*
X205817802Y-121931947D01*
X205417940Y-121981790D01*
X205407726Y-121982636D01*
X205002563Y-121999394D01*
X204997439Y-121999500D01*
X121002561Y-121999500D01*
X120997437Y-121999394D01*
X120592273Y-121982636D01*
X120582059Y-121981790D01*
X120182197Y-121931947D01*
X120172089Y-121930260D01*
X119777714Y-121847569D01*
X119767778Y-121845053D01*
X119381576Y-121730075D01*
X119371883Y-121726747D01*
X118996497Y-121580271D01*
X118987112Y-121576154D01*
X118625119Y-121399186D01*
X118616105Y-121394309D01*
X118269935Y-121188037D01*
X118261355Y-121182431D01*
X117963456Y-120969735D01*
X117933410Y-120948282D01*
X117925325Y-120941989D01*
X117901321Y-120921659D01*
X117736038Y-120781671D01*
X117617844Y-120681566D01*
X117610304Y-120674625D01*
X117325374Y-120389695D01*
X117318433Y-120382155D01*
X117230933Y-120278844D01*
X117058005Y-120074668D01*
X117051715Y-120066587D01*
X116980261Y-119966510D01*
X116817564Y-119738638D01*
X116811962Y-119730064D01*
X116721477Y-119578211D01*
X116605690Y-119383894D01*
X116600813Y-119374880D01*
X116423845Y-119012887D01*
X116419728Y-119003502D01*
X116274001Y-118630035D01*
X116273247Y-118628104D01*
X116269928Y-118618436D01*
X116154942Y-118232208D01*
X116152430Y-118222285D01*
X116112135Y-118030109D01*
X116069737Y-117827901D01*
X116068054Y-117817817D01*
X116018207Y-117417919D01*
X116017364Y-117407746D01*
X116000606Y-117002562D01*
X116000500Y-116997438D01*
X116000500Y-116893713D01*
X119649500Y-116893713D01*
X119649500Y-117106286D01*
X119670006Y-117235760D01*
X119682754Y-117316243D01*
X119714145Y-117412855D01*
X119748444Y-117518414D01*
X119844951Y-117707820D01*
X119969890Y-117879786D01*
X120120213Y-118030109D01*
X120292179Y-118155048D01*
X120292181Y-118155049D01*
X120292184Y-118155051D01*
X120481588Y-118251557D01*
X120683757Y-118317246D01*
X120893713Y-118350500D01*
X120893714Y-118350500D01*
X121106286Y-118350500D01*
X121106287Y-118350500D01*
X121316243Y-118317246D01*
X121518412Y-118251557D01*
X121707816Y-118155051D01*
X121729789Y-118139086D01*
X121879786Y-118030109D01*
X121879788Y-118030106D01*
X121879792Y-118030104D01*
X122030104Y-117879792D01*
X122030106Y-117879788D01*
X122030109Y-117879786D01*
X122155048Y-117707820D01*
X122155047Y-117707820D01*
X122155051Y-117707816D01*
X122251557Y-117518412D01*
X122317246Y-117316243D01*
X122350500Y-117106287D01*
X122350500Y-116893713D01*
X122317246Y-116683757D01*
X122251557Y-116481588D01*
X122155051Y-116292184D01*
X122155049Y-116292181D01*
X122155048Y-116292179D01*
X122030109Y-116120213D01*
X121879786Y-115969890D01*
X121707820Y-115844951D01*
X121518414Y-115748444D01*
X121518413Y-115748443D01*
X121518412Y-115748443D01*
X121316243Y-115682754D01*
X121316241Y-115682753D01*
X121316240Y-115682753D01*
X121154957Y-115657208D01*
X121106287Y-115649500D01*
X120893713Y-115649500D01*
X120845042Y-115657208D01*
X120683760Y-115682753D01*
X120481585Y-115748444D01*
X120292179Y-115844951D01*
X120120213Y-115969890D01*
X119969890Y-116120213D01*
X119844951Y-116292179D01*
X119748444Y-116481585D01*
X119682753Y-116683760D01*
X119649500Y-116893713D01*
X116000500Y-116893713D01*
X116000500Y-111134995D01*
X151498499Y-111134995D01*
X151527340Y-111279982D01*
X151527342Y-111279988D01*
X151583916Y-111416570D01*
X151586976Y-111421149D01*
X151586979Y-111421159D01*
X151586982Y-111421158D01*
X151666051Y-111539495D01*
X151666052Y-111539496D01*
X160804974Y-120678416D01*
X160909509Y-120782951D01*
X160909512Y-120782953D01*
X160909513Y-120782954D01*
X161032428Y-120865083D01*
X161032431Y-120865085D01*
X161082590Y-120885861D01*
X161089005Y-120888518D01*
X161169013Y-120921659D01*
X161285166Y-120944763D01*
X161308305Y-120949365D01*
X161314006Y-120950500D01*
X161314007Y-120950500D01*
X161314008Y-120950500D01*
X161461843Y-120950500D01*
X162295396Y-120950500D01*
X162342844Y-120959937D01*
X162366503Y-120969737D01*
X162366508Y-120969738D01*
X162366511Y-120969739D01*
X162521153Y-121000499D01*
X162521156Y-121000500D01*
X162521158Y-121000500D01*
X162678844Y-121000500D01*
X162678845Y-121000499D01*
X162833497Y-120969737D01*
X162979179Y-120909394D01*
X163110289Y-120821789D01*
X163221789Y-120710289D01*
X163309394Y-120579179D01*
X163369737Y-120433497D01*
X163400500Y-120278842D01*
X163400500Y-120121158D01*
X163400500Y-120121155D01*
X163400499Y-120121153D01*
X163369738Y-119966510D01*
X163369737Y-119966503D01*
X163356371Y-119934234D01*
X163309397Y-119820827D01*
X163309390Y-119820814D01*
X163221789Y-119689711D01*
X163221786Y-119689707D01*
X163110292Y-119578213D01*
X163110288Y-119578210D01*
X162979185Y-119490609D01*
X162979172Y-119490602D01*
X162833501Y-119430264D01*
X162833489Y-119430261D01*
X162678845Y-119399500D01*
X162678842Y-119399500D01*
X162521158Y-119399500D01*
X162521155Y-119399500D01*
X162366511Y-119430260D01*
X162366506Y-119430262D01*
X162366504Y-119430262D01*
X162366503Y-119430263D01*
X162342844Y-119440062D01*
X162295396Y-119449500D01*
X161750154Y-119449500D01*
X161683115Y-119429815D01*
X161662473Y-119413181D01*
X159225814Y-116976522D01*
X159143005Y-116893713D01*
X203649500Y-116893713D01*
X203649500Y-117106286D01*
X203670006Y-117235760D01*
X203682754Y-117316243D01*
X203714145Y-117412855D01*
X203748444Y-117518414D01*
X203844951Y-117707820D01*
X203969890Y-117879786D01*
X204120213Y-118030109D01*
X204292179Y-118155048D01*
X204292181Y-118155049D01*
X204292184Y-118155051D01*
X204481588Y-118251557D01*
X204683757Y-118317246D01*
X204893713Y-118350500D01*
X204893714Y-118350500D01*
X205106286Y-118350500D01*
X205106287Y-118350500D01*
X205316243Y-118317246D01*
X205518412Y-118251557D01*
X205707816Y-118155051D01*
X205729789Y-118139086D01*
X205879786Y-118030109D01*
X205879788Y-118030106D01*
X205879792Y-118030104D01*
X206030104Y-117879792D01*
X206030106Y-117879788D01*
X206030109Y-117879786D01*
X206155048Y-117707820D01*
X206155047Y-117707820D01*
X206155051Y-117707816D01*
X206251557Y-117518412D01*
X206317246Y-117316243D01*
X206350500Y-117106287D01*
X206350500Y-116893713D01*
X206317246Y-116683757D01*
X206251557Y-116481588D01*
X206155051Y-116292184D01*
X206155049Y-116292181D01*
X206155048Y-116292179D01*
X206030109Y-116120213D01*
X205879786Y-115969890D01*
X205707820Y-115844951D01*
X205518414Y-115748444D01*
X205518413Y-115748443D01*
X205518412Y-115748443D01*
X205316243Y-115682754D01*
X205316241Y-115682753D01*
X205316240Y-115682753D01*
X205154957Y-115657208D01*
X205106287Y-115649500D01*
X204893713Y-115649500D01*
X204845042Y-115657208D01*
X204683760Y-115682753D01*
X204481585Y-115748444D01*
X204292179Y-115844951D01*
X204120213Y-115969890D01*
X203969890Y-116120213D01*
X203844951Y-116292179D01*
X203748444Y-116481585D01*
X203682753Y-116683760D01*
X203649500Y-116893713D01*
X159143005Y-116893713D01*
X156799792Y-114550500D01*
X153811474Y-111562181D01*
X153777989Y-111500858D01*
X153782973Y-111431166D01*
X153824845Y-111375233D01*
X153890309Y-111350816D01*
X153899155Y-111350500D01*
X154413331Y-111350500D01*
X154413347Y-111350501D01*
X154420943Y-111350501D01*
X154579054Y-111350501D01*
X154579057Y-111350501D01*
X154731785Y-111309577D01*
X154806391Y-111266503D01*
X154868716Y-111230520D01*
X154980520Y-111118716D01*
X154980520Y-111118714D01*
X154990724Y-111108511D01*
X154990727Y-111108506D01*
X157086821Y-109012413D01*
X157148142Y-108978930D01*
X157217834Y-108983914D01*
X157273767Y-109025786D01*
X157298184Y-109091250D01*
X157298500Y-109100096D01*
X157298500Y-112562330D01*
X157298499Y-112562348D01*
X157298499Y-112728054D01*
X157298498Y-112728054D01*
X157298499Y-112728057D01*
X157339423Y-112880785D01*
X157360318Y-112916976D01*
X157368358Y-112930900D01*
X157368359Y-112930904D01*
X157368360Y-112930904D01*
X157396857Y-112980264D01*
X157418479Y-113017714D01*
X157418481Y-113017717D01*
X157537349Y-113136585D01*
X157537355Y-113136590D01*
X158165425Y-113764660D01*
X158198910Y-113825983D01*
X158199361Y-113828149D01*
X158230261Y-113983491D01*
X158230264Y-113983501D01*
X158290602Y-114129172D01*
X158290609Y-114129185D01*
X158378210Y-114260288D01*
X158378213Y-114260292D01*
X158489707Y-114371786D01*
X158489711Y-114371789D01*
X158620814Y-114459390D01*
X158620827Y-114459397D01*
X158766498Y-114519735D01*
X158766503Y-114519737D01*
X158921153Y-114550499D01*
X158921156Y-114550500D01*
X158921158Y-114550500D01*
X159078844Y-114550500D01*
X159078845Y-114550499D01*
X159233497Y-114519737D01*
X159379179Y-114459394D01*
X159510289Y-114371789D01*
X159621789Y-114260289D01*
X159709394Y-114129179D01*
X159769737Y-113983497D01*
X159800500Y-113828842D01*
X159800500Y-113671158D01*
X159800500Y-113671155D01*
X159800499Y-113671153D01*
X159769738Y-113516510D01*
X159769737Y-113516503D01*
X159769735Y-113516498D01*
X159709397Y-113370827D01*
X159709390Y-113370814D01*
X159621789Y-113239711D01*
X159621786Y-113239707D01*
X159510292Y-113128213D01*
X159510288Y-113128210D01*
X159379185Y-113040609D01*
X159379172Y-113040602D01*
X159233501Y-112980264D01*
X159233491Y-112980261D01*
X159078149Y-112949361D01*
X159016238Y-112916976D01*
X159014660Y-112915425D01*
X158535819Y-112436584D01*
X158502334Y-112375261D01*
X158499500Y-112348903D01*
X158499500Y-110398097D01*
X158519185Y-110331058D01*
X158571989Y-110285303D01*
X158641147Y-110275359D01*
X158704703Y-110304384D01*
X158711181Y-110310416D01*
X159915425Y-111514660D01*
X159948910Y-111575983D01*
X159949361Y-111578149D01*
X159980261Y-111733491D01*
X159980264Y-111733501D01*
X160040602Y-111879172D01*
X160040609Y-111879185D01*
X160128210Y-112010288D01*
X160128213Y-112010292D01*
X160239707Y-112121786D01*
X160239711Y-112121789D01*
X160370814Y-112209390D01*
X160370827Y-112209397D01*
X160516498Y-112269735D01*
X160516503Y-112269737D01*
X160671153Y-112300499D01*
X160671156Y-112300500D01*
X160671158Y-112300500D01*
X160828844Y-112300500D01*
X160828845Y-112300499D01*
X160983497Y-112269737D01*
X161129179Y-112209394D01*
X161260289Y-112121789D01*
X161371789Y-112010289D01*
X161459394Y-111879179D01*
X161519737Y-111733497D01*
X161550500Y-111578842D01*
X161550500Y-111421158D01*
X161550500Y-111421155D01*
X161550499Y-111421148D01*
X161519738Y-111266510D01*
X161519737Y-111266503D01*
X161519735Y-111266498D01*
X161459397Y-111120827D01*
X161459390Y-111120814D01*
X161371789Y-110989711D01*
X161371786Y-110989707D01*
X161260292Y-110878213D01*
X161260288Y-110878210D01*
X161129185Y-110790609D01*
X161129172Y-110790602D01*
X160983501Y-110730264D01*
X160983491Y-110730261D01*
X160828151Y-110699362D01*
X160766241Y-110666977D01*
X160764662Y-110665426D01*
X159992828Y-109893592D01*
X159188833Y-109089598D01*
X159155349Y-109028276D01*
X159160333Y-108958584D01*
X159173410Y-108933032D01*
X159209394Y-108879179D01*
X159269737Y-108733497D01*
X159300500Y-108578842D01*
X159300500Y-108421158D01*
X159300500Y-108421155D01*
X159300499Y-108421153D01*
X159269738Y-108266510D01*
X159269737Y-108266503D01*
X159250812Y-108220814D01*
X159209397Y-108120827D01*
X159209390Y-108120814D01*
X159133382Y-108007060D01*
X159112504Y-107940382D01*
X159130989Y-107873002D01*
X159148799Y-107850492D01*
X160118713Y-106880578D01*
X160118716Y-106880577D01*
X160230520Y-106768773D01*
X160280639Y-106681961D01*
X160309577Y-106631842D01*
X160350500Y-106479115D01*
X160350500Y-106321000D01*
X160350500Y-105579765D01*
X160370185Y-105512726D01*
X160371398Y-105510874D01*
X160459390Y-105379185D01*
X160459390Y-105379184D01*
X160459394Y-105379179D01*
X160519737Y-105233497D01*
X160550500Y-105078842D01*
X160550500Y-104921158D01*
X160550500Y-104921155D01*
X160550499Y-104921153D01*
X160519738Y-104766510D01*
X160519737Y-104766503D01*
X160519735Y-104766498D01*
X160459397Y-104620827D01*
X160459390Y-104620814D01*
X160371789Y-104489711D01*
X160371786Y-104489707D01*
X160260292Y-104378213D01*
X160260288Y-104378210D01*
X160129185Y-104290609D01*
X160129172Y-104290602D01*
X159983501Y-104230264D01*
X159983489Y-104230261D01*
X159828845Y-104199500D01*
X159828842Y-104199500D01*
X159671158Y-104199500D01*
X159671155Y-104199500D01*
X159516510Y-104230261D01*
X159516498Y-104230264D01*
X159370827Y-104290602D01*
X159370814Y-104290609D01*
X159239711Y-104378210D01*
X159239707Y-104378213D01*
X159128213Y-104489707D01*
X159128210Y-104489711D01*
X159040609Y-104620814D01*
X159040602Y-104620827D01*
X158980264Y-104766498D01*
X158980261Y-104766510D01*
X158949500Y-104921153D01*
X158949500Y-105078846D01*
X158980261Y-105233489D01*
X158980264Y-105233501D01*
X159040602Y-105379172D01*
X159040609Y-105379185D01*
X159128602Y-105510874D01*
X159149480Y-105577551D01*
X159149500Y-105579765D01*
X159149500Y-106099960D01*
X159129815Y-106166999D01*
X159113181Y-106187641D01*
X158928913Y-106371908D01*
X158867590Y-106405393D01*
X158797898Y-106400409D01*
X158762568Y-106380081D01*
X158760288Y-106378210D01*
X158629185Y-106290609D01*
X158629172Y-106290602D01*
X158483501Y-106230264D01*
X158483489Y-106230261D01*
X158328845Y-106199500D01*
X158328842Y-106199500D01*
X158171158Y-106199500D01*
X158171155Y-106199500D01*
X158016510Y-106230261D01*
X158016498Y-106230264D01*
X157870827Y-106290602D01*
X157870814Y-106290609D01*
X157739711Y-106378210D01*
X157739707Y-106378213D01*
X157628213Y-106489707D01*
X157628210Y-106489711D01*
X157540609Y-106620814D01*
X157540602Y-106620827D01*
X157480264Y-106766498D01*
X157480261Y-106766508D01*
X157449361Y-106921850D01*
X157416976Y-106983761D01*
X157415425Y-106985339D01*
X154287584Y-110113181D01*
X154226261Y-110146666D01*
X154199903Y-110149500D01*
X153579766Y-110149500D01*
X153512727Y-110129815D01*
X153510875Y-110128602D01*
X153379185Y-110040609D01*
X153379172Y-110040602D01*
X153233501Y-109980264D01*
X153233491Y-109980261D01*
X153099308Y-109953570D01*
X153071177Y-109938855D01*
X153042297Y-109925666D01*
X153040440Y-109922776D01*
X153037397Y-109921185D01*
X153021684Y-109893592D01*
X153004523Y-109866888D01*
X153003862Y-109862294D01*
X153002823Y-109860469D01*
X152999500Y-109831953D01*
X152999500Y-109713229D01*
X153019185Y-109646190D01*
X153035819Y-109625548D01*
X153315297Y-109346069D01*
X153355522Y-109319192D01*
X153379179Y-109309394D01*
X153510289Y-109221789D01*
X153621789Y-109110289D01*
X153709394Y-108979179D01*
X153769737Y-108833497D01*
X153800500Y-108678842D01*
X153800500Y-108521158D01*
X153800500Y-108521155D01*
X153800499Y-108521153D01*
X153769737Y-108366503D01*
X153719194Y-108244480D01*
X153709397Y-108220827D01*
X153709390Y-108220814D01*
X153621789Y-108089711D01*
X153621786Y-108089707D01*
X153510292Y-107978213D01*
X153510288Y-107978210D01*
X153379185Y-107890609D01*
X153379172Y-107890602D01*
X153233501Y-107830264D01*
X153233489Y-107830261D01*
X153078845Y-107799500D01*
X153078842Y-107799500D01*
X152921158Y-107799500D01*
X152921155Y-107799500D01*
X152766510Y-107830261D01*
X152766498Y-107830264D01*
X152620827Y-107890602D01*
X152620814Y-107890609D01*
X152489711Y-107978210D01*
X152489707Y-107978213D01*
X152378213Y-108089707D01*
X152378207Y-108089715D01*
X152290607Y-108220818D01*
X152290606Y-108220819D01*
X152280805Y-108244480D01*
X152253927Y-108284703D01*
X151666049Y-108872581D01*
X151616812Y-108946271D01*
X151583921Y-108995496D01*
X151583914Y-108995508D01*
X151527342Y-109132086D01*
X151527340Y-109132092D01*
X151498500Y-109277079D01*
X151498500Y-109277082D01*
X151498500Y-111134993D01*
X151498500Y-111134995D01*
X151498499Y-111134995D01*
X116000500Y-111134995D01*
X116000500Y-93921153D01*
X119999500Y-93921153D01*
X119999500Y-94078846D01*
X120030261Y-94233489D01*
X120030264Y-94233501D01*
X120090602Y-94379172D01*
X120090609Y-94379185D01*
X120178210Y-94510288D01*
X120178213Y-94510292D01*
X120289707Y-94621786D01*
X120289711Y-94621789D01*
X120420814Y-94709390D01*
X120420827Y-94709397D01*
X120566498Y-94769735D01*
X120566503Y-94769737D01*
X120721153Y-94800499D01*
X120721156Y-94800500D01*
X120721158Y-94800500D01*
X120878844Y-94800500D01*
X120878845Y-94800499D01*
X121033497Y-94769737D01*
X121179179Y-94709394D01*
X121310289Y-94621789D01*
X121421789Y-94510289D01*
X121509394Y-94379179D01*
X121519191Y-94355527D01*
X121536212Y-94326414D01*
X121540805Y-94320561D01*
X121582952Y-94278416D01*
X121632186Y-94204729D01*
X121665084Y-94155495D01*
X121702954Y-94064069D01*
X121708211Y-94051379D01*
X121721657Y-94018916D01*
X121721659Y-94018912D01*
X121750500Y-93873917D01*
X121750500Y-93726082D01*
X121750500Y-91921153D01*
X147199500Y-91921153D01*
X147199500Y-92078846D01*
X147230261Y-92233489D01*
X147230264Y-92233501D01*
X147290602Y-92379172D01*
X147290609Y-92379185D01*
X147378210Y-92510288D01*
X147378213Y-92510292D01*
X147489707Y-92621786D01*
X147489711Y-92621789D01*
X147620814Y-92709390D01*
X147620827Y-92709397D01*
X147677753Y-92732976D01*
X147766503Y-92769737D01*
X147831147Y-92782595D01*
X147921849Y-92800638D01*
X147983760Y-92833023D01*
X147985339Y-92834574D01*
X151015139Y-95864374D01*
X151015149Y-95864385D01*
X151019479Y-95868715D01*
X151019480Y-95868716D01*
X151131284Y-95980520D01*
X151131286Y-95980521D01*
X151131290Y-95980524D01*
X151268209Y-96059573D01*
X151268216Y-96059577D01*
X151380019Y-96089534D01*
X151420942Y-96100500D01*
X151420943Y-96100500D01*
X156699903Y-96100500D01*
X156766942Y-96120185D01*
X156787584Y-96136819D01*
X161665425Y-101014660D01*
X161698910Y-101075983D01*
X161699361Y-101078149D01*
X161730261Y-101233491D01*
X161730264Y-101233501D01*
X161790602Y-101379172D01*
X161790609Y-101379185D01*
X161878210Y-101510288D01*
X161878213Y-101510292D01*
X161989707Y-101621786D01*
X161989711Y-101621789D01*
X162120814Y-101709390D01*
X162120827Y-101709397D01*
X162266498Y-101769735D01*
X162266503Y-101769737D01*
X162421153Y-101800499D01*
X162421156Y-101800500D01*
X162421158Y-101800500D01*
X162578844Y-101800500D01*
X162578845Y-101800499D01*
X162733497Y-101769737D01*
X162879179Y-101709394D01*
X163010289Y-101621789D01*
X163121789Y-101510289D01*
X163209394Y-101379179D01*
X163269737Y-101233497D01*
X163300500Y-101078842D01*
X163300500Y-100921158D01*
X163300500Y-100921155D01*
X163300499Y-100921153D01*
X163269738Y-100766510D01*
X163269737Y-100766503D01*
X163269735Y-100766498D01*
X163209397Y-100620827D01*
X163209390Y-100620814D01*
X163121789Y-100489711D01*
X163121786Y-100489707D01*
X163010292Y-100378213D01*
X163010288Y-100378210D01*
X162879185Y-100290609D01*
X162879172Y-100290602D01*
X162733501Y-100230264D01*
X162733491Y-100230261D01*
X162578151Y-100199362D01*
X162516241Y-100166977D01*
X162514662Y-100165426D01*
X157487590Y-95138355D01*
X157487588Y-95138352D01*
X157368717Y-95019481D01*
X157368716Y-95019480D01*
X157281904Y-94969360D01*
X157281904Y-94969359D01*
X157281900Y-94969358D01*
X157231785Y-94940423D01*
X157079057Y-94899499D01*
X156920943Y-94899499D01*
X156913347Y-94899499D01*
X156913331Y-94899500D01*
X151800097Y-94899500D01*
X151733058Y-94879815D01*
X151712416Y-94863181D01*
X150961937Y-94112702D01*
X150928452Y-94051379D01*
X150933436Y-93981687D01*
X150975308Y-93925754D01*
X151040772Y-93901337D01*
X151049618Y-93901021D01*
X151179365Y-93901021D01*
X151179366Y-93901020D01*
X151334018Y-93870258D01*
X151479700Y-93809915D01*
X151610810Y-93722310D01*
X151722310Y-93610810D01*
X151809915Y-93479700D01*
X151870258Y-93334018D01*
X151901021Y-93179363D01*
X151901021Y-93021679D01*
X151901021Y-93021676D01*
X151888191Y-92957178D01*
X151894418Y-92887586D01*
X151922125Y-92845307D01*
X154305614Y-90461820D01*
X154366937Y-90428335D01*
X154393295Y-90425501D01*
X194438574Y-90425501D01*
X194505613Y-90445186D01*
X194541675Y-90480609D01*
X194566042Y-90517076D01*
X194578212Y-90535291D01*
X194689707Y-90646786D01*
X194689711Y-90646789D01*
X194820814Y-90734390D01*
X194820827Y-90734397D01*
X194966498Y-90794735D01*
X194966503Y-90794737D01*
X195121153Y-90825499D01*
X195121156Y-90825500D01*
X195121158Y-90825500D01*
X195278844Y-90825500D01*
X195278845Y-90825499D01*
X195433497Y-90794737D01*
X195579179Y-90734394D01*
X195710289Y-90646789D01*
X195821789Y-90535289D01*
X195909394Y-90404179D01*
X195969737Y-90258497D01*
X196000500Y-90103842D01*
X196000500Y-89946158D01*
X196000500Y-89946155D01*
X196000499Y-89946153D01*
X195969738Y-89791510D01*
X195969737Y-89791503D01*
X195969735Y-89791498D01*
X195910070Y-89647452D01*
X195902601Y-89577983D01*
X195910070Y-89552548D01*
X195969735Y-89408501D01*
X195969737Y-89408497D01*
X196000500Y-89253842D01*
X196000500Y-89096158D01*
X196000500Y-89096155D01*
X196000499Y-89096153D01*
X195987393Y-89030264D01*
X195969737Y-88941503D01*
X195950259Y-88894478D01*
X195909397Y-88795827D01*
X195909390Y-88795814D01*
X195821789Y-88664711D01*
X195821786Y-88664707D01*
X195710292Y-88553213D01*
X195710288Y-88553210D01*
X195579185Y-88465609D01*
X195579172Y-88465602D01*
X195433501Y-88405264D01*
X195433489Y-88405261D01*
X195278845Y-88374500D01*
X195278842Y-88374500D01*
X195121158Y-88374500D01*
X195121155Y-88374500D01*
X194966510Y-88405261D01*
X194966498Y-88405264D01*
X194820827Y-88465602D01*
X194820814Y-88465609D01*
X194689711Y-88553210D01*
X194689707Y-88553213D01*
X194578212Y-88664708D01*
X194556339Y-88697443D01*
X194541675Y-88719390D01*
X194488065Y-88764194D01*
X194438574Y-88774499D01*
X153993471Y-88774499D01*
X153993455Y-88774498D01*
X153985859Y-88774498D01*
X153827745Y-88774498D01*
X153720389Y-88803264D01*
X153675012Y-88815423D01*
X153675011Y-88815424D01*
X153624898Y-88844358D01*
X153624897Y-88844359D01*
X153581491Y-88869419D01*
X153538087Y-88894478D01*
X153538084Y-88894480D01*
X153426280Y-89006285D01*
X150754692Y-91677872D01*
X150693369Y-91711357D01*
X150642820Y-91711808D01*
X150578325Y-91698979D01*
X150578321Y-91698979D01*
X150420637Y-91698979D01*
X150420634Y-91698979D01*
X150265989Y-91729740D01*
X150265977Y-91729743D01*
X150120306Y-91790081D01*
X150120293Y-91790088D01*
X149989190Y-91877689D01*
X149989186Y-91877692D01*
X149877692Y-91989186D01*
X149877689Y-91989190D01*
X149790088Y-92120293D01*
X149790081Y-92120306D01*
X149729743Y-92265977D01*
X149729740Y-92265989D01*
X149698979Y-92420632D01*
X149698979Y-92550382D01*
X149679294Y-92617421D01*
X149626490Y-92663176D01*
X149557332Y-92673120D01*
X149493776Y-92644095D01*
X149487298Y-92638063D01*
X148834574Y-91985339D01*
X148801089Y-91924016D01*
X148800638Y-91921849D01*
X148769738Y-91766510D01*
X148769737Y-91766503D01*
X148754510Y-91729742D01*
X148709397Y-91620827D01*
X148709390Y-91620814D01*
X148621789Y-91489711D01*
X148621786Y-91489707D01*
X148510292Y-91378213D01*
X148510288Y-91378210D01*
X148379185Y-91290609D01*
X148379172Y-91290602D01*
X148233501Y-91230264D01*
X148233489Y-91230261D01*
X148078845Y-91199500D01*
X148078842Y-91199500D01*
X147921158Y-91199500D01*
X147921155Y-91199500D01*
X147766510Y-91230261D01*
X147766498Y-91230264D01*
X147620827Y-91290602D01*
X147620814Y-91290609D01*
X147489711Y-91378210D01*
X147489707Y-91378213D01*
X147378213Y-91489707D01*
X147378210Y-91489711D01*
X147290609Y-91620814D01*
X147290602Y-91620827D01*
X147230264Y-91766498D01*
X147230261Y-91766510D01*
X147199500Y-91921153D01*
X121750500Y-91921153D01*
X121750500Y-90104604D01*
X121759939Y-90057151D01*
X121769737Y-90033497D01*
X121800500Y-89878842D01*
X121800500Y-89721158D01*
X121800500Y-89721155D01*
X121800499Y-89721153D01*
X121776400Y-89600000D01*
X121769737Y-89566503D01*
X121763957Y-89552548D01*
X121709397Y-89420827D01*
X121709390Y-89420814D01*
X121621789Y-89289711D01*
X121621786Y-89289707D01*
X121510292Y-89178213D01*
X121510288Y-89178210D01*
X121379185Y-89090609D01*
X121379172Y-89090602D01*
X121233501Y-89030264D01*
X121233489Y-89030261D01*
X121078845Y-88999500D01*
X121078842Y-88999500D01*
X120921158Y-88999500D01*
X120921155Y-88999500D01*
X120766510Y-89030261D01*
X120766498Y-89030264D01*
X120620827Y-89090602D01*
X120620814Y-89090609D01*
X120489711Y-89178210D01*
X120489707Y-89178213D01*
X120378213Y-89289707D01*
X120378210Y-89289711D01*
X120290609Y-89420814D01*
X120290602Y-89420827D01*
X120230264Y-89566498D01*
X120230261Y-89566510D01*
X120199500Y-89721153D01*
X120199500Y-89878846D01*
X120230261Y-90033489D01*
X120230263Y-90033497D01*
X120240061Y-90057151D01*
X120249500Y-90104604D01*
X120249500Y-93367059D01*
X120229815Y-93434098D01*
X120213181Y-93454740D01*
X120178213Y-93489707D01*
X120178210Y-93489711D01*
X120090609Y-93620814D01*
X120090602Y-93620827D01*
X120030264Y-93766498D01*
X120030261Y-93766510D01*
X119999500Y-93921153D01*
X116000500Y-93921153D01*
X116000500Y-86521153D01*
X138999500Y-86521153D01*
X138999500Y-86678846D01*
X139030261Y-86833489D01*
X139030264Y-86833501D01*
X139090602Y-86979172D01*
X139090609Y-86979185D01*
X139178210Y-87110288D01*
X139178213Y-87110292D01*
X139289707Y-87221786D01*
X139289711Y-87221789D01*
X139420814Y-87309390D01*
X139420827Y-87309397D01*
X139520060Y-87350500D01*
X139566503Y-87369737D01*
X139721153Y-87400499D01*
X139721156Y-87400500D01*
X139721158Y-87400500D01*
X139878844Y-87400500D01*
X139878845Y-87400499D01*
X139955152Y-87385320D01*
X140033488Y-87369739D01*
X140033489Y-87369738D01*
X140033497Y-87369737D01*
X140057155Y-87359937D01*
X140104604Y-87350500D01*
X182673920Y-87350500D01*
X182771462Y-87331096D01*
X182818913Y-87321658D01*
X182955495Y-87265084D01*
X183020291Y-87221789D01*
X183020294Y-87221786D01*
X183020296Y-87221786D01*
X183049547Y-87202240D01*
X183078416Y-87182952D01*
X184315297Y-85946069D01*
X184355524Y-85919191D01*
X184379179Y-85909394D01*
X184510289Y-85821789D01*
X184621789Y-85710289D01*
X184709394Y-85579179D01*
X184769737Y-85433497D01*
X184800500Y-85278842D01*
X184800500Y-85121158D01*
X184800500Y-85121155D01*
X184800499Y-85121153D01*
X184769738Y-84966510D01*
X184769737Y-84966503D01*
X184735855Y-84884703D01*
X184709397Y-84820827D01*
X184709390Y-84820814D01*
X184621789Y-84689711D01*
X184621786Y-84689707D01*
X184510292Y-84578213D01*
X184510288Y-84578210D01*
X184379185Y-84490609D01*
X184379172Y-84490602D01*
X184233501Y-84430264D01*
X184233489Y-84430261D01*
X184078845Y-84399500D01*
X184078842Y-84399500D01*
X183921158Y-84399500D01*
X183921155Y-84399500D01*
X183766510Y-84430261D01*
X183766498Y-84430264D01*
X183620827Y-84490602D01*
X183620814Y-84490609D01*
X183489711Y-84578210D01*
X183489707Y-84578213D01*
X183378213Y-84689707D01*
X183378207Y-84689715D01*
X183290607Y-84820818D01*
X183290606Y-84820819D01*
X183280805Y-84844480D01*
X183253927Y-84884703D01*
X182325451Y-85813181D01*
X182264128Y-85846666D01*
X182237770Y-85849500D01*
X140104604Y-85849500D01*
X140057155Y-85840062D01*
X140033497Y-85830263D01*
X140033493Y-85830262D01*
X140033488Y-85830260D01*
X139878845Y-85799500D01*
X139878842Y-85799500D01*
X139721158Y-85799500D01*
X139721155Y-85799500D01*
X139566510Y-85830261D01*
X139566498Y-85830264D01*
X139420827Y-85890602D01*
X139420814Y-85890609D01*
X139289711Y-85978210D01*
X139289707Y-85978213D01*
X139178213Y-86089707D01*
X139178210Y-86089711D01*
X139090609Y-86220814D01*
X139090602Y-86220827D01*
X139030264Y-86366498D01*
X139030261Y-86366510D01*
X138999500Y-86521153D01*
X116000500Y-86521153D01*
X116000500Y-83321153D01*
X190199500Y-83321153D01*
X190199500Y-83478846D01*
X190230261Y-83633489D01*
X190230264Y-83633501D01*
X190290602Y-83779172D01*
X190290609Y-83779185D01*
X190378210Y-83910288D01*
X190378213Y-83910292D01*
X190489707Y-84021786D01*
X190489711Y-84021789D01*
X190620814Y-84109390D01*
X190620827Y-84109397D01*
X190720060Y-84150500D01*
X190766503Y-84169737D01*
X190921153Y-84200499D01*
X190921156Y-84200500D01*
X190921158Y-84200500D01*
X191078844Y-84200500D01*
X191078845Y-84200499D01*
X191155152Y-84185320D01*
X191233488Y-84169739D01*
X191233489Y-84169738D01*
X191233497Y-84169737D01*
X191257155Y-84159937D01*
X191304604Y-84150500D01*
X196895396Y-84150500D01*
X196942844Y-84159937D01*
X196966503Y-84169737D01*
X196966508Y-84169738D01*
X196966511Y-84169739D01*
X197121153Y-84200499D01*
X197121156Y-84200500D01*
X197121158Y-84200500D01*
X197278844Y-84200500D01*
X197278845Y-84200499D01*
X197433497Y-84169737D01*
X197579179Y-84109394D01*
X197710289Y-84021789D01*
X197821789Y-83910289D01*
X197909394Y-83779179D01*
X197969737Y-83633497D01*
X198000500Y-83478842D01*
X198000500Y-83321158D01*
X198000500Y-83321155D01*
X198000499Y-83321153D01*
X197969738Y-83166510D01*
X197969737Y-83166503D01*
X197969735Y-83166498D01*
X197909397Y-83020827D01*
X197909390Y-83020814D01*
X197821789Y-82889711D01*
X197821786Y-82889707D01*
X197710292Y-82778213D01*
X197710288Y-82778210D01*
X197579185Y-82690609D01*
X197579172Y-82690602D01*
X197433501Y-82630264D01*
X197433489Y-82630261D01*
X197278845Y-82599500D01*
X197278842Y-82599500D01*
X197121158Y-82599500D01*
X197121155Y-82599500D01*
X196966511Y-82630260D01*
X196966506Y-82630262D01*
X196966504Y-82630262D01*
X196966503Y-82630263D01*
X196942844Y-82640062D01*
X196895396Y-82649500D01*
X191304604Y-82649500D01*
X191257155Y-82640062D01*
X191233497Y-82630263D01*
X191233493Y-82630262D01*
X191233488Y-82630260D01*
X191078845Y-82599500D01*
X191078842Y-82599500D01*
X190921158Y-82599500D01*
X190921155Y-82599500D01*
X190766510Y-82630261D01*
X190766498Y-82630264D01*
X190620827Y-82690602D01*
X190620814Y-82690609D01*
X190489711Y-82778210D01*
X190489707Y-82778213D01*
X190378213Y-82889707D01*
X190378210Y-82889711D01*
X190290609Y-83020814D01*
X190290602Y-83020827D01*
X190230264Y-83166498D01*
X190230261Y-83166510D01*
X190199500Y-83321153D01*
X116000500Y-83321153D01*
X116000500Y-80002561D01*
X116000606Y-79997437D01*
X116001401Y-79978210D01*
X116004896Y-79893713D01*
X119649500Y-79893713D01*
X119649500Y-80106286D01*
X119668423Y-80225765D01*
X119682754Y-80316243D01*
X119743554Y-80503366D01*
X119748444Y-80518414D01*
X119844951Y-80707820D01*
X119969890Y-80879786D01*
X120120213Y-81030109D01*
X120292179Y-81155048D01*
X120292181Y-81155049D01*
X120292184Y-81155051D01*
X120481588Y-81251557D01*
X120683757Y-81317246D01*
X120893713Y-81350500D01*
X120893714Y-81350500D01*
X121106286Y-81350500D01*
X121106287Y-81350500D01*
X121316243Y-81317246D01*
X121518412Y-81251557D01*
X121707816Y-81155051D01*
X121769426Y-81110289D01*
X121879786Y-81030109D01*
X121879788Y-81030106D01*
X121879792Y-81030104D01*
X122030104Y-80879792D01*
X122030106Y-80879788D01*
X122030109Y-80879786D01*
X122155048Y-80707820D01*
X122155047Y-80707820D01*
X122155051Y-80707816D01*
X122251557Y-80518412D01*
X122317246Y-80316243D01*
X122350500Y-80106287D01*
X122350500Y-79893713D01*
X122317246Y-79683757D01*
X122251557Y-79481588D01*
X122155051Y-79292184D01*
X122079322Y-79187951D01*
X122079321Y-79187948D01*
X122030791Y-79121153D01*
X165199500Y-79121153D01*
X165199500Y-79278846D01*
X165230261Y-79433489D01*
X165230264Y-79433501D01*
X165290602Y-79579172D01*
X165290609Y-79579185D01*
X165378210Y-79710288D01*
X165378213Y-79710292D01*
X165489710Y-79821789D01*
X165591706Y-79889940D01*
X165620821Y-79909394D01*
X165644475Y-79919191D01*
X165684703Y-79946071D01*
X166921578Y-81182947D01*
X166921585Y-81182953D01*
X166979704Y-81221786D01*
X166979706Y-81221787D01*
X166979709Y-81221789D01*
X167044505Y-81265084D01*
X167044506Y-81265084D01*
X167044507Y-81265085D01*
X167151469Y-81309390D01*
X167181087Y-81321658D01*
X167181091Y-81321658D01*
X167181092Y-81321659D01*
X167326079Y-81350500D01*
X167326082Y-81350500D01*
X167326083Y-81350500D01*
X167473917Y-81350500D01*
X175695396Y-81350500D01*
X175742844Y-81359937D01*
X175766503Y-81369737D01*
X175766508Y-81369738D01*
X175766511Y-81369739D01*
X175921153Y-81400499D01*
X175921156Y-81400500D01*
X175921158Y-81400500D01*
X176078844Y-81400500D01*
X176078845Y-81400499D01*
X176233497Y-81369737D01*
X176349576Y-81321656D01*
X176379172Y-81309397D01*
X176379172Y-81309396D01*
X176379179Y-81309394D01*
X176510289Y-81221789D01*
X176621789Y-81110289D01*
X176709394Y-80979179D01*
X176769737Y-80833497D01*
X176800500Y-80678842D01*
X176800500Y-80521158D01*
X176800500Y-80521155D01*
X176800499Y-80521153D01*
X176796961Y-80503365D01*
X176769737Y-80366503D01*
X176748917Y-80316239D01*
X176709397Y-80220827D01*
X176709390Y-80220814D01*
X176624861Y-80094308D01*
X176621789Y-80089711D01*
X176621786Y-80089707D01*
X176563583Y-80031504D01*
X188750000Y-80031504D01*
X188750000Y-80430000D01*
X189450000Y-80430000D01*
X189450000Y-80930000D01*
X188750000Y-80930000D01*
X188750000Y-81328495D01*
X188788427Y-81521681D01*
X188788430Y-81521693D01*
X188863807Y-81703671D01*
X188863814Y-81703684D01*
X188973248Y-81867462D01*
X188973251Y-81867466D01*
X189112533Y-82006748D01*
X189112537Y-82006751D01*
X189276315Y-82116185D01*
X189276328Y-82116192D01*
X189458308Y-82191569D01*
X189500000Y-82199862D01*
X189500000Y-81396988D01*
X189509940Y-81414205D01*
X189565795Y-81470060D01*
X189634204Y-81509556D01*
X189710504Y-81530000D01*
X189789496Y-81530000D01*
X189865796Y-81509556D01*
X189934205Y-81470060D01*
X189990060Y-81414205D01*
X190000000Y-81396988D01*
X190000000Y-82199862D01*
X190041690Y-82191569D01*
X190041692Y-82191569D01*
X190223671Y-82116192D01*
X190223684Y-82116185D01*
X190387462Y-82006751D01*
X190387466Y-82006748D01*
X190526748Y-81867466D01*
X190526751Y-81867462D01*
X190636185Y-81703684D01*
X190636192Y-81703671D01*
X190711569Y-81521693D01*
X190711572Y-81521681D01*
X190749999Y-81328495D01*
X190750000Y-81328492D01*
X190750000Y-80930000D01*
X190050000Y-80930000D01*
X190050000Y-80430000D01*
X190605536Y-80430000D01*
X190672575Y-80449685D01*
X190712923Y-80492000D01*
X190719482Y-80503361D01*
X190719484Y-80503364D01*
X190719485Y-80503365D01*
X190826635Y-80610515D01*
X190957865Y-80686281D01*
X191104234Y-80725500D01*
X191104236Y-80725500D01*
X191255764Y-80725500D01*
X191255766Y-80725500D01*
X191402135Y-80686281D01*
X191533365Y-80610515D01*
X191640515Y-80503365D01*
X191716281Y-80372135D01*
X191755500Y-80225766D01*
X191755500Y-80074234D01*
X196384500Y-80074234D01*
X196384500Y-80225765D01*
X196423719Y-80372136D01*
X196461602Y-80437750D01*
X196499485Y-80503365D01*
X196606635Y-80610515D01*
X196737865Y-80686281D01*
X196884234Y-80725500D01*
X196884236Y-80725500D01*
X197035764Y-80725500D01*
X197035766Y-80725500D01*
X197182135Y-80686281D01*
X197313365Y-80610515D01*
X197420515Y-80503365D01*
X197427077Y-80492000D01*
X197477644Y-80443784D01*
X197534464Y-80430000D01*
X198090000Y-80430000D01*
X198090000Y-80930000D01*
X197390000Y-80930000D01*
X197390000Y-81328495D01*
X197428427Y-81521681D01*
X197428430Y-81521693D01*
X197503807Y-81703671D01*
X197503814Y-81703684D01*
X197613248Y-81867462D01*
X197613251Y-81867466D01*
X197752533Y-82006748D01*
X197752537Y-82006751D01*
X197916315Y-82116185D01*
X197916328Y-82116192D01*
X198098308Y-82191569D01*
X198140000Y-82199862D01*
X198140000Y-81396988D01*
X198149940Y-81414205D01*
X198205795Y-81470060D01*
X198274204Y-81509556D01*
X198350504Y-81530000D01*
X198429496Y-81530000D01*
X198505796Y-81509556D01*
X198574205Y-81470060D01*
X198630060Y-81414205D01*
X198640000Y-81396988D01*
X198640000Y-82199862D01*
X198681690Y-82191569D01*
X198681692Y-82191569D01*
X198863671Y-82116192D01*
X198863684Y-82116185D01*
X199027462Y-82006751D01*
X199027466Y-82006748D01*
X199166748Y-81867466D01*
X199166751Y-81867462D01*
X199276185Y-81703684D01*
X199276192Y-81703671D01*
X199351569Y-81521693D01*
X199351572Y-81521681D01*
X199389999Y-81328495D01*
X199390000Y-81328492D01*
X199390000Y-80930000D01*
X198690000Y-80930000D01*
X198690000Y-80430000D01*
X199390000Y-80430000D01*
X199390000Y-80031508D01*
X199389999Y-80031504D01*
X199366434Y-79913032D01*
X199362591Y-79893713D01*
X203649500Y-79893713D01*
X203649500Y-80106286D01*
X203668423Y-80225765D01*
X203682754Y-80316243D01*
X203743554Y-80503366D01*
X203748444Y-80518414D01*
X203844951Y-80707820D01*
X203969890Y-80879786D01*
X204120213Y-81030109D01*
X204292179Y-81155048D01*
X204292181Y-81155049D01*
X204292184Y-81155051D01*
X204481588Y-81251557D01*
X204683757Y-81317246D01*
X204893713Y-81350500D01*
X204893714Y-81350500D01*
X205106286Y-81350500D01*
X205106287Y-81350500D01*
X205316243Y-81317246D01*
X205518412Y-81251557D01*
X205707816Y-81155051D01*
X205769426Y-81110289D01*
X205879786Y-81030109D01*
X205879788Y-81030106D01*
X205879792Y-81030104D01*
X206030104Y-80879792D01*
X206030106Y-80879788D01*
X206030109Y-80879786D01*
X206155048Y-80707820D01*
X206155047Y-80707820D01*
X206155051Y-80707816D01*
X206251557Y-80518412D01*
X206317246Y-80316243D01*
X206350500Y-80106287D01*
X206350500Y-79893713D01*
X206317246Y-79683757D01*
X206251557Y-79481588D01*
X206155051Y-79292184D01*
X206155049Y-79292181D01*
X206155048Y-79292179D01*
X206030109Y-79120213D01*
X205879786Y-78969890D01*
X205707820Y-78844951D01*
X205518414Y-78748444D01*
X205518413Y-78748443D01*
X205518412Y-78748443D01*
X205316243Y-78682754D01*
X205316241Y-78682753D01*
X205316240Y-78682753D01*
X205154957Y-78657208D01*
X205106287Y-78649500D01*
X204893713Y-78649500D01*
X204845042Y-78657208D01*
X204683760Y-78682753D01*
X204481585Y-78748444D01*
X204292179Y-78844951D01*
X204120213Y-78969890D01*
X203969890Y-79120213D01*
X203844951Y-79292179D01*
X203748444Y-79481585D01*
X203682753Y-79683760D01*
X203649500Y-79893713D01*
X199362591Y-79893713D01*
X199351572Y-79838317D01*
X199351569Y-79838306D01*
X199276192Y-79656328D01*
X199276185Y-79656315D01*
X199166751Y-79492537D01*
X199166748Y-79492533D01*
X199027466Y-79353251D01*
X199027462Y-79353248D01*
X198863684Y-79243814D01*
X198863671Y-79243807D01*
X198681691Y-79168429D01*
X198681683Y-79168427D01*
X198640000Y-79160135D01*
X198640000Y-79963011D01*
X198630060Y-79945795D01*
X198574205Y-79889940D01*
X198505796Y-79850444D01*
X198429496Y-79830000D01*
X198350504Y-79830000D01*
X198274204Y-79850444D01*
X198205795Y-79889940D01*
X198149940Y-79945795D01*
X198140000Y-79963011D01*
X198140000Y-79160136D01*
X198139999Y-79160135D01*
X198098316Y-79168427D01*
X198098308Y-79168429D01*
X197916328Y-79243807D01*
X197916315Y-79243814D01*
X197752537Y-79353248D01*
X197752533Y-79353251D01*
X197613248Y-79492536D01*
X197500427Y-79661387D01*
X197499003Y-79660435D01*
X197455742Y-79704451D01*
X197387600Y-79719892D01*
X197321927Y-79696041D01*
X197319907Y-79694306D01*
X197319811Y-79694432D01*
X197313367Y-79689487D01*
X197313365Y-79689485D01*
X197247750Y-79651602D01*
X197182136Y-79613719D01*
X197108950Y-79594109D01*
X197035766Y-79574500D01*
X196884234Y-79574500D01*
X196737863Y-79613719D01*
X196606635Y-79689485D01*
X196606632Y-79689487D01*
X196499487Y-79796632D01*
X196499485Y-79796635D01*
X196423719Y-79927863D01*
X196384500Y-80074234D01*
X191755500Y-80074234D01*
X191716281Y-79927865D01*
X191711272Y-79919190D01*
X191690792Y-79883717D01*
X191640515Y-79796635D01*
X191533365Y-79689485D01*
X191467750Y-79651602D01*
X191402136Y-79613719D01*
X191328950Y-79594109D01*
X191255766Y-79574500D01*
X191104234Y-79574500D01*
X190957863Y-79613719D01*
X190826635Y-79689485D01*
X190820189Y-79694432D01*
X190818099Y-79691709D01*
X190770217Y-79717466D01*
X190700558Y-79712043D01*
X190644888Y-79669821D01*
X190639299Y-79660976D01*
X190526751Y-79492537D01*
X190526748Y-79492533D01*
X190387466Y-79353251D01*
X190387462Y-79353248D01*
X190223684Y-79243814D01*
X190223671Y-79243807D01*
X190041691Y-79168429D01*
X190041683Y-79168427D01*
X190000000Y-79160135D01*
X190000000Y-79963011D01*
X189990060Y-79945795D01*
X189934205Y-79889940D01*
X189865796Y-79850444D01*
X189789496Y-79830000D01*
X189710504Y-79830000D01*
X189634204Y-79850444D01*
X189565795Y-79889940D01*
X189509940Y-79945795D01*
X189500000Y-79963011D01*
X189500000Y-79160136D01*
X189499999Y-79160135D01*
X189458316Y-79168427D01*
X189458308Y-79168429D01*
X189276328Y-79243807D01*
X189276315Y-79243814D01*
X189112537Y-79353248D01*
X189112533Y-79353251D01*
X188973251Y-79492533D01*
X188973248Y-79492537D01*
X188863814Y-79656315D01*
X188863807Y-79656328D01*
X188788430Y-79838306D01*
X188788427Y-79838318D01*
X188750000Y-80031504D01*
X176563583Y-80031504D01*
X176510292Y-79978213D01*
X176510288Y-79978210D01*
X176379185Y-79890609D01*
X176379172Y-79890602D01*
X176233501Y-79830264D01*
X176233489Y-79830261D01*
X176078845Y-79799500D01*
X176078842Y-79799500D01*
X175921158Y-79799500D01*
X175921155Y-79799500D01*
X175766511Y-79830260D01*
X175766506Y-79830262D01*
X175766504Y-79830262D01*
X175766503Y-79830263D01*
X175742844Y-79840062D01*
X175695396Y-79849500D01*
X167762230Y-79849500D01*
X167695191Y-79829815D01*
X167674549Y-79813181D01*
X166746071Y-78884703D01*
X166719191Y-78844475D01*
X166709394Y-78820821D01*
X166673952Y-78767778D01*
X166621789Y-78689710D01*
X166510292Y-78578213D01*
X166510288Y-78578210D01*
X166379185Y-78490609D01*
X166379172Y-78490602D01*
X166233501Y-78430264D01*
X166233489Y-78430261D01*
X166078845Y-78399500D01*
X166078842Y-78399500D01*
X165921158Y-78399500D01*
X165921155Y-78399500D01*
X165766510Y-78430261D01*
X165766498Y-78430264D01*
X165620827Y-78490602D01*
X165620814Y-78490609D01*
X165489711Y-78578210D01*
X165489707Y-78578213D01*
X165378213Y-78689707D01*
X165378210Y-78689711D01*
X165290609Y-78820814D01*
X165290602Y-78820827D01*
X165230264Y-78966498D01*
X165230261Y-78966510D01*
X165199500Y-79121153D01*
X122030791Y-79121153D01*
X122030109Y-79120214D01*
X122030105Y-79120209D01*
X121879786Y-78969890D01*
X121707820Y-78844951D01*
X121518414Y-78748444D01*
X121518413Y-78748443D01*
X121518412Y-78748443D01*
X121316243Y-78682754D01*
X121316241Y-78682753D01*
X121316240Y-78682753D01*
X121154957Y-78657208D01*
X121106287Y-78649500D01*
X120893713Y-78649500D01*
X120845042Y-78657208D01*
X120683760Y-78682753D01*
X120481585Y-78748444D01*
X120292179Y-78844951D01*
X120120213Y-78969890D01*
X119969890Y-79120213D01*
X119844951Y-79292179D01*
X119748444Y-79481585D01*
X119682753Y-79683760D01*
X119649500Y-79893713D01*
X116004896Y-79893713D01*
X116017364Y-79592251D01*
X116018207Y-79582082D01*
X116068055Y-79182178D01*
X116069736Y-79172102D01*
X116152433Y-78777699D01*
X116154941Y-78767797D01*
X116269930Y-78381555D01*
X116273245Y-78371902D01*
X116419733Y-77996485D01*
X116423839Y-77987125D01*
X116600817Y-77625111D01*
X116605690Y-77616105D01*
X116683279Y-77485894D01*
X116811973Y-77269918D01*
X116817556Y-77261372D01*
X117051728Y-76933394D01*
X117057996Y-76925342D01*
X117318448Y-76617826D01*
X117325362Y-76610316D01*
X117610316Y-76325362D01*
X117617832Y-76318443D01*
X117925342Y-76057996D01*
X117933394Y-76051728D01*
X118261372Y-75817556D01*
X118269918Y-75811973D01*
X118616113Y-75605685D01*
X118625111Y-75600817D01*
X118987125Y-75423839D01*
X118996485Y-75419733D01*
X119371902Y-75273245D01*
X119381555Y-75269930D01*
X119767797Y-75154941D01*
X119777699Y-75152433D01*
X120172102Y-75069736D01*
X120182178Y-75068055D01*
X120582082Y-75018207D01*
X120592251Y-75017364D01*
X120997437Y-75000605D01*
X121002561Y-75000500D01*
X121065892Y-75000500D01*
X189409333Y-75000500D01*
X189476372Y-75020185D01*
G37*
%TD.AperFunction*%
%TD*%
M02*
