M48
; DRILL file {KiCad 9.0.7} date 2026-02-16T21:50:02-0500
; FORMAT={-:-/ absolute / metric / decimal}
; #@! TF.CreationDate,2026-02-16T21:50:02-05:00
; #@! TF.GenerationSoftware,Kicad,Pcbnew,9.0.7
; #@! TF.FileFunction,MixedPlating,1,2
FMAT,2
METRIC
; #@! TA.AperFunction,Plated,PTH,ComponentDrill
T1C0.200
; #@! TA.AperFunction,Plated,PTH,ViaDrill
T2C0.300
; #@! TA.AperFunction,Plated,PTH,ComponentDrill
T3C0.600
; #@! TA.AperFunction,NonPlated,NPTH,ComponentDrill
T4C0.650
; #@! TA.AperFunction,NonPlated,NPTH,ComponentDrill
T5C2.200
%
G90
G05
T1
X159.692Y-82.805
X159.692Y-84.205
X160.392Y-82.105
X160.392Y-83.505
X160.392Y-84.905
X161.093Y-82.805
X161.093Y-84.205
X161.792Y-82.105
X161.792Y-83.505
X161.792Y-84.905
X162.493Y-82.805
X162.493Y-84.205
T2
X120.8Y-94.0
X121.0Y-89.8
X129.6Y-88.6
X129.6Y-93.4
X129.8Y-92.0
X134.6Y-103.0
X135.0Y-108.4
X135.0Y-113.4
X137.8Y-90.0
X138.0Y-103.6
X138.0Y-108.2
X138.6Y-92.2
X139.8Y-86.6
X141.2Y-103.6
X141.2Y-108.4
X141.8Y-89.4
X142.8Y-100.0
X143.25Y-79.0
X145.0Y-75.75
X147.5Y-80.0
X148.0Y-92.0
X148.25Y-75.5
X150.499Y-92.499
X151.101Y-93.101
X152.25Y-75.75
X152.75Y-101.75
X153.0Y-108.6
X153.0Y-110.75
X157.4Y-105.5
X158.25Y-107.0
X158.5Y-108.5
X159.0Y-113.75
X159.75Y-105.0
X160.75Y-111.5
X162.25Y-108.5
X162.5Y-101.0
X162.6Y-120.2
X164.0Y-105.5
X166.0Y-79.2
X168.25Y-106.0
X168.25Y-107.75
X172.5Y-101.75
X173.0Y-75.6
X176.0Y-80.6
X182.2Y-79.2
X182.4Y-100.0
X184.0Y-85.2
X184.0Y-92.6
X189.6Y-87.8
X191.0Y-83.4
X195.2Y-89.175
X195.2Y-90.025
X197.2Y-83.4
X198.2Y-93.4
X198.6Y-87.8
T4
X191.18Y-80.15
X196.96Y-80.15
T5
X121.0Y-80.0
X121.0Y-117.0
X205.0Y-80.0
X205.0Y-117.0
T3
G00X189.75Y-76.8
M15
G01X189.75Y-76.2
M16
G05
G00X189.75Y-81.23
M15
G01X189.75Y-80.13
M16
G05
G00X198.39Y-76.8
M15
G01X198.39Y-76.2
M16
G05
G00X198.39Y-81.23
M15
G01X198.39Y-80.13
M16
G05
M30
