#VRML V2.0 utf8

Shape {
  appearance Appearance {
    material Material {
      diffuseColor 1.0000 1.0000 1.0000
      specularColor 0.5020 0.5020 0.5020
      ambientIntensity 0.2
      transparency 0.0000
      shininess 0.5
    }
  }
  geometry IndexedFaceSet {
    ccw TRUE
    solid FALSE
    coord DEF co Coordinate {
      point [
        0.451168 0.220295 0.248031,
        0.464885 0.291339 0.248031,
        -0.464885 0.291339 0.248031,
        -0.464885 -0.291339 0.248031,
        0.464885 -0.291339 0.248031,
        0.451168 -0.220295 0.248031,
        0.439595 -0.132557 0.248031,
        0.436727 -0.099286 0.248031,
        0.134977 -0.099286 0.248031,
        0.134977 0.099286 0.248031,
        -0.451168 0.220295 0.248031,
        -0.439595 0.132557 0.248031,
        -0.433796 0.044249 0.248031,
        -0.433796 -0.044249 0.248031,
        -0.439595 -0.132557 0.248031,
        0.439595 0.132557 0.248031,
        0.436727 0.099286 0.248031,
        -0.451168 -0.220295 0.248031,
        -0.451889 -0.307087 -0.178427,
        -0.465217 -0.307087 -0.232283,
        0.465217 -0.307087 -0.232283,
        -0.439861 -0.307087 -0.107563,
        0.451889 -0.307087 -0.178427,
        -0.433826 -0.307087 -0.035939,
        0.439861 -0.307087 -0.107563,
        0.433826 -0.307087 -0.035939,
        -0.433826 -0.307087 0.035939,
        0.433826 -0.307087 0.035939,
        -0.439861 -0.307087 0.107563,
        -0.451889 -0.307087 0.178427,
        0.439861 -0.307087 0.107563,
        -0.465217 -0.307087 0.232283,
        0.451889 -0.307087 0.178427,
        0.465217 -0.307087 0.232283,
        0.468465 -0.307087 -0.243498,
        0.468465 -0.307087 -0.253796,
        0.469825 -0.307087 -0.248031,
        0.469825 -0.307087 -0.253796,
        0.469825 -0.307087 0.253796,
        0.468465 -0.307087 0.253796,
        0.469825 -0.307087 0.248031,
        0.468465 -0.307087 0.243498,
        -0.469825 -0.307087 -0.253796,
        -0.468465 -0.307087 -0.253796,
        -0.469825 -0.307087 -0.248031,
        -0.468465 -0.307087 -0.243498,
        0.469825 0.307087 -0.253796,
        0.468465 0.307087 -0.253796,
        0.469825 0.307087 -0.248031,
        0.468465 0.307087 -0.243498,
        -0.439861 0.307087 -0.107563,
        0.465217 0.307087 -0.232283,
        -0.451889 0.307087 -0.178427,
        -0.465217 0.307087 -0.232283,
        0.439861 0.307087 0.107563,
        -0.465217 0.307087 0.232283,
        0.451889 0.307087 0.178427,
        0.465217 0.307087 0.232283,
        0.433826 0.307087 0.035939,
        0.433826 0.307087 -0.035939,
        -0.433826 0.307087 -0.035939,
        0.439861 0.307087 -0.107563,
        0.451889 0.307087 -0.178427,
        -0.433826 0.307087 0.035939,
        -0.439861 0.307087 0.107563,
        -0.451889 0.307087 0.178427,
        -0.468465 0.307087 -0.243498,
        -0.468465 0.307087 -0.253796,
        -0.469825 0.307087 -0.248031,
        -0.469825 0.307087 -0.253796,
        0.468465 0.307087 0.243498,
        0.468465 0.307087 0.253796,
        0.469825 0.307087 0.248031,
        0.469825 0.307087 0.253796,
        0.433796 -0.044249 -0.248031,
        0.439595 -0.132557 -0.248031,
        -0.015108 -0.291339 -0.248031,
        0.451168 -0.220295 -0.248031,
        0.464885 -0.291339 -0.248031,
        0.047694 0.018674 -0.248031,
        0.053509 0.018021 -0.248031,
        0.034923 -0.025663 -0.248031,
        -0.007906 0.017954 -0.248031,
        0.014420 0.017954 -0.248031,
        0.014420 -0.001491 -0.248031,
        -0.006466 -0.001491 -0.248031,
        -0.006466 -0.007973 -0.248031,
        -0.015108 -0.034980 -0.248031,
        0.067866 -0.029582 -0.248031,
        0.072302 -0.024912 -0.248031,
        0.082837 -0.034620 -0.248031,
        0.053587 -0.034980 -0.248031,
        0.113085 -0.034620 -0.248031,
        0.040517 0.017741 -0.248031,
        0.033865 -0.025077 -0.248031,
        0.033865 0.014893 -0.248031,
        -0.007906 0.024435 -0.248031,
        -0.015108 0.291339 -0.248031,
        0.022342 0.024435 -0.248031,
        0.464885 0.291339 -0.248031,
        0.113085 0.024435 -0.248031,
        0.105163 0.024435 -0.248031,
        0.074679 0.008881 -0.248031,
        0.071218 0.014402 -0.248031,
        0.065886 0.019530 -0.248031,
        0.060277 0.022759 -0.248031,
        0.082837 -0.028138 -0.248031,
        0.075447 -0.019296 -0.248031,
        0.105163 -0.028138 -0.248031,
        0.053693 0.024671 -0.248031,
        0.047762 0.025156 -0.248031,
        0.040692 0.024668 -0.248031,
        0.033865 0.022815 -0.248031,
        0.022342 -0.034620 -0.248031,
        0.033865 -0.031559 -0.248031,
        0.057391 -0.034585 -0.248031,
        0.063115 -0.032615 -0.248031,
        0.451168 0.220295 -0.248031,
        0.439595 0.132557 -0.248031,
        0.057930 0.016426 -0.248031,
        0.062017 0.013691 -0.248031,
        0.065583 0.009754 -0.248031,
        0.069874 -0.005722 -0.248031,
        0.069276 -0.012115 -0.248031,
        0.067671 -0.017195 -0.248031,
        0.054530 -0.028241 -0.248031,
        0.049022 -0.028858 -0.248031,
        0.058833 -0.026656 -0.248031,
        0.062458 -0.024213 -0.248031,
        0.065229 -0.021290 -0.248031,
        0.041183 -0.027988 -0.248031,
        0.077225 -0.013046 -0.248031,
        0.077796 -0.006206 -0.248031,
        0.076946 0.002190 -0.248031,
        0.068018 0.005194 -0.248031,
        0.069592 -0.001128 -0.248031,
        0.014420 -0.007973 -0.248031,
        0.014420 -0.028138 -0.248031,
        -0.009346 -0.028138 -0.248031,
        -0.009346 -0.034620 -0.248031,
        0.046127 -0.034980 -0.248031,
        0.040159 -0.034144 -0.248031,
        0.048499 -0.035312 -0.248031,
        0.050114 -0.035340 -0.248031,
        0.433796 -0.034980 -0.248031,
        0.433796 0.044249 -0.248031,
        -0.095048 0.024435 -0.248031,
        -0.464885 0.291339 -0.248031,
        -0.102970 0.024435 -0.248031,
        -0.451168 0.220295 -0.248031,
        -0.439595 0.132557 -0.248031,
        -0.117374 -0.034620 -0.248031,
        -0.126017 -0.034620 -0.248031,
        -0.433796 -0.034980 -0.248031,
        -0.433796 0.044249 -0.248031,
        -0.036927 -0.034620 -0.248031,
        -0.020869 -0.034620 -0.248031,
        -0.020869 0.024435 -0.248031,
        -0.037535 0.024435 -0.248031,
        -0.059466 0.016735 -0.248031,
        -0.063642 0.012105 -0.248031,
        -0.066386 0.007026 -0.248031,
        -0.072723 -0.034620 -0.248031,
        -0.065453 -0.018434 -0.248031,
        -0.062066 -0.023716 -0.248031,
        -0.046067 0.023523 -0.248031,
        -0.052976 0.021097 -0.248031,
        -0.059404 0.016789 -0.248031,
        -0.057205 -0.028370 -0.248031,
        -0.051039 -0.031954 -0.248031,
        -0.044234 -0.033982 -0.248031,
        -0.081365 -0.034620 -0.248031,
        -0.087003 -0.018056 -0.248031,
        -0.111399 -0.018056 -0.248031,
        -0.067972 0.001207 -0.248031,
        -0.068402 -0.004350 -0.248031,
        -0.067573 -0.012253 -0.248031,
        -0.464885 -0.291339 -0.248031,
        -0.451168 -0.220295 -0.248031,
        -0.439595 -0.132557 -0.248031,
        -0.433796 -0.044249 -0.248031,
      ]
    }
    coordIndex [
      0, 1, 2, -1,
      3, 4, 5, -1,
      6, 7, 8, -1,
      9, 2, 10, -1,
      10, 11, 9, -1,
      9, 11, 12, -1,
      9, 12, 8, -1,
      8, 12, 13, -1,
      8, 13, 14, -1,
      0, 2, 15, -1,
      15, 2, 9, -1,
      15, 9, 16, -1,
      5, 6, 3, -1,
      3, 6, 8, -1,
      3, 8, 17, -1,
      17, 8, 14, -1,
      18, 19, 20, -1,
      18, 20, 21, -1,
      21, 20, 22, -1,
      21, 22, 23, -1,
      22, 24, 23, -1,
      23, 24, 25, -1,
      23, 25, 26, -1,
      26, 25, 27, -1,
      26, 27, 28, -1,
      28, 27, 29, -1,
      29, 27, 30, -1,
      29, 30, 31, -1,
      31, 30, 32, -1,
      31, 32, 33, -1,
      34, 35, 36, -1,
      36, 35, 37, -1,
      38, 39, 40, -1,
      40, 39, 41, -1,
      42, 43, 44, -1,
      44, 43, 45, -1,
      46, 47, 48, -1,
      48, 47, 49, -1,
      50, 51, 52, -1,
      52, 51, 53, -1,
      54, 55, 56, -1,
      56, 55, 57, -1,
      58, 59, 60, -1,
      60, 59, 61, -1,
      60, 61, 50, -1,
      50, 61, 62, -1,
      50, 62, 51, -1,
      60, 63, 58, -1,
      58, 63, 64, -1,
      58, 64, 54, -1,
      54, 64, 65, -1,
      54, 65, 55, -1,
      66, 67, 68, -1,
      68, 67, 69, -1,
      70, 71, 72, -1,
      72, 71, 73, -1,
      74, 75, 76, -1,
      76, 75, 77, -1,
      76, 77, 78, -1,
      79, 80, 81, -1,
      82, 83, 84, -1,
      85, 86, 87, -1,
      88, 89, 90, -1,
      91, 90, 92, -1,
      79, 81, 93, -1,
      93, 81, 94, -1,
      93, 94, 95, -1,
      84, 85, 82, -1,
      82, 85, 87, -1,
      82, 87, 96, -1,
      96, 87, 97, -1,
      96, 97, 98, -1,
      98, 97, 99, -1,
      99, 100, 101, -1,
      102, 103, 101, -1,
      101, 103, 104, -1,
      101, 104, 105, -1,
      90, 89, 106, -1,
      106, 89, 107, -1,
      106, 107, 108, -1,
      105, 109, 101, -1,
      101, 109, 110, -1,
      101, 110, 99, -1,
      99, 110, 111, -1,
      99, 111, 98, -1,
      111, 112, 98, -1,
      98, 112, 95, -1,
      98, 95, 113, -1,
      113, 95, 94, -1,
      113, 94, 114, -1,
      91, 115, 90, -1,
      90, 115, 116, -1,
      90, 116, 88, -1,
      100, 99, 92, -1,
      92, 99, 117, -1,
      92, 117, 118, -1,
      80, 119, 81, -1,
      81, 119, 120, -1,
      81, 120, 121, -1,
      122, 123, 81, -1,
      81, 123, 124, -1,
      125, 126, 127, -1,
      127, 126, 128, -1,
      124, 129, 81, -1,
      81, 129, 128, -1,
      81, 128, 130, -1,
      130, 128, 126, -1,
      107, 131, 108, -1,
      108, 131, 132, -1,
      108, 132, 101, -1,
      101, 132, 133, -1,
      101, 133, 102, -1,
      121, 134, 81, -1,
      81, 134, 135, -1,
      81, 135, 122, -1,
      136, 137, 86, -1,
      86, 137, 138, -1,
      86, 138, 87, -1,
      87, 138, 139, -1,
      87, 139, 113, -1,
      76, 87, 140, -1,
      140, 87, 113, -1,
      140, 113, 141, -1,
      141, 113, 114, -1,
      140, 142, 76, -1,
      76, 142, 143, -1,
      76, 143, 74, -1,
      74, 143, 91, -1,
      74, 91, 144, -1,
      144, 91, 92, -1,
      144, 92, 145, -1,
      145, 92, 118, -1,
      97, 146, 147, -1,
      147, 146, 148, -1,
      147, 148, 149, -1,
      149, 148, 150, -1,
      151, 87, 152, -1,
      152, 87, 153, -1,
      152, 153, 148, -1,
      148, 153, 154, -1,
      148, 154, 150, -1,
      155, 156, 87, -1,
      87, 156, 157, -1,
      87, 157, 97, -1,
      97, 157, 158, -1,
      159, 160, 146, -1,
      146, 160, 161, -1,
      162, 163, 164, -1,
      158, 165, 97, -1,
      97, 165, 166, -1,
      97, 166, 146, -1,
      146, 166, 167, -1,
      146, 167, 159, -1,
      164, 168, 162, -1,
      162, 168, 169, -1,
      162, 169, 170, -1,
      170, 155, 162, -1,
      162, 155, 87, -1,
      162, 87, 171, -1,
      171, 87, 151, -1,
      171, 151, 172, -1,
      172, 151, 173, -1,
      161, 174, 146, -1,
      146, 174, 175, -1,
      146, 175, 162, -1,
      162, 175, 176, -1,
      162, 176, 163, -1,
      177, 178, 76, -1,
      76, 178, 179, -1,
      76, 179, 87, -1,
      87, 179, 180, -1,
      87, 180, 153, -1,
    ]
  }
}

Shape {
  appearance Appearance {
    material Material {
      diffuseColor 0.8549 0.8549 0.8549
      specularColor 0.4275 0.4275 0.4275
      ambientIntensity 0.2
      transparency 0.0000
      shininess 0.5
    }
  }
  geometry IndexedFaceSet {
    ccw TRUE
    solid FALSE
    coord DEF co Coordinate {
      point [
        -0.468465 -0.307087 -0.253796,
        -0.468465 -0.307087 -0.243498,
        -0.468465 0.307087 -0.243498,
        -0.468465 0.307087 -0.253796,
        -0.464885 0.291339 -0.248031,
        -0.451168 0.220295 -0.248031,
        -0.439595 0.132557 -0.248031,
        -0.433796 -0.034980 -0.248031,
        -0.433796 0.044249 -0.248031,
        -0.464885 -0.291339 -0.248031,
        -0.451168 -0.220295 -0.248031,
        -0.439595 -0.132557 -0.248031,
        -0.433796 -0.044249 -0.248031,
        -0.467809 0.304265 -0.241278,
        -0.467396 0.302474 -0.243419,
        -0.467583 0.303289 -0.255369,
        -0.466650 0.299213 -0.245922,
        -0.466650 0.299213 -0.255906,
        -0.465793 0.295415 -0.247495,
        -0.451168 0.220295 -0.255906,
        -0.467809 -0.304265 -0.241278,
        -0.467396 -0.302474 -0.243419,
        -0.466650 -0.299213 -0.245922,
        -0.467583 -0.303289 -0.255369,
        -0.465793 -0.295415 -0.247495,
        -0.466650 -0.299213 -0.255906,
        -0.433796 -0.044249 -0.255906,
        -0.439595 -0.132557 -0.255906,
        -0.451168 -0.220295 -0.255906,
        -0.439595 0.132557 -0.255906,
        -0.433796 0.044249 -0.255906,
      ]
    }
    coordIndex [
      2, 13, 3, -1,
      3, 13, 14, -1,
      3, 14, 15, -1,
      15, 14, 16, -1,
      15, 16, 17, -1,
      16, 18, 17, -1,
      17, 18, 4, -1,
      17, 4, 19, -1,
      20, 1, 21, -1,
      21, 1, 0, -1,
      21, 0, 22, -1,
      22, 0, 23, -1,
      22, 23, 24, -1,
      24, 23, 25, -1,
      24, 25, 9, -1,
      9, 25, 10, -1,
      26, 11, 27, -1,
      27, 11, 10, -1,
      27, 10, 28, -1,
      28, 10, 25, -1,
      8, 7, 26, -1,
      26, 7, 12, -1,
      26, 12, 11, -1,
      4, 5, 19, -1,
      19, 5, 6, -1,
      19, 6, 29, -1,
      29, 6, 8, -1,
      29, 8, 30, -1,
      30, 8, 26, -1,
    ]
  }
}

Shape {
  appearance Appearance {
    material Material {
      diffuseColor 0.7804 0.2392 0.0000
      specularColor 0.3882 0.1216 0.0000
      ambientIntensity 0.2
      transparency 0.0000
      shininess 0.5
    }
  }
  geometry IndexedFaceSet {
    ccw TRUE
    solid FALSE
    coord DEF co Coordinate {
      point [
        0.436727 -0.099286 0.248031,
        0.134977 -0.099286 0.248031,
        0.134977 0.099286 0.248031,
        0.436727 0.099286 0.248031,
        0.433796 0.044249 0.248031,
        0.433796 -0.044249 0.248031,
      ]
    }
    coordIndex [
      4, 3, 2, -1,
      4, 2, 5, -1,
      5, 2, 1, -1,
      5, 1, 0, -1,
    ]
  }
}

Shape {
  appearance Appearance {
    material Material {
      diffuseColor 0.8549 0.8549 0.8549
      specularColor 0.4275 0.4275 0.4275
      ambientIntensity 0.2
      transparency 0.0000
      shininess 0.5
    }
  }
  geometry IndexedFaceSet {
    ccw TRUE
    solid FALSE
    coord DEF co Coordinate {
      point [
        -0.464885 0.291339 0.248031,
        -0.464885 -0.291339 0.248031,
        -0.451168 0.220295 0.248031,
        -0.439595 0.132557 0.248031,
        -0.433796 0.044249 0.248031,
        -0.433796 -0.044249 0.248031,
        -0.439595 -0.132557 0.248031,
        -0.451168 -0.220295 0.248031,
        -0.469825 -0.307087 -0.253796,
        -0.468465 -0.307087 -0.253796,
        -0.468465 0.307087 -0.253796,
        -0.469825 0.307087 -0.253796,
        -0.467583 0.303289 -0.255369,
        -0.466650 0.299213 -0.255906,
        -0.451168 0.220295 -0.255906,
        -0.467583 -0.303289 -0.255369,
        -0.466650 -0.299213 -0.255906,
        -0.433796 -0.044249 -0.255906,
        -0.439595 -0.132557 -0.255906,
        -0.451168 -0.220295 -0.255906,
        -0.439595 0.132557 -0.255906,
        -0.433796 0.044249 -0.255906,
        -0.451889 -0.314961 0.178427,
        -0.467480 -0.314961 0.240157,
        -0.614173 -0.314961 0.240157,
        -0.614173 -0.314961 -0.240157,
        -0.467480 -0.314961 -0.240157,
        -0.451889 -0.314961 -0.178427,
        -0.439861 -0.314961 0.107563,
        -0.439861 -0.314961 -0.107563,
        -0.433826 -0.314961 -0.035939,
        -0.433826 -0.314961 0.035939,
        -0.468465 -0.307087 0.243498,
        -0.467809 -0.304265 0.241278,
        -0.468465 -0.307087 0.253796,
        -0.467396 -0.302474 0.243419,
        -0.467583 -0.303289 0.255369,
        -0.466650 -0.299213 0.245922,
        -0.466650 -0.299213 0.255906,
        -0.465793 -0.295415 0.247495,
        -0.451168 -0.220295 0.255906,
        -0.467809 0.304265 0.241278,
        -0.468465 0.307087 0.243498,
        -0.467396 0.302474 0.243419,
        -0.468465 0.307087 0.253796,
        -0.466650 0.299213 0.245922,
        -0.467583 0.303289 0.255369,
        -0.465793 0.295415 0.247495,
        -0.466650 0.299213 0.255906,
        -0.439595 -0.132557 0.255906,
        -0.433796 -0.044249 0.255906,
        -0.433796 0.044249 0.255906,
        -0.439595 0.132557 0.255906,
        -0.451168 0.220295 0.255906,
        -0.614173 0.299213 0.255906,
        -0.614173 -0.299213 0.255906,
        -0.614173 0.299213 -0.255906,
        -0.614173 0.303289 -0.255369,
        -0.614173 0.307087 -0.253796,
        -0.614173 0.310348 -0.251293,
        -0.469825 0.310348 -0.251293,
        -0.614173 0.312851 -0.248031,
        -0.469825 0.312851 -0.248031,
        -0.614173 0.314424 -0.244233,
        -0.468683 0.314424 -0.244233,
        -0.614173 0.314961 -0.240157,
        -0.467480 0.314961 -0.240157,
        -0.451889 0.314961 -0.178427,
        -0.439861 0.314961 -0.107563,
        -0.614173 0.314961 0.240157,
        -0.467480 0.314961 0.240157,
        -0.451889 0.314961 0.178427,
        -0.439861 0.314961 0.107563,
        -0.433826 0.314961 0.035939,
        -0.433826 0.314961 -0.035939,
        -0.614173 0.314424 0.244233,
        -0.469825 0.307087 0.253796,
        -0.468683 0.314424 0.244233,
        -0.614173 0.312851 0.248031,
        -0.469825 0.312851 0.248031,
        -0.614173 0.310348 0.251293,
        -0.469825 0.310348 0.251293,
        -0.614173 0.307087 0.253796,
        -0.614173 0.303289 0.255369,
        -0.614173 -0.299213 -0.255906,
        -0.614173 -0.303289 -0.255369,
        -0.614173 -0.307087 -0.253796,
        -0.469825 -0.310348 -0.251293,
        -0.614173 -0.310348 -0.251293,
        -0.469825 -0.312851 -0.248031,
        -0.614173 -0.312851 -0.248031,
        -0.468683 -0.314424 -0.244233,
        -0.614173 -0.314424 -0.244233,
      ]
    }
    coordIndex [
      22, 23, 24, -1,
      25, 26, 27, -1,
      22, 24, 28, -1,
      27, 29, 25, -1,
      25, 29, 30, -1,
      25, 30, 24, -1,
      24, 30, 31, -1,
      24, 31, 28, -1,
      32, 33, 34, -1,
      34, 33, 35, -1,
      34, 35, 36, -1,
      36, 35, 37, -1,
      36, 37, 38, -1,
      37, 39, 38, -1,
      38, 39, 1, -1,
      38, 1, 40, -1,
      41, 42, 43, -1,
      43, 42, 44, -1,
      43, 44, 45, -1,
      45, 44, 46, -1,
      45, 46, 47, -1,
      47, 46, 48, -1,
      47, 48, 0, -1,
      0, 48, 2, -1,
      1, 7, 40, -1,
      40, 7, 6, -1,
      40, 6, 49, -1,
      49, 6, 5, -1,
      49, 5, 50, -1,
      50, 5, 4, -1,
      50, 4, 51, -1,
      51, 4, 3, -1,
      51, 3, 52, -1,
      52, 3, 2, -1,
      52, 2, 53, -1,
      53, 2, 48, -1,
      53, 48, 54, -1,
      53, 54, 52, -1,
      55, 38, 40, -1,
      40, 49, 55, -1,
      55, 49, 50, -1,
      55, 50, 54, -1,
      54, 50, 51, -1,
      54, 51, 52, -1,
      13, 56, 57, -1,
      13, 57, 12, -1,
      12, 57, 11, -1,
      12, 11, 10, -1,
      57, 58, 11, -1,
      11, 58, 59, -1,
      11, 59, 60, -1,
      60, 59, 61, -1,
      60, 61, 62, -1,
      62, 61, 63, -1,
      62, 63, 64, -1,
      64, 63, 65, -1,
      64, 65, 66, -1,
      67, 66, 65, -1,
      67, 65, 68, -1,
      69, 70, 71, -1,
      71, 72, 69, -1,
      69, 72, 73, -1,
      69, 73, 65, -1,
      65, 73, 74, -1,
      65, 74, 68, -1,
      70, 69, 75, -1,
      46, 44, 76, -1,
      70, 75, 77, -1,
      77, 75, 78, -1,
      77, 78, 79, -1,
      79, 78, 80, -1,
      79, 80, 81, -1,
      81, 80, 82, -1,
      81, 82, 76, -1,
      76, 82, 83, -1,
      76, 83, 46, -1,
      46, 83, 54, -1,
      46, 54, 48, -1,
      19, 16, 84, -1,
      56, 13, 14, -1,
      19, 84, 18, -1,
      14, 20, 56, -1,
      56, 20, 21, -1,
      56, 21, 84, -1,
      84, 21, 17, -1,
      84, 17, 18, -1,
      15, 9, 8, -1,
      84, 16, 15, -1,
      84, 15, 85, -1,
      85, 15, 8, -1,
      85, 8, 86, -1,
      86, 8, 87, -1,
      86, 87, 88, -1,
      88, 87, 89, -1,
      88, 89, 90, -1,
      90, 89, 91, -1,
      90, 91, 92, -1,
      92, 91, 26, -1,
      92, 26, 25, -1,
    ]
  }
}

Shape {
  appearance Appearance {
    material Material {
      diffuseColor 1.0000 1.0000 1.0000
      specularColor 0.5020 0.5020 0.5020
      ambientIntensity 0.2
      transparency 0.0000
      shininess 0.5
    }
  }
  geometry IndexedFaceSet {
    ccw TRUE
    solid FALSE
    coord DEF co Coordinate {
      point [
        -0.468465 -0.307087 0.243498,
        -0.468465 -0.307087 0.253796,
        -0.468465 0.307087 0.243498,
        -0.468465 0.307087 0.253796,
        -0.469825 0.307087 0.253796,
        -0.469825 0.307087 0.248031,
        -0.469825 -0.307087 0.248031,
        -0.469825 -0.307087 0.253796,
      ]
    }
    coordIndex [
      4, 3, 5, -1,
      5, 3, 2, -1,
      0, 1, 6, -1,
      6, 1, 7, -1,
    ]
  }
}

Shape {
  appearance Appearance {
    material Material {
      diffuseColor 0.8549 0.8549 0.8549
      specularColor 0.4275 0.4275 0.4275
      ambientIntensity 0.2
      transparency 0.0000
      shininess 0.5
    }
  }
  geometry IndexedFaceSet {
    ccw TRUE
    solid FALSE
    coord DEF co Coordinate {
      point [
        0.451168 0.220295 0.248031,
        0.464885 0.291339 0.248031,
        0.464885 -0.291339 0.248031,
        0.451168 -0.220295 0.248031,
        0.439595 -0.132557 0.248031,
        0.436727 -0.099286 0.248031,
        0.439595 0.132557 0.248031,
        0.436727 0.099286 0.248031,
        0.468465 -0.307087 -0.243498,
        0.468465 -0.307087 -0.253796,
        0.469825 -0.307087 -0.253796,
        0.469825 -0.307087 0.253796,
        0.468465 -0.307087 0.253796,
        0.468465 -0.307087 0.243498,
        0.469825 0.307087 -0.253796,
        0.468465 0.307087 -0.253796,
        0.468465 0.307087 -0.243498,
        0.468465 0.307087 0.243498,
        0.468465 0.307087 0.253796,
        0.469825 0.307087 0.253796,
        0.433796 -0.044249 -0.248031,
        0.439595 -0.132557 -0.248031,
        0.451168 -0.220295 -0.248031,
        0.464885 -0.291339 -0.248031,
        0.464885 0.291339 -0.248031,
        0.451168 0.220295 -0.248031,
        0.439595 0.132557 -0.248031,
        0.433796 -0.034980 -0.248031,
        0.433796 0.044249 -0.248031,
        0.433796 0.044249 0.248031,
        0.433796 -0.044249 0.248031,
        0.467583 -0.303289 0.255369,
        0.614173 -0.299213 0.255906,
        0.466650 -0.299213 0.255906,
        0.614173 -0.303289 0.255369,
        0.614173 -0.307087 0.253796,
        0.469825 -0.310348 0.251293,
        0.614173 -0.310348 0.251293,
        0.469825 -0.312851 0.248031,
        0.614173 -0.312851 0.248031,
        0.468683 -0.314424 0.244233,
        0.614173 -0.314424 0.244233,
        0.467480 -0.314961 0.240157,
        0.614173 -0.314961 0.240157,
        0.467809 -0.304265 -0.241278,
        0.467396 -0.302474 -0.243419,
        0.467583 -0.303289 -0.255369,
        0.466650 -0.299213 -0.245922,
        0.466650 -0.299213 -0.255906,
        0.465793 -0.295415 -0.247495,
        0.451168 -0.220295 -0.255906,
        0.467809 0.304265 -0.241278,
        0.467396 0.302474 -0.243419,
        0.466650 0.299213 -0.245922,
        0.467583 0.303289 -0.255369,
        0.465793 0.295415 -0.247495,
        0.466650 0.299213 -0.255906,
        0.433796 0.044249 -0.255906,
        0.439595 0.132557 -0.255906,
        0.451168 0.220295 -0.255906,
        0.439595 -0.132557 -0.255906,
        0.433796 -0.044249 -0.255906,
        0.451889 -0.314961 -0.178427,
        0.467480 -0.314961 -0.240157,
        0.614173 -0.314961 -0.240157,
        0.439861 -0.314961 -0.107563,
        0.451889 -0.314961 0.178427,
        0.439861 -0.314961 0.107563,
        0.433826 -0.314961 0.035939,
        0.433826 -0.314961 -0.035939,
        0.614173 -0.299213 -0.255906,
        0.614173 -0.303289 -0.255369,
        0.614173 -0.307087 -0.253796,
        0.614173 -0.310348 -0.251293,
        0.469825 -0.310348 -0.251293,
        0.614173 -0.312851 -0.248031,
        0.469825 -0.312851 -0.248031,
        0.614173 -0.314424 -0.244233,
        0.468683 -0.314424 -0.244233,
        0.451168 -0.220295 0.255906,
        0.439595 -0.132557 0.255906,
        0.467809 0.304265 0.241278,
        0.467396 0.302474 0.243419,
        0.467583 0.303289 0.255369,
        0.466650 0.299213 0.245922,
        0.466650 0.299213 0.255906,
        0.465793 0.295415 0.247495,
        0.451168 0.220295 0.255906,
        0.467809 -0.304265 0.241278,
        0.467396 -0.302474 0.243419,
        0.466650 -0.299213 0.245922,
        0.465793 -0.295415 0.247495,
        0.433796 0.044249 0.255906,
        0.433796 -0.044249 0.255906,
        0.439595 0.132557 0.255906,
        0.614173 0.299213 0.255906,
        0.614173 0.303289 0.255369,
        0.614173 0.307087 0.253796,
        0.614173 0.310348 0.251293,
        0.469825 0.310348 0.251293,
        0.614173 0.312851 0.248031,
        0.469825 0.312851 0.248031,
        0.614173 0.314424 0.244233,
        0.468683 0.314424 0.244233,
        0.614173 0.314961 0.240157,
        0.467480 0.314961 0.240157,
        0.451889 0.314961 0.178427,
        0.614173 0.314961 -0.240157,
        0.467480 0.314961 -0.240157,
        0.451889 0.314961 -0.178427,
        0.439861 0.314961 0.107563,
        0.439861 0.314961 -0.107563,
        0.433826 0.314961 -0.035939,
        0.433826 0.314961 0.035939,
        0.614173 0.299213 -0.255906,
        0.629921 -0.299213 -0.240157,
        0.629921 0.299213 -0.240157,
        0.629921 -0.299213 0.240157,
        0.629921 0.299213 0.240157,
        0.618249 0.314424 0.240157,
        0.618249 0.314424 -0.240157,
        0.622047 0.312851 0.240157,
        0.622047 0.312851 -0.240157,
        0.625309 0.310348 0.240157,
        0.625309 0.310348 -0.240157,
        0.627811 0.307087 0.240157,
        0.627811 0.307087 -0.240157,
        0.629385 0.303289 0.240157,
        0.629385 0.303289 -0.240157,
        0.614173 0.303289 -0.255369,
        0.614173 0.307087 -0.253796,
        0.469825 0.310348 -0.251293,
        0.614173 0.310348 -0.251293,
        0.469825 0.312851 -0.248031,
        0.614173 0.312851 -0.248031,
        0.468683 0.314424 -0.244233,
        0.614173 0.314424 -0.244233,
        0.618110 0.313906 0.244233,
        0.618110 0.306032 0.253796,
        0.616211 0.302743 0.255369,
        0.617056 0.302095 0.255369,
        0.618249 0.299213 0.255369,
        0.618110 0.300268 0.255369,
        0.615228 0.303150 0.255369,
        0.616211 0.306819 0.253796,
        0.617056 0.309969 0.251293,
        0.619741 0.304780 0.253796,
        0.617703 0.301250 0.255369,
        0.620992 0.303150 0.253796,
        0.621779 0.301250 0.253796,
        0.622047 0.299213 0.253796,
        0.619741 0.308856 0.251293,
        0.622047 0.307087 0.251293,
        0.623817 0.304780 0.251293,
        0.624929 0.302095 0.251293,
        0.625309 0.299213 0.251293,
        0.617703 0.312386 0.248031,
        0.620992 0.311024 0.248031,
        0.623817 0.308856 0.248031,
        0.625984 0.306032 0.248031,
        0.627347 0.302743 0.248031,
        0.627811 0.299213 0.248031,
        0.621779 0.312386 0.244233,
        0.624929 0.309969 0.244233,
        0.627347 0.306819 0.244233,
        0.628867 0.303150 0.244233,
        0.629385 0.299213 0.244233,
        0.618110 0.313906 -0.244233,
        0.621779 0.312386 -0.244233,
        0.617703 0.312386 -0.248031,
        0.620992 0.311024 -0.248031,
        0.617056 0.309969 -0.251293,
        0.619741 0.308856 -0.251293,
        0.616211 0.306819 -0.253796,
        0.618110 0.306032 -0.253796,
        0.615228 0.303150 -0.255369,
        0.616211 0.302743 -0.255369,
        0.624929 0.309969 -0.244233,
        0.623817 0.308856 -0.248031,
        0.622047 0.307087 -0.251293,
        0.619741 0.304780 -0.253796,
        0.617056 0.302095 -0.255369,
        0.627347 0.306819 -0.244233,
        0.628867 0.303150 -0.244233,
        0.625984 0.306032 -0.248031,
        0.627347 0.302743 -0.248031,
        0.623817 0.304780 -0.251293,
        0.624929 0.302095 -0.251293,
        0.620992 0.303150 -0.253796,
        0.621779 0.301250 -0.253796,
        0.617703 0.301250 -0.255369,
        0.618110 0.300268 -0.255369,
        0.629385 0.299213 -0.244233,
        0.627811 0.299213 -0.248031,
        0.625309 0.299213 -0.251293,
        0.622047 0.299213 -0.253796,
        0.618249 0.299213 -0.255369,
        0.618249 -0.299213 0.255369,
        0.622047 -0.299213 0.253796,
        0.625309 -0.299213 0.251293,
        0.627811 -0.299213 0.248031,
        0.629385 -0.299213 0.244233,
        0.618249 -0.299213 -0.255369,
        0.622047 -0.299213 -0.253796,
        0.625309 -0.299213 -0.251293,
        0.627811 -0.299213 -0.248031,
        0.629385 -0.299213 -0.244233,
        0.628867 -0.303150 0.244233,
        0.620992 -0.303150 0.253796,
        0.617703 -0.301250 0.255369,
        0.617056 -0.302095 0.255369,
        0.615228 -0.303150 0.255369,
        0.618110 -0.300268 0.255369,
        0.621779 -0.301250 0.253796,
        0.624929 -0.302095 0.251293,
        0.619741 -0.304780 0.253796,
        0.616211 -0.302743 0.255369,
        0.618110 -0.306032 0.253796,
        0.616211 -0.306819 0.253796,
        0.623817 -0.304780 0.251293,
        0.622047 -0.307087 0.251293,
        0.619741 -0.308856 0.251293,
        0.617056 -0.309969 0.251293,
        0.627347 -0.302743 0.248031,
        0.625984 -0.306032 0.248031,
        0.623817 -0.308856 0.248031,
        0.620992 -0.311024 0.248031,
        0.617703 -0.312386 0.248031,
        0.627347 -0.306819 0.244233,
        0.624929 -0.309969 0.244233,
        0.621779 -0.312386 0.244233,
        0.618110 -0.313906 0.244233,
        0.629385 -0.303289 0.240157,
        0.627811 -0.307087 0.240157,
        0.625309 -0.310348 0.240157,
        0.622047 -0.312851 0.240157,
        0.618249 -0.314424 0.240157,
        0.629385 -0.303289 -0.240157,
        0.627811 -0.307087 -0.240157,
        0.628867 -0.303150 -0.244233,
        0.627347 -0.306819 -0.244233,
        0.627347 -0.302743 -0.248031,
        0.625984 -0.306032 -0.248031,
        0.624929 -0.302095 -0.251293,
        0.623817 -0.304780 -0.251293,
        0.621779 -0.301250 -0.253796,
        0.620992 -0.303150 -0.253796,
        0.618110 -0.300268 -0.255369,
        0.617703 -0.301250 -0.255369,
        0.625309 -0.310348 -0.240157,
        0.624929 -0.309969 -0.244233,
        0.623817 -0.308856 -0.248031,
        0.622047 -0.307087 -0.251293,
        0.619741 -0.304780 -0.253796,
        0.617056 -0.302095 -0.255369,
        0.622047 -0.312851 -0.240157,
        0.618249 -0.314424 -0.240157,
        0.621779 -0.312386 -0.244233,
        0.618110 -0.313906 -0.244233,
        0.620992 -0.311024 -0.248031,
        0.617703 -0.312386 -0.248031,
        0.619741 -0.308856 -0.251293,
        0.617056 -0.309969 -0.251293,
        0.618110 -0.306032 -0.253796,
        0.616211 -0.306819 -0.253796,
        0.616211 -0.302743 -0.255369,
        0.615228 -0.303150 -0.255369,
      ]
    }
    coordIndex [
      31, 12, 11, -1,
      32, 33, 31, -1,
      32, 31, 34, -1,
      34, 31, 11, -1,
      34, 11, 35, -1,
      35, 11, 36, -1,
      35, 36, 37, -1,
      37, 36, 38, -1,
      37, 38, 39, -1,
      39, 38, 40, -1,
      39, 40, 41, -1,
      41, 40, 42, -1,
      41, 42, 43, -1,
      8, 44, 9, -1,
      9, 44, 45, -1,
      9, 45, 46, -1,
      46, 45, 47, -1,
      46, 47, 48, -1,
      47, 49, 48, -1,
      48, 49, 23, -1,
      48, 23, 50, -1,
      51, 16, 52, -1,
      52, 16, 15, -1,
      52, 15, 53, -1,
      53, 15, 54, -1,
      53, 54, 55, -1,
      55, 54, 56, -1,
      55, 56, 24, -1,
      24, 56, 25, -1,
      57, 26, 58, -1,
      58, 26, 25, -1,
      58, 25, 59, -1,
      59, 25, 56, -1,
      23, 22, 50, -1,
      50, 22, 21, -1,
      50, 21, 60, -1,
      60, 21, 20, -1,
      60, 20, 61, -1,
      61, 20, 27, -1,
      61, 27, 57, -1,
      57, 27, 28, -1,
      57, 28, 26, -1,
      62, 63, 64, -1,
      62, 64, 65, -1,
      43, 42, 66, -1,
      66, 67, 43, -1,
      43, 67, 68, -1,
      43, 68, 64, -1,
      64, 68, 69, -1,
      64, 69, 65, -1,
      48, 70, 71, -1,
      48, 71, 46, -1,
      46, 71, 10, -1,
      46, 10, 9, -1,
      71, 72, 10, -1,
      10, 72, 73, -1,
      10, 73, 74, -1,
      74, 73, 75, -1,
      74, 75, 76, -1,
      76, 75, 77, -1,
      76, 77, 78, -1,
      78, 77, 64, -1,
      78, 64, 63, -1,
      3, 79, 80, -1,
      17, 81, 18, -1,
      18, 81, 82, -1,
      18, 82, 83, -1,
      83, 82, 84, -1,
      83, 84, 85, -1,
      84, 86, 85, -1,
      85, 86, 1, -1,
      85, 1, 87, -1,
      79, 3, 33, -1,
      88, 13, 89, -1,
      89, 13, 12, -1,
      89, 12, 90, -1,
      90, 12, 31, -1,
      90, 31, 91, -1,
      91, 31, 33, -1,
      91, 33, 2, -1,
      2, 33, 3, -1,
      92, 30, 93, -1,
      93, 30, 5, -1,
      93, 5, 80, -1,
      80, 5, 4, -1,
      80, 4, 3, -1,
      1, 0, 87, -1,
      87, 0, 6, -1,
      87, 6, 94, -1,
      94, 6, 7, -1,
      94, 7, 92, -1,
      92, 7, 29, -1,
      92, 29, 30, -1,
      79, 33, 32, -1,
      79, 32, 80, -1,
      95, 85, 87, -1,
      87, 94, 95, -1,
      95, 94, 92, -1,
      95, 92, 32, -1,
      32, 92, 93, -1,
      32, 93, 80, -1,
      19, 18, 83, -1,
      85, 95, 96, -1,
      19, 97, 98, -1,
      19, 98, 99, -1,
      99, 98, 100, -1,
      99, 100, 101, -1,
      101, 100, 102, -1,
      101, 102, 103, -1,
      103, 102, 104, -1,
      103, 104, 105, -1,
      97, 19, 96, -1,
      96, 19, 83, -1,
      96, 83, 85, -1,
      106, 105, 104, -1,
      107, 108, 109, -1,
      106, 104, 110, -1,
      109, 111, 107, -1,
      107, 111, 112, -1,
      107, 112, 104, -1,
      104, 112, 113, -1,
      104, 113, 110, -1,
      59, 56, 114, -1,
      59, 114, 58, -1,
      70, 48, 50, -1,
      50, 60, 70, -1,
      70, 60, 61, -1,
      70, 61, 114, -1,
      114, 61, 57, -1,
      114, 57, 58, -1,
      115, 116, 117, -1,
      117, 116, 118, -1,
      107, 104, 119, -1,
      107, 119, 120, -1,
      120, 119, 121, -1,
      120, 121, 122, -1,
      122, 121, 123, -1,
      122, 123, 124, -1,
      124, 123, 125, -1,
      124, 125, 126, -1,
      126, 125, 127, -1,
      126, 127, 128, -1,
      128, 127, 118, -1,
      128, 118, 116, -1,
      54, 15, 14, -1,
      114, 56, 54, -1,
      114, 54, 129, -1,
      129, 54, 14, -1,
      129, 14, 130, -1,
      130, 14, 131, -1,
      130, 131, 132, -1,
      132, 131, 133, -1,
      132, 133, 134, -1,
      134, 133, 135, -1,
      134, 135, 136, -1,
      136, 135, 108, -1,
      136, 108, 107, -1,
      104, 102, 137, -1,
      138, 139, 140, -1,
      95, 141, 142, -1,
      140, 139, 95, -1,
      143, 95, 139, -1,
      143, 139, 144, -1,
      144, 139, 138, -1,
      144, 138, 145, -1,
      96, 95, 143, -1,
      146, 147, 148, -1,
      148, 147, 142, -1,
      148, 142, 149, -1,
      149, 142, 141, -1,
      149, 141, 150, -1,
      96, 143, 97, -1,
      97, 143, 144, -1,
      97, 144, 98, -1,
      98, 144, 145, -1,
      98, 145, 100, -1,
      151, 146, 152, -1,
      152, 146, 148, -1,
      152, 148, 153, -1,
      153, 148, 149, -1,
      153, 149, 154, -1,
      154, 149, 150, -1,
      154, 150, 155, -1,
      156, 151, 157, -1,
      157, 151, 152, -1,
      157, 152, 158, -1,
      158, 152, 153, -1,
      158, 153, 159, -1,
      159, 153, 154, -1,
      159, 154, 160, -1,
      160, 154, 155, -1,
      160, 155, 161, -1,
      102, 156, 137, -1,
      137, 156, 157, -1,
      137, 157, 162, -1,
      162, 157, 158, -1,
      162, 158, 163, -1,
      163, 158, 159, -1,
      163, 159, 164, -1,
      164, 159, 160, -1,
      164, 160, 165, -1,
      165, 160, 161, -1,
      165, 161, 166, -1,
      104, 137, 119, -1,
      119, 137, 162, -1,
      119, 162, 121, -1,
      121, 162, 163, -1,
      121, 163, 123, -1,
      123, 163, 164, -1,
      123, 164, 125, -1,
      125, 164, 165, -1,
      125, 165, 127, -1,
      127, 165, 166, -1,
      127, 166, 118, -1,
      147, 95, 142, -1,
      102, 100, 156, -1,
      156, 100, 145, -1,
      156, 145, 151, -1,
      151, 145, 138, -1,
      151, 138, 146, -1,
      146, 138, 140, -1,
      146, 140, 147, -1,
      147, 140, 95, -1,
      120, 122, 167, -1,
      167, 122, 168, -1,
      167, 168, 169, -1,
      169, 168, 170, -1,
      169, 170, 171, -1,
      171, 170, 172, -1,
      171, 172, 173, -1,
      173, 172, 174, -1,
      173, 174, 175, -1,
      175, 174, 176, -1,
      175, 176, 114, -1,
      122, 124, 168, -1,
      168, 124, 177, -1,
      168, 177, 170, -1,
      170, 177, 178, -1,
      170, 178, 172, -1,
      172, 178, 179, -1,
      172, 179, 174, -1,
      174, 179, 180, -1,
      174, 180, 176, -1,
      176, 180, 181, -1,
      176, 181, 114, -1,
      107, 120, 136, -1,
      136, 120, 167, -1,
      136, 167, 134, -1,
      134, 167, 169, -1,
      134, 169, 132, -1,
      132, 169, 171, -1,
      132, 171, 130, -1,
      130, 171, 173, -1,
      130, 173, 129, -1,
      129, 173, 175, -1,
      129, 175, 114, -1,
      126, 128, 182, -1,
      182, 128, 183, -1,
      182, 183, 184, -1,
      184, 183, 185, -1,
      184, 185, 186, -1,
      186, 185, 187, -1,
      186, 187, 188, -1,
      188, 187, 189, -1,
      188, 189, 190, -1,
      190, 189, 191, -1,
      190, 191, 114, -1,
      128, 116, 183, -1,
      183, 116, 192, -1,
      183, 192, 185, -1,
      185, 192, 193, -1,
      185, 193, 187, -1,
      187, 193, 194, -1,
      187, 194, 189, -1,
      189, 194, 195, -1,
      189, 195, 191, -1,
      191, 195, 196, -1,
      191, 196, 114, -1,
      124, 126, 177, -1,
      177, 126, 182, -1,
      177, 182, 178, -1,
      178, 182, 184, -1,
      178, 184, 179, -1,
      179, 184, 186, -1,
      179, 186, 180, -1,
      180, 186, 188, -1,
      180, 188, 181, -1,
      181, 188, 190, -1,
      181, 190, 114, -1,
      95, 32, 197, -1,
      95, 197, 141, -1,
      141, 197, 198, -1,
      141, 198, 150, -1,
      150, 198, 199, -1,
      150, 199, 155, -1,
      155, 199, 200, -1,
      155, 200, 161, -1,
      161, 200, 201, -1,
      161, 201, 166, -1,
      166, 201, 117, -1,
      166, 117, 118, -1,
      70, 114, 196, -1,
      70, 196, 202, -1,
      202, 196, 195, -1,
      202, 195, 203, -1,
      203, 195, 194, -1,
      203, 194, 204, -1,
      204, 194, 193, -1,
      204, 193, 205, -1,
      205, 193, 192, -1,
      205, 192, 206, -1,
      206, 192, 116, -1,
      206, 116, 115, -1,
      117, 201, 207, -1,
      208, 209, 210, -1,
      32, 34, 211, -1,
      210, 209, 32, -1,
      212, 32, 209, -1,
      212, 209, 213, -1,
      213, 209, 208, -1,
      213, 208, 214, -1,
      197, 32, 212, -1,
      215, 216, 217, -1,
      217, 216, 211, -1,
      217, 211, 218, -1,
      218, 211, 34, -1,
      218, 34, 35, -1,
      197, 212, 198, -1,
      198, 212, 213, -1,
      198, 213, 199, -1,
      199, 213, 214, -1,
      199, 214, 200, -1,
      219, 215, 220, -1,
      220, 215, 217, -1,
      220, 217, 221, -1,
      221, 217, 218, -1,
      221, 218, 222, -1,
      222, 218, 35, -1,
      222, 35, 37, -1,
      223, 219, 224, -1,
      224, 219, 220, -1,
      224, 220, 225, -1,
      225, 220, 221, -1,
      225, 221, 226, -1,
      226, 221, 222, -1,
      226, 222, 227, -1,
      227, 222, 37, -1,
      227, 37, 39, -1,
      201, 223, 207, -1,
      207, 223, 224, -1,
      207, 224, 228, -1,
      228, 224, 225, -1,
      228, 225, 229, -1,
      229, 225, 226, -1,
      229, 226, 230, -1,
      230, 226, 227, -1,
      230, 227, 231, -1,
      231, 227, 39, -1,
      231, 39, 41, -1,
      117, 207, 232, -1,
      232, 207, 228, -1,
      232, 228, 233, -1,
      233, 228, 229, -1,
      233, 229, 234, -1,
      234, 229, 230, -1,
      234, 230, 235, -1,
      235, 230, 231, -1,
      235, 231, 236, -1,
      236, 231, 41, -1,
      236, 41, 43, -1,
      216, 32, 211, -1,
      201, 200, 223, -1,
      223, 200, 214, -1,
      223, 214, 219, -1,
      219, 214, 208, -1,
      219, 208, 215, -1,
      215, 208, 210, -1,
      215, 210, 216, -1,
      216, 210, 32, -1,
      237, 238, 239, -1,
      239, 238, 240, -1,
      239, 240, 241, -1,
      241, 240, 242, -1,
      241, 242, 243, -1,
      243, 242, 244, -1,
      243, 244, 245, -1,
      245, 244, 246, -1,
      245, 246, 247, -1,
      247, 246, 248, -1,
      247, 248, 70, -1,
      238, 249, 240, -1,
      240, 249, 250, -1,
      240, 250, 242, -1,
      242, 250, 251, -1,
      242, 251, 244, -1,
      244, 251, 252, -1,
      244, 252, 246, -1,
      246, 252, 253, -1,
      246, 253, 248, -1,
      248, 253, 254, -1,
      248, 254, 70, -1,
      115, 237, 206, -1,
      206, 237, 239, -1,
      206, 239, 205, -1,
      205, 239, 241, -1,
      205, 241, 204, -1,
      204, 241, 243, -1,
      204, 243, 203, -1,
      203, 243, 245, -1,
      203, 245, 202, -1,
      202, 245, 247, -1,
      202, 247, 70, -1,
      255, 256, 257, -1,
      257, 256, 258, -1,
      257, 258, 259, -1,
      259, 258, 260, -1,
      259, 260, 261, -1,
      261, 260, 262, -1,
      261, 262, 263, -1,
      263, 262, 264, -1,
      263, 264, 265, -1,
      265, 264, 266, -1,
      265, 266, 70, -1,
      256, 64, 258, -1,
      258, 64, 77, -1,
      258, 77, 260, -1,
      260, 77, 75, -1,
      260, 75, 262, -1,
      262, 75, 73, -1,
      262, 73, 264, -1,
      264, 73, 72, -1,
      264, 72, 266, -1,
      266, 72, 71, -1,
      266, 71, 70, -1,
      249, 255, 250, -1,
      250, 255, 257, -1,
      250, 257, 251, -1,
      251, 257, 259, -1,
      251, 259, 252, -1,
      252, 259, 261, -1,
      252, 261, 253, -1,
      253, 261, 263, -1,
      253, 263, 254, -1,
      254, 263, 265, -1,
      254, 265, 70, -1,
      43, 64, 256, -1,
      43, 256, 236, -1,
      236, 256, 255, -1,
      236, 255, 235, -1,
      235, 255, 249, -1,
      235, 249, 234, -1,
      234, 249, 238, -1,
      234, 238, 233, -1,
      233, 238, 237, -1,
      233, 237, 232, -1,
      232, 237, 115, -1,
      232, 115, 117, -1,
    ]
  }
}

Shape {
  appearance Appearance {
    material Material {
      diffuseColor 1.0000 1.0000 1.0000
      specularColor 0.8784 0.8784 0.8784
      ambientIntensity 0.2
      transparency 0.0000
      shininess 0.5
    }
  }
  geometry IndexedFaceSet {
    ccw TRUE
    solid FALSE
    coord DEF co Coordinate {
      point [
        0.465217 -0.307087 -0.232283,
        0.451889 -0.307087 -0.178427,
        0.439861 -0.307087 -0.107563,
        0.433826 -0.307087 -0.035939,
        0.433826 -0.307087 0.035939,
        0.439861 -0.307087 0.107563,
        0.451889 -0.307087 0.178427,
        0.465217 -0.307087 0.232283,
        0.468465 -0.307087 -0.243498,
        0.469825 -0.307087 -0.248031,
        0.469825 -0.307087 -0.253796,
        0.469825 -0.307087 0.253796,
        0.469825 -0.307087 0.248031,
        0.468465 -0.307087 0.243498,
        0.469825 0.307087 -0.253796,
        0.469825 0.307087 -0.248031,
        0.468465 0.307087 -0.243498,
        0.465217 0.307087 -0.232283,
        0.439861 0.307087 0.107563,
        0.451889 0.307087 0.178427,
        0.465217 0.307087 0.232283,
        0.433826 0.307087 0.035939,
        0.433826 0.307087 -0.035939,
        0.439861 0.307087 -0.107563,
        0.451889 0.307087 -0.178427,
        0.468465 0.307087 0.243498,
        0.469825 0.307087 0.248031,
        0.469825 0.307087 0.253796,
        0.047694 0.018674 -0.248031,
        0.053509 0.018021 -0.248031,
        0.034923 -0.025663 -0.248031,
        -0.007906 0.017954 -0.248031,
        0.014420 0.017954 -0.248031,
        0.014420 -0.001491 -0.248031,
        -0.006466 -0.001491 -0.248031,
        -0.006466 -0.007973 -0.248031,
        0.067866 -0.029582 -0.248031,
        0.072302 -0.024912 -0.248031,
        0.082837 -0.034620 -0.248031,
        0.053587 -0.034980 -0.248031,
        0.113085 -0.034620 -0.248031,
        0.040517 0.017741 -0.248031,
        0.033865 -0.025077 -0.248031,
        0.033865 0.014893 -0.248031,
        -0.007906 0.024435 -0.248031,
        0.022342 0.024435 -0.248031,
        0.113085 0.024435 -0.248031,
        0.105163 0.024435 -0.248031,
        0.074679 0.008881 -0.248031,
        0.071218 0.014402 -0.248031,
        0.065886 0.019530 -0.248031,
        0.060277 0.022759 -0.248031,
        0.082837 -0.028138 -0.248031,
        0.075447 -0.019296 -0.248031,
        0.105163 -0.028138 -0.248031,
        0.053693 0.024671 -0.248031,
        0.047762 0.025156 -0.248031,
        0.040692 0.024668 -0.248031,
        0.033865 0.022815 -0.248031,
        0.022342 -0.034620 -0.248031,
        0.033865 -0.031559 -0.248031,
        0.057391 -0.034585 -0.248031,
        0.063115 -0.032615 -0.248031,
        0.057930 0.016426 -0.248031,
        0.062017 0.013691 -0.248031,
        0.065583 0.009754 -0.248031,
        0.069874 -0.005722 -0.248031,
        0.069276 -0.012115 -0.248031,
        0.067671 -0.017195 -0.248031,
        0.054530 -0.028241 -0.248031,
        0.049022 -0.028858 -0.248031,
        0.058833 -0.026656 -0.248031,
        0.062458 -0.024213 -0.248031,
        0.065229 -0.021290 -0.248031,
        0.041183 -0.027988 -0.248031,
        0.077225 -0.013046 -0.248031,
        0.077796 -0.006206 -0.248031,
        0.076946 0.002190 -0.248031,
        0.068018 0.005194 -0.248031,
        0.069592 -0.001128 -0.248031,
        0.014420 -0.007973 -0.248031,
        0.014420 -0.028138 -0.248031,
        -0.009346 -0.028138 -0.248031,
        -0.009346 -0.034620 -0.248031,
        0.046127 -0.034980 -0.248031,
        0.040159 -0.034144 -0.248031,
        0.048499 -0.035312 -0.248031,
        0.050114 -0.035340 -0.248031,
        -0.095048 0.024435 -0.248031,
        -0.102970 0.024435 -0.248031,
        -0.117374 -0.034620 -0.248031,
        -0.126017 -0.034620 -0.248031,
        -0.036927 -0.034620 -0.248031,
        -0.020869 -0.034620 -0.248031,
        -0.020869 0.024435 -0.248031,
        -0.037535 0.024435 -0.248031,
        -0.059466 0.016735 -0.248031,
        -0.063642 0.012105 -0.248031,
        -0.066386 0.007026 -0.248031,
        -0.072723 -0.034620 -0.248031,
        -0.065453 -0.018434 -0.248031,
        -0.062066 -0.023716 -0.248031,
        -0.046067 0.023523 -0.248031,
        -0.052976 0.021097 -0.248031,
        -0.059404 0.016789 -0.248031,
        -0.057205 -0.028370 -0.248031,
        -0.051039 -0.031954 -0.248031,
        -0.044234 -0.033982 -0.248031,
        -0.081365 -0.034620 -0.248031,
        -0.087003 -0.018056 -0.248031,
        -0.111399 -0.018056 -0.248031,
        -0.067972 0.001207 -0.248031,
        -0.068402 -0.004350 -0.248031,
        -0.067573 -0.012253 -0.248031,
        0.469825 -0.310348 0.251293,
        0.469825 -0.312851 0.248031,
        0.468683 -0.314424 0.244233,
        0.467480 -0.314961 0.240157,
        0.467809 -0.304265 -0.241278,
        0.467809 0.304265 -0.241278,
        0.451889 -0.314961 -0.178427,
        0.467480 -0.314961 -0.240157,
        0.439861 -0.314961 -0.107563,
        0.451889 -0.314961 0.178427,
        0.439861 -0.314961 0.107563,
        0.433826 -0.314961 0.035939,
        0.433826 -0.314961 -0.035939,
        0.469825 -0.310348 -0.251293,
        0.469825 -0.312851 -0.248031,
        0.468683 -0.314424 -0.244233,
        0.467809 0.304265 0.241278,
        0.467809 -0.304265 0.241278,
        0.469825 0.310348 0.251293,
        0.469825 0.312851 0.248031,
        0.468683 0.314424 0.244233,
        0.467480 0.314961 0.240157,
        0.451889 0.314961 0.178427,
        0.467480 0.314961 -0.240157,
        0.451889 0.314961 -0.178427,
        0.439861 0.314961 0.107563,
        0.439861 0.314961 -0.107563,
        0.433826 0.314961 -0.035939,
        0.433826 0.314961 0.035939,
        0.469825 0.310348 -0.251293,
        0.469825 0.312851 -0.248031,
        0.468683 0.314424 -0.244233,
        0.467480 0.304977 0.240157,
        0.466378 0.306550 0.236359,
        0.467480 0.304977 -0.240157,
        0.466378 0.306550 -0.236359,
        0.467480 -0.304977 0.240157,
        0.466378 -0.306550 0.236359,
        0.467480 -0.304977 -0.240157,
        0.466378 -0.306550 -0.236359,
        -0.102970 0.024435 -0.244094,
        -0.126017 -0.034620 -0.244094,
        -0.117374 -0.034620 -0.244094,
        -0.111399 -0.018056 -0.244094,
        -0.087003 -0.018056 -0.244094,
        -0.081365 -0.034620 -0.244094,
        -0.072723 -0.034620 -0.244094,
        -0.095048 0.024435 -0.244094,
        -0.088994 -0.011574 -0.244094,
        -0.108743 -0.011574 -0.244094,
        -0.097806 0.013093 -0.244094,
        -0.098374 0.015141 -0.244094,
        -0.098751 0.017233 -0.244094,
        -0.098942 0.017233 -0.244094,
        -0.099327 0.015147 -0.244094,
        -0.099854 0.013093 -0.244094,
        -0.088994 -0.011574 -0.248031,
        -0.108743 -0.011574 -0.248031,
        -0.097806 0.013093 -0.248031,
        -0.098374 0.015141 -0.248031,
        -0.098751 0.017233 -0.248031,
        -0.098942 0.017233 -0.248031,
        -0.099327 0.015147 -0.248031,
        -0.099854 0.013093 -0.248031,
        -0.036927 -0.034620 -0.244094,
        -0.020869 -0.034620 -0.244094,
        -0.020869 0.024435 -0.244094,
        -0.037535 0.024435 -0.244094,
        -0.068402 -0.004350 -0.244094,
        -0.067972 0.001207 -0.244094,
        -0.066386 0.007026 -0.244094,
        -0.063642 0.012105 -0.244094,
        -0.059466 0.016735 -0.244094,
        -0.059404 0.016789 -0.244094,
        -0.052976 0.021097 -0.244094,
        -0.046067 0.023523 -0.244094,
        -0.044234 -0.033982 -0.244094,
        -0.051039 -0.031954 -0.244094,
        -0.057205 -0.028370 -0.244094,
        -0.062066 -0.023716 -0.244094,
        -0.065453 -0.018434 -0.244094,
        -0.067573 -0.012253 -0.244094,
        -0.056548 0.009672 -0.244094,
        -0.053679 0.012718 -0.244094,
        -0.049365 0.015505 -0.244094,
        -0.044491 0.017211 -0.244094,
        -0.037501 0.017954 -0.244094,
        -0.028791 0.017954 -0.244094,
        -0.028791 -0.028138 -0.244094,
        -0.037175 -0.028138 -0.244094,
        -0.043405 -0.027558 -0.244094,
        -0.048375 -0.026007 -0.244094,
        -0.052402 -0.023615 -0.244094,
        -0.055715 -0.020344 -0.244094,
        -0.058205 -0.016272 -0.244094,
        -0.059937 -0.010721 -0.244094,
        -0.060480 -0.004518 -0.244094,
        -0.059978 0.001359 -0.244094,
        -0.058599 0.006030 -0.244094,
        -0.037501 0.017954 -0.248031,
        -0.028791 0.017954 -0.248031,
        -0.044491 0.017211 -0.248031,
        -0.049365 0.015505 -0.248031,
        -0.053679 0.012718 -0.248031,
        -0.056548 0.009672 -0.248031,
        -0.058599 0.006030 -0.248031,
        -0.059978 0.001359 -0.248031,
        -0.060480 -0.004518 -0.248031,
        -0.059937 -0.010721 -0.248031,
        -0.058205 -0.016272 -0.248031,
        -0.055715 -0.020344 -0.248031,
        -0.052402 -0.023615 -0.248031,
        -0.048375 -0.026007 -0.248031,
        -0.043405 -0.027558 -0.248031,
        -0.037175 -0.028138 -0.248031,
        -0.028791 -0.028138 -0.248031,
        -0.009346 -0.028138 -0.244094,
        -0.009346 -0.034620 -0.244094,
        0.022342 -0.034620 -0.244094,
        0.022342 0.024435 -0.244094,
        -0.007906 0.024435 -0.244094,
        -0.007906 0.017954 -0.244094,
        0.014420 0.017954 -0.244094,
        0.014420 -0.001491 -0.244094,
        -0.006466 -0.001491 -0.244094,
        -0.006466 -0.007973 -0.244094,
        0.014420 -0.007973 -0.244094,
        0.014420 -0.028138 -0.244094,
        0.033865 -0.025077 -0.244094,
        0.033865 -0.031559 -0.244094,
        0.040159 -0.034144 -0.244094,
        0.050114 -0.035340 -0.244094,
        0.048499 -0.035312 -0.244094,
        0.077796 -0.006206 -0.244094,
        0.077225 -0.013046 -0.244094,
        0.075447 -0.019296 -0.244094,
        0.072302 -0.024912 -0.244094,
        0.067866 -0.029582 -0.244094,
        0.063115 -0.032615 -0.244094,
        0.057391 -0.034585 -0.244094,
        0.047762 0.025156 -0.244094,
        0.053693 0.024671 -0.244094,
        0.060277 0.022759 -0.244094,
        0.065886 0.019530 -0.244094,
        0.071218 0.014402 -0.244094,
        0.074679 0.008881 -0.244094,
        0.076946 0.002190 -0.244094,
        0.033865 0.022815 -0.244094,
        0.040692 0.024668 -0.244094,
        0.033865 0.014893 -0.244094,
        0.047694 0.018674 -0.244094,
        0.040517 0.017741 -0.244094,
        0.069874 -0.005722 -0.244094,
        0.069592 -0.001128 -0.244094,
        0.068018 0.005194 -0.244094,
        0.065583 0.009754 -0.244094,
        0.062017 0.013691 -0.244094,
        0.057930 0.016426 -0.244094,
        0.053509 0.018021 -0.244094,
        0.049022 -0.028858 -0.244094,
        0.054530 -0.028241 -0.244094,
        0.058833 -0.026656 -0.244094,
        0.062458 -0.024213 -0.244094,
        0.065229 -0.021290 -0.244094,
        0.067671 -0.017195 -0.244094,
        0.069276 -0.012115 -0.244094,
        0.034923 -0.025663 -0.244094,
        0.041183 -0.027988 -0.244094,
        0.082837 -0.028138 -0.244094,
        0.082837 -0.034620 -0.244094,
        0.113085 -0.034620 -0.244094,
        0.113085 0.024435 -0.244094,
        0.105163 0.024435 -0.244094,
        0.105163 -0.028138 -0.244094,
      ]
    }
    coordIndex [
      146, 130, 25, -1,
      20, 147, 135, -1,
      20, 135, 19, -1,
      147, 146, 135, -1,
      135, 146, 25, -1,
      135, 25, 134, -1,
      134, 25, 26, -1,
      134, 26, 133, -1,
      138, 23, 140, -1,
      140, 23, 22, -1,
      140, 22, 141, -1,
      141, 22, 21, -1,
      141, 21, 142, -1,
      142, 21, 18, -1,
      142, 18, 139, -1,
      139, 18, 19, -1,
      139, 19, 136, -1,
      136, 19, 135, -1,
      144, 15, 145, -1,
      145, 15, 16, -1,
      145, 16, 137, -1,
      137, 16, 119, -1,
      137, 119, 148, -1,
      148, 149, 137, -1,
      137, 149, 17, -1,
      137, 17, 138, -1,
      138, 17, 24, -1,
      138, 24, 23, -1,
      14, 15, 143, -1,
      143, 15, 144, -1,
      133, 26, 132, -1,
      132, 26, 27, -1,
      115, 12, 116, -1,
      116, 12, 13, -1,
      116, 13, 117, -1,
      117, 13, 131, -1,
      117, 131, 150, -1,
      150, 151, 117, -1,
      117, 151, 7, -1,
      117, 7, 123, -1,
      152, 118, 8, -1,
      0, 153, 121, -1,
      0, 121, 1, -1,
      153, 152, 121, -1,
      121, 152, 8, -1,
      121, 8, 129, -1,
      129, 8, 9, -1,
      129, 9, 128, -1,
      7, 6, 123, -1,
      123, 6, 5, -1,
      123, 5, 124, -1,
      124, 5, 4, -1,
      124, 4, 125, -1,
      125, 4, 3, -1,
      125, 3, 126, -1,
      126, 3, 2, -1,
      126, 2, 122, -1,
      122, 2, 1, -1,
      122, 1, 120, -1,
      120, 1, 121, -1,
      11, 12, 114, -1,
      114, 12, 115, -1,
      128, 9, 127, -1,
      127, 9, 10, -1,
      154, 155, 89, -1,
      89, 155, 91, -1,
      155, 156, 91, -1,
      91, 156, 90, -1,
      156, 157, 90, -1,
      90, 157, 110, -1,
      157, 158, 110, -1,
      110, 158, 109, -1,
      158, 159, 109, -1,
      109, 159, 108, -1,
      159, 160, 108, -1,
      108, 160, 99, -1,
      160, 161, 99, -1,
      99, 161, 88, -1,
      161, 154, 88, -1,
      88, 154, 89, -1,
      162, 158, 163, -1,
      163, 158, 157, -1,
      164, 161, 162, -1,
      162, 161, 160, -1,
      162, 160, 158, -1,
      158, 160, 159, -1,
      164, 165, 161, -1,
      161, 165, 166, -1,
      161, 166, 154, -1,
      154, 166, 167, -1,
      154, 167, 168, -1,
      168, 169, 154, -1,
      154, 169, 163, -1,
      154, 163, 155, -1,
      155, 163, 157, -1,
      155, 157, 156, -1,
      162, 163, 170, -1,
      170, 163, 171, -1,
      164, 162, 172, -1,
      172, 162, 170, -1,
      164, 172, 173, -1,
      164, 173, 165, -1,
      165, 173, 174, -1,
      165, 174, 166, -1,
      167, 166, 175, -1,
      175, 166, 174, -1,
      167, 175, 176, -1,
      167, 176, 168, -1,
      168, 176, 177, -1,
      168, 177, 169, -1,
      163, 169, 171, -1,
      171, 169, 177, -1,
      178, 179, 92, -1,
      92, 179, 93, -1,
      179, 180, 93, -1,
      93, 180, 94, -1,
      180, 181, 94, -1,
      94, 181, 95, -1,
      182, 112, 111, -1,
      182, 111, 183, -1,
      183, 111, 98, -1,
      183, 98, 184, -1,
      184, 98, 97, -1,
      184, 97, 185, -1,
      185, 97, 96, -1,
      185, 96, 186, -1,
      186, 96, 104, -1,
      186, 104, 187, -1,
      187, 104, 103, -1,
      187, 103, 188, -1,
      188, 103, 102, -1,
      188, 102, 189, -1,
      189, 102, 95, -1,
      189, 95, 181, -1,
      178, 92, 107, -1,
      178, 107, 190, -1,
      190, 107, 106, -1,
      190, 106, 191, -1,
      191, 106, 105, -1,
      191, 105, 192, -1,
      192, 105, 101, -1,
      192, 101, 193, -1,
      193, 101, 100, -1,
      193, 100, 194, -1,
      194, 100, 113, -1,
      194, 113, 195, -1,
      195, 113, 112, -1,
      195, 112, 182, -1,
      184, 185, 196, -1,
      196, 185, 186, -1,
      196, 186, 197, -1,
      197, 186, 187, -1,
      197, 187, 198, -1,
      198, 187, 188, -1,
      198, 188, 199, -1,
      199, 188, 189, -1,
      199, 189, 200, -1,
      200, 189, 181, -1,
      200, 181, 201, -1,
      201, 181, 180, -1,
      201, 180, 202, -1,
      202, 180, 179, -1,
      202, 179, 203, -1,
      203, 179, 178, -1,
      203, 178, 204, -1,
      204, 178, 190, -1,
      204, 190, 205, -1,
      205, 190, 191, -1,
      205, 191, 206, -1,
      206, 191, 192, -1,
      206, 192, 207, -1,
      207, 192, 193, -1,
      207, 193, 208, -1,
      208, 193, 194, -1,
      208, 194, 209, -1,
      209, 194, 195, -1,
      209, 195, 210, -1,
      210, 195, 182, -1,
      210, 182, 211, -1,
      211, 182, 183, -1,
      211, 183, 212, -1,
      212, 183, 184, -1,
      212, 184, 196, -1,
      200, 201, 213, -1,
      213, 201, 214, -1,
      200, 213, 215, -1,
      200, 215, 199, -1,
      199, 215, 216, -1,
      199, 216, 198, -1,
      198, 216, 217, -1,
      198, 217, 197, -1,
      197, 217, 218, -1,
      197, 218, 196, -1,
      196, 218, 219, -1,
      196, 219, 212, -1,
      212, 219, 220, -1,
      212, 220, 211, -1,
      211, 220, 221, -1,
      211, 221, 210, -1,
      210, 221, 222, -1,
      210, 222, 209, -1,
      209, 222, 223, -1,
      209, 223, 208, -1,
      208, 223, 224, -1,
      208, 224, 207, -1,
      207, 224, 225, -1,
      207, 225, 206, -1,
      206, 225, 226, -1,
      206, 226, 205, -1,
      205, 226, 227, -1,
      205, 227, 204, -1,
      204, 227, 228, -1,
      204, 228, 203, -1,
      202, 203, 229, -1,
      229, 203, 228, -1,
      201, 202, 214, -1,
      214, 202, 229, -1,
      230, 231, 82, -1,
      82, 231, 83, -1,
      231, 232, 83, -1,
      83, 232, 59, -1,
      232, 233, 59, -1,
      59, 233, 45, -1,
      233, 234, 45, -1,
      45, 234, 44, -1,
      234, 235, 44, -1,
      44, 235, 31, -1,
      235, 236, 31, -1,
      31, 236, 32, -1,
      236, 237, 32, -1,
      32, 237, 33, -1,
      237, 238, 33, -1,
      33, 238, 34, -1,
      238, 239, 34, -1,
      34, 239, 35, -1,
      239, 240, 35, -1,
      35, 240, 80, -1,
      240, 241, 80, -1,
      80, 241, 81, -1,
      241, 230, 81, -1,
      81, 230, 82, -1,
      232, 231, 230, -1,
      230, 241, 232, -1,
      232, 241, 240, -1,
      232, 240, 233, -1,
      235, 234, 236, -1,
      236, 234, 233, -1,
      236, 233, 237, -1,
      237, 233, 240, -1,
      237, 240, 238, -1,
      238, 240, 239, -1,
      242, 243, 42, -1,
      42, 243, 60, -1,
      60, 243, 244, -1,
      245, 87, 86, -1,
      245, 86, 246, -1,
      246, 86, 84, -1,
      246, 84, 244, -1,
      244, 84, 85, -1,
      244, 85, 60, -1,
      247, 76, 75, -1,
      247, 75, 248, -1,
      248, 75, 53, -1,
      248, 53, 249, -1,
      249, 53, 37, -1,
      249, 37, 250, -1,
      250, 37, 36, -1,
      250, 36, 251, -1,
      251, 36, 62, -1,
      251, 62, 252, -1,
      252, 62, 61, -1,
      252, 61, 253, -1,
      253, 61, 245, -1,
      245, 61, 39, -1,
      245, 39, 87, -1,
      254, 56, 55, -1,
      254, 55, 255, -1,
      255, 55, 51, -1,
      255, 51, 256, -1,
      256, 51, 50, -1,
      256, 50, 257, -1,
      257, 50, 49, -1,
      257, 49, 258, -1,
      258, 49, 48, -1,
      258, 48, 259, -1,
      259, 48, 77, -1,
      259, 77, 260, -1,
      260, 77, 76, -1,
      260, 76, 247, -1,
      261, 58, 57, -1,
      261, 57, 262, -1,
      262, 57, 56, -1,
      262, 56, 254, -1,
      261, 263, 58, -1,
      58, 263, 43, -1,
      264, 28, 41, -1,
      264, 41, 265, -1,
      265, 41, 43, -1,
      265, 43, 263, -1,
      266, 66, 79, -1,
      266, 79, 267, -1,
      267, 79, 78, -1,
      267, 78, 268, -1,
      268, 78, 65, -1,
      268, 65, 269, -1,
      269, 65, 64, -1,
      269, 64, 270, -1,
      270, 64, 63, -1,
      270, 63, 271, -1,
      271, 63, 29, -1,
      271, 29, 272, -1,
      272, 29, 28, -1,
      272, 28, 264, -1,
      273, 70, 69, -1,
      273, 69, 274, -1,
      274, 69, 71, -1,
      274, 71, 275, -1,
      275, 71, 72, -1,
      275, 72, 276, -1,
      276, 72, 73, -1,
      276, 73, 277, -1,
      277, 73, 68, -1,
      277, 68, 278, -1,
      278, 68, 67, -1,
      278, 67, 279, -1,
      279, 67, 66, -1,
      279, 66, 266, -1,
      242, 42, 30, -1,
      242, 30, 280, -1,
      280, 30, 74, -1,
      280, 74, 281, -1,
      281, 74, 70, -1,
      281, 70, 273, -1,
      274, 245, 273, -1,
      273, 245, 246, -1,
      273, 246, 281, -1,
      281, 246, 244, -1,
      281, 244, 280, -1,
      280, 244, 243, -1,
      280, 243, 242, -1,
      263, 261, 265, -1,
      265, 261, 262, -1,
      265, 262, 264, -1,
      264, 262, 254, -1,
      264, 254, 272, -1,
      272, 254, 255, -1,
      272, 255, 271, -1,
      271, 255, 256, -1,
      271, 256, 270, -1,
      270, 256, 257, -1,
      270, 257, 269, -1,
      269, 257, 258, -1,
      269, 258, 268, -1,
      268, 258, 259, -1,
      268, 259, 267, -1,
      267, 259, 260, -1,
      267, 260, 266, -1,
      266, 260, 247, -1,
      266, 247, 279, -1,
      279, 247, 248, -1,
      279, 248, 278, -1,
      278, 248, 249, -1,
      278, 249, 277, -1,
      277, 249, 250, -1,
      277, 250, 276, -1,
      276, 250, 251, -1,
      276, 251, 275, -1,
      275, 251, 252, -1,
      275, 252, 274, -1,
      274, 252, 253, -1,
      274, 253, 245, -1,
      282, 283, 52, -1,
      52, 283, 38, -1,
      283, 284, 38, -1,
      38, 284, 40, -1,
      284, 285, 40, -1,
      40, 285, 46, -1,
      285, 286, 46, -1,
      46, 286, 47, -1,
      286, 287, 47, -1,
      47, 287, 54, -1,
      287, 282, 54, -1,
      54, 282, 52, -1,
      286, 285, 287, -1,
      287, 285, 284, -1,
      287, 284, 282, -1,
      282, 284, 283, -1,
    ]
  }
}

Shape {
  appearance Appearance {
    material Material {
      diffuseColor 1.0000 1.0000 1.0000
      specularColor 0.5020 0.5020 0.5020
      ambientIntensity 0.2
      transparency 0.0000
      shininess 0.5
    }
  }
  geometry IndexedFaceSet {
    ccw TRUE
    solid FALSE
    coord DEF co Coordinate {
      point [
        -0.088994 -0.011574 -0.248031,
        -0.108743 -0.011574 -0.248031,
        -0.097806 0.013093 -0.248031,
        -0.098374 0.015141 -0.248031,
        -0.098751 0.017233 -0.248031,
        -0.098942 0.017233 -0.248031,
        -0.099327 0.015147 -0.248031,
        -0.099854 0.013093 -0.248031,
        -0.037501 0.017954 -0.248031,
        -0.028791 0.017954 -0.248031,
        -0.044491 0.017211 -0.248031,
        -0.049365 0.015505 -0.248031,
        -0.053679 0.012718 -0.248031,
        -0.056548 0.009672 -0.248031,
        -0.058599 0.006030 -0.248031,
        -0.059978 0.001359 -0.248031,
        -0.060480 -0.004518 -0.248031,
        -0.059937 -0.010721 -0.248031,
        -0.058205 -0.016272 -0.248031,
        -0.055715 -0.020344 -0.248031,
        -0.052402 -0.023615 -0.248031,
        -0.048375 -0.026007 -0.248031,
        -0.043405 -0.027558 -0.248031,
        -0.037175 -0.028138 -0.248031,
        -0.028791 -0.028138 -0.248031,
      ]
    }
    coordIndex [
      0, 1, 2, -1,
      2, 1, 7, -1,
      2, 7, 3, -1,
      3, 7, 6, -1,
      3, 6, 4, -1,
      4, 6, 5, -1,
      9, 24, 8, -1,
      8, 24, 23, -1,
      8, 23, 22, -1,
      16, 15, 8, -1,
      8, 15, 14, -1,
      8, 14, 10, -1,
      22, 21, 8, -1,
      8, 21, 20, -1,
      8, 20, 19, -1,
      19, 18, 8, -1,
      8, 18, 17, -1,
      8, 17, 16, -1,
      13, 12, 14, -1,
      14, 12, 11, -1,
      14, 11, 10, -1,
    ]
  }
}

Shape {
  appearance Appearance {
    material Material {
      diffuseColor 0.8549 0.8549 0.8549
      specularColor 0.4275 0.4275 0.4275
      ambientIntensity 0.2
      transparency 0.0000
      shininess 0.5
    }
  }
  geometry IndexedFaceSet {
    ccw TRUE
    solid FALSE
    coord DEF co Coordinate {
      point [
        -0.467480 -0.314961 0.240157,
        -0.614173 -0.314961 0.240157,
        -0.614173 -0.314961 -0.240157,
        -0.468465 -0.307087 0.253796,
        -0.467583 -0.303289 0.255369,
        -0.466650 -0.299213 0.255906,
        -0.614173 0.299213 0.255906,
        -0.614173 -0.299213 0.255906,
        -0.614173 0.299213 -0.255906,
        -0.614173 0.303289 -0.255369,
        -0.614173 0.307087 -0.253796,
        -0.614173 0.310348 -0.251293,
        -0.614173 0.312851 -0.248031,
        -0.614173 0.314424 -0.244233,
        -0.614173 0.314961 -0.240157,
        -0.614173 0.314961 0.240157,
        -0.614173 0.314424 0.244233,
        -0.614173 0.312851 0.248031,
        -0.614173 0.310348 0.251293,
        -0.614173 0.307087 0.253796,
        -0.614173 0.303289 0.255369,
        -0.614173 -0.299213 -0.255906,
        -0.614173 -0.303289 -0.255369,
        -0.614173 -0.307087 -0.253796,
        -0.614173 -0.310348 -0.251293,
        -0.614173 -0.312851 -0.248031,
        -0.614173 -0.314424 -0.244233,
        -0.469825 -0.307087 0.253796,
        -0.629921 0.299213 -0.240157,
        -0.629921 -0.299213 -0.240157,
        -0.629921 0.299213 0.240157,
        -0.629921 -0.299213 0.240157,
        -0.614173 -0.303289 0.255369,
        -0.614173 -0.307087 0.253796,
        -0.614173 -0.310348 0.251293,
        -0.469825 -0.310348 0.251293,
        -0.614173 -0.312851 0.248031,
        -0.469825 -0.312851 0.248031,
        -0.614173 -0.314424 0.244233,
        -0.468683 -0.314424 0.244233,
        -0.618249 -0.314424 0.240157,
        -0.618249 -0.314424 -0.240157,
        -0.622047 -0.312851 0.240157,
        -0.622047 -0.312851 -0.240157,
        -0.625309 -0.310348 0.240157,
        -0.625309 -0.310348 -0.240157,
        -0.627811 -0.307087 0.240157,
        -0.627811 -0.307087 -0.240157,
        -0.629385 -0.303289 0.240157,
        -0.629385 -0.303289 -0.240157,
        -0.618110 -0.313906 -0.244233,
        -0.621779 -0.312386 -0.244233,
        -0.617703 -0.312386 -0.248031,
        -0.620992 -0.311024 -0.248031,
        -0.617056 -0.309969 -0.251293,
        -0.619741 -0.308856 -0.251293,
        -0.616211 -0.306819 -0.253796,
        -0.618110 -0.306032 -0.253796,
        -0.615228 -0.303150 -0.255369,
        -0.616211 -0.302743 -0.255369,
        -0.624929 -0.309969 -0.244233,
        -0.623817 -0.308856 -0.248031,
        -0.622047 -0.307087 -0.251293,
        -0.619741 -0.304780 -0.253796,
        -0.617056 -0.302095 -0.255369,
        -0.627347 -0.306819 -0.244233,
        -0.628867 -0.303150 -0.244233,
        -0.625984 -0.306032 -0.248031,
        -0.627347 -0.302743 -0.248031,
        -0.623817 -0.304780 -0.251293,
        -0.624929 -0.302095 -0.251293,
        -0.620992 -0.303150 -0.253796,
        -0.621779 -0.301250 -0.253796,
        -0.617703 -0.301250 -0.255369,
        -0.618110 -0.300268 -0.255369,
        -0.629385 -0.299213 -0.244233,
        -0.627811 -0.299213 -0.248031,
        -0.625309 -0.299213 -0.251293,
        -0.622047 -0.299213 -0.253796,
        -0.618249 -0.299213 -0.255369,
        -0.618110 -0.313906 0.244233,
        -0.618110 -0.306032 0.253796,
        -0.616211 -0.302743 0.255369,
        -0.617056 -0.302095 0.255369,
        -0.618249 -0.299213 0.255369,
        -0.618110 -0.300268 0.255369,
        -0.615228 -0.303150 0.255369,
        -0.616211 -0.306819 0.253796,
        -0.617056 -0.309969 0.251293,
        -0.619741 -0.304780 0.253796,
        -0.617703 -0.301250 0.255369,
        -0.620992 -0.303150 0.253796,
        -0.621779 -0.301250 0.253796,
        -0.622047 -0.299213 0.253796,
        -0.619741 -0.308856 0.251293,
        -0.622047 -0.307087 0.251293,
        -0.623817 -0.304780 0.251293,
        -0.624929 -0.302095 0.251293,
        -0.625309 -0.299213 0.251293,
        -0.617703 -0.312386 0.248031,
        -0.620992 -0.311024 0.248031,
        -0.623817 -0.308856 0.248031,
        -0.625984 -0.306032 0.248031,
        -0.627347 -0.302743 0.248031,
        -0.627811 -0.299213 0.248031,
        -0.621779 -0.312386 0.244233,
        -0.624929 -0.309969 0.244233,
        -0.627347 -0.306819 0.244233,
        -0.628867 -0.303150 0.244233,
        -0.629385 -0.299213 0.244233,
        -0.618249 0.299213 -0.255369,
        -0.622047 0.299213 -0.253796,
        -0.625309 0.299213 -0.251293,
        -0.627811 0.299213 -0.248031,
        -0.629385 0.299213 -0.244233,
        -0.618249 0.299213 0.255369,
        -0.622047 0.299213 0.253796,
        -0.625309 0.299213 0.251293,
        -0.627811 0.299213 0.248031,
        -0.629385 0.299213 0.244233,
        -0.629385 0.303289 -0.240157,
        -0.627811 0.307087 -0.240157,
        -0.628867 0.303150 -0.244233,
        -0.627347 0.306819 -0.244233,
        -0.627347 0.302743 -0.248031,
        -0.625984 0.306032 -0.248031,
        -0.624929 0.302095 -0.251293,
        -0.623817 0.304780 -0.251293,
        -0.621779 0.301250 -0.253796,
        -0.620992 0.303150 -0.253796,
        -0.618110 0.300268 -0.255369,
        -0.617703 0.301250 -0.255369,
        -0.625309 0.310348 -0.240157,
        -0.624929 0.309969 -0.244233,
        -0.623817 0.308856 -0.248031,
        -0.622047 0.307087 -0.251293,
        -0.619741 0.304780 -0.253796,
        -0.617056 0.302095 -0.255369,
        -0.622047 0.312851 -0.240157,
        -0.618249 0.314424 -0.240157,
        -0.621779 0.312386 -0.244233,
        -0.618110 0.313906 -0.244233,
        -0.620992 0.311024 -0.248031,
        -0.617703 0.312386 -0.248031,
        -0.619741 0.308856 -0.251293,
        -0.617056 0.309969 -0.251293,
        -0.618110 0.306032 -0.253796,
        -0.616211 0.306819 -0.253796,
        -0.616211 0.302743 -0.255369,
        -0.615228 0.303150 -0.255369,
        -0.628867 0.303150 0.244233,
        -0.620992 0.303150 0.253796,
        -0.617703 0.301250 0.255369,
        -0.617056 0.302095 0.255369,
        -0.615228 0.303150 0.255369,
        -0.618110 0.300268 0.255369,
        -0.621779 0.301250 0.253796,
        -0.624929 0.302095 0.251293,
        -0.619741 0.304780 0.253796,
        -0.616211 0.302743 0.255369,
        -0.618110 0.306032 0.253796,
        -0.616211 0.306819 0.253796,
        -0.623817 0.304780 0.251293,
        -0.622047 0.307087 0.251293,
        -0.619741 0.308856 0.251293,
        -0.617056 0.309969 0.251293,
        -0.627347 0.302743 0.248031,
        -0.625984 0.306032 0.248031,
        -0.623817 0.308856 0.248031,
        -0.620992 0.311024 0.248031,
        -0.617703 0.312386 0.248031,
        -0.627347 0.306819 0.244233,
        -0.624929 0.309969 0.244233,
        -0.621779 0.312386 0.244233,
        -0.618110 0.313906 0.244233,
        -0.629385 0.303289 0.240157,
        -0.627811 0.307087 0.240157,
        -0.625309 0.310348 0.240157,
        -0.622047 0.312851 0.240157,
        -0.618249 0.314424 0.240157,
      ]
    }
    coordIndex [
      28, 29, 30, -1,
      30, 29, 31, -1,
      5, 7, 32, -1,
      5, 32, 4, -1,
      4, 32, 27, -1,
      4, 27, 3, -1,
      32, 33, 27, -1,
      27, 33, 34, -1,
      27, 34, 35, -1,
      35, 34, 36, -1,
      35, 36, 37, -1,
      37, 36, 38, -1,
      37, 38, 39, -1,
      39, 38, 1, -1,
      39, 1, 0, -1,
      2, 1, 40, -1,
      2, 40, 41, -1,
      41, 40, 42, -1,
      41, 42, 43, -1,
      43, 42, 44, -1,
      43, 44, 45, -1,
      45, 44, 46, -1,
      45, 46, 47, -1,
      47, 46, 48, -1,
      47, 48, 49, -1,
      49, 48, 31, -1,
      49, 31, 29, -1,
      41, 43, 50, -1,
      50, 43, 51, -1,
      50, 51, 52, -1,
      52, 51, 53, -1,
      52, 53, 54, -1,
      54, 53, 55, -1,
      54, 55, 56, -1,
      56, 55, 57, -1,
      56, 57, 58, -1,
      58, 57, 59, -1,
      58, 59, 21, -1,
      43, 45, 51, -1,
      51, 45, 60, -1,
      51, 60, 53, -1,
      53, 60, 61, -1,
      53, 61, 55, -1,
      55, 61, 62, -1,
      55, 62, 57, -1,
      57, 62, 63, -1,
      57, 63, 59, -1,
      59, 63, 64, -1,
      59, 64, 21, -1,
      2, 41, 26, -1,
      26, 41, 50, -1,
      26, 50, 25, -1,
      25, 50, 52, -1,
      25, 52, 24, -1,
      24, 52, 54, -1,
      24, 54, 23, -1,
      23, 54, 56, -1,
      23, 56, 22, -1,
      22, 56, 58, -1,
      22, 58, 21, -1,
      47, 49, 65, -1,
      65, 49, 66, -1,
      65, 66, 67, -1,
      67, 66, 68, -1,
      67, 68, 69, -1,
      69, 68, 70, -1,
      69, 70, 71, -1,
      71, 70, 72, -1,
      71, 72, 73, -1,
      73, 72, 74, -1,
      73, 74, 21, -1,
      49, 29, 66, -1,
      66, 29, 75, -1,
      66, 75, 68, -1,
      68, 75, 76, -1,
      68, 76, 70, -1,
      70, 76, 77, -1,
      70, 77, 72, -1,
      72, 77, 78, -1,
      72, 78, 74, -1,
      74, 78, 79, -1,
      74, 79, 21, -1,
      45, 47, 60, -1,
      60, 47, 65, -1,
      60, 65, 61, -1,
      61, 65, 67, -1,
      61, 67, 62, -1,
      62, 67, 69, -1,
      62, 69, 63, -1,
      63, 69, 71, -1,
      63, 71, 64, -1,
      64, 71, 73, -1,
      64, 73, 21, -1,
      1, 38, 80, -1,
      81, 82, 83, -1,
      7, 84, 85, -1,
      83, 82, 7, -1,
      86, 7, 82, -1,
      86, 82, 87, -1,
      87, 82, 81, -1,
      87, 81, 88, -1,
      32, 7, 86, -1,
      89, 90, 91, -1,
      91, 90, 85, -1,
      91, 85, 92, -1,
      92, 85, 84, -1,
      92, 84, 93, -1,
      32, 86, 33, -1,
      33, 86, 87, -1,
      33, 87, 34, -1,
      34, 87, 88, -1,
      34, 88, 36, -1,
      94, 89, 95, -1,
      95, 89, 91, -1,
      95, 91, 96, -1,
      96, 91, 92, -1,
      96, 92, 97, -1,
      97, 92, 93, -1,
      97, 93, 98, -1,
      99, 94, 100, -1,
      100, 94, 95, -1,
      100, 95, 101, -1,
      101, 95, 96, -1,
      101, 96, 102, -1,
      102, 96, 97, -1,
      102, 97, 103, -1,
      103, 97, 98, -1,
      103, 98, 104, -1,
      38, 99, 80, -1,
      80, 99, 100, -1,
      80, 100, 105, -1,
      105, 100, 101, -1,
      105, 101, 106, -1,
      106, 101, 102, -1,
      106, 102, 107, -1,
      107, 102, 103, -1,
      107, 103, 108, -1,
      108, 103, 104, -1,
      108, 104, 109, -1,
      1, 80, 40, -1,
      40, 80, 105, -1,
      40, 105, 42, -1,
      42, 105, 106, -1,
      42, 106, 44, -1,
      44, 106, 107, -1,
      44, 107, 46, -1,
      46, 107, 108, -1,
      46, 108, 48, -1,
      48, 108, 109, -1,
      48, 109, 31, -1,
      90, 7, 85, -1,
      38, 36, 99, -1,
      99, 36, 88, -1,
      99, 88, 94, -1,
      94, 88, 81, -1,
      94, 81, 89, -1,
      89, 81, 83, -1,
      89, 83, 90, -1,
      90, 83, 7, -1,
      8, 21, 79, -1,
      8, 79, 110, -1,
      110, 79, 78, -1,
      110, 78, 111, -1,
      111, 78, 77, -1,
      111, 77, 112, -1,
      112, 77, 76, -1,
      112, 76, 113, -1,
      113, 76, 75, -1,
      113, 75, 114, -1,
      114, 75, 29, -1,
      114, 29, 28, -1,
      7, 6, 115, -1,
      7, 115, 84, -1,
      84, 115, 116, -1,
      84, 116, 93, -1,
      93, 116, 117, -1,
      93, 117, 98, -1,
      98, 117, 118, -1,
      98, 118, 104, -1,
      104, 118, 119, -1,
      104, 119, 109, -1,
      109, 119, 30, -1,
      109, 30, 31, -1,
      120, 121, 122, -1,
      122, 121, 123, -1,
      122, 123, 124, -1,
      124, 123, 125, -1,
      124, 125, 126, -1,
      126, 125, 127, -1,
      126, 127, 128, -1,
      128, 127, 129, -1,
      128, 129, 130, -1,
      130, 129, 131, -1,
      130, 131, 8, -1,
      121, 132, 123, -1,
      123, 132, 133, -1,
      123, 133, 125, -1,
      125, 133, 134, -1,
      125, 134, 127, -1,
      127, 134, 135, -1,
      127, 135, 129, -1,
      129, 135, 136, -1,
      129, 136, 131, -1,
      131, 136, 137, -1,
      131, 137, 8, -1,
      28, 120, 114, -1,
      114, 120, 122, -1,
      114, 122, 113, -1,
      113, 122, 124, -1,
      113, 124, 112, -1,
      112, 124, 126, -1,
      112, 126, 111, -1,
      111, 126, 128, -1,
      111, 128, 110, -1,
      110, 128, 130, -1,
      110, 130, 8, -1,
      138, 139, 140, -1,
      140, 139, 141, -1,
      140, 141, 142, -1,
      142, 141, 143, -1,
      142, 143, 144, -1,
      144, 143, 145, -1,
      144, 145, 146, -1,
      146, 145, 147, -1,
      146, 147, 148, -1,
      148, 147, 149, -1,
      148, 149, 8, -1,
      139, 14, 141, -1,
      141, 14, 13, -1,
      141, 13, 143, -1,
      143, 13, 12, -1,
      143, 12, 145, -1,
      145, 12, 11, -1,
      145, 11, 147, -1,
      147, 11, 10, -1,
      147, 10, 149, -1,
      149, 10, 9, -1,
      149, 9, 8, -1,
      132, 138, 133, -1,
      133, 138, 140, -1,
      133, 140, 134, -1,
      134, 140, 142, -1,
      134, 142, 135, -1,
      135, 142, 144, -1,
      135, 144, 136, -1,
      136, 144, 146, -1,
      136, 146, 137, -1,
      137, 146, 148, -1,
      137, 148, 8, -1,
      30, 119, 150, -1,
      151, 152, 153, -1,
      6, 20, 154, -1,
      153, 152, 6, -1,
      155, 6, 152, -1,
      155, 152, 156, -1,
      156, 152, 151, -1,
      156, 151, 157, -1,
      115, 6, 155, -1,
      158, 159, 160, -1,
      160, 159, 154, -1,
      160, 154, 161, -1,
      161, 154, 20, -1,
      161, 20, 19, -1,
      115, 155, 116, -1,
      116, 155, 156, -1,
      116, 156, 117, -1,
      117, 156, 157, -1,
      117, 157, 118, -1,
      162, 158, 163, -1,
      163, 158, 160, -1,
      163, 160, 164, -1,
      164, 160, 161, -1,
      164, 161, 165, -1,
      165, 161, 19, -1,
      165, 19, 18, -1,
      166, 162, 167, -1,
      167, 162, 163, -1,
      167, 163, 168, -1,
      168, 163, 164, -1,
      168, 164, 169, -1,
      169, 164, 165, -1,
      169, 165, 170, -1,
      170, 165, 18, -1,
      170, 18, 17, -1,
      119, 166, 150, -1,
      150, 166, 167, -1,
      150, 167, 171, -1,
      171, 167, 168, -1,
      171, 168, 172, -1,
      172, 168, 169, -1,
      172, 169, 173, -1,
      173, 169, 170, -1,
      173, 170, 174, -1,
      174, 170, 17, -1,
      174, 17, 16, -1,
      30, 150, 175, -1,
      175, 150, 171, -1,
      175, 171, 176, -1,
      176, 171, 172, -1,
      176, 172, 177, -1,
      177, 172, 173, -1,
      177, 173, 178, -1,
      178, 173, 174, -1,
      178, 174, 179, -1,
      179, 174, 16, -1,
      179, 16, 15, -1,
      159, 6, 154, -1,
      119, 118, 166, -1,
      166, 118, 157, -1,
      166, 157, 162, -1,
      162, 157, 151, -1,
      162, 151, 158, -1,
      158, 151, 153, -1,
      158, 153, 159, -1,
      159, 153, 6, -1,
      15, 14, 139, -1,
      15, 139, 179, -1,
      179, 139, 138, -1,
      179, 138, 178, -1,
      178, 138, 132, -1,
      178, 132, 177, -1,
      177, 132, 121, -1,
      177, 121, 176, -1,
      176, 121, 120, -1,
      176, 120, 175, -1,
      175, 120, 28, -1,
      175, 28, 30, -1,
    ]
  }
}

Shape {
  appearance Appearance {
    material Material {
      diffuseColor 1.0000 1.0000 1.0000
      specularColor 0.8784 0.8784 0.8784
      ambientIntensity 0.2
      transparency 0.0000
      shininess 0.5
    }
  }
  geometry IndexedFaceSet {
    ccw TRUE
    solid FALSE
    coord DEF co Coordinate {
      point [
        -0.451889 -0.307087 -0.178427,
        -0.465217 -0.307087 -0.232283,
        -0.439861 -0.307087 -0.107563,
        -0.433826 -0.307087 -0.035939,
        -0.433826 -0.307087 0.035939,
        -0.439861 -0.307087 0.107563,
        -0.451889 -0.307087 0.178427,
        -0.465217 -0.307087 0.232283,
        -0.469825 -0.307087 -0.253796,
        -0.469825 -0.307087 -0.248031,
        -0.468465 -0.307087 -0.243498,
        -0.439861 0.307087 -0.107563,
        -0.451889 0.307087 -0.178427,
        -0.465217 0.307087 -0.232283,
        -0.465217 0.307087 0.232283,
        -0.433826 0.307087 -0.035939,
        -0.433826 0.307087 0.035939,
        -0.439861 0.307087 0.107563,
        -0.451889 0.307087 0.178427,
        -0.468465 0.307087 -0.243498,
        -0.469825 0.307087 -0.248031,
        -0.469825 0.307087 -0.253796,
        -0.467809 0.304265 -0.241278,
        -0.467809 -0.304265 -0.241278,
        -0.451889 -0.314961 0.178427,
        -0.467480 -0.314961 0.240157,
        -0.467480 -0.314961 -0.240157,
        -0.451889 -0.314961 -0.178427,
        -0.439861 -0.314961 0.107563,
        -0.439861 -0.314961 -0.107563,
        -0.433826 -0.314961 -0.035939,
        -0.433826 -0.314961 0.035939,
        -0.468465 -0.307087 0.243498,
        -0.467809 -0.304265 0.241278,
        -0.467809 0.304265 0.241278,
        -0.468465 0.307087 0.243498,
        -0.469825 0.310348 -0.251293,
        -0.469825 0.312851 -0.248031,
        -0.468683 0.314424 -0.244233,
        -0.467480 0.314961 -0.240157,
        -0.451889 0.314961 -0.178427,
        -0.439861 0.314961 -0.107563,
        -0.467480 0.314961 0.240157,
        -0.451889 0.314961 0.178427,
        -0.439861 0.314961 0.107563,
        -0.433826 0.314961 0.035939,
        -0.433826 0.314961 -0.035939,
        -0.469825 0.307087 0.253796,
        -0.468683 0.314424 0.244233,
        -0.469825 0.312851 0.248031,
        -0.469825 0.310348 0.251293,
        -0.469825 -0.310348 -0.251293,
        -0.469825 -0.312851 -0.248031,
        -0.468683 -0.314424 -0.244233,
        -0.469825 0.307087 0.248031,
        -0.469825 -0.307087 0.248031,
        -0.469825 -0.307087 0.253796,
        -0.469825 -0.310348 0.251293,
        -0.469825 -0.312851 0.248031,
        -0.468683 -0.314424 0.244233,
        -0.467480 0.304977 0.240157,
        -0.466378 0.306550 0.236359,
        -0.467480 0.304977 -0.240157,
        -0.466378 0.306550 -0.236359,
        -0.467480 -0.304977 0.240157,
        -0.466378 -0.306550 0.236359,
        -0.467480 -0.304977 -0.240157,
        -0.466378 -0.306550 -0.236359,
      ]
    }
    coordIndex [
      49, 54, 48, -1,
      48, 54, 35, -1,
      48, 35, 42, -1,
      42, 35, 34, -1,
      42, 34, 60, -1,
      60, 61, 42, -1,
      42, 61, 14, -1,
      42, 14, 43, -1,
      62, 22, 19, -1,
      13, 63, 39, -1,
      13, 39, 12, -1,
      63, 62, 39, -1,
      39, 62, 19, -1,
      39, 19, 38, -1,
      38, 19, 20, -1,
      38, 20, 37, -1,
      14, 18, 43, -1,
      43, 18, 17, -1,
      43, 17, 44, -1,
      44, 17, 16, -1,
      44, 16, 45, -1,
      45, 16, 15, -1,
      45, 15, 46, -1,
      46, 15, 11, -1,
      46, 11, 41, -1,
      41, 11, 12, -1,
      41, 12, 40, -1,
      40, 12, 39, -1,
      47, 54, 50, -1,
      50, 54, 49, -1,
      37, 20, 36, -1,
      36, 20, 21, -1,
      64, 33, 32, -1,
      7, 65, 25, -1,
      7, 25, 6, -1,
      65, 64, 25, -1,
      25, 64, 32, -1,
      25, 32, 59, -1,
      59, 32, 55, -1,
      59, 55, 58, -1,
      27, 2, 29, -1,
      29, 2, 3, -1,
      29, 3, 30, -1,
      30, 3, 4, -1,
      30, 4, 31, -1,
      31, 4, 5, -1,
      31, 5, 28, -1,
      28, 5, 6, -1,
      28, 6, 24, -1,
      24, 6, 25, -1,
      52, 9, 53, -1,
      53, 9, 10, -1,
      53, 10, 26, -1,
      26, 10, 23, -1,
      26, 23, 66, -1,
      66, 67, 26, -1,
      26, 67, 1, -1,
      26, 1, 27, -1,
      27, 1, 0, -1,
      27, 0, 2, -1,
      8, 9, 51, -1,
      51, 9, 52, -1,
      58, 55, 57, -1,
      57, 55, 56, -1,
    ]
  }
}

Shape {
  appearance Appearance {
    material Material {
      diffuseColor 1.0000 1.0000 1.0000
      specularColor 0.5020 0.5020 0.5020
      ambientIntensity 0.2
      transparency 0.0000
      shininess 0.5
    }
  }
  geometry IndexedFaceSet {
    ccw TRUE
    solid FALSE
    coord DEF co Coordinate {
      point [
        0.464885 0.291339 0.248031,
        -0.464885 0.291339 0.248031,
        -0.464885 -0.291339 0.248031,
        0.464885 -0.291339 0.248031,
        -0.465217 -0.307087 -0.232283,
        0.465217 -0.307087 -0.232283,
        -0.465217 -0.307087 0.232283,
        0.465217 -0.307087 0.232283,
        0.465217 0.307087 -0.232283,
        -0.465217 0.307087 -0.232283,
        -0.465217 0.307087 0.232283,
        0.465217 0.307087 0.232283,
        -0.015108 -0.291339 -0.248031,
        0.464885 -0.291339 -0.248031,
        -0.015108 0.291339 -0.248031,
        0.464885 0.291339 -0.248031,
        -0.464885 0.291339 -0.248031,
        -0.464885 -0.291339 -0.248031,
        -0.467809 0.304265 -0.241278,
        -0.467396 0.302474 -0.243419,
        -0.466650 0.299213 -0.245922,
        -0.465793 0.295415 -0.247495,
        -0.467809 -0.304265 -0.241278,
        -0.467396 -0.302474 -0.243419,
        -0.466650 -0.299213 -0.245922,
        -0.465793 -0.295415 -0.247495,
        -0.467809 -0.304265 0.241278,
        -0.467396 -0.302474 0.243419,
        -0.466650 -0.299213 0.245922,
        -0.465793 -0.295415 0.247495,
        -0.467809 0.304265 0.241278,
        -0.467396 0.302474 0.243419,
        -0.466650 0.299213 0.245922,
        -0.465793 0.295415 0.247495,
        0.467809 -0.304265 -0.241278,
        0.467396 -0.302474 -0.243419,
        0.466650 -0.299213 -0.245922,
        0.465793 -0.295415 -0.247495,
        0.467809 0.304265 -0.241278,
        0.467396 0.302474 -0.243419,
        0.466650 0.299213 -0.245922,
        0.465793 0.295415 -0.247495,
        0.467809 0.304265 0.241278,
        0.467396 0.302474 0.243419,
        0.466650 0.299213 0.245922,
        0.465793 0.295415 0.247495,
        0.467809 -0.304265 0.241278,
        0.467396 -0.302474 0.243419,
        0.466650 -0.299213 0.245922,
        0.465793 -0.295415 0.247495,
        0.467480 0.304977 0.240157,
        0.466378 0.306550 0.236359,
        0.467480 0.304977 -0.240157,
        0.466378 0.306550 -0.236359,
        0.467480 -0.304977 0.240157,
        0.466378 -0.306550 0.236359,
        0.467480 -0.304977 -0.240157,
        0.466378 -0.306550 -0.236359,
        -0.467480 0.304977 0.240157,
        -0.466378 0.306550 0.236359,
        -0.467480 0.304977 -0.240157,
        -0.466378 0.306550 -0.236359,
        -0.467480 -0.304977 0.240157,
        -0.466378 -0.306550 0.236359,
        -0.467480 -0.304977 -0.240157,
        -0.466378 -0.306550 -0.236359,
      ]
    }
    coordIndex [
      14, 16, 21, -1,
      41, 20, 40, -1,
      40, 20, 19, -1,
      40, 19, 39, -1,
      39, 19, 18, -1,
      39, 18, 38, -1,
      38, 18, 60, -1,
      38, 60, 52, -1,
      52, 60, 61, -1,
      52, 61, 53, -1,
      53, 61, 9, -1,
      53, 9, 8, -1,
      15, 14, 41, -1,
      41, 14, 21, -1,
      41, 21, 20, -1,
      5, 4, 65, -1,
      25, 17, 12, -1,
      5, 65, 57, -1,
      57, 65, 64, -1,
      57, 64, 56, -1,
      56, 64, 22, -1,
      56, 22, 34, -1,
      34, 22, 23, -1,
      34, 23, 35, -1,
      35, 23, 24, -1,
      35, 24, 36, -1,
      36, 24, 25, -1,
      36, 25, 37, -1,
      37, 25, 12, -1,
      37, 12, 13, -1,
      6, 7, 55, -1,
      6, 55, 63, -1,
      63, 55, 54, -1,
      63, 54, 62, -1,
      62, 54, 46, -1,
      62, 46, 26, -1,
      26, 46, 47, -1,
      26, 47, 27, -1,
      27, 47, 48, -1,
      27, 48, 28, -1,
      28, 48, 49, -1,
      28, 49, 29, -1,
      29, 49, 3, -1,
      29, 3, 2, -1,
      11, 10, 59, -1,
      11, 59, 51, -1,
      51, 59, 58, -1,
      51, 58, 50, -1,
      50, 58, 30, -1,
      50, 30, 42, -1,
      42, 30, 31, -1,
      42, 31, 43, -1,
      43, 31, 32, -1,
      43, 32, 44, -1,
      44, 32, 33, -1,
      44, 33, 45, -1,
      45, 33, 1, -1,
      45, 1, 0, -1,
    ]
  }
}
