#VRML V2.0 utf8

Shape {
  appearance Appearance {
    material Material {
      diffuseColor 0.2510 0.2510 0.2510
      specularColor 0.1255 0.1255 0.1255
      ambientIntensity 0.2
      transparency 0.0000
      shininess 0.5
    }
  }
  geometry IndexedFaceSet {
    ccw TRUE
    solid FALSE
    coord DEF co Coordinate {
      point [
        -0.053150 0.196850 -0.049213,
        -0.053150 0.231915 -0.049213,
        -0.019859 0.231915 -0.049213,
        0.409080 0.220149 -0.049213,
        0.409080 -0.018402 -0.049213,
        0.397314 0.231915 -0.049213,
        -0.019859 -0.018402 -0.049213,
        -0.016018 -0.018162 -0.049213,
        0.005108 -0.018162 -0.049213,
        -0.015057 0.016887 -0.049213,
        -0.016018 -0.013841 -0.049213,
        -0.015057 0.021208 -0.049213,
        0.012790 -0.016122 -0.049213,
        0.012790 -0.011800 -0.049213,
        0.005108 0.021208 -0.049213,
        -0.000174 -0.000398 -0.049213,
        -0.000174 -0.013841 -0.049213,
        -0.014097 -0.000398 -0.049213,
        -0.014097 0.003924 -0.049213,
        -0.000174 0.003924 -0.049213,
        -0.000174 0.016887 -0.049213,
        0.340551 0.231915 -0.049213,
        0.340551 0.196850 -0.049213,
        0.250000 0.196850 -0.049213,
        0.143701 0.196850 -0.049213,
        0.250000 0.231915 -0.049213,
        0.143701 0.231915 -0.049213,
        0.025886 0.016932 -0.049213,
        0.028833 0.015868 -0.049213,
        0.013495 -0.012191 -0.049213,
        0.031558 0.014045 -0.049213,
        0.033935 0.011420 -0.049213,
        0.036796 0.001103 -0.049213,
        0.036397 -0.003159 -0.049213,
        0.035328 -0.006546 -0.049213,
        0.026567 -0.013909 -0.049213,
        0.022895 -0.014321 -0.049213,
        0.029435 -0.012853 -0.049213,
        0.031852 -0.011224 -0.049213,
        0.033699 -0.009276 -0.049213,
        0.017669 -0.013741 -0.049213,
        0.032290 -0.016826 -0.049213,
        0.045438 -0.018162 -0.049213,
        0.028474 -0.018139 -0.049213,
        0.025938 -0.018402 -0.049213,
        0.065603 -0.018162 -0.049213,
        0.065603 0.021208 -0.049213,
        0.053150 0.196850 -0.049213,
        0.060322 0.021208 -0.049213,
        0.053150 0.231915 -0.049213,
        0.035559 0.008381 -0.049213,
        0.036608 0.004166 -0.049213,
        0.400365 0.231515 -0.049213,
        0.408186 0.224658 -0.049213,
        0.408680 0.223200 -0.049213,
        0.401824 0.231021 -0.049213,
        0.403204 0.230341 -0.049213,
        0.407507 0.226039 -0.049213,
        0.034137 0.017938 -0.049213,
        0.037692 0.014519 -0.049213,
        0.040000 0.010839 -0.049213,
        0.035457 -0.014804 -0.049213,
        0.038414 -0.011690 -0.049213,
        0.045438 -0.013841 -0.049213,
        0.040512 -0.007946 -0.049213,
        0.060322 -0.013841 -0.049213,
        0.406653 0.227318 -0.049213,
        0.404483 0.229488 -0.049213,
        0.405639 0.228474 -0.049213,
        0.041696 -0.003779 -0.049213,
        0.042077 0.000780 -0.049213,
        0.041511 0.006378 -0.049213,
        0.030398 0.020090 -0.049213,
        0.026009 0.021365 -0.049213,
        0.022055 0.021688 -0.049213,
        0.017342 0.021363 -0.049213,
        0.012790 0.020128 -0.049213,
        0.012790 0.014846 -0.049213,
        0.017224 0.016745 -0.049213,
        0.022009 0.017367 -0.049213,
        -0.034405 -0.018162 -0.049213,
        -0.023700 -0.018162 -0.049213,
        -0.023700 0.021208 -0.049213,
        -0.058269 -0.018162 -0.049213,
        -0.053422 -0.007372 -0.049213,
        -0.051164 -0.010893 -0.049213,
        -0.088036 -0.018162 -0.049213,
        -0.093798 -0.018162 -0.049213,
        -0.409080 -0.018402 -0.049213,
        -0.047924 -0.013996 -0.049213,
        -0.043813 -0.016385 -0.049213,
        -0.039276 -0.017737 -0.049213,
        -0.250000 0.231915 -0.049213,
        -0.143701 0.231915 -0.049213,
        -0.250000 0.196850 -0.049213,
        -0.143701 0.196850 -0.049213,
        -0.078433 0.021208 -0.049213,
        -0.340551 0.196850 -0.049213,
        -0.409080 0.220149 -0.049213,
        -0.340551 0.231915 -0.049213,
        -0.397314 0.231915 -0.049213,
        -0.064030 -0.018162 -0.049213,
        -0.067789 -0.007119 -0.049213,
        -0.084052 -0.007119 -0.049213,
        -0.408680 0.223200 -0.049213,
        -0.408186 0.224658 -0.049213,
        -0.400365 0.231515 -0.049213,
        -0.401824 0.231021 -0.049213,
        -0.034810 0.021208 -0.049213,
        -0.040498 0.020600 -0.049213,
        -0.073152 0.021208 -0.049213,
        -0.045104 0.018983 -0.049213,
        -0.049389 0.016111 -0.049213,
        -0.403204 0.230341 -0.049213,
        -0.407507 0.226039 -0.049213,
        -0.404483 0.229488 -0.049213,
        -0.406653 0.227318 -0.049213,
        -0.405639 0.228474 -0.049213,
        -0.049430 0.016075 -0.049213,
        -0.052215 0.012987 -0.049213,
        -0.054044 0.009602 -0.049213,
        -0.055102 0.005723 -0.049213,
        -0.055388 0.002018 -0.049213,
        -0.054835 -0.003251 -0.049213,
        -0.019859 -0.231915 -0.049213,
        -0.053150 -0.231915 -0.049213,
        -0.053150 -0.196850 -0.049213,
        -0.143701 -0.196850 -0.049213,
        -0.143701 -0.231915 -0.049213,
        -0.250000 -0.231915 -0.049213,
        -0.250000 -0.196850 -0.049213,
        -0.340551 -0.196850 -0.049213,
        -0.340551 -0.231915 -0.049213,
        -0.397314 -0.231915 -0.049213,
        -0.409080 -0.220149 -0.049213,
        -0.407507 -0.226039 -0.049213,
        -0.408186 -0.224658 -0.049213,
        -0.401824 -0.231021 -0.049213,
        -0.400365 -0.231515 -0.049213,
        -0.408680 -0.223200 -0.049213,
        -0.403204 -0.230341 -0.049213,
        -0.404483 -0.229488 -0.049213,
        -0.406653 -0.227318 -0.049213,
        -0.405639 -0.228474 -0.049213,
        0.397314 -0.231915 -0.049213,
        0.409080 -0.220149 -0.049213,
        0.340551 -0.196850 -0.049213,
        0.340551 -0.231915 -0.049213,
        0.250000 -0.231915 -0.049213,
        0.143701 -0.231915 -0.049213,
        0.250000 -0.196850 -0.049213,
        0.143701 -0.196850 -0.049213,
        0.408680 -0.223200 -0.049213,
        0.401824 -0.231021 -0.049213,
        0.400365 -0.231515 -0.049213,
        0.408186 -0.224658 -0.049213,
        0.407507 -0.226039 -0.049213,
        0.403204 -0.230341 -0.049213,
        0.016986 -0.017844 -0.049213,
        0.020965 -0.018402 -0.049213,
        0.053150 -0.196850 -0.049213,
        0.053150 -0.231915 -0.049213,
        0.022546 -0.018624 -0.049213,
        0.023622 -0.018642 -0.049213,
        0.404483 -0.229488 -0.049213,
        0.406653 -0.227318 -0.049213,
        0.405639 -0.228474 -0.049213,
        -0.143701 0.236220 0.000000,
        -0.250000 0.236220 0.000000,
        0.053150 0.236220 0.000000,
        -0.053150 0.236220 0.000000,
        0.143701 0.236220 0.000000,
        0.250000 0.236220 0.000000,
        0.401620 0.236220 0.000000,
        0.340551 0.236220 0.000000,
        0.401620 -0.236220 0.000000,
        0.340551 -0.236220 0.000000,
        0.250000 -0.236220 0.000000,
        0.143701 -0.236220 0.000000,
        0.053150 -0.236220 0.000000,
        -0.053150 -0.236220 0.000000,
        -0.143701 -0.236220 0.000000,
        -0.250000 -0.236220 0.000000,
        -0.401620 0.236220 0.000000,
        -0.340551 0.236220 0.000000,
        -0.401620 -0.236220 0.000000,
        -0.340551 -0.236220 0.000000,
        0.413386 0.224454 -0.000000,
        0.413386 -0.224454 0.000000,
        -0.413386 -0.224454 -0.000000,
        -0.413386 0.224454 0.000000,
        0.398829 0.209898 0.166384,
        0.398829 -0.209898 0.166384,
        0.387063 0.221664 0.166384,
        -0.387063 0.221664 0.166384,
        -0.398829 0.209898 0.166384,
        -0.398829 -0.209898 0.166384,
        -0.387063 -0.221664 0.166384,
        0.387063 -0.221664 0.166384,
        -0.261720 -0.142476 0.177165,
        0.387063 -0.209898 0.177165,
        -0.262898 -0.133527 0.177165,
        0.387063 0.209898 0.177165,
        -0.266352 -0.125188 0.177165,
        -0.271847 -0.118027 0.177165,
        -0.262898 -0.151425 0.177165,
        -0.266352 -0.159764 0.177165,
        -0.271847 -0.166925 0.177165,
        -0.326240 -0.125188 0.177165,
        -0.387063 0.209898 0.177165,
        -0.329694 -0.133527 0.177165,
        -0.387063 -0.209898 0.177165,
        -0.330872 -0.142476 0.177165,
        -0.320745 -0.166925 0.177165,
        -0.313584 -0.172420 0.177165,
        -0.305245 -0.175874 0.177165,
        -0.326240 -0.159764 0.177165,
        -0.329694 -0.151425 0.177165,
        -0.320745 -0.118027 0.177165,
        -0.313584 -0.112532 0.177165,
        -0.305245 -0.109078 0.177165,
        -0.279008 -0.172420 0.177165,
        -0.287347 -0.175874 0.177165,
        -0.296296 -0.177052 0.177165,
        -0.296296 -0.107900 0.177165,
        -0.287347 -0.109078 0.177165,
        -0.279008 -0.112532 0.177165,
      ]
    }
    coordIndex [
      0, 1, 2, -1,
      3, 4, 5, -1,
      6, 7, 8, -1,
      9, 10, 11, -1,
      11, 10, 2, -1,
      12, 8, 13, -1,
      13, 8, 14, -1,
      15, 16, 17, -1,
      17, 16, 10, -1,
      17, 10, 18, -1,
      18, 10, 9, -1,
      18, 9, 19, -1,
      19, 9, 20, -1,
      21, 5, 22, -1,
      22, 5, 4, -1,
      22, 4, 23, -1,
      23, 4, 24, -1,
      23, 24, 25, -1,
      25, 24, 26, -1,
      27, 28, 29, -1,
      29, 28, 30, -1,
      29, 30, 31, -1,
      32, 33, 29, -1,
      29, 33, 34, -1,
      35, 36, 37, -1,
      37, 36, 38, -1,
      34, 39, 29, -1,
      29, 39, 38, -1,
      29, 38, 40, -1,
      40, 38, 36, -1,
      41, 42, 43, -1,
      43, 42, 44, -1,
      4, 45, 24, -1,
      24, 45, 46, -1,
      24, 46, 47, -1,
      47, 46, 48, -1,
      2, 49, 11, -1,
      11, 49, 47, -1,
      11, 47, 14, -1,
      31, 50, 29, -1,
      29, 50, 51, -1,
      29, 51, 32, -1,
      52, 53, 5, -1,
      5, 53, 54, -1,
      5, 54, 3, -1,
      52, 55, 53, -1,
      53, 55, 56, -1,
      53, 56, 57, -1,
      58, 47, 59, -1,
      59, 47, 48, -1,
      59, 48, 60, -1,
      41, 61, 42, -1,
      42, 61, 62, -1,
      42, 62, 63, -1,
      63, 62, 64, -1,
      63, 64, 65, -1,
      57, 56, 66, -1,
      66, 56, 67, -1,
      66, 67, 68, -1,
      64, 69, 65, -1,
      65, 69, 70, -1,
      65, 70, 48, -1,
      48, 70, 71, -1,
      48, 71, 60, -1,
      58, 72, 47, -1,
      47, 72, 73, -1,
      47, 73, 74, -1,
      74, 75, 47, -1,
      47, 75, 76, -1,
      47, 76, 14, -1,
      14, 76, 77, -1,
      14, 77, 13, -1,
      13, 77, 78, -1,
      13, 78, 29, -1,
      29, 78, 79, -1,
      29, 79, 27, -1,
      80, 81, 6, -1,
      6, 81, 82, -1,
      83, 84, 85, -1,
      86, 6, 87, -1,
      87, 6, 88, -1,
      85, 89, 83, -1,
      83, 89, 90, -1,
      83, 90, 91, -1,
      92, 93, 94, -1,
      94, 93, 95, -1,
      96, 87, 94, -1,
      94, 87, 88, -1,
      94, 88, 97, -1,
      97, 88, 98, -1,
      97, 98, 99, -1,
      99, 98, 100, -1,
      91, 80, 83, -1,
      83, 80, 6, -1,
      83, 6, 101, -1,
      101, 6, 86, -1,
      101, 86, 102, -1,
      102, 86, 103, -1,
      98, 104, 100, -1,
      100, 104, 105, -1,
      100, 105, 106, -1,
      106, 105, 107, -1,
      108, 109, 110, -1,
      110, 109, 111, -1,
      110, 111, 112, -1,
      96, 94, 110, -1,
      110, 94, 95, -1,
      110, 95, 108, -1,
      108, 95, 0, -1,
      108, 0, 82, -1,
      82, 0, 2, -1,
      82, 2, 6, -1,
      6, 2, 10, -1,
      6, 10, 7, -1,
      107, 105, 113, -1,
      113, 105, 114, -1,
      113, 114, 115, -1,
      115, 114, 116, -1,
      115, 116, 117, -1,
      112, 118, 110, -1,
      110, 118, 119, -1,
      110, 119, 120, -1,
      120, 121, 110, -1,
      110, 121, 122, -1,
      110, 122, 83, -1,
      83, 122, 123, -1,
      83, 123, 84, -1,
      124, 125, 126, -1,
      127, 128, 129, -1,
      130, 131, 88, -1,
      129, 130, 127, -1,
      127, 130, 88, -1,
      127, 88, 126, -1,
      126, 88, 6, -1,
      126, 6, 124, -1,
      131, 132, 88, -1,
      88, 132, 133, -1,
      88, 133, 134, -1,
      135, 136, 137, -1,
      133, 138, 134, -1,
      134, 138, 137, -1,
      134, 137, 139, -1,
      139, 137, 136, -1,
      137, 140, 135, -1,
      135, 140, 141, -1,
      135, 141, 142, -1,
      142, 141, 143, -1,
      144, 4, 145, -1,
      42, 45, 44, -1,
      44, 45, 4, -1,
      44, 4, 146, -1,
      146, 4, 144, -1,
      146, 144, 147, -1,
      148, 149, 150, -1,
      150, 149, 151, -1,
      152, 153, 145, -1,
      145, 153, 154, -1,
      145, 154, 144, -1,
      152, 155, 153, -1,
      153, 155, 156, -1,
      153, 156, 157, -1,
      12, 158, 8, -1,
      8, 158, 159, -1,
      8, 159, 6, -1,
      6, 159, 160, -1,
      6, 160, 124, -1,
      124, 160, 161, -1,
      159, 162, 160, -1,
      160, 162, 163, -1,
      160, 163, 151, -1,
      151, 163, 44, -1,
      151, 44, 150, -1,
      150, 44, 146, -1,
      157, 156, 164, -1,
      164, 156, 165, -1,
      164, 165, 166, -1,
      93, 92, 167, -1,
      167, 92, 168, -1,
      169, 49, 170, -1,
      170, 49, 2, -1,
      170, 2, 1, -1,
      171, 172, 26, -1,
      26, 172, 25, -1,
      5, 21, 173, -1,
      173, 21, 174, -1,
      175, 176, 144, -1,
      144, 176, 147, -1,
      177, 178, 148, -1,
      148, 178, 149, -1,
      161, 179, 124, -1,
      124, 179, 180, -1,
      124, 180, 125, -1,
      181, 182, 128, -1,
      128, 182, 129, -1,
      183, 184, 100, -1,
      100, 184, 99, -1,
      133, 132, 185, -1,
      185, 132, 186, -1,
      3, 187, 4, -1,
      4, 187, 188, -1,
      4, 188, 145, -1,
      134, 189, 88, -1,
      88, 189, 190, -1,
      88, 190, 98, -1,
      191, 192, 187, -1,
      187, 192, 188, -1,
      173, 174, 193, -1,
      193, 174, 172, -1,
      172, 171, 193, -1,
      193, 171, 169, -1,
      193, 169, 194, -1,
      194, 169, 170, -1,
      194, 170, 167, -1,
      167, 168, 194, -1,
      194, 168, 184, -1,
      194, 184, 183, -1,
      190, 189, 195, -1,
      195, 189, 196, -1,
      185, 186, 197, -1,
      197, 186, 182, -1,
      182, 181, 197, -1,
      197, 181, 180, -1,
      197, 180, 198, -1,
      198, 180, 179, -1,
      198, 179, 178, -1,
      178, 177, 198, -1,
      198, 177, 176, -1,
      198, 176, 175, -1,
      199, 200, 201, -1,
      201, 200, 202, -1,
      201, 202, 203, -1,
      203, 202, 204, -1,
      199, 205, 200, -1,
      200, 205, 206, -1,
      200, 206, 207, -1,
      208, 209, 210, -1,
      210, 209, 211, -1,
      210, 211, 212, -1,
      213, 211, 214, -1,
      214, 211, 215, -1,
      213, 216, 211, -1,
      211, 216, 217, -1,
      211, 217, 212, -1,
      208, 218, 209, -1,
      209, 218, 219, -1,
      209, 219, 220, -1,
      207, 221, 200, -1,
      200, 221, 222, -1,
      200, 222, 211, -1,
      211, 222, 223, -1,
      211, 223, 215, -1,
      220, 224, 209, -1,
      209, 224, 225, -1,
      209, 225, 202, -1,
      202, 225, 226, -1,
      202, 226, 204, -1,
    ]
  }
}

Shape {
  appearance Appearance {
    material Material {
      diffuseColor 1.0000 1.0000 1.0000
      specularColor 0.5020 0.5020 0.5020
      ambientIntensity 0.2
      transparency 0.0000
      shininess 0.5
    }
  }
  geometry IndexedFaceSet {
    ccw TRUE
    solid FALSE
    coord DEF co Coordinate {
      point [
        -0.053150 0.196850 -0.049213,
        -0.053150 0.231915 -0.049213,
        0.340551 0.231915 -0.049213,
        0.340551 0.196850 -0.049213,
        0.250000 0.196850 -0.049213,
        0.143701 0.196850 -0.049213,
        0.250000 0.231915 -0.049213,
        0.143701 0.231915 -0.049213,
        0.053150 0.196850 -0.049213,
        0.053150 0.231915 -0.049213,
        -0.250000 0.231915 -0.049213,
        -0.143701 0.231915 -0.049213,
        -0.250000 0.196850 -0.049213,
        -0.143701 0.196850 -0.049213,
        -0.340551 0.196850 -0.049213,
        -0.340551 0.231915 -0.049213,
        -0.053150 -0.231915 -0.049213,
        -0.053150 -0.196850 -0.049213,
        -0.143701 -0.196850 -0.049213,
        -0.143701 -0.231915 -0.049213,
        -0.250000 -0.231915 -0.049213,
        -0.250000 -0.196850 -0.049213,
        -0.340551 -0.196850 -0.049213,
        -0.340551 -0.231915 -0.049213,
        0.340551 -0.196850 -0.049213,
        0.340551 -0.231915 -0.049213,
        0.250000 -0.231915 -0.049213,
        0.143701 -0.231915 -0.049213,
        0.250000 -0.196850 -0.049213,
        0.143701 -0.196850 -0.049213,
        0.053150 -0.196850 -0.049213,
        0.053150 -0.231915 -0.049213,
        -0.143701 0.236220 0.000000,
        -0.250000 0.236220 0.000000,
        0.053150 0.236220 0.000000,
        -0.053150 0.236220 0.000000,
        0.143701 0.236220 0.000000,
        0.250000 0.236220 0.000000,
        0.340551 0.236220 0.000000,
        0.340551 -0.236220 0.000000,
        0.250000 -0.236220 0.000000,
        0.143701 -0.236220 0.000000,
        0.053150 -0.236220 0.000000,
        -0.053150 -0.236220 0.000000,
        -0.143701 -0.236220 0.000000,
        -0.250000 -0.236220 0.000000,
        -0.340551 0.236220 0.000000,
        -0.340551 -0.236220 0.000000,
        -0.250000 -0.196850 -0.053150,
        -0.340551 -0.196850 -0.053150,
        -0.340551 -0.314961 0.000000,
        -0.250000 -0.314961 0.000000,
        -0.250000 -0.314961 -0.053150,
        -0.340551 -0.314961 -0.053150,
        -0.340551 0.196850 -0.053150,
        -0.250000 0.196850 -0.053150,
        -0.340551 0.314961 0.000000,
        -0.340551 0.314961 -0.053150,
        -0.250000 0.314961 -0.053150,
        -0.250000 0.314961 0.000000,
        -0.053150 -0.196850 -0.053150,
        -0.143701 -0.196850 -0.053150,
        -0.053150 -0.314961 0.000000,
        -0.053150 -0.314961 -0.053150,
        -0.143701 -0.314961 -0.053150,
        -0.143701 -0.314961 0.000000,
        0.143701 -0.196850 -0.053150,
        0.053150 -0.196850 -0.053150,
        0.143701 -0.314961 0.000000,
        0.143701 -0.314961 -0.053150,
        0.053150 -0.314961 -0.053150,
        0.053150 -0.314961 0.000000,
        0.340551 -0.196850 -0.053150,
        0.250000 -0.196850 -0.053150,
        0.340551 -0.314961 0.000000,
        0.340551 -0.314961 -0.053150,
        0.250000 -0.314961 -0.053150,
        0.250000 -0.314961 0.000000,
        0.250000 0.196850 -0.053150,
        0.340551 0.196850 -0.053150,
        0.250000 0.314961 0.000000,
        0.250000 0.314961 -0.053150,
        0.340551 0.314961 -0.053150,
        0.340551 0.314961 0.000000,
        0.053150 0.196850 -0.053150,
        0.143701 0.196850 -0.053150,
        0.053150 0.314961 0.000000,
        0.053150 0.314961 -0.053150,
        0.143701 0.314961 -0.053150,
        0.143701 0.314961 0.000000,
        -0.143701 0.196850 -0.053150,
        -0.053150 0.196850 -0.053150,
        -0.143701 0.314961 0.000000,
        -0.143701 0.314961 -0.053150,
        -0.053150 0.314961 -0.053150,
        -0.053150 0.314961 0.000000,
      ]
    }
    coordIndex [
      21, 48, 22, -1,
      22, 48, 49, -1,
      47, 50, 45, -1,
      45, 50, 51, -1,
      48, 21, 20, -1,
      45, 51, 20, -1,
      20, 51, 52, -1,
      20, 52, 48, -1,
      50, 53, 51, -1,
      51, 53, 52, -1,
      22, 49, 23, -1,
      23, 49, 53, -1,
      23, 53, 47, -1,
      47, 53, 50, -1,
      53, 49, 52, -1,
      52, 49, 48, -1,
      14, 54, 12, -1,
      12, 54, 55, -1,
      54, 14, 15, -1,
      46, 56, 15, -1,
      15, 56, 57, -1,
      15, 57, 54, -1,
      12, 55, 10, -1,
      10, 55, 58, -1,
      10, 58, 33, -1,
      33, 58, 59, -1,
      59, 56, 33, -1,
      33, 56, 46, -1,
      59, 58, 56, -1,
      56, 58, 57, -1,
      58, 55, 57, -1,
      57, 55, 54, -1,
      17, 60, 18, -1,
      18, 60, 61, -1,
      60, 17, 16, -1,
      43, 62, 16, -1,
      16, 62, 63, -1,
      16, 63, 60, -1,
      18, 61, 19, -1,
      19, 61, 64, -1,
      19, 64, 44, -1,
      44, 64, 65, -1,
      65, 62, 44, -1,
      44, 62, 43, -1,
      65, 64, 62, -1,
      62, 64, 63, -1,
      63, 64, 60, -1,
      60, 64, 61, -1,
      29, 66, 30, -1,
      30, 66, 67, -1,
      66, 29, 27, -1,
      41, 68, 27, -1,
      27, 68, 69, -1,
      27, 69, 66, -1,
      30, 67, 31, -1,
      31, 67, 70, -1,
      31, 70, 42, -1,
      42, 70, 71, -1,
      71, 68, 42, -1,
      42, 68, 41, -1,
      71, 70, 68, -1,
      68, 70, 69, -1,
      69, 70, 66, -1,
      66, 70, 67, -1,
      24, 72, 28, -1,
      28, 72, 73, -1,
      72, 24, 25, -1,
      39, 74, 25, -1,
      25, 74, 75, -1,
      25, 75, 72, -1,
      28, 73, 26, -1,
      26, 73, 76, -1,
      26, 76, 40, -1,
      40, 76, 77, -1,
      77, 74, 40, -1,
      40, 74, 39, -1,
      77, 76, 74, -1,
      74, 76, 75, -1,
      75, 76, 72, -1,
      72, 76, 73, -1,
      4, 78, 3, -1,
      3, 78, 79, -1,
      78, 4, 6, -1,
      37, 80, 6, -1,
      6, 80, 81, -1,
      6, 81, 78, -1,
      3, 79, 2, -1,
      2, 79, 82, -1,
      2, 82, 38, -1,
      38, 82, 83, -1,
      83, 80, 38, -1,
      38, 80, 37, -1,
      83, 82, 80, -1,
      80, 82, 81, -1,
      82, 79, 81, -1,
      81, 79, 78, -1,
      8, 84, 5, -1,
      5, 84, 85, -1,
      84, 8, 9, -1,
      34, 86, 9, -1,
      9, 86, 87, -1,
      9, 87, 84, -1,
      5, 85, 7, -1,
      7, 85, 88, -1,
      7, 88, 36, -1,
      36, 88, 89, -1,
      89, 86, 36, -1,
      36, 86, 34, -1,
      89, 88, 86, -1,
      86, 88, 87, -1,
      88, 85, 87, -1,
      87, 85, 84, -1,
      13, 90, 0, -1,
      0, 90, 91, -1,
      90, 13, 11, -1,
      32, 92, 11, -1,
      11, 92, 93, -1,
      11, 93, 90, -1,
      0, 91, 1, -1,
      1, 91, 94, -1,
      1, 94, 35, -1,
      35, 94, 95, -1,
      95, 92, 35, -1,
      35, 92, 32, -1,
      95, 94, 92, -1,
      92, 94, 93, -1,
      94, 91, 93, -1,
      93, 91, 90, -1,
    ]
  }
}

Shape {
  appearance Appearance {
    material Material {
      diffuseColor 0.0000 0.0000 0.0000
      specularColor 0.0000 0.0000 0.0000
      ambientIntensity 0.2
      transparency 0.0000
      shininess 0.5
    }
  }
  geometry IndexedFaceSet {
    ccw TRUE
    solid FALSE
    coord DEF co Coordinate {
      point [
        -0.261720 -0.142476 0.177165,
        -0.262898 -0.133527 0.177165,
        -0.266352 -0.125188 0.177165,
        -0.271847 -0.118027 0.177165,
        -0.262898 -0.151425 0.177165,
        -0.266352 -0.159764 0.177165,
        -0.271847 -0.166925 0.177165,
        -0.326240 -0.125188 0.177165,
        -0.329694 -0.133527 0.177165,
        -0.330872 -0.142476 0.177165,
        -0.320745 -0.166925 0.177165,
        -0.313584 -0.172420 0.177165,
        -0.305245 -0.175874 0.177165,
        -0.326240 -0.159764 0.177165,
        -0.329694 -0.151425 0.177165,
        -0.320745 -0.118027 0.177165,
        -0.313584 -0.112532 0.177165,
        -0.305245 -0.109078 0.177165,
        -0.279008 -0.172420 0.177165,
        -0.287347 -0.175874 0.177165,
        -0.296296 -0.177052 0.177165,
        -0.296296 -0.107900 0.177165,
        -0.287347 -0.109078 0.177165,
        -0.279008 -0.112532 0.177165,
        -0.261720 -0.142476 0.176772,
        -0.262898 -0.133527 0.176772,
        -0.266352 -0.125188 0.176772,
        -0.271847 -0.118027 0.176772,
        -0.279008 -0.112532 0.176772,
        -0.287347 -0.109078 0.176772,
        -0.296296 -0.107900 0.176772,
        -0.305245 -0.109078 0.176772,
        -0.313584 -0.112532 0.176772,
        -0.320745 -0.118027 0.176772,
        -0.326240 -0.125188 0.176772,
        -0.329694 -0.133527 0.176772,
        -0.330872 -0.142476 0.176772,
        -0.329694 -0.151425 0.176772,
        -0.326240 -0.159764 0.176772,
        -0.320745 -0.166925 0.176772,
        -0.313584 -0.172420 0.176772,
        -0.305245 -0.175874 0.176772,
        -0.296296 -0.177052 0.176772,
        -0.287347 -0.175874 0.176772,
        -0.279008 -0.172420 0.176772,
        -0.271847 -0.166925 0.176772,
        -0.266352 -0.159764 0.176772,
        -0.262898 -0.151425 0.176772,
        -0.296296 -0.142476 0.176772,
      ]
    }
    coordIndex [
      24, 0, 25, -1,
      25, 0, 1, -1,
      25, 1, 26, -1,
      26, 1, 2, -1,
      26, 2, 27, -1,
      27, 2, 3, -1,
      27, 3, 28, -1,
      28, 3, 23, -1,
      28, 23, 29, -1,
      29, 23, 22, -1,
      29, 22, 30, -1,
      30, 22, 21, -1,
      30, 21, 31, -1,
      31, 21, 17, -1,
      31, 17, 32, -1,
      32, 17, 16, -1,
      32, 16, 33, -1,
      33, 16, 15, -1,
      33, 15, 34, -1,
      34, 15, 7, -1,
      34, 7, 35, -1,
      35, 7, 8, -1,
      35, 8, 36, -1,
      36, 8, 9, -1,
      36, 9, 37, -1,
      37, 9, 14, -1,
      37, 14, 38, -1,
      38, 14, 13, -1,
      38, 13, 39, -1,
      39, 13, 10, -1,
      39, 10, 40, -1,
      40, 10, 11, -1,
      40, 11, 41, -1,
      41, 11, 12, -1,
      41, 12, 42, -1,
      42, 12, 20, -1,
      42, 20, 43, -1,
      43, 20, 19, -1,
      43, 19, 44, -1,
      44, 19, 18, -1,
      44, 18, 45, -1,
      45, 18, 6, -1,
      45, 6, 46, -1,
      46, 6, 5, -1,
      46, 5, 47, -1,
      47, 5, 4, -1,
      47, 4, 24, -1,
      24, 4, 0, -1,
      46, 47, 48, -1,
      48, 47, 24, -1,
      48, 24, 25, -1,
      43, 44, 48, -1,
      48, 44, 45, -1,
      48, 45, 46, -1,
      40, 41, 48, -1,
      48, 41, 42, -1,
      48, 42, 43, -1,
      37, 38, 48, -1,
      48, 38, 39, -1,
      48, 39, 40, -1,
      34, 35, 48, -1,
      48, 35, 36, -1,
      48, 36, 37, -1,
      31, 32, 48, -1,
      48, 32, 33, -1,
      48, 33, 34, -1,
      28, 29, 48, -1,
      48, 29, 30, -1,
      48, 30, 31, -1,
      25, 26, 48, -1,
      48, 26, 27, -1,
      48, 27, 28, -1,
    ]
  }
}

Shape {
  appearance Appearance {
    material Material {
      diffuseColor 0.2510 0.2510 0.2510
      specularColor 0.1255 0.1255 0.1255
      ambientIntensity 0.2
      transparency 0.0000
      shininess 0.5
    }
  }
  geometry IndexedFaceSet {
    ccw TRUE
    solid FALSE
    coord DEF co Coordinate {
      point [
        0.409080 0.220149 -0.049213,
        0.397314 0.231915 -0.049213,
        0.400365 0.231515 -0.049213,
        0.408186 0.224658 -0.049213,
        0.408680 0.223200 -0.049213,
        0.401824 0.231021 -0.049213,
        0.403204 0.230341 -0.049213,
        0.407507 0.226039 -0.049213,
        0.406653 0.227318 -0.049213,
        0.404483 0.229488 -0.049213,
        0.405639 0.228474 -0.049213,
        -0.409080 0.220149 -0.049213,
        -0.397314 0.231915 -0.049213,
        -0.408680 0.223200 -0.049213,
        -0.408186 0.224658 -0.049213,
        -0.400365 0.231515 -0.049213,
        -0.401824 0.231021 -0.049213,
        -0.403204 0.230341 -0.049213,
        -0.407507 0.226039 -0.049213,
        -0.404483 0.229488 -0.049213,
        -0.406653 0.227318 -0.049213,
        -0.405639 0.228474 -0.049213,
        -0.397314 -0.231915 -0.049213,
        -0.409080 -0.220149 -0.049213,
        -0.407507 -0.226039 -0.049213,
        -0.408186 -0.224658 -0.049213,
        -0.401824 -0.231021 -0.049213,
        -0.400365 -0.231515 -0.049213,
        -0.408680 -0.223200 -0.049213,
        -0.403204 -0.230341 -0.049213,
        -0.404483 -0.229488 -0.049213,
        -0.406653 -0.227318 -0.049213,
        -0.405639 -0.228474 -0.049213,
        0.397314 -0.231915 -0.049213,
        0.409080 -0.220149 -0.049213,
        0.408680 -0.223200 -0.049213,
        0.401824 -0.231021 -0.049213,
        0.400365 -0.231515 -0.049213,
        0.408186 -0.224658 -0.049213,
        0.407507 -0.226039 -0.049213,
        0.403204 -0.230341 -0.049213,
        0.404483 -0.229488 -0.049213,
        0.406653 -0.227318 -0.049213,
        0.405639 -0.228474 -0.049213,
        0.401620 0.236220 0.000000,
        0.401620 -0.236220 0.000000,
        -0.401620 0.236220 0.000000,
        -0.401620 -0.236220 0.000000,
        0.413386 0.224454 -0.000000,
        0.413386 -0.224454 0.000000,
        -0.413386 -0.224454 -0.000000,
        -0.413386 0.224454 0.000000,
        0.398829 0.209898 0.166384,
        0.398829 -0.209898 0.166384,
        0.387063 0.221664 0.166384,
        -0.387063 0.221664 0.166384,
        -0.398829 0.209898 0.166384,
        -0.398829 -0.209898 0.166384,
        -0.387063 -0.221664 0.166384,
        0.387063 -0.221664 0.166384,
        0.387063 -0.209898 0.177165,
        0.387063 0.209898 0.177165,
        -0.387063 0.209898 0.177165,
        -0.387063 -0.209898 0.177165,
        -0.412986 -0.227506 -0.000000,
        -0.412492 -0.228964 -0.000000,
        -0.411812 -0.230344 -0.000000,
        -0.410959 -0.231624 -0.000000,
        -0.409945 -0.232780 -0.000000,
        -0.408789 -0.233793 -0.000000,
        -0.407510 -0.234647 -0.000000,
        -0.406129 -0.235327 -0.000000,
        -0.404671 -0.235820 -0.000000,
        -0.389670 -0.221302 0.166580,
        -0.390094 -0.221244 0.166612,
        -0.392122 -0.220393 0.166715,
        -0.392920 -0.220058 0.166756,
        -0.394313 -0.218986 0.166784,
        -0.395352 -0.218186 0.166805,
        -0.396151 -0.217147 0.166784,
        -0.397223 -0.215755 0.166756,
        -0.397558 -0.214957 0.166715,
        -0.398409 -0.212929 0.166612,
        -0.398468 -0.212505 0.166580,
        0.404671 -0.235820 0.000000,
        0.406129 -0.235327 0.000000,
        0.407510 -0.234647 0.000000,
        0.408789 -0.233793 0.000000,
        0.409945 -0.232780 0.000000,
        0.410959 -0.231624 0.000000,
        0.411812 -0.230344 0.000000,
        0.412492 -0.228964 0.000000,
        0.412986 -0.227506 0.000000,
        -0.387063 -0.221044 0.169228,
        -0.387063 -0.219804 0.171786,
        -0.389267 -0.219556 0.171786,
        -0.387063 -0.219759 0.171839,
        -0.387063 -0.217916 0.174027,
        -0.388847 -0.217715 0.174027,
        -0.388317 -0.215393 0.175734,
        -0.387710 -0.212732 0.176802,
        -0.388325 -0.212517 0.176802,
        -0.389683 -0.211159 0.176802,
        -0.389336 -0.211711 0.176802,
        -0.389898 -0.210545 0.176802,
        -0.387063 -0.212788 0.176804,
        -0.389552 -0.220802 0.169149,
        -0.391916 -0.219975 0.169149,
        -0.394037 -0.218642 0.169149,
        -0.395807 -0.216871 0.169149,
        -0.397140 -0.214750 0.169149,
        -0.397967 -0.212387 0.169149,
        -0.398248 -0.209898 0.169149,
        -0.389954 -0.209898 0.176804,
        -0.387063 -0.217873 0.174057,
        -0.387063 -0.215534 0.175734,
        -0.387063 -0.215502 0.175746,
        -0.387063 -0.212806 0.176802,
        -0.390577 -0.214304 0.175734,
        -0.391470 -0.213412 0.175734,
        -0.392141 -0.212343 0.175734,
        -0.392558 -0.211152 0.175734,
        -0.389509 -0.214976 0.175734,
        -0.388876 -0.212171 0.176802,
        -0.389971 -0.209898 0.176802,
        -0.392667 -0.209898 0.175746,
        -0.392699 -0.209898 0.175734,
        -0.395039 -0.209898 0.174057,
        -0.390542 -0.217122 0.174027,
        -0.392062 -0.216167 0.174027,
        -0.393332 -0.214897 0.174027,
        -0.394287 -0.213377 0.174027,
        -0.394880 -0.211682 0.174027,
        -0.391361 -0.218823 0.171786,
        -0.393239 -0.217643 0.171786,
        -0.394808 -0.216074 0.171786,
        -0.395988 -0.214196 0.171786,
        -0.396721 -0.212102 0.171786,
        -0.387063 -0.221082 0.169149,
        -0.395081 -0.209898 0.174027,
        -0.396924 -0.209898 0.171839,
        -0.396969 -0.209898 0.171786,
        -0.398210 -0.209898 0.169228,
        -0.404671 0.235820 0.000000,
        -0.406129 0.235327 0.000000,
        -0.407510 0.234647 0.000000,
        -0.408789 0.233793 0.000000,
        -0.409945 0.232780 0.000000,
        -0.410959 0.231624 0.000000,
        -0.411812 0.230344 0.000000,
        -0.412492 0.228964 0.000000,
        -0.412986 0.227506 0.000000,
        0.398409 -0.212929 0.166612,
        0.398406 -0.212937 0.166613,
        0.397223 -0.215755 0.166756,
        0.397219 -0.215761 0.166756,
        0.395352 -0.218186 0.166805,
        0.392926 -0.220053 0.166756,
        0.392920 -0.220058 0.166756,
        0.390102 -0.221240 0.166613,
        0.390094 -0.221244 0.166612,
        0.387063 -0.221082 0.169149,
        0.387063 -0.221044 0.169228,
        0.387063 -0.219804 0.171786,
        0.387063 -0.219759 0.171839,
        0.387063 -0.217916 0.174027,
        0.387063 -0.217873 0.174057,
        0.387063 -0.215534 0.175734,
        0.387063 -0.215502 0.175746,
        0.387063 -0.212806 0.176802,
        0.387063 -0.212788 0.176804,
        -0.398248 0.209898 0.169149,
        -0.398210 0.209898 0.169228,
        -0.396969 0.209898 0.171786,
        -0.396924 0.209898 0.171839,
        -0.395081 0.209898 0.174027,
        -0.395039 0.209898 0.174057,
        -0.392699 0.209898 0.175734,
        -0.392667 0.209898 0.175746,
        -0.389971 0.209898 0.176802,
        -0.389954 0.209898 0.176804,
        -0.398409 0.212929 0.166612,
        -0.398406 0.212937 0.166613,
        -0.397223 0.215755 0.166756,
        -0.397219 0.215761 0.166756,
        -0.395352 0.218186 0.166805,
        -0.392926 0.220053 0.166756,
        -0.392920 0.220058 0.166756,
        -0.390102 0.221240 0.166613,
        -0.390094 0.221244 0.166612,
        0.396924 -0.209898 0.171839,
        0.395081 -0.209898 0.174027,
        0.394808 -0.211973 0.174027,
        0.392507 -0.211356 0.175734,
        0.389872 -0.210650 0.176802,
        0.389581 -0.211352 0.176802,
        0.388517 -0.212416 0.176802,
        0.389119 -0.211954 0.176802,
        0.387816 -0.212706 0.176802,
        0.389954 -0.209898 0.176804,
        0.397867 -0.212793 0.169149,
        0.396749 -0.215490 0.169149,
        0.394972 -0.217807 0.169149,
        0.392656 -0.219584 0.169149,
        0.389958 -0.220701 0.169149,
        0.395039 -0.209898 0.174057,
        0.392699 -0.209898 0.175734,
        0.392667 -0.209898 0.175746,
        0.389971 -0.209898 0.176802,
        0.391944 -0.212716 0.175734,
        0.391048 -0.213883 0.175734,
        0.389881 -0.214779 0.175734,
        0.388522 -0.215342 0.175734,
        0.394007 -0.213907 0.174027,
        0.392733 -0.215567 0.174027,
        0.391072 -0.216842 0.174027,
        0.389138 -0.217643 0.174027,
        0.398210 -0.209898 0.169228,
        0.396969 -0.209898 0.171786,
        0.396632 -0.212462 0.171786,
        0.395642 -0.214851 0.171786,
        0.394068 -0.216902 0.171786,
        0.392016 -0.218477 0.171786,
        0.389627 -0.219467 0.171786,
        0.398248 -0.209898 0.169149,
        -0.394808 0.211973 0.174027,
        -0.392507 0.211356 0.175734,
        -0.389872 0.210650 0.176802,
        -0.389581 0.211352 0.176802,
        -0.388517 0.212416 0.176802,
        -0.389119 0.211954 0.176802,
        -0.387816 0.212706 0.176802,
        -0.397867 0.212793 0.169149,
        -0.396749 0.215490 0.169149,
        -0.394972 0.217807 0.169149,
        -0.392656 0.219584 0.169149,
        -0.389958 0.220701 0.169149,
        -0.387063 0.221082 0.169149,
        -0.387063 0.212788 0.176804,
        -0.391944 0.212716 0.175734,
        -0.391048 0.213883 0.175734,
        -0.389881 0.214779 0.175734,
        -0.388522 0.215342 0.175734,
        -0.387063 0.212806 0.176802,
        -0.387063 0.215502 0.175746,
        -0.387063 0.215534 0.175734,
        -0.387063 0.217873 0.174057,
        -0.394007 0.213907 0.174027,
        -0.392733 0.215567 0.174027,
        -0.391072 0.216842 0.174027,
        -0.389138 0.217643 0.174027,
        -0.396632 0.212462 0.171786,
        -0.395642 0.214851 0.171786,
        -0.394068 0.216902 0.171786,
        -0.392016 0.218477 0.171786,
        -0.389627 0.219467 0.171786,
        -0.387063 0.217916 0.174027,
        -0.387063 0.219759 0.171839,
        -0.387063 0.219804 0.171786,
        -0.387063 0.221044 0.169228,
        0.398248 0.209898 0.169149,
        0.398210 0.209898 0.169228,
        0.396969 0.209898 0.171786,
        0.396924 0.209898 0.171839,
        0.395081 0.209898 0.174027,
        0.395039 0.209898 0.174057,
        0.392699 0.209898 0.175734,
        0.392667 0.209898 0.175746,
        0.389971 0.209898 0.176802,
        0.389954 0.209898 0.176804,
        0.387063 0.221082 0.169149,
        0.387063 0.221044 0.169228,
        0.387063 0.219804 0.171786,
        0.387063 0.219759 0.171839,
        0.387063 0.217916 0.174027,
        0.387063 0.217873 0.174057,
        0.387063 0.215534 0.175734,
        0.387063 0.215502 0.175746,
        0.387063 0.212806 0.176802,
        0.387063 0.212788 0.176804,
        0.389267 0.219556 0.171786,
        0.388847 0.217715 0.174027,
        0.388317 0.215393 0.175734,
        0.387710 0.212732 0.176802,
        0.388325 0.212517 0.176802,
        0.389683 0.211159 0.176802,
        0.389336 0.211711 0.176802,
        0.389898 0.210545 0.176802,
        0.389670 0.221302 0.166580,
        0.389552 0.220802 0.169149,
        0.390094 0.221244 0.166612,
        0.391916 0.219975 0.169149,
        0.392122 0.220393 0.166715,
        0.392920 0.220058 0.166756,
        0.394037 0.218642 0.169149,
        0.394313 0.218986 0.166784,
        0.395352 0.218186 0.166805,
        0.395807 0.216871 0.169149,
        0.396151 0.217147 0.166784,
        0.397223 0.215755 0.166756,
        0.397140 0.214750 0.169149,
        0.397558 0.214957 0.166715,
        0.398409 0.212929 0.166612,
        0.397967 0.212387 0.169149,
        0.398468 0.212505 0.166580,
        0.390577 0.214304 0.175734,
        0.391470 0.213412 0.175734,
        0.392141 0.212343 0.175734,
        0.392558 0.211152 0.175734,
        0.389509 0.214976 0.175734,
        0.388876 0.212171 0.176802,
        0.390542 0.217122 0.174027,
        0.392062 0.216167 0.174027,
        0.393332 0.214897 0.174027,
        0.394287 0.213377 0.174027,
        0.394880 0.211682 0.174027,
        0.391361 0.218823 0.171786,
        0.393239 0.217643 0.171786,
        0.394808 0.216074 0.171786,
        0.395988 0.214196 0.171786,
        0.396721 0.212102 0.171786,
        0.404671 0.235820 -0.000000,
        0.406129 0.235327 -0.000000,
        0.407510 0.234647 -0.000000,
        0.408789 0.233793 -0.000000,
        0.409945 0.232780 -0.000000,
        0.410959 0.231624 -0.000000,
        0.411812 0.230344 -0.000000,
        0.412492 0.228964 -0.000000,
        0.412986 0.227506 -0.000000,
      ]
    }
    coordIndex [
      50, 23, 28, -1,
      50, 28, 64, -1,
      64, 28, 25, -1,
      64, 25, 65, -1,
      65, 25, 24, -1,
      65, 24, 66, -1,
      66, 24, 31, -1,
      66, 31, 67, -1,
      67, 31, 32, -1,
      67, 32, 68, -1,
      68, 32, 69, -1,
      69, 32, 30, -1,
      69, 30, 70, -1,
      70, 30, 29, -1,
      70, 29, 71, -1,
      71, 29, 26, -1,
      71, 26, 72, -1,
      26, 27, 72, -1,
      72, 27, 22, -1,
      72, 22, 47, -1,
      47, 58, 73, -1,
      47, 73, 72, -1,
      72, 73, 74, -1,
      72, 74, 71, -1,
      71, 74, 75, -1,
      71, 75, 70, -1,
      70, 75, 76, -1,
      70, 76, 69, -1,
      69, 76, 77, -1,
      69, 77, 68, -1,
      68, 77, 78, -1,
      68, 78, 67, -1,
      67, 78, 79, -1,
      67, 79, 66, -1,
      66, 79, 80, -1,
      66, 80, 65, -1,
      65, 80, 81, -1,
      65, 81, 64, -1,
      64, 81, 82, -1,
      64, 82, 50, -1,
      50, 82, 83, -1,
      50, 83, 57, -1,
      45, 33, 37, -1,
      45, 37, 84, -1,
      84, 37, 36, -1,
      84, 36, 85, -1,
      85, 36, 40, -1,
      85, 40, 86, -1,
      86, 40, 41, -1,
      86, 41, 87, -1,
      87, 41, 43, -1,
      87, 43, 88, -1,
      88, 43, 89, -1,
      89, 43, 42, -1,
      89, 42, 90, -1,
      90, 42, 39, -1,
      90, 39, 91, -1,
      91, 39, 38, -1,
      91, 38, 92, -1,
      38, 35, 92, -1,
      92, 35, 34, -1,
      92, 34, 49, -1,
      93, 94, 95, -1,
      96, 97, 98, -1,
      99, 100, 101, -1,
      63, 102, 103, -1,
      104, 102, 63, -1,
      101, 100, 63, -1,
      105, 63, 100, -1,
      73, 106, 74, -1,
      74, 106, 107, -1,
      74, 107, 75, -1,
      75, 107, 76, -1,
      76, 107, 108, -1,
      76, 108, 77, -1,
      77, 108, 78, -1,
      78, 108, 109, -1,
      78, 109, 79, -1,
      79, 109, 80, -1,
      80, 109, 110, -1,
      80, 110, 81, -1,
      81, 110, 82, -1,
      82, 110, 111, -1,
      82, 111, 83, -1,
      83, 111, 112, -1,
      83, 112, 57, -1,
      113, 104, 63, -1,
      114, 115, 99, -1,
      99, 115, 116, -1,
      99, 116, 100, -1,
      100, 116, 117, -1,
      100, 117, 105, -1,
      118, 103, 119, -1,
      119, 103, 102, -1,
      119, 102, 120, -1,
      120, 102, 104, -1,
      120, 104, 121, -1,
      97, 114, 98, -1,
      98, 114, 99, -1,
      98, 99, 122, -1,
      122, 99, 101, -1,
      122, 101, 123, -1,
      123, 101, 63, -1,
      113, 124, 104, -1,
      104, 124, 125, -1,
      104, 125, 121, -1,
      121, 125, 126, -1,
      121, 126, 127, -1,
      128, 118, 129, -1,
      129, 118, 119, -1,
      129, 119, 130, -1,
      130, 119, 120, -1,
      130, 120, 131, -1,
      131, 120, 121, -1,
      131, 121, 132, -1,
      132, 121, 127, -1,
      95, 128, 133, -1,
      133, 128, 129, -1,
      133, 129, 134, -1,
      134, 129, 130, -1,
      134, 130, 135, -1,
      135, 130, 131, -1,
      135, 131, 136, -1,
      136, 131, 132, -1,
      136, 132, 137, -1,
      94, 96, 95, -1,
      95, 96, 98, -1,
      95, 98, 128, -1,
      128, 98, 122, -1,
      128, 122, 118, -1,
      118, 122, 123, -1,
      118, 123, 103, -1,
      103, 123, 63, -1,
      73, 58, 106, -1,
      106, 58, 138, -1,
      106, 138, 93, -1,
      127, 139, 132, -1,
      132, 139, 140, -1,
      132, 140, 137, -1,
      137, 140, 141, -1,
      137, 141, 142, -1,
      93, 95, 106, -1,
      106, 95, 133, -1,
      106, 133, 107, -1,
      107, 133, 134, -1,
      107, 134, 108, -1,
      108, 134, 135, -1,
      108, 135, 109, -1,
      109, 135, 136, -1,
      109, 136, 110, -1,
      110, 136, 137, -1,
      110, 137, 111, -1,
      111, 137, 142, -1,
      111, 142, 112, -1,
      46, 12, 15, -1,
      46, 15, 143, -1,
      143, 15, 16, -1,
      143, 16, 144, -1,
      144, 16, 17, -1,
      144, 17, 145, -1,
      145, 17, 19, -1,
      145, 19, 146, -1,
      146, 19, 21, -1,
      146, 21, 147, -1,
      147, 21, 148, -1,
      148, 21, 20, -1,
      148, 20, 149, -1,
      149, 20, 18, -1,
      149, 18, 150, -1,
      150, 18, 14, -1,
      150, 14, 151, -1,
      14, 13, 151, -1,
      151, 13, 11, -1,
      151, 11, 51, -1,
      53, 152, 49, -1,
      49, 152, 92, -1,
      92, 152, 91, -1,
      91, 152, 153, -1,
      91, 153, 90, -1,
      90, 153, 154, -1,
      90, 154, 89, -1,
      89, 154, 155, -1,
      89, 155, 88, -1,
      88, 155, 156, -1,
      88, 156, 87, -1,
      87, 156, 157, -1,
      87, 157, 86, -1,
      86, 157, 158, -1,
      86, 158, 85, -1,
      85, 158, 159, -1,
      85, 159, 84, -1,
      159, 160, 84, -1,
      84, 160, 59, -1,
      84, 59, 45, -1,
      58, 59, 138, -1,
      138, 59, 161, -1,
      138, 161, 93, -1,
      93, 161, 162, -1,
      93, 162, 94, -1,
      94, 162, 163, -1,
      94, 163, 96, -1,
      96, 163, 164, -1,
      96, 164, 97, -1,
      97, 164, 165, -1,
      97, 165, 114, -1,
      114, 165, 166, -1,
      114, 166, 115, -1,
      115, 166, 167, -1,
      115, 167, 116, -1,
      116, 167, 168, -1,
      116, 168, 117, -1,
      117, 168, 169, -1,
      117, 169, 105, -1,
      169, 170, 105, -1,
      105, 170, 60, -1,
      105, 60, 63, -1,
      56, 57, 171, -1,
      171, 57, 112, -1,
      171, 112, 172, -1,
      172, 112, 142, -1,
      172, 142, 173, -1,
      173, 142, 141, -1,
      173, 141, 174, -1,
      174, 141, 140, -1,
      174, 140, 175, -1,
      175, 140, 139, -1,
      175, 139, 176, -1,
      176, 139, 127, -1,
      176, 127, 177, -1,
      177, 127, 126, -1,
      177, 126, 178, -1,
      178, 126, 125, -1,
      178, 125, 179, -1,
      179, 125, 124, -1,
      179, 124, 180, -1,
      124, 113, 180, -1,
      180, 113, 63, -1,
      180, 63, 62, -1,
      56, 181, 51, -1,
      51, 181, 151, -1,
      151, 181, 150, -1,
      150, 181, 182, -1,
      150, 182, 149, -1,
      149, 182, 183, -1,
      149, 183, 148, -1,
      148, 183, 184, -1,
      148, 184, 147, -1,
      147, 184, 185, -1,
      147, 185, 146, -1,
      146, 185, 186, -1,
      146, 186, 145, -1,
      145, 186, 187, -1,
      145, 187, 144, -1,
      144, 187, 188, -1,
      144, 188, 143, -1,
      188, 189, 143, -1,
      143, 189, 55, -1,
      143, 55, 46, -1,
      190, 191, 192, -1,
      193, 194, 195, -1,
      60, 196, 197, -1,
      198, 196, 60, -1,
      195, 194, 60, -1,
      199, 60, 194, -1,
      200, 153, 152, -1,
      153, 200, 154, -1,
      154, 200, 201, -1,
      154, 201, 155, -1,
      155, 201, 202, -1,
      155, 202, 156, -1,
      156, 202, 203, -1,
      156, 203, 157, -1,
      157, 203, 158, -1,
      158, 203, 204, -1,
      158, 204, 159, -1,
      159, 204, 160, -1,
      160, 204, 161, -1,
      160, 161, 59, -1,
      170, 198, 60, -1,
      205, 206, 193, -1,
      193, 206, 207, -1,
      193, 207, 194, -1,
      194, 207, 208, -1,
      194, 208, 199, -1,
      209, 197, 210, -1,
      210, 197, 196, -1,
      210, 196, 211, -1,
      211, 196, 198, -1,
      211, 198, 212, -1,
      170, 169, 198, -1,
      198, 169, 168, -1,
      198, 168, 212, -1,
      212, 168, 167, -1,
      212, 167, 166, -1,
      192, 209, 213, -1,
      213, 209, 210, -1,
      213, 210, 214, -1,
      214, 210, 211, -1,
      214, 211, 215, -1,
      215, 211, 212, -1,
      215, 212, 216, -1,
      216, 212, 166, -1,
      217, 218, 219, -1,
      219, 218, 190, -1,
      190, 192, 219, -1,
      219, 192, 213, -1,
      219, 213, 220, -1,
      220, 213, 214, -1,
      220, 214, 221, -1,
      221, 214, 215, -1,
      221, 215, 222, -1,
      222, 215, 216, -1,
      222, 216, 223, -1,
      191, 205, 192, -1,
      192, 205, 193, -1,
      192, 193, 209, -1,
      209, 193, 195, -1,
      209, 195, 197, -1,
      197, 195, 60, -1,
      217, 200, 224, -1,
      224, 200, 152, -1,
      224, 152, 53, -1,
      166, 165, 216, -1,
      216, 165, 164, -1,
      216, 164, 223, -1,
      223, 164, 163, -1,
      223, 163, 162, -1,
      217, 219, 200, -1,
      200, 219, 220, -1,
      200, 220, 201, -1,
      201, 220, 221, -1,
      201, 221, 202, -1,
      202, 221, 222, -1,
      202, 222, 203, -1,
      203, 222, 223, -1,
      203, 223, 204, -1,
      204, 223, 162, -1,
      204, 162, 161, -1,
      174, 175, 225, -1,
      226, 227, 228, -1,
      62, 229, 230, -1,
      231, 229, 62, -1,
      228, 227, 62, -1,
      180, 62, 227, -1,
      232, 182, 181, -1,
      182, 232, 183, -1,
      183, 232, 233, -1,
      183, 233, 184, -1,
      184, 233, 234, -1,
      184, 234, 185, -1,
      185, 234, 235, -1,
      185, 235, 186, -1,
      186, 235, 187, -1,
      187, 235, 236, -1,
      187, 236, 188, -1,
      188, 236, 189, -1,
      189, 236, 237, -1,
      189, 237, 55, -1,
      238, 231, 62, -1,
      176, 177, 226, -1,
      226, 177, 178, -1,
      226, 178, 227, -1,
      227, 178, 179, -1,
      227, 179, 180, -1,
      239, 230, 240, -1,
      240, 230, 229, -1,
      240, 229, 241, -1,
      241, 229, 231, -1,
      241, 231, 242, -1,
      238, 243, 231, -1,
      231, 243, 244, -1,
      231, 244, 242, -1,
      242, 244, 245, -1,
      242, 245, 246, -1,
      225, 239, 247, -1,
      247, 239, 240, -1,
      247, 240, 248, -1,
      248, 240, 241, -1,
      248, 241, 249, -1,
      249, 241, 242, -1,
      249, 242, 250, -1,
      250, 242, 246, -1,
      172, 173, 251, -1,
      251, 173, 174, -1,
      174, 225, 251, -1,
      251, 225, 247, -1,
      251, 247, 252, -1,
      252, 247, 248, -1,
      252, 248, 253, -1,
      253, 248, 249, -1,
      253, 249, 254, -1,
      254, 249, 250, -1,
      254, 250, 255, -1,
      175, 176, 225, -1,
      225, 176, 226, -1,
      225, 226, 239, -1,
      239, 226, 228, -1,
      239, 228, 230, -1,
      230, 228, 62, -1,
      172, 232, 171, -1,
      171, 232, 181, -1,
      171, 181, 56, -1,
      246, 256, 250, -1,
      250, 256, 257, -1,
      250, 257, 255, -1,
      255, 257, 258, -1,
      255, 258, 259, -1,
      172, 251, 232, -1,
      232, 251, 252, -1,
      232, 252, 233, -1,
      233, 252, 253, -1,
      233, 253, 234, -1,
      234, 253, 254, -1,
      234, 254, 235, -1,
      235, 254, 255, -1,
      235, 255, 236, -1,
      236, 255, 259, -1,
      236, 259, 237, -1,
      53, 52, 224, -1,
      224, 52, 260, -1,
      224, 260, 217, -1,
      217, 260, 261, -1,
      217, 261, 218, -1,
      218, 261, 262, -1,
      218, 262, 190, -1,
      190, 262, 263, -1,
      190, 263, 191, -1,
      191, 263, 264, -1,
      191, 264, 205, -1,
      205, 264, 265, -1,
      205, 265, 206, -1,
      206, 265, 266, -1,
      206, 266, 207, -1,
      207, 266, 267, -1,
      207, 267, 208, -1,
      208, 267, 268, -1,
      208, 268, 199, -1,
      268, 269, 199, -1,
      199, 269, 61, -1,
      199, 61, 60, -1,
      54, 55, 270, -1,
      270, 55, 237, -1,
      270, 237, 271, -1,
      271, 237, 259, -1,
      271, 259, 272, -1,
      272, 259, 258, -1,
      272, 258, 273, -1,
      273, 258, 257, -1,
      273, 257, 274, -1,
      274, 257, 256, -1,
      274, 256, 275, -1,
      275, 256, 246, -1,
      275, 246, 276, -1,
      276, 246, 245, -1,
      276, 245, 277, -1,
      277, 245, 244, -1,
      277, 244, 278, -1,
      278, 244, 243, -1,
      278, 243, 279, -1,
      243, 238, 279, -1,
      279, 238, 62, -1,
      279, 62, 61, -1,
      271, 272, 280, -1,
      273, 274, 281, -1,
      282, 283, 284, -1,
      61, 285, 286, -1,
      287, 285, 61, -1,
      284, 283, 61, -1,
      279, 61, 283, -1,
      288, 289, 290, -1,
      290, 289, 291, -1,
      290, 291, 292, -1,
      292, 291, 293, -1,
      293, 291, 294, -1,
      293, 294, 295, -1,
      295, 294, 296, -1,
      296, 294, 297, -1,
      296, 297, 298, -1,
      298, 297, 299, -1,
      299, 297, 300, -1,
      299, 300, 301, -1,
      301, 300, 302, -1,
      302, 300, 303, -1,
      302, 303, 304, -1,
      304, 303, 260, -1,
      304, 260, 52, -1,
      269, 287, 61, -1,
      275, 276, 282, -1,
      282, 276, 277, -1,
      282, 277, 283, -1,
      283, 277, 278, -1,
      283, 278, 279, -1,
      305, 286, 306, -1,
      306, 286, 285, -1,
      306, 285, 307, -1,
      307, 285, 287, -1,
      307, 287, 308, -1,
      274, 275, 281, -1,
      281, 275, 282, -1,
      281, 282, 309, -1,
      309, 282, 284, -1,
      309, 284, 310, -1,
      310, 284, 61, -1,
      269, 268, 287, -1,
      287, 268, 267, -1,
      287, 267, 308, -1,
      308, 267, 266, -1,
      308, 266, 265, -1,
      311, 305, 312, -1,
      312, 305, 306, -1,
      312, 306, 313, -1,
      313, 306, 307, -1,
      313, 307, 314, -1,
      314, 307, 308, -1,
      314, 308, 315, -1,
      315, 308, 265, -1,
      280, 311, 316, -1,
      316, 311, 312, -1,
      316, 312, 317, -1,
      317, 312, 313, -1,
      317, 313, 318, -1,
      318, 313, 314, -1,
      318, 314, 319, -1,
      319, 314, 315, -1,
      319, 315, 320, -1,
      272, 273, 280, -1,
      280, 273, 281, -1,
      280, 281, 311, -1,
      311, 281, 309, -1,
      311, 309, 305, -1,
      305, 309, 310, -1,
      305, 310, 286, -1,
      286, 310, 61, -1,
      288, 54, 289, -1,
      289, 54, 270, -1,
      289, 270, 271, -1,
      265, 264, 315, -1,
      315, 264, 263, -1,
      315, 263, 320, -1,
      320, 263, 262, -1,
      320, 262, 261, -1,
      271, 280, 289, -1,
      289, 280, 316, -1,
      289, 316, 291, -1,
      291, 316, 317, -1,
      291, 317, 294, -1,
      294, 317, 318, -1,
      294, 318, 297, -1,
      297, 318, 319, -1,
      297, 319, 300, -1,
      300, 319, 320, -1,
      300, 320, 303, -1,
      303, 320, 261, -1,
      303, 261, 260, -1,
      44, 54, 288, -1,
      44, 288, 321, -1,
      321, 288, 290, -1,
      321, 290, 322, -1,
      322, 290, 292, -1,
      322, 292, 323, -1,
      323, 292, 293, -1,
      323, 293, 324, -1,
      324, 293, 295, -1,
      324, 295, 325, -1,
      325, 295, 296, -1,
      325, 296, 326, -1,
      326, 296, 298, -1,
      326, 298, 327, -1,
      327, 298, 299, -1,
      327, 299, 328, -1,
      328, 299, 301, -1,
      328, 301, 329, -1,
      329, 301, 302, -1,
      329, 302, 48, -1,
      48, 302, 304, -1,
      48, 304, 52, -1,
      48, 0, 4, -1,
      48, 4, 329, -1,
      329, 4, 3, -1,
      329, 3, 328, -1,
      328, 3, 7, -1,
      328, 7, 327, -1,
      327, 7, 8, -1,
      327, 8, 326, -1,
      326, 8, 10, -1,
      326, 10, 325, -1,
      325, 10, 324, -1,
      324, 10, 9, -1,
      324, 9, 323, -1,
      323, 9, 6, -1,
      323, 6, 322, -1,
      322, 6, 5, -1,
      322, 5, 321, -1,
      5, 2, 321, -1,
      321, 2, 1, -1,
      321, 1, 44, -1,
    ]
  }
}

Shape {
  appearance Appearance {
    material Material {
      diffuseColor 0.0000 0.0000 0.0000
      specularColor 0.0000 0.0000 0.0000
      ambientIntensity 0.2
      transparency 0.0000
      shininess 0.5
    }
  }
  geometry IndexedFaceSet {
    ccw TRUE
    solid FALSE
    coord DEF co Coordinate {
      point [
        -0.016018 -0.018162 -0.049213,
        0.005108 -0.018162 -0.049213,
        -0.015057 0.016887 -0.049213,
        -0.016018 -0.013841 -0.049213,
        -0.015057 0.021208 -0.049213,
        0.012790 -0.016122 -0.049213,
        0.012790 -0.011800 -0.049213,
        0.005108 0.021208 -0.049213,
        -0.000174 -0.000398 -0.049213,
        -0.000174 -0.013841 -0.049213,
        -0.014097 -0.000398 -0.049213,
        -0.014097 0.003924 -0.049213,
        -0.000174 0.003924 -0.049213,
        -0.000174 0.016887 -0.049213,
        0.025886 0.016932 -0.049213,
        0.028833 0.015868 -0.049213,
        0.013495 -0.012191 -0.049213,
        0.031558 0.014045 -0.049213,
        0.033935 0.011420 -0.049213,
        0.036796 0.001103 -0.049213,
        0.036397 -0.003159 -0.049213,
        0.035328 -0.006546 -0.049213,
        0.026567 -0.013909 -0.049213,
        0.022895 -0.014321 -0.049213,
        0.029435 -0.012853 -0.049213,
        0.031852 -0.011224 -0.049213,
        0.033699 -0.009276 -0.049213,
        0.017669 -0.013741 -0.049213,
        0.032290 -0.016826 -0.049213,
        0.045438 -0.018162 -0.049213,
        0.028474 -0.018139 -0.049213,
        0.025938 -0.018402 -0.049213,
        0.065603 -0.018162 -0.049213,
        0.065603 0.021208 -0.049213,
        0.060322 0.021208 -0.049213,
        0.035559 0.008381 -0.049213,
        0.036608 0.004166 -0.049213,
        0.034137 0.017938 -0.049213,
        0.037692 0.014519 -0.049213,
        0.040000 0.010839 -0.049213,
        0.035457 -0.014804 -0.049213,
        0.038414 -0.011690 -0.049213,
        0.045438 -0.013841 -0.049213,
        0.040512 -0.007946 -0.049213,
        0.060322 -0.013841 -0.049213,
        0.041696 -0.003779 -0.049213,
        0.042077 0.000780 -0.049213,
        0.041511 0.006378 -0.049213,
        0.030398 0.020090 -0.049213,
        0.026009 0.021365 -0.049213,
        0.022055 0.021688 -0.049213,
        0.017342 0.021363 -0.049213,
        0.012790 0.020128 -0.049213,
        0.012790 0.014846 -0.049213,
        0.017224 0.016745 -0.049213,
        0.022009 0.017367 -0.049213,
        -0.034405 -0.018162 -0.049213,
        -0.023700 -0.018162 -0.049213,
        -0.023700 0.021208 -0.049213,
        -0.058269 -0.018162 -0.049213,
        -0.053422 -0.007372 -0.049213,
        -0.051164 -0.010893 -0.049213,
        -0.088036 -0.018162 -0.049213,
        -0.093798 -0.018162 -0.049213,
        -0.047924 -0.013996 -0.049213,
        -0.043813 -0.016385 -0.049213,
        -0.039276 -0.017737 -0.049213,
        -0.078433 0.021208 -0.049213,
        -0.064030 -0.018162 -0.049213,
        -0.067789 -0.007119 -0.049213,
        -0.084052 -0.007119 -0.049213,
        -0.034810 0.021208 -0.049213,
        -0.040498 0.020600 -0.049213,
        -0.073152 0.021208 -0.049213,
        -0.045104 0.018983 -0.049213,
        -0.049389 0.016111 -0.049213,
        -0.049430 0.016075 -0.049213,
        -0.052215 0.012987 -0.049213,
        -0.054044 0.009602 -0.049213,
        -0.055102 0.005723 -0.049213,
        -0.055388 0.002018 -0.049213,
        -0.054835 -0.003251 -0.049213,
        0.016986 -0.017844 -0.049213,
        0.020965 -0.018402 -0.049213,
        0.022546 -0.018624 -0.049213,
        0.023622 -0.018642 -0.049213,
        -0.078433 0.021208 -0.048819,
        -0.093798 -0.018162 -0.048819,
        -0.088036 -0.018162 -0.048819,
        -0.084052 -0.007119 -0.048819,
        -0.067789 -0.007119 -0.048819,
        -0.064030 -0.018162 -0.048819,
        -0.058269 -0.018162 -0.048819,
        -0.073152 0.021208 -0.048819,
        -0.069116 -0.002798 -0.048819,
        -0.082282 -0.002798 -0.048819,
        -0.074990 0.013646 -0.048819,
        -0.075369 0.015011 -0.048819,
        -0.075620 0.016407 -0.048819,
        -0.075748 0.016407 -0.048819,
        -0.076005 0.015016 -0.048819,
        -0.076356 0.013646 -0.048819,
        -0.069116 -0.002798 -0.049213,
        -0.082282 -0.002798 -0.049213,
        -0.074990 0.013646 -0.049213,
        -0.075369 0.015011 -0.049213,
        -0.075620 0.016407 -0.049213,
        -0.075748 0.016407 -0.049213,
        -0.076005 0.015016 -0.049213,
        -0.076356 0.013646 -0.049213,
        -0.034405 -0.018162 -0.048819,
        -0.023700 -0.018162 -0.048819,
        -0.023700 0.021208 -0.048819,
        -0.034810 0.021208 -0.048819,
        -0.055388 0.002018 -0.048819,
        -0.055102 0.005723 -0.048819,
        -0.054044 0.009602 -0.048819,
        -0.052215 0.012987 -0.048819,
        -0.049430 0.016075 -0.048819,
        -0.049389 0.016111 -0.048819,
        -0.045104 0.018983 -0.048819,
        -0.040498 0.020600 -0.048819,
        -0.039276 -0.017737 -0.048819,
        -0.043813 -0.016385 -0.048819,
        -0.047924 -0.013996 -0.048819,
        -0.051164 -0.010893 -0.048819,
        -0.053422 -0.007372 -0.048819,
        -0.054835 -0.003251 -0.048819,
        -0.047485 0.011366 -0.048819,
        -0.045573 0.013396 -0.048819,
        -0.042697 0.015254 -0.048819,
        -0.039447 0.016392 -0.048819,
        -0.034787 0.016887 -0.048819,
        -0.028981 0.016887 -0.048819,
        -0.028981 -0.013841 -0.048819,
        -0.034570 -0.013841 -0.048819,
        -0.038724 -0.013454 -0.048819,
        -0.042037 -0.012420 -0.048819,
        -0.044722 -0.010826 -0.048819,
        -0.046930 -0.008645 -0.048819,
        -0.048590 -0.005930 -0.048819,
        -0.049745 -0.002230 -0.048819,
        -0.050106 0.001906 -0.048819,
        -0.049772 0.005824 -0.048819,
        -0.048853 0.008938 -0.048819,
        -0.034787 0.016887 -0.049213,
        -0.028981 0.016887 -0.049213,
        -0.039447 0.016392 -0.049213,
        -0.042697 0.015254 -0.049213,
        -0.045573 0.013396 -0.049213,
        -0.047485 0.011366 -0.049213,
        -0.048853 0.008938 -0.049213,
        -0.049772 0.005824 -0.049213,
        -0.050106 0.001906 -0.049213,
        -0.049745 -0.002230 -0.049213,
        -0.048590 -0.005930 -0.049213,
        -0.046930 -0.008645 -0.049213,
        -0.044722 -0.010826 -0.049213,
        -0.042037 -0.012420 -0.049213,
        -0.038724 -0.013454 -0.049213,
        -0.034570 -0.013841 -0.049213,
        -0.028981 -0.013841 -0.049213,
        -0.016018 -0.013841 -0.048819,
        -0.016018 -0.018162 -0.048819,
        0.005108 -0.018162 -0.048819,
        0.005108 0.021208 -0.048819,
        -0.015057 0.021208 -0.048819,
        -0.015057 0.016887 -0.048819,
        -0.000174 0.016887 -0.048819,
        -0.000174 0.003924 -0.048819,
        -0.014097 0.003924 -0.048819,
        -0.014097 -0.000398 -0.048819,
        -0.000174 -0.000398 -0.048819,
        -0.000174 -0.013841 -0.048819,
        0.012790 -0.011800 -0.048819,
        0.012790 -0.016122 -0.048819,
        0.016986 -0.017844 -0.048819,
        0.023622 -0.018642 -0.048819,
        0.022546 -0.018624 -0.048819,
        0.028474 -0.018139 -0.048819,
        0.032290 -0.016826 -0.048819,
        0.035457 -0.014804 -0.048819,
        0.038414 -0.011690 -0.048819,
        0.040512 -0.007946 -0.048819,
        0.041696 -0.003779 -0.048819,
        0.042077 0.000780 -0.048819,
        0.022055 0.021688 -0.048819,
        0.026009 0.021365 -0.048819,
        0.030398 0.020090 -0.048819,
        0.034137 0.017938 -0.048819,
        0.037692 0.014519 -0.048819,
        0.040000 0.010839 -0.048819,
        0.041511 0.006378 -0.048819,
        0.012790 0.020128 -0.048819,
        0.017342 0.021363 -0.048819,
        0.012790 0.014846 -0.048819,
        0.022009 0.017367 -0.048819,
        0.017224 0.016745 -0.048819,
        0.036796 0.001103 -0.048819,
        0.036608 0.004166 -0.048819,
        0.035559 0.008381 -0.048819,
        0.033935 0.011420 -0.048819,
        0.031558 0.014045 -0.048819,
        0.028833 0.015868 -0.048819,
        0.025886 0.016932 -0.048819,
        0.022895 -0.014321 -0.048819,
        0.026567 -0.013909 -0.048819,
        0.029435 -0.012853 -0.048819,
        0.031852 -0.011224 -0.048819,
        0.033699 -0.009276 -0.048819,
        0.035328 -0.006546 -0.048819,
        0.036397 -0.003159 -0.048819,
        0.013495 -0.012191 -0.048819,
        0.017669 -0.013741 -0.048819,
        0.045438 -0.013841 -0.048819,
        0.045438 -0.018162 -0.048819,
        0.065603 -0.018162 -0.048819,
        0.065603 0.021208 -0.048819,
        0.060322 0.021208 -0.048819,
        0.060322 -0.013841 -0.048819,
      ]
    }
    coordIndex [
      86, 87, 67, -1,
      67, 87, 63, -1,
      87, 88, 63, -1,
      63, 88, 62, -1,
      88, 89, 62, -1,
      62, 89, 70, -1,
      89, 90, 70, -1,
      70, 90, 69, -1,
      90, 91, 69, -1,
      69, 91, 68, -1,
      91, 92, 68, -1,
      68, 92, 59, -1,
      92, 93, 59, -1,
      59, 93, 73, -1,
      93, 86, 73, -1,
      73, 86, 67, -1,
      94, 90, 95, -1,
      95, 90, 89, -1,
      96, 93, 94, -1,
      94, 93, 92, -1,
      94, 92, 90, -1,
      90, 92, 91, -1,
      96, 97, 93, -1,
      93, 97, 98, -1,
      93, 98, 86, -1,
      86, 98, 99, -1,
      86, 99, 100, -1,
      100, 101, 86, -1,
      86, 101, 95, -1,
      86, 95, 87, -1,
      87, 95, 89, -1,
      87, 89, 88, -1,
      94, 95, 102, -1,
      102, 95, 103, -1,
      96, 94, 104, -1,
      104, 94, 102, -1,
      96, 104, 105, -1,
      96, 105, 97, -1,
      97, 105, 106, -1,
      97, 106, 98, -1,
      99, 98, 107, -1,
      107, 98, 106, -1,
      99, 107, 108, -1,
      99, 108, 100, -1,
      100, 108, 109, -1,
      100, 109, 101, -1,
      95, 101, 103, -1,
      103, 101, 109, -1,
      110, 111, 56, -1,
      56, 111, 57, -1,
      111, 112, 57, -1,
      57, 112, 58, -1,
      112, 113, 58, -1,
      58, 113, 71, -1,
      114, 80, 79, -1,
      114, 79, 115, -1,
      115, 79, 78, -1,
      115, 78, 116, -1,
      116, 78, 77, -1,
      116, 77, 117, -1,
      117, 77, 76, -1,
      117, 76, 118, -1,
      118, 76, 75, -1,
      118, 75, 119, -1,
      119, 75, 74, -1,
      119, 74, 120, -1,
      120, 74, 72, -1,
      120, 72, 121, -1,
      121, 72, 71, -1,
      121, 71, 113, -1,
      110, 56, 66, -1,
      110, 66, 122, -1,
      122, 66, 65, -1,
      122, 65, 123, -1,
      123, 65, 64, -1,
      123, 64, 124, -1,
      124, 64, 61, -1,
      124, 61, 125, -1,
      125, 61, 60, -1,
      125, 60, 126, -1,
      126, 60, 81, -1,
      126, 81, 127, -1,
      127, 81, 80, -1,
      127, 80, 114, -1,
      116, 117, 128, -1,
      128, 117, 118, -1,
      128, 118, 129, -1,
      129, 118, 119, -1,
      129, 119, 130, -1,
      130, 119, 120, -1,
      130, 120, 131, -1,
      131, 120, 121, -1,
      131, 121, 132, -1,
      132, 121, 113, -1,
      132, 113, 133, -1,
      133, 113, 112, -1,
      133, 112, 134, -1,
      134, 112, 111, -1,
      134, 111, 135, -1,
      135, 111, 110, -1,
      135, 110, 136, -1,
      136, 110, 122, -1,
      136, 122, 137, -1,
      137, 122, 123, -1,
      137, 123, 138, -1,
      138, 123, 124, -1,
      138, 124, 139, -1,
      139, 124, 125, -1,
      139, 125, 140, -1,
      140, 125, 126, -1,
      140, 126, 141, -1,
      141, 126, 127, -1,
      141, 127, 142, -1,
      142, 127, 114, -1,
      142, 114, 143, -1,
      143, 114, 115, -1,
      143, 115, 144, -1,
      144, 115, 116, -1,
      144, 116, 128, -1,
      132, 133, 145, -1,
      145, 133, 146, -1,
      132, 145, 147, -1,
      132, 147, 131, -1,
      131, 147, 148, -1,
      131, 148, 130, -1,
      130, 148, 149, -1,
      130, 149, 129, -1,
      129, 149, 150, -1,
      129, 150, 128, -1,
      128, 150, 151, -1,
      128, 151, 144, -1,
      144, 151, 152, -1,
      144, 152, 143, -1,
      143, 152, 153, -1,
      143, 153, 142, -1,
      142, 153, 154, -1,
      142, 154, 141, -1,
      141, 154, 155, -1,
      141, 155, 140, -1,
      140, 155, 156, -1,
      140, 156, 139, -1,
      139, 156, 157, -1,
      139, 157, 138, -1,
      138, 157, 158, -1,
      138, 158, 137, -1,
      137, 158, 159, -1,
      137, 159, 136, -1,
      136, 159, 160, -1,
      136, 160, 135, -1,
      134, 135, 161, -1,
      161, 135, 160, -1,
      133, 134, 146, -1,
      146, 134, 161, -1,
      162, 163, 3, -1,
      3, 163, 0, -1,
      163, 164, 0, -1,
      0, 164, 1, -1,
      164, 165, 1, -1,
      1, 165, 7, -1,
      165, 166, 7, -1,
      7, 166, 4, -1,
      166, 167, 4, -1,
      4, 167, 2, -1,
      167, 168, 2, -1,
      2, 168, 13, -1,
      168, 169, 13, -1,
      13, 169, 12, -1,
      169, 170, 12, -1,
      12, 170, 11, -1,
      170, 171, 11, -1,
      11, 171, 10, -1,
      171, 172, 10, -1,
      10, 172, 8, -1,
      172, 173, 8, -1,
      8, 173, 9, -1,
      173, 162, 9, -1,
      9, 162, 3, -1,
      164, 163, 162, -1,
      162, 173, 164, -1,
      164, 173, 172, -1,
      164, 172, 165, -1,
      167, 166, 168, -1,
      168, 166, 165, -1,
      168, 165, 169, -1,
      169, 165, 172, -1,
      169, 172, 170, -1,
      170, 172, 171, -1,
      174, 175, 6, -1,
      6, 175, 5, -1,
      5, 175, 176, -1,
      177, 85, 84, -1,
      177, 84, 178, -1,
      178, 84, 83, -1,
      178, 83, 176, -1,
      176, 83, 82, -1,
      176, 82, 5, -1,
      85, 177, 31, -1,
      31, 177, 179, -1,
      31, 179, 30, -1,
      30, 179, 180, -1,
      30, 180, 28, -1,
      28, 180, 181, -1,
      28, 181, 40, -1,
      40, 181, 182, -1,
      40, 182, 41, -1,
      41, 182, 183, -1,
      41, 183, 43, -1,
      43, 183, 184, -1,
      43, 184, 45, -1,
      45, 184, 185, -1,
      45, 185, 46, -1,
      186, 50, 49, -1,
      186, 49, 187, -1,
      187, 49, 48, -1,
      187, 48, 188, -1,
      188, 48, 37, -1,
      188, 37, 189, -1,
      189, 37, 38, -1,
      189, 38, 190, -1,
      190, 38, 39, -1,
      190, 39, 191, -1,
      191, 39, 47, -1,
      191, 47, 192, -1,
      192, 47, 46, -1,
      192, 46, 185, -1,
      193, 52, 51, -1,
      193, 51, 194, -1,
      194, 51, 50, -1,
      194, 50, 186, -1,
      193, 195, 52, -1,
      52, 195, 53, -1,
      196, 55, 54, -1,
      196, 54, 197, -1,
      197, 54, 53, -1,
      197, 53, 195, -1,
      198, 19, 36, -1,
      198, 36, 199, -1,
      199, 36, 35, -1,
      199, 35, 200, -1,
      200, 35, 18, -1,
      200, 18, 201, -1,
      201, 18, 17, -1,
      201, 17, 202, -1,
      202, 17, 15, -1,
      202, 15, 203, -1,
      203, 15, 14, -1,
      203, 14, 204, -1,
      204, 14, 55, -1,
      204, 55, 196, -1,
      205, 23, 22, -1,
      205, 22, 206, -1,
      206, 22, 24, -1,
      206, 24, 207, -1,
      207, 24, 25, -1,
      207, 25, 208, -1,
      208, 25, 26, -1,
      208, 26, 209, -1,
      209, 26, 21, -1,
      209, 21, 210, -1,
      210, 21, 20, -1,
      210, 20, 211, -1,
      211, 20, 19, -1,
      211, 19, 198, -1,
      174, 6, 16, -1,
      174, 16, 212, -1,
      212, 16, 27, -1,
      212, 27, 213, -1,
      213, 27, 23, -1,
      213, 23, 205, -1,
      206, 177, 205, -1,
      205, 177, 178, -1,
      205, 178, 213, -1,
      213, 178, 176, -1,
      213, 176, 212, -1,
      212, 176, 175, -1,
      212, 175, 174, -1,
      195, 193, 197, -1,
      197, 193, 194, -1,
      197, 194, 196, -1,
      196, 194, 186, -1,
      196, 186, 204, -1,
      204, 186, 187, -1,
      204, 187, 203, -1,
      203, 187, 188, -1,
      203, 188, 202, -1,
      202, 188, 189, -1,
      202, 189, 201, -1,
      201, 189, 190, -1,
      201, 190, 200, -1,
      200, 190, 191, -1,
      200, 191, 199, -1,
      199, 191, 192, -1,
      199, 192, 198, -1,
      198, 192, 185, -1,
      198, 185, 211, -1,
      211, 185, 184, -1,
      211, 184, 210, -1,
      210, 184, 183, -1,
      210, 183, 209, -1,
      209, 183, 182, -1,
      209, 182, 208, -1,
      208, 182, 181, -1,
      208, 181, 207, -1,
      207, 181, 180, -1,
      207, 180, 206, -1,
      206, 180, 179, -1,
      206, 179, 177, -1,
      214, 215, 42, -1,
      42, 215, 29, -1,
      215, 216, 29, -1,
      29, 216, 32, -1,
      216, 217, 32, -1,
      32, 217, 33, -1,
      217, 218, 33, -1,
      33, 218, 34, -1,
      218, 219, 34, -1,
      34, 219, 44, -1,
      219, 214, 44, -1,
      44, 214, 42, -1,
      218, 217, 219, -1,
      219, 217, 216, -1,
      219, 216, 214, -1,
      214, 216, 215, -1,
    ]
  }
}

Shape {
  appearance Appearance {
    material Material {
      diffuseColor 0.2510 0.2510 0.2510
      specularColor 0.1255 0.1255 0.1255
      ambientIntensity 0.2
      transparency 0.0000
      shininess 0.5
    }
  }
  geometry IndexedFaceSet {
    ccw TRUE
    solid FALSE
    coord DEF co Coordinate {
      point [
        -0.069116 -0.002798 -0.049213,
        -0.082282 -0.002798 -0.049213,
        -0.074990 0.013646 -0.049213,
        -0.075369 0.015011 -0.049213,
        -0.075620 0.016407 -0.049213,
        -0.075748 0.016407 -0.049213,
        -0.076005 0.015016 -0.049213,
        -0.076356 0.013646 -0.049213,
        -0.034787 0.016887 -0.049213,
        -0.028981 0.016887 -0.049213,
        -0.039447 0.016392 -0.049213,
        -0.042697 0.015254 -0.049213,
        -0.045573 0.013396 -0.049213,
        -0.047485 0.011366 -0.049213,
        -0.048853 0.008938 -0.049213,
        -0.049772 0.005824 -0.049213,
        -0.050106 0.001906 -0.049213,
        -0.049745 -0.002230 -0.049213,
        -0.048590 -0.005930 -0.049213,
        -0.046930 -0.008645 -0.049213,
        -0.044722 -0.010826 -0.049213,
        -0.042037 -0.012420 -0.049213,
        -0.038724 -0.013454 -0.049213,
        -0.034570 -0.013841 -0.049213,
        -0.028981 -0.013841 -0.049213,
      ]
    }
    coordIndex [
      0, 1, 2, -1,
      2, 1, 7, -1,
      2, 7, 3, -1,
      3, 7, 6, -1,
      3, 6, 4, -1,
      4, 6, 5, -1,
      9, 24, 8, -1,
      8, 24, 23, -1,
      8, 23, 22, -1,
      16, 15, 8, -1,
      8, 15, 14, -1,
      8, 14, 10, -1,
      22, 21, 8, -1,
      8, 21, 20, -1,
      8, 20, 19, -1,
      19, 18, 8, -1,
      8, 18, 17, -1,
      8, 17, 16, -1,
      13, 12, 14, -1,
      14, 12, 11, -1,
      14, 11, 10, -1,
    ]
  }
}
