#VRML V2.0 utf8

Shape {
  appearance Appearance {
    material Material {
      diffuseColor 1.0000 0.9529 0.7922
      specularColor 0.3020 0.2863 0.2392
      ambientIntensity 0.2
      transparency 0.0000
      shininess 0.5
    }
  }
  geometry IndexedFaceSet {
    ccw TRUE
    solid FALSE
    coord DEF co Coordinate {
      point [
        -0.669291 -0.398622 0.000000,
        -0.885827 -0.398622 0.000000,
        -0.885827 0.201772 0.000000,
        0.205252 0.201772 0.000000,
        -0.061216 -0.346889 0.000000,
        -0.087622 -0.346889 0.000000,
        0.013204 -0.543739 0.000000,
        0.037437 -0.489787 0.000000,
        0.048726 -0.507394 0.000000,
        0.132521 -0.543739 0.000000,
        0.186048 -0.543739 0.000000,
        0.205252 -0.544939 0.000000,
        0.186048 -0.346889 0.000000,
        0.130496 -0.346889 0.000000,
        0.057393 -0.372556 0.000000,
        0.043473 -0.387991 0.000000,
        0.034325 -0.404921 0.000000,
        -0.135635 -0.543739 0.000000,
        -0.164442 -0.543739 0.000000,
        -0.669291 -0.544939 0.000000,
        0.064928 -0.522907 0.000000,
        0.085482 -0.534852 0.000000,
        0.108165 -0.541613 0.000000,
        0.102056 -0.349929 0.000000,
        0.079025 -0.358016 0.000000,
        0.057599 -0.372375 0.000000,
        0.029038 -0.424316 0.000000,
        0.027607 -0.442838 0.000000,
        0.030369 -0.469183 0.000000,
        -0.015604 -0.543739 0.000000,
        -0.034396 -0.488525 0.000000,
        -0.115717 -0.488525 0.000000,
        0.409369 -0.544939 0.000000,
        0.417276 -0.546047 0.000000,
        0.205252 -1.195866 0.000000,
        0.422658 -0.546140 0.000000,
        0.434235 -0.544939 0.000000,
        0.224457 -0.522133 0.000000,
        0.224457 -0.543739 0.000000,
        0.330085 -0.543739 0.000000,
        1.377953 0.201772 0.000000,
        1.377953 -0.398622 0.000000,
        1.161417 -0.398622 0.000000,
        0.368494 -0.533537 0.000000,
        0.368494 -0.511931 0.000000,
        0.330085 -0.346889 0.000000,
        -0.669291 -1.195866 0.000000,
        0.389478 -0.542152 0.000000,
        0.303678 -0.368494 0.000000,
        0.303678 -0.433311 0.000000,
        0.229259 -0.368494 0.000000,
        0.234060 -0.433311 0.000000,
        0.303678 -0.454917 0.000000,
        0.303678 -0.522133 0.000000,
        0.234060 -0.454917 0.000000,
        0.632562 -0.543739 0.000000,
        0.531736 -0.543739 0.000000,
        0.446917 -0.543624 0.000000,
        0.465997 -0.537057 0.000000,
        0.229259 -0.346889 0.000000,
        0.433977 -0.368270 0.000000,
        0.448711 -0.373588 0.000000,
        0.372022 -0.513885 0.000000,
        0.462336 -0.382703 0.000000,
        0.474223 -0.395826 0.000000,
        0.488525 -0.447415 0.000000,
        0.486532 -0.468724 0.000000,
        0.481184 -0.485657 0.000000,
        0.437380 -0.522474 0.000000,
        0.419020 -0.524534 0.000000,
        0.451724 -0.517194 0.000000,
        0.463805 -0.509052 0.000000,
        0.473043 -0.499306 0.000000,
        0.392890 -0.521634 0.000000,
        0.504543 -0.398736 0.000000,
        0.493005 -0.380332 0.000000,
        0.606155 -0.346889 0.000000,
        0.482339 -0.411025 0.000000,
        0.487586 -0.432098 0.000000,
        0.475233 -0.363240 0.000000,
        0.632562 -0.346889 0.000000,
        1.161417 -0.544939 0.000000,
        1.161417 -1.195866 0.000000,
        0.481831 -0.526946 0.000000,
        0.496617 -0.511379 0.000000,
        0.531736 -0.522133 0.000000,
        0.507104 -0.492661 0.000000,
        0.606155 -0.522133 0.000000,
        0.513028 -0.471825 0.000000,
        0.514932 -0.449027 0.000000,
        0.512100 -0.421041 0.000000,
        0.456535 -0.352478 0.000000,
        0.434590 -0.346102 0.000000,
        0.414819 -0.344488 0.000000,
        0.391254 -0.346114 0.000000,
        0.368494 -0.352290 0.000000,
        0.368494 -0.378697 0.000000,
        0.390667 -0.369202 0.000000,
        0.414594 -0.366094 0.000000,
        0.039370 -0.014764 0.816929,
        0.039370 -0.014764 0.157480,
        0.043307 -0.014764 0.196850,
        0.043307 -0.014764 0.137795,
        -0.374016 -0.014764 1.072835,
        -0.551181 -0.014764 1.072835,
        -0.374016 -0.014764 0.836614,
        -0.551181 -0.014764 0.196850,
        -0.102362 -0.014764 0.836614,
        -0.043307 -0.014764 0.718504,
        -0.039370 -0.014764 0.157480,
        -0.039370 -0.014764 0.816929,
        -0.043307 -0.014764 0.137795,
        -0.043307 -0.014764 0.196850,
        -0.102362 -0.014764 0.718504,
        1.043307 -0.014764 0.196850,
        1.043307 -0.014764 1.072835,
        0.866142 -0.014764 0.836614,
        0.866142 -0.014764 1.072835,
        0.389764 -0.014764 0.718504,
        0.448819 -0.014764 0.718504,
        0.448819 -0.014764 0.196850,
        0.452756 -0.014764 0.816929,
        0.535433 -0.014764 0.196850,
        0.531496 -0.014764 0.816929,
        0.531496 -0.014764 0.157480,
        0.389764 -0.014764 0.836614,
        0.102362 -0.014764 0.836614,
        0.102362 -0.014764 0.718504,
        0.043307 -0.014764 0.718504,
        0.043307 -0.014764 0.836614,
        -0.043307 -0.014764 0.836614,
        0.452756 -0.014764 0.157480,
        0.448819 -0.014764 0.137795,
        0.535433 -0.014764 0.137795,
        0.594488 -0.014764 0.836614,
        0.594488 -0.014764 0.718504,
        0.535433 -0.014764 0.718504,
        0.535433 -0.014764 0.836614,
        0.448819 -0.014764 0.836614,
        0.452756 0.201772 0.196850,
        0.448819 0.201772 0.418307,
        0.452756 0.201772 0.816929,
        0.448819 0.201772 0.836614,
        0.531496 0.201772 0.816929,
        -0.039370 0.201772 0.196850,
        0.039370 0.201772 0.196850,
        -0.885827 0.201772 0.418307,
        -0.043307 0.201772 0.418307,
        -0.039370 0.201772 0.816929,
        -0.043307 0.201772 0.836614,
        0.039370 0.201772 0.816929,
        0.531496 0.201772 0.196850,
        0.535433 0.201772 0.836614,
        0.535433 0.201772 0.418307,
        1.377953 0.201772 0.418307,
        0.043307 0.201772 0.836614,
        0.043307 0.201772 0.418307,
        0.594488 0.398622 0.418307,
        1.377953 0.398622 0.418307,
        0.535433 0.339567 0.418307,
        0.535433 -1.195866 0.836614,
        0.448819 -1.195866 0.836614,
        0.866142 -1.136811 0.836614,
        0.807087 -1.195866 0.836614,
        0.594488 -1.195866 0.836614,
        0.535433 -1.136811 0.196850,
        1.043307 -1.136811 0.196850,
        1.102362 -1.195866 0.137795,
        0.535433 -1.195866 0.137795,
        0.389764 0.398622 0.418307,
        0.448819 0.339567 0.418307,
        0.102362 0.398622 0.418307,
        0.043307 0.339567 0.418307,
        0.043307 -1.195866 0.836614,
        -0.043307 -1.195866 0.836614,
        0.389764 -1.195866 0.836614,
        0.102362 -1.195866 0.836614,
        0.448819 -1.136811 0.196850,
        0.043307 -1.136811 0.196850,
        0.043307 -1.195866 0.137795,
        0.448819 -1.195866 0.137795,
        1.161417 0.398622 1.673228,
        1.022387 0.398622 1.549561,
        0.891858 0.398622 1.549561,
        1.161417 0.398622 0.836614,
        1.377953 0.398622 0.836614,
        1.022387 0.398622 1.352379,
        0.748031 0.398622 0.954724,
        0.389764 0.398622 0.895669,
        0.102362 0.398622 0.895669,
        -0.885827 0.398622 0.418307,
        -0.885827 0.398622 0.836614,
        -0.669291 0.398622 0.836614,
        -0.399732 0.398622 1.549561,
        -0.530261 0.398622 1.549561,
        -0.669291 0.398622 1.673228,
        -0.530261 0.398622 1.352379,
        -0.399732 0.398622 1.352379,
        0.594488 0.398622 0.895669,
        -0.255906 0.398622 0.954724,
        -0.102362 0.398622 0.895669,
        -0.255906 0.398622 1.555118,
        0.748031 0.398622 1.555118,
        0.891858 0.398622 1.352379,
        -0.102362 0.398622 0.418307,
        1.212598 0.359252 0.836614,
        1.212598 0.201772 0.836614,
        1.161417 0.162402 0.836614,
        1.326772 0.201772 0.836614,
        1.377953 0.162402 0.836614,
        1.326772 0.359252 0.836614,
        1.161417 -0.398622 1.437008,
        1.200787 -0.359252 1.437008,
        1.200787 -0.118110 1.437008,
        1.338583 -0.359252 1.437008,
        1.377953 -0.398622 1.437008,
        1.338583 -0.118110 1.437008,
        1.377953 0.162402 1.437008,
        1.161417 0.162402 1.437008,
        0.389764 -1.195866 0.777559,
        0.448819 -1.195866 0.777559,
        0.807087 -1.195866 1.131890,
        0.748031 -1.195866 1.614173,
        0.748031 -1.195866 0.895669,
        0.535433 -1.195866 0.777559,
        0.594488 -1.195866 0.777559,
        -0.255906 -1.195866 0.895669,
        -0.102362 -1.195866 0.777559,
        -0.043307 -1.195866 0.777559,
        -0.102362 -1.195866 0.836614,
        0.043307 -1.195866 0.777559,
        0.102362 -1.195866 0.777559,
        1.161417 -1.195866 0.836614,
        1.102362 -1.195866 1.131890,
        1.259843 -1.195866 1.348425,
        0.866142 -1.195866 1.348425,
        0.866142 -1.195866 1.555118,
        -0.610236 -1.195866 1.131890,
        -0.314961 -1.195866 1.131890,
        -0.374016 -1.195866 1.348425,
        1.377953 -1.195866 0.836614,
        1.377953 -1.195866 1.673228,
        1.259843 -1.195866 1.555118,
        -0.767717 -1.195866 1.555118,
        -0.885827 -1.195866 1.673228,
        -0.767717 -1.195866 1.348425,
        -0.885827 -1.195866 0.836614,
        -0.669291 -1.195866 0.836614,
        -0.255906 -1.195866 1.614173,
        -0.374016 -1.195866 1.555118,
        -0.314961 -1.195866 0.836614,
        -0.043307 -1.195866 0.137795,
        -0.610236 -1.195866 0.137795,
        1.377953 -0.959646 0.836614,
        1.377953 -0.959646 0.236220,
        1.377953 -0.398622 0.236220,
        1.377953 -0.398622 1.673228,
        1.161417 -0.398622 1.673228,
        -0.885827 -0.398622 1.673228,
        -0.669291 -0.398622 1.673228,
        -0.255906 -1.136811 0.954724,
        0.137795 -1.136811 0.954724,
        0.137795 -0.821850 0.954724,
        0.354331 -1.136811 0.954724,
        0.748031 -1.136811 0.954724,
        0.354331 -0.821850 0.954724,
        -0.885827 -0.398622 1.437008,
        -0.885827 0.162402 0.836614,
        -0.885827 0.162402 1.437008,
        -0.885827 -0.959646 0.836614,
        -0.885827 -0.398622 0.236220,
        -0.885827 -0.959646 0.236220,
        0.748031 -1.136811 1.555118,
        -0.255906 -1.136811 1.555118,
        0.866142 -0.802165 1.348425,
        0.866142 -0.802165 1.555118,
        1.259843 -0.802165 1.555118,
        1.259843 -0.802165 1.348425,
        -0.767717 -0.802165 1.348425,
        -0.767717 -0.802165 1.555118,
        -0.374016 -0.802165 1.555118,
        -0.374016 -0.802165 1.348425,
        -0.669291 -0.398622 0.236220,
        -0.767717 -0.402559 0.236220,
        -0.767717 -0.959646 0.236220,
        -0.669291 -0.959646 0.236220,
        -0.688976 -0.959646 0.236220,
        -0.688976 -0.402559 0.236220,
        -0.688976 -0.959646 0.832677,
        -0.669291 -0.959646 0.836614,
        -0.767717 -0.959646 0.832677,
        -0.669291 -0.398622 1.437008,
        -0.846457 -0.359252 1.437008,
        -0.846457 -0.118110 1.437008,
        -0.708661 -0.359252 1.437008,
        -0.708661 -0.118110 1.437008,
        -0.669291 0.162402 1.437008,
        -0.669291 0.162402 0.836614,
        -0.720472 0.201772 0.836614,
        -0.720472 0.359252 0.836614,
        -0.834646 0.359252 0.836614,
        -0.834646 0.201772 0.836614,
        -0.551181 -1.136811 0.196850,
        -0.551181 -1.136811 1.072835,
        -0.374016 -1.136811 1.072835,
        -0.374016 -1.136811 0.836614,
        0.866142 -1.136811 1.072835,
        1.043307 -1.136811 1.072835,
        -0.043307 -1.136811 0.196850,
        0.137795 -0.861220 1.151575,
        0.137795 -0.821850 1.151575,
        0.354331 -0.861220 1.151575,
        0.354331 -0.821850 1.151575,
      ]
    }
    coordIndex [
      0, 1, 2, -1,
      3, 4, 5, -1,
      6, 7, 8, -1,
      9, 10, 11, -1,
      11, 10, 12, -1,
      11, 12, 3, -1,
      3, 12, 13, -1,
      14, 15, 4, -1,
      4, 15, 16, -1,
      17, 11, 18, -1,
      18, 11, 19, -1,
      18, 19, 5, -1,
      5, 19, 0, -1,
      5, 0, 3, -1,
      3, 0, 2, -1,
      8, 20, 6, -1,
      6, 20, 21, -1,
      6, 21, 22, -1,
      13, 23, 3, -1,
      3, 23, 24, -1,
      3, 24, 4, -1,
      4, 24, 25, -1,
      4, 25, 14, -1,
      16, 26, 4, -1,
      4, 26, 27, -1,
      4, 27, 6, -1,
      6, 27, 28, -1,
      6, 28, 7, -1,
      22, 9, 6, -1,
      6, 9, 11, -1,
      6, 11, 29, -1,
      29, 11, 17, -1,
      29, 17, 30, -1,
      30, 17, 31, -1,
      32, 33, 34, -1,
      34, 33, 35, -1,
      34, 35, 36, -1,
      3, 37, 11, -1,
      11, 37, 38, -1,
      11, 38, 39, -1,
      40, 41, 3, -1,
      3, 41, 42, -1,
      43, 39, 44, -1,
      44, 39, 45, -1,
      46, 19, 34, -1,
      34, 19, 11, -1,
      34, 11, 32, -1,
      32, 11, 39, -1,
      32, 39, 47, -1,
      47, 39, 43, -1,
      48, 49, 50, -1,
      50, 49, 51, -1,
      52, 53, 54, -1,
      54, 53, 37, -1,
      55, 36, 56, -1,
      56, 36, 57, -1,
      56, 57, 58, -1,
      45, 59, 3, -1,
      3, 59, 50, -1,
      3, 50, 37, -1,
      37, 50, 51, -1,
      37, 51, 54, -1,
      60, 61, 62, -1,
      62, 61, 63, -1,
      62, 63, 64, -1,
      65, 66, 62, -1,
      62, 66, 67, -1,
      68, 69, 70, -1,
      70, 69, 71, -1,
      67, 72, 62, -1,
      62, 72, 71, -1,
      62, 71, 73, -1,
      73, 71, 69, -1,
      74, 75, 76, -1,
      64, 77, 62, -1,
      62, 77, 78, -1,
      62, 78, 65, -1,
      75, 79, 76, -1,
      76, 79, 3, -1,
      76, 3, 80, -1,
      80, 3, 42, -1,
      80, 42, 55, -1,
      55, 42, 81, -1,
      55, 81, 36, -1,
      36, 81, 82, -1,
      36, 82, 34, -1,
      58, 83, 56, -1,
      56, 83, 84, -1,
      56, 84, 85, -1,
      85, 84, 86, -1,
      85, 86, 87, -1,
      86, 88, 87, -1,
      87, 88, 89, -1,
      87, 89, 76, -1,
      76, 89, 90, -1,
      76, 90, 74, -1,
      79, 91, 3, -1,
      3, 91, 92, -1,
      3, 92, 93, -1,
      93, 94, 3, -1,
      3, 94, 95, -1,
      3, 95, 45, -1,
      45, 95, 96, -1,
      45, 96, 44, -1,
      44, 96, 97, -1,
      44, 97, 62, -1,
      62, 97, 98, -1,
      62, 98, 60, -1,
      99, 100, 101, -1,
      101, 100, 102, -1,
      103, 104, 105, -1,
      105, 104, 106, -1,
      105, 106, 107, -1,
      108, 109, 110, -1,
      102, 100, 111, -1,
      111, 100, 109, -1,
      111, 109, 112, -1,
      112, 109, 108, -1,
      112, 108, 106, -1,
      106, 108, 113, -1,
      106, 113, 107, -1,
      114, 115, 116, -1,
      116, 115, 117, -1,
      118, 101, 119, -1,
      119, 101, 120, -1,
      119, 120, 121, -1,
      122, 123, 124, -1,
      125, 126, 118, -1,
      118, 126, 127, -1,
      118, 127, 101, -1,
      101, 127, 128, -1,
      101, 128, 99, -1,
      99, 128, 129, -1,
      99, 129, 110, -1,
      110, 129, 130, -1,
      110, 130, 108, -1,
      121, 120, 131, -1,
      131, 120, 132, -1,
      131, 132, 124, -1,
      124, 132, 133, -1,
      124, 133, 122, -1,
      116, 134, 114, -1,
      114, 134, 135, -1,
      114, 135, 122, -1,
      122, 135, 136, -1,
      122, 136, 123, -1,
      123, 136, 137, -1,
      123, 137, 121, -1,
      121, 137, 138, -1,
      121, 138, 119, -1,
      139, 140, 141, -1,
      141, 140, 142, -1,
      141, 142, 143, -1,
      144, 145, 3, -1,
      2, 146, 147, -1,
      3, 2, 144, -1,
      144, 2, 147, -1,
      144, 147, 148, -1,
      148, 147, 149, -1,
      148, 149, 150, -1,
      151, 40, 3, -1,
      142, 152, 143, -1,
      143, 152, 153, -1,
      143, 153, 151, -1,
      151, 153, 154, -1,
      151, 154, 40, -1,
      149, 155, 150, -1,
      150, 155, 156, -1,
      150, 156, 145, -1,
      145, 156, 140, -1,
      145, 140, 3, -1,
      3, 140, 139, -1,
      3, 139, 151, -1,
      157, 158, 159, -1,
      159, 158, 154, -1,
      159, 154, 153, -1,
      160, 161, 137, -1,
      137, 161, 138, -1,
      116, 162, 134, -1,
      134, 162, 163, -1,
      134, 163, 164, -1,
      165, 166, 122, -1,
      122, 166, 114, -1,
      167, 166, 168, -1,
      168, 166, 165, -1,
      169, 170, 171, -1,
      171, 170, 140, -1,
      171, 140, 172, -1,
      172, 140, 156, -1,
      173, 174, 129, -1,
      129, 174, 130, -1,
      175, 176, 125, -1,
      125, 176, 126, -1,
      120, 101, 177, -1,
      177, 101, 178, -1,
      178, 179, 177, -1,
      177, 179, 180, -1,
      181, 182, 183, -1,
      184, 185, 158, -1,
      182, 181, 186, -1,
      186, 181, 184, -1,
      186, 184, 187, -1,
      169, 171, 188, -1,
      188, 171, 189, -1,
      190, 191, 192, -1,
      193, 194, 195, -1,
      195, 194, 196, -1,
      195, 196, 192, -1,
      192, 196, 197, -1,
      158, 157, 184, -1,
      184, 157, 198, -1,
      184, 198, 187, -1,
      187, 198, 188, -1,
      187, 188, 199, -1,
      199, 188, 189, -1,
      199, 189, 200, -1,
      201, 181, 202, -1,
      202, 181, 183, -1,
      202, 183, 187, -1,
      187, 183, 203, -1,
      187, 203, 186, -1,
      204, 190, 200, -1,
      200, 190, 192, -1,
      200, 192, 199, -1,
      199, 192, 197, -1,
      199, 197, 201, -1,
      201, 197, 193, -1,
      201, 193, 181, -1,
      181, 193, 195, -1,
      205, 184, 206, -1,
      206, 184, 207, -1,
      206, 207, 208, -1,
      208, 207, 209, -1,
      208, 209, 210, -1,
      210, 209, 185, -1,
      210, 185, 205, -1,
      205, 185, 184, -1,
      211, 212, 213, -1,
      212, 211, 214, -1,
      214, 211, 215, -1,
      214, 215, 216, -1,
      216, 215, 217, -1,
      216, 217, 213, -1,
      213, 217, 218, -1,
      213, 218, 211, -1,
      175, 219, 220, -1,
      221, 222, 223, -1,
      224, 225, 160, -1,
      160, 225, 164, -1,
      161, 160, 226, -1,
      226, 160, 164, -1,
      226, 164, 223, -1,
      223, 164, 163, -1,
      223, 163, 221, -1,
      167, 168, 34, -1,
      34, 168, 180, -1,
      227, 228, 229, -1,
      229, 228, 174, -1,
      229, 174, 226, -1,
      226, 174, 173, -1,
      230, 231, 173, -1,
      173, 231, 176, -1,
      173, 176, 226, -1,
      226, 176, 175, -1,
      226, 175, 161, -1,
      161, 175, 220, -1,
      34, 82, 167, -1,
      167, 82, 232, -1,
      167, 232, 233, -1,
      233, 232, 234, -1,
      233, 234, 221, -1,
      221, 234, 235, -1,
      221, 235, 222, -1,
      222, 235, 236, -1,
      237, 238, 239, -1,
      232, 240, 234, -1,
      234, 240, 241, -1,
      234, 241, 242, -1,
      243, 244, 245, -1,
      245, 244, 246, -1,
      245, 246, 247, -1,
      236, 242, 222, -1,
      222, 242, 241, -1,
      222, 241, 248, -1,
      248, 241, 244, -1,
      248, 244, 249, -1,
      249, 244, 243, -1,
      249, 239, 248, -1,
      248, 239, 238, -1,
      248, 238, 226, -1,
      226, 238, 250, -1,
      226, 250, 229, -1,
      180, 179, 34, -1,
      34, 179, 251, -1,
      34, 251, 46, -1,
      46, 251, 252, -1,
      46, 252, 247, -1,
      247, 252, 237, -1,
      247, 237, 245, -1,
      245, 237, 239, -1,
      209, 217, 215, -1,
      158, 185, 154, -1,
      154, 185, 209, -1,
      253, 254, 255, -1,
      241, 240, 253, -1,
      256, 241, 215, -1,
      215, 241, 253, -1,
      215, 253, 209, -1,
      209, 253, 255, -1,
      209, 255, 154, -1,
      154, 255, 41, -1,
      154, 41, 40, -1,
      241, 256, 244, -1,
      244, 256, 257, -1,
      258, 244, 259, -1,
      259, 244, 257, -1,
      259, 257, 195, -1,
      195, 257, 181, -1,
      260, 261, 262, -1,
      263, 264, 265, -1,
      265, 264, 187, -1,
      265, 187, 262, -1,
      262, 187, 199, -1,
      262, 199, 260, -1,
      244, 258, 266, -1,
      191, 190, 267, -1,
      267, 190, 146, -1,
      268, 267, 269, -1,
      268, 269, 266, -1,
      266, 269, 246, -1,
      266, 246, 244, -1,
      2, 1, 146, -1,
      146, 1, 270, -1,
      146, 270, 267, -1,
      267, 270, 271, -1,
      267, 271, 269, -1,
      223, 222, 272, -1,
      202, 187, 272, -1,
      272, 187, 264, -1,
      272, 264, 223, -1,
      248, 226, 260, -1,
      199, 201, 260, -1,
      260, 201, 273, -1,
      260, 273, 248, -1,
      273, 201, 272, -1,
      272, 201, 202, -1,
      274, 275, 235, -1,
      235, 275, 236, -1,
      275, 276, 236, -1,
      236, 276, 242, -1,
      276, 277, 242, -1,
      242, 277, 234, -1,
      277, 274, 234, -1,
      234, 274, 235, -1,
      277, 276, 274, -1,
      274, 276, 275, -1,
      278, 279, 245, -1,
      245, 279, 243, -1,
      279, 280, 243, -1,
      243, 280, 249, -1,
      280, 281, 249, -1,
      249, 281, 239, -1,
      281, 278, 239, -1,
      239, 278, 245, -1,
      281, 280, 278, -1,
      278, 280, 279, -1,
      0, 282, 1, -1,
      1, 282, 270, -1,
      283, 284, 271, -1,
      282, 285, 286, -1,
      286, 287, 282, -1,
      282, 287, 283, -1,
      282, 283, 270, -1,
      270, 283, 271, -1,
      286, 285, 288, -1,
      288, 285, 289, -1,
      288, 289, 290, -1,
      290, 289, 269, -1,
      290, 269, 284, -1,
      284, 269, 271, -1,
      289, 247, 269, -1,
      269, 247, 246, -1,
      282, 0, 285, -1,
      285, 0, 46, -1,
      285, 46, 289, -1,
      289, 46, 247, -1,
      259, 291, 258, -1,
      258, 291, 266, -1,
      266, 292, 293, -1,
      292, 266, 294, -1,
      294, 266, 291, -1,
      294, 291, 295, -1,
      295, 291, 296, -1,
      295, 296, 293, -1,
      293, 296, 268, -1,
      293, 268, 266, -1,
      296, 297, 268, -1,
      268, 297, 267, -1,
      298, 297, 299, -1,
      299, 297, 192, -1,
      299, 192, 300, -1,
      300, 192, 191, -1,
      300, 191, 301, -1,
      301, 191, 267, -1,
      301, 267, 298, -1,
      298, 267, 297, -1,
      291, 259, 296, -1,
      296, 259, 195, -1,
      296, 195, 297, -1,
      297, 195, 192, -1,
      302, 106, 303, -1,
      303, 106, 104, -1,
      303, 104, 304, -1,
      304, 104, 103, -1,
      304, 103, 305, -1,
      305, 103, 105, -1,
      305, 105, 250, -1,
      250, 105, 107, -1,
      250, 107, 229, -1,
      162, 116, 306, -1,
      306, 116, 117, -1,
      306, 117, 307, -1,
      307, 117, 115, -1,
      307, 115, 166, -1,
      166, 115, 114, -1,
      112, 106, 308, -1,
      308, 106, 302, -1,
      309, 310, 261, -1,
      261, 310, 262, -1,
      263, 265, 311, -1,
      311, 265, 312, -1,
      310, 312, 262, -1,
      262, 312, 265, -1,
      311, 312, 309, -1,
      309, 312, 310, -1,
      263, 311, 261, -1,
      261, 311, 309, -1,
    ]
  }
}

Shape {
  appearance Appearance {
    material Material {
      diffuseColor 0.8510 0.8510 0.8510
      specularColor 0.4235 0.4235 0.4235
      ambientIntensity 0.2
      transparency 0.0000
      shininess 0.5
    }
  }
  geometry IndexedFaceSet {
    ccw TRUE
    solid FALSE
    coord DEF co Coordinate {
      point [
        -0.767717 -0.402559 0.236220,
        -0.767717 -0.959646 0.236220,
        -0.688976 -0.959646 0.236220,
        -0.688976 -0.402559 0.236220,
        -0.688976 -0.959646 0.832677,
        -0.767717 -0.959646 0.832677,
        -0.767717 -0.402559 0.055118,
        -0.688976 -0.402559 0.055118,
        -0.688976 -0.404571 0.039833,
        -0.767717 -0.404571 0.039833,
        -0.688976 -0.410471 0.025591,
        -0.767717 -0.410471 0.025591,
        -0.688976 -0.419856 0.013360,
        -0.767717 -0.419856 0.013360,
        -0.688976 -0.432087 0.003975,
        -0.767717 -0.432087 0.003975,
        -0.688976 -0.446330 -0.001925,
        -0.767717 -0.446330 -0.001925,
        -0.688976 -0.461614 -0.003937,
        -0.767717 -0.461614 -0.003937,
        -0.767717 -1.140748 -0.003937,
        -0.688976 -1.140748 -0.003937,
        -0.688976 -1.156033 -0.001925,
        -0.767717 -1.156033 -0.001925,
        -0.688976 -1.170276 0.003975,
        -0.767717 -1.170276 0.003975,
        -0.688976 -1.182506 0.013360,
        -0.767717 -1.182506 0.013360,
        -0.688976 -1.191891 0.025591,
        -0.767717 -1.191891 0.025591,
        -0.688976 -1.197791 0.039833,
        -0.767717 -1.197791 0.039833,
        -0.688976 -1.199803 0.055118,
        -0.767717 -1.199803 0.055118,
        -0.767717 -1.199803 0.773622,
        -0.688976 -1.199803 0.773622,
        -0.688976 -1.197791 0.788907,
        -0.767717 -1.197791 0.788907,
        -0.688976 -1.191891 0.803150,
        -0.767717 -1.191891 0.803150,
        -0.688976 -1.182506 0.815380,
        -0.767717 -1.182506 0.815380,
        -0.688976 -1.170276 0.824765,
        -0.767717 -1.170276 0.824765,
        -0.688976 -1.156033 0.830665,
        -0.767717 -1.156033 0.830665,
        -0.688976 -1.140748 0.832677,
        -0.767717 -1.140748 0.832677,
      ]
    }
    coordIndex [
      6, 0, 7, -1,
      7, 0, 3, -1,
      6, 7, 8, -1,
      6, 8, 9, -1,
      9, 8, 10, -1,
      9, 10, 11, -1,
      11, 10, 12, -1,
      11, 12, 13, -1,
      13, 12, 14, -1,
      13, 14, 15, -1,
      15, 14, 16, -1,
      15, 16, 17, -1,
      17, 16, 18, -1,
      17, 18, 19, -1,
      20, 19, 21, -1,
      21, 19, 18, -1,
      20, 21, 22, -1,
      20, 22, 23, -1,
      23, 22, 24, -1,
      23, 24, 25, -1,
      25, 24, 26, -1,
      25, 26, 27, -1,
      27, 26, 28, -1,
      27, 28, 29, -1,
      29, 28, 30, -1,
      29, 30, 31, -1,
      31, 30, 32, -1,
      31, 32, 33, -1,
      34, 33, 35, -1,
      35, 33, 32, -1,
      34, 35, 36, -1,
      34, 36, 37, -1,
      37, 36, 38, -1,
      37, 38, 39, -1,
      39, 38, 40, -1,
      39, 40, 41, -1,
      41, 40, 42, -1,
      41, 42, 43, -1,
      43, 42, 44, -1,
      43, 44, 45, -1,
      45, 44, 46, -1,
      45, 46, 47, -1,
      5, 47, 4, -1,
      4, 47, 46, -1,
      29, 1, 27, -1,
      27, 1, 0, -1,
      27, 0, 6, -1,
      29, 31, 1, -1,
      1, 31, 33, -1,
      1, 33, 5, -1,
      5, 33, 34, -1,
      5, 34, 47, -1,
      15, 6, 13, -1,
      13, 6, 9, -1,
      13, 9, 11, -1,
      39, 41, 43, -1,
      23, 25, 20, -1,
      20, 25, 27, -1,
      20, 27, 19, -1,
      19, 27, 6, -1,
      19, 6, 17, -1,
      17, 6, 15, -1,
      34, 37, 47, -1,
      47, 37, 39, -1,
      47, 39, 45, -1,
      45, 39, 43, -1,
      7, 3, 2, -1,
      28, 26, 2, -1,
      2, 26, 24, -1,
      10, 8, 7, -1,
      36, 35, 46, -1,
      46, 35, 32, -1,
      46, 32, 4, -1,
      4, 32, 2, -1,
      2, 32, 30, -1,
      2, 30, 28, -1,
      24, 22, 2, -1,
      2, 22, 21, -1,
      2, 21, 7, -1,
      7, 21, 18, -1,
      7, 18, 16, -1,
      16, 14, 7, -1,
      7, 14, 12, -1,
      7, 12, 10, -1,
      46, 44, 36, -1,
      36, 44, 42, -1,
      36, 42, 38, -1,
      38, 42, 40, -1,
    ]
  }
}

Shape {
  appearance Appearance {
    material Material {
      diffuseColor 1.0000 0.9529 0.7922
      specularColor 0.3020 0.2863 0.2392
      ambientIntensity 0.2
      transparency 0.0000
      shininess 0.5
    }
  }
  geometry IndexedFaceSet {
    ccw TRUE
    solid FALSE
    coord DEF co Coordinate {
      point [
        1.377953 -0.398622 0.000000,
        1.161417 -0.398622 0.000000,
        1.161417 -1.195866 0.000000,
        0.866142 -1.136811 0.836614,
        0.807087 -1.195866 0.836614,
        1.043307 -1.136811 0.196850,
        1.102362 -1.195866 0.137795,
        1.161417 0.398622 1.673228,
        1.161417 0.398622 0.836614,
        -0.399732 0.398622 1.549561,
        -0.530261 0.398622 1.549561,
        -0.530261 0.398622 1.352379,
        -0.399732 0.398622 1.352379,
        1.161417 0.162402 0.836614,
        1.377953 0.162402 0.836614,
        1.161417 -0.398622 1.437008,
        1.377953 -0.398622 1.437008,
        1.377953 0.162402 1.437008,
        1.161417 0.162402 1.437008,
        0.807087 -1.195866 1.131890,
        0.748031 -1.195866 1.614173,
        0.748031 -1.195866 0.895669,
        -0.255906 -1.195866 0.895669,
        1.161417 -1.195866 0.836614,
        1.102362 -1.195866 1.131890,
        -0.610236 -1.195866 1.131890,
        -0.314961 -1.195866 1.131890,
        1.377953 -1.195866 0.836614,
        -0.255906 -1.195866 1.614173,
        -0.314961 -1.195866 0.836614,
        -0.043307 -1.195866 0.137795,
        -0.610236 -1.195866 0.137795,
        1.377953 -0.959646 0.836614,
        1.377953 -0.959646 0.236220,
        1.377953 -0.398622 0.236220,
        1.377953 -0.398622 1.673228,
        1.161417 -0.398622 1.673228,
        -0.255906 -1.136811 0.954724,
        0.137795 -1.136811 0.954724,
        0.354331 -1.136811 0.954724,
        0.748031 -1.136811 0.954724,
        0.748031 -1.136811 1.555118,
        -0.255906 -1.136811 1.555118,
        -0.846457 -0.359252 1.437008,
        -0.846457 -0.118110 1.437008,
        -0.708661 -0.359252 1.437008,
        -0.708661 -0.118110 1.437008,
        -0.720472 0.201772 0.836614,
        -0.720472 0.359252 0.836614,
        -0.834646 0.359252 0.836614,
        -0.834646 0.201772 0.836614,
        -0.551181 -1.136811 0.196850,
        -0.551181 -1.136811 1.072835,
        -0.374016 -1.136811 1.072835,
        -0.374016 -1.136811 0.836614,
        0.866142 -1.136811 1.072835,
        1.043307 -1.136811 1.072835,
        -0.043307 -1.136811 0.196850,
        -0.834646 0.359252 0.452756,
        -0.834646 0.201772 0.452756,
        -0.720472 0.359252 0.452756,
        -0.720472 0.201772 0.452756,
        -0.846457 -0.359252 0.452756,
        -0.846457 -0.118110 0.452756,
        -0.708661 -0.118110 0.452756,
        -0.708661 -0.359252 0.452756,
        -0.399732 -0.585630 1.352379,
        -0.399732 -0.585630 1.549561,
        -0.530261 -0.585630 1.549561,
        -0.530261 -0.585630 1.352379,
        1.161417 -0.959646 0.836614,
        1.259843 -0.959646 0.832677,
        1.259843 -0.959646 0.236220,
        1.161417 -0.959646 0.236220,
        1.181102 -0.959646 0.236220,
        1.181102 -0.959646 0.832677,
        1.181102 -0.402559 0.236220,
        1.161417 -0.398622 0.236220,
        1.259843 -0.402559 0.236220,
      ]
    }
    coordIndex [
      58, 49, 59, -1,
      59, 49, 50, -1,
      60, 48, 58, -1,
      58, 48, 49, -1,
      61, 47, 60, -1,
      60, 47, 48, -1,
      59, 50, 61, -1,
      61, 50, 47, -1,
      61, 60, 59, -1,
      59, 60, 58, -1,
      62, 63, 43, -1,
      43, 63, 44, -1,
      63, 64, 44, -1,
      44, 64, 46, -1,
      64, 65, 46, -1,
      46, 65, 45, -1,
      65, 62, 45, -1,
      45, 62, 43, -1,
      65, 64, 62, -1,
      62, 64, 63, -1,
      28, 42, 20, -1,
      20, 42, 41, -1,
      38, 37, 22, -1,
      38, 22, 39, -1,
      39, 22, 21, -1,
      39, 21, 40, -1,
      55, 19, 3, -1,
      3, 19, 4, -1,
      56, 24, 55, -1,
      55, 24, 19, -1,
      5, 6, 56, -1,
      56, 6, 24, -1,
      51, 31, 57, -1,
      57, 31, 30, -1,
      52, 25, 51, -1,
      51, 25, 31, -1,
      53, 26, 52, -1,
      52, 26, 25, -1,
      26, 53, 29, -1,
      29, 53, 54, -1,
      66, 67, 12, -1,
      12, 67, 9, -1,
      67, 68, 9, -1,
      9, 68, 10, -1,
      68, 69, 10, -1,
      10, 69, 11, -1,
      69, 66, 11, -1,
      11, 66, 12, -1,
      69, 68, 66, -1,
      66, 68, 67, -1,
      23, 70, 27, -1,
      27, 70, 32, -1,
      71, 72, 33, -1,
      70, 73, 74, -1,
      74, 75, 70, -1,
      70, 75, 71, -1,
      70, 71, 32, -1,
      32, 71, 33, -1,
      74, 73, 76, -1,
      76, 73, 77, -1,
      76, 77, 78, -1,
      78, 77, 34, -1,
      78, 34, 72, -1,
      72, 34, 33, -1,
      77, 1, 34, -1,
      34, 1, 0, -1,
      70, 23, 73, -1,
      73, 23, 2, -1,
      73, 2, 77, -1,
      77, 2, 1, -1,
      13, 18, 14, -1,
      14, 18, 17, -1,
      15, 36, 16, -1,
      16, 36, 35, -1,
      13, 8, 18, -1,
      18, 8, 7, -1,
      18, 7, 15, -1,
      15, 7, 36, -1,
    ]
  }
}

Shape {
  appearance Appearance {
    material Material {
      diffuseColor 0.8510 0.8510 0.8510
      specularColor 0.4235 0.4235 0.4235
      ambientIntensity 0.2
      transparency 0.0000
      shininess 0.5
    }
  }
  geometry IndexedFaceSet {
    ccw TRUE
    solid FALSE
    coord DEF co Coordinate {
      point [
        1.259843 -0.959646 0.832677,
        1.259843 -0.959646 0.236220,
        1.181102 -0.959646 0.236220,
        1.181102 -0.959646 0.832677,
        1.181102 -0.402559 0.236220,
        1.259843 -0.402559 0.236220,
        1.259843 -1.140748 0.832677,
        1.181102 -1.140748 0.832677,
        1.181102 -1.156033 0.830665,
        1.259843 -1.156033 0.830665,
        1.181102 -1.170276 0.824765,
        1.259843 -1.170276 0.824765,
        1.181102 -1.182506 0.815380,
        1.259843 -1.182506 0.815380,
        1.181102 -1.191891 0.803150,
        1.259843 -1.191891 0.803150,
        1.181102 -1.197791 0.788907,
        1.259843 -1.197791 0.788907,
        1.181102 -1.199803 0.773622,
        1.259843 -1.199803 0.773622,
        1.259843 -1.199803 0.055118,
        1.181102 -1.199803 0.055118,
        1.181102 -1.197791 0.039833,
        1.259843 -1.197791 0.039833,
        1.181102 -1.191891 0.025591,
        1.259843 -1.191891 0.025591,
        1.181102 -1.182506 0.013360,
        1.259843 -1.182506 0.013360,
        1.181102 -1.170276 0.003975,
        1.259843 -1.170276 0.003975,
        1.181102 -1.156033 -0.001925,
        1.259843 -1.156033 -0.001925,
        1.181102 -1.140748 -0.003937,
        1.259843 -1.140748 -0.003937,
        1.259843 -0.461614 -0.003937,
        1.181102 -0.461614 -0.003937,
        1.181102 -0.446330 -0.001925,
        1.259843 -0.446330 -0.001925,
        1.181102 -0.432087 0.003975,
        1.259843 -0.432087 0.003975,
        1.181102 -0.419856 0.013360,
        1.259843 -0.419856 0.013360,
        1.181102 -0.410471 0.025591,
        1.259843 -0.410471 0.025591,
        1.181102 -0.404571 0.039833,
        1.259843 -0.404571 0.039833,
        1.181102 -0.402559 0.055118,
        1.259843 -0.402559 0.055118,
      ]
    }
    coordIndex [
      6, 0, 7, -1,
      7, 0, 3, -1,
      6, 7, 8, -1,
      6, 8, 9, -1,
      9, 8, 10, -1,
      9, 10, 11, -1,
      11, 10, 12, -1,
      11, 12, 13, -1,
      13, 12, 14, -1,
      13, 14, 15, -1,
      15, 14, 16, -1,
      15, 16, 17, -1,
      17, 16, 18, -1,
      17, 18, 19, -1,
      20, 19, 21, -1,
      21, 19, 18, -1,
      20, 21, 22, -1,
      20, 22, 23, -1,
      23, 22, 24, -1,
      23, 24, 25, -1,
      25, 24, 26, -1,
      25, 26, 27, -1,
      27, 26, 28, -1,
      27, 28, 29, -1,
      29, 28, 30, -1,
      29, 30, 31, -1,
      31, 30, 32, -1,
      31, 32, 33, -1,
      34, 33, 35, -1,
      35, 33, 32, -1,
      34, 35, 36, -1,
      34, 36, 37, -1,
      37, 36, 38, -1,
      37, 38, 39, -1,
      39, 38, 40, -1,
      39, 40, 41, -1,
      41, 40, 42, -1,
      41, 42, 43, -1,
      43, 42, 44, -1,
      43, 44, 45, -1,
      45, 44, 46, -1,
      45, 46, 47, -1,
      5, 47, 4, -1,
      4, 47, 46, -1,
      47, 5, 1, -1,
      25, 27, 1, -1,
      1, 27, 29, -1,
      29, 31, 1, -1,
      1, 31, 33, -1,
      1, 33, 47, -1,
      47, 33, 34, -1,
      47, 34, 45, -1,
      17, 19, 6, -1,
      6, 19, 20, -1,
      6, 20, 0, -1,
      0, 20, 1, -1,
      1, 20, 23, -1,
      1, 23, 25, -1,
      37, 39, 41, -1,
      37, 41, 34, -1,
      34, 41, 43, -1,
      34, 43, 45, -1,
      6, 9, 17, -1,
      17, 9, 11, -1,
      17, 11, 15, -1,
      15, 11, 13, -1,
      24, 2, 26, -1,
      26, 2, 4, -1,
      26, 4, 46, -1,
      24, 22, 2, -1,
      2, 22, 21, -1,
      2, 21, 3, -1,
      3, 21, 18, -1,
      3, 18, 7, -1,
      44, 42, 40, -1,
      30, 28, 32, -1,
      32, 28, 26, -1,
      32, 26, 35, -1,
      35, 26, 46, -1,
      35, 46, 36, -1,
      14, 12, 10, -1,
      44, 40, 46, -1,
      46, 40, 38, -1,
      46, 38, 36, -1,
      18, 16, 7, -1,
      7, 16, 14, -1,
      7, 14, 8, -1,
      8, 14, 10, -1,
    ]
  }
}

Shape {
  appearance Appearance {
    material Material {
      diffuseColor 1.0000 0.9529 0.7922
      specularColor 0.3020 0.2863 0.2392
      ambientIntensity 0.2
      transparency 0.0000
      shininess 0.5
    }
  }
  geometry IndexedFaceSet {
    ccw TRUE
    solid FALSE
    coord DEF co Coordinate {
      point [
        0.043307 -0.014764 0.196850,
        0.043307 -0.014764 0.137795,
        -0.102362 -0.014764 0.836614,
        -0.043307 -0.014764 0.718504,
        -0.043307 -0.014764 0.137795,
        -0.043307 -0.014764 0.196850,
        -0.102362 -0.014764 0.718504,
        0.102362 -0.014764 0.836614,
        0.102362 -0.014764 0.718504,
        0.043307 -0.014764 0.718504,
        0.043307 -0.014764 0.836614,
        -0.043307 -0.014764 0.836614,
        -0.885827 0.201772 0.418307,
        -0.043307 0.201772 0.418307,
        -0.043307 0.201772 0.836614,
        0.043307 0.201772 0.836614,
        0.043307 0.201772 0.418307,
        0.102362 0.398622 0.418307,
        0.043307 0.339567 0.418307,
        0.043307 -1.195866 0.836614,
        -0.043307 -1.195866 0.836614,
        0.102362 -1.195866 0.836614,
        0.043307 -1.136811 0.196850,
        0.043307 -1.195866 0.137795,
        1.022387 0.398622 1.549561,
        0.891858 0.398622 1.549561,
        1.022387 0.398622 1.352379,
        0.102362 0.398622 0.895669,
        -0.885827 0.398622 0.418307,
        -0.102362 0.398622 0.895669,
        0.891858 0.398622 1.352379,
        -0.102362 0.398622 0.418307,
        1.212598 0.359252 0.836614,
        1.212598 0.201772 0.836614,
        1.326772 0.201772 0.836614,
        1.326772 0.359252 0.836614,
        1.200787 -0.359252 1.437008,
        1.200787 -0.118110 1.437008,
        1.338583 -0.359252 1.437008,
        1.338583 -0.118110 1.437008,
        -0.102362 -1.195866 0.777559,
        -0.043307 -1.195866 0.777559,
        -0.102362 -1.195866 0.836614,
        0.043307 -1.195866 0.777559,
        0.102362 -1.195866 0.777559,
        -0.043307 -1.195866 0.137795,
        -0.043307 -1.136811 0.196850,
        1.338583 -0.118110 0.452756,
        1.338583 -0.359252 0.452756,
        1.200787 -0.359252 0.452756,
        1.200787 -0.118110 0.452756,
        1.326772 0.201772 0.452756,
        1.326772 0.359252 0.452756,
        1.212598 0.201772 0.452756,
        1.212598 0.359252 0.452756,
        0.891858 -0.585630 1.549561,
        0.891858 -0.585630 1.352379,
        1.022387 -0.585630 1.352379,
        1.022387 -0.585630 1.549561,
        -0.043307 0.339567 0.418307,
        -0.102362 -1.136811 0.718504,
        -0.043307 -1.136811 0.718504,
        0.043307 -1.136811 0.718504,
        0.102362 -1.136811 0.718504,
        0.043307 0.339567 0.836614,
        -0.043307 0.339567 0.836614,
      ]
    }
    coordIndex [
      47, 48, 39, -1,
      39, 48, 38, -1,
      48, 49, 38, -1,
      38, 49, 36, -1,
      49, 50, 36, -1,
      36, 50, 37, -1,
      50, 47, 37, -1,
      37, 47, 39, -1,
      50, 49, 47, -1,
      47, 49, 48, -1,
      51, 34, 52, -1,
      52, 34, 35, -1,
      53, 33, 51, -1,
      51, 33, 34, -1,
      54, 32, 53, -1,
      53, 32, 33, -1,
      52, 35, 54, -1,
      54, 35, 32, -1,
      54, 53, 52, -1,
      52, 53, 51, -1,
      55, 56, 25, -1,
      25, 56, 30, -1,
      56, 57, 30, -1,
      30, 57, 26, -1,
      57, 58, 26, -1,
      26, 58, 24, -1,
      58, 55, 24, -1,
      24, 55, 25, -1,
      58, 57, 55, -1,
      55, 57, 56, -1,
      59, 13, 31, -1,
      31, 13, 12, -1,
      31, 12, 28, -1,
      23, 1, 45, -1,
      45, 1, 4, -1,
      0, 1, 22, -1,
      22, 1, 23, -1,
      4, 5, 45, -1,
      45, 5, 46, -1,
      60, 6, 61, -1,
      61, 6, 3, -1,
      3, 11, 61, -1,
      61, 11, 20, -1,
      61, 20, 41, -1,
      40, 42, 60, -1,
      60, 42, 2, -1,
      60, 2, 6, -1,
      43, 19, 62, -1,
      62, 19, 10, -1,
      62, 10, 9, -1,
      62, 9, 63, -1,
      63, 9, 8, -1,
      8, 7, 63, -1,
      63, 7, 21, -1,
      63, 21, 44, -1,
      61, 41, 60, -1,
      60, 41, 40, -1,
      63, 44, 62, -1,
      62, 44, 43, -1,
      18, 16, 64, -1,
      64, 16, 15, -1,
      64, 15, 65, -1,
      65, 15, 14, -1,
      65, 14, 59, -1,
      59, 14, 13, -1,
      29, 65, 31, -1,
      31, 65, 59, -1,
      27, 64, 29, -1,
      29, 64, 65, -1,
      17, 18, 27, -1,
      27, 18, 64, -1,
    ]
  }
}

Shape {
  appearance Appearance {
    material Material {
      diffuseColor 0.8510 0.8510 0.8510
      specularColor 0.4235 0.4235 0.4235
      ambientIntensity 0.2
      transparency 0.0000
      shininess 0.5
    }
  }
  geometry IndexedFaceSet {
    ccw TRUE
    solid FALSE
    coord DEF co Coordinate {
      point [
        0.039370 -0.014764 0.816929,
        0.039370 -0.014764 0.157480,
        -0.039370 -0.014764 0.157480,
        -0.039370 -0.014764 0.816929,
        -0.039370 0.201772 0.196850,
        0.039370 0.201772 0.196850,
        -0.039370 0.201772 0.816929,
        0.039370 0.201772 0.816929,
        -0.039370 0.288431 0.816929,
        0.039370 0.288431 0.816929,
        0.039370 0.310584 0.814013,
        -0.039370 0.310584 0.814013,
        0.039370 0.331228 0.805462,
        -0.039370 0.331228 0.805462,
        0.039370 0.348955 0.791859,
        -0.039370 0.348955 0.791859,
        0.039370 0.362557 0.774133,
        -0.039370 0.362557 0.774133,
        0.039370 0.371108 0.753489,
        -0.039370 0.371108 0.753489,
        0.039370 0.374024 0.731336,
        -0.039370 0.374024 0.731336,
        0.039370 0.374024 0.173228,
        -0.039370 0.374024 0.173228,
        -0.039370 0.376707 0.152849,
        0.039370 0.376707 0.152849,
        -0.039370 0.384574 0.133858,
        0.039370 0.384574 0.133858,
        -0.039370 0.397087 0.117551,
        0.039370 0.397087 0.117551,
        -0.039370 0.413394 0.105037,
        0.039370 0.413394 0.105037,
        -0.039370 0.432385 0.097171,
        0.039370 0.432385 0.097171,
        -0.039370 0.452765 0.094488,
        0.039370 0.452765 0.094488,
        -0.039370 0.664370 0.094488,
        0.039370 0.664370 0.094488,
        0.039370 0.664370 -0.003937,
        0.039370 0.319882 -0.003937,
        -0.039370 0.664370 -0.003937,
        -0.039370 0.319882 -0.003937,
        0.039370 0.299502 -0.001254,
        -0.039370 0.299502 -0.001254,
        0.039370 0.280512 0.006612,
        -0.039370 0.280512 0.006612,
        0.039370 0.264204 0.019126,
        -0.039370 0.264204 0.019126,
        0.039370 0.251691 0.035433,
        -0.039370 0.251691 0.035433,
        0.039370 0.243825 0.054424,
        -0.039370 0.243825 0.054424,
        0.039370 0.241142 0.074803,
        -0.039370 0.241142 0.074803,
        0.039370 0.241142 0.157480,
        -0.039370 0.241142 0.157480,
        -0.039370 0.677107 -0.002260,
        -0.039370 0.713583 0.045276,
        -0.039370 0.211961 0.195509,
        -0.039370 0.239800 0.167670,
        -0.039370 0.235867 0.177165,
        -0.039370 0.229611 0.185319,
        -0.039370 0.221457 0.191576,
        -0.039370 0.706989 0.020669,
        -0.039370 0.699169 0.010477,
        -0.039370 0.688976 0.002656,
        -0.039370 0.677107 0.092811,
        -0.039370 0.688976 0.087895,
        -0.039370 0.699169 0.080074,
        -0.039370 0.711906 0.032539,
        -0.039370 0.706989 0.069882,
        -0.039370 0.711906 0.058013,
        0.039370 0.211961 0.195509,
        0.039370 0.235867 0.177165,
        0.039370 0.229611 0.185319,
        0.039370 0.221457 0.191576,
        0.039370 0.699169 0.080074,
        0.039370 0.688976 0.087895,
        0.039370 0.688976 0.002656,
        0.039370 0.699169 0.010477,
        0.039370 0.706989 0.020669,
        0.039370 0.706989 0.069882,
        0.039370 0.677107 0.092811,
        0.039370 0.239800 0.167670,
        0.039370 0.711906 0.032539,
        0.039370 0.713583 0.045276,
        0.039370 0.677107 -0.002260,
        0.039370 0.711906 0.058013,
        0.039370 -0.999016 0.157480,
        -0.039370 -0.999016 0.157480,
        -0.039370 -0.999016 0.816929,
        0.039370 -0.999016 0.816929,
        -0.039370 -1.038386 0.777559,
        -0.039370 -1.037630 0.262043,
        -0.039370 -1.035389 0.269428,
        -0.039370 -0.126376 0.536417,
        -0.039370 -0.142017 0.556802,
        -0.039370 -0.162402 0.572443,
        -0.039370 -1.031751 0.276235,
        -0.039370 -1.026855 0.282200,
        -0.039370 -0.931807 0.377248,
        -0.039370 -0.186140 0.392133,
        -0.039370 -0.162402 0.401966,
        -0.039370 -0.142017 0.417607,
        -0.039370 -0.126376 0.437992,
        -0.039370 -0.919034 0.588627,
        -0.039370 -0.925841 0.592265,
        -0.039370 -0.931807 0.597161,
        -0.039370 -1.016098 0.161379,
        -0.039370 -1.023563 0.166070,
        -0.039370 -1.029796 0.172304,
        -0.039370 -1.034487 0.179769,
        -0.039370 -1.037399 0.188090,
        -0.039370 -1.038386 0.196850,
        -0.039370 -1.038386 0.254362,
        -0.039370 -0.903968 0.388780,
        -0.039370 -0.211614 0.388780,
        -0.039370 -1.026855 0.692209,
        -0.039370 -1.031751 0.698175,
        -0.039370 -1.035389 0.704981,
        -0.039370 -1.037630 0.712367,
        -0.039370 -1.038386 0.720048,
        -0.039370 -0.925841 0.382144,
        -0.039370 -0.919034 0.385783,
        -0.039370 -0.911649 0.388023,
        -0.039370 -0.116543 0.461730,
        -0.039370 -0.113189 0.487205,
        -0.039370 -0.116543 0.512679,
        -0.039370 -0.911649 0.586386,
        -0.039370 -1.007776 0.158467,
        -0.039370 -0.186140 0.582276,
        -0.039370 -0.211614 0.585630,
        -0.039370 -0.903968 0.585630,
        -0.039370 -1.037399 0.786320,
        -0.039370 -1.034487 0.794641,
        -0.039370 -1.029796 0.802106,
        -0.039370 -1.023563 0.808340,
        -0.039370 -1.016098 0.813030,
        -0.039370 -1.007776 0.815942,
        0.039370 -1.038386 0.196850,
        0.039370 -1.037399 0.786320,
        0.039370 -1.038386 0.777559,
        0.039370 -0.126376 0.437992,
        0.039370 -0.142017 0.417607,
        0.039370 -0.162402 0.401966,
        0.039370 -1.037630 0.712367,
        0.039370 -1.035389 0.704981,
        0.039370 -1.038386 0.720048,
        0.039370 -1.031751 0.698175,
        0.039370 -1.026855 0.692209,
        0.039370 -0.931807 0.597161,
        0.039370 -0.186140 0.582276,
        0.039370 -0.162402 0.572443,
        0.039370 -0.142017 0.556802,
        0.039370 -0.126376 0.536417,
        0.039370 -0.925841 0.592265,
        0.039370 -0.919034 0.588627,
        0.039370 -0.931807 0.377248,
        0.039370 -1.026855 0.282200,
        0.039370 -1.031751 0.276235,
        0.039370 -1.035389 0.269428,
        0.039370 -1.037630 0.262043,
        0.039370 -1.038386 0.254362,
        0.039370 -1.023563 0.808340,
        0.039370 -1.016098 0.813030,
        0.039370 -1.007776 0.815942,
        0.039370 -1.029796 0.802106,
        0.039370 -1.034487 0.794641,
        0.039370 -0.911649 0.586386,
        0.039370 -0.903968 0.585630,
        0.039370 -0.211614 0.585630,
        0.039370 -0.186140 0.392133,
        0.039370 -0.211614 0.388780,
        0.039370 -0.903968 0.388780,
        0.039370 -1.037399 0.188090,
        0.039370 -1.034487 0.179769,
        0.039370 -1.029796 0.172304,
        0.039370 -0.116543 0.512679,
        0.039370 -0.113189 0.487205,
        0.039370 -0.116543 0.461730,
        0.039370 -0.911649 0.388023,
        0.039370 -0.919034 0.385783,
        0.039370 -0.925841 0.382144,
        0.039370 -1.023563 0.166070,
        0.039370 -1.016098 0.161379,
        0.039370 -1.007776 0.158467,
      ]
    }
    coordIndex [
      8, 9, 10, -1,
      8, 10, 11, -1,
      11, 10, 12, -1,
      11, 12, 13, -1,
      13, 12, 14, -1,
      13, 14, 15, -1,
      15, 14, 16, -1,
      15, 16, 17, -1,
      17, 16, 18, -1,
      17, 18, 19, -1,
      19, 18, 20, -1,
      19, 20, 21, -1,
      22, 23, 20, -1,
      20, 23, 21, -1,
      23, 22, 24, -1,
      24, 22, 25, -1,
      24, 25, 26, -1,
      26, 25, 27, -1,
      26, 27, 28, -1,
      28, 27, 29, -1,
      28, 29, 30, -1,
      30, 29, 31, -1,
      30, 31, 32, -1,
      32, 31, 33, -1,
      32, 33, 34, -1,
      34, 33, 35, -1,
      36, 34, 37, -1,
      37, 34, 35, -1,
      38, 39, 40, -1,
      40, 39, 41, -1,
      41, 39, 42, -1,
      41, 42, 43, -1,
      43, 42, 44, -1,
      43, 44, 45, -1,
      45, 44, 46, -1,
      45, 46, 47, -1,
      47, 46, 48, -1,
      47, 48, 49, -1,
      49, 48, 50, -1,
      49, 50, 51, -1,
      51, 50, 52, -1,
      51, 52, 53, -1,
      54, 55, 52, -1,
      52, 55, 53, -1,
      56, 40, 57, -1,
      58, 4, 6, -1,
      59, 60, 23, -1,
      23, 60, 21, -1,
      30, 32, 41, -1,
      41, 32, 34, -1,
      41, 34, 40, -1,
      40, 34, 36, -1,
      60, 61, 21, -1,
      21, 61, 62, -1,
      21, 62, 19, -1,
      19, 62, 58, -1,
      6, 8, 58, -1,
      58, 8, 11, -1,
      58, 11, 13, -1,
      13, 15, 58, -1,
      58, 15, 17, -1,
      58, 17, 19, -1,
      63, 64, 65, -1,
      45, 47, 28, -1,
      28, 47, 49, -1,
      28, 49, 26, -1,
      26, 49, 51, -1,
      26, 51, 24, -1,
      24, 51, 53, -1,
      24, 53, 23, -1,
      23, 53, 55, -1,
      23, 55, 59, -1,
      30, 41, 28, -1,
      28, 41, 43, -1,
      28, 43, 45, -1,
      36, 66, 40, -1,
      40, 66, 67, -1,
      40, 67, 68, -1,
      56, 57, 65, -1,
      65, 57, 69, -1,
      65, 69, 63, -1,
      68, 70, 40, -1,
      40, 70, 71, -1,
      40, 71, 57, -1,
      14, 12, 72, -1,
      7, 5, 9, -1,
      9, 5, 72, -1,
      9, 72, 10, -1,
      10, 72, 12, -1,
      20, 18, 72, -1,
      72, 18, 16, -1,
      72, 16, 14, -1,
      73, 22, 74, -1,
      74, 22, 20, -1,
      74, 20, 75, -1,
      75, 20, 72, -1,
      76, 77, 38, -1,
      78, 79, 80, -1,
      76, 38, 81, -1,
      35, 39, 37, -1,
      37, 39, 38, -1,
      37, 38, 82, -1,
      82, 38, 77, -1,
      35, 33, 39, -1,
      39, 33, 31, -1,
      39, 31, 42, -1,
      42, 31, 29, -1,
      42, 29, 44, -1,
      44, 29, 46, -1,
      73, 83, 22, -1,
      22, 83, 54, -1,
      22, 54, 25, -1,
      25, 54, 52, -1,
      25, 52, 27, -1,
      27, 52, 50, -1,
      27, 50, 29, -1,
      29, 50, 48, -1,
      29, 48, 46, -1,
      80, 84, 78, -1,
      78, 84, 85, -1,
      78, 85, 86, -1,
      86, 85, 38, -1,
      38, 85, 87, -1,
      38, 87, 81, -1,
      55, 54, 59, -1,
      59, 54, 83, -1,
      59, 83, 60, -1,
      60, 83, 73, -1,
      60, 73, 61, -1,
      61, 73, 74, -1,
      61, 74, 62, -1,
      62, 74, 75, -1,
      62, 75, 58, -1,
      58, 75, 72, -1,
      58, 72, 4, -1,
      4, 72, 5, -1,
      9, 8, 7, -1,
      7, 8, 6, -1,
      88, 89, 1, -1,
      1, 89, 2, -1,
      90, 91, 3, -1,
      3, 91, 0, -1,
      90, 3, 92, -1,
      93, 94, 2, -1,
      95, 96, 3, -1,
      3, 96, 97, -1,
      94, 98, 2, -1,
      2, 98, 99, -1,
      2, 99, 100, -1,
      101, 102, 2, -1,
      2, 102, 103, -1,
      2, 103, 104, -1,
      105, 106, 107, -1,
      108, 109, 110, -1,
      111, 112, 89, -1,
      89, 112, 113, -1,
      89, 113, 2, -1,
      2, 113, 114, -1,
      2, 114, 93, -1,
      100, 115, 2, -1,
      2, 115, 116, -1,
      2, 116, 101, -1,
      107, 117, 3, -1,
      3, 117, 118, -1,
      3, 118, 119, -1,
      119, 120, 3, -1,
      3, 120, 121, -1,
      3, 121, 92, -1,
      122, 123, 100, -1,
      100, 123, 124, -1,
      100, 124, 115, -1,
      104, 125, 2, -1,
      2, 125, 126, -1,
      2, 126, 3, -1,
      3, 126, 127, -1,
      3, 127, 95, -1,
      105, 107, 128, -1,
      111, 89, 110, -1,
      110, 89, 129, -1,
      110, 129, 108, -1,
      97, 130, 3, -1,
      3, 130, 131, -1,
      3, 131, 107, -1,
      107, 131, 132, -1,
      107, 132, 128, -1,
      92, 133, 90, -1,
      90, 133, 134, -1,
      90, 134, 135, -1,
      135, 136, 90, -1,
      90, 136, 137, -1,
      90, 137, 138, -1,
      88, 1, 139, -1,
      140, 141, 91, -1,
      142, 143, 1, -1,
      1, 143, 144, -1,
      145, 146, 0, -1,
      91, 141, 0, -1,
      0, 141, 147, -1,
      0, 147, 145, -1,
      146, 148, 0, -1,
      0, 148, 149, -1,
      0, 149, 150, -1,
      151, 152, 0, -1,
      0, 152, 153, -1,
      0, 153, 154, -1,
      150, 155, 156, -1,
      157, 158, 1, -1,
      1, 158, 159, -1,
      1, 159, 160, -1,
      160, 161, 1, -1,
      1, 161, 162, -1,
      1, 162, 139, -1,
      163, 91, 164, -1,
      164, 91, 165, -1,
      163, 166, 91, -1,
      91, 166, 167, -1,
      91, 167, 140, -1,
      156, 168, 150, -1,
      150, 168, 169, -1,
      150, 169, 0, -1,
      0, 169, 170, -1,
      0, 170, 151, -1,
      144, 171, 1, -1,
      1, 171, 172, -1,
      1, 172, 157, -1,
      157, 172, 173, -1,
      139, 174, 88, -1,
      88, 174, 175, -1,
      88, 175, 176, -1,
      154, 177, 0, -1,
      0, 177, 178, -1,
      0, 178, 1, -1,
      1, 178, 179, -1,
      1, 179, 142, -1,
      173, 180, 157, -1,
      157, 180, 181, -1,
      157, 181, 182, -1,
      183, 184, 176, -1,
      176, 184, 185, -1,
      176, 185, 88, -1,
      116, 172, 101, -1,
      101, 172, 171, -1,
      101, 171, 102, -1,
      102, 171, 144, -1,
      102, 144, 103, -1,
      103, 144, 143, -1,
      103, 143, 104, -1,
      104, 143, 142, -1,
      104, 142, 125, -1,
      125, 142, 179, -1,
      125, 179, 126, -1,
      126, 179, 178, -1,
      126, 178, 127, -1,
      127, 178, 177, -1,
      127, 177, 95, -1,
      95, 177, 154, -1,
      95, 154, 96, -1,
      96, 154, 153, -1,
      96, 153, 97, -1,
      97, 153, 152, -1,
      97, 152, 130, -1,
      130, 152, 151, -1,
      130, 151, 131, -1,
      131, 151, 170, -1,
      169, 132, 170, -1,
      170, 132, 131, -1,
      132, 169, 168, -1,
      132, 168, 128, -1,
      128, 168, 156, -1,
      128, 156, 105, -1,
      105, 156, 155, -1,
      105, 155, 106, -1,
      106, 155, 150, -1,
      106, 150, 107, -1,
      149, 117, 150, -1,
      150, 117, 107, -1,
      117, 149, 148, -1,
      117, 148, 118, -1,
      118, 148, 146, -1,
      118, 146, 119, -1,
      119, 146, 145, -1,
      119, 145, 120, -1,
      120, 145, 147, -1,
      120, 147, 121, -1,
      141, 92, 147, -1,
      147, 92, 121, -1,
      92, 141, 140, -1,
      92, 140, 133, -1,
      133, 140, 167, -1,
      133, 167, 134, -1,
      134, 167, 166, -1,
      134, 166, 135, -1,
      135, 166, 163, -1,
      135, 163, 136, -1,
      136, 163, 164, -1,
      136, 164, 137, -1,
      137, 164, 165, -1,
      137, 165, 138, -1,
      138, 165, 91, -1,
      138, 91, 90, -1,
      89, 88, 185, -1,
      89, 185, 129, -1,
      129, 185, 184, -1,
      129, 184, 108, -1,
      108, 184, 183, -1,
      108, 183, 109, -1,
      109, 183, 176, -1,
      109, 176, 110, -1,
      110, 176, 175, -1,
      110, 175, 111, -1,
      111, 175, 174, -1,
      111, 174, 112, -1,
      112, 174, 139, -1,
      112, 139, 113, -1,
      162, 114, 139, -1,
      139, 114, 113, -1,
      114, 162, 161, -1,
      114, 161, 93, -1,
      93, 161, 160, -1,
      93, 160, 94, -1,
      94, 160, 159, -1,
      94, 159, 98, -1,
      98, 159, 158, -1,
      98, 158, 99, -1,
      157, 100, 158, -1,
      158, 100, 99, -1,
      100, 157, 182, -1,
      100, 182, 122, -1,
      122, 182, 181, -1,
      122, 181, 123, -1,
      123, 181, 180, -1,
      123, 180, 124, -1,
      124, 180, 173, -1,
      124, 173, 115, -1,
      172, 116, 173, -1,
      173, 116, 115, -1,
      36, 37, 82, -1,
      36, 82, 66, -1,
      66, 82, 77, -1,
      66, 77, 67, -1,
      67, 77, 76, -1,
      67, 76, 68, -1,
      68, 76, 81, -1,
      68, 81, 70, -1,
      70, 81, 87, -1,
      70, 87, 71, -1,
      71, 87, 85, -1,
      71, 85, 57, -1,
      57, 85, 84, -1,
      57, 84, 69, -1,
      69, 84, 80, -1,
      69, 80, 63, -1,
      63, 80, 79, -1,
      63, 79, 64, -1,
      64, 79, 78, -1,
      64, 78, 65, -1,
      65, 78, 86, -1,
      65, 86, 56, -1,
      56, 86, 38, -1,
      56, 38, 40, -1,
    ]
  }
}

Shape {
  appearance Appearance {
    material Material {
      diffuseColor 1.0000 0.9529 0.7922
      specularColor 0.3020 0.2863 0.2392
      ambientIntensity 0.2
      transparency 0.0000
      shininess 0.5
    }
  }
  geometry IndexedFaceSet {
    ccw TRUE
    solid FALSE
    coord DEF co Coordinate {
      point [
        0.389764 -0.014764 0.718504,
        0.448819 -0.014764 0.718504,
        0.448819 -0.014764 0.196850,
        0.535433 -0.014764 0.196850,
        0.389764 -0.014764 0.836614,
        0.448819 -0.014764 0.137795,
        0.535433 -0.014764 0.137795,
        0.594488 -0.014764 0.836614,
        0.594488 -0.014764 0.718504,
        0.535433 -0.014764 0.718504,
        0.535433 -0.014764 0.836614,
        0.448819 -0.014764 0.836614,
        0.448819 0.201772 0.418307,
        0.448819 0.201772 0.836614,
        0.535433 0.201772 0.836614,
        0.535433 0.201772 0.418307,
        0.594488 0.398622 0.418307,
        0.535433 0.339567 0.418307,
        0.535433 -1.195866 0.836614,
        0.448819 -1.195866 0.836614,
        0.594488 -1.195866 0.836614,
        0.535433 -1.136811 0.196850,
        0.535433 -1.195866 0.137795,
        0.389764 0.398622 0.418307,
        0.448819 0.339567 0.418307,
        0.389764 -1.195866 0.836614,
        0.448819 -1.136811 0.196850,
        0.448819 -1.195866 0.137795,
        0.389764 0.398622 0.895669,
        0.594488 0.398622 0.895669,
        0.389764 -1.195866 0.777559,
        0.448819 -1.195866 0.777559,
        0.535433 -1.195866 0.777559,
        0.594488 -1.195866 0.777559,
        0.389764 -1.136811 0.718504,
        0.448819 -1.136811 0.718504,
        0.535433 -1.136811 0.718504,
        0.594488 -1.136811 0.718504,
        0.535433 0.339567 0.836614,
        0.448819 0.339567 0.836614,
      ]
    }
    coordIndex [
      22, 6, 27, -1,
      27, 6, 5, -1,
      3, 6, 21, -1,
      21, 6, 22, -1,
      5, 2, 27, -1,
      27, 2, 26, -1,
      34, 0, 35, -1,
      35, 0, 1, -1,
      1, 11, 35, -1,
      35, 11, 19, -1,
      35, 19, 31, -1,
      30, 25, 34, -1,
      34, 25, 4, -1,
      34, 4, 0, -1,
      32, 18, 36, -1,
      36, 18, 10, -1,
      36, 10, 9, -1,
      36, 9, 37, -1,
      37, 9, 8, -1,
      8, 7, 37, -1,
      37, 7, 20, -1,
      37, 20, 33, -1,
      35, 31, 34, -1,
      34, 31, 30, -1,
      37, 33, 36, -1,
      36, 33, 32, -1,
      17, 15, 38, -1,
      38, 15, 14, -1,
      38, 14, 39, -1,
      39, 14, 13, -1,
      39, 13, 24, -1,
      24, 13, 12, -1,
      28, 39, 23, -1,
      23, 39, 24, -1,
      29, 38, 28, -1,
      28, 38, 39, -1,
      16, 17, 29, -1,
      29, 17, 38, -1,
    ]
  }
}

Shape {
  appearance Appearance {
    material Material {
      diffuseColor 0.8510 0.8510 0.8510
      specularColor 0.4235 0.4235 0.4235
      ambientIntensity 0.2
      transparency 0.0000
      shininess 0.5
    }
  }
  geometry IndexedFaceSet {
    ccw TRUE
    solid FALSE
    coord DEF co Coordinate {
      point [
        0.452756 -0.014764 0.816929,
        0.531496 -0.014764 0.816929,
        0.531496 -0.014764 0.157480,
        0.452756 -0.014764 0.157480,
        0.452756 0.201772 0.196850,
        0.452756 0.201772 0.816929,
        0.531496 0.201772 0.816929,
        0.531496 0.201772 0.196850,
        0.452756 0.288431 0.816929,
        0.531496 0.288431 0.816929,
        0.531496 0.310584 0.814013,
        0.452756 0.310584 0.814013,
        0.531496 0.331228 0.805462,
        0.452756 0.331228 0.805462,
        0.531496 0.348955 0.791859,
        0.452756 0.348955 0.791859,
        0.531496 0.362557 0.774133,
        0.452756 0.362557 0.774133,
        0.531496 0.371108 0.753489,
        0.452756 0.371108 0.753489,
        0.531496 0.374024 0.731336,
        0.452756 0.374024 0.731336,
        0.531496 0.374024 0.173228,
        0.452756 0.374024 0.173228,
        0.452756 0.376707 0.152849,
        0.531496 0.376707 0.152849,
        0.452756 0.384574 0.133858,
        0.531496 0.384574 0.133858,
        0.452756 0.397087 0.117551,
        0.531496 0.397087 0.117551,
        0.452756 0.413394 0.105037,
        0.531496 0.413394 0.105037,
        0.452756 0.432385 0.097171,
        0.531496 0.432385 0.097171,
        0.452756 0.452765 0.094488,
        0.531496 0.452765 0.094488,
        0.452756 0.664370 0.094488,
        0.531496 0.664370 0.094488,
        0.531496 0.664370 -0.003937,
        0.531496 0.319882 -0.003937,
        0.452756 0.664370 -0.003937,
        0.452756 0.319882 -0.003937,
        0.531496 0.299502 -0.001254,
        0.452756 0.299502 -0.001254,
        0.531496 0.280512 0.006612,
        0.452756 0.280512 0.006612,
        0.531496 0.264204 0.019126,
        0.452756 0.264204 0.019126,
        0.531496 0.251691 0.035433,
        0.452756 0.251691 0.035433,
        0.531496 0.243825 0.054424,
        0.452756 0.243825 0.054424,
        0.531496 0.241142 0.074803,
        0.452756 0.241142 0.074803,
        0.531496 0.241142 0.157480,
        0.452756 0.241142 0.157480,
        0.452756 0.239800 0.167670,
        0.452756 0.235867 0.177165,
        0.452756 0.211961 0.195509,
        0.452756 0.229611 0.185319,
        0.452756 0.221457 0.191576,
        0.452756 0.677107 0.092811,
        0.452756 0.688976 0.087895,
        0.452756 0.699169 0.080074,
        0.452756 0.706989 0.069882,
        0.452756 0.711906 0.058013,
        0.452756 0.699169 0.010477,
        0.452756 0.688976 0.002656,
        0.452756 0.706989 0.020669,
        0.452756 0.711906 0.032539,
        0.452756 0.713583 0.045276,
        0.452756 0.677107 -0.002260,
        0.531496 0.211961 0.195509,
        0.531496 0.235867 0.177165,
        0.531496 0.229611 0.185319,
        0.531496 0.221457 0.191576,
        0.531496 0.239800 0.167670,
        0.531496 0.677107 0.092811,
        0.531496 0.677107 -0.002260,
        0.531496 0.688976 0.002656,
        0.531496 0.711906 0.058013,
        0.531496 0.713583 0.045276,
        0.531496 0.711906 0.032539,
        0.531496 0.699169 0.010477,
        0.531496 0.706989 0.020669,
        0.531496 0.706989 0.069882,
        0.531496 0.699169 0.080074,
        0.531496 0.688976 0.087895,
        0.531496 -0.999016 0.157480,
        0.452756 -0.999016 0.157480,
        0.452756 -0.999016 0.816929,
        0.531496 -0.999016 0.816929,
        0.452756 -0.126376 0.536417,
        0.452756 -0.142017 0.556802,
        0.452756 -1.038386 0.196850,
        0.452756 -0.162402 0.572443,
        0.452756 -0.186140 0.582276,
        0.452756 -0.211614 0.585630,
        0.452756 -1.038386 0.254362,
        0.452756 -1.037630 0.262043,
        0.452756 -1.035389 0.269428,
        0.452756 -1.031751 0.276235,
        0.452756 -1.026855 0.282200,
        0.452756 -0.931807 0.377248,
        0.452756 -0.186140 0.392133,
        0.452756 -0.162402 0.401966,
        0.452756 -0.142017 0.417607,
        0.452756 -0.126376 0.437992,
        0.452756 -0.903968 0.585630,
        0.452756 -0.931807 0.597161,
        0.452756 -0.903968 0.388780,
        0.452756 -0.211614 0.388780,
        0.452756 -0.911649 0.586386,
        0.452756 -0.919034 0.588627,
        0.452756 -0.925841 0.592265,
        0.452756 -1.031751 0.698175,
        0.452756 -1.035389 0.704981,
        0.452756 -1.007776 0.158467,
        0.452756 -1.034487 0.179769,
        0.452756 -1.037399 0.188090,
        0.452756 -1.016098 0.161379,
        0.452756 -1.023563 0.166070,
        0.452756 -1.029796 0.172304,
        0.452756 -0.925841 0.382144,
        0.452756 -0.919034 0.385783,
        0.452756 -0.911649 0.388023,
        0.452756 -0.116543 0.461730,
        0.452756 -0.113189 0.487205,
        0.452756 -0.116543 0.512679,
        0.452756 -1.026855 0.692209,
        0.452756 -1.038386 0.777559,
        0.452756 -1.038386 0.720048,
        0.452756 -1.037630 0.712367,
        0.452756 -1.037399 0.786320,
        0.452756 -1.034487 0.794641,
        0.452756 -1.029796 0.802106,
        0.452756 -1.023563 0.808340,
        0.452756 -1.016098 0.813030,
        0.452756 -1.007776 0.815942,
        0.531496 -1.038386 0.196850,
        0.531496 -0.126376 0.437992,
        0.531496 -0.142017 0.417607,
        0.531496 -0.162402 0.401966,
        0.531496 -0.186140 0.392133,
        0.531496 -0.211614 0.388780,
        0.531496 -0.931807 0.597161,
        0.531496 -0.925841 0.592265,
        0.531496 -0.919034 0.588627,
        0.531496 -1.037630 0.712367,
        0.531496 -1.035389 0.704981,
        0.531496 -0.911649 0.586386,
        0.531496 -0.903968 0.585630,
        0.531496 -0.211614 0.585630,
        0.531496 -0.186140 0.582276,
        0.531496 -0.162402 0.572443,
        0.531496 -0.142017 0.556802,
        0.531496 -0.126376 0.536417,
        0.531496 -1.031751 0.698175,
        0.531496 -1.026855 0.692209,
        0.531496 -0.903968 0.388780,
        0.531496 -0.931807 0.377248,
        0.531496 -1.031751 0.276235,
        0.531496 -1.035389 0.269428,
        0.531496 -0.911649 0.388023,
        0.531496 -0.919034 0.385783,
        0.531496 -0.925841 0.382144,
        0.531496 -1.026855 0.282200,
        0.531496 -1.037630 0.262043,
        0.531496 -1.038386 0.254362,
        0.531496 -1.038386 0.720048,
        0.531496 -1.038386 0.777559,
        0.531496 -1.007776 0.815942,
        0.531496 -1.016098 0.813030,
        0.531496 -1.023563 0.808340,
        0.531496 -1.029796 0.802106,
        0.531496 -1.037399 0.786320,
        0.531496 -1.034487 0.794641,
        0.531496 -0.116543 0.512679,
        0.531496 -0.113189 0.487205,
        0.531496 -0.116543 0.461730,
        0.531496 -1.016098 0.161379,
        0.531496 -1.034487 0.179769,
        0.531496 -1.023563 0.166070,
        0.531496 -1.029796 0.172304,
        0.531496 -1.037399 0.188090,
        0.531496 -1.007776 0.158467,
      ]
    }
    coordIndex [
      8, 9, 10, -1,
      8, 10, 11, -1,
      11, 10, 12, -1,
      11, 12, 13, -1,
      13, 12, 14, -1,
      13, 14, 15, -1,
      15, 14, 16, -1,
      15, 16, 17, -1,
      17, 16, 18, -1,
      17, 18, 19, -1,
      19, 18, 20, -1,
      19, 20, 21, -1,
      22, 23, 20, -1,
      20, 23, 21, -1,
      23, 22, 24, -1,
      24, 22, 25, -1,
      24, 25, 26, -1,
      26, 25, 27, -1,
      26, 27, 28, -1,
      28, 27, 29, -1,
      28, 29, 30, -1,
      30, 29, 31, -1,
      30, 31, 32, -1,
      32, 31, 33, -1,
      32, 33, 34, -1,
      34, 33, 35, -1,
      36, 34, 37, -1,
      37, 34, 35, -1,
      38, 39, 40, -1,
      40, 39, 41, -1,
      41, 39, 42, -1,
      41, 42, 43, -1,
      43, 42, 44, -1,
      43, 44, 45, -1,
      45, 44, 46, -1,
      45, 46, 47, -1,
      47, 46, 48, -1,
      47, 48, 49, -1,
      49, 48, 50, -1,
      49, 50, 51, -1,
      51, 50, 52, -1,
      51, 52, 53, -1,
      54, 55, 52, -1,
      52, 55, 53, -1,
      56, 57, 23, -1,
      58, 4, 5, -1,
      30, 32, 41, -1,
      41, 32, 34, -1,
      41, 34, 40, -1,
      23, 57, 21, -1,
      57, 59, 21, -1,
      21, 59, 60, -1,
      21, 60, 19, -1,
      19, 60, 58, -1,
      5, 8, 58, -1,
      58, 8, 11, -1,
      58, 11, 13, -1,
      13, 15, 58, -1,
      58, 15, 17, -1,
      58, 17, 19, -1,
      45, 47, 28, -1,
      28, 47, 49, -1,
      28, 49, 26, -1,
      26, 49, 51, -1,
      26, 51, 24, -1,
      24, 51, 53, -1,
      24, 53, 23, -1,
      23, 53, 55, -1,
      23, 55, 56, -1,
      30, 41, 28, -1,
      28, 41, 43, -1,
      28, 43, 45, -1,
      34, 36, 40, -1,
      40, 36, 61, -1,
      40, 61, 62, -1,
      62, 63, 40, -1,
      40, 63, 64, -1,
      40, 64, 65, -1,
      66, 67, 68, -1,
      68, 67, 69, -1,
      65, 70, 40, -1,
      40, 70, 69, -1,
      40, 69, 71, -1,
      71, 69, 67, -1,
      14, 12, 72, -1,
      6, 7, 9, -1,
      9, 7, 72, -1,
      9, 72, 10, -1,
      10, 72, 12, -1,
      20, 18, 72, -1,
      72, 18, 16, -1,
      72, 16, 14, -1,
      73, 22, 74, -1,
      74, 22, 20, -1,
      74, 20, 75, -1,
      75, 20, 72, -1,
      35, 33, 39, -1,
      39, 33, 31, -1,
      39, 31, 42, -1,
      42, 31, 29, -1,
      42, 29, 44, -1,
      44, 29, 46, -1,
      73, 76, 22, -1,
      22, 76, 54, -1,
      22, 54, 25, -1,
      25, 54, 52, -1,
      25, 52, 27, -1,
      27, 52, 50, -1,
      27, 50, 29, -1,
      29, 50, 48, -1,
      29, 48, 46, -1,
      35, 39, 37, -1,
      37, 39, 38, -1,
      37, 38, 77, -1,
      77, 38, 78, -1,
      77, 78, 79, -1,
      80, 77, 81, -1,
      81, 77, 82, -1,
      79, 83, 77, -1,
      77, 83, 84, -1,
      77, 84, 82, -1,
      80, 85, 77, -1,
      77, 85, 86, -1,
      77, 86, 87, -1,
      55, 54, 56, -1,
      56, 54, 76, -1,
      56, 76, 57, -1,
      57, 76, 73, -1,
      57, 73, 59, -1,
      59, 73, 74, -1,
      59, 74, 60, -1,
      60, 74, 75, -1,
      60, 75, 58, -1,
      58, 75, 72, -1,
      58, 72, 4, -1,
      4, 72, 7, -1,
      9, 8, 6, -1,
      6, 8, 5, -1,
      88, 89, 2, -1,
      2, 89, 3, -1,
      90, 91, 0, -1,
      0, 91, 1, -1,
      92, 93, 0, -1,
      94, 3, 89, -1,
      93, 95, 0, -1,
      0, 95, 96, -1,
      0, 96, 97, -1,
      94, 98, 3, -1,
      3, 98, 99, -1,
      3, 99, 100, -1,
      100, 101, 3, -1,
      3, 101, 102, -1,
      3, 102, 103, -1,
      104, 105, 3, -1,
      3, 105, 106, -1,
      3, 106, 107, -1,
      97, 108, 109, -1,
      103, 110, 3, -1,
      3, 110, 111, -1,
      3, 111, 104, -1,
      108, 112, 109, -1,
      109, 112, 113, -1,
      109, 113, 114, -1,
      115, 116, 0, -1,
      117, 118, 89, -1,
      89, 118, 119, -1,
      89, 119, 94, -1,
      117, 120, 118, -1,
      118, 120, 121, -1,
      118, 121, 122, -1,
      123, 124, 103, -1,
      103, 124, 125, -1,
      103, 125, 110, -1,
      107, 126, 3, -1,
      3, 126, 127, -1,
      3, 127, 0, -1,
      0, 127, 128, -1,
      0, 128, 92, -1,
      97, 109, 0, -1,
      0, 109, 129, -1,
      0, 129, 115, -1,
      130, 90, 131, -1,
      131, 90, 0, -1,
      131, 0, 132, -1,
      132, 0, 116, -1,
      130, 133, 90, -1,
      90, 133, 134, -1,
      90, 134, 135, -1,
      135, 136, 90, -1,
      90, 136, 137, -1,
      90, 137, 138, -1,
      88, 2, 139, -1,
      140, 141, 2, -1,
      141, 142, 2, -1,
      2, 142, 143, -1,
      2, 143, 144, -1,
      145, 146, 147, -1,
      148, 149, 1, -1,
      147, 150, 145, -1,
      145, 150, 151, -1,
      145, 151, 1, -1,
      1, 151, 152, -1,
      1, 152, 153, -1,
      153, 154, 1, -1,
      1, 154, 155, -1,
      1, 155, 156, -1,
      149, 157, 1, -1,
      1, 157, 158, -1,
      1, 158, 145, -1,
      144, 159, 160, -1,
      161, 162, 2, -1,
      159, 163, 160, -1,
      160, 163, 164, -1,
      160, 164, 165, -1,
      144, 160, 2, -1,
      2, 160, 166, -1,
      2, 166, 161, -1,
      162, 167, 2, -1,
      2, 167, 168, -1,
      2, 168, 139, -1,
      148, 1, 169, -1,
      169, 1, 91, -1,
      169, 91, 170, -1,
      170, 91, 171, -1,
      170, 171, 172, -1,
      172, 173, 170, -1,
      170, 173, 174, -1,
      170, 174, 175, -1,
      175, 174, 176, -1,
      156, 177, 1, -1,
      1, 177, 178, -1,
      1, 178, 2, -1,
      2, 178, 179, -1,
      2, 179, 140, -1,
      180, 181, 182, -1,
      182, 181, 183, -1,
      139, 184, 88, -1,
      88, 184, 181, -1,
      88, 181, 185, -1,
      185, 181, 180, -1,
      111, 144, 104, -1,
      104, 144, 143, -1,
      104, 143, 105, -1,
      105, 143, 142, -1,
      105, 142, 106, -1,
      106, 142, 141, -1,
      106, 141, 107, -1,
      107, 141, 140, -1,
      107, 140, 126, -1,
      126, 140, 179, -1,
      126, 179, 127, -1,
      127, 179, 178, -1,
      127, 178, 128, -1,
      128, 178, 177, -1,
      128, 177, 92, -1,
      92, 177, 156, -1,
      92, 156, 93, -1,
      93, 156, 155, -1,
      93, 155, 95, -1,
      95, 155, 154, -1,
      95, 154, 96, -1,
      96, 154, 153, -1,
      96, 153, 97, -1,
      97, 153, 152, -1,
      151, 108, 152, -1,
      152, 108, 97, -1,
      108, 151, 150, -1,
      108, 150, 112, -1,
      112, 150, 147, -1,
      112, 147, 113, -1,
      113, 147, 146, -1,
      113, 146, 114, -1,
      114, 146, 145, -1,
      114, 145, 109, -1,
      158, 129, 145, -1,
      145, 129, 109, -1,
      129, 158, 157, -1,
      129, 157, 115, -1,
      115, 157, 149, -1,
      115, 149, 116, -1,
      116, 149, 148, -1,
      116, 148, 132, -1,
      132, 148, 169, -1,
      132, 169, 131, -1,
      170, 130, 169, -1,
      169, 130, 131, -1,
      130, 170, 175, -1,
      130, 175, 133, -1,
      133, 175, 176, -1,
      133, 176, 134, -1,
      134, 176, 174, -1,
      134, 174, 135, -1,
      135, 174, 173, -1,
      135, 173, 136, -1,
      136, 173, 172, -1,
      136, 172, 137, -1,
      137, 172, 171, -1,
      137, 171, 138, -1,
      138, 171, 91, -1,
      138, 91, 90, -1,
      89, 88, 185, -1,
      89, 185, 117, -1,
      117, 185, 180, -1,
      117, 180, 120, -1,
      120, 180, 182, -1,
      120, 182, 121, -1,
      121, 182, 183, -1,
      121, 183, 122, -1,
      122, 183, 181, -1,
      122, 181, 118, -1,
      118, 181, 184, -1,
      118, 184, 119, -1,
      119, 184, 139, -1,
      119, 139, 94, -1,
      168, 98, 139, -1,
      139, 98, 94, -1,
      98, 168, 167, -1,
      98, 167, 99, -1,
      99, 167, 162, -1,
      99, 162, 100, -1,
      100, 162, 161, -1,
      100, 161, 101, -1,
      101, 161, 166, -1,
      101, 166, 102, -1,
      160, 103, 166, -1,
      166, 103, 102, -1,
      103, 160, 165, -1,
      103, 165, 123, -1,
      123, 165, 164, -1,
      123, 164, 124, -1,
      124, 164, 163, -1,
      124, 163, 125, -1,
      125, 163, 159, -1,
      125, 159, 110, -1,
      144, 111, 159, -1,
      159, 111, 110, -1,
      36, 37, 77, -1,
      36, 77, 61, -1,
      61, 77, 87, -1,
      61, 87, 62, -1,
      62, 87, 86, -1,
      62, 86, 63, -1,
      63, 86, 85, -1,
      63, 85, 64, -1,
      64, 85, 80, -1,
      64, 80, 65, -1,
      65, 80, 81, -1,
      65, 81, 70, -1,
      70, 81, 82, -1,
      70, 82, 69, -1,
      69, 82, 84, -1,
      69, 84, 68, -1,
      68, 84, 83, -1,
      68, 83, 66, -1,
      66, 83, 79, -1,
      66, 79, 67, -1,
      67, 79, 78, -1,
      67, 78, 71, -1,
      71, 78, 38, -1,
      71, 38, 40, -1,
    ]
  }
}

Shape {
  appearance Appearance {
    material Material {
      diffuseColor 0.2235 0.2235 0.2235
      specularColor 0.1137 0.1137 0.1137
      ambientIntensity 0.2
      transparency 0.0000
      shininess 0.5
    }
  }
  geometry IndexedFaceSet {
    ccw TRUE
    solid FALSE
    coord DEF co Coordinate {
      point [
        -0.061216 -0.346889 0.000000,
        -0.087622 -0.346889 0.000000,
        0.013204 -0.543739 0.000000,
        0.037437 -0.489787 0.000000,
        0.048726 -0.507394 0.000000,
        0.132521 -0.543739 0.000000,
        0.186048 -0.543739 0.000000,
        0.186048 -0.346889 0.000000,
        0.130496 -0.346889 0.000000,
        0.057393 -0.372556 0.000000,
        0.043473 -0.387991 0.000000,
        0.034325 -0.404921 0.000000,
        -0.135635 -0.543739 0.000000,
        -0.164442 -0.543739 0.000000,
        0.064928 -0.522907 0.000000,
        0.085482 -0.534852 0.000000,
        0.108165 -0.541613 0.000000,
        0.102056 -0.349929 0.000000,
        0.079025 -0.358016 0.000000,
        0.057599 -0.372375 0.000000,
        0.029038 -0.424316 0.000000,
        0.027607 -0.442838 0.000000,
        0.030369 -0.469183 0.000000,
        -0.015604 -0.543739 0.000000,
        -0.034396 -0.488525 0.000000,
        -0.115717 -0.488525 0.000000,
        0.409369 -0.544939 0.000000,
        0.417276 -0.546047 0.000000,
        0.422658 -0.546140 0.000000,
        0.434235 -0.544939 0.000000,
        0.224457 -0.522133 0.000000,
        0.224457 -0.543739 0.000000,
        0.330085 -0.543739 0.000000,
        0.368494 -0.533537 0.000000,
        0.368494 -0.511931 0.000000,
        0.330085 -0.346889 0.000000,
        0.389478 -0.542152 0.000000,
        0.303678 -0.368494 0.000000,
        0.303678 -0.433311 0.000000,
        0.229259 -0.368494 0.000000,
        0.234060 -0.433311 0.000000,
        0.303678 -0.454917 0.000000,
        0.303678 -0.522133 0.000000,
        0.234060 -0.454917 0.000000,
        0.632562 -0.543739 0.000000,
        0.531736 -0.543739 0.000000,
        0.446917 -0.543624 0.000000,
        0.465997 -0.537057 0.000000,
        0.229259 -0.346889 0.000000,
        0.433977 -0.368270 0.000000,
        0.448711 -0.373588 0.000000,
        0.372022 -0.513885 0.000000,
        0.462336 -0.382703 0.000000,
        0.474223 -0.395826 0.000000,
        0.488525 -0.447415 0.000000,
        0.486532 -0.468724 0.000000,
        0.481184 -0.485657 0.000000,
        0.437380 -0.522474 0.000000,
        0.419020 -0.524534 0.000000,
        0.451724 -0.517194 0.000000,
        0.463805 -0.509052 0.000000,
        0.473043 -0.499306 0.000000,
        0.392890 -0.521634 0.000000,
        0.504543 -0.398736 0.000000,
        0.493005 -0.380332 0.000000,
        0.606155 -0.346889 0.000000,
        0.482339 -0.411025 0.000000,
        0.487586 -0.432098 0.000000,
        0.475233 -0.363240 0.000000,
        0.632562 -0.346889 0.000000,
        0.481831 -0.526946 0.000000,
        0.496617 -0.511379 0.000000,
        0.531736 -0.522133 0.000000,
        0.507104 -0.492661 0.000000,
        0.606155 -0.522133 0.000000,
        0.513028 -0.471825 0.000000,
        0.514932 -0.449027 0.000000,
        0.512100 -0.421041 0.000000,
        0.456535 -0.352478 0.000000,
        0.434590 -0.346102 0.000000,
        0.414819 -0.344488 0.000000,
        0.391254 -0.346114 0.000000,
        0.368494 -0.352290 0.000000,
        0.368494 -0.378697 0.000000,
        0.390667 -0.369202 0.000000,
        0.414594 -0.366094 0.000000,
        -0.087622 -0.346889 0.003937,
        -0.164442 -0.543739 0.003937,
        -0.135635 -0.543739 0.003937,
        -0.115717 -0.488525 0.003937,
        -0.034396 -0.488525 0.003937,
        -0.015604 -0.543739 0.003937,
        0.013204 -0.543739 0.003937,
        -0.061216 -0.346889 0.003937,
        -0.041035 -0.466919 0.003937,
        -0.106865 -0.466919 0.003937,
        -0.070406 -0.384698 0.003937,
        -0.072300 -0.377871 0.003937,
        -0.073556 -0.370895 0.003937,
        -0.074194 -0.370895 0.003937,
        -0.075478 -0.377850 0.003937,
        -0.077232 -0.384698 0.003937,
        -0.041035 -0.466919 0.000000,
        -0.106865 -0.466919 0.000000,
        -0.070406 -0.384698 0.000000,
        -0.072300 -0.377871 0.000000,
        -0.073556 -0.370895 0.000000,
        -0.074194 -0.370895 0.000000,
        -0.075478 -0.377850 0.000000,
        -0.077232 -0.384698 0.000000,
        0.132521 -0.543739 0.003937,
        0.186048 -0.543739 0.003937,
        0.186048 -0.346889 0.003937,
        0.130496 -0.346889 0.003937,
        0.027607 -0.442838 0.003937,
        0.029038 -0.424316 0.003937,
        0.034325 -0.404921 0.003937,
        0.043473 -0.387991 0.003937,
        0.057393 -0.372556 0.003937,
        0.057599 -0.372375 0.003937,
        0.079025 -0.358016 0.003937,
        0.102056 -0.349929 0.003937,
        0.108165 -0.541613 0.003937,
        0.085482 -0.534852 0.003937,
        0.064928 -0.522907 0.003937,
        0.048726 -0.507394 0.003937,
        0.037437 -0.489787 0.003937,
        0.030369 -0.469183 0.003937,
        0.067120 -0.396098 0.003937,
        0.076682 -0.385946 0.003937,
        0.091061 -0.376657 0.003937,
        0.107309 -0.370971 0.003937,
        0.130608 -0.368494 0.003937,
        0.159641 -0.368494 0.003937,
        0.159641 -0.522133 0.003937,
        0.131696 -0.522133 0.003937,
        0.110928 -0.520200 0.003937,
        0.094363 -0.515030 0.003937,
        0.080938 -0.507058 0.003937,
        0.069897 -0.496153 0.003937,
        0.061595 -0.482580 0.003937,
        0.055821 -0.464076 0.003937,
        0.054014 -0.443401 0.003937,
        0.055686 -0.423809 0.003937,
        0.060281 -0.408240 0.003937,
        0.130608 -0.368494 0.000000,
        0.159641 -0.368494 0.000000,
        0.107309 -0.370971 0.000000,
        0.091061 -0.376657 0.000000,
        0.076682 -0.385946 0.000000,
        0.067120 -0.396098 0.000000,
        0.060281 -0.408240 0.000000,
        0.055686 -0.423809 0.000000,
        0.054014 -0.443401 0.000000,
        0.055821 -0.464076 0.000000,
        0.061595 -0.482580 0.000000,
        0.069897 -0.496153 0.000000,
        0.080938 -0.507058 0.000000,
        0.094363 -0.515030 0.000000,
        0.110928 -0.520200 0.000000,
        0.131696 -0.522133 0.000000,
        0.159641 -0.522133 0.000000,
        0.224457 -0.522133 0.003937,
        0.224457 -0.543739 0.003937,
        0.330085 -0.543739 0.003937,
        0.330085 -0.346889 0.003937,
        0.229259 -0.346889 0.003937,
        0.229259 -0.368494 0.003937,
        0.303678 -0.368494 0.003937,
        0.303678 -0.433311 0.003937,
        0.234060 -0.433311 0.003937,
        0.234060 -0.454917 0.003937,
        0.303678 -0.454917 0.003937,
        0.303678 -0.522133 0.003937,
        0.368494 -0.511931 0.003937,
        0.368494 -0.533537 0.003937,
        0.389478 -0.542152 0.003937,
        0.422658 -0.546140 0.003937,
        0.417276 -0.546047 0.003937,
        0.514932 -0.449027 0.003937,
        0.513028 -0.471825 0.003937,
        0.507104 -0.492661 0.003937,
        0.496617 -0.511379 0.003937,
        0.481831 -0.526946 0.003937,
        0.465997 -0.537057 0.003937,
        0.446917 -0.543624 0.003937,
        0.414819 -0.344488 0.003937,
        0.434590 -0.346102 0.003937,
        0.456535 -0.352478 0.003937,
        0.475233 -0.363240 0.003937,
        0.493005 -0.380332 0.003937,
        0.504543 -0.398736 0.003937,
        0.512100 -0.421041 0.003937,
        0.368494 -0.352290 0.003937,
        0.391254 -0.346114 0.003937,
        0.368494 -0.378697 0.003937,
        0.414594 -0.366094 0.003937,
        0.390667 -0.369202 0.003937,
        0.488525 -0.447415 0.003937,
        0.487586 -0.432098 0.003937,
        0.482339 -0.411025 0.003937,
        0.474223 -0.395826 0.003937,
        0.462336 -0.382703 0.003937,
        0.448711 -0.373588 0.003937,
        0.433977 -0.368270 0.003937,
        0.419020 -0.524534 0.003937,
        0.437380 -0.522474 0.003937,
        0.451724 -0.517194 0.003937,
        0.463805 -0.509052 0.003937,
        0.473043 -0.499306 0.003937,
        0.481184 -0.485657 0.003937,
        0.486532 -0.468724 0.003937,
        0.372022 -0.513885 0.003937,
        0.392890 -0.521634 0.003937,
        0.531736 -0.522133 0.003937,
        0.531736 -0.543739 0.003937,
        0.632562 -0.543739 0.003937,
        0.632562 -0.346889 0.003937,
        0.606155 -0.346889 0.003937,
        0.606155 -0.522133 0.003937,
      ]
    }
    coordIndex [
      86, 87, 1, -1,
      1, 87, 13, -1,
      87, 88, 13, -1,
      13, 88, 12, -1,
      88, 89, 12, -1,
      12, 89, 25, -1,
      89, 90, 25, -1,
      25, 90, 24, -1,
      90, 91, 24, -1,
      24, 91, 23, -1,
      91, 92, 23, -1,
      23, 92, 2, -1,
      92, 93, 2, -1,
      2, 93, 0, -1,
      93, 86, 0, -1,
      0, 86, 1, -1,
      94, 90, 95, -1,
      95, 90, 89, -1,
      96, 93, 94, -1,
      94, 93, 92, -1,
      94, 92, 90, -1,
      90, 92, 91, -1,
      96, 97, 93, -1,
      93, 97, 98, -1,
      93, 98, 86, -1,
      86, 98, 99, -1,
      86, 99, 100, -1,
      100, 101, 86, -1,
      86, 101, 95, -1,
      86, 95, 87, -1,
      87, 95, 89, -1,
      87, 89, 88, -1,
      94, 95, 102, -1,
      102, 95, 103, -1,
      96, 94, 104, -1,
      104, 94, 102, -1,
      96, 104, 105, -1,
      96, 105, 97, -1,
      97, 105, 106, -1,
      97, 106, 98, -1,
      99, 98, 107, -1,
      107, 98, 106, -1,
      99, 107, 108, -1,
      99, 108, 100, -1,
      100, 108, 109, -1,
      100, 109, 101, -1,
      95, 101, 103, -1,
      103, 101, 109, -1,
      110, 111, 5, -1,
      5, 111, 6, -1,
      111, 112, 6, -1,
      6, 112, 7, -1,
      112, 113, 7, -1,
      7, 113, 8, -1,
      114, 21, 20, -1,
      114, 20, 115, -1,
      115, 20, 11, -1,
      115, 11, 116, -1,
      116, 11, 10, -1,
      116, 10, 117, -1,
      117, 10, 9, -1,
      117, 9, 118, -1,
      118, 9, 19, -1,
      118, 19, 119, -1,
      119, 19, 18, -1,
      119, 18, 120, -1,
      120, 18, 17, -1,
      120, 17, 121, -1,
      121, 17, 8, -1,
      121, 8, 113, -1,
      110, 5, 16, -1,
      110, 16, 122, -1,
      122, 16, 15, -1,
      122, 15, 123, -1,
      123, 15, 14, -1,
      123, 14, 124, -1,
      124, 14, 4, -1,
      124, 4, 125, -1,
      125, 4, 3, -1,
      125, 3, 126, -1,
      126, 3, 22, -1,
      126, 22, 127, -1,
      127, 22, 21, -1,
      127, 21, 114, -1,
      116, 117, 128, -1,
      128, 117, 118, -1,
      128, 118, 129, -1,
      129, 118, 119, -1,
      129, 119, 130, -1,
      130, 119, 120, -1,
      130, 120, 131, -1,
      131, 120, 121, -1,
      131, 121, 132, -1,
      132, 121, 113, -1,
      132, 113, 133, -1,
      133, 113, 112, -1,
      133, 112, 134, -1,
      134, 112, 111, -1,
      134, 111, 135, -1,
      135, 111, 110, -1,
      135, 110, 136, -1,
      136, 110, 122, -1,
      136, 122, 137, -1,
      137, 122, 123, -1,
      137, 123, 138, -1,
      138, 123, 124, -1,
      138, 124, 139, -1,
      139, 124, 125, -1,
      139, 125, 140, -1,
      140, 125, 126, -1,
      140, 126, 141, -1,
      141, 126, 127, -1,
      141, 127, 142, -1,
      142, 127, 114, -1,
      142, 114, 143, -1,
      143, 114, 115, -1,
      143, 115, 144, -1,
      144, 115, 116, -1,
      144, 116, 128, -1,
      132, 133, 145, -1,
      145, 133, 146, -1,
      132, 145, 147, -1,
      132, 147, 131, -1,
      131, 147, 148, -1,
      131, 148, 130, -1,
      130, 148, 149, -1,
      130, 149, 129, -1,
      129, 149, 150, -1,
      129, 150, 128, -1,
      128, 150, 151, -1,
      128, 151, 144, -1,
      144, 151, 152, -1,
      144, 152, 143, -1,
      143, 152, 153, -1,
      143, 153, 142, -1,
      142, 153, 154, -1,
      142, 154, 141, -1,
      141, 154, 155, -1,
      141, 155, 140, -1,
      140, 155, 156, -1,
      140, 156, 139, -1,
      139, 156, 157, -1,
      139, 157, 138, -1,
      138, 157, 158, -1,
      138, 158, 137, -1,
      137, 158, 159, -1,
      137, 159, 136, -1,
      136, 159, 160, -1,
      136, 160, 135, -1,
      134, 135, 161, -1,
      161, 135, 160, -1,
      133, 134, 146, -1,
      146, 134, 161, -1,
      162, 163, 30, -1,
      30, 163, 31, -1,
      163, 164, 31, -1,
      31, 164, 32, -1,
      164, 165, 32, -1,
      32, 165, 35, -1,
      165, 166, 35, -1,
      35, 166, 48, -1,
      166, 167, 48, -1,
      48, 167, 39, -1,
      167, 168, 39, -1,
      39, 168, 37, -1,
      168, 169, 37, -1,
      37, 169, 38, -1,
      169, 170, 38, -1,
      38, 170, 40, -1,
      170, 171, 40, -1,
      40, 171, 43, -1,
      171, 172, 43, -1,
      43, 172, 41, -1,
      172, 173, 41, -1,
      41, 173, 42, -1,
      173, 162, 42, -1,
      42, 162, 30, -1,
      164, 163, 162, -1,
      162, 173, 164, -1,
      164, 173, 172, -1,
      164, 172, 165, -1,
      167, 166, 168, -1,
      168, 166, 165, -1,
      168, 165, 169, -1,
      169, 165, 172, -1,
      169, 172, 170, -1,
      170, 172, 171, -1,
      174, 175, 34, -1,
      34, 175, 33, -1,
      33, 175, 176, -1,
      177, 28, 27, -1,
      177, 27, 178, -1,
      178, 27, 26, -1,
      178, 26, 176, -1,
      176, 26, 36, -1,
      176, 36, 33, -1,
      179, 76, 75, -1,
      179, 75, 180, -1,
      180, 75, 73, -1,
      180, 73, 181, -1,
      181, 73, 71, -1,
      181, 71, 182, -1,
      182, 71, 70, -1,
      182, 70, 183, -1,
      183, 70, 47, -1,
      183, 47, 184, -1,
      184, 47, 46, -1,
      184, 46, 185, -1,
      185, 46, 177, -1,
      177, 46, 29, -1,
      177, 29, 28, -1,
      186, 80, 79, -1,
      186, 79, 187, -1,
      187, 79, 78, -1,
      187, 78, 188, -1,
      188, 78, 68, -1,
      188, 68, 189, -1,
      189, 68, 64, -1,
      189, 64, 190, -1,
      190, 64, 63, -1,
      190, 63, 191, -1,
      191, 63, 77, -1,
      191, 77, 192, -1,
      192, 77, 76, -1,
      192, 76, 179, -1,
      193, 82, 81, -1,
      193, 81, 194, -1,
      194, 81, 80, -1,
      194, 80, 186, -1,
      193, 195, 82, -1,
      82, 195, 83, -1,
      196, 85, 84, -1,
      196, 84, 197, -1,
      197, 84, 83, -1,
      197, 83, 195, -1,
      198, 54, 67, -1,
      198, 67, 199, -1,
      199, 67, 66, -1,
      199, 66, 200, -1,
      200, 66, 53, -1,
      200, 53, 201, -1,
      201, 53, 52, -1,
      201, 52, 202, -1,
      202, 52, 50, -1,
      202, 50, 203, -1,
      203, 50, 49, -1,
      203, 49, 204, -1,
      204, 49, 85, -1,
      204, 85, 196, -1,
      205, 58, 57, -1,
      205, 57, 206, -1,
      206, 57, 59, -1,
      206, 59, 207, -1,
      207, 59, 60, -1,
      207, 60, 208, -1,
      208, 60, 61, -1,
      208, 61, 209, -1,
      209, 61, 56, -1,
      209, 56, 210, -1,
      210, 56, 55, -1,
      210, 55, 211, -1,
      211, 55, 54, -1,
      211, 54, 198, -1,
      174, 34, 51, -1,
      174, 51, 212, -1,
      212, 51, 62, -1,
      212, 62, 213, -1,
      213, 62, 58, -1,
      213, 58, 205, -1,
      206, 177, 205, -1,
      205, 177, 178, -1,
      205, 178, 213, -1,
      213, 178, 176, -1,
      213, 176, 212, -1,
      212, 176, 175, -1,
      212, 175, 174, -1,
      195, 193, 197, -1,
      197, 193, 194, -1,
      197, 194, 196, -1,
      196, 194, 186, -1,
      196, 186, 204, -1,
      204, 186, 187, -1,
      204, 187, 203, -1,
      203, 187, 188, -1,
      203, 188, 202, -1,
      202, 188, 189, -1,
      202, 189, 201, -1,
      201, 189, 190, -1,
      201, 190, 200, -1,
      200, 190, 191, -1,
      200, 191, 199, -1,
      199, 191, 192, -1,
      199, 192, 198, -1,
      198, 192, 179, -1,
      198, 179, 211, -1,
      211, 179, 180, -1,
      211, 180, 210, -1,
      210, 180, 181, -1,
      210, 181, 209, -1,
      209, 181, 182, -1,
      209, 182, 208, -1,
      208, 182, 183, -1,
      208, 183, 207, -1,
      207, 183, 184, -1,
      207, 184, 206, -1,
      206, 184, 185, -1,
      206, 185, 177, -1,
      214, 215, 72, -1,
      72, 215, 45, -1,
      215, 216, 45, -1,
      45, 216, 44, -1,
      216, 217, 44, -1,
      44, 217, 69, -1,
      217, 218, 69, -1,
      69, 218, 65, -1,
      218, 219, 65, -1,
      65, 219, 74, -1,
      219, 214, 74, -1,
      74, 214, 72, -1,
      218, 217, 219, -1,
      219, 217, 216, -1,
      219, 216, 214, -1,
      214, 216, 215, -1,
    ]
  }
}

Shape {
  appearance Appearance {
    material Material {
      diffuseColor 1.0000 0.9529 0.7922
      specularColor 0.3020 0.2863 0.2392
      ambientIntensity 0.2
      transparency 0.0000
      shininess 0.5
    }
  }
  geometry IndexedFaceSet {
    ccw TRUE
    solid FALSE
    coord DEF co Coordinate {
      point [
        -0.041035 -0.466919 0.000000,
        -0.106865 -0.466919 0.000000,
        -0.070406 -0.384698 0.000000,
        -0.072300 -0.377871 0.000000,
        -0.073556 -0.370895 0.000000,
        -0.074194 -0.370895 0.000000,
        -0.075478 -0.377850 0.000000,
        -0.077232 -0.384698 0.000000,
        0.130608 -0.368494 0.000000,
        0.159641 -0.368494 0.000000,
        0.107309 -0.370971 0.000000,
        0.091061 -0.376657 0.000000,
        0.076682 -0.385946 0.000000,
        0.067120 -0.396098 0.000000,
        0.060281 -0.408240 0.000000,
        0.055686 -0.423809 0.000000,
        0.054014 -0.443401 0.000000,
        0.055821 -0.464076 0.000000,
        0.061595 -0.482580 0.000000,
        0.069897 -0.496153 0.000000,
        0.080938 -0.507058 0.000000,
        0.094363 -0.515030 0.000000,
        0.110928 -0.520200 0.000000,
        0.131696 -0.522133 0.000000,
        0.159641 -0.522133 0.000000,
      ]
    }
    coordIndex [
      0, 1, 2, -1,
      2, 1, 7, -1,
      2, 7, 3, -1,
      3, 7, 6, -1,
      3, 6, 4, -1,
      4, 6, 5, -1,
      9, 24, 8, -1,
      8, 24, 23, -1,
      8, 23, 22, -1,
      16, 15, 8, -1,
      8, 15, 14, -1,
      8, 14, 10, -1,
      22, 21, 8, -1,
      8, 21, 20, -1,
      8, 20, 19, -1,
      19, 18, 8, -1,
      8, 18, 17, -1,
      8, 17, 16, -1,
      13, 12, 14, -1,
      14, 12, 11, -1,
      14, 11, 10, -1,
    ]
  }
}
